<svg xmlns="http://www.w3.org/2000/svg" width="128" height="128" viewBox="0 0 128 128"><path d="M87.031 36.176c-.808.027-1.715.207-2.87.527-2.759.762-3.974 2.524-3.997 5.8-.02 3.075-1.988 6-5.828 8.661-2.316 1.606-2.617 1.688-2.648.711-.06-1.824-1.981-2.324-8.278-2.16-5.62.148-5.847.203-6.105 1.543-.356 1.875 2.168 2.637 7.98 2.414l4.563-.176-1.801 1.164c-.992.64-1.64 1.25-1.445 1.352.199.101 2.464 1.035 5.039 2.078 2.574 1.039 4.921 1.887 5.21 1.887.973 0 9.024-5.446 11.325-7.66 2.812-2.708 4.812-7.227 4.812-10.876 0-2.246-.398-3.007-2.097-4.039-1.454-.882-2.516-1.27-3.86-1.226m-46.078.004c-1.183-.024-2.308.3-3.414.972-2.285 1.391-2.887 3.157-2.336 6.856 1 6.703 8.063 12.383 24.063 19.34 14.172 6.164 15.254 6.71 17.882 8.984 2.11 1.82 2.618 2.84 2.891 5.8.313 3.325.14 3.782-2.316 6.032-3.305 3.031-3.325 4.004-.106 5.961 2.93 1.781 4.95 1.676 8.695-.453 5.325-3.027 7.711-9.324 5.508-14.547-2.941-6.98-7.66-10.426-23.562-17.215-17.14-7.32-19.328-8.969-20.617-15.523-.633-3.211-1.168-4.137-2.934-5.094-1.332-.719-2.574-1.09-3.754-1.113m.555.984c2.855 0 4.3 1.586 4.75 5.211.781 6.246 3.855 8.64 20.246 15.742 6.988 3.028 14.32 6.61 16.297 7.961 9.918 6.774 11.355 16.621 3.293 22.567-2.91 2.144-5.664 2.484-7.906.976-2.024-1.36-1.754-2.91.93-5.379 1.976-1.816 2.343-2.691 2.312-5.562-.059-5.496-3.746-8.621-16.133-13.66-21.793-8.868-28.633-14.262-28.633-22.594 0-3.809 1.34-5.262 4.844-5.262m45.68 0c3.8 0 5.207 2.488 4.093 7.262-1.058 4.527-3.715 7.797-9.43 11.594-2.417 1.609-4.84 2.91-5.378 2.898-.54-.012-2.63-.73-4.645-1.598l-3.668-1.578 4.625-2.699c5.95-3.477 8.367-6.371 8.903-10.68.48-3.86 1.894-5.199 5.5-5.199m-23.356 5.188c-11.582 0-12.672.082-13.484 1.003-1.141 1.297-1.13 1.364.457 2.329 1.972 1.199 24.363 1.199 26.336 0 .738-.45 1.336-1.102 1.336-1.454 0-1.609-2.11-1.878-14.645-1.878m8.762.722c3.48.102 4.527.574 3.906 1.555-.45.71-2.344.832-12.93.832-11.828 0-12.398-.047-12.398-1.035 0-.922.61-1.047 5.332-1.114 2.934-.039 8.234-.14 11.77-.226a81 81 0 0 1 4.32-.012m-8.106 7.153c4.477.14 5.059.289 5.301 1.328.262 1.11-.004 1.164-5.36 1.164-4.324 0-5.75-.188-6.144-.809-.86-1.363.93-1.847 6.203-1.683m-13.05 11.5c-.489.015-.954.132-1.555.328-3.113 1.011-8.754 5.32-11.172 8.523-3.219 4.277-4.266 8.45-2.984 11.93 1.199 3.25 5.488 7.484 8.511 8.39 2.95.887 6.52-.023 7.871-2.003 1.008-1.48.875-1.852-1.625-4.598-5.152-5.649-3.273-10.645 5.899-15.688l5.062-2.785-4.738-2.222c-2.996-1.407-4.195-1.903-5.27-1.875m-.047.402 4.02 1.828 4.026 1.82-4.648 2.672c-6.355 3.653-8.238 5.977-8.281 10.239-.024 2.898.328 3.726 2.32 5.472 2.723 2.387 2.996 4.336.785 5.55-2.48 1.368-4.914 1.032-7.761-1.065-8.575-6.325-6.293-16.946 5.12-23.844Zm12.582 7.18c-4.57 0-7.727.238-8.364.625-1.484.902-1.257 2.355.47 2.964.82.293 4.44.536 8.046.543 6.578.02 9.234-.629 9.234-2.25 0-1.441-2.18-1.882-9.386-1.882m.05 1.039c7.063 0 7.633.078 7.633 1.039 0 .843-.601 1.047-3.203 1.09-1.762.03-4.89.09-6.953.132-4.035.079-6.7-.695-5.715-1.664.387-.379 3.403-.597 8.238-.597m.09 6.222c-12.86 0-14.644.25-14.644 2.075 0 .453.457 1.109 1.02 1.449.702.43 4.964.625 13.624.625 11.727 0 12.66-.074 13.512-1.04.648-.734.648-1.335 0-2.07-.852-.964-1.785-1.039-13.512-1.039m-.09 1.04c12.184 0 12.75.042 12.75 1.035 0 .988-.566 1.035-12.75 1.035-7.578 0-12.964-.211-13.28-.52-1.298-1.273 1.085-1.55 13.28-1.55m0 0" style="stroke:none;fill-rule:nonzero;fill:#000;fill-opacity:1"/></svg>