<?xml version="1.0" encoding="UTF-8"?>
<svg xmlns="http://www.w3.org/2000/svg" xmlns:xlink="http://www.w3.org/1999/xlink" width="128px" height="128px" viewBox="0 0 128 128" version="1.1">
<g id="surface1">
<path style=" stroke:none;fill-rule:nonzero;fill:rgb(38.431373%,38.431373%,38.431373%);fill-opacity:1;" d="M 60.15625 121.128906 C 58.957031 120.761719 54.695312 120.273438 50.691406 120.042969 L 43.40625 119.628906 L 48.140625 118.246094 C 51.246094 117.335938 52.78125 116.566406 52.601562 116.003906 C 52.453125 115.53125 51.8125 113.546875 51.179688 111.597656 C 49.621094 106.796875 49.734375 92.253906 51.429688 79.6875 C 52.25 73.628906 52.734375 65.5625 52.730469 58.09375 C 52.726562 46.5 52.660156 45.96875 50.339844 39.074219 C 45.292969 24.058594 47.3125 13.039062 56.085938 7.71875 C 58.183594 6.445312 59.503906 6.199219 64.167969 6.199219 C 69.109375 6.199219 70.03125 6.394531 72.339844 7.953125 C 73.769531 8.917969 75.789062 11.222656 76.832031 13.074219 C 79.5 17.8125 79.503906 25.3125 76.835938 32.984375 C 74.054688 41 73.800781 50.847656 75.828125 72.597656 C 77.6875 92.554688 77.578125 107.914062 75.535156 112.808594 C 74.890625 114.359375 74.359375 115.851562 74.359375 116.128906 C 74.359375 116.402344 76.082031 116.984375 78.183594 117.421875 C 80.285156 117.859375 82.828125 118.601562 83.828125 119.070312 C 85.453125 119.835938 84.867188 119.933594 78.367188 119.976562 C 73.476562 120.007812 70.484375 120.328125 69.261719 120.945312 C 67.152344 122.015625 63.285156 122.09375 60.15625 121.128906 Z M 68.960938 115.011719 C 72.480469 110.371094 73.019531 97.171875 70.660156 73.183594 C 68.738281 53.636719 69.003906 39.332031 71.410156 32.949219 C 73.542969 27.285156 74.164062 19.199219 72.703125 16.113281 C 71.253906 13.046875 66.910156 10.128906 63.796875 10.128906 C 60.542969 10.128906 55.964844 12.933594 54.261719 15.972656 C 52.101562 19.828125 52.429688 28.957031 55.019531 36.820312 C 56.789062 42.199219 57.078125 44.351562 57.398438 54.546875 C 57.644531 62.46875 57.398438 69.523438 56.617188 76.785156 C 54.171875 99.554688 54.324219 107.671875 57.296875 113.214844 C 59.753906 117.796875 66.105469 118.773438 68.960938 115.011719 Z M 68.960938 115.011719 "/>
</g>
</svg>
