<?xml version="1.0" encoding="UTF-8"?>
<svg xmlns="http://www.w3.org/2000/svg" xmlns:xlink="http://www.w3.org/1999/xlink" width="64px" height="64px" viewBox="0 0 64 64" version="1.1">
<g id="surface1">
<path style=" stroke:none;fill-rule:nonzero;fill:rgb(38.431373%,38.431373%,38.431373%);fill-opacity:1;" d="M 30.078125 60.566406 C 29.476562 60.378906 27.347656 60.136719 25.34375 60.023438 L 21.703125 59.816406 L 24.070312 59.121094 C 25.621094 58.667969 26.390625 58.28125 26.300781 58 C 26.226562 57.765625 25.90625 56.773438 25.589844 55.800781 C 24.808594 53.398438 24.867188 46.128906 25.714844 39.84375 C 26.125 36.816406 26.367188 32.78125 26.367188 29.046875 C 26.363281 23.25 26.328125 22.984375 25.171875 19.539062 C 22.648438 12.027344 23.65625 6.519531 28.042969 3.859375 C 29.09375 3.222656 29.753906 3.097656 32.082031 3.097656 C 34.554688 3.097656 35.015625 3.199219 36.167969 3.976562 C 36.882812 4.457031 37.894531 5.609375 38.417969 6.539062 C 39.75 8.90625 39.75 12.65625 38.417969 16.492188 C 37.027344 20.5 36.902344 25.421875 37.914062 36.296875 C 38.84375 46.277344 38.789062 53.957031 37.769531 56.402344 C 37.445312 57.179688 37.179688 57.925781 37.179688 58.0625 C 37.179688 58.203125 38.039062 58.492188 39.089844 58.710938 C 40.144531 58.929688 41.414062 59.300781 41.914062 59.535156 C 42.726562 59.917969 42.433594 59.964844 39.183594 59.988281 C 36.738281 60.003906 35.242188 60.164062 34.628906 60.472656 C 33.574219 61.007812 31.644531 61.046875 30.078125 60.566406 Z M 34.480469 57.503906 C 36.242188 55.183594 36.507812 48.585938 35.328125 36.589844 C 34.367188 26.816406 34.503906 19.667969 35.703125 16.476562 C 36.773438 13.640625 37.082031 9.601562 36.351562 8.054688 C 35.628906 6.523438 33.453125 5.066406 31.898438 5.066406 C 30.273438 5.066406 27.984375 6.46875 27.132812 7.984375 C 26.050781 9.914062 26.214844 14.480469 27.507812 18.410156 C 28.394531 21.097656 28.539062 22.175781 28.699219 27.273438 C 28.824219 31.234375 28.699219 34.761719 28.308594 38.394531 C 27.085938 49.777344 27.160156 53.835938 28.648438 56.609375 C 29.875 58.898438 33.054688 59.386719 34.480469 57.503906 Z M 34.480469 57.503906 "/>
</g>
</svg>
