<?xml version="1.0" encoding="UTF-8"?>
<svg xmlns="http://www.w3.org/2000/svg" xmlns:xlink="http://www.w3.org/1999/xlink" width="32px" height="32px" viewBox="0 0 32 32" version="1.1">
<g id="surface1">
<path style=" stroke:none;fill-rule:nonzero;fill:rgb(38.431373%,38.431373%,38.431373%);fill-opacity:1;" d="M 15.039062 30.28125 C 14.738281 30.191406 13.675781 30.066406 12.671875 30.011719 L 10.851562 29.90625 L 12.035156 29.5625 C 12.8125 29.335938 13.195312 29.140625 13.152344 29 C 13.113281 28.882812 12.953125 28.386719 12.796875 27.898438 C 12.40625 26.699219 12.433594 23.0625 12.859375 19.921875 C 13.0625 18.40625 13.183594 16.390625 13.183594 14.523438 C 13.179688 11.625 13.164062 11.492188 12.585938 9.769531 C 11.324219 6.015625 11.828125 3.261719 14.019531 1.929688 C 14.546875 1.613281 14.875 1.550781 16.042969 1.550781 C 17.277344 1.550781 17.507812 1.597656 18.085938 1.988281 C 18.441406 2.230469 18.949219 2.804688 19.207031 3.269531 C 19.875 4.453125 19.875 6.328125 19.210938 8.246094 C 18.511719 10.25 18.449219 12.710938 18.957031 18.148438 C 19.421875 23.136719 19.394531 26.976562 18.882812 28.203125 C 18.722656 28.589844 18.589844 28.964844 18.589844 29.03125 C 18.589844 29.101562 19.019531 29.246094 19.546875 29.355469 C 20.070312 29.464844 20.707031 29.648438 20.957031 29.769531 C 21.363281 29.957031 21.214844 29.984375 19.589844 29.992188 C 18.367188 30.003906 17.621094 30.082031 17.316406 30.238281 C 16.789062 30.503906 15.820312 30.523438 15.039062 30.28125 Z M 17.242188 28.753906 C 18.121094 27.59375 18.253906 24.292969 17.664062 18.296875 C 17.183594 13.410156 17.25 9.832031 17.851562 8.238281 C 18.386719 6.820312 18.542969 4.800781 18.175781 4.027344 C 17.8125 3.261719 16.726562 2.53125 15.949219 2.53125 C 15.136719 2.53125 13.992188 3.234375 13.566406 3.992188 C 13.023438 4.957031 13.109375 7.238281 13.753906 9.203125 C 14.199219 10.550781 14.269531 11.085938 14.347656 13.636719 C 14.410156 15.617188 14.347656 17.382812 14.15625 19.195312 C 13.542969 24.886719 13.582031 26.917969 14.324219 28.304688 C 14.9375 29.449219 16.527344 29.695312 17.242188 28.753906 Z M 17.242188 28.753906 "/>
</g>
</svg>
