<svg xmlns="http://www.w3.org/2000/svg" xml:space="preserve" width="128" height="128" viewBox="0 0 33.867 33.867"><path d="M15.917 32.05c-.318-.099-1.446-.228-2.505-.288l-1.927-.11 1.252-.366c.822-.24 1.228-.445 1.18-.594-.039-.125-.208-.649-.376-1.165-.412-1.27-.382-5.118.067-8.443.216-1.603.345-3.737.344-5.714-.002-3.067-.02-3.208-.632-5.031-1.336-3.974-.802-6.889 1.519-8.296.556-.338.905-.403 2.138-.403 1.308 0 1.552.052 2.162.464.379.255.914.865 1.19 1.355.706 1.254.706 3.238 0 5.268-.736 2.12-.802 4.726-.266 10.48.492 5.281.462 9.345-.077 10.64-.172.41-.312.806-.312.878 0 .073.456.227 1.012.343.556.115 1.228.312 1.493.436.43.202.275.228-1.445.24-1.293.008-2.085.093-2.409.256-.558.283-1.58.304-2.408.05m2.33-1.62c.93-1.228 1.072-4.72.448-11.067-.508-5.172-.438-8.956.199-10.645.564-1.499.729-3.638.342-4.455-.383-.81-1.533-1.583-2.357-1.583-.86 0-2.071.742-2.522 1.546-.572 1.02-.484 3.436.2 5.516.469 1.423.545 1.993.63 4.69.065 2.096 0 3.963-.207 5.885-.647 6.023-.607 8.171.18 9.638.65 1.212 2.33 1.47 3.086.475" style="fill:#626262;fill-opacity:1"/></svg>