<svg xmlns="http://www.w3.org/2000/svg" xml:space="preserve" width="128" height="128" viewBox="0 0 33.867 33.867"><path d="M8.61 30.531c-.132-.221.85-.651 1.797-.787.788-.113.867-.349.23-.683-.245-.129-.753-.167-1.392-.105-1.261.123-1.704.008-2.395-.626-.608-.557-.867-1.313-1.048-3.052l-.114-1.102-.974-.09c-1.597-.148-2.552-.865-3.27-2.454-.493-1.096-.514-2.593-.054-3.879.182-.508.43-1.009.55-1.113.159-.137.195-.485.135-1.276-.074-.96-.033-1.178.347-1.856.552-.983 1.59-1.725 2.925-2.09 1.045-.287 1.065-.286 1.917.102 1.357.619 1.429.627 1.429.16 0-.306-.215-.556-.851-.994-1.846-1.27-2.09-3.212-.59-4.683 1.146-1.123 3.037-1.744 4.362-1.434.649.153.696.137.947-.32.145-.263.485-.616.755-.783.62-.384 1.941-.395 2.618-.022.456.252.565.253 1.218.015 1.543-.564 4.335.11 5.438 1.311.576.628.616 1.695.096 2.573-.343.58-.344.608-.058.977.294.379.298.38.854.065.851-.482 3.085-.446 4.006.065 1.061.589 1.847 1.397 2.261 2.327.61 1.368.463 2.626-.45 3.85-.257.344-.467.701-.467.793s.386.285.857.428c2.592.786 3.893 4.065 2.633 6.636-.594 1.214-1.464 1.948-2.896 2.446-1.031.358-1.055.38-1.537 1.434-.27.588-.683 1.228-.919 1.422-.55.453-1.92.635-2.837.378-.696-.196-.706-.192-1.18.409-1.31 1.659-3.893 2.207-6.11 1.296l-.76-.313-.776.41c-.427.225-1.304.481-1.95.569-1.59.216-4.619.213-4.747-.004m5.854-1.429c.31-.135.563-.287.563-.339 0-.05-.246-.455-.547-.899-.3-.443-.616-1.03-.7-1.303-.14-.454-.273-.528-1.524-.848-1.772-.453-2.724-1.052-3.632-2.284-.964-1.307-1.594-1.843-2.332-1.983-1.079-.204-1.66-.65-1.66-1.273 0-.088.165-.05.366.085s.73.3 1.175.368c1.266.193 1.702.464 3.007 1.866 1.551 1.668 2.47 2.145 4.126 2.145 1.448 0 2.286-.394 3.37-1.585.913-1.004 1.208-2.02 1.039-3.583-.149-1.375-.708-2.484-1.565-3.104-.624-.452-.813-.499-2.002-.498-1.153 0-1.502.081-2.857.66-1.996.854-3.722 1.028-4.425.447-.588-.486-.618-.927-.045-.655.662.315 3.82-.38 3.82-.84 0-.07-.332-.525-.74-1.011-.543-.648-.92-.934-1.42-1.073a5.4 5.4 0 0 1-1.219-.532c-.634-.405-1.593-.433-2.273-.066-.723.39-1.476 1.1-1.748 1.65-.256.517-.164.893.38 1.545.226.27.183.366-.496 1.124-1.514 1.69-1.399 3.709.301 5.267.532.488.65.52 1.856.52 1.544 0 1.538-.006 1.699 2.055.126 1.623.47 2.427 1.154 2.698.23.091.949.166 1.6.166 1.042 0 1.259.057 1.816.48.349.264.734.608.857.763.279.354 1.287.372 2.056.037m-.785-7.662c-.057-.06.15-.372.46-.696.597-.623.722-1.282.408-2.145-.12-.331-.108-.408.058-.342.304.122.624 1.36.501 1.942-.056.27-.322.684-.59.92-.506.443-.662.503-.837.32m7.114 7.22c.357-.17.8-.449.985-.619.418-.384 1.11-1.63 1.356-2.44.39-1.29 1.063-2.122 2.233-2.765 1.885-1.037 2.68-2.05 2.68-3.416 0-1.194-.374-3.272-.606-3.365-.412-.165-1.239.633-1.548 1.495-.366 1.02-1.322 2.08-2.093 2.32-.671.209-1.885.14-1.838-.104.018-.093.254-.216.524-.274.854-.182 1.293-.629 1.945-1.977.786-1.624 1.259-2.1 2.685-2.701.984-.416 1.17-.567 1.5-1.222.715-1.413.373-2.604-1.044-3.644-.971-.713-2.293-.805-3.623-.253-.92.38-.964.427-.97.996-.002.328-.143 1.015-.312 1.527-.17.512-.295.94-.28.951.017.011.3.064.631.117.694.112 1.429-.356 1.429-.909 0-.525.255-.377.441.256.287.976-.136 1.236-2.915 1.796-1.087.22-1.5.65-1.672 1.739-.135.864-.424 1.234-1.155 1.486l-.551.19.105 1.32c.233 2.917-1 5.369-3.13 6.217-.85.34-.913.718-.279 1.693 1.198 1.843 3.547 2.52 5.502 1.587m-.812-2.678c.535-.154 1.134-.376 1.329-.492.43-.257.538-.265.538-.04 0 .395-1.056.844-1.949.828l-.893-.015zm6.1.816c.174-.097.495-.547.716-1 .49-1.01.976-1.425 2.224-1.9 1.609-.613 2.734-2.062 2.734-3.52 0-.78-.46-1.924-1.017-2.523-.482-.52-1.637-1.055-1.833-.85-.048.05-.01.746.086 1.547.228 1.914.035 2.733-.9 3.82-.385.446-1.125 1.054-1.644 1.35-1.24.706-1.57 1.015-1.982 1.858-.392.802-.43 1.159-.14 1.281.367.155 1.436.116 1.757-.063m-6.953-10.457c.067-.039.122-.21.122-.38 0-.552.47-1.502 1.22-2.464 1.237-1.585 1.377-1.91 1.378-3.198 0-1.054-.042-1.202-.474-1.653-.795-.83-1.517-.595-1.588.515-.024.38-.149.9-.276 1.155-.572 1.14-2.036 2.075-3.245 2.073-.57-.001-1.795-.322-1.682-.44.04-.043.559-.106 1.151-.14 1.747-.103 2.956-1.063 3.266-2.592.112-.552.615-1.08 1.868-1.96 1.23-.865 1.163-1.589-.21-2.257-.948-.46-2.241-.54-3.422-.21-.611.17-.87.153-1.716-.115-1.083-.342-1.69-.252-2.02.299-.138.232-.11.423.125.848.167.3.525.986.796 1.523.321.635.595.975.786.975.634 0 1.145-.43 1.65-1.389.287-.545.598-.96.692-.922s.31-.038.48-.167c.35-.268 1.185-.308 1.54-.073.29.192.273.206-.644.52-.642.22-.79.37-1.218 1.233-.297.599-.713 1.14-1.063 1.382-1.247.862-2.984 1.013-4.297.373-1.189-.58-2.785-1.684-2.551-1.765.11-.039.825.165 1.588.453 1.319.499 2.506.682 2.506.388 0-.292-.946-1.674-1.447-2.114-.433-.38-.685-.463-1.413-.463-1.068 0-1.785.291-2.752 1.119C7.045 7.949 7.146 8.892 8.6 9.9c.88.61 1.392 1.42 1.392 2.202 0 .238.318.865.728 1.434 1.038 1.443 1.086 1.473 1.942 1.248 1.749-.46 3.564-.023 4.828 1.162.673.63 1.072.727 1.638.395m3.208 14.205-.894-.103.65-.325c.92-.462 3.478-.48 4.344-.03.335.174.61.384.61.466 0 .164-3.27.158-4.71-.008" style="fill:#626262;fill-opacity:1"/></svg>