<svg xmlns="http://www.w3.org/2000/svg" xml:space="preserve" width="128" height="128" viewBox="0 0 33.867 33.867"><path d="M8.693 30.083c-.207-.032-.377-.13-.377-.216 0-.203 1.288-.21 1.41-.008.108.177-.492.307-1.033.224m3.848-.147c-.356-.146-.23-.569.22-.743.836-.324 2.75-.088 2.75.338 0 .36-2.31.676-2.97.405m14.946-.037c-.14-.23.855-.373 1.326-.19.23.088.418.201.418.25 0 .154-1.648.098-1.744-.06m-7.704-.461c-1.626-.371-2.702-.932-3.89-2.027-.561-.516-1.072-.94-1.135-.94-.064 0-.326.154-.584.34s-1.135.505-1.95.706c-3.266.806-6.39.208-8.342-1.597-1.788-1.653-2.508-3.572-2.389-6.368.066-1.538.138-1.861.662-2.98.684-1.46 1.871-2.87 3.073-3.653.903-.589 2.347-1.096 3.119-1.096.417 0 .532-.13.997-1.132.718-1.546 2.472-3.409 3.953-4.198 1.782-.95 2.834-1.194 4.705-1.093 1.965.107 2.976.42 4.38 1.36 1.964 1.314 2.926 3.347 2.809 5.937l-.054 1.19 1.085.374c2.41.829 4.11 2.283 5.182 4.436.886 1.78 1.055 3.214.59 5.014-.815 3.147-2.919 5.017-6.36 5.652-1.8.332-4.57.368-5.851.075m6.392-1.406c2.272-.624 3.535-1.616 4.367-3.429.516-1.123.59-1.452.597-2.645.007-1.263-.04-1.454-.645-2.614-.88-1.69-1.76-2.6-3.354-3.47l-1.339-.73h-2.259c-2.197 0-2.29.016-3.396.55-1.429.688-3.002 1.804-3.52 2.497-.22.292-.65 1.029-.958 1.638-.515 1.02-.56 1.233-.567 2.725-.006 1.246.063 1.764.302 2.253.825 1.69 2.545 2.946 4.71 3.437 1.523.346 4.396.246 6.062-.212m-3.957-.436c-.162-.198-.093-.236.397-.222.623.018.775.183.328.357-.389.152-.51.13-.725-.135m-2.859-.954c0-.094.151-.17.335-.17s.335.076.335.17-.15.17-.335.17c-.184 0-.335-.076-.335-.17m6.764.022c.05-.081.314-.194.589-.25s.803-.381 1.174-.723c.372-.342.676-.57.676-.505 0 .346-.417.792-1.106 1.185-.752.427-1.517.596-1.333.293m.555-3.462c.294-.3.575-.504.625-.454.14.143-.647.999-.918.999-.15 0-.04-.207.293-.545m2.394.374c-.006-.44.192-1.022.346-1.022.233 0 .173.583-.098.947-.186.251-.246.27-.248.075M11.605 26.56c.566-.136 1.38-.46 1.81-.721.858-.52.826-.356.436-2.263-.23-1.12.3-3.342 1.11-4.652 1.032-1.672 1.067-1.779.864-2.6-.616-2.492-4.78-4.107-8.37-3.247-2.398.575-4.177 2.597-4.94 5.616-.524 2.075.228 4.845 1.689 6.215.403.378 1.023.838 1.377 1.02.558.289 1.035.42 2.819.778.763.153 2.24.086 3.205-.146m-1.276-1.444c-.135-.087-.21-.19-.167-.229.144-.128 1.333.086 1.333.24 0 .2-.851.191-1.166-.011m-2.366-3.967c-.196-.381-.195-.382.162-.059.398.36.435.442.197.442-.089 0-.25-.172-.359-.383m10.4-5.73c1.608-.943 2.846-1.372 4.317-1.496.704-.059 1.336-.192 1.404-.294.369-.562-.096-3.018-.832-4.4-.516-.97-1.596-1.863-2.87-2.375-.76-.305-1.29-.378-2.78-.386-1.79-.01-1.876.007-3.154.629-1.547.752-3.34 2.463-3.924 3.745-.202.444-.367.842-.367.884s.358.126.795.186c2.475.34 4.896 1.824 5.748 3.523.178.356.371.647.43.647.057 0 .612-.298 1.233-.663m3.377-3.457c.104-.316.464-.368.464-.068 0 .149-.12.27-.265.27s-.235-.09-.199-.202M4.487 28.872c-.44-.284.456-.577 1.448-.473.99.104 1.133.17.966.446-.132.218-2.084.24-2.414.027" style="fill:#626262;fill-opacity:1"/></svg>