<?xml version="1.0" encoding="UTF-8"?>
<svg xmlns="http://www.w3.org/2000/svg" xmlns:xlink="http://www.w3.org/1999/xlink" width="64px" height="64px" viewBox="0 0 64 64" version="1.1">
<g id="surface1">
<path style=" stroke:none;fill-rule:nonzero;fill:rgb(38.431373%,38.431373%,38.431373%);fill-opacity:1;" d="M 16.425781 56.847656 C 16.035156 56.789062 15.714844 56.605469 15.714844 56.441406 C 15.714844 56.058594 18.148438 56.046875 18.382812 56.425781 C 18.582031 56.761719 17.449219 57.003906 16.425781 56.847656 Z M 23.699219 56.570312 C 23.027344 56.296875 23.261719 55.496094 24.117188 55.167969 C 25.695312 54.554688 29.3125 55 29.3125 55.804688 C 29.3125 56.488281 24.945312 57.082031 23.699219 56.570312 Z M 51.945312 56.503906 C 51.679688 56.066406 53.558594 55.796875 54.449219 56.140625 C 54.882812 56.308594 55.242188 56.523438 55.242188 56.617188 C 55.242188 56.90625 52.125 56.800781 51.945312 56.503906 Z M 37.382812 55.628906 C 34.3125 54.929688 32.277344 53.871094 30.035156 51.800781 C 28.972656 50.824219 28.007812 50.027344 27.886719 50.027344 C 27.769531 50.027344 27.273438 50.3125 26.785156 50.667969 C 26.296875 51.019531 24.640625 51.621094 23.101562 52 C 16.929688 53.523438 11.027344 52.394531 7.335938 48.984375 C 3.957031 45.859375 2.597656 42.230469 2.820312 36.949219 C 2.945312 34.042969 3.082031 33.433594 4.074219 31.316406 C 5.367188 28.558594 7.609375 25.890625 9.878906 24.414062 C 11.585938 23.300781 14.316406 22.34375 15.773438 22.34375 C 16.5625 22.34375 16.78125 22.097656 17.65625 20.203125 C 19.015625 17.28125 22.328125 13.761719 25.128906 12.269531 C 28.496094 10.476562 30.484375 10.015625 34.019531 10.207031 C 37.734375 10.40625 39.644531 11 42.296875 12.773438 C 46.007812 15.257812 47.828125 19.101562 47.605469 23.992188 L 47.503906 26.246094 L 49.554688 26.949219 C 54.109375 28.515625 57.320312 31.265625 59.347656 35.332031 C 61.019531 38.695312 61.339844 41.40625 60.460938 44.808594 C 58.921875 50.753906 54.945312 54.289062 48.441406 55.488281 C 45.042969 56.117188 39.804688 56.183594 37.382812 55.628906 Z M 49.464844 52.972656 C 53.757812 51.792969 56.144531 49.921875 57.71875 46.492188 C 58.691406 44.371094 58.832031 43.75 58.84375 41.496094 C 58.859375 39.109375 58.769531 38.746094 57.628906 36.554688 C 55.960938 33.363281 54.300781 31.640625 51.289062 30 L 48.757812 28.621094 L 44.488281 28.621094 C 40.335938 28.621094 40.164062 28.648438 38.070312 29.65625 C 35.371094 30.957031 32.398438 33.066406 31.417969 34.375 C 31.003906 34.929688 30.191406 36.320312 29.609375 37.472656 C 28.636719 39.402344 28.550781 39.800781 28.539062 42.621094 C 28.527344 44.976562 28.65625 45.957031 29.109375 46.878906 C 30.667969 50.074219 33.917969 52.445312 38.007812 53.375 C 40.886719 54.027344 46.316406 53.839844 49.464844 52.972656 Z M 41.984375 52.148438 C 41.679688 51.777344 41.8125 51.703125 42.738281 51.730469 C 43.914062 51.765625 44.199219 52.074219 43.355469 52.40625 C 42.621094 52.691406 42.394531 52.648438 41.984375 52.148438 Z M 36.585938 50.347656 C 36.585938 50.171875 36.871094 50.027344 37.21875 50.027344 C 37.566406 50.027344 37.851562 50.171875 37.851562 50.347656 C 37.851562 50.523438 37.566406 50.667969 37.21875 50.667969 C 36.871094 50.667969 36.585938 50.523438 36.585938 50.347656 Z M 49.367188 50.390625 C 49.460938 50.234375 49.960938 50.023438 50.476562 49.917969 C 50.996094 49.8125 51.996094 49.195312 52.699219 48.550781 C 53.402344 47.902344 53.976562 47.472656 53.976562 47.59375 C 53.976562 48.25 53.1875 49.09375 51.886719 49.835938 C 50.464844 50.644531 49.019531 50.960938 49.367188 50.390625 Z M 50.414062 43.847656 C 50.96875 43.28125 51.503906 42.894531 51.59375 42.988281 C 51.859375 43.257812 50.375 44.875 49.859375 44.875 C 49.578125 44.875 49.785156 44.484375 50.414062 43.847656 Z M 54.9375 44.554688 C 54.929688 43.722656 55.300781 42.621094 55.59375 42.621094 C 56.035156 42.621094 55.917969 43.722656 55.410156 44.410156 C 55.054688 44.886719 54.941406 44.917969 54.9375 44.554688 Z M 21.929688 50.191406 C 23 49.9375 24.539062 49.324219 25.351562 48.828125 C 26.972656 47.847656 26.914062 48.15625 26.175781 44.554688 C 25.742188 42.433594 26.742188 38.238281 28.273438 35.761719 C 30.222656 32.601562 30.289062 32.398438 29.90625 30.847656 C 28.742188 26.140625 20.871094 23.085938 14.089844 24.710938 C 9.554688 25.796875 6.195312 29.621094 4.753906 35.324219 C 3.761719 39.246094 5.183594 44.480469 7.945312 47.070312 C 8.707031 47.785156 9.875 48.652344 10.546875 49 C 11.601562 49.542969 12.503906 49.792969 15.875 50.46875 C 17.316406 50.757812 20.109375 50.628906 21.929688 50.191406 Z M 19.519531 47.464844 C 19.261719 47.296875 19.121094 47.105469 19.203125 47.03125 C 19.476562 46.789062 21.722656 47.195312 21.722656 47.484375 C 21.722656 47.863281 20.113281 47.847656 19.519531 47.464844 Z M 15.046875 39.964844 C 14.675781 39.246094 14.679688 39.246094 15.355469 39.855469 C 16.105469 40.535156 16.175781 40.691406 15.726562 40.691406 C 15.558594 40.691406 15.253906 40.363281 15.046875 39.964844 Z M 34.703125 29.140625 C 37.738281 27.355469 40.078125 26.542969 42.859375 26.3125 C 44.191406 26.199219 45.386719 25.949219 45.511719 25.753906 C 46.210938 24.695312 45.332031 20.050781 43.941406 17.441406 C 42.964844 15.609375 40.925781 13.921875 38.515625 12.953125 C 37.082031 12.375 36.082031 12.238281 33.265625 12.222656 C 29.882812 12.203125 29.71875 12.238281 27.304688 13.410156 C 24.378906 14.832031 20.992188 18.066406 19.890625 20.488281 C 19.507812 21.328125 19.195312 22.078125 19.195312 22.160156 C 19.195312 22.238281 19.871094 22.398438 20.695312 22.511719 C 25.375 23.152344 29.949219 25.957031 31.558594 29.167969 C 31.894531 29.839844 32.261719 30.390625 32.371094 30.390625 C 32.480469 30.390625 33.527344 29.828125 34.703125 29.140625 Z M 41.085938 22.605469 C 41.28125 22.007812 41.960938 21.910156 41.960938 22.476562 C 41.960938 22.757812 41.734375 22.988281 41.460938 22.988281 C 41.183594 22.988281 41.015625 22.816406 41.085938 22.605469 Z M 8.480469 54.5625 C 7.644531 54.023438 9.339844 53.46875 11.214844 53.667969 C 13.085938 53.863281 13.359375 53.988281 13.042969 54.511719 C 12.792969 54.921875 9.101562 54.964844 8.480469 54.5625 Z M 8.480469 54.5625 "/>
</g>
</svg>
