<?xml version="1.0" encoding="UTF-8"?>
<svg xmlns="http://www.w3.org/2000/svg" xmlns:xlink="http://www.w3.org/1999/xlink" width="32px" height="32px" viewBox="0 0 32 32" version="1.1">
<g id="surface1">
<path style=" stroke:none;fill-rule:nonzero;fill:rgb(38.431373%,38.431373%,38.431373%);fill-opacity:1;" d="M 8.214844 28.425781 C 8.019531 28.394531 7.859375 28.300781 7.859375 28.21875 C 7.859375 28.03125 9.074219 28.023438 9.191406 28.214844 C 9.292969 28.378906 8.726562 28.503906 8.214844 28.425781 Z M 11.851562 28.285156 C 11.511719 28.148438 11.632812 27.75 12.058594 27.582031 C 12.847656 27.277344 14.65625 27.5 14.65625 27.902344 C 14.65625 28.242188 12.472656 28.542969 11.851562 28.285156 Z M 25.972656 28.25 C 25.839844 28.035156 26.78125 27.898438 27.226562 28.070312 C 27.441406 28.15625 27.621094 28.261719 27.621094 28.308594 C 27.621094 28.453125 26.0625 28.398438 25.972656 28.25 Z M 18.691406 27.816406 C 17.15625 27.464844 16.140625 26.933594 15.015625 25.902344 C 14.488281 25.414062 14.003906 25.011719 13.945312 25.011719 C 13.882812 25.011719 13.636719 25.15625 13.394531 25.332031 C 13.148438 25.511719 12.320312 25.808594 11.550781 26 C 8.464844 26.761719 5.511719 26.195312 3.667969 24.492188 C 1.980469 22.929688 1.296875 21.117188 1.410156 18.472656 C 1.472656 17.019531 1.539062 16.714844 2.035156 15.65625 C 2.683594 14.28125 3.804688 12.945312 4.941406 12.207031 C 5.792969 11.652344 7.15625 11.171875 7.886719 11.171875 C 8.28125 11.171875 8.390625 11.046875 8.828125 10.101562 C 9.507812 8.640625 11.164062 6.882812 12.5625 6.136719 C 14.246094 5.238281 15.242188 5.007812 17.011719 5.101562 C 18.867188 5.203125 19.820312 5.5 21.148438 6.386719 C 23.003906 7.628906 23.914062 9.550781 23.800781 11.996094 L 23.75 13.121094 L 24.777344 13.476562 C 27.054688 14.257812 28.660156 15.632812 29.671875 17.667969 C 30.511719 19.347656 30.671875 20.703125 30.230469 22.402344 C 29.460938 25.378906 27.472656 27.144531 24.222656 27.746094 C 22.519531 28.058594 19.902344 28.09375 18.691406 27.816406 Z M 24.734375 26.488281 C 26.878906 25.898438 28.070312 24.960938 28.859375 23.246094 C 29.347656 22.1875 29.417969 21.875 29.421875 20.746094 C 29.429688 19.554688 29.382812 19.375 28.8125 18.277344 C 27.980469 16.679688 27.148438 15.820312 25.644531 15 L 24.378906 14.308594 L 22.246094 14.308594 C 20.167969 14.308594 20.082031 14.324219 19.035156 14.828125 C 17.683594 15.480469 16.199219 16.535156 15.707031 17.1875 C 15.503906 17.464844 15.09375 18.160156 14.804688 18.734375 C 14.316406 19.699219 14.277344 19.902344 14.269531 21.3125 C 14.261719 22.488281 14.328125 22.976562 14.554688 23.441406 C 15.332031 25.035156 16.960938 26.222656 19.003906 26.6875 C 20.445312 27.015625 23.160156 26.917969 24.734375 26.488281 Z M 20.992188 26.074219 C 20.839844 25.886719 20.90625 25.851562 21.367188 25.863281 C 21.957031 25.882812 22.101562 26.039062 21.679688 26.203125 C 21.3125 26.347656 21.195312 26.324219 20.992188 26.074219 Z M 18.292969 25.171875 C 18.292969 25.085938 18.433594 25.011719 18.609375 25.011719 C 18.78125 25.011719 18.925781 25.085938 18.925781 25.171875 C 18.925781 25.261719 18.78125 25.335938 18.609375 25.335938 C 18.433594 25.335938 18.292969 25.261719 18.292969 25.171875 Z M 24.683594 25.195312 C 24.730469 25.117188 24.980469 25.011719 25.238281 24.957031 C 25.5 24.90625 25.996094 24.597656 26.347656 24.273438 C 26.699219 23.953125 26.988281 23.738281 26.988281 23.796875 C 26.988281 24.125 26.59375 24.546875 25.941406 24.917969 C 25.230469 25.320312 24.507812 25.480469 24.683594 25.195312 Z M 25.207031 21.921875 C 25.484375 21.640625 25.75 21.445312 25.796875 21.496094 C 25.929688 21.628906 25.1875 22.4375 24.929688 22.4375 C 24.789062 22.4375 24.894531 22.242188 25.207031 21.921875 Z M 27.46875 22.277344 C 27.464844 21.859375 27.652344 21.3125 27.796875 21.3125 C 28.015625 21.3125 27.960938 21.863281 27.703125 22.207031 C 27.527344 22.441406 27.472656 22.460938 27.46875 22.277344 Z M 10.964844 25.097656 C 11.5 24.96875 12.269531 24.660156 12.675781 24.414062 C 13.484375 23.921875 13.457031 24.078125 13.085938 22.277344 C 12.871094 21.21875 13.371094 19.117188 14.136719 17.878906 C 15.109375 16.300781 15.144531 16.199219 14.953125 15.425781 C 14.371094 13.070312 10.4375 11.542969 7.042969 12.355469 C 4.777344 12.898438 3.097656 14.808594 2.375 17.664062 C 1.882812 19.625 2.59375 22.242188 3.972656 23.535156 C 4.351562 23.894531 4.9375 24.328125 5.273438 24.5 C 5.800781 24.773438 6.25 24.894531 7.9375 25.234375 C 8.65625 25.378906 10.054688 25.316406 10.964844 25.097656 Z M 9.757812 23.730469 C 9.632812 23.648438 9.5625 23.550781 9.601562 23.515625 C 9.738281 23.394531 10.863281 23.597656 10.863281 23.742188 C 10.863281 23.929688 10.058594 23.921875 9.757812 23.730469 Z M 7.523438 19.984375 C 7.339844 19.625 7.339844 19.621094 7.675781 19.929688 C 8.054688 20.269531 8.089844 20.34375 7.863281 20.34375 C 7.78125 20.34375 7.628906 20.183594 7.523438 19.984375 Z M 17.351562 14.570312 C 18.871094 13.679688 20.039062 13.273438 21.429688 13.15625 C 22.09375 13.101562 22.691406 12.972656 22.757812 12.878906 C 23.105469 12.347656 22.667969 10.027344 21.972656 8.71875 C 21.484375 7.804688 20.460938 6.960938 19.257812 6.476562 C 18.539062 6.1875 18.039062 6.117188 16.632812 6.109375 C 14.941406 6.101562 14.859375 6.117188 13.652344 6.707031 C 12.191406 7.417969 10.496094 9.03125 9.945312 10.246094 C 9.753906 10.664062 9.597656 11.039062 9.597656 11.078125 C 9.597656 11.121094 9.933594 11.199219 10.347656 11.253906 C 12.6875 11.578125 14.976562 12.980469 15.78125 14.585938 C 15.949219 14.921875 16.128906 15.195312 16.183594 15.195312 C 16.238281 15.195312 16.765625 14.914062 17.351562 14.570312 Z M 20.542969 11.300781 C 20.640625 11.003906 20.980469 10.953125 20.980469 11.238281 C 20.980469 11.378906 20.867188 11.492188 20.730469 11.492188 C 20.59375 11.492188 20.507812 11.40625 20.542969 11.300781 Z M 4.238281 27.28125 C 3.824219 27.011719 4.671875 26.734375 5.609375 26.832031 C 6.542969 26.933594 6.679688 26.996094 6.519531 27.253906 C 6.394531 27.460938 4.550781 27.480469 4.238281 27.28125 Z M 4.238281 27.28125 "/>
</g>
</svg>
