<?xml version="1.0" encoding="UTF-8"?>
<svg xmlns="http://www.w3.org/2000/svg" xmlns:xlink="http://www.w3.org/1999/xlink" width="128px" height="128px" viewBox="0 0 128 128" version="1.1">
<g id="surface1">
<path style=" stroke:none;fill-rule:nonzero;fill:rgb(38.431373%,38.431373%,38.431373%);fill-opacity:1;" d="M 32.855469 113.699219 C 32.070312 113.578125 31.433594 113.210938 31.433594 112.882812 C 31.433594 112.117188 36.300781 112.089844 36.761719 112.851562 C 37.167969 113.519531 34.898438 114.011719 32.855469 113.699219 Z M 47.398438 113.144531 C 46.054688 112.589844 46.527344 110.996094 48.230469 110.335938 C 51.390625 109.113281 58.625 110 58.625 111.613281 C 58.625 112.976562 49.890625 114.167969 47.398438 113.144531 Z M 103.886719 113.003906 C 103.359375 112.136719 107.121094 111.59375 108.898438 112.28125 C 109.769531 112.617188 110.480469 113.046875 110.480469 113.230469 C 110.480469 113.816406 104.25 113.597656 103.886719 113.003906 Z M 74.769531 111.261719 C 68.625 109.859375 64.558594 107.738281 60.066406 103.601562 C 57.945312 101.648438 56.015625 100.050781 55.777344 100.050781 C 55.539062 100.050781 54.542969 100.628906 53.570312 101.335938 C 52.597656 102.039062 49.28125 103.238281 46.199219 104 C 33.855469 107.046875 22.050781 104.785156 14.671875 97.964844 C 7.914062 91.71875 5.195312 84.464844 5.644531 73.898438 C 5.890625 68.082031 6.164062 66.863281 8.144531 62.632812 C 10.730469 57.117188 15.214844 51.785156 19.757812 48.828125 C 23.171875 46.601562 28.628906 44.6875 31.546875 44.6875 C 33.125 44.6875 33.558594 44.195312 35.316406 40.410156 C 38.027344 34.566406 44.65625 27.523438 50.257812 24.539062 C 56.992188 20.949219 60.964844 20.027344 68.039062 20.410156 C 75.464844 20.8125 79.289062 22 84.59375 25.546875 C 92.015625 30.515625 95.652344 38.199219 95.207031 47.988281 L 95.003906 52.488281 L 99.105469 53.898438 C 108.21875 57.03125 114.640625 62.527344 118.691406 70.667969 C 122.042969 77.394531 122.679688 82.8125 120.917969 89.617188 C 117.84375 101.507812 109.890625 108.578125 96.882812 110.976562 C 90.085938 112.234375 79.613281 112.367188 74.769531 111.261719 Z M 98.929688 105.949219 C 107.515625 103.589844 112.289062 99.839844 115.433594 92.988281 C 117.382812 88.742188 117.664062 87.5 117.6875 82.992188 C 117.714844 78.21875 117.539062 77.496094 115.253906 73.113281 C 111.925781 66.722656 108.601562 63.285156 102.574219 60 L 97.515625 57.242188 L 88.980469 57.242188 C 80.675781 57.242188 80.324219 57.296875 76.144531 59.3125 C 70.742188 61.917969 64.796875 66.136719 62.835938 68.753906 C 62.007812 69.855469 60.378906 72.640625 59.21875 74.945312 C 57.269531 78.800781 57.101562 79.605469 57.074219 85.246094 C 57.050781 89.953125 57.3125 91.914062 58.214844 93.757812 C 61.335938 100.148438 67.835938 104.890625 76.015625 106.75 C 81.777344 108.058594 92.632812 107.679688 98.929688 105.949219 Z M 83.972656 104.296875 C 83.363281 103.550781 83.621094 103.40625 85.476562 103.460938 C 87.832031 103.527344 88.402344 104.152344 86.714844 104.808594 C 85.242188 105.386719 84.789062 105.300781 83.972656 104.296875 Z M 73.167969 100.695312 C 73.167969 100.339844 73.738281 100.050781 74.433594 100.050781 C 75.128906 100.050781 75.699219 100.339844 75.699219 100.695312 C 75.699219 101.046875 75.128906 101.339844 74.433594 101.339844 C 73.738281 101.339844 73.167969 101.046875 73.167969 100.695312 Z M 98.730469 100.777344 C 98.917969 100.46875 99.917969 100.042969 100.957031 99.832031 C 101.992188 99.621094 103.992188 98.390625 105.398438 97.101562 C 106.800781 95.808594 107.953125 94.949219 107.953125 95.191406 C 107.953125 96.5 106.375 98.1875 103.769531 99.667969 C 100.929688 101.285156 98.035156 101.921875 98.730469 100.777344 Z M 100.828125 87.691406 C 101.941406 86.558594 103.003906 85.789062 103.191406 85.976562 C 103.722656 86.515625 100.75 89.75 99.722656 89.75 C 99.152344 89.75 99.570312 88.972656 100.828125 87.691406 Z M 109.878906 89.105469 C 109.859375 87.445312 110.605469 85.246094 111.1875 85.246094 C 112.066406 85.246094 111.839844 87.445312 110.816406 88.824219 C 110.113281 89.769531 109.886719 89.839844 109.878906 89.105469 Z M 43.859375 100.386719 C 46 99.871094 49.078125 98.644531 50.703125 97.660156 C 53.945312 95.691406 53.824219 96.3125 52.351562 89.105469 C 51.484375 84.871094 53.484375 76.472656 56.542969 71.523438 C 60.445312 65.207031 60.578125 64.800781 59.8125 61.695312 C 57.480469 52.277344 41.742188 46.175781 28.175781 49.425781 C 19.113281 51.597656 12.390625 59.238281 9.507812 70.652344 C 7.523438 78.492188 10.367188 88.960938 15.886719 94.140625 C 17.410156 95.570312 19.753906 97.304688 21.09375 97.996094 C 23.199219 99.085938 25.007812 99.585938 31.746094 100.933594 C 34.632812 101.511719 40.214844 101.261719 43.859375 100.386719 Z M 39.039062 94.925781 C 38.527344 94.597656 38.242188 94.207031 38.40625 94.0625 C 38.949219 93.578125 43.449219 94.386719 43.449219 94.972656 C 43.449219 95.726562 40.226562 95.691406 39.039062 94.925781 Z M 30.097656 79.933594 C 29.355469 78.492188 29.359375 78.492188 30.707031 79.710938 C 32.214844 81.074219 32.351562 81.382812 31.453125 81.382812 C 31.117188 81.382812 30.507812 80.730469 30.097656 79.933594 Z M 69.402344 58.277344 C 75.480469 54.710938 80.160156 53.089844 85.71875 52.621094 C 88.382812 52.398438 90.769531 51.898438 91.023438 51.507812 C 92.417969 49.390625 90.664062 40.105469 87.882812 34.878906 C 85.929688 31.214844 81.851562 27.839844 77.035156 25.90625 C 74.164062 24.753906 72.160156 24.472656 66.53125 24.445312 C 59.761719 24.410156 59.4375 24.472656 54.605469 26.824219 C 48.761719 29.664062 41.984375 36.132812 39.777344 40.976562 C 39.011719 42.65625 38.386719 44.160156 38.386719 44.320312 C 38.386719 44.476562 39.738281 44.792969 41.390625 45.019531 C 50.746094 46.304688 59.898438 51.917969 63.117188 58.339844 C 63.789062 59.683594 64.519531 60.78125 64.738281 60.78125 C 64.960938 60.78125 67.058594 59.65625 69.402344 58.277344 Z M 82.167969 45.210938 C 82.558594 44.015625 83.921875 43.820312 83.921875 44.957031 C 83.921875 45.515625 83.46875 45.972656 82.917969 45.972656 C 82.367188 45.972656 82.03125 45.628906 82.167969 45.210938 Z M 16.960938 109.121094 C 15.292969 108.046875 18.679688 106.941406 22.433594 107.335938 C 26.175781 107.730469 26.714844 107.976562 26.082031 109.019531 C 25.582031 109.84375 18.207031 109.925781 16.960938 109.121094 Z M 16.960938 109.121094 "/>
</g>
</svg>
