<?xml version="1.0" encoding="UTF-8"?>
<svg xmlns="http://www.w3.org/2000/svg" xmlns:xlink="http://www.w3.org/1999/xlink" width="128px" height="128px" viewBox="0 0 128 128" version="1.1">
<g id="surface1">
<path style=" stroke:none;fill-rule:nonzero;fill:rgb(38.431373%,38.431373%,38.431373%);fill-opacity:1;" d="M 62.328125 115.269531 C 61.707031 114.992188 60.507812 114.152344 59.65625 113.402344 C 56.84375 110.910156 50.261719 101.746094 50.75 100.996094 C 50.878906 100.796875 50.820312 100.730469 50.617188 100.847656 C 50.207031 101.089844 47.371094 95.472656 47.671875 95.011719 C 47.777344 94.847656 47.652344 94.640625 47.390625 94.550781 C 47.023438 94.421875 47.035156 94.203125 47.449219 93.535156 C 47.9375 92.75 47.929688 92.71875 47.355469 93.171875 C 47.011719 93.441406 46.730469 93.566406 46.730469 93.445312 C 46.730469 93.324219 46.328125 91.734375 45.832031 89.90625 C 45.09375 87.171875 43.984375 79.972656 44.148438 78.964844 C 44.265625 78.25 44.066406 77.445312 43.773438 77.445312 C 43.59375 77.445312 42.171875 78.242188 40.613281 79.210938 C 39.054688 80.179688 37.679688 80.90625 37.558594 80.824219 C 37.4375 80.742188 37.410156 80.769531 37.5 80.886719 C 37.589844 81.007812 36.027344 82.316406 34.023438 83.800781 C 29.957031 86.816406 28.050781 88.644531 25.144531 92.320312 C 22.792969 95.300781 20.8125 98.734375 20.910156 99.667969 C 20.921875 99.769531 20.738281 100.1875 20.507812 100.601562 C 20.277344 101.011719 19.984375 101.820312 19.859375 102.390625 C 19.496094 104.078125 19.480469 104.128906 19.15625 104.621094 C 18.988281 104.882812 18.941406 105.183594 19.058594 105.296875 C 19.515625 105.734375 18.507812 106.792969 17.699219 106.726562 C 16.730469 106.644531 15.109375 105.421875 15.394531 104.980469 C 15.5 104.820312 15.4375 104.6875 15.257812 104.6875 C 14.539062 104.6875 12.03125 99.238281 11.246094 95.964844 C 10.335938 92.1875 10.191406 83.046875 10.984375 79.417969 C 11.996094 74.773438 15.050781 67.410156 15.964844 67.410156 C 16.167969 67.410156 16.246094 67.273438 16.136719 67.105469 C 16.03125 66.9375 16.183594 66.492188 16.480469 66.117188 C 17.324219 65.054688 17.140625 64.835938 15.917969 65.4375 C 15.296875 65.746094 14.789062 65.921875 14.789062 65.832031 C 14.789062 65.660156 13.734375 66.46875 11.265625 68.527344 C 9.058594 70.371094 7.269531 71.203125 6.851562 70.582031 C 6.34375 69.8125 6.46875 66.589844 7.113281 63.9375 C 7.894531 60.738281 8.933594 58.445312 10.921875 55.535156 C 12.605469 53.066406 17.539062 48.167969 18.179688 48.324219 C 18.382812 48.371094 18.546875 48.269531 18.546875 48.09375 C 18.546875 47.691406 21.402344 45.945312 24.371094 44.535156 C 27.558594 43.019531 33.972656 41.730469 38.910156 41.609375 C 39.050781 41.605469 39.15625 39.949219 39.144531 37.929688 C 39.132812 35.910156 39.324219 33.53125 39.574219 32.640625 C 40.265625 30.164062 42.277344 26.179688 42.707031 26.433594 C 42.917969 26.558594 42.980469 26.488281 42.84375 26.277344 C 42.542969 25.816406 45.011719 22.765625 46.773438 21.421875 C 47.472656 20.890625 48.300781 20.238281 48.609375 19.980469 C 49.21875 19.472656 52.875 17.417969 53.019531 17.503906 C 53.066406 17.535156 53.695312 17.320312 54.417969 17.035156 C 55.136719 16.746094 55.878906 16.511719 56.0625 16.511719 C 56.621094 16.511719 59.128906 14.476562 58.871094 14.230469 C 58.738281 14.105469 58.914062 14.003906 59.257812 14.003906 C 59.601562 14.003906 59.886719 13.882812 59.886719 13.734375 C 59.886719 13.234375 62.230469 12.464844 64.074219 12.359375 C 65.285156 12.292969 65.898438 12.402344 65.902344 12.683594 C 65.90625 12.933594 66.054688 12.890625 66.265625 12.574219 C 66.535156 12.167969 66.722656 12.136719 67.054688 12.457031 C 67.296875 12.683594 67.707031 12.792969 67.972656 12.695312 C 68.238281 12.601562 68.5625 12.691406 68.699219 12.902344 C 68.835938 13.113281 69.191406 13.285156 69.484375 13.285156 C 70.167969 13.285156 71.535156 14.386719 71.535156 14.933594 C 71.535156 15.542969 72.449219 16.164062 73.65625 16.375 C 74.238281 16.472656 74.816406 16.71875 74.945312 16.917969 C 75.074219 17.113281 75.472656 17.316406 75.832031 17.367188 C 76.1875 17.417969 76.59375 17.609375 76.730469 17.792969 C 76.871094 17.976562 77.238281 18.125 77.546875 18.125 C 77.859375 18.125 78.082031 18.292969 78.042969 18.5 C 78.007812 18.703125 78.34375 18.898438 78.789062 18.929688 C 79.238281 18.964844 79.664062 19.160156 79.734375 19.363281 C 79.804688 19.570312 80.070312 19.738281 80.320312 19.738281 C 81.042969 19.738281 85.398438 24.085938 86.808594 26.21875 C 88.753906 29.15625 89.957031 33.199219 90.097656 37.273438 L 90.214844 40.707031 L 92.054688 40.941406 C 93.816406 41.164062 95.203125 41.378906 97.652344 41.816406 C 99.242188 42.097656 102.117188 43.117188 102.390625 43.496094 C 102.519531 43.671875 102.703125 43.761719 102.804688 43.695312 C 103.042969 43.535156 108.265625 46.5 109.5625 47.53125 C 110.121094 47.972656 110.472656 48.433594 110.347656 48.550781 C 110.21875 48.671875 110.3125 48.773438 110.550781 48.773438 C 112.496094 48.773438 119.757812 58.535156 119.421875 60.699219 C 119.371094 61.042969 119.480469 61.230469 119.671875 61.117188 C 119.859375 61.007812 120.039062 61.128906 120.070312 61.386719 C 120.101562 61.644531 120.148438 62.015625 120.175781 62.214844 C 120.199219 62.410156 120.335938 62.75 120.480469 62.96875 C 120.921875 63.640625 121.570312 68.332031 121.445312 69.976562 C 121.351562 71.230469 121.179688 71.554688 120.554688 71.636719 C 119.527344 71.777344 117.726562 70.414062 118.007812 69.710938 C 118.144531 69.375 118.035156 69.210938 117.710938 69.277344 C 117.425781 69.335938 117.242188 69.167969 117.296875 68.90625 C 117.355469 68.644531 117.246094 68.523438 117.058594 68.632812 C 116.605469 68.902344 115.804688 67.964844 116.164062 67.589844 C 116.316406 67.425781 116.230469 67.414062 115.96875 67.554688 C 115.695312 67.707031 115.40625 67.582031 115.273438 67.253906 C 115.148438 66.945312 114.878906 66.695312 114.675781 66.695312 C 114.472656 66.695312 113.875 66.371094 113.351562 65.976562 C 112.160156 65.082031 111.90625 65.078125 111.90625 65.949219 C 111.90625 66.328125 112.03125 66.566406 112.179688 66.480469 C 112.4375 66.328125 115.464844 71.878906 115.65625 72.859375 C 115.707031 73.113281 116.046875 73.96875 116.417969 74.757812 C 116.785156 75.546875 117.113281 76.621094 117.140625 77.140625 C 117.171875 77.664062 117.335938 78.011719 117.507812 77.910156 C 117.683594 77.808594 117.785156 78.105469 117.734375 78.570312 C 117.6875 79.035156 117.777344 79.710938 117.9375 80.066406 C 118.582031 81.492188 118.292969 92.050781 117.523438 95.34375 C 117.105469 97.128906 115.042969 102.363281 114.617188 102.71875 C 114.382812 102.914062 114.144531 103.277344 114.09375 103.523438 C 114.042969 103.765625 113.398438 104.765625 112.664062 105.742188 C 111.539062 107.238281 111.203125 107.472656 110.527344 107.234375 C 110.023438 107.058594 109.515625 106.355469 109.175781 105.371094 C 107.773438 101.328125 106.6875 98.957031 105.28125 96.882812 C 103.6875 94.535156 96.417969 87.21875 93.992188 85.519531 C 93.21875 84.976562 92.679688 84.394531 92.789062 84.222656 C 92.902344 84.046875 92.773438 83.988281 92.5 84.085938 C 92.230469 84.1875 91.46875 83.796875 90.8125 83.226562 C 90.15625 82.652344 89.550781 82.25 89.464844 82.328125 C 89.382812 82.40625 88.867188 82.074219 88.316406 81.589844 C 87.769531 81.105469 87.320312 80.785156 87.320312 80.875 C 87.320312 80.96875 86.898438 80.785156 86.382812 80.460938 C 85.867188 80.140625 85.554688 79.707031 85.6875 79.503906 C 85.824219 79.292969 85.75 79.234375 85.523438 79.367188 C 85.296875 79.5 84.328125 79.191406 83.367188 78.679688 C 82.402344 78.167969 81.566406 77.800781 81.503906 77.867188 C 81.445312 77.929688 81.027344 79.4375 80.578125 81.210938 C 79.128906 86.945312 75.847656 95.15625 75.167969 94.757812 C 74.964844 94.636719 74.910156 94.710938 75.046875 94.917969 C 75.375 95.425781 73.363281 98.964844 72.90625 98.695312 C 72.707031 98.578125 72.667969 98.671875 72.820312 98.90625 C 73.191406 99.480469 71.234375 102.625 70.703125 102.3125 C 70.476562 102.175781 70.394531 102.226562 70.523438 102.421875 C 70.648438 102.617188 70.097656 104.054688 69.300781 105.613281 C 68.503906 107.175781 67.460938 109.582031 66.988281 110.960938 C 66.511719 112.339844 65.863281 113.777344 65.542969 114.15625 C 65.144531 114.628906 65.121094 114.757812 65.464844 114.5625 C 65.875 114.332031 65.890625 114.421875 65.546875 115.039062 C 65.054688 115.914062 63.957031 115.992188 62.328125 115.269531 Z M 64.765625 109.175781 C 65.683594 107.242188 66.539062 105.878906 66.757812 106.007812 C 66.96875 106.128906 67.03125 106.058594 66.894531 105.851562 C 66.542969 105.308594 67.023438 104.285156 67.5 104.566406 C 67.722656 104.699219 67.78125 104.628906 67.632812 104.398438 C 67.296875 103.875 69.195312 100.292969 69.664062 100.570312 C 69.863281 100.6875 69.945312 100.570312 69.847656 100.316406 C 69.609375 99.6875 73.195312 93.492188 73.59375 93.839844 C 73.769531 93.992188 73.792969 93.917969 73.648438 93.679688 C 73.503906 93.441406 73.808594 92.449219 74.324219 91.476562 C 75.519531 89.234375 77.441406 84.050781 78.199219 81.03125 C 78.847656 78.460938 79.191406 68.128906 78.632812 68.128906 C 78.449219 68.128906 78.300781 67.722656 78.300781 67.230469 C 78.300781 66.738281 78.398438 66.335938 78.523438 66.335938 C 78.949219 66.335938 82.972656 68.546875 84.296875 69.511719 C 85.027344 70.046875 86.34375 70.9375 87.21875 71.5 C 88.09375 72.058594 88.714844 72.664062 88.597656 72.839844 C 88.484375 73.019531 88.53125 73.132812 88.699219 73.097656 C 89.316406 72.964844 90.316406 73.589844 90.078125 73.957031 C 89.941406 74.164062 90.011719 74.226562 90.234375 74.09375 C 90.695312 73.824219 91.738281 74.59375 96.699219 78.863281 C 102.578125 83.929688 106.441406 88.132812 108.730469 91.964844 C 110.398438 94.746094 112.375 101.488281 111.886719 102.707031 C 111.710938 103.140625 111.757812 103.289062 112.023438 103.132812 C 112.773438 102.691406 114.671875 98.328125 115.503906 95.136719 C 116.527344 91.222656 116.613281 84.089844 115.695312 79.839844 C 114.484375 74.25 112.050781 69.316406 108.644531 65.542969 C 107.351562 64.109375 106.296875 62.832031 106.296875 62.695312 C 106.296875 62.5625 106.144531 62.316406 105.953125 62.152344 C 105.753906 61.980469 105.726562 62.042969 105.882812 62.300781 C 106.390625 63.144531 105.5 62.753906 104.394531 61.648438 C 103.785156 61.039062 102.191406 59.800781 100.847656 58.890625 C 99.503906 57.980469 98.300781 57.09375 98.175781 56.917969 C 98.046875 56.742188 97.792969 56.582031 97.609375 56.566406 C 96.894531 56.5 93.332031 54.796875 93.332031 54.519531 C 93.332031 54.136719 95.140625 53.707031 95.601562 53.980469 C 95.800781 54.09375 95.960938 54.019531 95.960938 53.8125 C 95.960938 53.578125 97.015625 53.433594 98.6875 53.433594 C 102.070312 53.4375 105.394531 53.800781 105.171875 54.144531 C 105.078125 54.285156 105.445312 54.324219 105.988281 54.222656 C 106.660156 54.101562 106.886719 54.171875 106.707031 54.449219 C 106.546875 54.703125 106.644531 54.785156 106.972656 54.664062 C 108.242188 54.199219 113.699219 57.222656 115.972656 59.648438 C 117.203125 60.960938 117.308594 60.417969 116.21875 58.382812 C 114.339844 54.871094 110.757812 50.78125 107.902344 48.894531 C 107.128906 48.382812 106.605469 47.800781 106.738281 47.597656 C 106.867188 47.394531 106.808594 47.328125 106.601562 47.445312 C 106.214844 47.675781 100.710938 45.078125 100.996094 44.804688 C 101.085938 44.71875 100.792969 44.628906 100.347656 44.601562 C 99.292969 44.539062 95.101562 43.410156 94.761719 43.097656 C 94.617188 42.964844 93.398438 42.910156 92.054688 42.976562 L 89.609375 43.097656 L 89.15625 44.410156 C 88.585938 46.0625 87.59375 47.765625 85.960938 49.894531 C 85.261719 50.808594 84.6875 51.957031 84.6875 52.449219 C 84.6875 54.589844 82.378906 57.5 79.726562 58.703125 C 73.933594 61.328125 70.113281 62.121094 63.421875 62.082031 C 61.546875 62.070312 59.515625 61.882812 58.914062 61.664062 C 58.3125 61.445312 57.734375 61.277344 57.628906 61.292969 C 57.050781 61.367188 55.03125 60.84375 55.152344 60.648438 C 55.234375 60.523438 54.753906 60.394531 54.089844 60.359375 C 52.902344 60.300781 48.578125 58.292969 47.054688 57.089844 C 45.832031 56.125 44.617188 54.09375 44.367188 52.59375 C 44.234375 51.800781 43.589844 50.578125 42.839844 49.707031 C 42.128906 48.878906 41.078125 47.199219 40.503906 45.976562 C 39.933594 44.753906 39.28125 43.738281 39.058594 43.722656 C 33.945312 43.320312 25.875 45.339844 21.734375 48.058594 C 20.804688 48.667969 19.871094 49.066406 19.664062 48.945312 C 19.453125 48.820312 19.320312 48.851562 19.375 49.015625 C 19.425781 49.175781 18.355469 50.359375 17 51.640625 C 14.898438 53.625 12.535156 56.558594 12.535156 57.183594 C 12.535156 57.285156 13.277344 56.828125 14.183594 56.167969 C 15.089844 55.507812 16.589844 54.617188 17.511719 54.191406 C 19.410156 53.316406 24.179688 52.355469 26.636719 52.355469 C 28.324219 52.355469 32.800781 53.148438 35.042969 53.84375 C 36.101562 54.171875 36.214844 54.296875 35.699219 54.570312 C 35.355469 54.753906 34.921875 54.8125 34.734375 54.703125 C 34.546875 54.59375 34.339844 54.632812 34.269531 54.796875 C 34.199219 54.957031 33.042969 55.597656 31.699219 56.222656 C 30.355469 56.847656 28.75 57.644531 28.128906 57.992188 C 25.714844 59.351562 20.828125 63.867188 18.71875 66.695312 C 17.90625 67.777344 17.113281 68.71875 16.957031 68.785156 C 16.796875 68.851562 16.667969 69.175781 16.667969 69.511719 C 16.667969 69.84375 16.4375 70.4375 16.152344 70.824219 C 15.207031 72.121094 13.324219 77.941406 12.738281 81.390625 C 11.8125 86.855469 12.082031 92.195312 13.53125 97.066406 C 13.835938 98.097656 13.964844 99.148438 13.816406 99.394531 C 13.65625 99.660156 13.683594 99.722656 13.882812 99.546875 C 14.082031 99.371094 14.746094 100.28125 15.460938 101.695312 C 16.140625 103.046875 16.59375 103.785156 16.46875 103.34375 C 16.316406 102.808594 16.40625 102.535156 16.738281 102.53125 C 17.117188 102.527344 17.109375 102.453125 16.699219 102.203125 C 16.25 101.933594 16.234375 101.414062 16.601562 98.945312 C 16.839844 97.328125 16.929688 95.835938 16.792969 95.632812 C 16.660156 95.425781 16.710938 95.351562 16.910156 95.46875 C 17.105469 95.582031 17.648438 94.753906 18.117188 93.628906 C 19.15625 91.140625 23.667969 85.207031 24.261719 85.554688 C 24.519531 85.710938 24.570312 85.636719 24.390625 85.359375 C 24.042969 84.824219 25.628906 83.105469 26.175781 83.425781 C 26.382812 83.550781 26.449219 83.488281 26.320312 83.289062 C 25.933594 82.691406 32.847656 76.570312 36.960938 73.867188 C 37.683594 73.390625 38.359375 72.90625 38.464844 72.792969 C 39.175781 72.003906 40.878906 71.042969 41.234375 71.234375 C 41.46875 71.363281 41.53125 71.335938 41.378906 71.171875 C 41.066406 70.84375 45.316406 67.757812 47.632812 66.625 C 48.925781 65.992188 49.066406 65.980469 48.851562 66.515625 C 48.71875 66.847656 48.507812 67.503906 48.382812 67.980469 C 48.257812 68.453125 48.046875 68.773438 47.914062 68.695312 C 47.78125 68.617188 47.652344 68.902344 47.632812 69.328125 C 47.609375 69.75 47.324219 71.550781 46.996094 73.324219 C 46 78.734375 46.664062 85.320312 48.863281 91.765625 C 49.746094 94.351562 51.824219 98.671875 54.210938 102.878906 C 54.824219 103.957031 55.222656 104.988281 55.101562 105.175781 C 54.984375 105.363281 55.066406 105.40625 55.292969 105.273438 C 55.519531 105.140625 56.167969 105.632812 56.75 106.382812 C 57.328125 107.125 58.523438 108.554688 59.402344 109.558594 C 60.285156 110.566406 60.910156 111.476562 60.796875 111.585938 C 60.679688 111.695312 60.792969 111.90625 61.046875 112.054688 C 61.339844 112.226562 61.40625 112.175781 61.238281 111.910156 C 60.84375 111.304688 61.59375 111.40625 62.140625 112.035156 C 62.398438 112.332031 62.730469 112.574219 62.882812 112.574219 C 63.035156 112.574219 63.882812 111.042969 64.765625 109.175781 Z M 112.121094 105.40625 C 112.121094 105.207031 111.941406 105.046875 111.722656 105.046875 C 111.503906 105.046875 111.429688 105.207031 111.558594 105.40625 C 111.683594 105.601562 111.863281 105.761719 111.957031 105.761719 C 112.046875 105.761719 112.121094 105.601562 112.121094 105.40625 Z M 16.816406 104.746094 C 16.921875 104.582031 16.773438 104.449219 16.480469 104.449219 C 16.1875 104.449219 16.035156 104.582031 16.144531 104.746094 C 16.25 104.910156 16.402344 105.046875 16.480469 105.046875 C 16.558594 105.046875 16.710938 104.910156 16.816406 104.746094 Z M 19.050781 98.851562 C 21.132812 93.90625 25.515625 88.195312 30.324219 84.152344 C 31.78125 82.929688 33.917969 81.121094 35.074219 80.136719 C 36.226562 79.148438 38.097656 77.617188 39.226562 76.734375 C 42.425781 74.226562 44.183594 72.488281 43.925781 72.089844 C 43.722656 71.777344 42.683594 72.417969 39.402344 74.867188 C 39.199219 75.019531 38.011719 75.863281 36.773438 76.738281 C 35.535156 77.613281 33.503906 79.242188 32.265625 80.359375 C 31.023438 81.472656 29.417969 82.847656 28.699219 83.410156 C 26.660156 85.007812 23.390625 88.445312 21.796875 90.664062 C 21.003906 91.773438 20.242188 92.652344 20.105469 92.621094 C 19.972656 92.585938 19.839844 92.910156 19.8125 93.335938 C 19.785156 93.765625 19.34375 95.164062 18.832031 96.445312 C 18.035156 98.4375 17.113281 102.601562 17.570312 102.148438 C 17.652344 102.066406 18.320312 100.582031 19.050781 98.851562 Z M 110.410156 101.371094 C 110.265625 98.742188 107.738281 93.277344 105.265625 90.261719 C 104.660156 89.519531 104.257812 88.917969 104.367188 88.917969 C 104.480469 88.917969 103.269531 87.601562 101.675781 86 C 100.082031 84.394531 98.820312 82.949219 98.871094 82.785156 C 98.917969 82.625 98.707031 82.582031 98.398438 82.695312 C 97.894531 82.878906 97.65625 82.453125 97.804688 81.632812 C 97.835938 81.46875 97.671875 81.445312 97.441406 81.582031 C 97.210938 81.71875 96.488281 81.351562 95.835938 80.769531 C 94.640625 79.707031 90.746094 76.828125 88.636719 75.453125 C 88.015625 75.046875 86.648438 74.140625 85.601562 73.433594 C 84.550781 72.730469 83.167969 71.894531 82.53125 71.578125 L 81.363281 71.003906 L 82.316406 72.628906 C 82.839844 73.519531 84.039062 74.847656 84.980469 75.578125 C 85.921875 76.3125 87.425781 77.570312 88.316406 78.378906 C 89.210938 79.183594 89.996094 79.789062 90.066406 79.722656 C 90.136719 79.65625 91.367188 80.566406 92.796875 81.75 C 94.226562 82.929688 95.535156 83.898438 95.703125 83.898438 C 95.871094 83.898438 95.886719 84.085938 95.738281 84.3125 C 95.585938 84.550781 95.632812 84.628906 95.851562 84.5 C 96.378906 84.191406 103.710938 91.4375 105.679688 94.210938 C 106.554688 95.445312 107.152344 96.640625 107.007812 96.863281 C 106.855469 97.101562 106.910156 97.171875 107.140625 97.039062 C 107.511719 96.820312 109.867188 100.933594 109.867188 101.796875 C 109.867188 102.007812 110 102.179688 110.160156 102.179688 C 110.324219 102.179688 110.433594 101.816406 110.410156 101.371094 Z M 42.410156 77.445312 C 42.28125 77.25 41.976562 77.089844 41.730469 77.09375 C 41.460938 77.097656 41.507812 77.238281 41.847656 77.445312 C 42.570312 77.890625 42.699219 77.890625 42.410156 77.445312 Z M 117.414062 63.730469 C 116.335938 61.957031 113.40625 59.242188 112.785156 59.433594 C 112.625 59.484375 112.496094 59.363281 112.496094 59.167969 C 112.496094 58.972656 111.566406 58.3125 110.429688 57.703125 C 109.292969 57.089844 108.363281 56.464844 108.363281 56.3125 C 108.363281 56.160156 108.066406 56.035156 107.707031 56.035156 C 106.269531 56.042969 105.695312 55.929688 105.863281 55.671875 C 105.957031 55.523438 105.589844 55.414062 105.039062 55.429688 C 104.492188 55.441406 102.980469 55.355469 101.679688 55.234375 C 100.382812 55.113281 99.15625 55.113281 98.957031 55.230469 C 98.378906 55.570312 100.539062 56.894531 102.078125 57.148438 C 102.847656 57.273438 104.070312 57.472656 104.789062 57.59375 C 105.566406 57.722656 106.003906 57.964844 105.859375 58.183594 C 105.726562 58.390625 105.785156 58.460938 105.992188 58.339844 C 106.75 57.894531 109.191406 58.890625 111.285156 60.5 C 114.171875 62.722656 117.636719 66.140625 118.007812 67.136719 C 118.285156 67.875 118.324219 67.84375 118.4375 66.777344 C 118.519531 65.96875 118.207031 65.027344 117.414062 63.730469 Z M 10.679688 65.34375 C 11.273438 64.453125 11.652344 63.558594 11.523438 63.359375 C 11.394531 63.160156 11.476562 63.109375 11.703125 63.242188 C 11.929688 63.375 12.84375 62.765625 13.734375 61.882812 C 16.089844 59.550781 19.128906 57.953125 22.550781 57.242188 C 24.171875 56.90625 26.398438 56.191406 27.496094 55.65625 C 29.289062 54.785156 29.402344 54.664062 28.625 54.453125 C 28.144531 54.324219 26.960938 54.203125 25.988281 54.183594 C 22.800781 54.121094 16.542969 56.089844 15.5 57.484375 C 15.371094 57.65625 15.117188 57.820312 14.933594 57.851562 C 14.75 57.886719 14.648438 58.042969 14.703125 58.207031 C 14.761719 58.371094 14.632812 58.398438 14.417969 58.273438 C 13.96875 58.007812 10.796875 61.046875 10.457031 62.070312 C 10.328125 62.449219 10.085938 62.679688 9.910156 62.578125 C 9.738281 62.472656 9.675781 62.679688 9.773438 63.027344 C 9.867188 63.378906 9.683594 64.144531 9.363281 64.730469 C 8.683594 65.976562 8.570312 67.574219 9.1875 67.210938 C 9.414062 67.074219 10.085938 66.234375 10.679688 65.34375 Z M 72.285156 59.699219 C 76.035156 58.652344 79.882812 56.839844 81.082031 55.554688 C 82.464844 54.078125 82.304688 54.015625 80.292969 55.230469 C 79.320312 55.820312 78.328125 56.300781 78.082031 56.300781 C 77.839844 56.300781 77.453125 56.515625 77.222656 56.777344 C 76.835938 57.21875 73.222656 58.226562 71.910156 58.257812 C 71.601562 58.265625 71.179688 58.375 70.972656 58.5 C 70.058594 59.054688 62.726562 59.417969 60.636719 59.011719 C 55.796875 58.066406 53.820312 57.460938 50.730469 55.984375 C 48.089844 54.71875 47.246094 54.445312 47.519531 54.933594 C 48.335938 56.386719 52.667969 58.488281 57.292969 59.671875 C 61.976562 60.871094 68.050781 60.882812 72.285156 59.699219 Z M 68.527344 55.695312 C 68.839844 55.582031 69.441406 55.441406 69.871094 55.386719 C 71.519531 55.171875 74.039062 54.398438 75.71875 53.585938 C 77.867188 52.546875 82.648438 48.890625 83.972656 47.273438 C 85.03125 45.980469 86.226562 43.929688 86.175781 43.488281 C 86.160156 43.339844 86.347656 42.535156 86.589844 41.703125 C 86.835938 40.871094 86.953125 39.785156 86.855469 39.292969 C 86.757812 38.800781 86.820312 38.484375 86.996094 38.589844 C 87.710938 39.007812 87.296875 34.050781 86.390625 31.316406 C 85.238281 27.835938 83.929688 25.867188 81.03125 23.25 C 79.785156 22.125 78.871094 21.089844 79.003906 20.953125 C 79.132812 20.8125 79.027344 20.816406 78.765625 20.957031 C 78.507812 21.101562 77.832031 20.910156 77.261719 20.535156 C 76.695312 20.160156 75.925781 19.75 75.550781 19.621094 C 75.15625 19.484375 74.984375 19.210938 75.140625 18.96875 C 75.304688 18.710938 75.246094 18.648438 74.984375 18.804688 C 74.75 18.941406 74.214844 18.878906 73.796875 18.667969 C 73.246094 18.386719 73.039062 18.390625 73.039062 18.679688 C 73.039062 18.902344 72.828125 19.007812 72.570312 18.917969 C 72.308594 18.828125 72.140625 18.578125 72.1875 18.363281 C 72.238281 18.148438 72.035156 18.058594 71.742188 18.167969 C 71.410156 18.289062 70.792969 17.820312 70.117188 16.925781 C 69.082031 15.566406 68.980469 15.519531 68.121094 15.992188 C 65.96875 17.179688 64.808594 17.546875 63.785156 17.359375 C 62.167969 17.0625 62.023438 17.03125 61.097656 16.730469 C 60.480469 16.535156 60.058594 16.644531 59.59375 17.121094 C 59.238281 17.484375 59.074219 17.625 59.226562 17.433594 C 59.382812 17.242188 59.507812 16.925781 59.507812 16.730469 C 59.507812 16.535156 59.273438 16.683594 58.988281 17.054688 C 58.699219 17.429688 58.5625 17.972656 58.675781 18.261719 C 58.832031 18.644531 58.710938 18.722656 58.238281 18.550781 C 57.855469 18.410156 57.683594 18.457031 57.820312 18.667969 C 57.945312 18.863281 57.914062 19.035156 57.746094 19.050781 C 57.578125 19.0625 57.128906 19.132812 56.746094 19.203125 C 56.132812 19.3125 56.15625 19.21875 56.917969 18.441406 L 57.792969 17.558594 L 55.550781 18.527344 C 49.644531 21.089844 45.855469 24.328125 43.542969 28.804688 C 41.757812 32.261719 41.699219 32.523438 41.679688 37.480469 C 41.664062 41.457031 41.738281 41.945312 42.707031 43.917969 C 44.015625 46.582031 45.523438 48.503906 46.0625 48.183594 C 46.300781 48.046875 46.367188 48.109375 46.21875 48.335938 C 45.945312 48.757812 51.171875 53.109375 52.207031 53.324219 C 52.398438 53.363281 53.570312 53.742188 54.804688 54.164062 C 59.234375 55.675781 66.402344 56.472656 68.527344 55.695312 Z M 68.152344 52.980469 C 68.257812 52.875 68.933594 52.710938 69.65625 52.613281 C 72.535156 52.222656 76.089844 50.179688 79.371094 47.03125 C 81.738281 44.761719 83.285156 41.765625 83.898438 38.269531 C 84.078125 37.246094 84.242188 36.835938 84.269531 37.359375 C 84.347656 39.089844 83.222656 43.789062 82.28125 45.667969 C 80.796875 48.628906 78.363281 50.644531 74.652344 51.988281 C 72.929688 52.617188 67.726562 53.40625 68.152344 52.980469 Z M 62.328125 21.089844 C 61.707031 20.878906 61.078125 20.527344 60.925781 20.3125 C 60.742188 20.054688 60.644531 20.097656 60.640625 20.441406 C 60.636719 20.882812 60.535156 20.871094 60.027344 20.386719 C 59.105469 19.507812 59.730469 18.90625 60.84375 19.605469 C 61.351562 19.921875 61.765625 20.050781 61.765625 19.890625 C 61.765625 19.730469 62.03125 19.914062 62.355469 20.296875 C 62.679688 20.679688 62.839844 20.792969 62.710938 20.546875 C 62.535156 20.21875 62.933594 20.097656 64.160156 20.097656 C 65.089844 20.097656 66.265625 19.945312 66.773438 19.761719 C 67.453125 19.515625 67.882812 19.570312 68.394531 19.96875 C 69.058594 20.484375 69.054688 20.5 68.246094 20.335938 C 67.78125 20.242188 67.488281 20.300781 67.59375 20.464844 C 67.703125 20.628906 67.617188 20.867188 67.40625 20.988281 C 67.195312 21.113281 67.019531 21.003906 67.015625 20.746094 C 67.007812 20.457031 66.855469 20.515625 66.621094 20.902344 C 66.179688 21.621094 64.148438 21.710938 62.328125 21.089844 Z M 68.378906 19.441406 C 68.273438 19.277344 68.433594 19.140625 68.734375 19.140625 C 69.035156 19.140625 69.28125 19.277344 69.28125 19.441406 C 69.28125 19.605469 69.121094 19.738281 68.925781 19.738281 C 68.730469 19.738281 68.484375 19.605469 68.378906 19.441406 Z M 68.378906 19.441406 "/>
</g>
</svg>
