<?xml version="1.0" encoding="UTF-8"?>
<svg xmlns="http://www.w3.org/2000/svg" xmlns:xlink="http://www.w3.org/1999/xlink" width="64px" height="64px" viewBox="0 0 64 64" version="1.1">
<g id="surface1">
<path style=" stroke:none;fill-rule:nonzero;fill:rgb(38.431373%,38.431373%,38.431373%);fill-opacity:1;" d="M 31.164062 57.632812 C 30.855469 57.496094 30.253906 57.074219 29.828125 56.699219 C 28.421875 55.453125 25.132812 50.871094 25.375 50.496094 C 25.4375 50.398438 25.410156 50.367188 25.308594 50.425781 C 25.105469 50.546875 23.6875 47.738281 23.835938 47.503906 C 23.886719 47.421875 23.824219 47.320312 23.695312 47.273438 C 23.511719 47.210938 23.515625 47.101562 23.726562 46.765625 C 23.96875 46.375 23.964844 46.359375 23.679688 46.585938 C 23.507812 46.722656 23.367188 46.78125 23.367188 46.722656 C 23.367188 46.664062 23.164062 45.867188 22.917969 44.953125 C 22.546875 43.585938 21.992188 39.988281 22.074219 39.484375 C 22.132812 39.125 22.03125 38.722656 21.886719 38.722656 C 21.796875 38.722656 21.085938 39.121094 20.304688 39.605469 C 19.527344 40.089844 18.839844 40.453125 18.777344 40.410156 C 18.71875 40.371094 18.707031 40.382812 18.75 40.445312 C 18.796875 40.503906 18.011719 41.160156 17.011719 41.902344 C 14.976562 43.410156 14.023438 44.324219 12.574219 46.160156 C 11.394531 47.648438 10.40625 49.367188 10.457031 49.835938 C 10.460938 49.882812 10.371094 50.09375 10.253906 50.300781 C 10.136719 50.507812 9.992188 50.910156 9.929688 51.195312 C 9.746094 52.039062 9.738281 52.066406 9.578125 52.3125 C 9.492188 52.441406 9.472656 52.59375 9.53125 52.648438 C 9.757812 52.867188 9.253906 53.394531 8.851562 53.363281 C 8.363281 53.320312 7.554688 52.710938 7.695312 52.492188 C 7.75 52.410156 7.71875 52.34375 7.628906 52.34375 C 7.269531 52.34375 6.015625 49.621094 5.621094 47.984375 C 5.167969 46.09375 5.097656 41.523438 5.492188 39.710938 C 5.996094 37.386719 7.523438 33.707031 7.984375 33.707031 C 8.085938 33.707031 8.125 33.636719 8.070312 33.550781 C 8.015625 33.46875 8.089844 33.246094 8.238281 33.058594 C 8.664062 32.527344 8.570312 32.417969 7.957031 32.71875 C 7.648438 32.871094 7.394531 32.960938 7.394531 32.917969 C 7.394531 32.832031 6.867188 33.234375 5.632812 34.265625 C 4.53125 35.1875 3.632812 35.601562 3.425781 35.289062 C 3.171875 34.90625 3.234375 33.296875 3.558594 31.96875 C 3.945312 30.371094 4.464844 29.222656 5.460938 27.765625 C 6.304688 26.53125 8.769531 24.082031 9.089844 24.160156 C 9.191406 24.1875 9.273438 24.132812 9.273438 24.046875 C 9.273438 23.84375 10.703125 22.972656 12.1875 22.269531 C 13.78125 21.511719 16.988281 20.863281 19.457031 20.804688 C 19.527344 20.804688 19.578125 19.976562 19.574219 18.964844 C 19.566406 17.953125 19.664062 16.765625 19.785156 16.320312 C 20.132812 15.082031 21.136719 13.089844 21.355469 13.21875 C 21.460938 13.277344 21.488281 13.242188 21.421875 13.140625 C 21.273438 12.910156 22.507812 11.382812 23.386719 10.710938 C 23.738281 10.445312 24.152344 10.121094 24.304688 9.992188 C 24.609375 9.738281 26.4375 8.710938 26.511719 8.753906 C 26.535156 8.765625 26.847656 8.660156 27.207031 8.515625 C 27.570312 8.375 27.9375 8.257812 28.03125 8.257812 C 28.3125 8.257812 29.5625 7.238281 29.433594 7.117188 C 29.371094 7.054688 29.457031 7 29.628906 7 C 29.800781 7 29.941406 6.941406 29.941406 6.867188 C 29.941406 6.617188 31.117188 6.230469 32.035156 6.179688 C 32.644531 6.148438 32.949219 6.199219 32.953125 6.339844 C 32.953125 6.46875 33.027344 6.445312 33.132812 6.285156 C 33.265625 6.082031 33.363281 6.070312 33.527344 6.226562 C 33.648438 6.34375 33.855469 6.398438 33.984375 6.347656 C 34.117188 6.300781 34.28125 6.347656 34.351562 6.453125 C 34.417969 6.558594 34.59375 6.644531 34.742188 6.644531 C 35.082031 6.644531 35.765625 7.195312 35.765625 7.46875 C 35.765625 7.773438 36.226562 8.082031 36.828125 8.1875 C 37.117188 8.238281 37.410156 8.359375 37.472656 8.457031 C 37.539062 8.558594 37.738281 8.660156 37.914062 8.683594 C 38.09375 8.710938 38.296875 8.804688 38.367188 8.894531 C 38.433594 8.988281 38.617188 9.0625 38.773438 9.0625 C 38.929688 9.0625 39.039062 9.148438 39.023438 9.25 C 39.003906 9.351562 39.171875 9.449219 39.394531 9.464844 C 39.617188 9.480469 39.832031 9.578125 39.867188 9.683594 C 39.902344 9.785156 40.035156 9.871094 40.160156 9.871094 C 40.523438 9.871094 42.699219 12.042969 43.40625 13.109375 C 44.375 14.578125 44.976562 16.601562 45.046875 18.636719 L 45.109375 20.351562 L 46.027344 20.46875 C 46.910156 20.582031 47.601562 20.691406 48.828125 20.90625 C 49.621094 21.050781 51.058594 21.558594 51.195312 21.75 C 51.257812 21.835938 51.351562 21.878906 51.402344 21.847656 C 51.519531 21.769531 54.132812 23.25 54.78125 23.765625 C 55.058594 23.984375 55.238281 24.214844 55.171875 24.277344 C 55.109375 24.335938 55.15625 24.386719 55.277344 24.386719 C 56.246094 24.386719 59.878906 29.265625 59.710938 30.351562 C 59.683594 30.519531 59.742188 30.613281 59.835938 30.558594 C 59.929688 30.503906 60.019531 30.5625 60.035156 30.691406 C 60.050781 30.820312 60.074219 31.007812 60.085938 31.105469 C 60.101562 31.207031 60.167969 31.375 60.242188 31.484375 C 60.460938 31.820312 60.785156 34.167969 60.722656 34.988281 C 60.675781 35.613281 60.589844 35.777344 60.277344 35.820312 C 59.765625 35.890625 58.863281 35.207031 59.003906 34.855469 C 59.074219 34.6875 59.015625 34.605469 58.855469 34.640625 C 58.714844 34.667969 58.621094 34.585938 58.648438 34.453125 C 58.675781 34.324219 58.625 34.261719 58.527344 34.316406 C 58.304688 34.449219 57.902344 33.984375 58.082031 33.792969 C 58.160156 33.714844 58.113281 33.707031 57.984375 33.777344 C 57.847656 33.851562 57.703125 33.789062 57.636719 33.625 C 57.574219 33.472656 57.441406 33.347656 57.339844 33.347656 C 57.238281 33.347656 56.9375 33.183594 56.675781 32.988281 C 56.078125 32.542969 55.953125 32.539062 55.953125 32.976562 C 55.953125 33.164062 56.015625 33.285156 56.089844 33.238281 C 56.21875 33.164062 57.730469 35.9375 57.828125 36.429688 C 57.851562 36.558594 58.023438 36.984375 58.207031 37.378906 C 58.394531 37.773438 58.554688 38.308594 58.570312 38.570312 C 58.585938 38.832031 58.667969 39.003906 58.753906 38.953125 C 58.839844 38.902344 58.890625 39.050781 58.867188 39.285156 C 58.84375 39.519531 58.890625 39.855469 58.96875 40.03125 C 59.292969 40.746094 59.148438 46.027344 58.761719 47.671875 C 58.550781 48.5625 57.519531 51.179688 57.308594 51.359375 C 57.191406 51.457031 57.074219 51.640625 57.046875 51.761719 C 57.023438 51.882812 56.699219 52.382812 56.332031 52.871094 C 55.769531 53.617188 55.601562 53.734375 55.261719 53.617188 C 55.011719 53.527344 54.757812 53.179688 54.585938 52.6875 C 53.886719 50.664062 53.34375 49.476562 52.640625 48.441406 C 51.84375 47.265625 48.210938 43.609375 46.996094 42.757812 C 46.609375 42.488281 46.339844 42.195312 46.394531 42.109375 C 46.453125 42.023438 46.386719 41.992188 46.25 42.042969 C 46.113281 42.09375 45.734375 41.898438 45.40625 41.613281 C 45.078125 41.328125 44.773438 41.125 44.734375 41.164062 C 44.691406 41.203125 44.433594 41.039062 44.160156 40.792969 C 43.882812 40.550781 43.660156 40.390625 43.660156 40.4375 C 43.660156 40.484375 43.449219 40.390625 43.191406 40.230469 C 42.933594 40.070312 42.777344 39.855469 42.84375 39.75 C 42.914062 39.644531 42.875 39.617188 42.761719 39.683594 C 42.648438 39.75 42.164062 39.59375 41.683594 39.339844 C 41.203125 39.082031 40.785156 38.898438 40.753906 38.933594 C 40.722656 38.964844 40.511719 39.71875 40.289062 40.605469 C 39.5625 43.472656 37.921875 47.578125 37.582031 47.378906 C 37.484375 47.320312 37.457031 47.355469 37.523438 47.460938 C 37.6875 47.710938 36.683594 49.484375 36.453125 49.347656 C 36.351562 49.289062 36.335938 49.335938 36.410156 49.453125 C 36.597656 49.738281 35.617188 51.3125 35.351562 51.15625 C 35.238281 51.089844 35.199219 51.113281 35.261719 51.210938 C 35.324219 51.308594 35.050781 52.027344 34.652344 52.808594 C 34.25 53.585938 33.730469 54.789062 33.492188 55.480469 C 33.257812 56.171875 32.929688 56.890625 32.769531 57.078125 C 32.570312 57.3125 32.558594 57.378906 32.734375 57.28125 C 32.9375 57.167969 32.945312 57.210938 32.773438 57.519531 C 32.527344 57.957031 31.976562 57.996094 31.164062 57.632812 Z M 32.382812 54.589844 C 32.84375 53.621094 33.269531 52.9375 33.378906 53.003906 C 33.484375 53.066406 33.515625 53.03125 33.445312 52.925781 C 33.273438 52.65625 33.511719 52.144531 33.75 52.28125 C 33.863281 52.347656 33.890625 52.3125 33.816406 52.199219 C 33.648438 51.9375 34.597656 50.148438 34.832031 50.285156 C 34.929688 50.34375 34.972656 50.285156 34.921875 50.15625 C 34.804688 49.84375 36.597656 46.746094 36.796875 46.921875 C 36.882812 46.996094 36.894531 46.960938 36.824219 46.839844 C 36.753906 46.71875 36.90625 46.226562 37.164062 45.738281 C 37.757812 44.617188 38.71875 42.023438 39.101562 40.515625 C 39.421875 39.230469 39.597656 34.0625 39.316406 34.0625 C 39.226562 34.0625 39.148438 33.863281 39.148438 33.617188 C 39.148438 33.371094 39.199219 33.167969 39.261719 33.167969 C 39.476562 33.167969 41.484375 34.273438 42.148438 34.757812 C 42.515625 35.023438 43.171875 35.46875 43.609375 35.75 C 44.046875 36.03125 44.355469 36.332031 44.300781 36.421875 C 44.242188 36.507812 44.265625 36.566406 44.351562 36.546875 C 44.660156 36.484375 45.15625 36.792969 45.039062 36.976562 C 44.96875 37.082031 45.003906 37.113281 45.117188 37.046875 C 45.347656 36.910156 45.871094 37.296875 48.347656 39.433594 C 51.289062 41.964844 53.222656 44.066406 54.367188 45.980469 C 55.199219 47.371094 56.1875 50.742188 55.941406 51.351562 C 55.855469 51.570312 55.878906 51.644531 56.011719 51.566406 C 56.386719 51.34375 57.335938 49.164062 57.753906 47.566406 C 58.261719 45.609375 58.308594 42.042969 57.847656 39.921875 C 57.242188 37.125 56.027344 34.660156 54.320312 32.769531 C 53.675781 32.054688 53.148438 31.414062 53.148438 31.347656 C 53.148438 31.28125 53.070312 31.160156 52.976562 31.078125 C 52.878906 30.988281 52.863281 31.019531 52.941406 31.152344 C 53.195312 31.574219 52.75 31.375 52.195312 30.824219 C 51.894531 30.519531 51.09375 29.898438 50.421875 29.445312 C 49.753906 28.992188 49.152344 28.546875 49.085938 28.457031 C 49.023438 28.371094 48.898438 28.292969 48.804688 28.28125 C 48.449219 28.25 46.664062 27.398438 46.664062 27.257812 C 46.664062 27.066406 47.570312 26.851562 47.800781 26.988281 C 47.898438 27.046875 47.980469 27.011719 47.980469 26.90625 C 47.980469 26.789062 48.507812 26.714844 49.34375 26.71875 C 51.035156 26.71875 52.695312 26.902344 52.585938 27.074219 C 52.539062 27.144531 52.722656 27.160156 52.992188 27.113281 C 53.332031 27.050781 53.445312 27.085938 53.355469 27.226562 C 53.273438 27.351562 53.324219 27.390625 53.488281 27.332031 C 54.121094 27.101562 56.851562 28.613281 57.988281 29.824219 C 58.601562 30.480469 58.65625 30.210938 58.109375 29.191406 C 57.171875 27.433594 55.378906 25.390625 53.949219 24.445312 C 53.566406 24.191406 53.300781 23.898438 53.367188 23.796875 C 53.433594 23.695312 53.402344 23.664062 53.300781 23.722656 C 53.109375 23.835938 50.355469 22.539062 50.5 22.402344 C 50.542969 22.359375 50.398438 22.3125 50.171875 22.300781 C 49.648438 22.269531 47.550781 21.703125 47.378906 21.546875 C 47.308594 21.484375 46.699219 21.457031 46.027344 21.488281 L 44.804688 21.546875 L 44.578125 22.207031 C 44.292969 23.03125 43.796875 23.882812 42.980469 24.949219 C 42.628906 25.402344 42.34375 25.980469 42.34375 26.226562 C 42.34375 27.292969 41.1875 28.75 39.863281 29.351562 C 36.96875 30.664062 35.058594 31.058594 31.710938 31.039062 C 30.773438 31.035156 29.757812 30.941406 29.457031 30.832031 C 29.15625 30.722656 28.867188 30.640625 28.816406 30.644531 C 28.527344 30.683594 27.515625 30.421875 27.578125 30.324219 C 27.617188 30.261719 27.378906 30.195312 27.046875 30.179688 C 26.453125 30.152344 24.289062 29.144531 23.527344 28.542969 C 22.917969 28.0625 22.308594 27.046875 22.183594 26.296875 C 22.117188 25.898438 21.792969 25.289062 21.421875 24.855469 C 21.0625 24.4375 20.539062 23.597656 20.253906 22.988281 C 19.964844 22.375 19.640625 21.871094 19.53125 21.859375 C 16.972656 21.660156 12.9375 22.671875 10.867188 24.03125 C 10.402344 24.335938 9.9375 24.535156 9.832031 24.472656 C 9.726562 24.410156 9.660156 24.425781 9.6875 24.507812 C 9.710938 24.589844 9.179688 25.179688 8.5 25.820312 C 7.449219 26.8125 6.265625 28.28125 6.265625 28.59375 C 6.265625 28.644531 6.636719 28.414062 7.09375 28.085938 C 7.546875 27.753906 8.292969 27.308594 8.757812 27.097656 C 9.707031 26.65625 12.089844 26.179688 13.316406 26.179688 C 14.160156 26.179688 16.402344 26.574219 17.523438 26.921875 C 18.050781 27.085938 18.109375 27.148438 17.847656 27.285156 C 17.679688 27.378906 17.460938 27.40625 17.367188 27.351562 C 17.273438 27.296875 17.167969 27.316406 17.132812 27.398438 C 17.101562 27.476562 16.523438 27.800781 15.851562 28.113281 C 15.179688 28.421875 14.375 28.820312 14.0625 28.996094 C 12.855469 29.675781 10.414062 31.933594 9.359375 33.347656 C 8.953125 33.890625 8.558594 34.359375 8.476562 34.390625 C 8.398438 34.425781 8.335938 34.589844 8.335938 34.753906 C 8.335938 34.921875 8.21875 35.21875 8.074219 35.414062 C 7.601562 36.058594 6.664062 38.96875 6.371094 40.695312 C 5.90625 43.425781 6.039062 46.097656 6.765625 48.53125 C 6.917969 49.050781 6.984375 49.574219 6.90625 49.699219 C 6.828125 49.832031 6.839844 49.863281 6.941406 49.773438 C 7.039062 49.6875 7.375 50.140625 7.730469 50.847656 C 8.070312 51.523438 8.296875 51.894531 8.234375 51.671875 C 8.160156 51.402344 8.203125 51.265625 8.367188 51.265625 C 8.558594 51.261719 8.554688 51.226562 8.347656 51.101562 C 8.125 50.96875 8.117188 50.707031 8.300781 49.472656 C 8.421875 48.664062 8.464844 47.917969 8.398438 47.816406 C 8.332031 47.714844 8.355469 47.675781 8.453125 47.734375 C 8.550781 47.792969 8.824219 47.378906 9.058594 46.8125 C 9.578125 45.570312 11.835938 42.605469 12.128906 42.777344 C 12.261719 42.855469 12.285156 42.816406 12.195312 42.679688 C 12.023438 42.414062 12.816406 41.554688 13.089844 41.714844 C 13.191406 41.773438 13.226562 41.742188 13.160156 41.644531 C 12.96875 41.347656 16.421875 38.285156 18.480469 36.933594 C 18.84375 36.695312 19.179688 36.453125 19.230469 36.394531 C 19.585938 36 20.441406 35.523438 20.617188 35.617188 C 20.734375 35.683594 20.765625 35.667969 20.6875 35.585938 C 20.535156 35.421875 22.65625 33.878906 23.816406 33.3125 C 24.460938 32.996094 24.53125 32.988281 24.425781 33.257812 C 24.359375 33.421875 24.253906 33.753906 24.191406 33.988281 C 24.128906 34.226562 24.023438 34.386719 23.957031 34.347656 C 23.890625 34.308594 23.828125 34.449219 23.816406 34.664062 C 23.804688 34.875 23.664062 35.773438 23.5 36.664062 C 23 39.367188 23.332031 42.660156 24.429688 45.882812 C 24.871094 47.175781 25.914062 49.335938 27.105469 51.441406 C 27.410156 51.976562 27.613281 52.496094 27.550781 52.589844 C 27.492188 52.679688 27.535156 52.703125 27.648438 52.636719 C 27.761719 52.570312 28.085938 52.816406 28.375 53.191406 C 28.664062 53.5625 29.261719 54.277344 29.703125 54.78125 C 30.140625 55.28125 30.457031 55.738281 30.398438 55.792969 C 30.339844 55.847656 30.398438 55.953125 30.523438 56.027344 C 30.667969 56.113281 30.703125 56.089844 30.617188 55.957031 C 30.421875 55.652344 30.796875 55.703125 31.070312 56.019531 C 31.199219 56.164062 31.367188 56.285156 31.441406 56.285156 C 31.515625 56.285156 31.941406 55.523438 32.382812 54.589844 Z M 56.0625 52.703125 C 56.0625 52.605469 55.972656 52.523438 55.863281 52.523438 C 55.753906 52.523438 55.714844 52.605469 55.777344 52.703125 C 55.84375 52.800781 55.933594 52.882812 55.976562 52.882812 C 56.023438 52.882812 56.0625 52.800781 56.0625 52.703125 Z M 8.410156 52.375 C 8.460938 52.292969 8.386719 52.222656 8.238281 52.222656 C 8.09375 52.222656 8.019531 52.292969 8.070312 52.375 C 8.125 52.457031 8.199219 52.523438 8.238281 52.523438 C 8.28125 52.523438 8.355469 52.457031 8.410156 52.375 Z M 9.523438 49.425781 C 10.566406 46.953125 12.757812 44.097656 15.160156 42.078125 C 15.890625 41.464844 16.957031 40.558594 17.535156 40.066406 C 18.113281 39.574219 19.050781 38.808594 19.613281 38.367188 C 21.214844 37.113281 22.09375 36.246094 21.960938 36.042969 C 21.863281 35.890625 21.339844 36.207031 19.703125 37.433594 C 19.597656 37.511719 19.007812 37.929688 18.386719 38.371094 C 17.765625 38.808594 16.753906 39.621094 16.132812 40.179688 C 15.511719 40.738281 14.710938 41.425781 14.351562 41.707031 C 13.332031 42.503906 11.695312 44.222656 10.898438 45.332031 C 10.5 45.886719 10.121094 46.328125 10.054688 46.308594 C 9.984375 46.292969 9.921875 46.453125 9.90625 46.667969 C 9.890625 46.882812 9.671875 47.582031 9.414062 48.222656 C 9.015625 49.21875 8.558594 51.300781 8.785156 51.074219 C 8.828125 51.035156 9.160156 50.292969 9.523438 49.425781 Z M 55.207031 50.6875 C 55.132812 49.371094 53.867188 46.636719 52.632812 45.128906 C 52.332031 44.761719 52.128906 44.457031 52.183594 44.457031 C 52.238281 44.457031 51.632812 43.800781 50.839844 43 C 50.042969 42.195312 49.410156 41.472656 49.433594 41.394531 C 49.460938 41.3125 49.355469 41.292969 49.199219 41.347656 C 48.945312 41.441406 48.828125 41.226562 48.902344 40.816406 C 48.917969 40.734375 48.835938 40.722656 48.722656 40.792969 C 48.605469 40.859375 48.246094 40.675781 47.917969 40.386719 C 47.320312 39.851562 45.371094 38.414062 44.320312 37.726562 C 44.007812 37.523438 43.324219 37.070312 42.800781 36.71875 C 42.277344 36.367188 41.585938 35.949219 41.265625 35.789062 L 40.683594 35.503906 L 41.15625 36.3125 C 41.417969 36.761719 42.019531 37.425781 42.488281 37.789062 C 42.960938 38.15625 43.710938 38.785156 44.160156 39.1875 C 44.605469 39.59375 45 39.894531 45.035156 39.863281 C 45.070312 39.828125 45.683594 40.285156 46.398438 40.875 C 47.113281 41.464844 47.765625 41.949219 47.851562 41.949219 C 47.933594 41.949219 47.941406 42.042969 47.867188 42.15625 C 47.792969 42.273438 47.816406 42.316406 47.925781 42.25 C 48.1875 42.09375 51.855469 45.71875 52.839844 47.105469 C 53.277344 47.722656 53.578125 48.320312 53.503906 48.433594 C 53.425781 48.550781 53.457031 48.585938 53.570312 48.519531 C 53.753906 48.410156 54.933594 50.464844 54.933594 50.898438 C 54.933594 51.003906 55 51.089844 55.082031 51.089844 C 55.160156 51.089844 55.21875 50.90625 55.207031 50.6875 Z M 21.207031 38.722656 C 21.140625 38.625 20.988281 38.546875 20.867188 38.546875 C 20.730469 38.546875 20.753906 38.617188 20.921875 38.722656 C 21.285156 38.945312 21.347656 38.945312 21.207031 38.722656 Z M 58.707031 31.867188 C 58.167969 30.976562 56.703125 29.621094 56.390625 29.71875 C 56.3125 29.742188 56.25 29.683594 56.25 29.585938 C 56.25 29.488281 55.785156 29.15625 55.214844 28.851562 C 54.648438 28.542969 54.183594 28.230469 54.183594 28.15625 C 54.183594 28.078125 54.035156 28.015625 53.851562 28.019531 C 53.136719 28.019531 52.847656 27.964844 52.929688 27.835938 C 52.980469 27.761719 52.792969 27.707031 52.519531 27.714844 C 52.246094 27.722656 51.488281 27.675781 50.839844 27.617188 C 50.191406 27.558594 49.578125 27.554688 49.476562 27.617188 C 49.1875 27.785156 50.269531 28.449219 51.039062 28.574219 C 51.425781 28.636719 52.035156 28.734375 52.394531 28.796875 C 52.785156 28.859375 53 28.980469 52.929688 29.09375 C 52.863281 29.195312 52.894531 29.230469 52.996094 29.167969 C 53.375 28.945312 54.597656 29.445312 55.644531 30.25 C 57.085938 31.359375 58.816406 33.070312 59.003906 33.570312 C 59.144531 33.9375 59.160156 33.921875 59.21875 33.390625 C 59.261719 32.984375 59.101562 32.515625 58.707031 31.867188 Z M 5.339844 32.671875 C 5.636719 32.226562 5.828125 31.777344 5.761719 31.679688 C 5.699219 31.582031 5.738281 31.554688 5.851562 31.621094 C 5.964844 31.6875 6.421875 31.382812 6.867188 30.941406 C 8.046875 29.777344 9.5625 28.976562 11.277344 28.621094 C 12.085938 28.453125 13.199219 28.09375 13.746094 27.828125 C 14.644531 27.394531 14.703125 27.332031 14.3125 27.226562 C 14.074219 27.164062 13.480469 27.101562 12.992188 27.09375 C 11.398438 27.058594 8.269531 28.042969 7.75 28.742188 C 7.6875 28.828125 7.558594 28.910156 7.46875 28.925781 C 7.375 28.941406 7.324219 29.023438 7.351562 29.105469 C 7.378906 29.183594 7.316406 29.199219 7.210938 29.136719 C 6.984375 29.003906 5.398438 30.523438 5.226562 31.035156 C 5.164062 31.226562 5.042969 31.339844 4.957031 31.289062 C 4.871094 31.238281 4.839844 31.339844 4.886719 31.515625 C 4.933594 31.6875 4.84375 32.070312 4.683594 32.367188 C 4.34375 32.988281 4.285156 33.785156 4.59375 33.605469 C 4.707031 33.539062 5.042969 33.117188 5.339844 32.671875 Z M 36.144531 29.851562 C 38.019531 29.328125 39.941406 28.421875 40.542969 27.777344 C 41.230469 27.039062 41.152344 27.007812 40.144531 27.617188 C 39.660156 27.910156 39.164062 28.148438 39.042969 28.148438 C 38.917969 28.148438 38.726562 28.257812 38.609375 28.390625 C 38.417969 28.609375 36.609375 29.113281 35.957031 29.128906 C 35.800781 29.132812 35.589844 29.1875 35.484375 29.25 C 35.027344 29.527344 31.363281 29.710938 30.320312 29.503906 C 27.898438 29.03125 26.910156 28.730469 25.367188 27.992188 C 24.042969 27.359375 23.625 27.222656 23.761719 27.464844 C 24.167969 28.195312 26.332031 29.242188 28.644531 29.835938 C 30.988281 30.4375 34.023438 30.441406 36.144531 29.851562 Z M 34.265625 27.847656 C 34.417969 27.789062 34.722656 27.722656 34.933594 27.695312 C 35.761719 27.585938 37.019531 27.199219 37.859375 26.792969 C 38.933594 26.273438 41.324219 24.445312 41.988281 23.636719 C 42.515625 22.992188 43.113281 21.964844 43.089844 21.746094 C 43.078125 21.667969 43.171875 21.265625 43.296875 20.851562 C 43.417969 20.433594 43.476562 19.894531 43.425781 19.648438 C 43.378906 19.402344 43.410156 19.242188 43.5 19.292969 C 43.855469 19.503906 43.648438 17.023438 43.195312 15.660156 C 42.621094 13.917969 41.964844 12.933594 40.515625 11.625 C 39.894531 11.0625 39.4375 10.546875 39.5 10.476562 C 39.566406 10.40625 39.511719 10.40625 39.382812 10.480469 C 39.253906 10.550781 38.914062 10.457031 38.632812 10.269531 C 38.347656 10.082031 37.964844 9.875 37.777344 9.808594 C 37.578125 9.742188 37.492188 9.605469 37.570312 9.484375 C 37.652344 9.355469 37.621094 9.324219 37.492188 9.402344 C 37.375 9.472656 37.109375 9.441406 36.898438 9.332031 C 36.621094 9.191406 36.519531 9.195312 36.519531 9.339844 C 36.519531 9.449219 36.414062 9.503906 36.285156 9.457031 C 36.15625 9.414062 36.070312 9.289062 36.09375 9.179688 C 36.117188 9.074219 36.019531 9.03125 35.871094 9.082031 C 35.707031 9.144531 35.398438 8.910156 35.058594 8.464844 C 34.542969 7.78125 34.492188 7.757812 34.058594 7.996094 C 32.984375 8.589844 32.40625 8.773438 31.894531 8.679688 C 31.085938 8.53125 31.011719 8.515625 30.546875 8.367188 C 30.238281 8.265625 30.03125 8.320312 29.796875 8.558594 C 29.617188 8.742188 29.535156 8.8125 29.613281 8.71875 C 29.691406 8.621094 29.753906 8.464844 29.753906 8.367188 C 29.753906 8.269531 29.636719 8.339844 29.492188 8.527344 C 29.351562 8.714844 29.28125 8.988281 29.339844 9.132812 C 29.414062 9.320312 29.355469 9.359375 29.121094 9.273438 C 28.925781 9.203125 28.84375 9.226562 28.910156 9.332031 C 28.972656 9.429688 28.957031 9.515625 28.875 9.523438 C 28.789062 9.53125 28.5625 9.566406 28.371094 9.601562 C 28.066406 9.65625 28.078125 9.609375 28.460938 9.222656 L 28.894531 8.777344 L 27.773438 9.265625 C 24.820312 10.542969 22.929688 12.164062 21.773438 14.402344 C 20.878906 16.132812 20.851562 16.261719 20.839844 18.742188 C 20.832031 20.730469 20.871094 20.972656 21.355469 21.957031 C 22.007812 23.289062 22.761719 24.25 23.03125 24.09375 C 23.148438 24.023438 23.183594 24.054688 23.109375 24.167969 C 22.972656 24.378906 25.585938 26.554688 26.105469 26.664062 C 26.199219 26.683594 26.785156 26.871094 27.402344 27.082031 C 29.617188 27.835938 33.203125 28.238281 34.265625 27.847656 Z M 34.078125 26.488281 C 34.128906 26.4375 34.464844 26.355469 34.828125 26.304688 C 36.265625 26.113281 38.046875 25.089844 39.683594 23.515625 C 40.871094 22.378906 41.644531 20.882812 41.949219 19.136719 C 42.039062 18.621094 42.121094 18.417969 42.132812 18.679688 C 42.175781 19.542969 41.613281 21.894531 41.140625 22.835938 C 40.398438 24.3125 39.179688 25.324219 37.328125 25.996094 C 36.464844 26.308594 33.863281 26.703125 34.078125 26.488281 Z M 31.164062 10.546875 C 30.855469 10.441406 30.539062 10.265625 30.460938 10.15625 C 30.371094 10.027344 30.324219 10.050781 30.320312 10.222656 C 30.320312 10.441406 30.269531 10.4375 30.015625 10.195312 C 29.550781 9.753906 29.863281 9.453125 30.421875 9.800781 C 30.675781 9.960938 30.882812 10.023438 30.882812 9.945312 C 30.882812 9.867188 31.015625 9.957031 31.179688 10.148438 C 31.339844 10.339844 31.421875 10.394531 31.355469 10.273438 C 31.269531 10.109375 31.464844 10.046875 32.082031 10.046875 C 32.542969 10.046875 33.132812 9.972656 33.386719 9.878906 C 33.726562 9.757812 33.941406 9.785156 34.199219 9.984375 C 34.53125 10.242188 34.527344 10.25 34.125 10.167969 C 33.890625 10.121094 33.742188 10.148438 33.796875 10.230469 C 33.851562 10.316406 33.808594 10.433594 33.703125 10.496094 C 33.597656 10.554688 33.511719 10.5 33.507812 10.371094 C 33.503906 10.226562 33.429688 10.257812 33.308594 10.453125 C 33.089844 10.8125 32.074219 10.855469 31.164062 10.546875 Z M 34.191406 9.71875 C 34.136719 9.636719 34.214844 9.570312 34.367188 9.570312 C 34.515625 9.570312 34.640625 9.636719 34.640625 9.71875 C 34.640625 9.800781 34.558594 9.871094 34.464844 9.871094 C 34.367188 9.871094 34.242188 9.800781 34.191406 9.71875 Z M 34.191406 9.71875 "/>
</g>
</svg>
