<svg xmlns="http://www.w3.org/2000/svg" xml:space="preserve" width="128" height="128" viewBox="0 0 33.867 33.867"><path d="M16.49 30.498c-.163-.073-.481-.295-.705-.494-.746-.66-2.487-3.084-2.358-3.283.034-.052.019-.07-.034-.038-.109.064-.86-1.422-.78-1.545.028-.043-.005-.098-.074-.122-.098-.034-.095-.091.016-.269.128-.207.126-.215-.025-.095-.091.071-.165.104-.165.072s-.108-.453-.238-.936c-.196-.723-.49-2.628-.446-2.895.03-.189-.022-.402-.1-.402-.047 0-.423.21-.836.467-.412.257-.776.449-.808.427q-.05-.032-.015.017c.024.03-.39.378-.92.77-1.076.798-1.58 1.282-2.349 2.255-.623.788-1.146 1.696-1.12 1.944.002.026-.046.137-.107.246-.061.11-.138.323-.171.474-.097.446-.101.46-.187.59-.044.069-.056.15-.025.179.121.115-.146.395-.36.378-.257-.022-.685-.346-.61-.461.028-.043.011-.078-.036-.078-.19 0-.854-1.442-1.062-2.308-.24-1-.278-3.418-.069-4.378.268-1.23 1.076-3.177 1.318-3.177.054 0 .075-.037.046-.081s.012-.162.09-.261q.337-.42-.149-.18c-.164.081-.298.128-.298.105 0-.046-.28.167-.932.712-.584.488-1.058.709-1.168.543-.135-.203-.101-1.055.07-1.757.205-.846.48-1.454 1.006-2.224.447-.653 1.752-1.949 1.921-1.907.054.013.097-.015.097-.062 0-.106.756-.567 1.541-.94.844-.401 2.54-.743 3.847-.775.038 0 .066-.439.062-.974-.003-.534.048-1.164.113-1.398.183-.656.716-1.71.83-1.643.055.033.072.014.036-.041-.08-.122.574-.93 1.04-1.285.185-.141.404-.313.486-.381.16-.135 1.128-.678 1.166-.656.013.008.18-.048.37-.124s.386-.138.435-.138c.148 0 .811-.539.743-.604-.034-.033.012-.06.103-.06s.166-.032.166-.072c0-.132.62-.335 1.108-.362q.481-.027.484.085c0 .066.04.054.095-.03.072-.107.122-.114.21-.03.063.06.173.089.242.063.07-.025.157 0 .193.055.036.056.13.101.208.101.18 0 .542.292.542.437 0 .16.242.325.56.38.155.027.309.091.343.144s.139.106.233.12c.095.013.202.063.24.112.036.048.133.088.215.088s.14.044.131.099c-.01.054.079.105.197.114.119.008.231.06.25.114.02.055.09.1.155.1.192 0 1.344 1.15 1.717 1.714.515.777.833 1.847.87 2.925l.031.908.487.062c.467.06.833.117 1.481.232.421.075 1.182.344 1.254.445.034.046.083.07.11.052.062-.042 1.444.742 1.788 1.015.147.117.24.238.207.27-.034.032-.01.058.054.058.514 0 2.436 2.583 2.347 3.156-.014.09.016.14.066.11.05-.029.097.003.106.072l.027.219a.6.6 0 0 0 .081.199c.117.178.288 1.42.256 1.854-.025.332-.071.418-.236.44-.272.037-.748-.324-.674-.51.036-.089.007-.132-.079-.114-.075.015-.124-.03-.109-.098.015-.07-.013-.102-.063-.072-.12.07-.332-.177-.237-.277.04-.043.018-.047-.051-.01-.073.041-.15.008-.185-.079-.033-.081-.103-.148-.157-.148s-.212-.085-.351-.19c-.315-.236-.382-.237-.382-.007 0 .1.032.164.072.14.069-.04.869 1.429.92 1.688.013.068.103.294.201.503.098.208.184.492.192.63.007.139.051.23.097.203s.073.052.06.176a.9.9 0 0 0 .054.395c.17.378.094 3.172-.11 4.042-.111.472-.657 1.857-.77 1.951a.46.46 0 0 0-.137.213c-.014.065-.184.33-.379.588-.298.395-.387.457-.566.394-.132-.046-.267-.232-.357-.493-.37-1.07-.659-1.697-1.03-2.245-.422-.622-2.345-2.558-2.987-3.007-.205-.143-.348-.298-.318-.344s-.005-.061-.077-.035c-.071.026-.273-.076-.447-.228-.174-.151-.334-.258-.356-.237-.022.02-.159-.067-.304-.196-.145-.128-.264-.213-.264-.188s-.111-.025-.248-.11c-.136-.085-.219-.2-.183-.254.036-.056.016-.071-.044-.035s-.316-.047-.57-.183c-.255-.136-.477-.232-.493-.215s-.127.415-.245.885c-.384 1.517-1.252 3.69-1.432 3.584-.053-.032-.068-.012-.032.043.087.134-.445 1.07-.567.999-.052-.031-.062-.006-.022.056.098.152-.42.984-.56.9-.06-.035-.082-.021-.048.03.033.052-.112.432-.323.845s-.487 1.05-.612 1.414c-.126.365-.298.746-.383.846q-.157.186-.02.107c.109-.06.113-.036.021.126-.13.232-.42.253-.851.061m.646-1.612c.243-.512.47-.873.527-.838.056.032.072.014.036-.042-.093-.143.035-.413.16-.34.06.036.075.017.036-.044-.09-.138.413-1.086.537-1.013.052.031.074 0 .048-.067-.063-.166.886-1.805.992-1.713.046.04.052.02.014-.043s.043-.325.18-.582c.315-.594.823-1.966 1.024-2.765.171-.68.263-3.414.115-3.414-.049 0-.088-.106-.088-.237 0-.13.026-.237.059-.237.113 0 1.177.586 1.527.84a19 19 0 0 0 .773.527c.232.148.396.307.366.354s-.019.078.027.068c.163-.034.427.13.364.227-.036.056-.017.072.042.037.122-.072.397.132 1.71 1.262 1.556 1.34 2.578 2.453 3.184 3.466.44.736.964 2.52.834 2.842q-.069.174.036.113c.199-.117.701-1.27.922-2.116.27-1.035.293-2.922.05-4.046-.32-1.48-.964-2.785-1.866-3.784-.341-.378-.62-.717-.62-.753 0-.035-.041-.1-.091-.143q-.08-.067-.02.04c.135.222-.1.118-.393-.174-.16-.161-.583-.49-.938-.73-.356-.24-.674-.475-.708-.522a.24.24 0 0 0-.149-.093c-.189-.017-1.132-.468-1.132-.541 0-.102.479-.215.601-.143.052.03.095.01.095-.045 0-.061.28-.1.72-.1.896.002 1.775.098 1.717.189-.025.037.072.047.216.02.178-.032.238-.013.19.06-.043.067-.016.089.07.057.336-.123 1.78.678 2.382 1.32.325.347.353.203.065-.336-.497-.93-1.446-2.011-2.201-2.51-.204-.136-.343-.29-.308-.344s.019-.071-.036-.04c-.102.061-1.559-.626-1.483-.698.024-.023-.054-.047-.172-.054-.279-.017-1.388-.315-1.478-.398-.038-.035-.36-.05-.716-.032l-.646.032-.12.347c-.152.437-.415.888-.846 1.451-.185.242-.337.546-.337.676 0 .566-.611 1.336-1.313 1.655-1.532.694-2.543.904-4.313.894-.497-.003-1.034-.053-1.194-.11a1.7 1.7 0 0 0-.339-.1c-.153.02-.688-.118-.655-.169.02-.033-.106-.068-.282-.076-.314-.016-1.458-.548-1.861-.866-.323-.255-.645-.793-.711-1.19-.035-.21-.206-.533-.404-.763a5.2 5.2 0 0 1-.618-.987c-.151-.324-.324-.592-.383-.597-1.353-.106-3.487.429-4.584 1.148-.246.161-.492.266-.548.234-.055-.033-.09-.025-.076.018s-.27.356-.628.695c-.557.525-1.182 1.302-1.182 1.467 0 .027.197-.094.437-.269s.636-.41.88-.523c.503-.232 1.765-.485 2.414-.485.447 0 1.632.21 2.225.393.28.087.31.12.173.193-.09.048-.205.064-.255.034s-.105-.018-.123.025-.324.213-.68.378c-.355.165-.78.375-.945.468-.638.359-1.931 1.555-2.49 2.302-.214.287-.424.536-.466.553s-.076.104-.076.192a.7.7 0 0 1-.137.348c-.25.343-.747 1.883-.902 2.795-.246 1.446-.175 2.86.209 4.148.081.273.115.55.075.617q-.062.107.018.04c.053-.047.229.193.418.568.18.357.3.553.266.436q-.06-.213.071-.215c.101-.001.1-.02-.01-.086-.118-.072-.122-.21-.025-.863.063-.428.086-.822.05-.876s-.021-.074.03-.044c.053.03.197-.188.321-.487.274-.657 1.469-2.227 1.625-2.135.069.04.082.02.034-.052-.092-.142.328-.597.473-.512.055.033.072.016.038-.037-.102-.157 1.727-1.777 2.815-2.492a4 4 0 0 0 .398-.285c.188-.208.64-.462.733-.411.062.034.079.026.038-.017-.082-.086 1.042-.904 1.654-1.203.343-.167.38-.17.323-.03a4 4 0 0 0-.124.388c-.033.125-.089.21-.124.19s-.068.054-.074.167c-.006.112-.081.588-.168 1.057-.265 1.432-.088 3.174.493 4.88.234.684.784 1.827 1.416 2.94.161.285.267.559.235.608-.032.05-.009.06.05.026.06-.036.232.094.387.293.152.197.468.575.7.84.234.267.4.508.37.537s-.001.084.066.124q.117.068.05-.038c-.104-.16.094-.134.24.033.067.078.156.142.196.142s.264-.404.498-.899m12.53-.998c0-.052-.048-.095-.106-.095s-.078.043-.044.095.081.095.106.095.043-.043.043-.095M4.45 27.714c.028-.043-.012-.079-.09-.079-.077 0-.117.036-.089.08.028.043.068.078.09.078.02 0 .06-.035.089-.079m.59-1.56c.552-1.308 1.711-2.82 2.983-3.888.385-.324.95-.803 1.257-1.064.305-.26.8-.666 1.1-.9.845-.663 1.31-1.123 1.242-1.229-.053-.082-.33.088-1.196.735-.055.041-.368.264-.696.496s-.865.663-1.194.958-.752.658-.943.807c-.539.423-1.405 1.332-1.826 1.919-.21.293-.412.526-.447.518s-.07.076-.078.19c-.007.112-.124.482-.26.821-.21.528-.454 1.63-.333 1.51.022-.022.198-.415.391-.873m24.173.667c-.038-.696-.708-2.142-1.361-2.94-.16-.195-.267-.355-.238-.355s-.29-.348-.712-.772-.756-.807-.743-.85-.043-.054-.124-.024c-.134.049-.197-.064-.157-.282.008-.043-.036-.049-.096-.013s-.253-.06-.426-.215c-.316-.281-1.346-1.042-1.904-1.406a90 90 0 0 1-.804-.534 9 9 0 0 0-.812-.491l-.308-.152.251.43c.139.235.456.587.705.78.25.194.647.527.883.74.236.214.445.374.463.356.019-.017.344.224.723.536.378.313.724.569.768.569s.049.05.01.11c-.04.062-.028.084.03.05.139-.082 2.08 1.835 2.6 2.568.232.327.39.643.352.702-.04.063-.026.082.034.047.098-.058.722 1.03.722 1.259 0 .055.035.1.078.1s.072-.095.066-.213m-17.992-6.33a.23.23 0 0 0-.18-.093c-.07 0-.059.038.031.093.191.118.225.118.15 0m19.845-3.629c-.286-.47-1.06-1.188-1.225-1.136-.042.013-.076-.019-.076-.07s-.246-.227-.547-.39c-.3-.161-.547-.327-.547-.367s-.078-.073-.174-.073c-.38.002-.531-.028-.487-.096.025-.04-.073-.068-.218-.065s-.545-.019-.889-.05c-.343-.033-.668-.033-.72-.002-.154.09.417.44.825.507l.718.118c.205.034.32.098.283.157-.036.054-.02.073.035.04.2-.118.847.146 1.4.573.764.587 1.68 1.492 1.78 1.756.072.195.083.186.112-.096.023-.214-.06-.463-.27-.806m-28.24.427c.157-.236.257-.472.223-.525s-.013-.067.047-.031c.06.035.302-.127.538-.36a4.64 4.64 0 0 1 2.333-1.228c.429-.089 1.017-.278 1.308-.419.474-.23.505-.263.298-.319a4 4 0 0 0-.697-.07c-.844-.018-2.5.503-2.775.873a.28.28 0 0 1-.15.097c-.048.009-.075.05-.06.094.015.043-.02.05-.076.017-.119-.07-.958.734-1.049 1.004-.033.101-.098.162-.144.135s-.062.026-.036.12c.025.092-.024.295-.108.45-.18.329-.21.752-.047.656.06-.036.238-.258.395-.494m16.3-1.493c.992-.277 2.01-.757 2.327-1.097.365-.39.324-.408-.209-.086-.257.156-.52.283-.584.283-.065 0-.168.057-.228.127-.102.117-1.059.383-1.406.39a.6.6 0 0 0-.248.065c-.242.147-2.182.243-2.735.135-1.28-.25-1.803-.41-2.62-.8-.7-.335-.922-.408-.85-.279.216.385 1.362.94 2.585 1.254 1.24.318 2.847.32 3.968.008m-.994-1.06c.082-.03.241-.067.354-.082.437-.056 1.103-.261 1.548-.476.569-.275 1.834-1.242 2.184-1.67.28-.342.596-.885.583-1.002-.005-.04.045-.252.11-.472.064-.22.096-.507.07-.637-.027-.13-.01-.215.037-.187.189.111.08-1.2-.16-1.924-.305-.921-.651-1.442-1.418-2.135-.33-.297-.572-.57-.537-.608.034-.036.006-.036-.063.002-.068.038-.247-.012-.397-.111a2.6 2.6 0 0 0-.453-.243c-.105-.036-.15-.108-.11-.172q.066-.104-.04-.044c-.063.037-.204.02-.314-.036-.146-.074-.201-.074-.201.004 0 .058-.056.086-.125.062-.068-.024-.113-.09-.1-.147s-.04-.08-.118-.051c-.088.032-.25-.092-.43-.328-.274-.36-.3-.373-.528-.248-.57.315-.877.412-1.147.362-.428-.078-.466-.087-.712-.166-.163-.052-.274-.023-.398.103-.094.096-.137.133-.096.083a.36.36 0 0 0 .074-.186c0-.052-.062-.013-.138.086s-.113.242-.082.319c.04.1.009.122-.116.076-.102-.037-.147-.025-.11.031.033.052.024.097-.02.101a4 4 0 0 0-.265.04c-.162.03-.156.005.046-.2l.23-.235-.592.257c-1.563.678-2.565 1.535-3.177 2.72-.473.914-.488.983-.493 2.295-.005 1.052.016 1.18.272 1.703.346.705.745 1.213.888 1.13.062-.038.08-.021.04.04-.072.11 1.311 1.262 1.585 1.319.051.01.36.11.688.222 1.172.4 3.068.61 3.63.405m-.1-.719c.027-.027.206-.07.398-.097.761-.103 1.702-.643 2.57-1.476.627-.601 1.036-1.394 1.198-2.318.048-.272.092-.38.098-.241.021.457-.276 1.7-.526 2.198-.392.783-1.037 1.317-2.018 1.673-.456.165-1.832.374-1.72.261M16.491 5.58c-.164-.056-.331-.148-.371-.206q-.073-.102-.075.035c-.001.116-.028.113-.162-.015-.245-.233-.08-.391.215-.207.134.084.244.118.244.076s.07.006.156.107c.086.102.128.131.094.066-.046-.086.059-.119.384-.119.245 0 .557-.04.691-.088.18-.066.294-.051.43.054.175.137.173.141-.04.098-.123-.025-.2-.01-.173.033.029.044.006.107-.05.14-.055.032-.102.003-.103-.065-.002-.077-.042-.06-.105.042-.116.19-.654.213-1.135.05m1.601-.437c-.028-.043.014-.079.094-.079s.144.036.144.08c0 .043-.042.078-.093.078a.2.2 0 0 1-.145-.079" style="fill:#626262;fill-opacity:1"/></svg>