<?xml version="1.0" encoding="UTF-8"?>
<svg xmlns="http://www.w3.org/2000/svg" xmlns:xlink="http://www.w3.org/1999/xlink" width="32px" height="32px" viewBox="0 0 32 32" version="1.1">
<g id="surface1">
<path style=" stroke:none;fill-rule:nonzero;fill:rgb(38.431373%,38.431373%,38.431373%);fill-opacity:1;" d="M 15.582031 28.816406 C 15.425781 28.746094 15.125 28.539062 14.914062 28.351562 C 14.210938 27.726562 12.566406 25.4375 12.6875 25.25 C 12.71875 25.199219 12.703125 25.183594 12.65625 25.210938 C 12.550781 25.273438 11.84375 23.867188 11.917969 23.753906 C 11.945312 23.710938 11.914062 23.660156 11.847656 23.636719 C 11.753906 23.605469 11.757812 23.550781 11.863281 23.382812 C 11.984375 23.1875 11.980469 23.179688 11.839844 23.292969 C 11.753906 23.359375 11.683594 23.390625 11.683594 23.363281 C 11.683594 23.332031 11.582031 22.933594 11.457031 22.476562 C 11.273438 21.792969 10.996094 19.992188 11.035156 19.742188 C 11.066406 19.5625 11.015625 19.363281 10.945312 19.363281 C 10.898438 19.363281 10.542969 19.558594 10.152344 19.800781 C 9.761719 20.046875 9.421875 20.226562 9.390625 20.207031 C 9.359375 20.183594 9.351562 20.191406 9.375 20.222656 C 9.398438 20.25 9.007812 20.578125 8.507812 20.949219 C 7.488281 21.703125 7.011719 22.160156 6.285156 23.082031 C 5.699219 23.824219 5.203125 24.683594 5.226562 24.917969 C 5.230469 24.941406 5.183594 25.046875 5.125 25.148438 C 5.070312 25.253906 4.996094 25.453125 4.964844 25.597656 C 4.875 26.019531 4.871094 26.03125 4.789062 26.15625 C 4.746094 26.21875 4.734375 26.296875 4.765625 26.324219 C 4.878906 26.433594 4.628906 26.699219 4.425781 26.679688 C 4.183594 26.660156 3.777344 26.355469 3.847656 26.246094 C 3.875 26.203125 3.859375 26.171875 3.8125 26.171875 C 3.632812 26.171875 3.007812 24.808594 2.8125 23.992188 C 2.585938 23.046875 2.546875 20.761719 2.746094 19.855469 C 3 18.691406 3.761719 16.851562 3.992188 16.851562 C 4.042969 16.851562 4.0625 16.816406 4.035156 16.777344 C 4.007812 16.734375 4.046875 16.625 4.121094 16.53125 C 4.332031 16.265625 4.285156 16.207031 3.980469 16.359375 C 3.824219 16.4375 3.695312 16.480469 3.695312 16.457031 C 3.695312 16.414062 3.433594 16.617188 2.816406 17.132812 C 2.265625 17.59375 1.816406 17.800781 1.714844 17.644531 C 1.585938 17.453125 1.617188 16.648438 1.777344 15.984375 C 1.972656 15.183594 2.234375 14.609375 2.730469 13.882812 C 3.152344 13.265625 4.382812 12.042969 4.546875 12.082031 C 4.59375 12.09375 4.636719 12.066406 4.636719 12.023438 C 4.636719 11.921875 5.351562 11.488281 6.09375 11.132812 C 6.890625 10.753906 8.492188 10.433594 9.726562 10.402344 C 9.761719 10.402344 9.789062 9.988281 9.785156 9.480469 C 9.78125 8.976562 9.832031 8.382812 9.894531 8.160156 C 10.066406 7.542969 10.570312 6.546875 10.675781 6.609375 C 10.730469 6.640625 10.746094 6.621094 10.710938 6.570312 C 10.636719 6.453125 11.253906 5.691406 11.691406 5.355469 C 11.867188 5.222656 12.074219 5.058594 12.152344 4.996094 C 12.304688 4.867188 13.21875 4.355469 13.253906 4.375 C 13.265625 4.382812 13.425781 4.332031 13.605469 4.257812 C 13.785156 4.1875 13.96875 4.128906 14.015625 4.128906 C 14.15625 4.128906 14.78125 3.617188 14.71875 3.558594 C 14.683594 3.527344 14.730469 3.5 14.816406 3.5 C 14.902344 3.5 14.972656 3.46875 14.972656 3.433594 C 14.972656 3.308594 15.558594 3.117188 16.019531 3.089844 C 16.320312 3.074219 16.476562 3.101562 16.476562 3.171875 C 16.476562 3.234375 16.511719 3.222656 16.566406 3.144531 C 16.632812 3.042969 16.679688 3.035156 16.765625 3.113281 C 16.824219 3.171875 16.925781 3.199219 16.992188 3.175781 C 17.058594 3.148438 17.140625 3.171875 17.175781 3.226562 C 17.210938 3.277344 17.296875 3.320312 17.371094 3.320312 C 17.542969 3.320312 17.882812 3.597656 17.882812 3.734375 C 17.882812 3.886719 18.113281 4.042969 18.414062 4.09375 C 18.558594 4.117188 18.703125 4.179688 18.738281 4.230469 C 18.769531 4.277344 18.867188 4.328125 18.957031 4.34375 C 19.046875 4.355469 19.148438 4.402344 19.183594 4.449219 C 19.21875 4.492188 19.308594 4.53125 19.386719 4.53125 C 19.464844 4.53125 19.519531 4.574219 19.511719 4.625 C 19.5 4.675781 19.585938 4.726562 19.699219 4.734375 C 19.808594 4.742188 19.914062 4.789062 19.933594 4.839844 C 19.953125 4.890625 20.015625 4.933594 20.082031 4.933594 C 20.261719 4.933594 21.347656 6.023438 21.703125 6.554688 C 22.1875 7.289062 22.488281 8.300781 22.523438 9.320312 L 22.554688 10.175781 L 23.015625 10.234375 C 23.453125 10.289062 23.800781 10.34375 24.414062 10.453125 C 24.8125 10.523438 25.53125 10.78125 25.597656 10.875 C 25.628906 10.917969 25.675781 10.941406 25.699219 10.921875 C 25.761719 10.882812 27.066406 11.625 27.390625 11.882812 C 27.53125 11.992188 27.617188 12.109375 27.585938 12.136719 C 27.554688 12.167969 27.578125 12.191406 27.636719 12.191406 C 28.125 12.191406 29.9375 14.632812 29.855469 15.175781 C 29.84375 15.261719 29.871094 15.308594 29.917969 15.28125 C 29.964844 15.25 30.007812 15.28125 30.019531 15.347656 C 30.027344 15.410156 30.039062 15.503906 30.042969 15.554688 C 30.050781 15.601562 30.085938 15.6875 30.121094 15.742188 C 30.230469 15.910156 30.390625 17.082031 30.363281 17.492188 C 30.335938 17.808594 30.292969 17.886719 30.140625 17.910156 C 29.882812 17.945312 29.433594 17.605469 29.503906 17.429688 C 29.535156 17.34375 29.507812 17.304688 29.425781 17.320312 C 29.355469 17.332031 29.308594 17.292969 29.324219 17.226562 C 29.339844 17.160156 29.3125 17.128906 29.265625 17.160156 C 29.152344 17.226562 28.953125 16.992188 29.042969 16.898438 C 29.078125 16.855469 29.058594 16.851562 28.992188 16.890625 C 28.921875 16.925781 28.851562 16.894531 28.816406 16.8125 C 28.789062 16.738281 28.71875 16.671875 28.667969 16.671875 C 28.617188 16.671875 28.46875 16.59375 28.335938 16.496094 C 28.039062 16.269531 27.976562 16.269531 27.976562 16.488281 C 27.976562 16.582031 28.007812 16.640625 28.046875 16.621094 C 28.109375 16.582031 28.867188 17.96875 28.914062 18.214844 C 28.925781 18.277344 29.011719 18.492188 29.105469 18.691406 C 29.195312 18.886719 29.277344 19.15625 29.285156 19.285156 C 29.292969 19.417969 29.335938 19.503906 29.378906 19.476562 C 29.421875 19.453125 29.445312 19.527344 29.433594 19.644531 C 29.421875 19.757812 29.445312 19.925781 29.484375 20.015625 C 29.644531 20.375 29.574219 23.011719 29.378906 23.835938 C 29.277344 24.28125 28.761719 25.589844 28.65625 25.679688 C 28.59375 25.730469 28.535156 25.820312 28.523438 25.878906 C 28.511719 25.941406 28.351562 26.191406 28.167969 26.4375 C 27.882812 26.808594 27.800781 26.867188 27.632812 26.808594 C 27.507812 26.765625 27.378906 26.589844 27.292969 26.34375 C 26.945312 25.332031 26.671875 24.738281 26.320312 24.222656 C 25.921875 23.632812 24.105469 21.804688 23.5 21.378906 C 23.304688 21.246094 23.167969 21.097656 23.199219 21.054688 C 23.226562 21.011719 23.191406 20.996094 23.125 21.023438 C 23.058594 21.046875 22.867188 20.949219 22.703125 20.804688 C 22.539062 20.664062 22.386719 20.5625 22.367188 20.582031 C 22.347656 20.601562 22.214844 20.519531 22.078125 20.398438 C 21.941406 20.277344 21.828125 20.195312 21.828125 20.21875 C 21.828125 20.242188 21.722656 20.195312 21.59375 20.117188 C 21.46875 20.035156 21.390625 19.925781 21.421875 19.875 C 21.457031 19.824219 21.4375 19.808594 21.378906 19.84375 C 21.324219 19.875 21.082031 19.796875 20.839844 19.667969 C 20.601562 19.542969 20.390625 19.449219 20.375 19.464844 C 20.359375 19.484375 20.257812 19.859375 20.144531 20.300781 C 19.78125 21.738281 18.960938 23.789062 18.792969 23.6875 C 18.742188 23.660156 18.726562 23.679688 18.761719 23.730469 C 18.84375 23.855469 18.339844 24.742188 18.226562 24.671875 C 18.175781 24.644531 18.167969 24.667969 18.207031 24.726562 C 18.296875 24.871094 17.808594 25.65625 17.675781 25.578125 C 17.621094 25.542969 17.597656 25.558594 17.628906 25.605469 C 17.660156 25.65625 17.523438 26.011719 17.324219 26.402344 C 17.125 26.792969 16.867188 27.394531 16.746094 27.738281 C 16.628906 28.085938 16.464844 28.445312 16.386719 28.539062 C 16.285156 28.65625 16.28125 28.6875 16.367188 28.640625 C 16.46875 28.582031 16.472656 28.605469 16.386719 28.757812 C 16.261719 28.980469 15.988281 29 15.582031 28.816406 Z M 16.191406 27.292969 C 16.421875 26.808594 16.636719 26.46875 16.691406 26.5 C 16.742188 26.53125 16.757812 26.515625 16.722656 26.460938 C 16.636719 26.328125 16.757812 26.070312 16.875 26.140625 C 16.929688 26.175781 16.945312 26.15625 16.910156 26.097656 C 16.824219 25.96875 17.300781 25.074219 17.417969 25.144531 C 17.464844 25.171875 17.484375 25.144531 17.460938 25.078125 C 17.402344 24.921875 18.296875 23.375 18.398438 23.460938 C 18.441406 23.496094 18.449219 23.480469 18.414062 23.417969 C 18.375 23.359375 18.453125 23.113281 18.582031 22.871094 C 18.878906 22.308594 19.359375 21.011719 19.550781 20.257812 C 19.710938 19.617188 19.796875 17.03125 19.660156 17.03125 C 19.613281 17.03125 19.574219 16.929688 19.574219 16.808594 C 19.574219 16.683594 19.601562 16.582031 19.628906 16.582031 C 19.738281 16.582031 20.742188 17.136719 21.074219 17.378906 C 21.257812 17.511719 21.585938 17.734375 21.804688 17.875 C 22.023438 18.015625 22.179688 18.164062 22.148438 18.210938 C 22.121094 18.253906 22.132812 18.285156 22.175781 18.273438 C 22.328125 18.242188 22.578125 18.398438 22.519531 18.488281 C 22.484375 18.542969 22.503906 18.554688 22.558594 18.523438 C 22.675781 18.457031 22.933594 18.648438 24.175781 19.714844 C 25.644531 20.984375 26.609375 22.035156 27.183594 22.992188 C 27.597656 23.6875 28.09375 25.371094 27.972656 25.675781 C 27.925781 25.785156 27.941406 25.820312 28.003906 25.785156 C 28.191406 25.671875 28.667969 24.582031 28.875 23.785156 C 29.132812 22.804688 29.152344 21.023438 28.921875 19.960938 C 28.621094 18.5625 28.011719 17.328125 27.160156 16.386719 C 26.839844 16.027344 26.574219 15.707031 26.574219 15.675781 C 26.574219 15.640625 26.535156 15.578125 26.488281 15.539062 C 26.4375 15.496094 26.429688 15.511719 26.46875 15.574219 C 26.597656 15.785156 26.375 15.6875 26.097656 15.410156 C 25.945312 15.261719 25.546875 14.949219 25.210938 14.722656 C 24.875 14.496094 24.574219 14.273438 24.542969 14.230469 C 24.511719 14.183594 24.449219 14.144531 24.402344 14.140625 C 24.222656 14.125 23.332031 13.699219 23.332031 13.628906 C 23.332031 13.535156 23.785156 13.425781 23.902344 13.496094 C 23.949219 13.523438 23.992188 13.503906 23.992188 13.453125 C 23.992188 13.394531 24.253906 13.359375 24.671875 13.359375 C 25.519531 13.359375 26.347656 13.449219 26.292969 13.535156 C 26.269531 13.570312 26.363281 13.582031 26.496094 13.554688 C 26.664062 13.523438 26.722656 13.542969 26.675781 13.613281 C 26.636719 13.675781 26.660156 13.695312 26.742188 13.664062 C 27.058594 13.550781 28.425781 14.304688 28.992188 14.914062 C 29.300781 15.242188 29.328125 15.105469 29.054688 14.597656 C 28.585938 13.71875 27.6875 12.695312 26.976562 12.222656 C 26.78125 12.097656 26.652344 11.949219 26.683594 11.898438 C 26.71875 11.847656 26.703125 11.832031 26.652344 11.863281 C 26.554688 11.917969 25.175781 11.269531 25.25 11.203125 C 25.273438 11.179688 25.199219 11.15625 25.085938 11.148438 C 24.824219 11.132812 23.773438 10.851562 23.691406 10.773438 C 23.652344 10.742188 23.351562 10.726562 23.015625 10.746094 L 22.402344 10.773438 L 22.289062 11.101562 C 22.144531 11.515625 21.898438 11.941406 21.492188 12.472656 C 21.316406 12.703125 21.171875 12.988281 21.171875 13.113281 C 21.171875 13.648438 20.59375 14.375 19.929688 14.675781 C 18.484375 15.332031 17.527344 15.53125 15.855469 15.519531 C 15.386719 15.515625 14.878906 15.46875 14.726562 15.414062 C 14.578125 15.359375 14.433594 15.320312 14.40625 15.324219 C 14.261719 15.339844 13.757812 15.210938 13.789062 15.164062 C 13.808594 15.132812 13.6875 15.097656 13.523438 15.089844 C 13.226562 15.074219 12.144531 14.574219 11.761719 14.273438 C 11.457031 14.03125 11.15625 13.523438 11.09375 13.148438 C 11.058594 12.949219 10.898438 12.644531 10.710938 12.425781 C 10.53125 12.21875 10.269531 11.800781 10.125 11.492188 C 9.984375 11.1875 9.820312 10.933594 9.765625 10.929688 C 8.484375 10.832031 6.46875 11.335938 5.433594 12.015625 C 5.199219 12.167969 4.96875 12.265625 4.914062 12.234375 C 4.863281 12.203125 4.832031 12.210938 4.84375 12.253906 C 4.855469 12.292969 4.589844 12.589844 4.25 12.910156 C 3.722656 13.40625 3.132812 14.140625 3.132812 14.296875 C 3.132812 14.320312 3.320312 14.207031 3.546875 14.042969 C 3.773438 13.875 4.148438 13.65625 4.378906 13.546875 C 4.851562 13.328125 6.046875 13.089844 6.660156 13.089844 C 7.082031 13.089844 8.199219 13.285156 8.761719 13.460938 C 9.027344 13.542969 9.054688 13.574219 8.925781 13.644531 C 8.839844 13.6875 8.730469 13.703125 8.683594 13.675781 C 8.636719 13.648438 8.585938 13.660156 8.566406 13.699219 C 8.550781 13.738281 8.261719 13.898438 7.925781 14.054688 C 7.589844 14.210938 7.1875 14.410156 7.03125 14.5 C 6.429688 14.835938 5.207031 15.96875 4.679688 16.671875 C 4.476562 16.945312 4.277344 17.179688 4.238281 17.195312 C 4.199219 17.210938 4.167969 17.292969 4.167969 17.378906 C 4.167969 17.460938 4.109375 17.609375 4.039062 17.707031 C 3.800781 18.03125 3.332031 19.484375 3.183594 20.347656 C 2.953125 21.714844 3.019531 23.046875 3.382812 24.265625 C 3.460938 24.523438 3.492188 24.785156 3.453125 24.847656 C 3.414062 24.914062 3.421875 24.929688 3.472656 24.886719 C 3.519531 24.84375 3.6875 25.070312 3.863281 25.425781 C 4.035156 25.761719 4.148438 25.945312 4.117188 25.835938 C 4.078125 25.703125 4.101562 25.632812 4.183594 25.632812 C 4.28125 25.632812 4.277344 25.613281 4.175781 25.550781 C 4.0625 25.484375 4.058594 25.355469 4.152344 24.734375 C 4.210938 24.332031 4.230469 23.960938 4.199219 23.90625 C 4.164062 23.855469 4.179688 23.839844 4.226562 23.867188 C 4.277344 23.894531 4.414062 23.6875 4.53125 23.40625 C 4.789062 22.785156 5.917969 21.300781 6.066406 21.390625 C 6.128906 21.425781 6.140625 21.410156 6.097656 21.339844 C 6.011719 21.207031 6.40625 20.777344 6.542969 20.855469 C 6.597656 20.886719 6.613281 20.871094 6.578125 20.820312 C 6.484375 20.671875 8.210938 19.144531 9.242188 18.464844 C 9.421875 18.347656 9.589844 18.226562 9.617188 18.199219 C 9.792969 18 10.21875 17.761719 10.308594 17.808594 C 10.367188 17.839844 10.382812 17.832031 10.34375 17.792969 C 10.265625 17.710938 11.328125 16.9375 11.90625 16.65625 C 12.230469 16.5 12.265625 16.496094 12.210938 16.628906 C 12.179688 16.710938 12.125 16.875 12.09375 16.996094 C 12.0625 17.113281 12.011719 17.195312 11.976562 17.175781 C 11.945312 17.15625 11.914062 17.226562 11.90625 17.332031 C 11.902344 17.4375 11.832031 17.886719 11.75 18.332031 C 11.5 19.683594 11.667969 21.332031 12.214844 22.941406 C 12.4375 23.589844 12.957031 24.667969 13.554688 25.71875 C 13.707031 25.988281 13.804688 26.246094 13.777344 26.292969 C 13.746094 26.339844 13.765625 26.351562 13.824219 26.320312 C 13.878906 26.285156 14.042969 26.40625 14.1875 26.597656 C 14.332031 26.78125 14.628906 27.140625 14.851562 27.390625 C 15.070312 27.640625 15.226562 27.867188 15.199219 27.894531 C 15.171875 27.921875 15.199219 27.976562 15.261719 28.015625 C 15.335938 28.058594 15.351562 28.042969 15.308594 27.976562 C 15.210938 27.824219 15.398438 27.851562 15.535156 28.007812 C 15.597656 28.082031 15.683594 28.144531 15.71875 28.144531 C 15.757812 28.144531 15.96875 27.761719 16.191406 27.292969 Z M 28.03125 26.351562 C 28.03125 26.300781 27.984375 26.261719 27.929688 26.261719 C 27.875 26.261719 27.859375 26.300781 27.890625 26.351562 C 27.921875 26.402344 27.964844 26.441406 27.988281 26.441406 C 28.011719 26.441406 28.03125 26.402344 28.03125 26.351562 Z M 4.203125 26.1875 C 4.230469 26.144531 4.191406 26.113281 4.121094 26.113281 C 4.046875 26.113281 4.007812 26.144531 4.035156 26.1875 C 4.0625 26.226562 4.101562 26.261719 4.121094 26.261719 C 4.140625 26.261719 4.175781 26.226562 4.203125 26.1875 Z M 4.761719 24.710938 C 5.285156 23.476562 6.378906 22.046875 7.582031 21.039062 C 7.945312 20.730469 8.480469 20.28125 8.769531 20.035156 C 9.058594 19.789062 9.523438 19.40625 9.808594 19.183594 C 10.605469 18.558594 11.046875 18.121094 10.980469 18.023438 C 10.929688 17.945312 10.671875 18.105469 9.851562 18.714844 C 9.800781 18.753906 9.503906 18.964844 9.191406 19.183594 C 8.882812 19.402344 8.375 19.8125 8.066406 20.089844 C 7.757812 20.367188 7.355469 20.710938 7.175781 20.851562 C 6.664062 21.25 5.847656 22.109375 5.449219 22.664062 C 5.25 22.941406 5.058594 23.164062 5.027344 23.15625 C 4.992188 23.148438 4.960938 23.226562 4.953125 23.335938 C 4.945312 23.441406 4.835938 23.789062 4.707031 24.109375 C 4.507812 24.609375 4.277344 25.648438 4.390625 25.539062 C 4.414062 25.515625 4.578125 25.144531 4.761719 24.710938 Z M 27.601562 25.34375 C 27.566406 24.683594 26.933594 23.320312 26.316406 22.566406 C 26.164062 22.378906 26.0625 22.230469 26.09375 22.230469 C 26.121094 22.230469 25.816406 21.902344 25.417969 21.5 C 25.019531 21.097656 24.707031 20.738281 24.71875 20.695312 C 24.730469 20.65625 24.675781 20.644531 24.601562 20.671875 C 24.472656 20.71875 24.414062 20.613281 24.453125 20.40625 C 24.457031 20.367188 24.417969 20.363281 24.359375 20.394531 C 24.304688 20.429688 24.121094 20.339844 23.957031 20.191406 C 23.660156 19.925781 22.6875 19.207031 22.160156 18.863281 C 22.003906 18.761719 21.664062 18.535156 21.398438 18.359375 C 21.136719 18.183594 20.792969 17.972656 20.632812 17.894531 L 20.339844 17.75 L 20.578125 18.15625 C 20.710938 18.378906 21.007812 18.710938 21.246094 18.894531 C 21.480469 19.078125 21.855469 19.390625 22.078125 19.59375 C 22.300781 19.796875 22.5 19.949219 22.515625 19.929688 C 22.535156 19.914062 22.839844 20.140625 23.199219 20.4375 C 23.558594 20.730469 23.882812 20.972656 23.925781 20.972656 C 23.96875 20.972656 23.972656 21.019531 23.933594 21.078125 C 23.894531 21.136719 23.910156 21.15625 23.964844 21.125 C 24.09375 21.046875 25.929688 22.859375 26.417969 23.550781 C 26.640625 23.859375 26.789062 24.160156 26.753906 24.214844 C 26.714844 24.273438 26.726562 24.292969 26.785156 24.257812 C 26.878906 24.203125 27.464844 25.234375 27.464844 25.449219 C 27.464844 25.5 27.5 25.542969 27.539062 25.542969 C 27.582031 25.542969 27.609375 25.453125 27.601562 25.34375 Z M 10.601562 19.363281 C 10.570312 19.3125 10.496094 19.273438 10.433594 19.273438 C 10.367188 19.273438 10.378906 19.308594 10.460938 19.363281 C 10.640625 19.472656 10.675781 19.472656 10.601562 19.363281 Z M 29.355469 15.933594 C 29.082031 15.488281 28.351562 14.808594 28.195312 14.859375 C 28.15625 14.871094 28.125 14.839844 28.125 14.792969 C 28.125 14.742188 27.890625 14.578125 27.609375 14.425781 C 27.324219 14.273438 27.089844 14.117188 27.089844 14.078125 C 27.089844 14.039062 27.015625 14.007812 26.925781 14.007812 C 26.566406 14.011719 26.425781 13.980469 26.464844 13.917969 C 26.488281 13.882812 26.398438 13.855469 26.261719 13.855469 C 26.121094 13.859375 25.746094 13.839844 25.421875 13.808594 C 25.097656 13.777344 24.789062 13.777344 24.738281 13.808594 C 24.59375 13.894531 25.132812 14.222656 25.519531 14.285156 C 25.710938 14.316406 26.015625 14.367188 26.199219 14.398438 C 26.390625 14.429688 26.5 14.492188 26.464844 14.546875 C 26.429688 14.597656 26.445312 14.613281 26.496094 14.585938 C 26.6875 14.472656 27.296875 14.722656 27.820312 15.125 C 28.542969 15.679688 29.410156 16.535156 29.503906 16.785156 C 29.570312 16.96875 29.582031 16.960938 29.609375 16.695312 C 29.628906 16.492188 29.550781 16.257812 29.355469 15.933594 Z M 2.671875 16.335938 C 2.820312 16.113281 2.914062 15.890625 2.882812 15.839844 C 2.847656 15.789062 2.867188 15.777344 2.925781 15.808594 C 2.984375 15.84375 3.210938 15.691406 3.433594 15.472656 C 4.023438 14.886719 4.78125 14.488281 5.636719 14.308594 C 6.042969 14.226562 6.597656 14.046875 6.875 13.914062 C 7.320312 13.695312 7.351562 13.664062 7.15625 13.613281 C 7.035156 13.582031 6.738281 13.550781 6.496094 13.546875 C 5.699219 13.53125 4.136719 14.023438 3.875 14.371094 C 3.84375 14.414062 3.78125 14.457031 3.734375 14.464844 C 3.6875 14.472656 3.660156 14.511719 3.675781 14.550781 C 3.691406 14.59375 3.660156 14.601562 3.605469 14.570312 C 3.492188 14.503906 2.699219 15.261719 2.613281 15.515625 C 2.582031 15.613281 2.519531 15.667969 2.476562 15.644531 C 2.433594 15.617188 2.417969 15.667969 2.441406 15.757812 C 2.46875 15.84375 2.421875 16.035156 2.339844 16.183594 C 2.171875 16.492188 2.144531 16.894531 2.296875 16.800781 C 2.355469 16.769531 2.523438 16.558594 2.671875 16.335938 Z M 18.070312 14.925781 C 19.007812 14.664062 19.972656 14.210938 20.269531 13.890625 C 20.617188 13.519531 20.578125 13.503906 20.074219 13.808594 C 19.832031 13.953125 19.582031 14.074219 19.519531 14.074219 C 19.460938 14.074219 19.363281 14.128906 19.304688 14.195312 C 19.210938 14.304688 18.304688 14.558594 17.976562 14.5625 C 17.898438 14.566406 17.792969 14.59375 17.742188 14.625 C 17.515625 14.765625 15.679688 14.855469 15.160156 14.753906 C 13.949219 14.515625 13.453125 14.367188 12.683594 13.996094 C 12.023438 13.679688 11.8125 13.609375 11.878906 13.734375 C 12.085938 14.097656 13.167969 14.621094 14.324219 14.917969 C 15.496094 15.21875 17.011719 15.222656 18.070312 14.925781 Z M 17.132812 13.921875 C 17.210938 13.894531 17.359375 13.859375 17.46875 13.847656 C 17.878906 13.792969 18.507812 13.597656 18.929688 13.398438 C 19.46875 13.136719 20.664062 12.222656 20.992188 11.816406 C 21.257812 11.496094 21.554688 10.980469 21.542969 10.871094 C 21.539062 10.835938 21.585938 10.632812 21.648438 10.425781 C 21.707031 10.21875 21.738281 9.945312 21.714844 9.824219 C 21.6875 9.699219 21.703125 9.621094 21.75 9.648438 C 21.925781 9.753906 21.824219 8.511719 21.597656 7.828125 C 21.308594 6.957031 20.984375 6.464844 20.257812 5.8125 C 19.945312 5.53125 19.71875 5.273438 19.75 5.238281 C 19.78125 5.203125 19.757812 5.203125 19.691406 5.238281 C 19.625 5.273438 19.457031 5.226562 19.316406 5.132812 C 19.175781 5.039062 18.980469 4.9375 18.886719 4.90625 C 18.789062 4.871094 18.746094 4.800781 18.785156 4.742188 C 18.828125 4.679688 18.8125 4.664062 18.746094 4.699219 C 18.6875 4.734375 18.554688 4.71875 18.449219 4.667969 C 18.3125 4.597656 18.257812 4.597656 18.257812 4.671875 C 18.257812 4.726562 18.207031 4.75 18.140625 4.730469 C 18.078125 4.707031 18.035156 4.644531 18.046875 4.589844 C 18.058594 4.535156 18.007812 4.515625 17.9375 4.542969 C 17.851562 4.574219 17.699219 4.453125 17.53125 4.230469 C 17.269531 3.890625 17.246094 3.878906 17.03125 4 C 16.492188 4.296875 16.203125 4.386719 15.945312 4.339844 C 15.542969 4.265625 15.507812 4.257812 15.273438 4.183594 C 15.121094 4.132812 15.015625 4.160156 14.898438 4.28125 C 14.808594 4.371094 14.769531 4.40625 14.808594 4.359375 C 14.84375 4.3125 14.878906 4.230469 14.878906 4.183594 C 14.878906 4.132812 14.820312 4.171875 14.746094 4.265625 C 14.675781 4.359375 14.640625 4.492188 14.667969 4.566406 C 14.707031 4.660156 14.675781 4.679688 14.558594 4.636719 C 14.464844 4.601562 14.421875 4.613281 14.457031 4.667969 C 14.488281 4.714844 14.476562 4.757812 14.4375 4.761719 C 14.394531 4.765625 14.28125 4.785156 14.1875 4.800781 C 14.035156 4.828125 14.039062 4.804688 14.230469 4.609375 L 14.449219 4.390625 L 13.886719 4.632812 C 12.410156 5.273438 11.464844 6.082031 10.886719 7.203125 C 10.4375 8.066406 10.425781 8.128906 10.417969 9.371094 C 10.414062 10.363281 10.433594 10.484375 10.675781 10.980469 C 11.003906 11.644531 11.382812 12.125 11.515625 12.046875 C 11.574219 12.011719 11.589844 12.027344 11.554688 12.085938 C 11.484375 12.191406 12.792969 13.277344 13.050781 13.332031 C 13.101562 13.339844 13.390625 13.433594 13.703125 13.539062 C 14.808594 13.917969 16.601562 14.117188 17.132812 13.921875 Z M 17.039062 13.246094 C 17.0625 13.21875 17.234375 13.175781 17.414062 13.152344 C 18.132812 13.054688 19.023438 12.546875 19.84375 11.757812 C 20.433594 11.191406 20.820312 10.441406 20.972656 9.566406 C 21.019531 9.3125 21.0625 9.207031 21.066406 9.339844 C 21.085938 9.773438 20.804688 10.945312 20.570312 11.417969 C 20.199219 12.15625 19.589844 12.660156 18.664062 12.996094 C 18.230469 13.152344 16.933594 13.351562 17.039062 13.246094 Z M 15.582031 5.273438 C 15.425781 5.21875 15.269531 5.132812 15.230469 5.078125 C 15.1875 5.011719 15.160156 5.023438 15.160156 5.109375 C 15.160156 5.21875 15.132812 5.21875 15.007812 5.097656 C 14.777344 4.875 14.933594 4.726562 15.210938 4.902344 C 15.335938 4.980469 15.441406 5.011719 15.441406 4.972656 C 15.441406 4.933594 15.507812 4.980469 15.589844 5.074219 C 15.671875 5.171875 15.710938 5.199219 15.675781 5.136719 C 15.632812 5.054688 15.734375 5.023438 16.039062 5.023438 C 16.273438 5.023438 16.566406 4.988281 16.695312 4.941406 C 16.863281 4.878906 16.972656 4.890625 17.097656 4.992188 C 17.265625 5.121094 17.261719 5.125 17.0625 5.085938 C 16.945312 5.058594 16.871094 5.074219 16.898438 5.117188 C 16.925781 5.15625 16.90625 5.214844 16.851562 5.246094 C 16.800781 5.277344 16.753906 5.25 16.753906 5.1875 C 16.75 5.113281 16.714844 5.128906 16.65625 5.226562 C 16.546875 5.40625 16.035156 5.425781 15.582031 5.273438 Z M 17.09375 4.859375 C 17.066406 4.820312 17.109375 4.785156 17.183594 4.785156 C 17.257812 4.785156 17.320312 4.820312 17.320312 4.859375 C 17.320312 4.902344 17.28125 4.933594 17.230469 4.933594 C 17.183594 4.933594 17.121094 4.902344 17.09375 4.859375 Z M 17.09375 4.859375 "/>
</g>
</svg>
