<svg xmlns="http://www.w3.org/2000/svg" xml:space="preserve" width="128" height="128" viewBox="0 0 33.867 33.867"><path d="M8.48 30.246c-.001-.157 1.638-.597 2.712-.728.7-.085.905-.178.905-.41 0-.166.171-1.057.38-1.982.21-.925.381-2.072.381-2.55v-.869l-1.043-.286c-2.24-.614-3.332-1.808-3.734-4.082-.372-2.101-.134-4.593.633-6.627.361-.956.885-2.387 1.165-3.178.9-2.547 3.242-5.141 5.48-6.07 2.22-.923 3.606-1.016 5.139-.346.965.423 1.633 1.168 2.506 2.802 1.075 2.01 1.215 2.41 1.563 4.465.17 1.012.612 2.75.98 3.864.832 2.521 1.054 4.997.576 6.427-.426 1.274-1.36 2.162-2.886 2.74l-1.245.472.05 2.771.05 2.771.762.102c.994.133 2.539.563 2.666.742.055.078-1.486.142-3.425.143s-3.525-.025-3.525-.059.472-.248 1.048-.477l1.047-.417v-2.568c0-1.412-.065-2.6-.143-2.639-.079-.04-1.485-.125-3.126-.189l-2.983-.117-.124.966a26 26 0 0 1-.394 2.126c-.148.638-.292 1.45-.32 1.805-.048.61-.004.667.793 1.037.463.216.883.427.933.47.049.044-1.465.061-3.366.04-1.9-.021-3.456-.088-3.456-.15m14.23-7.741c1.22-.476 2.267-1.444 2.444-2.263.26-1.204-.038-3.404-.752-5.567-.381-1.153-.856-3.038-1.055-4.19-.2-1.151-.444-2.183-.543-2.294-.1-.11-.42-.76-.714-1.443C21.05 4.326 20.14 3.6 18.14 3.6c-1.414 0-2.713.711-4.39 2.402-1.584 1.596-2.195 2.608-2.965 4.907-.32.959-.794 2.23-1.051 2.824-.621 1.436-.749 2.641-.527 4.981.212 2.24.503 2.832 1.662 3.388 1.41.677 3.097.873 7.13.83 3.43-.036 3.79-.069 4.71-.427m-7.08-.888c.231-.65.667-1.298.933-1.387.358-.12 1.76.68 1.91 1.09.203.559-.053.67-1.545.67-1.395 0-1.427-.009-1.298-.373m-4.495-.249c-.493-.383-.627-.632-.698-1.293-.187-1.752.784-2.376 1.484-.953.42.85.45 2.542.048 2.657-.123.035-.498-.15-.834-.41m8.868-.032c-.368-.62-.367-.646.098-1.727.596-1.387 1.382-1.406 1.618-.037.3 1.735-.962 3.032-1.716 1.764m-6.31-.537c-.227-.319-.318-2.651-.13-3.282.138-.46.28-.59.69-.633.438-.044.562.04.806.548.52 1.081.535 1.51.086 2.319-.629 1.129-1.135 1.495-1.452 1.048m9.596-.228c-.058-.085-.168-.776-.244-1.536-.115-1.148-.08-1.492.2-2.035.186-.359.43-.626.54-.594.244.07.593 1.066.771 2.198.122.77.09.863-.515 1.472-.355.357-.693.58-.752.495m-5.244-1.064c-.782-.634-1.067-2.564-.516-3.491.277-.466.318-.479.81-.264.284.125.756.277 1.047.338.619.13.957.74.776 1.397-.099.358-.98 1.594-1.588 2.226-.066.069-.304-.024-.529-.206m-7.09-2.446c-.366-.037-.767-.141-.89-.23-.257-.186-.145-1.098.235-1.915.288-.62 1.452-2.204 1.62-2.204.547 0 .747 2.577.289 3.722-.289.722-.297.726-1.254.627m10.54-.29c-.33-.75.504-3.12 1.066-3.027.41.067.493 1.579.128 2.337-.337.702-1.016 1.094-1.194.69m-6.896-1.386c-.545-.443-.699-.822-.612-1.513.047-.38.626-1.988.716-1.988.043 0 .315.107.605.237 1.131.509 1.475 2.252.638 3.228-.498.58-.672.584-1.347.036m4.615-.542c-.617-.266-1.215-1.328-1.213-2.153.002-.72.708-2.313 1.125-2.537.274-.148.688.724.862 1.814.073.455.346 1.113.607 1.461.377.504.439.723.304 1.077-.188.495-.961.65-1.685.338m2.54-2.586c-.43-.415-.824-3.11-.544-3.728.47-1.034 1.112-.186 1.409 1.858.152 1.047.16 1.6.024 1.786-.287.396-.539.42-.888.084m-9.598-1.605c.122-1.141.652-2.347 1.227-2.794.373-.29.396-.286.805.165.534.589.457 1.648-.205 2.806-.426.745-.51.804-1.197.82l-.739.017zm3.855.367c-.607-.754-.22-2.252.753-2.918.791-.541 1.353-.473 1.606.195.116.305.144.707.062.893-.24.553-1.652 2.181-1.898 2.19-.125.004-.36-.158-.523-.36m3.418-3.153c-.653-1.415-.251-3.533.56-2.948.325.236.866 1.665.866 2.29 0 .484-.566 1.363-.877 1.363-.123 0-.37-.317-.549-.705m-4.159-.234c-.488-.425.26-2.04 1.271-2.744.576-.401.835-.364 1.15.165.376.633.045 1.27-1.076 2.069-.875.624-1.111.713-1.345.51m-.316 21.275c.001-.6.38-1.615.601-1.615.12 0 .155.154.086.372a11 11 0 0 0-.237.994c-.13.675-.452.853-.45.249m4.342-.21c-.06-.053-.036-.372.054-.71s.165-.855.168-1.151c.002-.296.102-.538.221-.538.15 0 .185.305.115.978-.101.974-.349 1.603-.558 1.42m-1.868-1.966c0-.227.086-.46.19-.516.108-.058.19.078.19.312 0 .227-.085.46-.19.516-.107.058-.19-.078-.19-.312" style="fill:#626262;fill-opacity:1"/></svg>