<?xml version="1.0" encoding="UTF-8"?>
<svg xmlns="http://www.w3.org/2000/svg" xmlns:xlink="http://www.w3.org/1999/xlink" width="32px" height="32px" viewBox="0 0 32 32" version="1.1">
<g id="surface1">
<path style=" stroke:none;fill-rule:nonzero;fill:rgb(38.431373%,38.431373%,38.431373%);fill-opacity:1;" d="M 15.09375 30.398438 C 14.804688 30.363281 14.421875 30.273438 14.242188 30.199219 C 14.03125 30.113281 13.480469 30.046875 12.667969 30.011719 C 11.976562 29.980469 11.398438 29.9375 11.378906 29.917969 C 11.3125 29.847656 11.734375 29.710938 12.488281 29.5625 C 12.898438 29.480469 13.230469 29.382812 13.230469 29.347656 C 13.230469 29.3125 13.160156 29.210938 13.074219 29.128906 C 12.761719 28.816406 12.554688 28.105469 12.519531 27.21875 C 12.492188 26.546875 12.527344 26.152344 12.699219 25.269531 C 13.222656 22.558594 13.449219 20.691406 13.492188 18.773438 L 13.511719 17.894531 L 12.988281 17.75 C 12.339844 17.574219 12.121094 17.425781 12.019531 17.105469 C 11.945312 16.875 11.976562 16.808594 12.449219 16.246094 C 13.183594 15.375 13.261719 15.160156 13.265625 13.96875 C 13.269531 13.417969 13.234375 12.9375 13.1875 12.890625 C 13.144531 12.839844 12.398438 12.738281 11.527344 12.660156 C 8.222656 12.363281 6.324219 11.925781 4.734375 11.097656 C 2.867188 10.121094 2.625 8.777344 4.011719 7.15625 C 4.925781 6.089844 6 5.441406 8.527344 4.421875 C 9.351562 4.085938 10.714844 3.441406 11.554688 2.988281 C 13.539062 1.914062 14.230469 1.660156 15.382812 1.585938 C 17.050781 1.480469 18.03125 1.757812 20.285156 2.976562 C 21.070312 3.398438 22.234375 3.953125 22.878906 4.207031 C 24.347656 4.789062 26.183594 5.738281 26.875 6.277344 C 27.996094 7.148438 28.878906 8.535156 28.875 9.417969 C 28.871094 9.957031 28.644531 10.480469 28.257812 10.832031 C 27.800781 11.25 26.746094 11.785156 25.957031 12 C 24.832031 12.304688 22.28125 12.613281 19.691406 12.753906 C 19.078125 12.789062 18.554688 12.851562 18.53125 12.894531 C 18.507812 12.9375 18.488281 13.347656 18.488281 13.804688 C 18.492188 15.074219 18.660156 15.5625 19.445312 16.53125 C 19.984375 17.195312 19.652344 17.683594 18.570312 17.804688 L 18.070312 17.863281 L 18.117188 19.6875 C 18.171875 21.582031 18.253906 22.351562 18.671875 24.871094 C 19.046875 27.113281 18.953125 28.285156 18.339844 29.136719 C 18.128906 29.429688 18.1875 29.519531 18.589844 29.519531 C 18.976562 29.519531 20.132812 29.769531 20.230469 29.871094 C 20.316406 29.960938 19.785156 30.027344 18.378906 30.097656 C 17.796875 30.125 17.140625 30.203125 16.917969 30.269531 C 16.378906 30.429688 15.734375 30.472656 15.09375 30.398438 Z M 16.964844 29.527344 C 17.792969 29.183594 18.242188 28.421875 18.3125 27.230469 C 18.339844 26.753906 18.289062 26.113281 18.136719 25.050781 C 17.730469 22.226562 17.695312 21.949219 17.613281 20.890625 C 17.566406 20.304688 17.527344 19.324219 17.527344 18.710938 C 17.527344 17.855469 17.5 17.566406 17.410156 17.488281 C 17.199219 17.296875 16.722656 17.273438 16.238281 17.433594 C 15.796875 17.578125 15.734375 17.582031 15.316406 17.449219 C 14.855469 17.300781 14.316406 17.261719 14.085938 17.359375 C 13.984375 17.402344 13.960938 17.558594 13.957031 18.132812 C 13.957031 19.964844 13.65625 22.691406 13.21875 24.871094 C 13.09375 25.492188 13.039062 26.074219 13.035156 26.820312 C 13.027344 27.753906 13.050781 27.929688 13.210938 28.292969 C 13.550781 29.046875 14.105469 29.539062 14.796875 29.699219 C 15.347656 29.824219 16.457031 29.738281 16.964844 29.527344 Z M 17.121094 28.929688 C 17.121094 28.875 17.171875 28.785156 17.234375 28.730469 C 17.296875 28.675781 17.425781 28.429688 17.519531 28.1875 C 17.613281 27.945312 17.707031 27.75 17.71875 27.75 C 17.734375 27.75 17.71875 27.914062 17.6875 28.113281 C 17.628906 28.449219 17.121094 29.183594 17.121094 28.929688 Z M 16.667969 28.074219 C 16.695312 27.988281 16.753906 27.652344 16.800781 27.328125 C 16.847656 27 16.90625 26.714844 16.933594 26.6875 C 17.039062 26.582031 16.882812 27.742188 16.761719 27.980469 C 16.683594 28.121094 16.644531 28.164062 16.667969 28.074219 Z M 17.535156 26.792969 C 17.570312 26.515625 17.582031 26.03125 17.5625 25.714844 C 17.539062 25.324219 17.550781 25.179688 17.601562 25.269531 C 17.746094 25.507812 17.789062 26.308594 17.6875 26.773438 C 17.554688 27.390625 17.460938 27.402344 17.535156 26.792969 Z M 13.570312 26.332031 C 13.570312 25.96875 13.597656 25.570312 13.632812 25.449219 C 13.664062 25.324219 13.675781 25.585938 13.65625 26.023438 C 13.613281 27.035156 13.566406 27.195312 13.570312 26.332031 Z M 18.796875 16.917969 L 19.132812 16.910156 L 18.875 16.597656 C 18.734375 16.425781 18.527344 16.128906 18.421875 15.933594 C 18.3125 15.738281 18.203125 15.558594 18.179688 15.535156 C 18.101562 15.457031 18.074219 15.167969 18.035156 14.03125 C 17.992188 12.753906 18.089844 12.085938 18.417969 11.378906 C 18.949219 10.238281 19.453125 9.753906 21.476562 8.445312 C 22.113281 8.035156 22.632812 7.675781 22.632812 7.644531 C 22.632812 7.613281 22.46875 7.5625 22.269531 7.527344 C 21.917969 7.472656 21.878906 7.488281 21.039062 8.113281 C 19.941406 8.929688 18.554688 10.40625 18.140625 11.199219 C 17.765625 11.910156 17.808594 11.53125 18.195312 10.667969 C 18.53125 9.929688 19.5625 8.785156 20.585938 8.027344 C 21 7.722656 21.335938 7.4375 21.335938 7.398438 C 21.335938 7.355469 21.167969 7.296875 20.960938 7.261719 L 20.582031 7.199219 L 19.777344 8.070312 C 18.621094 9.324219 17.921875 10.375 17.46875 11.539062 L 17.277344 12.039062 L 17.328125 11.640625 C 17.472656 10.585938 18.226562 9.269531 19.414062 8 C 20.265625 7.09375 20.277344 7.039062 19.640625 7.039062 C 19.367188 7.039062 19.300781 7.089844 18.933594 7.589844 C 18.296875 8.460938 17.898438 9.136719 17.460938 10.089844 C 17.238281 10.578125 17.039062 11.035156 17.015625 11.109375 C 16.984375 11.203125 16.96875 11.1875 16.96875 11.066406 C 16.949219 10.4375 17.796875 8.5625 18.558594 7.542969 C 18.75 7.289062 18.90625 7.054688 18.90625 7.015625 C 18.90625 6.980469 18.75 6.949219 18.558594 6.949219 C 18.257812 6.949219 18.195312 6.984375 18.0625 7.238281 C 17.265625 8.734375 16.988281 9.496094 16.671875 11.066406 L 16.476562 12.039062 L 16.523438 11.285156 C 16.574219 10.480469 16.789062 9.28125 17 8.632812 C 17.070312 8.414062 17.269531 7.945312 17.449219 7.585938 C 17.625 7.226562 17.769531 6.917969 17.769531 6.898438 C 17.769531 6.878906 17.605469 6.859375 17.40625 6.859375 C 17.050781 6.859375 17.042969 6.867188 16.953125 7.238281 C 16.902344 7.445312 16.773438 8.089844 16.667969 8.675781 L 16.472656 9.738281 L 16.511719 8.628906 C 16.53125 8.023438 16.574219 7.375 16.601562 7.191406 C 16.652344 6.882812 16.640625 6.859375 16.457031 6.859375 L 16.253906 6.859375 L 16.152344 8.742188 C 16.097656 9.777344 16.023438 10.882812 15.988281 11.199219 C 15.914062 11.902344 15.910156 11.855469 15.867188 8.941406 C 15.851562 7.820312 15.832031 6.878906 15.832031 6.847656 C 15.828125 6.816406 15.753906 6.808594 15.667969 6.832031 C 15.519531 6.875 15.515625 6.953125 15.550781 8.394531 C 15.578125 9.371094 15.5625 9.867188 15.515625 9.78125 C 15.472656 9.707031 15.417969 9.488281 15.390625 9.292969 C 15.207031 7.875 15.066406 6.980469 15.011719 6.917969 C 14.933594 6.824219 14.472656 6.785156 14.359375 6.863281 C 14.304688 6.898438 14.378906 7.175781 14.558594 7.621094 C 14.898438 8.472656 15.234375 9.855469 15.335938 10.847656 C 15.378906 11.253906 15.402344 11.597656 15.390625 11.613281 C 15.378906 11.625 15.246094 11.152344 15.097656 10.554688 C 14.820312 9.445312 14.484375 8.5 14.011719 7.480469 L 13.742188 6.90625 L 13.203125 6.878906 C 12.628906 6.851562 12.558594 6.90625 12.832031 7.179688 C 13.148438 7.488281 13.957031 8.785156 14.191406 9.355469 C 14.449219 9.984375 14.664062 10.835938 14.730469 11.507812 C 14.773438 11.929688 14.765625 11.917969 14.585938 11.285156 C 14.273438 10.195312 13.546875 8.761719 12.820312 7.800781 L 12.167969 6.941406 L 11.683594 6.960938 C 11.414062 6.96875 11.179688 7.007812 11.160156 7.042969 C 11.140625 7.078125 11.324219 7.269531 11.570312 7.472656 C 12.707031 8.414062 13.6875 9.703125 14.039062 10.722656 C 14.292969 11.464844 14.242188 11.65625 13.949219 11.054688 C 13.433594 9.992188 12.609375 8.910156 11.429688 7.746094 C 10.738281 7.066406 10.722656 7.054688 10.378906 7.101562 C 10.183594 7.128906 9.980469 7.175781 9.925781 7.207031 C 9.859375 7.246094 10.226562 7.566406 10.898438 8.058594 C 12.636719 9.332031 13.53125 10.417969 13.75 11.507812 C 13.789062 11.691406 13.703125 11.582031 13.472656 11.152344 C 13.289062 10.8125 13.003906 10.382812 12.839844 10.195312 C 12.441406 9.746094 11.746094 9.164062 11.558594 9.121094 C 11.117188 9.027344 8.714844 7.84375 8.410156 7.574219 C 8.328125 7.5 7.496094 7.601562 7.414062 7.695312 C 7.347656 7.765625 8.5 8.328125 9.902344 8.914062 C 11.535156 9.59375 12.035156 9.890625 12.605469 10.503906 C 13.480469 11.453125 13.855469 12.878906 13.652344 14.519531 C 13.546875 15.375 13.355469 15.839844 12.859375 16.414062 L 12.507812 16.828125 L 13.109375 16.84375 C 13.632812 16.855469 13.738281 16.832031 13.878906 16.664062 C 13.96875 16.5625 14.039062 16.445312 14.039062 16.40625 C 14.039062 16.367188 14.109375 16.210938 14.191406 16.0625 L 14.347656 15.785156 L 14.308594 16.167969 L 14.265625 16.550781 L 14.621094 16.65625 C 14.8125 16.710938 15.128906 16.808594 15.316406 16.871094 C 15.601562 16.96875 15.726562 16.964844 16.046875 16.863281 C 16.257812 16.796875 16.605469 16.726562 16.816406 16.707031 C 17.027344 16.683594 17.199219 16.640625 17.199219 16.609375 C 17.199219 16.578125 17.144531 16.316406 17.082031 16.023438 C 16.957031 15.460938 16.980469 15.257812 17.121094 15.675781 C 17.320312 16.285156 17.488281 16.65625 17.644531 16.847656 C 17.789062 17.027344 17.855469 17.046875 18.132812 16.988281 C 18.3125 16.953125 18.609375 16.921875 18.796875 16.917969 Z M 12.976562 12.046875 C 12.886719 11.832031 12.882812 11.832031 12.601562 11.976562 C 12.332031 12.121094 12.328125 12.125 12.511719 12.183594 C 12.617188 12.214844 12.785156 12.246094 12.882812 12.25 C 13.046875 12.257812 13.054688 12.238281 12.976562 12.046875 Z M 20.226562 12.171875 C 20.496094 12.171875 20.339844 12.089844 19.714844 11.898438 C 19.097656 11.714844 18.90625 11.722656 18.90625 11.941406 C 18.90625 12.128906 19.296875 12.261719 19.707031 12.214844 C 19.902344 12.191406 20.136719 12.171875 20.226562 12.171875 Z M 12.234375 11.886719 C 12.730469 11.632812 12.707031 11.652344 12.601562 11.539062 C 12.535156 11.464844 12.347656 11.503906 11.898438 11.683594 C 11.558594 11.820312 11.285156 11.964844 11.285156 12.007812 C 11.285156 12.152344 11.851562 12.082031 12.234375 11.886719 Z M 22.390625 12.003906 C 23.152344 11.972656 22.863281 11.875 21.058594 11.554688 C 19.734375 11.320312 19.507812 11.300781 19.40625 11.40625 C 19.308594 11.515625 19.414062 11.5625 20.171875 11.757812 C 21.300781 12.046875 21.332031 12.050781 21.621094 12.039062 C 21.753906 12.03125 22.101562 12.015625 22.390625 12.003906 Z M 11.359375 11.632812 C 11.785156 11.476562 12.171875 11.316406 12.210938 11.273438 C 12.332031 11.152344 11.695312 11.183594 11.199219 11.320312 C 10.957031 11.386719 10.390625 11.535156 9.945312 11.648438 C 9.164062 11.847656 9.148438 11.855469 9.460938 11.917969 C 9.972656 12.015625 10.519531 11.933594 11.359375 11.632812 Z M 25.28125 11.605469 C 26.4375 11.386719 26.332031 11.320312 24.726562 11.253906 C 23.910156 11.21875 23.132812 11.171875 23 11.152344 C 22.378906 11.058594 20.46875 11.007812 20.289062 11.085938 C 20.132812 11.152344 20.257812 11.191406 20.9375 11.277344 C 21.402344 11.339844 22.128906 11.460938 22.550781 11.542969 C 23.550781 11.746094 24.457031 11.765625 25.28125 11.605469 Z M 10.113281 11.332031 C 10.800781 11.160156 11.457031 11.019531 11.570312 11.019531 C 11.707031 11.019531 11.761719 10.984375 11.722656 10.921875 C 11.648438 10.785156 10.132812 10.875 9.378906 11.058594 C 9.066406 11.136719 8.464844 11.222656 8.042969 11.25 C 7.070312 11.3125 6.933594 11.367188 7.351562 11.511719 C 7.941406 11.71875 8.773438 11.664062 10.113281 11.332031 Z M 9.132812 10.890625 C 9.578125 10.808594 9.960938 10.726562 9.980469 10.703125 C 10 10.683594 9.03125 10.675781 7.832031 10.6875 C 6.632812 10.699219 5.503906 10.679688 5.324219 10.636719 C 4.902344 10.542969 5.03125 10.695312 5.574219 10.9375 C 5.929688 11.09375 6.113281 11.109375 7.148438 11.074219 C 7.796875 11.054688 8.6875 10.96875 9.132812 10.890625 Z M 20.03125 10.273438 C 20.386719 10.074219 20.808594 9.925781 22.550781 9.371094 C 22.976562 9.238281 23.582031 9 23.898438 8.847656 C 24.210938 8.691406 24.605469 8.515625 24.769531 8.457031 C 24.933594 8.398438 25.066406 8.320312 25.066406 8.277344 C 25.066406 8.238281 24.886719 8.160156 24.667969 8.101562 C 24.285156 8 24.253906 8.007812 23.636719 8.347656 C 23.285156 8.539062 22.414062 8.921875 21.703125 9.199219 C 20.316406 9.734375 19.878906 9.972656 19.375 10.46875 C 18.894531 10.945312 18.824219 11.175781 19.277344 10.796875 C 19.488281 10.621094 19.828125 10.386719 20.03125 10.273438 Z M 27.3125 10.878906 C 27.511719 10.753906 27.652344 10.632812 27.632812 10.605469 C 27.609375 10.582031 27.335938 10.605469 27.023438 10.660156 C 26.710938 10.710938 26.1875 10.75 25.859375 10.746094 L 25.269531 10.734375 L 25.714844 10.65625 C 26.863281 10.457031 27.636719 10.292969 27.734375 10.230469 C 27.878906 10.128906 27.660156 9.632812 27.492188 9.683594 C 27.429688 9.703125 27.082031 9.8125 26.726562 9.929688 C 25.761719 10.246094 25.085938 10.390625 23.648438 10.585938 C 22.933594 10.683594 22.3125 10.773438 22.269531 10.789062 C 22.15625 10.824219 23.328125 10.917969 24.742188 10.988281 C 25.386719 11.019531 25.933594 11.058594 25.949219 11.074219 C 25.96875 11.09375 26.203125 11.109375 26.46875 11.109375 C 26.847656 11.109375 27.035156 11.058594 27.3125 10.878906 Z M 12.328125 10.695312 C 12.09375 10.386719 11.238281 9.863281 10.085938 9.335938 C 8.796875 8.746094 8.265625 8.484375 7.527344 8.089844 C 6.996094 7.804688 6.921875 7.792969 6.460938 7.933594 L 6.136719 8.03125 L 6.746094 8.292969 C 7.078125 8.4375 7.644531 8.671875 8 8.8125 C 9.074219 9.234375 8.265625 9.113281 6.945312 8.652344 C 6.589844 8.53125 6.226562 8.375 6.140625 8.308594 C 6.050781 8.242188 5.914062 8.1875 5.835938 8.1875 C 5.648438 8.1875 5.042969 8.457031 5.042969 8.539062 C 5.042969 8.667969 7.664062 9.402344 8.851562 9.605469 C 10.246094 9.847656 11.480469 10.242188 12.09375 10.652344 C 12.4375 10.882812 12.472656 10.886719 12.328125 10.695312 Z M 20.347656 10.761719 C 20.605469 10.679688 22.09375 10.460938 23.078125 10.359375 C 24.070312 10.257812 24.394531 10.210938 25.144531 10.042969 C 25.882812 9.882812 27.238281 9.472656 27.316406 9.386719 C 27.363281 9.339844 26.839844 8.984375 26.722656 8.984375 C 26.671875 8.984375 26.382812 9.082031 26.070312 9.199219 C 25.300781 9.492188 24.652344 9.648438 23.105469 9.914062 C 21.769531 10.140625 20.53125 10.472656 20.132812 10.707031 C 19.882812 10.855469 19.96875 10.878906 20.347656 10.761719 Z M 11.042969 10.425781 C 11.042969 10.371094 10.269531 10.191406 9.015625 9.949219 C 7.511719 9.660156 6.09375 9.289062 5.199219 8.949219 C 4.730469 8.773438 4.632812 8.761719 4.457031 8.863281 C 4.144531 9.039062 4.113281 9.238281 4.375 9.347656 C 4.714844 9.488281 5.472656 9.664062 6.5 9.84375 L 7.433594 10.003906 L 6.878906 10.027344 C 6.304688 10.054688 5.226562 9.875 4.496094 9.628906 C 4.007812 9.460938 3.902344 9.519531 4.074219 9.851562 C 4.253906 10.199219 4.519531 10.304688 5.417969 10.378906 C 6.101562 10.433594 11.042969 10.480469 11.042969 10.425781 Z M 28.390625 9.46875 C 28.390625 8.804688 27.726562 7.699219 26.878906 6.949219 C 26.066406 6.226562 24.191406 5.234375 22.269531 4.503906 C 21.824219 4.335938 20.746094 3.808594 19.878906 3.332031 C 17.890625 2.25 17.46875 2.125 15.785156 2.128906 C 14.234375 2.128906 13.792969 2.261719 11.769531 3.320312 C 10.945312 3.75 9.613281 4.371094 8.8125 4.695312 C 6.484375 5.644531 5.234375 6.386719 4.339844 7.363281 C 3.828125 7.925781 3.585938 8.425781 3.585938 8.941406 L 3.582031 9.292969 L 3.75 8.992188 C 3.984375 8.578125 4.171875 8.417969 4.921875 8.011719 C 5.976562 7.4375 7.429688 7.046875 9.988281 6.644531 C 12.488281 6.253906 15.109375 6.148438 17.40625 6.34375 C 20.378906 6.597656 22.109375 6.820312 23.078125 7.074219 C 23.167969 7.097656 23.496094 7.183594 23.808594 7.261719 C 26.242188 7.890625 28.027344 8.832031 28.199219 9.582031 C 28.257812 9.832031 28.390625 9.753906 28.390625 9.46875 Z M 24.417969 9.371094 C 25.414062 9.117188 26.28125 8.820312 26.28125 8.730469 C 26.28125 8.695312 26.125 8.609375 25.9375 8.535156 L 25.59375 8.402344 L 24.132812 9.050781 C 22.832031 9.628906 22.722656 9.695312 23.121094 9.644531 C 23.363281 9.613281 23.949219 9.488281 24.417969 9.371094 Z M 21.859375 8.929688 C 22.035156 8.859375 22.578125 8.597656 23.066406 8.34375 C 23.820312 7.953125 23.925781 7.875 23.761719 7.824219 C 23.285156 7.679688 23.097656 7.746094 22.03125 8.453125 C 20.675781 9.351562 20.515625 9.484375 21.09375 9.242188 C 21.339844 9.136719 21.683594 8.996094 21.859375 8.929688 Z M 11.527344 9.039062 C 11.527344 9.023438 11.132812 8.683594 10.648438 8.289062 C 10.164062 7.894531 9.71875 7.511719 9.664062 7.4375 C 9.550781 7.289062 8.8125 7.246094 8.734375 7.386719 C 8.707031 7.429688 9.316406 7.824219 10.085938 8.261719 C 11.695312 9.175781 11.527344 9.082031 11.527344 9.039062 Z M 11.527344 9.039062 "/>
</g>
</svg>
