<?xml version="1.0" encoding="UTF-8"?>
<svg xmlns="http://www.w3.org/2000/svg" xmlns:xlink="http://www.w3.org/1999/xlink" width="64px" height="64px" viewBox="0 0 64 64" version="1.1">
<g id="surface1">
<path style=" stroke:none;fill-rule:nonzero;fill:rgb(38.431373%,38.431373%,38.431373%);fill-opacity:1;" d="M 30.1875 60.792969 C 29.609375 60.722656 28.84375 60.546875 28.484375 60.398438 C 28.066406 60.222656 26.957031 60.09375 25.335938 60.023438 C 23.957031 59.960938 22.796875 59.878906 22.757812 59.835938 C 22.628906 59.695312 23.46875 59.425781 24.980469 59.121094 C 25.792969 58.957031 26.460938 58.765625 26.460938 58.691406 C 26.460938 58.621094 26.320312 58.425781 26.148438 58.257812 C 25.519531 57.632812 25.105469 56.214844 25.035156 54.4375 C 24.984375 53.09375 25.054688 52.308594 25.398438 50.542969 C 26.445312 45.113281 26.902344 41.386719 26.988281 37.546875 L 27.027344 35.789062 L 25.972656 35.5 C 24.683594 35.148438 24.242188 34.855469 24.035156 34.207031 C 23.890625 33.75 23.957031 33.617188 24.898438 32.496094 C 26.371094 30.746094 26.523438 30.320312 26.53125 27.9375 C 26.535156 26.835938 26.46875 25.875 26.378906 25.777344 C 26.289062 25.679688 24.792969 25.476562 23.054688 25.320312 C 16.445312 24.730469 12.648438 23.855469 9.464844 22.191406 C 5.738281 20.246094 5.246094 17.554688 8.027344 14.308594 C 9.847656 12.183594 12 10.882812 17.054688 8.839844 C 18.707031 8.175781 21.429688 6.886719 23.113281 5.976562 C 27.082031 3.828125 28.460938 3.320312 30.765625 3.171875 C 34.101562 2.960938 36.066406 3.515625 40.574219 5.949219 C 42.136719 6.796875 44.472656 7.902344 45.761719 8.414062 C 48.695312 9.574219 52.367188 11.476562 53.75 12.554688 C 55.988281 14.300781 57.753906 17.074219 57.746094 18.835938 C 57.742188 19.914062 57.289062 20.960938 56.515625 21.667969 C 55.601562 22.5 53.488281 23.570312 51.917969 24 C 49.660156 24.609375 44.5625 25.226562 39.382812 25.511719 C 38.15625 25.578125 37.109375 25.703125 37.0625 25.789062 C 37.011719 25.875 36.972656 26.695312 36.976562 27.609375 C 36.980469 30.148438 37.324219 31.125 38.890625 33.0625 C 39.972656 34.394531 39.304688 35.367188 37.144531 35.613281 L 36.136719 35.726562 L 36.238281 39.371094 C 36.339844 43.164062 36.503906 44.707031 37.34375 49.746094 C 38.089844 54.222656 37.910156 56.566406 36.683594 58.269531 C 36.261719 58.855469 36.378906 59.039062 37.175781 59.039062 C 37.949219 59.039062 40.265625 59.535156 40.460938 59.746094 C 40.632812 59.921875 39.566406 60.050781 36.753906 60.191406 C 35.597656 60.25 34.28125 60.40625 33.835938 60.539062 C 32.753906 60.859375 31.46875 60.949219 30.1875 60.792969 Z M 33.925781 59.058594 C 35.589844 58.367188 36.484375 56.839844 36.625 54.457031 C 36.679688 53.503906 36.574219 52.222656 36.269531 50.097656 C 35.460938 44.457031 35.394531 43.902344 35.222656 41.777344 C 35.132812 40.609375 35.054688 38.648438 35.054688 37.417969 C 35.054688 35.710938 35 35.136719 34.824219 34.976562 C 34.398438 34.589844 33.445312 34.546875 32.472656 34.871094 C 31.597656 35.160156 31.472656 35.160156 30.632812 34.894531 C 29.714844 34.601562 28.632812 34.523438 28.175781 34.71875 C 27.972656 34.800781 27.917969 35.117188 27.917969 36.265625 C 27.910156 39.933594 27.3125 45.382812 26.433594 49.746094 C 26.1875 50.984375 26.074219 52.152344 26.066406 53.640625 C 26.054688 55.507812 26.097656 55.863281 26.425781 56.582031 C 27.105469 58.089844 28.214844 59.074219 29.59375 59.394531 C 30.691406 59.652344 32.914062 59.476562 33.925781 59.058594 Z M 34.242188 57.863281 C 34.242188 57.753906 34.34375 57.574219 34.46875 57.460938 C 34.589844 57.347656 34.847656 56.859375 35.039062 56.378906 C 35.230469 55.894531 35.410156 55.496094 35.441406 55.496094 C 35.472656 55.496094 35.441406 55.824219 35.375 56.226562 C 35.261719 56.894531 34.242188 58.367188 34.242188 57.863281 Z M 33.339844 56.152344 C 33.386719 55.976562 33.503906 55.300781 33.601562 54.652344 C 33.695312 54.003906 33.816406 53.429688 33.867188 53.378906 C 34.082031 53.164062 33.769531 55.488281 33.519531 55.960938 C 33.371094 56.242188 33.289062 56.328125 33.339844 56.152344 Z M 35.074219 53.585938 C 35.144531 53.03125 35.167969 52.058594 35.125 51.425781 C 35.074219 50.648438 35.101562 50.363281 35.207031 50.539062 C 35.488281 51.019531 35.582031 52.621094 35.378906 53.542969 C 35.105469 54.78125 34.921875 54.804688 35.074219 53.585938 Z M 27.136719 52.664062 C 27.140625 51.933594 27.195312 51.140625 27.261719 50.894531 C 27.328125 50.652344 27.351562 51.167969 27.3125 52.046875 C 27.226562 54.070312 27.132812 54.390625 27.136719 52.664062 Z M 37.59375 33.835938 L 38.265625 33.820312 L 37.75 33.199219 C 37.46875 32.855469 37.058594 32.253906 36.84375 31.867188 C 36.625 31.476562 36.40625 31.117188 36.359375 31.070312 C 36.203125 30.917969 36.148438 30.335938 36.070312 28.066406 C 35.984375 25.507812 36.179688 24.167969 36.835938 22.757812 C 37.898438 20.472656 38.90625 19.507812 42.953125 16.894531 C 44.222656 16.074219 45.261719 15.351562 45.265625 15.289062 C 45.265625 15.226562 44.941406 15.125 44.539062 15.058594 C 43.835938 14.941406 43.757812 14.980469 42.078125 16.230469 C 39.882812 17.859375 37.105469 20.8125 36.277344 22.394531 C 35.53125 23.820312 35.613281 23.058594 36.394531 21.332031 C 37.058594 19.855469 39.125 17.574219 41.171875 16.054688 C 41.996094 15.441406 42.671875 14.875 42.671875 14.792969 C 42.671875 14.710938 42.332031 14.589844 41.917969 14.523438 L 41.164062 14.398438 L 39.558594 16.140625 C 37.246094 18.644531 35.839844 20.753906 34.941406 23.074219 L 34.550781 24.078125 L 34.660156 23.28125 C 34.941406 21.171875 36.453125 18.535156 38.828125 16 C 40.527344 14.1875 40.554688 14.074219 39.285156 14.074219 C 38.734375 14.074219 38.601562 14.179688 37.867188 15.179688 C 36.59375 16.917969 35.796875 18.269531 34.925781 20.183594 C 34.480469 21.15625 34.078125 22.070312 34.03125 22.21875 C 33.96875 22.40625 33.941406 22.378906 33.933594 22.128906 C 33.902344 20.871094 35.597656 17.125 37.121094 15.085938 C 37.5 14.582031 37.808594 14.105469 37.808594 14.03125 C 37.808594 13.957031 37.5 13.898438 37.121094 13.898438 C 36.515625 13.898438 36.394531 13.96875 36.125 14.472656 C 34.53125 17.464844 33.976562 18.992188 33.347656 22.128906 L 32.953125 24.078125 L 33.046875 22.570312 C 33.148438 20.964844 33.578125 18.5625 33.996094 17.265625 C 34.136719 16.828125 34.542969 15.886719 34.894531 15.171875 C 35.25 14.457031 35.539062 13.835938 35.539062 13.796875 C 35.539062 13.753906 35.214844 13.722656 34.816406 13.722656 C 34.101562 13.722656 34.089844 13.730469 33.90625 14.472656 C 33.804688 14.886719 33.546875 16.183594 33.332031 17.351562 L 32.949219 19.472656 L 33.023438 17.261719 C 33.066406 16.042969 33.148438 14.75 33.207031 14.386719 C 33.304688 13.765625 33.285156 13.722656 32.910156 13.722656 L 32.511719 13.722656 L 32.308594 17.484375 C 32.195312 19.550781 32.046875 21.761719 31.980469 22.394531 C 31.828125 23.804688 31.820312 23.707031 31.734375 17.882812 C 31.699219 15.640625 31.667969 13.757812 31.660156 13.695312 C 31.652344 13.628906 31.507812 13.617188 31.335938 13.667969 C 31.042969 13.75 31.03125 13.910156 31.101562 16.792969 C 31.152344 18.742188 31.125 19.734375 31.027344 19.5625 C 30.941406 19.417969 30.832031 18.980469 30.78125 18.589844 C 30.414062 15.753906 30.128906 13.964844 30.023438 13.835938 C 29.867188 13.652344 28.949219 13.574219 28.722656 13.726562 C 28.613281 13.800781 28.753906 14.347656 29.113281 15.242188 C 29.800781 16.949219 30.46875 19.707031 30.675781 21.695312 C 30.761719 22.503906 30.808594 23.195312 30.78125 23.222656 C 30.753906 23.25 30.488281 22.300781 30.191406 21.109375 C 29.636719 18.894531 28.96875 17 28.019531 14.960938 L 27.484375 13.808594 L 26.402344 13.757812 C 25.257812 13.703125 25.117188 13.816406 25.667969 14.359375 C 26.296875 14.980469 27.914062 17.570312 28.382812 18.710938 C 28.898438 19.96875 29.328125 21.675781 29.460938 23.015625 C 29.546875 23.859375 29.535156 23.839844 29.171875 22.570312 C 28.550781 20.390625 27.097656 17.523438 25.640625 15.601562 L 24.335938 13.878906 L 23.363281 13.917969 C 22.828125 13.941406 22.359375 14.015625 22.320312 14.085938 C 22.28125 14.15625 22.648438 14.542969 23.136719 14.945312 C 25.417969 16.824219 27.375 19.402344 28.074219 21.445312 C 28.585938 22.933594 28.484375 23.316406 27.898438 22.109375 C 26.867188 19.980469 25.222656 17.820312 22.863281 15.492188 C 21.480469 14.128906 21.441406 14.109375 20.753906 14.203125 C 20.371094 14.253906 19.960938 14.351562 19.847656 14.417969 C 19.71875 14.492188 20.453125 15.132812 21.792969 16.117188 C 25.269531 18.664062 27.0625 20.832031 27.503906 23.015625 C 27.578125 23.382812 27.402344 23.160156 26.945312 22.304688 C 26.578125 21.625 26.007812 20.765625 25.679688 20.394531 C 24.882812 19.492188 23.488281 18.328125 23.113281 18.246094 C 22.238281 18.054688 17.429688 15.6875 16.820312 15.144531 C 16.65625 15 14.992188 15.207031 14.824219 15.390625 C 14.699219 15.527344 17 16.652344 19.808594 17.828125 C 23.066406 19.191406 24.066406 19.78125 25.207031 21.011719 C 26.964844 22.90625 27.707031 25.753906 27.308594 29.035156 C 27.097656 30.75 26.710938 31.679688 25.722656 32.832031 L 25.011719 33.660156 L 26.222656 33.6875 C 27.269531 33.710938 27.472656 33.660156 27.753906 33.332031 C 27.933594 33.121094 28.082031 32.886719 28.082031 32.808594 C 28.082031 32.734375 28.21875 32.425781 28.386719 32.121094 L 28.691406 31.574219 L 28.535156 33.105469 L 29.238281 33.3125 C 29.628906 33.425781 30.253906 33.621094 30.636719 33.746094 C 31.207031 33.9375 31.457031 33.933594 32.09375 33.730469 C 32.515625 33.597656 33.210938 33.453125 33.632812 33.410156 C 34.058594 33.371094 34.402344 33.285156 34.398438 33.21875 C 34.394531 33.15625 34.289062 32.628906 34.160156 32.050781 C 33.914062 30.921875 33.960938 30.511719 34.238281 31.355469 C 34.644531 32.570312 34.972656 33.308594 35.285156 33.695312 C 35.574219 34.054688 35.707031 34.09375 36.269531 33.980469 C 36.625 33.910156 37.222656 33.84375 37.59375 33.835938 Z M 25.949219 24.089844 C 25.773438 23.667969 25.761719 23.664062 25.207031 23.957031 C 24.660156 24.238281 24.652344 24.253906 25.023438 24.367188 C 25.234375 24.429688 25.570312 24.492188 25.765625 24.5 C 26.09375 24.519531 26.109375 24.476562 25.949219 24.089844 Z M 40.453125 24.34375 C 40.992188 24.34375 40.679688 24.179688 39.429688 23.796875 C 38.195312 23.425781 37.808594 23.445312 37.808594 23.878906 C 37.808594 24.253906 38.59375 24.523438 39.414062 24.425781 C 39.804688 24.378906 40.273438 24.34375 40.453125 24.34375 Z M 24.46875 23.769531 C 25.457031 23.265625 25.414062 23.308594 25.203125 23.078125 C 25.070312 22.933594 24.695312 23.011719 23.796875 23.371094 C 23.121094 23.640625 22.570312 23.925781 22.570312 24.011719 C 22.570312 24.304688 23.699219 24.164062 24.46875 23.769531 Z M 44.78125 24.007812 C 46.300781 23.945312 45.726562 23.75 42.113281 23.109375 C 39.472656 22.640625 39.011719 22.597656 38.816406 22.8125 C 38.617188 23.027344 38.832031 23.125 40.347656 23.511719 C 42.601562 24.089844 42.660156 24.101562 43.238281 24.078125 C 43.507812 24.0625 44.199219 24.035156 44.78125 24.007812 Z M 22.714844 23.261719 C 23.570312 22.957031 24.339844 22.636719 24.425781 22.550781 C 24.664062 22.308594 23.390625 22.367188 22.398438 22.640625 C 21.914062 22.777344 20.785156 23.074219 19.894531 23.296875 C 18.332031 23.695312 18.296875 23.714844 18.921875 23.832031 C 19.945312 24.027344 21.042969 23.863281 22.714844 23.261719 Z M 50.5625 23.214844 C 52.871094 22.769531 52.664062 22.636719 49.457031 22.503906 C 47.820312 22.4375 46.265625 22.347656 45.996094 22.304688 C 44.757812 22.113281 40.933594 22.019531 40.578125 22.171875 C 40.261719 22.304688 40.519531 22.378906 41.875 22.558594 C 42.804688 22.679688 44.257812 22.917969 45.105469 23.089844 C 47.101562 23.488281 48.914062 23.53125 50.5625 23.214844 Z M 20.230469 22.660156 C 21.601562 22.320312 22.914062 22.042969 23.140625 22.042969 C 23.414062 22.042969 23.519531 21.96875 23.445312 21.839844 C 23.292969 21.570312 20.265625 21.75 18.757812 22.117188 C 18.132812 22.273438 16.929688 22.441406 16.082031 22.5 C 14.140625 22.628906 13.867188 22.734375 14.707031 23.027344 C 15.878906 23.4375 17.546875 23.328125 20.230469 22.660156 Z M 18.269531 21.777344 C 19.160156 21.617188 19.917969 21.453125 19.957031 21.410156 C 19.996094 21.367188 18.066406 21.351562 15.664062 21.378906 C 13.265625 21.402344 11.007812 21.355469 10.652344 21.273438 C 9.800781 21.082031 10.058594 21.390625 11.152344 21.875 C 11.855469 22.1875 12.222656 22.21875 14.300781 22.148438 C 15.59375 22.105469 17.378906 21.9375 18.269531 21.777344 Z M 40.0625 20.542969 C 40.773438 20.152344 41.613281 19.851562 45.105469 18.746094 C 45.953125 18.476562 47.160156 18.003906 47.792969 17.695312 C 48.425781 17.382812 49.210938 17.035156 49.535156 16.917969 C 49.863281 16.800781 50.128906 16.636719 50.128906 16.558594 C 50.128906 16.476562 49.773438 16.320312 49.339844 16.203125 C 48.570312 16.003906 48.511719 16.019531 47.273438 16.695312 C 46.570312 17.082031 44.832031 17.847656 43.40625 18.398438 C 40.632812 19.46875 39.757812 19.949219 38.753906 20.941406 C 37.789062 21.890625 37.652344 22.347656 38.554688 21.59375 C 38.976562 21.242188 39.65625 20.769531 40.0625 20.542969 Z M 54.628906 21.761719 C 55.023438 21.507812 55.308594 21.261719 55.261719 21.214844 C 55.21875 21.164062 54.667969 21.210938 54.042969 21.316406 C 53.417969 21.421875 52.371094 21.5 51.722656 21.488281 L 50.535156 21.46875 L 51.429688 21.3125 C 53.730469 20.914062 55.273438 20.589844 55.46875 20.457031 C 55.757812 20.261719 55.316406 19.265625 54.984375 19.367188 C 54.855469 19.402344 54.167969 19.625 53.453125 19.859375 C 51.523438 20.492188 50.167969 20.78125 47.292969 21.171875 C 45.867188 21.363281 44.625 21.546875 44.539062 21.574219 C 44.3125 21.648438 46.660156 21.839844 49.480469 21.972656 C 50.773438 22.035156 51.863281 22.117188 51.902344 22.152344 C 51.9375 22.1875 52.40625 22.21875 52.941406 22.21875 C 53.695312 22.21875 54.074219 22.113281 54.628906 21.761719 Z M 24.65625 21.390625 C 24.1875 20.769531 22.472656 19.730469 20.171875 18.675781 C 17.597656 17.492188 16.53125 16.972656 15.054688 16.179688 C 13.992188 15.609375 13.84375 15.585938 12.921875 15.867188 L 12.273438 16.066406 L 13.488281 16.589844 C 14.15625 16.875 15.289062 17.339844 16.003906 17.621094 C 18.148438 18.464844 16.527344 18.226562 13.894531 17.308594 C 13.179688 17.058594 12.453125 16.75 12.277344 16.617188 C 12.101562 16.484375 11.828125 16.375 11.671875 16.375 C 11.292969 16.375 10.085938 16.910156 10.085938 17.078125 C 10.085938 17.335938 15.328125 18.804688 17.703125 19.210938 C 20.496094 19.691406 22.957031 20.488281 24.191406 21.308594 C 24.875 21.765625 24.945312 21.777344 24.65625 21.390625 Z M 40.691406 21.519531 C 41.207031 21.359375 44.1875 20.921875 46.160156 20.722656 C 48.136719 20.519531 48.789062 20.417969 50.292969 20.089844 C 51.761719 19.765625 54.480469 18.945312 54.632812 18.777344 C 54.726562 18.675781 53.679688 17.972656 53.441406 17.96875 C 53.347656 17.96875 52.761719 18.164062 52.144531 18.398438 C 50.601562 18.984375 49.304688 19.300781 46.210938 19.828125 C 43.539062 20.28125 41.0625 20.945312 40.269531 21.417969 C 39.765625 21.714844 39.9375 21.757812 40.691406 21.519531 Z M 22.082031 20.855469 C 22.082031 20.746094 20.539062 20.382812 18.027344 19.898438 C 15.023438 19.324219 12.1875 18.582031 10.402344 17.902344 C 9.460938 17.542969 9.265625 17.523438 8.910156 17.726562 C 8.292969 18.078125 8.226562 18.476562 8.75 18.695312 C 9.425781 18.976562 10.945312 19.332031 13.003906 19.683594 L 14.867188 20.003906 L 13.761719 20.058594 C 12.609375 20.113281 10.449219 19.75 8.992188 19.257812 C 8.011719 18.925781 7.804688 19.035156 8.148438 19.707031 C 8.503906 20.398438 9.035156 20.605469 10.832031 20.757812 C 12.203125 20.871094 22.082031 20.957031 22.082031 20.855469 Z M 56.777344 18.933594 C 56.777344 17.605469 55.457031 15.398438 53.761719 13.894531 C 52.136719 12.457031 48.382812 10.46875 44.539062 9.011719 C 43.644531 8.671875 41.492188 7.617188 39.753906 6.667969 C 35.785156 4.496094 34.941406 4.25 31.566406 4.253906 C 28.46875 4.261719 27.589844 4.523438 23.542969 6.636719 C 21.890625 7.5 19.230469 8.738281 17.625 9.390625 C 12.96875 11.285156 10.472656 12.773438 8.679688 14.730469 C 7.65625 15.847656 7.175781 16.855469 7.171875 17.882812 L 7.167969 18.589844 L 7.503906 17.988281 C 7.96875 17.152344 8.347656 16.835938 9.839844 16.023438 C 11.957031 14.875 14.859375 14.09375 19.972656 13.292969 C 24.972656 12.507812 30.214844 12.292969 34.808594 12.683594 C 40.761719 13.191406 44.222656 13.636719 46.160156 14.148438 C 46.335938 14.195312 46.992188 14.367188 47.617188 14.527344 C 52.488281 15.78125 56.050781 17.660156 56.398438 19.164062 C 56.511719 19.664062 56.777344 19.507812 56.777344 18.933594 Z M 48.832031 18.742188 C 50.832031 18.230469 52.5625 17.636719 52.5625 17.460938 C 52.5625 17.394531 52.253906 17.21875 51.875 17.074219 L 51.183594 16.808594 L 48.265625 18.101562 C 45.667969 19.257812 45.445312 19.386719 46.238281 19.289062 C 46.730469 19.226562 47.898438 18.980469 48.832031 18.742188 Z M 43.714844 17.859375 C 44.066406 17.71875 45.15625 17.191406 46.132812 16.6875 C 47.640625 15.902344 47.851562 15.746094 47.519531 15.644531 C 46.570312 15.355469 46.195312 15.492188 44.0625 16.90625 C 41.347656 18.703125 41.035156 18.96875 42.1875 18.484375 C 42.675781 18.277344 43.367188 17.996094 43.714844 17.859375 Z M 23.054688 18.082031 C 23.054688 18.046875 22.261719 17.371094 21.292969 16.578125 C 20.324219 15.789062 19.441406 15.023438 19.328125 14.875 C 19.101562 14.574219 17.625 14.492188 17.46875 14.769531 C 17.417969 14.859375 18.636719 15.648438 20.175781 16.523438 C 23.394531 18.347656 23.054688 18.164062 23.054688 18.082031 Z M 23.054688 18.082031 "/>
</g>
</svg>
