<svg xmlns="http://www.w3.org/2000/svg" xml:space="preserve" width="128" height="128" viewBox="0 0 33.867 33.867"><path d="M15.975 32.17c-.307-.037-.712-.131-.901-.21-.222-.091-.81-.161-1.668-.198-.729-.032-1.342-.076-1.363-.1-.069-.074.375-.216 1.175-.377.431-.086.784-.188.784-.226s-.074-.143-.164-.232c-.333-.329-.552-1.08-.59-2.021-.028-.71.01-1.126.191-2.061.555-2.872.797-4.845.842-6.877l.02-.929-.557-.153c-.683-.187-.915-.342-1.024-.684-.078-.243-.043-.312.456-.907.778-.925.858-1.15.864-2.412.002-.582-.034-1.09-.081-1.142-.048-.051-.839-.16-1.76-.243-3.496-.312-5.506-.775-7.19-1.654-1.972-1.03-2.232-2.455-.761-4.172.964-1.125 2.101-1.814 4.777-2.893a38 38 0 0 0 3.206-1.517c2.1-1.137 2.83-1.404 4.05-1.483 1.764-.112 2.804.182 5.189 1.47.827.447 2.063 1.034 2.745 1.303 1.554.615 3.496 1.622 4.228 2.192 1.185.923 2.12 2.39 2.115 3.322a2.05 2.05 0 0 1-.652 1.499c-.483.44-1.602 1.008-2.433 1.234-1.193.324-3.893.65-6.632.8-.65.036-1.204.103-1.23.148-.025.046-.045.48-.044.964.002 1.343.184 1.86 1.013 2.884.571.705.219 1.22-.925 1.35l-.532.06.053 1.93c.054 2.006.141 2.822.586 5.488.395 2.37.298 3.61-.351 4.512-.223.31-.161.406.262.406.41 0 1.633.263 1.738.374.09.095-.473.162-1.961.236-.614.03-1.309.113-1.545.183-.573.17-1.252.218-1.93.136m1.978-.918q1.319-.545 1.427-2.435c.03-.504-.025-1.182-.187-2.306-.427-2.986-.464-3.28-.553-4.403-.05-.618-.09-1.656-.09-2.307-.001-.903-.03-1.209-.122-1.293-.225-.203-.73-.226-1.244-.056-.464.153-.53.154-.974.013-.487-.154-1.058-.196-1.3-.094-.109.045-.137.211-.137.82-.003 1.94-.32 4.824-.784 7.132a10.3 10.3 0 0 0-.195 2.061c-.006.99.016 1.176.189 1.558.36.797.947 1.319 1.677 1.488.582.135 1.757.044 2.293-.178m.167-.634c0-.057.053-.152.119-.211.066-.06.202-.318.303-.574s.196-.465.212-.465 0 .173-.036.385c-.059.354-.598 1.134-.598.865m-.479-.904c.027-.093.089-.45.14-.794.05-.343.113-.646.14-.674.114-.113-.052 1.116-.184 1.366-.078.149-.122.195-.096.102m.919-1.358c.037-.294.049-.808.027-1.143-.027-.41-.013-.563.043-.469.15.253.198 1.1.091 1.59-.144.654-.242.668-.161.022m-4.2-.487c.001-.387.03-.808.066-.937s.048.145.028.609c-.048 1.07-.096 1.241-.094.328m5.532-9.964.357-.008-.272-.33a6 6 0 0 1-.482-.705 4 4 0 0 0-.255-.421c-.082-.081-.112-.387-.152-1.59-.046-1.354.056-2.061.404-2.81.562-1.207 1.095-1.718 3.238-3.102.672-.433 1.222-.815 1.223-.848 0-.033-.173-.088-.384-.123-.373-.06-.414-.041-1.303.62-1.162.863-2.63 2.425-3.07 3.263-.394.754-.35.35.062-.562.353-.782 1.447-1.99 2.53-2.794.436-.324.793-.624.793-.667s-.18-.107-.399-.143l-.399-.065-.85.921c-1.225 1.325-1.967 2.441-2.444 3.67l-.205.53.056-.422c.15-1.115.949-2.51 2.206-3.852.9-.96.914-1.019.242-1.019-.29 0-.362.055-.75.586a13.7 13.7 0 0 0-1.557 2.646c-.236.515-.449 1-.474 1.077q-.047.15-.05-.047c-.018-.665.88-2.648 1.686-3.726.2-.268.364-.52.364-.559s-.164-.07-.364-.07c-.321 0-.385.037-.527.304-.844 1.584-1.136 2.39-1.47 4.051l-.208 1.03.05-.796c.052-.85.28-2.122.502-2.808.075-.23.289-.729.476-1.108.187-.378.34-.706.34-.728 0-.021-.172-.04-.383-.04-.377 0-.384.006-.481.399-.055.219-.191.904-.303 1.522l-.204 1.124.04-1.17c.022-.645.065-1.33.096-1.523.053-.328.042-.351-.155-.351h-.212l-.108 1.99a78 78 0 0 1-.174 2.6c-.08.746-.083.695-.13-2.389a219 219 0 0 0-.038-2.216c-.004-.034-.081-.04-.172-.014-.156.044-.162.128-.123 1.654.026 1.031.012 1.556-.04 1.466-.045-.077-.103-.31-.13-.515-.194-1.501-.345-2.447-.401-2.515-.083-.098-.57-.14-.69-.058-.057.038.018.329.208.801.363.903.717 2.364.827 3.415.044.43.07.793.056.809-.014.015-.155-.488-.312-1.119a17.4 17.4 0 0 0-1.15-3.254l-.283-.608-.572-.028c-.606-.03-.68.03-.39.318.334.329 1.19 1.7 1.437 2.304.274.665.5 1.568.571 2.277.045.446.038.436-.153-.235-.329-1.154-1.098-2.672-1.868-3.688l-.692-.911-.514.02c-.282.011-.531.05-.552.088s.174.242.433.456c1.206.994 2.242 2.359 2.613 3.44.27.787.216.989-.093.351-.546-1.127-1.418-2.271-2.666-3.501-.732-.722-.751-.734-1.115-.684-.204.029-.42.08-.48.114-.068.04.32.378 1.03.899 1.84 1.35 2.788 2.496 3.021 3.65.04.194-.053.078-.296-.374-.195-.36-.496-.816-.67-1.013-.421-.476-1.159-1.093-1.357-1.136-.464-.1-3.008-1.353-3.331-1.64-.086-.077-.966.031-1.055.13-.067.072 1.151.667 2.637 1.289 1.725.721 2.254 1.033 2.857 1.684.93 1.004 1.324 2.51 1.11 4.247-.11.907-.315 1.398-.838 2.008l-.375.438.64.015c.553.012.662-.013.811-.188.095-.111.173-.235.173-.276 0-.04.072-.204.161-.364l.162-.29-.042.405-.042.405.374.109c.205.06.537.164.738.23.302.1.434.1.772-.008.224-.071.59-.147.815-.169s.406-.067.404-.1a12 12 0 0 0-.125-.62c-.13-.598-.106-.814.042-.368.213.644.387 1.034.553 1.24.153.189.224.21.52.15.189-.039.504-.073.7-.077m-6.16-5.157c-.094-.224-.1-.225-.394-.072-.288.15-.292.158-.097.218.112.034.289.066.394.071.172.009.182-.013.097-.217m7.674.133c.285 0 .121-.087-.542-.288-.652-.197-.857-.186-.857.043 0 .199.416.34.849.29.207-.025.455-.045.55-.045m-8.458-.302c.523-.267.5-.246.39-.367-.07-.076-.27-.035-.746.155-.357.142-.65.295-.65.34 0 .155.6.079 1.006-.128m10.748.126c.805-.034.5-.138-1.41-.476-1.4-.249-1.642-.27-1.746-.157s.008.166.81.37c1.193.306 1.225.312 1.531.298zm-11.675-.395c.452-.162.859-.332.904-.377.127-.128-.547-.098-1.072.048-.257.072-.854.228-1.326.348-.827.21-.846.22-.515.283.543.103 1.123.016 2.009-.302m14.735-.026c1.222-.234 1.112-.305-.585-.376-.866-.036-1.69-.083-1.831-.105-.656-.1-2.68-.151-2.867-.071-.167.07-.032.11.686.205a31 31 0 0 1 1.709.28c1.057.213 2.016.235 2.888.067m-16.052-.293c.727-.18 1.42-.328 1.542-.328.143 0 .2-.037.161-.106-.08-.143-1.684-.048-2.48.147-.331.081-.968.172-1.416.202-1.028.068-1.173.124-.73.279.623.217 1.503.159 2.923-.194m-1.037-.466c.471-.085.873-.173.894-.196.02-.022-1.002-.03-2.272-.017s-2.464-.011-2.652-.054c-.45-.102-.314.062.264.317.373.165.567.182 1.666.145.684-.022 1.63-.11 2.1-.195m11.534-.654c.375-.207.82-.366 2.667-.952a13 13 0 0 0 1.423-.556c.334-.164.75-.349.922-.411s.315-.148.315-.19-.189-.127-.42-.187c-.405-.107-.438-.099-1.093.26-.371.204-1.292.609-2.046.9-1.468.568-1.93.82-2.462 1.346-.51.503-.584.745-.104.345.222-.185.581-.435.798-.555m7.707.644c.208-.134.36-.264.335-.29-.023-.026-.314 0-.645.055a8 8 0 0 1-1.229.091l-.627-.01.472-.083c1.218-.21 2.035-.383 2.137-.453.154-.103-.079-.63-.255-.577-.068.02-.432.137-.81.261-1.021.335-1.738.488-3.26.694a36 36 0 0 0-1.458.214c-.118.04 1.123.14 2.616.21.685.033 1.26.076 1.28.095s.267.035.55.035c.399 0 .6-.055.894-.242m-15.861-.196c-.247-.328-1.155-.879-2.372-1.437-1.364-.627-1.927-.901-2.71-1.321-.56-.301-.64-.313-1.127-.164l-.343.104.643.277c.354.152.952.398 1.33.547 1.135.447.278.32-1.116-.166-.377-.132-.762-.296-.855-.366a.65.65 0 0 0-.32-.127c-.2 0-.84.283-.84.371 0 .137 2.773.914 4.032 1.13 1.476.253 2.78.674 3.431 1.108.363.242.4.248.247.044m8.486.07c.273-.086 1.85-.317 2.893-.424 1.046-.107 1.39-.16 2.187-.335.778-.17 2.216-.605 2.298-.694.048-.053-.505-.426-.631-.427-.05 0-.36.102-.687.227-.816.31-1.503.476-3.14.756-1.413.24-2.723.591-3.144.84-.267.159-.175.181.224.056m-9.848-.353c0-.058-.817-.25-2.145-.505-1.59-.305-3.09-.699-4.036-1.058-.498-.189-.6-.201-.789-.093-.327.187-.362.398-.085.513.359.15 1.162.336 2.25.523l.987.17-.585.028c-.61.029-1.752-.163-2.524-.424-.518-.176-.628-.117-.446.238.188.366.47.476 1.42.555.725.061 5.953.107 5.953.053m18.36-1.016c0-.703-.7-1.87-1.597-2.666-.86-.763-2.845-1.815-4.88-2.586-.472-.179-1.611-.737-2.531-1.24-2.1-1.148-2.547-1.28-4.333-1.276-1.639.003-2.105.141-4.247 1.26A44 44 0 0 1 9.326 4.97C6.862 5.972 5.54 6.76 4.594 7.795c-.543.592-.798 1.123-.8 1.667l-.001.375.178-.319c.246-.441.446-.61 1.237-1.038 1.119-.608 2.655-1.022 5.362-1.446 2.645-.415 5.42-.529 7.85-.322 3.15.269 4.98.505 6.006.776l.772.2c2.576.662 4.463 1.658 4.645 2.452.062.266.202.182.202-.12m-4.204-.103c1.057-.27 1.973-.583 1.973-.677 0-.036-.164-.128-.364-.206l-.365-.14-1.544.686c-1.376.61-1.493.679-1.073.626.26-.032.878-.162 1.373-.289m-2.708-.467c.186-.073.761-.352 1.279-.62.798-.414.91-.497.734-.55-.502-.154-.701-.082-1.83.667-1.436.95-1.602 1.09-.992.834.26-.11.623-.258.81-.331M12.2 9.568c0-.02-.42-.377-.932-.795-.513-.418-.98-.824-1.04-.902-.12-.158-.901-.201-.984-.055-.027.048.617.465 1.432.927 1.703.966 1.524.869 1.524.825" style="fill:#626262;fill-opacity:1"/></svg>