<?xml version="1.0" encoding="UTF-8"?>
<svg xmlns="http://www.w3.org/2000/svg" xmlns:xlink="http://www.w3.org/1999/xlink" width="128px" height="128px" viewBox="0 0 128 128" version="1.1">
<g id="surface1">
<path style=" stroke:none;fill-rule:nonzero;fill:rgb(38.431373%,38.431373%,38.431373%);fill-opacity:1;" d="M 60.378906 121.589844 C 59.21875 121.449219 57.6875 121.09375 56.972656 120.796875 C 56.132812 120.449219 53.914062 120.183594 50.667969 120.042969 C 47.914062 119.925781 45.59375 119.757812 45.515625 119.671875 C 45.257812 119.390625 46.933594 118.851562 49.960938 118.242188 C 51.585938 117.917969 52.917969 117.53125 52.917969 117.386719 C 52.917969 117.242188 52.640625 116.847656 52.300781 116.511719 C 51.042969 115.269531 50.214844 112.429688 50.074219 108.871094 C 49.964844 106.1875 50.113281 104.617188 50.792969 101.082031 C 52.890625 90.230469 53.804688 82.769531 53.976562 75.089844 L 54.054688 71.582031 L 51.945312 71.003906 C 49.367188 70.296875 48.484375 69.707031 48.074219 68.417969 C 47.78125 67.496094 47.910156 67.238281 49.800781 64.992188 C 52.738281 61.492188 53.042969 60.644531 53.0625 55.871094 C 53.074219 53.671875 52.9375 51.75 52.757812 51.554688 C 52.578125 51.363281 49.585938 50.949219 46.109375 50.640625 C 32.890625 49.457031 25.296875 47.710938 18.929688 44.386719 C 11.476562 40.492188 10.496094 35.109375 16.054688 28.621094 C 19.699219 24.367188 23.996094 21.761719 34.113281 17.683594 C 37.410156 16.351562 42.863281 13.773438 46.226562 11.949219 C 54.164062 7.652344 56.921875 6.644531 61.53125 6.347656 C 68.199219 5.921875 72.132812 7.035156 81.144531 11.902344 C 84.273438 13.589844 88.941406 15.808594 91.519531 16.828125 C 97.394531 19.148438 104.734375 22.957031 107.503906 25.109375 C 111.980469 28.601562 115.511719 34.144531 115.496094 37.667969 C 115.484375 39.832031 114.574219 41.921875 113.03125 43.332031 C 111.203125 45 106.976562 47.140625 103.832031 47.996094 C 99.324219 49.222656 89.121094 50.453125 78.769531 51.023438 C 76.3125 51.15625 74.21875 51.40625 74.121094 51.578125 C 74.027344 51.75 73.949219 53.390625 73.953125 55.222656 C 73.960938 60.300781 74.648438 62.253906 77.785156 66.121094 C 79.941406 68.785156 78.609375 70.734375 74.285156 71.226562 L 72.277344 71.457031 L 72.476562 78.746094 C 72.683594 86.328125 73.011719 89.410156 74.691406 99.488281 C 76.183594 108.445312 75.816406 113.136719 73.363281 116.542969 C 72.519531 117.710938 72.753906 118.078125 74.351562 118.078125 C 75.902344 118.078125 80.527344 119.070312 80.925781 119.488281 C 81.261719 119.847656 79.136719 120.101562 73.511719 120.382812 C 71.191406 120.5 68.566406 120.808594 67.671875 121.074219 C 65.507812 121.71875 62.941406 121.898438 60.378906 121.589844 Z M 67.851562 118.117188 C 71.179688 116.738281 72.96875 113.683594 73.246094 108.914062 C 73.359375 107.007812 73.152344 104.449219 72.542969 100.199219 C 70.925781 88.914062 70.785156 87.804688 70.449219 83.558594 C 70.261719 81.222656 70.109375 77.296875 70.109375 74.839844 C 70.105469 71.425781 69.996094 70.269531 69.648438 69.953125 C 68.796875 69.183594 66.890625 69.097656 64.945312 69.742188 C 63.195312 70.320312 62.945312 70.324219 61.265625 69.789062 C 59.425781 69.207031 57.265625 69.050781 56.351562 69.433594 C 55.941406 69.605469 55.835938 70.234375 55.832031 72.53125 C 55.824219 79.867188 54.625 90.765625 52.871094 99.488281 C 52.371094 101.96875 52.152344 104.300781 52.132812 107.277344 C 52.113281 111.019531 52.195312 111.722656 52.847656 113.164062 C 54.207031 116.179688 56.429688 118.152344 59.1875 118.792969 C 61.386719 119.300781 65.828125 118.957031 67.851562 118.117188 Z M 68.484375 115.722656 C 68.484375 115.507812 68.6875 115.148438 68.933594 114.921875 C 69.183594 114.699219 69.699219 113.722656 70.078125 112.753906 C 70.460938 111.789062 70.820312 110.996094 70.882812 110.996094 C 70.941406 110.996094 70.882812 111.652344 70.746094 112.453125 C 70.523438 113.789062 68.484375 116.738281 68.484375 115.722656 Z M 66.675781 112.304688 C 66.773438 111.953125 67.011719 110.601562 67.199219 109.304688 C 67.390625 108.007812 67.632812 106.859375 67.734375 106.757812 C 68.164062 106.332031 67.539062 110.976562 67.039062 111.917969 C 66.742188 112.480469 66.578125 112.65625 66.675781 112.304688 Z M 70.148438 107.171875 C 70.285156 106.0625 70.332031 104.117188 70.25 102.851562 C 70.148438 101.300781 70.203125 100.722656 70.414062 101.078125 C 70.980469 102.035156 71.164062 105.238281 70.757812 107.085938 C 70.214844 109.5625 69.839844 109.613281 70.148438 107.171875 Z M 54.273438 105.332031 C 54.277344 103.871094 54.390625 102.277344 54.523438 101.789062 C 54.660156 101.304688 54.707031 102.339844 54.628906 104.09375 C 54.449219 108.136719 54.265625 108.78125 54.273438 105.332031 Z M 75.183594 67.671875 L 76.535156 67.644531 L 75.503906 66.394531 C 74.933594 65.710938 74.117188 64.511719 73.683594 63.730469 C 73.25 62.953125 72.816406 62.234375 72.714844 62.136719 C 72.40625 61.832031 72.296875 60.675781 72.144531 56.128906 C 71.972656 51.015625 72.355469 48.339844 73.671875 45.511719 C 75.796875 40.949219 77.808594 39.019531 85.910156 33.785156 C 88.449219 32.148438 90.527344 30.703125 90.53125 30.582031 C 90.53125 30.457031 89.878906 30.246094 89.078125 30.117188 C 87.667969 29.886719 87.515625 29.957031 84.152344 32.457031 C 79.761719 35.71875 74.210938 41.625 72.554688 44.789062 C 71.0625 47.640625 71.230469 46.117188 72.785156 42.667969 C 74.117188 39.710938 78.253906 35.144531 82.347656 32.109375 C 83.996094 30.882812 85.34375 29.75 85.34375 29.585938 C 85.34375 29.425781 84.667969 29.183594 83.839844 29.046875 L 82.332031 28.800781 L 79.117188 32.28125 C 74.488281 37.289062 71.679688 41.507812 69.878906 46.152344 L 69.101562 48.152344 L 69.316406 46.558594 C 69.882812 42.34375 72.902344 37.074219 77.65625 32.003906 C 81.054688 28.375 81.109375 28.148438 78.566406 28.148438 C 77.46875 28.148438 77.203125 28.359375 75.734375 30.363281 C 73.183594 33.835938 71.59375 36.539062 69.847656 40.363281 C 68.957031 42.3125 68.152344 44.144531 68.058594 44.4375 C 67.9375 44.808594 67.882812 44.757812 67.867188 44.257812 C 67.800781 41.742188 71.191406 34.25 74.238281 30.175781 C 74.996094 29.160156 75.617188 28.210938 75.617188 28.0625 C 75.617188 27.917969 74.996094 27.796875 74.238281 27.796875 C 73.027344 27.800781 72.789062 27.941406 72.25 28.949219 C 69.0625 34.933594 67.953125 37.980469 66.691406 44.257812 L 65.910156 48.152344 L 66.09375 45.144531 C 66.292969 41.929688 67.152344 37.121094 67.992188 34.53125 C 68.277344 33.660156 69.085938 31.773438 69.792969 30.34375 C 70.5 28.914062 71.078125 27.675781 71.078125 27.59375 C 71.078125 27.507812 70.425781 27.441406 69.632812 27.441406 C 68.203125 27.441406 68.179688 27.460938 67.8125 28.945312 C 67.605469 29.773438 67.089844 32.363281 66.667969 34.699219 L 65.894531 38.949219 L 66.046875 34.523438 C 66.128906 32.089844 66.292969 29.5 66.410156 28.769531 C 66.609375 27.53125 66.570312 27.441406 65.824219 27.441406 L 65.023438 27.441406 L 64.617188 34.964844 C 64.390625 39.101562 64.09375 43.523438 63.957031 44.789062 C 63.652344 47.609375 63.640625 47.417969 63.46875 35.761719 C 63.402344 31.285156 63.335938 27.515625 63.320312 27.386719 C 63.308594 27.257812 63.015625 27.234375 62.671875 27.332031 C 62.082031 27.5 62.058594 27.816406 62.207031 33.582031 C 62.304688 37.480469 62.253906 39.464844 62.054688 39.125 C 61.886719 38.832031 61.664062 37.957031 61.5625 37.179688 C 60.832031 31.507812 60.257812 27.929688 60.046875 27.675781 C 59.738281 27.300781 57.898438 27.144531 57.441406 27.453125 C 57.226562 27.601562 57.511719 28.695312 58.230469 30.484375 C 59.601562 33.894531 60.9375 39.414062 61.351562 43.386719 C 61.519531 45.011719 61.617188 46.386719 61.5625 46.445312 C 61.511719 46.503906 60.980469 44.601562 60.382812 42.21875 C 59.277344 37.785156 57.9375 33.996094 56.039062 29.921875 L 54.96875 27.621094 L 52.808594 27.515625 C 50.515625 27.402344 50.234375 27.632812 51.332031 28.714844 C 52.597656 29.960938 55.828125 35.140625 56.765625 37.425781 C 57.800781 39.9375 58.65625 43.351562 58.925781 46.03125 C 59.09375 47.71875 59.066406 47.675781 58.34375 45.144531 C 57.101562 40.78125 54.195312 35.042969 51.28125 31.207031 L 48.671875 27.761719 L 46.726562 27.835938 C 45.660156 27.878906 44.71875 28.027344 44.640625 28.167969 C 44.558594 28.308594 45.296875 29.085938 46.273438 29.890625 C 50.832031 33.648438 54.75 38.808594 56.152344 42.894531 C 57.171875 45.867188 56.96875 46.632812 55.800781 44.21875 C 53.734375 39.960938 50.445312 35.636719 45.726562 30.988281 C 42.957031 28.261719 42.882812 28.214844 41.511719 28.40625 C 40.742188 28.511719 39.925781 28.703125 39.699219 28.835938 C 39.441406 28.984375 40.910156 30.265625 43.589844 32.230469 C 50.542969 37.332031 54.128906 41.667969 55.007812 46.03125 C 55.15625 46.761719 54.808594 46.324219 53.886719 44.613281 C 53.152344 43.25 52.015625 41.527344 51.359375 40.785156 C 49.765625 38.988281 46.976562 36.652344 46.226562 36.492188 C 44.472656 36.113281 34.859375 31.375 33.636719 30.289062 C 33.3125 30.003906 29.988281 30.410156 29.648438 30.78125 C 29.398438 31.054688 34.003906 33.304688 39.617188 35.652344 C 46.136719 38.382812 48.136719 39.5625 50.414062 42.023438 C 53.929688 45.816406 55.417969 51.511719 54.613281 58.074219 C 54.191406 61.5 53.417969 63.355469 51.441406 65.664062 L 50.023438 67.316406 L 52.441406 67.371094 C 54.535156 67.417969 54.945312 67.324219 55.511719 66.664062 C 55.867188 66.242188 56.160156 65.773438 56.160156 65.621094 C 56.160156 65.46875 56.4375 64.847656 56.773438 64.242188 L 57.386719 63.144531 L 57.226562 64.679688 L 57.070312 66.210938 L 58.480469 66.621094 C 59.257812 66.847656 60.511719 67.238281 61.269531 67.492188 C 62.410156 67.871094 62.910156 67.867188 64.1875 67.460938 C 65.035156 67.191406 66.421875 66.90625 67.269531 66.824219 C 68.113281 66.738281 68.804688 66.566406 68.796875 66.441406 C 68.789062 66.3125 68.578125 65.261719 68.324219 64.101562 C 67.828125 61.84375 67.921875 61.023438 68.480469 62.707031 C 69.285156 65.144531 69.945312 66.617188 70.570312 67.394531 C 71.148438 68.109375 71.417969 68.1875 72.539062 67.960938 C 73.25 67.816406 74.441406 67.6875 75.183594 67.671875 Z M 51.898438 48.179688 C 51.546875 47.335938 51.523438 47.332031 50.410156 47.910156 C 49.320312 48.476562 49.308594 48.507812 50.046875 48.734375 C 50.46875 48.863281 51.136719 48.984375 51.535156 49.003906 C 52.183594 49.035156 52.21875 48.953125 51.898438 48.179688 Z M 80.90625 48.683594 C 81.984375 48.683594 81.363281 48.355469 78.855469 47.597656 C 76.394531 46.851562 75.617188 46.890625 75.617188 47.757812 C 75.617188 48.507812 77.191406 49.042969 78.824219 48.851562 C 79.605469 48.761719 80.542969 48.683594 80.90625 48.683594 Z M 48.9375 47.542969 C 50.914062 46.535156 50.828125 46.613281 50.40625 46.15625 C 50.144531 45.867188 49.394531 46.023438 47.59375 46.738281 C 46.242188 47.277344 45.136719 47.855469 45.136719 48.023438 C 45.136719 48.613281 47.402344 48.324219 48.9375 47.542969 Z M 89.5625 48.019531 C 92.605469 47.890625 91.449219 47.5 84.230469 46.21875 C 78.941406 45.28125 78.023438 45.199219 77.628906 45.628906 C 77.234375 46.058594 77.664062 46.253906 80.691406 47.027344 C 85.203125 48.179688 85.324219 48.203125 86.480469 48.152344 C 87.015625 48.128906 88.402344 48.066406 89.5625 48.019531 Z M 45.433594 46.527344 C 47.144531 45.914062 48.679688 45.269531 48.851562 45.101562 C 49.332031 44.617188 46.785156 44.730469 44.800781 45.28125 C 43.824219 45.554688 41.570312 46.144531 39.785156 46.597656 C 36.660156 47.390625 36.589844 47.429688 37.839844 47.667969 C 39.894531 48.058594 42.085938 47.730469 45.433594 46.527344 Z M 101.125 46.429688 C 105.742188 45.542969 105.328125 45.277344 98.914062 45.007812 C 95.640625 44.871094 92.527344 44.691406 91.992188 44.609375 C 89.515625 44.230469 81.867188 44.039062 81.15625 44.339844 C 80.527344 44.609375 81.035156 44.761719 83.75 45.117188 C 85.609375 45.359375 88.515625 45.835938 90.210938 46.175781 C 94.203125 46.980469 97.828125 47.0625 101.125 46.429688 Z M 40.457031 45.320312 C 43.203125 44.640625 45.824219 44.082031 46.285156 44.082031 C 46.824219 44.082031 47.039062 43.941406 46.894531 43.679688 C 46.585938 43.140625 40.527344 43.5 37.515625 44.238281 C 36.269531 44.542969 33.859375 44.886719 32.167969 45 C 28.28125 45.257812 27.734375 45.46875 29.410156 46.054688 C 31.761719 46.875 35.089844 46.652344 40.457031 45.320312 Z M 36.539062 43.558594 C 38.316406 43.238281 39.839844 42.90625 39.914062 42.820312 C 39.992188 42.734375 36.128906 42.707031 31.328125 42.753906 C 26.527344 42.804688 22.015625 42.710938 21.304688 42.550781 C 19.605469 42.167969 20.117188 42.78125 22.304688 43.75 C 23.710938 44.371094 24.445312 44.4375 28.597656 44.296875 C 31.1875 44.210938 34.757812 43.878906 36.539062 43.558594 Z M 80.128906 41.089844 C 81.546875 40.304688 83.226562 39.703125 90.210938 37.492188 C 91.902344 36.953125 94.324219 36.007812 95.585938 35.386719 C 96.851562 34.769531 98.417969 34.070312 99.074219 33.835938 C 99.726562 33.597656 100.261719 33.273438 100.261719 33.113281 C 100.261719 32.953125 99.550781 32.636719 98.679688 32.410156 C 97.144531 32.007812 97.019531 32.035156 94.542969 33.394531 C 93.140625 34.164062 89.660156 35.695312 86.8125 36.796875 C 81.265625 38.941406 79.515625 39.894531 77.503906 41.878906 C 75.574219 43.785156 75.300781 44.695312 77.113281 43.1875 C 77.953125 42.484375 79.3125 41.542969 80.128906 41.089844 Z M 109.257812 43.519531 C 110.042969 43.015625 110.617188 42.523438 110.527344 42.425781 C 110.4375 42.328125 109.339844 42.421875 108.089844 42.632812 C 106.835938 42.847656 104.746094 43 103.441406 42.976562 L 101.070312 42.9375 L 102.855469 42.628906 C 107.460938 41.832031 110.546875 41.175781 110.933594 40.914062 C 111.515625 40.523438 110.636719 38.535156 109.96875 38.730469 C 109.710938 38.808594 108.335938 39.25 106.910156 39.71875 C 103.046875 40.984375 100.335938 41.5625 94.585938 42.339844 C 91.734375 42.726562 89.253906 43.089844 89.074219 43.152344 C 88.628906 43.300781 93.320312 43.675781 98.964844 43.945312 C 101.550781 44.070312 103.726562 44.230469 103.800781 44.304688 C 103.875 44.375 104.8125 44.4375 105.878906 44.4375 C 107.386719 44.4375 108.148438 44.230469 109.257812 43.519531 Z M 49.3125 42.78125 C 48.378906 41.539062 44.945312 39.460938 40.347656 37.347656 C 35.191406 34.980469 33.0625 33.941406 30.105469 32.355469 C 27.988281 31.21875 27.6875 31.175781 25.84375 31.734375 L 24.546875 32.128906 L 26.976562 33.175781 C 28.316406 33.75 30.578125 34.683594 32.003906 35.242188 C 36.296875 36.933594 33.058594 36.449219 27.789062 34.617188 C 26.363281 34.117188 24.90625 33.496094 24.554688 33.234375 C 24.203125 32.96875 23.660156 32.753906 23.347656 32.753906 C 22.589844 32.753906 20.167969 33.820312 20.167969 34.15625 C 20.167969 34.671875 30.652344 37.609375 35.410156 38.425781 C 40.988281 39.382812 45.914062 40.972656 48.378906 42.617188 C 49.75 43.527344 49.890625 43.554688 49.3125 42.78125 Z M 81.382812 43.042969 C 82.414062 42.71875 88.375 41.847656 92.316406 41.441406 C 96.273438 41.035156 97.574219 40.835938 100.585938 40.175781 C 103.523438 39.53125 108.960938 37.890625 109.269531 37.554688 C 109.449219 37.355469 107.363281 35.941406 106.882812 35.941406 C 106.691406 35.941406 105.523438 36.324219 104.289062 36.796875 C 101.207031 37.972656 98.609375 38.597656 92.417969 39.652344 C 87.078125 40.5625 82.128906 41.886719 80.535156 42.832031 C 79.53125 43.429688 79.875 43.515625 81.382812 43.042969 Z M 44.164062 41.710938 C 44.164062 41.492188 41.078125 40.765625 36.058594 39.800781 C 30.050781 38.648438 24.375 37.160156 20.800781 35.804688 C 18.917969 35.089844 18.53125 35.042969 17.820312 35.449219 C 16.582031 36.15625 16.449219 36.957031 17.5 37.390625 C 18.855469 37.957031 21.890625 38.660156 26.003906 39.367188 L 29.734375 40.011719 L 27.523438 40.117188 C 25.21875 40.226562 20.898438 39.5 17.984375 38.511719 C 16.027344 37.847656 15.609375 38.070312 16.296875 39.410156 C 17.007812 40.796875 18.070312 41.210938 21.667969 41.511719 C 24.40625 41.742188 44.164062 41.914062 44.164062 41.710938 Z M 113.554688 37.871094 C 113.554688 35.214844 110.914062 30.800781 107.523438 27.792969 C 104.273438 24.910156 96.769531 20.9375 89.074219 18.019531 C 87.292969 17.34375 82.988281 15.234375 79.507812 13.335938 C 71.570312 8.996094 69.882812 8.496094 63.132812 8.511719 C 56.9375 8.523438 55.175781 9.046875 47.082031 13.277344 C 43.785156 15 38.457031 17.480469 35.246094 18.785156 C 25.933594 22.570312 20.945312 25.550781 17.363281 29.460938 C 15.3125 31.699219 14.347656 33.707031 14.339844 35.761719 L 14.335938 37.179688 L 15.007812 35.972656 C 15.9375 34.304688 16.695312 33.671875 19.683594 32.050781 C 23.910156 29.753906 29.71875 28.1875 39.949219 26.582031 C 49.945312 25.015625 60.433594 24.585938 69.617188 25.367188 C 81.523438 26.382812 88.441406 27.277344 92.316406 28.300781 C 92.671875 28.394531 93.988281 28.734375 95.234375 29.054688 C 104.972656 31.558594 112.105469 35.324219 112.792969 38.324219 C 113.023438 39.328125 113.554688 39.011719 113.554688 37.871094 Z M 97.667969 37.484375 C 101.664062 36.464844 105.125 35.277344 105.125 34.925781 C 105.125 34.789062 104.503906 34.4375 103.746094 34.144531 L 102.371094 33.617188 L 96.53125 36.207031 C 91.335938 38.515625 90.890625 38.773438 92.480469 38.574219 C 93.460938 38.453125 95.792969 37.960938 97.667969 37.484375 Z M 87.433594 35.714844 C 88.132812 35.441406 90.308594 34.386719 92.265625 33.371094 C 95.28125 31.808594 95.703125 31.492188 95.042969 31.292969 C 93.144531 30.710938 92.390625 30.984375 88.125 33.8125 C 82.699219 37.410156 82.070312 37.9375 84.371094 36.96875 C 85.355469 36.554688 86.730469 35.992188 87.433594 35.714844 Z M 46.109375 36.164062 C 46.109375 36.089844 44.523438 34.738281 42.585938 33.160156 C 40.648438 31.578125 38.878906 30.042969 38.65625 29.75 C 38.203125 29.152344 35.25 28.988281 34.9375 29.542969 C 34.835938 29.722656 37.269531 31.300781 40.347656 33.042969 C 46.789062 36.695312 46.109375 36.328125 46.109375 36.164062 Z M 46.109375 36.164062 "/>
</g>
</svg>
