<svg xmlns="http://www.w3.org/2000/svg" xml:space="preserve" width="128" height="128" viewBox="0 0 33.867 33.867"><path d="M15.926 31.201c-.556-.076-1.552-.41-1.812-.607-.11-.083-.225-.152-.257-.153s-.149-.127-.26-.279c-.227-.311-.253-.586-.091-.986.169-.42.134-.88-.12-1.57a9 9 0 0 0-.28-.702 8 8 0 0 1-.258-.628c-.115-.304-.24-.552-.279-.552a5 5 0 0 0-.52.121c-.69.186-2.614.117-3.31-.118-.973-.329-1.49-.842-1.516-1.504-.008-.209.083-.51.301-1.002.4-.9.447-1.352.23-2.176-.087-.33-.141-.647-.12-.705.022-.058.012-.088-.02-.067-.033.021-.146-.226-.251-.548a141 141 0 0 0-.488-1.453c-.163-.477-.28-.894-.261-.926s.01-.07-.023-.085c-.032-.014-.277-.71-.546-1.548q-.786-2.448-1.267-3.73C4.05 10.04 3.871 9.6 3.468 8.748c-.445-.941-.45-.96-.448-1.599.001-.562.03-.707.219-1.104.398-.836 1.25-1.595 2.456-2.19 1.036-.512 2.076-.83 3.813-1.167.56-.108 3.548-.107 4.332.002 1.882.263 3.365.791 4.567 1.627 1.62 1.127 1.974 2.866.924 4.55-.313.502-.376.771-.16.68 1.449-.61 3.574-.892 5.482-.73 2.098.18 3.54.638 4.798 1.525.868.612 1.327 1.364 1.384 2.267.04.639.013.724-.588 1.848-.235.44-.474.954-.53 1.142-.058.188-.192.6-.299.913a16 16 0 0 0-.21.647c-.05.231-.28 1.012-.336 1.142-.036.084-.147.427-.245.762-.22.747-.637 1.95-1.151 3.311-.443 1.175-.538 1.9-.347 2.656.135.534.091.732-.239 1.074-.516.536-1.821.915-3.14.913-.7-.001-1.785-.228-2.331-.488a7 7 0 0 0-.434-.196c-.011 0-.189.352-.395.783-.419.878-.465 1.229-.265 2.028.079.316.089.505.037.693-.26.942-2.497 1.63-4.436 1.364m2.527-.872c.609-.141.997-.322 1.206-.563.127-.145.131-.19.044-.484-.224-.754-.144-1.483.266-2.404.136-.307.226-.595.2-.64-.027-.045-.015-.06.026-.033.043.027.132-.108.205-.312.071-.198.19-.503.266-.678.075-.176.147-.381.16-.457a2.3 2.3 0 0 1 .18-.452c.086-.173.137-.336.112-.362s-.014-.047.025-.047.133-.18.21-.4.18-.483.23-.585.074-.215.052-.252.01-.125.072-.196c.062-.07.148-.225.191-.343l.079-.215-.194.158c-.106.087-.22.158-.254.158s-.326.134-.65.299-.59.283-.59.264-.09.014-.201.072c-.27.143-1.044.332-1.632.4-.623.071-3.044.037-3.044-.044 0-.007-.054-.024-.12-.037-.956-.193-1.481-.364-2.197-.716-.266-.131-.517-.238-.558-.238-.04 0-.164-.087-.275-.194q-.466-.447-.126.308c.213.469.788 2.062.99 2.74.062.21.294.86.515 1.447.535 1.417.617 1.847.498 2.587-.051.314-.071.607-.045.65.11.187.665.47 1.192.609.468.123.745.143 1.593.118.574-.018 1.268-.087 1.574-.158m-3.048-.907c-.022-.06.01-.205.072-.323l.113-.216.003.323c.003.313-.106.438-.188.216m1.627-.44c-.07-.356-.092-.968-.037-1.061.067-.112.11.062.178.707.028.264.016.45-.03.479-.042.027-.092-.03-.11-.126m1.212-.054c-.118-.078-.17-.525-.08-.691.047-.088.069-.072.098.076.065.329.118.684.1.683a1 1 0 0 1-.118-.068m.799-1.073c-.066-.044-.075-.074-.023-.075a.17.17 0 0 1 .133.075c.056.095.03.095-.11 0m-3.36-.308c-.124-.208-.114-.656.017-.656.072 0 .11.114.128.375.027.419-.013.498-.144.28m3.307-.377c-.007-.084.02-.152.057-.152s.065-.026.06-.057c-.021-.142.015-.253.07-.217.052.033.058.301.01.426a.2.2 0 0 0-.006.095c.005.032-.034.057-.086.057s-.1-.068-.105-.152m-4.604-.228c-.025-.042-.01-.076.032-.076s.078.034.078.076-.015.076-.033.076c-.017 0-.052-.034-.077-.076m3.239-.051c-.076-.08-.058-1.381.02-1.431.107-.069.167.407.119.948-.046.513-.06.564-.14.483m-3.35-.182c0-.045.034-.06.074-.034s.073.062.073.08c0 .02-.033.034-.073.034s-.073-.036-.073-.08m4.841-.152c0-.045.033-.06.073-.034s.074.062.074.08-.033.034-.074.034-.073-.036-.073-.08m.74-.269c.003-.088.02-.106.044-.046.02.055.018.12-.006.146-.025.025-.042-.02-.039-.1m-3.56-.888a6 6 0 0 1-.067-.602c-.032-.4-.017-.516.067-.55.08-.032.108.026.113.241.003.156.021.446.04.645.02.226.003.361-.046.361-.043 0-.091-.043-.107-.095m2.498-.044c-.02-.035.05-.392.158-.793.154-.576.223-.728.323-.72.077.005.103.04.067.089a.43.43 0 0 0-.068.193c-.022.288-.149.99-.193 1.063-.026.045-.079.062-.116.038s-.048.01-.024.075c.045.121-.08.168-.147.055m-4.057-.184c-.086-.117-.264-1.125-.208-1.183.022-.023.04-.002.04.047 0 .156.011.202.07.28.095.127.263.95.194.95-.014 0-.058-.042-.096-.094m5.403-.552c-.02-.1-.02-.101.03-.48.049-.37.248-.852.352-.852.038 0 .05-.035.024-.077-.025-.041.003-.076.06-.076.085 0 .072.089-.065.441-.094.242-.18.566-.19.718s-.041.263-.07.244c-.029-.018-.069.01-.09.062-.02.053-.043.062-.051.02m-6.78-.533a2.8 2.8 0 0 1-.164-.647c-.033-.304-.025-.33.072-.229.173.181.35.82.28 1.012-.056.156-.07.146-.188-.136m7.118-.016c-.04-.108-.032-.117.04-.042.05.051.073.113.05.136s-.063-.019-.09-.094m.765-1.162c0-.04.05-.054.11-.03.06.025.11.058.11.074 0 .017-.05.03-.11.03s-.11-.033-.11-.074m3.881 3.29c.024-.035.163-.062.31-.06.148.002.255-.02.238-.048-.016-.028.07-.073.19-.1.122-.028.221-.083.221-.121 0-.039.025-.063.055-.054s.133-.028.227-.083c.15-.086.166-.135.12-.378a6.2 6.2 0 0 1-.131-1.302c-.008-.33.01-.583.041-.563.03.019.055-.034.055-.12 0-.084.046-.266.103-.403.21-.513 1.025-2.841 1.113-3.181l.138-.524c.06-.225.089-.445.063-.488s-.012-.055.03-.029c.042.027.111-.045.154-.16.154-.408.303-1.027.264-1.092-.022-.037-.012-.067.023-.067.034 0 .123-.197.197-.438.074-.24.2-.626.279-.856.153-.445.211-.685.168-.685-.107 0-.25.104-.217.159.022.037-.013.046-.077.02s-.173.005-.242.068c-.115.104-1.409.532-1.87.619-.108.02-.228.057-.266.081-.058.037-.583.103-1.125.142-.07.005-.128.032-.128.06 0 .03-.052.073-.114.098s-.097.017-.077-.017-.151-.034-.381 0c-.23.033-.682.044-1.005.023-.687-.045-.938-.078-1.834-.234l-.22-.039.257.175c.244.166.517.402.953.824.524.508.905 1.425.837 2.014-.072.629-.08.665-.309 1.26-.53 1.378-.968 2.561-.968 2.611 0 .03-.064.2-.142.377-.502 1.136-.733 1.826-.66 1.966.04.08.123.146.182.146s.107.034.107.076.051.076.114.076.1.026.08.057c-.018.031.038.064.125.071.087.008.372.067.634.132.506.124 2.402.114 2.488-.013m-2.515-.84a.2.2 0 0 1 .003-.187.7.7 0 0 0 .072-.2c.021-.143.147-.267.191-.188.06.107-.205.677-.266.574m2.075-.416c-.048-.748-.046-.946.007-1.045.09-.167.219.218.219.655 0 .249.025.33.092.294.05-.026.027.006-.051.072q-.256.216-.267.024m-1.166-1.097c0-.119.045-.412.1-.651.054-.24.08-.456.056-.48-.024-.025.009-.024.072.001.118.047.118.407 0 1.023-.063.328-.23.407-.228.107m2.317.113c.021-.036.07-.045.107-.021.096.061.085.085-.039.085-.058 0-.09-.029-.068-.064m.09-.906c-.084-.092-.097-.155-.043-.211.109-.113-.066-.319-.226-.266-.102.034-.105.028-.015-.038.074-.054.136-.054.198 0 .11.093.244.022.244-.13 0-.06.05-.11.11-.11.144 0 .134.266-.023.614-.116.255-.13.264-.244.14m-.83-.848a2 2 0 0 1 .107-.437.7.7 0 0 0 .067-.174c.004-.032.024-.057.044-.057.037 0 .043.027.03.133-.004.031-.008.17-.01.309-.001.186-.03.24-.106.21q-.105-.042-.048.053c.098.163.089.284-.022.284-.085 0-.098-.068-.061-.32m1.03-.813c-.023-.038.024-.052.105-.03.171.047.193.099.041.099-.058 0-.124-.031-.147-.07m.203-.712c.02-.136.09-.428.156-.648s.096-.44.068-.488q-.045-.08.034-.032c.052.034.084-.001.084-.093a.36.36 0 0 1 .108-.24c.093-.08.103-.032.078.352a5 5 0 0 1-.043.464.3.3 0 0 0-.024.089.27.27 0 0 1-.063.126c-.03.031-.014.11.036.173q.086.113.008.065c-.082-.051-.369.309-.336.423.009.031-.02.057-.063.057-.048 0-.065-.098-.043-.248m.489.208c0-.061.21-.09.29-.039.059.038.023.06-.099.06-.105 0-.191-.01-.191-.02m-2.639-.24c.002-.196.14-1.178.189-1.338.022-.073.074-.133.116-.133.05 0 .058.124.023.361-.03.2-.075.548-.1.775s-.087.426-.138.444c-.051.017-.09-.03-.09-.108m2.938-.786c.107-.233.14-.276.14-.18 0 .041-.05.141-.113.222-.108.14-.11.137-.027-.042m-.088-.514c-.094-.123-.09-.125.046-.021l.177.133c.017.012-.004.021-.046.021s-.122-.06-.177-.133m-1.435-.304a9 9 0 0 1 .074-.438c.018-.084.056-.298.084-.476.053-.332.154-.427.202-.19.016.073.004.253-.025.4a13 13 0 0 0-.155.894c-.004.052-.056.095-.115.095-.083 0-.098-.066-.065-.285m.334.152c-.09-.12-.088-.124.028-.029.122.1.161.162.1.162-.014 0-.072-.06-.128-.133m-1.393-.983c-.025-.493-.025-.62.002-.592.016.017.066-.02.11-.083.062-.087.082 0 .088.37.005.357-.019.482-.092.482-.054 0-.103-.08-.108-.177m2.253-.377c-.025-.067-.013-.247.027-.4.04-.152.08-.385.09-.519.017-.247.12-.28.127-.041.002.072.007.183.012.245.004.063-.01.235-.031.381s-.04.31-.043.362c-.008.135-.128.117-.182-.028m.983-.208c0-.307.134-.735.23-.735.04 0 .049.137.021.324-.026.178-.052.4-.057.494-.017.28-.194.202-.194-.083m-.073-1.237c0-.007.056-.06.124-.117s.101-.064.073-.015c-.028.048-.01.105.04.125.052.02.019.033-.072.028a.6.6 0 0 1-.165-.02m-15.762 8.803c.296-.094.351-.136.277-.213-.075-.076-.073-.095.01-.095.07 0 .057-.037-.04-.12-.08-.065-.102-.098-.052-.071.119.062.117-.1-.003-.342a9 9 0 0 1-.266-.666c-.093-.261-.2-.476-.238-.476s-.06-.042-.051-.095c.016-.095-.12-.645-.232-.932a7 7 0 0 1-.153-.51c-.052-.195-.12-.339-.153-.318-.054.034-.089-.08-.067-.22.005-.032-.105-.31-.245-.615-.64-1.4-.21-2.655 1.265-3.693.531-.374 1.455-.817 1.843-.886.164-.028.299-.085.299-.126s.032-.053.072-.028.212.006.385-.044c.37-.106.534-.136 1.12-.207l.44-.052.293-.92c.36-1.124.328-1.021.38-1.25.024-.105.064-.224.088-.266a.4.4 0 0 0 .047-.114c.003-.021.077-.236.166-.478.089-.241.155-.464.148-.495s.062-.225.156-.432c.093-.208.174-.456.179-.551s.05-.19.101-.21c.05-.02.092-.086.092-.146s.065-.257.145-.44q.291-.668-.017-.365c-.285.281-1.027.74-1.393.862-.07.023-.128.086-.127.14 0 .076.014.075.063-.004.05-.082.07-.08.105.016.05.136-.063.241-.133.123a.09.09 0 0 0-.126-.027q-.073.043-.028-.037c.06-.1.033-.108-.133-.042-.063.025-.097.076-.075.113s-.011.047-.074.022-.114-.01-.114.033c0 .042-.132.1-.294.129s-.279.076-.26.105c.017.03-.072.047-.2.038a.9.9 0 0 0-.426.088c-.107.058-.215.084-.24.057-.026-.026-.047-.01-.047.035 0 .049-.091.067-.228.045-.125-.02-.21-.01-.19.025s-.067.069-.194.075c-.127.007-.38.035-.561.062-.617.092-2.454.088-3.175-.007a20 20 0 0 1-1.556-.29c-.46-.108-.931-.195-1.046-.195s-.24-.03-.277-.067c-.039-.037-.35-.176-.693-.31a12 12 0 0 1-1.156-.54c-.292-.162-.531-.278-.531-.258s.053.165.118.32c.114.274.971 2.863 2.691 8.125l.821 2.512-.002.837c-.001.8-.013.866-.275 1.479-.15.353-.273.73-.273.84 0 .437.501.819 1.4 1.068.67.185 2.061.187 2.64.004m-.813-1.33c0-.29.035-.514.085-.546.046-.03.066-.023.044.015-.043.073.126.274.181.216.018-.018.032.017.032.078 0 .06-.019.098-.043.083s-.037.106-.032.27c.006.163-.018.278-.055.254-.036-.023-.065-.006-.065.039 0 .044-.033.08-.074.08s-.073-.214-.073-.49m-1.04.255c-.048-.148.244-.971.36-1.018.115-.046.113-.025-.058.654-.077.303-.254.517-.303.364m-1.26-.205c-.02-.034.028-.212.107-.395.1-.231.167-.31.22-.254.053.054.043.16-.031.346-.114.282-.235.406-.296.303m2.52-.698c0-.04.033-.093.072-.118.042-.027.054.004.03.071-.05.132-.102.156-.102.047m-2.223-1.347c-.072-.076-.06-.503.018-.632.05-.08.08-.038.116.165.05.272-.036.568-.134.467m.683-1.341c0-.01-.078-.242-.172-.514-.214-.615-.3-1.066-.203-1.066.095 0 .161.117.231.41.032.13.11.436.174.679.138.521.137.51.043.51-.04 0-.073-.009-.073-.02M8.516 19a1.6 1.6 0 0 1-.017-.442c.029-.177.032-.175.122.047.124.305.137.585.03.624-.052.02-.107-.074-.135-.229m1.543-1.67c-.111-.486-.154-.88-.11-1.008.08-.237.165.03.26.817.046.374-.074.525-.15.19m-1.272-.647c-.108-.215-.148-1.009-.051-1.009.086 0 .321.91.274 1.059-.04.124-.148.1-.223-.05m-1.232-.647a.6.6 0 0 1-.041-.229c.008-.031-.022-.057-.067-.057-.05 0-.063-.074-.034-.197.035-.142.023-.18-.04-.14q-.085.053-.034-.033c.07-.118.19-.036.19.131 0 .073.03.165.068.205.095.099.157.49.078.49-.035 0-.089-.076-.12-.17m4.595-.229c0-.094.052-.36.116-.59s.114-.486.112-.57c-.002-.124.01-.13.067-.038.039.063.052.319.03.57-.06.665-.096.8-.218.8-.064 0-.108-.07-.107-.172m2.167-.155c.028-.075.069-.118.091-.094.023.023 0 .085-.05.136-.072.075-.08.066-.041-.042m-1.013-.023c-.061-.063.018-.737.097-.837.037-.046.045-.106.018-.134-.026-.027-.01-.05.038-.05.086 0 .067.607-.023.758-.022.038.018.084.089.103.096.026.086.037-.04.044-.093.005-.15.043-.124.085.05.083.014.103-.055.031m1.338-.255c0-.04.033-.093.073-.118.041-.027.054.004.029.072-.05.131-.102.156-.102.046m1.32.01a.27.27 0 0 1-.133-.165c-.018-.083.015-.075.128.031.206.194.208.228.005.133m-5.03-.197c-.126-.142-.123-1.267.004-1.492.12-.215.12-.218.138.61.015.72-.031 1.008-.143.882m3.09.036c-.049-.082.095-.196.16-.128.025.026.004.046-.045.046-.05 0-.07.034-.045.076s.03.076.009.076-.056-.031-.079-.07m1.037.02c-.062-.064.088-.255.197-.252.046.002.021.04-.054.085-.11.067-.118.096-.037.149.055.036.065.067.021.067a.2.2 0 0 1-.127-.049m.36-.698c-.02-.035.01-.064.067-.064s.086.029.066.064c-.021.035-.05.063-.066.063s-.045-.028-.066-.063m-.777-.229c0-.034.023-.087.051-.116a.3.3 0 0 0 .066-.146l.065-.43c.027-.187.1-.495.163-.686.124-.38.155-.51.163-.703a.44.44 0 0 1 .112-.239c.059-.06.092-.131.074-.157s-.009-.027.021-.003.058.136.061.247c.004.12.043.195.097.183.05-.012.07.014.044.058-.025.044-.076.06-.111.038-.036-.023-.085.088-.11.246-.026.158-.09.459-.145.668l-.181.706c-.046.18-.115.306-.153.281-.039-.024-.07-.008-.07.036 0 .045-.033.081-.073.081s-.074-.029-.074-.063m-5.22-.926c-.013-.377.002-.685.033-.685.11 0 .2.396.2.88 0 .374-.025.49-.105.49-.081 0-.11-.153-.128-.685m-1.465.495c-.06-.096-.209-.669-.243-.937a2.4 2.4 0 0 0-.076-.357c-.04-.124-.022-.118.102.038.083.105.152.253.153.329s.037.205.08.288c.081.158.067.77-.016.64m6.465-.114c-.066-.044-.075-.074-.022-.075a.17.17 0 0 1 .132.075c.057.094.031.094-.11 0m2.06-.076c.107-.233.14-.276.14-.18 0 .041-.05.141-.114.222-.107.14-.109.137-.026-.042m-2.717-.124c.003-.285.18-1.234.243-1.298.121-.126.137.103.047.7-.053.356-.14.686-.195.732-.078.067-.097.04-.095-.134m-1.349.005c-.043-.146.113-.986.2-1.077.097-.1.118.046.072.498-.053.531-.195.833-.272.579m3.48-.172c.098-.436.087-.486-.099-.434-.143.04-.147.036-.036-.037.071-.046.16-.065.196-.041.082.053.245-.699.178-.821q-.04-.076.013-.03c.057.054.248-.493.275-.786.006-.065.086-.124.179-.132.185-.016.198.01.102.198a1.6 1.6 0 0 0-.1.4c-.02.149-.074.345-.12.437-.048.092-.065.166-.038.166.026 0 .015.043-.025.096-.04.052-.096.284-.123.514-.054.467-.084.53-.308.66-.151.087-.154.08-.094-.19m-.479-.188c.028-.075.069-.118.091-.094.023.023 0 .085-.05.136-.072.075-.08.066-.04-.042m.985-.282c0-.042.035-.077.078-.077s.057.035.033.077c-.025.041-.06.076-.078.076s-.033-.035-.033-.076m-9.929-.464-.148-.482c-.127-.408-.093-.55.075-.312.178.253.286.716.19.816-.063.064-.092.059-.116-.022m7.671-.267c-.052-.059-.062-.107-.022-.107.076 0 .186.145.143.188-.014.014-.069-.023-.12-.081m2.552-.03c-.043-.084-.062-.153-.042-.153s.072.069.115.152c.043.084.062.153.042.153s-.072-.069-.115-.153m.176-.256c0-.137.032-.17.135-.143.127.035.128.045.01.18-.153.176-.145.178-.145-.037m-.958-.336c-.01-.174-.001-.183.063-.064.04.075.046.166.011.202-.034.036-.067-.026-.074-.138m.268-.327c0-.044.033-.06.074-.033s.073.062.073.08-.033.034-.073.034-.074-.036-.074-.08m3.012 11.13c1.154-.263 1.785-.548 2.502-1.132 1.087-.885 1.312-2.079.594-3.15-.248-.368-1.313-1.13-1.902-1.361-1.953-.763-4.525-.805-6.54-.108-.649.225-1.636.793-2.005 1.156-.405.397-.671 1.072-.634 1.606.04.559.327 1.174.754 1.616.647.67 2.047 1.292 3.403 1.513.752.123 3.042.039 3.828-.14m-3.458-.318c-1.557-.189-3.267-1.024-3.751-1.832-.444-.74-.341-1.46.303-2.129 1.415-1.468 4.936-1.95 7.54-1.03 2.432.858 3.09 2.493 1.52 3.774-.605.494-1.073.73-1.886.953a10 10 0 0 1-3.726.264m2.403-.5c.136-.039.15-.071.086-.215-.113-.257-.636-.577-.939-.575-.334.002-.83.236-.984.464-.235.348-.185.372.779.37.494 0 .97-.02 1.058-.045m1.21-.224c.24-.065.614-.204.83-.31l.392-.193-.09-.28c-.069-.211-.17-.32-.413-.45-.546-.29-1.063-.19-1.508.291-.178.193-.196.248-.118.358.05.072.149.259.218.415.07.157.154.285.189.286.034 0 .26-.052.5-.117m-3.863-.264c.026-.043.072-.061.103-.041.03.02.165-.059.299-.175.216-.187.237-.24.195-.475-.067-.369-.508-.828-.807-.839-.405-.015-.59.02-.867.168q-.503.265-.498.714c.005.464.39.724 1.075.725.25 0 .475-.035.5-.077m5.785-.927q-.044-.08.034-.03c.047.029.085.015.085-.032 0-.046.033-.063.075-.037s.069.02.062-.014c-.021-.1.198-.565.243-.518.08.084-.065-.54-.178-.763-.063-.125-.2-.31-.303-.41-.104-.1-.168-.218-.142-.26.026-.044.009-.053-.04-.021-.05.03-.185-.03-.31-.14-.387-.338-1.324-.578-2.988-.764-.812-.091-1.802-.047-2.39.105-.32.083-.606.135-.637.115s-.075-.004-.098.035-.174.094-.336.122c-.182.032-.275.083-.244.134q.044.079-.07.035c-.067-.027-.141-.013-.167.03-.025.043-.092.06-.149.037-.056-.022-.102-.002-.102.046 0 .047-.021.064-.047.038-.059-.061-.283.06-.632.345-.248.202-.397.45-.19.317q.081-.05.03.038-.054.093-.143.015c-.062-.053-.114-.032-.175.07q-.087.144-.012.193.075.048-.013.159c-.067.083-.068.132-.003.198q.084.088.084.007c0-.142.327-.07.406.089a.26.26 0 0 0 .239.143c.09-.005.162.025.162.065 0 .041-.047.056-.104.033-.128-.05-.186.09-.119.286.049.141.057.14.216-.025.09-.094.146-.222.124-.283-.024-.066-.01-.092.033-.065.048.031.059-.029.029-.167-.025-.118-.063-.31-.084-.425s-.07-.209-.111-.209-.055-.047-.034-.105a.19.19 0 0 0-.034-.18q-.075-.077.097-.067c.182.01.297.144.335.388.013.083.06.186.105.229.06.056.068.035.03-.075-.04-.12-.032-.132.038-.06.067.07.068.118.005.197-.067.084-.045.125.107.196.168.08.186.076.144-.036-.04-.107-.029-.112.065-.032.082.071.112.073.112.007 0-.05.03-.07.067-.047.065.041.053-.264-.023-.605a2 2 0 0 1-.039-.252c-.003-.06-.043-.077-.097-.043-.069.043-.068.027.003-.065.061-.078.07-.139.022-.169-.109-.07-.018-.25.15-.295.117-.032.129-.02.061.065-.065.082-.044.147.099.295.114.119.15.203.098.226-.061.026-.059.055.01.105.051.038.072.126.046.196-.058.158.152.508.305.508.062 0 .092-.035.067-.078a.09.09 0 0 0-.126-.026q-.074.045-.024-.042c.042-.07.09-.06.195.038.109.103.14.108.14.024.001-.087.015-.086.078.007.063.094.07.087.041-.038-.02-.083-.058-.299-.085-.479-.043-.285-.063-.314-.164-.228-.102.087-.105.079-.03-.068.15-.292.091-.374-.099-.138-.1.125-.18.194-.174.152.024-.19-.014-.272-.1-.218q-.09.054.012-.075.103-.134.178-.054c.089.092.269-.036.269-.19 0-.056.038-.125.084-.155.05-.033.065-.021.036.028-.027.045.013.103.089.128s.135.104.132.176c-.015.32.11.703.23.709q.123.007.03.045c-.077.032-.077.062 0 .161.073.092.074.108.004.064-.1-.062-.096.143.006.314.085.141.208.112.445-.105.164-.15.212-.255.204-.457a1.1 1.1 0 0 0-.075-.383c-.078-.145.048-.728.15-.693.038.013.07.048.07.077 0 .03.045.229.1.443.054.214.079.443.055.508-.037.099-.008.108.17.055.335-.099 1.081-.085 1.19.022a.36.36 0 0 0 .216.095c.101 0 .099-.015-.016-.103-.106-.08-.115-.116-.04-.164q.1-.064.038.037-.06.098.044.059c.056-.021.093-.077.083-.124s.01-.086.046-.086.084-.133.11-.296c.024-.163.095-.316.155-.34.166-.066.143.367-.04.76-.12.257-.135.358-.071.481.044.086.109.157.144.157s.099.105.142.234c.073.218.097.23.32.178.356-.085.738-.083.863.005.095.067.096.06.009-.056-.08-.107-.083-.156-.01-.247.05-.063.063-.115.028-.116-.035 0-.03-.026.012-.057.041-.03.176-.2.3-.378s.246-.3.273-.273c.1.105.038.307-.217.701l-.265.408.21.174c.22.181.359.175.289-.014-.023-.06-.013-.093.02-.071.034.021.155-.063.27-.187.114-.124.251-.225.304-.225.122 0 .125.185.005.321-.429.487-.419.464-.338.795.076.312.079.314.22.168.078-.082.119-.186.091-.233m-8.278-.898c-.027-.045.006-.055.08-.026.078.031.16-.003.223-.091.083-.117.1-.12.1-.02 0 .179-.315.286-.403.137m6.3-.031c-.047-.124.122-.742.292-1.074.064-.125.117-.29.117-.366s.034-.116.074-.09c.116.074.086.433-.077.92-.083.247-.17.51-.192.583-.05.16-.16.174-.215.027m-6.59-.315c-.078-.062-.105-.112-.06-.112a.17.17 0 0 1 .13.078.09.09 0 0 0 .126.026q.072-.044.027.037c-.063.106-.049.108-.223-.029m.35-.002c0-.057.033-.082.074-.056.044.028.054-.005.025-.083s-.019-.112.024-.084c.105.067.09.243-.025.288-.054.022-.098-.008-.098-.065m.93-.11c-.06-.2-.054-.314.013-.245a.19.19 0 0 1 .037.181c-.022.056-.044.085-.05.064m.146-.157c0-.044.033-.059.073-.033s.074.062.074.08-.033.034-.074.034-.073-.036-.073-.08m-.367-.147c.043-.084.091-.153.106-.153s.01.069-.011.153-.069.152-.106.152-.032-.068.011-.152m-.825.025a.27.27 0 0 1 .183 0c.05.022.01.039-.091.039s-.142-.017-.092-.039m2.996-.165c-.02-.035.01-.063.066-.063.057 0 .087.028.066.063s-.05.064-.066.064c-.015 0-.045-.029-.066-.064m1.028-.103c.021-.035.07-.045.107-.02.096.061.085.085-.039.085-.059 0-.09-.029-.068-.065m.576.01c-.067-.113-.014-.153.104-.077.063.04.07.08.021.111-.042.027-.098.012-.125-.034m-3.592-.15c-.025-.042-.075-.058-.11-.036-.034.022-.081.01-.104-.028s.028-.088.113-.11c.084-.023.133-.022.11.003s-.007.09.038.147.063.102.04.102c-.022 0-.062-.035-.087-.077m1.877-.055c.003-.085.02-.097.043-.035.03.076.062.078.143.008.085-.072.096-.066.058.035-.061.167-.252.16-.244-.008m1.731.008c-.078-.08-.06-.545.023-.598.04-.026.076-.02.079.015.006.067.055.347.085.487.022.103-.113.172-.187.096m-3.057-.175c0-.04.032-.092.072-.118.042-.027.054.004.029.072-.049.132-.101.156-.101.046m-1.7 2.108a13 13 0 0 1-.187-.54c-.032-.108-.054-.117-.103-.037-.051.084-.062.084-.063-.002 0-.064-.046-.085-.121-.055-.1.04-.105.029-.028-.068.051-.064.075-.116.053-.116a.7.7 0 0 1-.16-.048c-.102-.04-.117-.006-.093.209.026.23.051.256.244.245.118-.006.176.004.13.023-.046.02-.075.093-.065.164s.004.087-.014.034c-.017-.053-.067-.073-.11-.045q-.078.047-.02-.057c.046-.085.039-.088-.04-.013-.08.077-.073.12.037.245.073.084.157.137.188.117.03-.02.075.016.098.079.024.062.083.105.133.094s.096.023.103.076c.022.17.03.18.098.137.037-.024.001-.22-.08-.442m5.22.306c0-.032.118-.194.263-.36.144-.166.251-.36.238-.43-.064-.336-.752-.569-1.341-.454-.28.055-.74.421-.808.645-.023.075.006.253.064.396l.104.26h.74c.407 0 .74-.026.74-.057m-5.647-1.46c-.057-.058-.098-.05-.145.028-.092.155-.01.257.118.147.076-.066.084-.115.027-.174m2.502-.979c-.072-.074-.08-.066-.04.043.027.075.068.117.09.094.023-.024 0-.085-.05-.137m11.027-2.038c1.602-.32 3.052-1.025 3.71-1.801.286-.34.51-.867.51-1.206 0-.43-.287-1.097-.619-1.442-.678-.703-2.124-1.418-3.452-1.705-2.073-.447-5.086-.219-6.521.495-.726.36-.997.628-1.186 1.17-.123.352-.138.444-.052.318.162-.239.887-.742 1.448-1.006 1.787-.841 4.935-.901 7.11-.136.693.245 1.606.726 1.944 1.026.756.672.843 1.57.219 2.273-.57.642-2.1 1.3-3.533 1.517-3.055.463-6.503-.396-7.538-1.878l-.206-.296-.078.29c-.042.16-.077.35-.078.421-.002.591 1.95 1.596 3.814 1.964 1.052.207 3.462.206 4.508-.004m-7.002-.18c0-.018-.165-.137-.367-.266-.4-.256-.405-.255-.283.023.075.171.165.214.558.263.05.006.092-.003.092-.02m-1.347-.297a4 4 0 0 0-.16-.466c-.115-.287-.118-.289-.226-.128q-.138.205-.186.608c-.015.135.037.162.314.162.278 0 .298-.014.258-.176m8.424-.665c.496-.137.479-.121.397-.364-.15-.45-1.018-.63-1.586-.329-.345.183-.507.366-.576.652l-.053.221.762-.05c.42-.027.895-.086 1.056-.13m-2.872-.156c.37-.255.406-.371.24-.785-.338-.84-1.669-.977-2.219-.228-.16.22-.185.316-.154.606.02.19.054.362.073.383.074.075.985.248 1.345.253.3.005.439-.04.715-.229m4.596-.516c0-.027-.074-.096-.165-.153-.13-.08-.145-.082-.073-.003.115.126.12.25.007.177-.052-.033-.065-.02-.035.03.05.085.266.043.266-.05m-.57-.037q.073.043.026-.038c-.062-.105-.192-.042-.184.089q.005.097.043-.005c.02-.053.073-.073.116-.046M20.1 13.83c-.03-.094-.05-.24-.045-.323.008-.125-.004-.132-.067-.038-.057.086-.066.057-.036-.115.022-.125.021-.185 0-.133s-.072.095-.11.095c-.089 0-.054-.247.045-.322.043-.033.028-.057-.036-.059-.098-.002-.098-.01 0-.076.08-.053.083-.074.014-.075-.053 0-.076-.035-.051-.077s.017-.076-.018-.076c-.034 0-.064-.077-.065-.171a3 3 0 0 0-.056-.438c-.034-.17-.029-.23.014-.165.037.056.089.099.115.095.139-.019.193.002.193.075 0 .12.209.316.285.267.036-.023.102.004.148.061.065.082.047.099-.093.083-.167-.019-.17-.011-.072.192.097.203.351.34.478.26.033-.021.013-.154-.043-.295-.057-.14-.088-.272-.069-.292.02-.02-.018-.227-.083-.46-.082-.291-.15-.41-.217-.383a.13.13 0 0 1-.154-.054q-.054-.09.032-.036c.048.03.133.018.187-.03.074-.063.126-.056.208.029.06.062.126.095.147.073.021-.021.063.003.094.054q.052.09-.03.038c-.05-.032-.084-.004-.084.07 0 .067.032.102.072.076s.055.002.033.062.02.17.092.246c.073.075.124.148.113.162s.002.114.028.222c.035.146.064.17.11.095.048-.08.063-.072.064.03 0 .074-.038.134-.085.134s-.063.023-.037.05.107-.004.178-.07c.13-.123.155-.132.342-.132.12 0 .099-.262-.07-.887a4 4 0 0 1-.107-.476c0-.142.208-.092.255.062.024.08.092.164.15.187s.087.094.064.156c-.023.063.008.22.07.35s.096.282.075.34c-.041.111.37.38.476.312.032-.02.065-.333.073-.694.011-.49-.007-.642-.072-.6-.052.033-.068.023-.039-.026.09-.15.297-.045.358.179.072.268.087 1.06.022 1.17-.083.14.043.085.318-.137.147-.118.325-.237.395-.264.07-.026.129-.085.129-.131s-.028-.065-.062-.044c-.033.022-.06-.01-.06-.072 0-.06.029-.11.064-.11s.058-.129.049-.286c-.023-.381.133-.827.268-.771.105.043.064.43-.112 1.056-.091.327-.091.325.001.266.141-.09 1.163-.043 1.406.065.133.06.321.187.418.283s.158.125.138.066c-.036-.108.196-.602.475-1.01.109-.159.163-.19.206-.118.07.116-.072.498-.374 1.006-.173.292-.202.396-.14.515.042.082.057.18.035.219-.023.038.03.14.119.225.12.117.184.135.258.072.054-.047.097-.125.097-.174s.164-.29.364-.535.344-.481.319-.523c-.025-.041-.013-.055.026-.03.04.025.155-.034.257-.133.105-.1.224-.154.272-.123.1.064-.019.242-.63.951-.213.248-.387.494-.387.548a.2.2 0 0 1-.085.15q-.08.05-.032-.033c.028-.048.017-.088-.026-.088-.121 0-.091.192.052.326.108.102.67.175.574.075-.076-.08.592-.777.965-1.009.229-.142.238-.142.238-.008a.38.38 0 0 1-.122.245 3 3 0 0 0-.33.402c-.114.163-.208.266-.209.228 0-.038-.032-.018-.069.043a.175.175 0 0 0 .01.21c.114.141.273-.016.234-.23l-.031-.168.073.172c.04.094.092.171.116.171s.023-.034-.002-.076.018-.076.095-.076c.165 0 .406-.252.327-.342-.03-.035-.014-.039.036-.01.083.05.523-.334.538-.47.004-.03.02-.14.037-.244.083-.522-.69-1.172-1.803-1.516a29 29 0 0 1-.733-.235c-.166-.059-1.132-.224-1.98-.34-.533-.071-2.677-.044-2.677.034 0 .007-.116.027-.257.046s-.269.072-.284.118q-.027.083-.074.005c-.03-.051-.135-.037-.302.041-.141.066-.301.112-.356.103s-.161.042-.238.114-.14.103-.14.07c0-.035-.065 0-.146.075-.083.079-.147.1-.147.05 0-.147-.144-.098-.334.115-.1.11-.202.18-.229.152s-.004-.05.05-.05.08-.018.06-.04c-.063-.065-.283.05-.239.124.022.038-.013.068-.079.068-.085 0-.106.043-.072.152.027.091.013.153-.036.153-.046 0-.063-.035-.038-.076.025-.042-.007-.077-.071-.077-.095 0-.102.03-.038.154.106.205.03.314-.18.26-.1-.027-.195-.006-.227.049q-.05.087.02.045c.045-.029.09.05.11.19.03.207.022.222-.058.109-.058-.083-.11-.101-.14-.05-.026.044-.01.08.035.08.05 0 .064.063.033.163-.032.103-.022.144.027.113a.087.087 0 0 1 .122.028c.025.043.006.077-.044.077s-.069.022-.043.05c.026.026.094.008.152-.041.057-.05.132-.08.166-.068.035.012.063-.013.063-.055s-.027-.066-.06-.055c-.034.012-.042-.01-.02-.048.023-.039-.007-.112-.067-.164s-.11-.13-.11-.175.045-.019.1.059c.076.11.111.118.157.04q.059-.097-.025-.045c-.047.03-.085.022-.085-.017 0-.04.07-.09.154-.114.085-.023.135-.022.113.002-.023.023-.003.115.045.204a1 1 0 0 1 .089.212c.001.028.074.136.161.24.088.105.171.27.186.369.014.097.063.17.108.16.047-.008.067.046.047.126-.02.077 0 .163.043.191.044.028.07.006.058-.048-.012-.055.011-.022.051.072s.102.171.138.171c.035 0 .04-.077.01-.171m8.08-.34c-.04-.108-.032-.117.04-.042.05.052.073.113.05.137-.022.023-.063-.02-.09-.094m-8.806-.706c-.025-.043.004-.056.07-.03.126.05.15.105.044.105-.038 0-.09-.033-.114-.075m1.22.007c-.056-.036-.089-.105-.074-.152.016-.048.068-.018.12.067.103.171.098.18-.047.085m-1.184-.303c0-.037.058-.114.129-.171.113-.093.118-.09.037.017-.05.066-.07.143-.043.17s.01.05-.037.05-.086-.03-.086-.066m1.87-.163c-.025-.042-.077-.057-.114-.033-.105.067-.082-.012.032-.11.08-.068.11-.054.14.067.042.166.016.2-.058.076m.218-.004c-.027-.044-.03-.101-.005-.126s.009-.088-.033-.14c-.054-.067-.05-.112.012-.152q.085-.053.036.031c-.03.048-.021.088.017.088s.065.086.06.19c-.012.215-.02.224-.087.11m-2.234-.181c0-.06.218-.106.249-.054.019.031-.03.062-.108.068s-.141 0-.141-.014m3.178-.077c0-.06.028-.092.062-.07s.044.071.02.11c-.059.1-.082.089-.082-.04m-2.115-.041c-.12-.053-.124-.066-.022-.07.068-.004.144.028.169.07.052.088.05.088-.147 0m.743-.06c-.02-.033.026-.06.1-.06s.12.027.1.06a.13.13 0 0 1-.1.06.13.13 0 0 1-.1-.06m3.768-.051c0-.012.065-.176.145-.364.147-.343.337-.572.412-.495.063.066-.13.657-.247.758-.096.083-.31.153-.31.1m-4.694-.122c0-.044.038-.056.086-.025q.09.059.032-.091c-.04-.111-.033-.125.032-.057.048.048.064.125.037.171-.063.106-.187.107-.187.002m-.587-.148c.043-.083.095-.152.115-.152s.002.069-.042.152c-.043.084-.095.153-.115.153s-.001-.069.042-.153m1.402.062c-.01-.161.11-.246.181-.127.032.053.022.069-.026.038-.043-.028-.094.01-.113.084-.03.12-.034.12-.042.005m1.369-.151c.066-.069.065-.118-.004-.21-.08-.105-.075-.107.04-.014.098.08.11.13.045.21-.045.057-.102.103-.125.103s-.004-.04.044-.09m-1.121-.292c-.073-.084-.12-.166-.103-.183.016-.016.09.053.162.153.16.222.124.24-.06.03m2.868 2.58c.192-.22.614-.432 1.054-.53.427-.096.484-.261.194-.563-.23-.238-.612-.307-1.07-.193-.61.152-.912.515-.63.758.098.085.233.506.202.632-.028.112.112.055.25-.103m-5.015-.485q-.127-.176-.18-.088c-.039.063-.054.06-.055-.008 0-.052-.04-.095-.09-.095-.12 0 .062.19.184.192.048.001.084.058.079.127-.006.076.03.11.09.086.079-.031.073-.074-.028-.214m1.597-.267c0-.042-.014-.076-.032-.076s-.053.034-.078.076-.01.076.033.076a.077.077 0 0 0 .077-.076m-1.687-.076a.077.077 0 0 0-.077-.076c-.043 0-.058.034-.033.076s.06.076.078.076.032-.034.032-.076m0-.977c0-.11-.083-.156-.196-.111-.09.035-.091.055-.011.107.125.083.207.084.207.004m-5.867-1.087c1.241-.139 2.504-.495 3.395-.957.274-.142.535-.234.58-.205.046.03.061.018.034-.027-.025-.044.06-.125.19-.18.657-.278 1.554-1.235 1.779-1.898.524-1.541-.975-3.184-3.588-3.932-1.52-.434-3.839-.604-5.563-.406-2.42.277-4.956 1.442-5.744 2.64-.962 1.46-.185 2.86 2.227 4.007 1.956.931 4.14 1.244 6.69.958m-2.858-.531C8.917 10.283 7.15 9.764 6.24 9.24c-.887-.511-1.556-1.208-1.72-1.793-.254-.9.765-2.058 2.386-2.713 1.268-.512 2.316-.754 3.765-.869.903-.071 1.258-.065 2.212.04 1.825.2 2.574.399 3.794 1.005 1.383.688 2.064 1.853 1.643 2.81-.167.378-1.098 1.3-1.588 1.574-.404.224-1.728.697-2.429.867-1.174.283-2.767.384-4.058.255m2.77-.639c.057-.059-.287-.307-.482-.348-.257-.054-.735.053-.97.216l-.183.128.256.052c.246.05 1.321.013 1.38-.048m-1.947-.299c.223-.242.416-.37.662-.437.19-.053.346-.136.346-.184 0-.189-.463-.736-.72-.85-.348-.155-1.073-.154-1.423.001-.503.223-.713.876-.455 1.413.064.132.165.24.225.24s.094.026.075.057c-.018.032.194.067.47.08l.505.022zm3.418.054c.297-.072.557-.177.578-.232.07-.192-.193-.743-.423-.884-.293-.18-.933-.245-1.27-.129-.254.087-.708.478-.708.61 0 .033.098.103.217.154.12.051.326.21.459.35.28.3.397.313 1.147.131m-5.97-.195c-.024-.064-.122-.133-.22-.152-.096-.019-.158-.006-.137.03.022.036.083.065.137.065s.118.057.144.126c.025.068.063.108.083.087s.017-.091-.007-.156m7.466-.372c-.064-.066-.058-.141.023-.304.06-.119.113-.242.12-.274s.163-.304.347-.605.427-.709.54-.906c.16-.278.226-.338.294-.267.068.07.03.203-.17.594-.325.638-.664 1.185-.782 1.261-.05.033-.072.11-.05.171q.04.112-.094.119c-.075.003-.097.022-.049.043s.164-.007.257-.06a.56.56 0 0 1 .294-.077c.069.011.168-.05.22-.137.051-.086.142-.156.202-.156.111 0 .81-.67.81-.777 0-.033.068-.131.152-.218.171-.178.183-.652.024-.984-.103-.216-.473-.588-.8-.803-.456-.3-1.327-.664-1.797-.75a.6.6 0 0 1-.183-.05c0-.018-.069-.03-1.1-.199-.611-.1-1.29-.132-2.798-.135-1.89-.004-1.999.003-2.157.148-.092.083-.143.108-.112.054.04-.072.01-.088-.116-.06l-.774.165c-.364.077-.585.159-.557.206.027.045.01.053-.042.02-.048-.03-.142-.01-.209.046q-.127.108-.065.007c.03-.053.02-.096-.023-.096a.077.077 0 0 0-.078.076c0 .042-.024.07-.055.062-.114-.03-.531.106-.531.173 0 .038.038.07.085.07s.064.022.039.049-.09.014-.141-.028c-.066-.054-.185-.026-.401.095-.17.094-.288.192-.263.218s-.023.047-.106.047c-.137 0-.28.182-.253.32.006.03-.035.037-.09.014-.122-.048-.225.091-.118.16a.18.18 0 0 1 .073.138q0 .091-.064-.012c-.05-.08-.097-.084-.219-.017-.086.048-.16.12-.165.16a.57.57 0 0 1-.097.298q-.066.11.028.142c.076.026.076.045.002.092-.059.038-.07.11-.033.2.032.078.056.16.052.183-.003.023.082.036.19.029.326-.021.348-.032.234-.109q-.115-.075-.016-.075c.051 0 .112.048.134.109.022.06.095.091.163.07.104-.033.103-.026-.007.047-.07.047-.165.063-.21.034q-.082-.054-.026.13c.053.174.05.176-.09.047-.177-.165-.25-.17-.194-.016.024.065.061.1.083.077.052-.054.243.113.204.179-.017.028.03.05.102.05.074 0 .12-.038.102-.085s.027-.134.1-.193c.116-.095.121-.093.044.01-.055.072-.063.157-.022.226.054.092.073.088.113-.022a.4.4 0 0 0-.008-.264 2 2 0 0 1-.072-.19.2.2 0 0 0-.033-.077c-.036-.04-.052-.745-.016-.707.021.022.088-.003.149-.055.096-.082.098-.074.012.07-.084.139-.08.18.02.285.141.147.188.154.175.027-.013-.115.032-.133.325-.133.204 0 .214.01.11.12-.064.065-.116.15-.116.19 0 .038-.034.07-.076.07q-.076.001.003-.152c.1-.193-.01-.198-.177-.008q-.126.145-.047.196c.044.028.06.083.038.122-.024.039-.008.07.035.07s.078.05.078.11c0 .178.221.357.378.305a.28.28 0 0 1 .242.04c.06.051.117.057.143.014.023-.04-.04-.093-.14-.12-.184-.047-.271-.348-.102-.348.045 0 .062.05.039.114-.023.062-.006.114.037.114.047 0 .062-.07.036-.171a1.5 1.5 0 0 1-.046-.271c0-.055-.03-.081-.066-.058-.035.023-.063-.001-.061-.053.01-.287-.03-.442-.112-.431-.195.026-.37-.008-.318-.063a.2.2 0 0 1 .134-.057c.043 0 .087-.063.098-.139q.02-.14-.086-.097c-.085.034-.091.013-.029-.108.075-.145.045-.186-.11-.153-.04.008-.048-.011-.017-.044.094-.097.346-.087.346.015 0 .052.025.106.055.12s.107.128.17.254c.067.133.169.223.244.217.12-.01.12-.002-.005.146-.124.146-.124.154-.005.109.07-.027.128-.016.128.025 0 .04-.032.074-.07.074-.04 0-.056.044-.036.098.056.151.32.115.372-.05.04-.135.052-.137.113-.023.038.07.125.126.193.125.11-.003.112-.013.013-.096a.35.35 0 0 1-.11-.238c.001-.08-.044-.162-.1-.181-.056-.02-.081 0-.056.042s0 .117-.056.166c-.072.062-.118.064-.152.006-.026-.045-.006-.072.045-.06.052.011.099-.014.104-.056s.036-.14.069-.217.03-.163-.006-.19c-.063-.047-.084-.11-.141-.406a1.3 1.3 0 0 0-.103-.281c-.059-.113-.056-.167.013-.207.05-.03.068-.028.04.005-.077.088.148.497.274.497.059 0 .1.027.09.061-.025.08.256.624.32.624.028 0 .033.069.012.152-.021.085-.002.153.044.153.045 0 .083.06.084.133.003.176.191.43.248.334.024-.04.012-.085-.028-.1-.04-.013-.082-.093-.094-.177a.8.8 0 0 0-.075-.239c-.03-.05.008-.103.094-.126.08-.022.129-.01.107.026-.062.104.047.457.126.406.04-.026.061.029.047.127-.013.095.017.187.068.205.122.043.115-.122-.016-.383-.059-.116-.075-.191-.036-.166.111.071.081-.17-.036-.292-.059-.061-.088-.13-.065-.155.024-.024.017-.105-.014-.18a1.6 1.6 0 0 1-.079-.25c-.012-.061-.056-.124-.098-.139-.048-.017-.053-.073-.011-.153a.6.6 0 0 0 .067-.202c.005-.206.162-.088.24.182.048.169.15.376.227.461.076.086.1.155.053.155-.063 0-.064.026-.004.102.045.056.058.13.028.164-.03.035-.013.038.038.007.051-.03.076-.085.054-.121a.08.08 0 0 1 .023-.106c.06-.038.075.007.105.336.008.089.053.139.105.118.067-.027.081.03.052.207-.031.187-.022.217.038.13.06-.089.078-.091.08-.01 0 .061.046.084.114.057.066-.026.095-.013.07.03-.025.041.026.075.114.075.13 0 .151-.032.115-.17a2 2 0 0 1-.045-.227c0-.03-.078-.025-.172.012-.126.05-.171.04-.171-.033 0-.055.04-.084.09-.064s.113-.002.14-.047c.03-.05-.043-.117-.176-.165-.124-.045-.204-.116-.18-.159q.047-.072.103.018c.088.148.162-.327.084-.54a2 2 0 0 1-.078-.261 5 5 0 0 0-.082-.343c-.094-.352-.091-.38.038-.38.06 0 .11.031.11.07s.038.168.085.286.09.232.095.252c.058.237.224.682.304.815.055.092.071.186.035.21-.072.046-.019.346.061.346.028 0 .089-.04.135-.088.096-.1.313.036.31.192q0 .09-.056-.005c-.034-.054-.096-.066-.154-.029-.117.076-.013.161.234.193.527.069.858.142.858.19 0 .105.34.22.446.15.137-.09.214-.088.214.006 0 .042-.025.067-.055.057-.113-.04-.088.1.043.234.073.077.19.131.26.12.103-.015.11.002.039.091-.07.089-.066.102.022.066.061-.024.148-.13.194-.234.1-.227.105-.28.019-.226-.074.047-.176-.394-.115-.496.022-.037-.01-.047-.073-.022-.062.025-.092.081-.066.125.027.045.013.057-.034.028-.086-.056-.039-.276.058-.276.067 0 .21-.988.23-1.599.02-.547.056-.65.168-.49.093.131.091 1.196-.002 1.937-.03.23-.046.45-.037.487.01.038-.026.098-.079.132-.077.051-.077.064.004.065.071 0 .086.059.05.203l-.048.202.206-.14c.143-.098.389-.151.806-.174.493-.027.6-.055.598-.157-.002-.175.053-.386.18-.695l.29-.703c.098-.24.202-.413.23-.383.03.03.032-.002.007-.07s.01-.235.077-.37c.095-.19.138-.222.189-.14.11.178.006.525-.497 1.655a4 4 0 0 0-.211.565c-.016.087-.07.185-.121.217-.066.042-.05.072.053.108.08.027.216.084.303.127s.195.054.24.025c.046-.03.073-.01.062.044-.01.053.04.11.113.126.082.019.126-.009.115-.071-.01-.056.091-.342.224-.635.318-.703.375-.843.52-1.294.102-.312.135-.354.183-.235.122.298-.51 2.168-.714 2.113-.052-.014-.072-.002-.044.027s.021.131-.014.228c-.048.13-.037.187.041.218.058.023.106.09.106.149 0 .112.272.507.35.507.025 0 .008-.04-.038-.087m.622-.607c.05-.053.109-.076.131-.052.023.023-.018.066-.09.094-.105.041-.113.033-.041-.042M6.493 7.7c-.094-.123-.09-.125.045-.022.08.062.16.122.177.134.017.011-.003.021-.046.021s-.121-.06-.177-.133m5.316-.152c.031-.054.019-.096-.028-.096-.14 0-.294-.21-.248-.336.025-.066.007-.12-.039-.12s-.102.05-.125.113-.074.094-.113.069 0-.097.085-.16a.32.32 0 0 0 .137-.316c-.011-.11.001-.237.027-.282.074-.123.005-1.17-.083-1.28-.06-.075-.039-.095.086-.086.195.015.258.328.262 1.293.002.359.035.619.08.634.044.015.079.06.079.102 0 .04-.03.055-.065.032s-.082.025-.102.106c-.027.106.005.153.113.17.146.023.147.027.015.138-.078.065-.113.073-.081.019m1.17-.054c0-.061.029-.093.063-.071.035.022.044.072.02.11-.059.1-.082.09-.082-.04m.608.022q.053-.09-.067-.042c-.066.026-.142.01-.17-.037q-.05-.082.047-.022c.072.046.084.027.046-.075-.045-.121-.036-.125.074-.032.111.095.117.091.05-.034-.077-.144-.045-.529.039-.475.025.016.05-.061.054-.172.01-.288.564-1.712.652-1.677.148.057-.022.794-.467 2.027-.079.22-.12.385-.089.365.03-.02.055.013.055.072 0 .06-.027.09-.061.069-.034-.022-.061-.003-.061.041a.08.08 0 0 1-.078.08c-.043 0-.054-.04-.024-.088m-7.05-.178c.054-.25.091-.312.15-.252.02.022-.016.139-.08.26l-.118.22zm-1.356-.038c-.094-.063-.091-.074.019-.075.07 0 .128.033.128.075 0 .093-.008.093-.147 0m8.948-.076c-.066-.044-.075-.074-.023-.075a.17.17 0 0 1 .133.075c.056.095.03.095-.11 0m-8.63-.053c-.223-.045-.345-.215-.263-.366.06-.113.075-.113.163-.003.083.104.078.114-.034.07-.093-.038-.12-.022-.096.055.02.059.098.119.175.133a.5.5 0 0 1 .21.095c.039.038.055.064.037.059a4 4 0 0 0-.193-.043m5.322-.002q-.119-.027-.085-.206a.63.63 0 0 0-.053-.345 1.7 1.7 0 0 1-.115-.48c-.017-.171-.056-.331-.087-.355s-.056-.095-.056-.158c0-.068-.064-.112-.161-.108-.089.003-.145-.023-.124-.057.02-.035.087-.063.147-.063.062 0 .105-.06.098-.133a1.6 1.6 0 0 1-.003-.248c.009-.09.026-.087.087.021.041.074.1.119.132.099.031-.02.06.005.064.055.009.111.16.732.218.891.041.115.075.27.113.514a.7.7 0 0 0 .074.223c.03.05.02.112-.021.139-.042.026-.059.078-.037.114.05.085-.042.133-.19.097m2.353-.06c-.077-.098-.073-.109.028-.069.066.027.12.079.12.116 0 .098-.042.084-.148-.048m-7.626-.185c0-.04.033-.093.073-.118.041-.027.053.004.028.072-.048.131-.1.156-.1.046m5.027-.075c-.023-.04-.014-.09.02-.111s.062.01.062.07c0 .13-.023.14-.082.04m1.354.04c0-.016.05-.05.114-.075.065-.026.094-.013.069.03-.044.073-.183.107-.183.046m-6.583-.27c-.09-.078-.165-.167-.165-.197s.045-.016.099.03c.054.047.12.069.146.048q.042-.03.013.013c-.02.027 0 .096.045.152.114.142.058.124-.138-.046m5.08-.004c.024-.042.06-.076.077-.076s.032.034.032.076a.077.077 0 0 1-.077.076c-.043 0-.058-.034-.033-.076m-3.291-.212c-.02-.033.025-.06.1-.06s.12.027.1.06a.13.13 0 0 1-.1.06.13.13 0 0 1-.1-.06m3.32.04c-.033-.083-.05-.598-.02-.566.05.05.102.586.058.586-.017 0-.034-.009-.039-.02m-4.267-.202c-.031-.127-.022-.157.032-.1a.2.2 0 0 1 .046.18c-.018.057-.052.022-.078-.08m3.272.035c0-.061.028-.093.062-.071s.043.072.02.11c-.06.1-.082.09-.082-.04m-2.455-.068c.045-.056.057-.13.028-.164s-.012-.037.04-.005c.074.044.076.081.01.164-.047.06-.103.107-.123.107s0-.045.045-.102m4.264.022c0-.044.033-.06.073-.034s.073.063.073.081-.033.034-.073.034-.073-.037-.073-.081m-5.39-.072c-.026-.042-.011-.076.031-.076.043 0 .078.034.078.076s-.014.076-.032.076-.053-.034-.078-.076m3.076-.005c-.026-.044-.032-.097-.013-.117s.055.016.078.08c.05.135.008.159-.065.037m-.73-.07c-.025-.043-.01-.077.032-.077s.078.034.078.076-.015.076-.032.076-.053-.034-.078-.076m.944-.096c.022-.155.122-.286.215-.283.048.001.028.038-.045.082-.104.063-.114.103-.046.188.069.085.063.108-.026.108-.062 0-.106-.043-.098-.095m-3.294-.062c-.026-.045-.033-.098-.013-.118.019-.02.054.017.078.082.05.134.007.157-.065.036m5.32.052c0-.016.058-.076.129-.133.116-.095.119-.092.027.029-.095.127-.156.167-.156.104m-1.094-.168c.003-.088.02-.106.044-.046.021.055.019.121-.006.146-.024.026-.041-.02-.038-.1m-1.253-.188c0-.044.033-.06.074-.034s.073.062.073.08c0 .02-.033.034-.073.034s-.074-.036-.074-.08m-1.32-.05c0-.043.058-.126.129-.184.118-.096.12-.093.02.048l-.128.184c-.011.017-.02-.004-.02-.048m1.614-.022c-.17-.056-.172-.061-.023-.068.088-.004.181.026.206.068s.035.073.023.069zm-2.109-.202c-.121-.051-.117-.153.006-.153a.1.1 0 0 1 .098.101.3.3 0 0 1-.006.096 1 1 0 0 0-.098-.044m1.354 3.44a.8.8 0 0 1-.086-.205c-.001-.028-.033-.08-.07-.115q-.058-.053-.018.024c.026.048-.01.11-.08.139-.113.045-.106.065.055.165.101.063.126.096.055.073-.07-.022-.128-.008-.128.032s.08.066.178.058c.156-.013.167-.034.094-.17m-.101-.454c.047.024.022-.01-.057-.076-.08-.067-.102-.12-.05-.12.05 0 .072-.032.048-.072-.08-.135-.244 0-.202.165q.041.161-.044.106-.085-.053-.036.076.049.132-.037.077-.083-.053-.041.063c.036.097.07.083.188-.073.08-.105.184-.17.23-.146m-2.088.082c.144-.16.15-.189.048-.277-.097-.083-.107-.079-.067.03.027.074-.007.19-.083.277-.186.212-.093.186.102-.03m.27.088c.024-.025.012-.066-.027-.09-.038-.025-.108.003-.155.062-.068.084-.062.103.026.09a.33.33 0 0 0 .156-.062m.723-.048c.02-.035-.01-.064-.07-.064-.058 0-.106.029-.106.064s.031.063.069.063a.14.14 0 0 0 .107-.063m-1.072-.392c.003-.128-.025-.213-.062-.189-.038.024-.069.096-.069.158 0 .063-.027.097-.061.075-.034-.021-.061.01-.061.069s.027.09.061.068.061-.001.061.046c0 .2.125-.017.13-.227m2.745.101c-.02-.11-.007-.183.029-.161s.131.012.212-.022c.136-.057.137-.061.01-.066-.114-.005-.122-.025-.047-.12.05-.063.08-.117.064-.12-.227-.049-.278-.046-.243.013.078.13-.054.069-.176-.083-.074-.092-.157-.128-.212-.091-.069.046-.057.147.054.437.134.351.142.359.117.11a3 3 0 0 0-.074-.418c-.036-.115-.026-.11.04.019.047.094.129.171.18.171.053 0 .115.034.14.075.025.042-.002.057-.062.033-.144-.057-.19.046-.115.254.085.232.129.216.083-.03m-1.68 0c-.035-.095-.02-.112.057-.066.086.051.087.043.01-.044-.079-.087-.106-.088-.156-.005-.048.081-.069.077-.104-.02-.025-.066-.08-.12-.125-.12-.044 0-.056.04-.027.09q.055.09-.073.038c-.079-.031-.108-.02-.078.03.027.045.095.063.151.04.056-.022.103-.01.103.027 0 .038.057.084.128.103.07.02.135.04.144.044.01.005-.005-.048-.03-.118m.727-.014c-.068-.045-.041-.087.096-.152.104-.05.17-.124.144-.165-.072-.122-.186-.089-.33.095q-.22.286.06.285c.092-.001.1-.018.03-.063m-.077-.336c.197-.373.1-.58-.16-.343-.058.053-.047.023.024-.066.113-.14.115-.168.02-.206-.062-.025-.132-.011-.156.03s-.072.055-.107.033-.084-.006-.11.037-.008.077.037.077c.05 0 .064.062.036.152-.035.117-.02.141.07.106.084-.034.103-.013.07.076-.025.069-.009.123.038.123.046 0 .103-.051.126-.114s.077-.114.12-.114.001.085-.094.19c-.094.105-.134.19-.088.19s.124-.077.174-.171m1.56-.14c-.018-.031.07-.08.197-.11.17-.038.204-.07.129-.119-.14-.092-.377-.086-.321.008.025.042-.006.097-.07.122-.144.058-.149.157-.007.157.059 0 .091-.026.073-.058m.995-.382c0-.046-.048-.065-.107-.042-.075.03-.093.005-.061-.087.047-.137.036-.13-.119.08-.088.119-.077.133.094.133.106 0 .193-.038.193-.084m-1.14-.274a.56.56 0 0 1-.04-.25c.014-.084-.004-.092-.064-.032s-.06.142-.004.296c.043.117.098.193.122.168s.018-.107-.014-.182" style="fill:#626262;fill-opacity:1"/></svg>