<?xml version="1.0" encoding="UTF-8"?>
<svg xmlns="http://www.w3.org/2000/svg" xmlns:xlink="http://www.w3.org/1999/xlink" width="32px" height="32px" viewBox="0 0 32 32" version="1.1">
<g id="surface1">
<path style=" stroke:none;fill-rule:nonzero;fill:rgb(38.431373%,38.431373%,38.431373%);fill-opacity:1;" d="M 13.628906 29.308594 C 10.585938 28.476562 10.433594 28.449219 8.804688 28.542969 C 6.515625 28.675781 6.703125 28.140625 9.074219 27.773438 L 9.824219 27.65625 L 9.824219 26.59375 C 9.824219 25.664062 9.925781 25.339844 10.621094 24.066406 C 11.59375 22.285156 11.632812 21.820312 10.84375 21.492188 C 9.929688 21.117188 7.867188 18.917969 6.875 17.265625 C 6.058594 15.902344 3.949219 11.828125 2.699219 9.191406 C 2.167969 8.074219 2.066406 6.859375 2.445312 6.179688 C 3.597656 4.121094 9.261719 2.59375 15.757812 2.585938 C 20.316406 2.582031 24.113281 3.171875 26.964844 4.332031 C 30.550781 5.792969 30.621094 6.574219 27.703125 12.75 C 25.429688 17.550781 23.925781 19.691406 21.855469 21.070312 C 20.644531 21.871094 20.601562 21.925781 20.71875 22.460938 C 20.785156 22.765625 21.191406 23.683594 21.621094 24.496094 C 22.308594 25.808594 22.386719 26.066406 22.285156 26.742188 L 22.171875 27.503906 L 23.132812 27.785156 C 23.664062 27.941406 24.25 28.179688 24.4375 28.320312 C 24.738281 28.546875 24.570312 28.578125 22.910156 28.582031 C 21.449219 28.585938 20.816406 28.671875 19.992188 28.972656 C 19.140625 29.28125 18.46875 29.363281 16.546875 29.40625 C 15.234375 29.433594 13.921875 29.390625 13.628906 29.308594 Z M 17.609375 28.25 C 20.984375 27.808594 21.605469 27.03125 20.375 24.800781 C 20.046875 24.207031 19.679688 23.421875 19.5625 23.054688 L 19.347656 22.386719 L 18.433594 22.523438 C 17.285156 22.695312 15.199219 22.699219 13.777344 22.535156 C 12.699219 22.40625 12.691406 22.410156 12.574219 22.886719 C 12.507812 23.152344 12.148438 23.890625 11.773438 24.53125 C 11.394531 25.167969 11.035156 25.902344 10.96875 26.160156 C 10.601562 27.617188 14.078125 28.710938 17.609375 28.25 Z M 19.507812 20.910156 C 21.007812 20.433594 22.535156 19.273438 23.5 17.875 C 24.488281 16.441406 25.722656 14.199219 26.335938 12.726562 C 26.574219 12.160156 26.976562 11.226562 27.238281 10.65625 C 27.644531 9.753906 27.664062 9.632812 27.390625 9.75 C 24.996094 10.75 22.953125 11.085938 18.574219 11.203125 C 14.59375 11.308594 12.273438 11.113281 9.597656 10.445312 C 6.851562 9.761719 5.578125 8.964844 5.578125 7.929688 C 5.578125 6.980469 7.121094 6.234375 10.265625 5.65625 C 12.535156 5.242188 18.144531 5.234375 20.527344 5.648438 C 23.738281 6.203125 24.542969 6.660156 21.484375 6.191406 C 18.894531 5.796875 13.660156 5.933594 11.003906 6.464844 C 8.886719 6.886719 7.171875 7.574219 7.171875 7.992188 C 7.171875 8.410156 8.789062 9.019531 11.152344 9.496094 C 13.0625 9.882812 13.707031 9.921875 17.609375 9.914062 C 22.246094 9.90625 23.875 9.691406 26.339844 8.769531 C 27.945312 8.167969 28.644531 7.1875 28.027344 6.402344 C 26.988281 5.082031 22.519531 4.042969 17.167969 3.878906 C 12.089844 3.722656 7.976562 4.34375 5.117188 5.695312 C 3.023438 6.6875 2.9375 8.128906 4.878906 9.667969 C 5.820312 10.410156 8.886719 11.957031 9.457031 11.972656 C 9.707031 11.976562 10.074219 12.050781 10.265625 12.136719 C 10.550781 12.257812 10.496094 12.289062 9.96875 12.300781 C 8.960938 12.320312 6.863281 11.824219 5.894531 11.335938 C 5.414062 11.09375 4.992188 10.898438 4.953125 10.898438 C 4.820312 10.898438 7.789062 16.507812 8.417969 17.441406 C 9.175781 18.570312 10.566406 19.921875 11.433594 20.371094 C 12.953125 21.167969 13.882812 21.339844 16.28125 21.269531 C 17.769531 21.226562 18.910156 21.097656 19.507812 20.910156 Z M 19.507812 20.910156 "/>
</g>
</svg>
