<?xml version="1.0" encoding="UTF-8"?>
<svg xmlns="http://www.w3.org/2000/svg" xmlns:xlink="http://www.w3.org/1999/xlink" width="64px" height="64px" viewBox="0 0 64 64" version="1.1">
<g id="surface1">
<path style=" stroke:none;fill-rule:nonzero;fill:rgb(38.431373%,38.431373%,38.431373%);fill-opacity:1;" d="M 27.257812 58.617188 C 21.171875 56.949219 20.867188 56.902344 17.613281 57.085938 C 13.035156 57.347656 13.40625 56.28125 18.144531 55.546875 L 19.648438 55.316406 L 19.648438 53.183594 C 19.648438 51.328125 19.855469 50.679688 21.242188 48.132812 C 23.1875 44.566406 23.265625 43.640625 21.683594 42.988281 C 19.859375 42.230469 15.734375 37.832031 13.753906 34.53125 C 12.117188 31.804688 7.898438 23.652344 5.398438 18.386719 C 4.335938 16.148438 4.128906 13.71875 4.890625 12.359375 C 7.199219 8.246094 18.519531 5.1875 31.511719 5.171875 C 40.632812 5.160156 48.230469 6.34375 53.929688 8.664062 C 61.105469 11.585938 61.242188 13.152344 55.402344 25.5 C 50.859375 35.105469 47.855469 39.382812 43.710938 42.136719 C 41.292969 43.746094 41.203125 43.855469 41.433594 44.921875 C 41.570312 45.53125 42.378906 47.363281 43.238281 48.992188 C 44.621094 51.613281 44.773438 52.132812 44.570312 53.484375 L 44.339844 55.011719 L 46.269531 55.570312 C 47.328125 55.878906 48.5 56.363281 48.871094 56.640625 C 49.472656 57.097656 49.144531 57.152344 45.820312 57.164062 C 42.898438 57.171875 41.632812 57.339844 39.980469 57.941406 C 38.285156 58.558594 36.9375 58.730469 33.09375 58.808594 C 30.46875 58.863281 27.839844 58.777344 27.257812 58.617188 Z M 35.21875 56.496094 C 41.96875 55.613281 43.214844 54.0625 40.746094 49.601562 C 40.089844 48.417969 39.359375 46.84375 39.125 46.109375 L 38.695312 44.777344 L 36.867188 45.050781 C 34.570312 45.394531 30.394531 45.402344 27.558594 45.066406 C 25.398438 44.8125 25.382812 44.816406 25.148438 45.773438 C 25.019531 46.304688 24.296875 47.78125 23.542969 49.058594 C 22.789062 50.335938 22.066406 51.804688 21.9375 52.324219 C 21.207031 55.234375 28.160156 57.421875 35.21875 56.496094 Z M 39.015625 41.816406 C 42.015625 40.863281 45.066406 38.546875 46.996094 35.75 C 48.972656 32.886719 51.449219 28.398438 52.671875 25.457031 C 53.144531 24.316406 53.957031 22.453125 54.472656 21.308594 C 55.285156 19.511719 55.328125 19.265625 54.78125 19.496094 C 49.988281 21.496094 45.90625 22.171875 37.148438 22.40625 C 29.183594 22.617188 24.550781 22.226562 19.199219 20.890625 C 13.703125 19.519531 11.160156 17.929688 11.160156 15.863281 C 11.160156 13.960938 14.238281 12.464844 20.535156 11.3125 C 25.070312 10.484375 36.292969 10.472656 41.054688 11.292969 C 47.480469 12.402344 49.089844 13.320312 42.972656 12.386719 C 37.785156 11.59375 27.320312 11.863281 22.007812 12.929688 C 17.777344 13.773438 14.34375 15.144531 14.34375 15.988281 C 14.34375 16.816406 17.582031 18.039062 22.304688 18.992188 C 26.125 19.765625 27.410156 19.847656 35.21875 19.832031 C 44.496094 19.8125 47.75 19.386719 52.679688 17.539062 C 55.886719 16.335938 57.285156 14.371094 56.050781 12.804688 C 53.972656 10.160156 45.035156 8.085938 34.332031 7.757812 C 24.175781 7.449219 15.949219 8.6875 10.234375 11.390625 C 6.050781 13.371094 5.878906 16.257812 9.761719 19.332031 C 11.640625 20.820312 17.773438 23.910156 18.910156 23.941406 C 19.414062 23.957031 20.144531 24.105469 20.535156 24.273438 C 21.105469 24.515625 20.988281 24.582031 19.9375 24.601562 C 17.921875 24.640625 13.730469 23.648438 11.789062 22.675781 C 10.828125 22.191406 9.980469 21.792969 9.910156 21.792969 C 9.640625 21.792969 15.578125 33.019531 16.835938 34.886719 C 18.351562 37.140625 21.132812 39.839844 22.867188 40.746094 C 25.910156 42.332031 27.765625 42.675781 32.5625 42.539062 C 35.535156 42.453125 37.820312 42.199219 39.015625 41.816406 Z M 39.015625 41.816406 "/>
</g>
</svg>
