<svg xmlns="http://www.w3.org/2000/svg" xml:space="preserve" width="128" height="128" viewBox="0 0 33.867 33.867"><path d="M14.423 31.02c-3.22-.884-3.38-.91-5.104-.812-2.422.139-2.225-.426.283-.814l.796-.123v-1.127c0-.982.108-1.326.843-2.673 1.028-1.887 1.07-2.377.234-2.724-.966-.4-3.15-2.727-4.197-4.474C6.41 16.83 4.18 12.517 2.856 9.73c-.562-1.184-.67-2.47-.268-3.188C3.808 4.363 9.8 2.746 16.675 2.737c4.827-.005 8.847.62 11.863 1.848 3.797 1.545 3.87 2.375.78 8.908-2.405 5.083-3.996 7.347-6.188 8.804-1.28.851-1.327.91-1.204 1.473.07.323.5 1.293.955 2.155.73 1.388.812 1.661.704 2.377l-.12.808 1.02.296c.56.164 1.18.419 1.376.567.319.241.144.27-1.615.276-1.545.005-2.214.094-3.09.412-.898.327-1.61.417-3.644.46-1.39.029-2.78-.017-3.089-.102m4.213-1.124c3.572-.467 4.23-1.288 2.926-3.648-.348-.628-.734-1.46-.859-1.848l-.227-.706-.967.145c-1.215.181-3.425.185-4.926.009-1.143-.135-1.152-.132-1.275.374-.069.28-.45 1.063-.85 1.74-.399.675-.781 1.452-.85 1.726-.387 1.54 3.293 2.697 7.028 2.209m2.01-7.767c1.588-.505 3.202-1.732 4.223-3.21 1.047-1.517 2.355-3.89 3.004-5.448.25-.603.68-1.59.953-2.195.43-.952.452-1.08.161-.96-2.534 1.06-4.695 1.417-9.328 1.54-4.216.113-6.668-.094-9.5-.8-2.908-.727-4.254-1.569-4.254-2.662 0-1.006 1.63-1.797 4.961-2.407 2.4-.44 8.339-.445 10.859-.01 3.4.587 4.251 1.072 1.014.577-2.743-.418-8.282-.275-11.093.287-2.24.448-4.056 1.173-4.056 1.619 0 .44 1.713 1.086 4.212 1.59 2.023.408 2.703.453 6.834.444 4.91-.01 6.63-.235 9.24-1.213 1.698-.636 2.438-1.675 1.785-2.506-1.1-1.398-5.83-2.496-11.493-2.67-5.375-.164-9.728.492-12.752 1.923-2.214 1.048-2.306 2.575-.25 4.202.994.788 4.24 2.423 4.84 2.44.267.007.654.085.86.174.302.13.24.163-.315.174-1.068.02-3.286-.504-4.312-1.02-.51-.255-.958-.465-.996-.465-.141 0 3 5.94 3.665 6.927.803 1.193 2.274 2.622 3.192 3.101 1.61.84 2.593 1.022 5.132.95 1.572-.046 2.78-.181 3.414-.382" style="fill:#626262;fill-opacity:1"/></svg>