<?xml version="1.0" encoding="UTF-8"?>
<svg xmlns="http://www.w3.org/2000/svg" xmlns:xlink="http://www.w3.org/1999/xlink" width="64px" height="64px" viewBox="0 0 64 64" version="1.1">
<g id="surface1">
<path style=" stroke:none;fill-rule:nonzero;fill:rgb(38.431373%,38.431373%,38.431373%);fill-opacity:1;" d="M 38.246094 57.785156 C 38.175781 57.761719 37.78125 57.640625 37.367188 57.511719 C 36.441406 57.230469 35.605469 56.65625 35.28125 56.082031 L 35.035156 55.648438 L 34.257812 56.207031 C 33.222656 56.949219 32.328125 57.292969 30.996094 57.460938 C 27.792969 57.863281 24.347656 56.289062 22.617188 53.632812 C 21.597656 52.066406 21.046875 50.363281 20.921875 48.410156 C 20.847656 47.214844 20.949219 46.324219 21.457031 43.660156 C 22.082031 40.382812 22.179688 39.449219 22.179688 36.8125 C 22.179688 34.441406 22.101562 33.472656 21.742188 31.550781 L 21.601562 30.792969 L 21.320312 31.070312 C 20.960938 31.421875 20.605469 31.261719 20.386719 30.644531 L 20.234375 30.214844 L 20.015625 30.710938 C 19.578125 31.703125 19.355469 31.675781 19.078125 30.589844 C 18.917969 29.972656 18.910156 29.964844 18.78125 30.292969 C 18.621094 30.710938 18.269531 31.089844 18.132812 31 C 18.074219 30.964844 17.992188 30.652344 17.945312 30.308594 C 17.824219 29.390625 17.6875 29.238281 17.503906 29.816406 C 17.386719 30.191406 17.296875 30.285156 17.089844 30.253906 C 16.890625 30.226562 16.796875 30.082031 16.722656 29.699219 C 16.589844 29.035156 16.554688 29.007812 16.273438 29.367188 C 15.972656 29.757812 15.792969 29.628906 15.679688 28.949219 L 15.59375 28.402344 L 14.890625 29.300781 L 14.753906 28.933594 C 14.679688 28.730469 14.621094 28.484375 14.621094 28.386719 C 14.621094 27.96875 14.359375 28.085938 14.167969 28.582031 C 13.921875 29.226562 13.613281 29.238281 13.433594 28.613281 C 13.339844 28.28125 13.265625 28.207031 13.078125 28.265625 C 12.929688 28.316406 12.730469 28.234375 12.527344 28.039062 L 12.210938 27.734375 L 12.023438 28.027344 C 11.832031 28.320312 11.363281 28.4375 11.363281 28.191406 C 11.363281 27.882812 10.847656 27.535156 10.390625 27.535156 C 9.101562 27.535156 7.132812 26.929688 6.160156 26.230469 C 5 25.398438 4.46875 24.308594 4.46875 22.785156 C 4.472656 21.085938 5.128906 19.359375 6.476562 17.492188 C 7.515625 16.054688 8.648438 14.996094 10.738281 13.5 C 11.734375 12.785156 12.945312 11.898438 13.429688 11.523438 C 18.425781 7.667969 24.128906 5.738281 29.078125 6.234375 C 32.097656 6.539062 33.496094 6.964844 36.480469 8.5 C 39.578125 10.089844 40.785156 10.519531 44.386719 11.332031 C 47.910156 12.125 50.195312 13.292969 52.265625 15.371094 C 54.449219 17.5625 55.457031 19.703125 55.324219 21.867188 C 55.210938 23.703125 54.210938 24.730469 51.652344 25.636719 C 49.945312 26.242188 46.886719 26.75 44.9375 26.75 C 41.367188 26.753906 37.820312 28.484375 35.734375 31.234375 C 34.785156 32.484375 34.304688 33.390625 33.859375 34.773438 C 33.179688 36.886719 33.007812 39.203125 33.359375 41.59375 C 33.609375 43.292969 33.628906 43.378906 34.789062 47.203125 C 35.347656 49.054688 35.613281 50.261719 35.742188 51.59375 L 35.828125 52.453125 L 36.359375 51.855469 C 37.617188 50.433594 39.476562 48.089844 40.015625 47.246094 C 40.804688 46.007812 41.179688 44.820312 41.265625 43.316406 C 41.300781 42.652344 41.285156 41.929688 41.222656 41.714844 C 41.082031 41.195312 40.351562 40.828125 39.015625 40.609375 C 36.042969 40.121094 35.140625 39.648438 34.59375 38.289062 C 34.164062 37.21875 34.492188 35.441406 35.394531 33.9375 C 36.242188 32.53125 38.460938 30.652344 40.695312 29.4375 C 43.179688 28.09375 45.289062 27.625 47.574219 27.914062 C 49.679688 28.179688 50.820312 28.667969 53.410156 30.40625 C 54.238281 30.960938 55.308594 31.671875 55.792969 31.988281 C 57.007812 32.789062 58.375 34.238281 58.863281 35.246094 C 60.085938 37.773438 59.609375 39.933594 57.585938 41.007812 C 56.4375 41.617188 53.089844 42.144531 51.382812 41.984375 C 50.589844 41.910156 50.476562 41.929688 50.417969 42.132812 C 50.382812 42.261719 50.011719 43.8125 49.597656 45.582031 C 49.183594 47.347656 48.671875 49.304688 48.457031 49.933594 C 46.632812 55.324219 43.722656 57.882812 39.460938 57.839844 C 38.859375 57.835938 38.316406 57.8125 38.246094 57.785156 Z M 41.941406 56.433594 C 43.988281 55.753906 45.660156 54.035156 46.835938 51.398438 C 47.457031 50 47.617188 49.492188 48.335938 46.546875 C 48.671875 45.183594 49.035156 43.714844 49.144531 43.28125 C 49.441406 42.109375 50.09375 40.078125 50.339844 39.558594 C 50.457031 39.304688 50.59375 38.839844 50.640625 38.523438 C 50.714844 38.015625 50.703125 37.96875 50.53125 38.117188 C 50.425781 38.207031 50.339844 38.328125 50.339844 38.382812 C 50.339844 38.4375 50.066406 39.089844 49.730469 39.835938 C 49.398438 40.582031 49.089844 41.292969 49.046875 41.421875 C 49.003906 41.546875 48.902344 41.648438 48.824219 41.648438 C 48.605469 41.648438 48.753906 40.789062 49.121094 39.949219 C 49.292969 39.554688 49.46875 39.105469 49.515625 38.949219 C 49.605469 38.636719 49.488281 37.988281 49.34375 37.988281 C 49.238281 37.988281 48.585938 39.664062 48.582031 39.953125 C 48.578125 40.058594 48.5 40.292969 48.402344 40.472656 C 48.246094 40.769531 48.21875 40.777344 48.140625 40.5625 C 48.089844 40.429688 48.113281 40.097656 48.191406 39.828125 C 48.359375 39.253906 48.382812 37.730469 48.230469 37.730469 C 48.117188 37.730469 47.832031 38.300781 47.832031 38.523438 C 47.832031 38.597656 47.722656 38.898438 47.582031 39.195312 C 47.441406 39.503906 47.332031 40.003906 47.332031 40.355469 C 47.332031 41.054688 47.242188 41.386719 47.050781 41.386719 C 46.878906 41.386719 47.011719 39.871094 47.203125 39.628906 C 47.363281 39.425781 47.125 37.625 46.957031 37.816406 C 46.78125 38.023438 46.582031 38.816406 46.582031 39.316406 C 46.582031 40.402344 46.214844 39.6875 46.019531 38.222656 C 45.976562 37.882812 45.886719 37.570312 45.824219 37.53125 C 45.761719 37.492188 45.621094 37.785156 45.511719 38.179688 C 45.398438 38.578125 45.261719 38.90625 45.207031 38.90625 C 45.152344 38.90625 45.042969 38.644531 44.964844 38.324219 C 44.714844 37.289062 44.46875 37.410156 44.371094 38.613281 C 44.230469 40.316406 44.054688 40.386719 43.820312 38.832031 C 43.59375 37.289062 43.3125 37.136719 43.195312 38.488281 C 43.164062 38.898438 43.078125 39.230469 43.007812 39.230469 C 42.9375 39.230469 42.792969 38.941406 42.6875 38.585938 C 42.402344 37.644531 42.195312 37.664062 42.195312 38.632812 C 42.195312 39.070312 42.140625 39.425781 42.078125 39.425781 C 42.015625 39.425781 41.804688 39.074219 41.609375 38.644531 C 41.414062 38.210938 41.210938 37.859375 41.160156 37.859375 C 40.941406 37.859375 41.09375 38.574219 41.488281 39.394531 C 42.152344 40.769531 42.253906 41.203125 42.253906 42.695312 C 42.257812 44.257812 42.050781 45.246094 41.414062 46.734375 C 41.175781 47.300781 40.113281 49.019531 39.785156 49.375 C 38.898438 50.339844 37.183594 52.4375 36.8125 53.011719 C 35.738281 54.671875 35.835938 55.707031 37.128906 56.347656 C 38.160156 56.855469 40.542969 56.898438 41.941406 56.433594 Z M 41.132812 55.902344 C 41.199219 55.832031 41.5625 55.652344 41.941406 55.5 C 43.171875 54.996094 44.25 53.945312 45.632812 51.890625 C 46.019531 51.320312 46.007812 51.765625 45.617188 52.523438 C 45.128906 53.476562 43.425781 55.238281 42.578125 55.671875 C 41.929688 56.003906 40.871094 56.171875 41.132812 55.902344 Z M 39.71875 55.335938 C 39.789062 55.117188 40.554688 54.660156 40.664062 54.777344 C 40.769531 54.886719 40.070312 55.496094 39.832031 55.5 C 39.742188 55.5 39.6875 55.425781 39.71875 55.335938 Z M 38.085938 54.945312 C 38.144531 54.757812 38.796875 54.394531 38.890625 54.496094 C 38.925781 54.53125 38.839844 54.683594 38.695312 54.835938 C 38.410156 55.132812 38.007812 55.203125 38.085938 54.945312 Z M 42.730469 53.894531 C 43.40625 53.09375 43.699219 52.867188 43.699219 53.140625 C 43.699219 53.367188 42.59375 54.546875 42.308594 54.625 C 42.128906 54.675781 42.25 54.460938 42.730469 53.894531 Z M 37.054688 54.121094 C 37.054688 53.753906 38.21875 52.359375 38.382812 52.527344 C 38.472656 52.621094 37.320312 54.191406 37.160156 54.191406 C 37.101562 54.191406 37.054688 54.160156 37.054688 54.121094 Z M 41.316406 53.953125 C 41.316406 53.796875 41.929688 53.222656 42.007812 53.300781 C 42.136719 53.433594 41.925781 53.765625 41.621094 53.910156 C 41.453125 53.992188 41.316406 54.007812 41.316406 53.953125 Z M 44.199219 52.390625 C 44.199219 52.089844 45.382812 50.203125 45.425781 50.433594 C 45.449219 50.558594 45.316406 50.953125 45.132812 51.308594 C 44.78125 51.976562 44.199219 52.65625 44.199219 52.390625 Z M 43.214844 51.832031 C 43.527344 51.253906 43.789062 50.976562 43.902344 51.097656 C 44.027344 51.226562 43.324219 52.363281 43.121094 52.363281 C 42.964844 52.363281 42.984375 52.265625 43.214844 51.832031 Z M 46.078125 51.144531 C 46.078125 51.121094 46.1875 50.753906 46.320312 50.328125 C 46.925781 48.367188 47.148438 47.375 47.46875 45.175781 C 47.546875 44.636719 47.691406 44.019531 47.785156 43.804688 C 47.949219 43.441406 47.957031 43.488281 47.902344 44.457031 C 47.867188 45.03125 47.753906 45.914062 47.644531 46.417969 C 47.539062 46.921875 47.402344 47.597656 47.335938 47.921875 C 47.097656 49.132812 46.378906 51.1875 46.191406 51.1875 C 46.128906 51.1875 46.078125 51.167969 46.078125 51.144531 Z M 39.808594 50.667969 C 40.105469 50.238281 40.296875 50.082031 40.398438 50.1875 C 40.511719 50.304688 39.933594 51.054688 39.734375 51.054688 C 39.582031 51.054688 39.597656 50.976562 39.808594 50.667969 Z M 44.453125 49.984375 C 44.449219 49.691406 44.710938 49.097656 44.847656 49.097656 C 45.039062 49.097656 44.953125 49.585938 44.703125 49.898438 C 44.503906 50.152344 44.457031 50.167969 44.453125 49.984375 Z M 45.703125 49.441406 C 45.703125 48.996094 46.363281 46.484375 46.539062 46.257812 C 46.699219 46.050781 46.710938 46.09375 46.640625 46.671875 C 46.5625 47.273438 45.921875 49.4375 45.769531 49.59375 C 45.734375 49.632812 45.703125 49.5625 45.703125 49.441406 Z M 46.519531 44.230469 C 46.566406 43.925781 46.707031 43.4375 46.832031 43.152344 C 47.039062 42.683594 47.0625 42.664062 47.070312 42.96875 C 47.078125 43.15625 47.03125 43.480469 46.964844 43.6875 C 46.902344 43.894531 46.816406 44.226562 46.777344 44.425781 C 46.648438 45.027344 46.421875 44.855469 46.519531 44.230469 Z M 48.335938 42.988281 C 48.339844 42.683594 48.535156 42.371094 48.625 42.527344 C 48.722656 42.691406 48.585938 43.214844 48.445312 43.214844 C 48.386719 43.214844 48.335938 43.113281 48.335938 42.988281 Z M 43.949219 42.144531 C 43.953125 41.542969 44.109375 41.132812 44.25 41.367188 C 44.351562 41.539062 44.199219 42.546875 44.058594 42.640625 C 43.996094 42.679688 43.949219 42.457031 43.949219 42.144531 Z M 47.6875 42.484375 C 47.609375 42.164062 47.804688 41.386719 47.960938 41.386719 C 48.144531 41.386719 48.109375 42.214844 47.914062 42.492188 C 47.753906 42.726562 47.746094 42.726562 47.6875 42.484375 Z M 45.953125 41.621094 C 45.953125 40.9375 46.046875 40.601562 46.234375 40.601562 C 46.402344 40.601562 46.285156 41.878906 46.097656 42.074219 C 45.988281 42.1875 45.953125 42.070312 45.953125 41.621094 Z M 42.773438 41.035156 C 42.652344 40.90625 42.679688 39.84375 42.808594 39.761719 C 42.957031 39.664062 43.070312 40.003906 43.070312 40.539062 C 43.070312 40.972656 42.933594 41.199219 42.773438 41.035156 Z M 45.003906 40.558594 C 44.890625 40.25 45 39.515625 45.171875 39.460938 C 45.28125 39.421875 45.328125 39.582031 45.328125 39.996094 C 45.328125 40.589844 45.136719 40.917969 45.003906 40.558594 Z M 31.898438 56.222656 C 33.078125 55.898438 33.941406 55.164062 34.4375 54.066406 C 34.675781 53.539062 34.695312 53.320312 34.636719 51.84375 C 34.566406 50.023438 34.414062 49.308594 33.433594 46.246094 C 32.070312 41.988281 31.851562 39.339844 32.558594 35.769531 C 33.320312 31.9375 36.0625 28.453125 39.601562 26.824219 C 41.335938 26.023438 42.5 25.777344 45.765625 25.511719 C 47.144531 25.398438 48.441406 25.277344 48.648438 25.238281 C 50.976562 24.800781 52.46875 24.140625 52.46875 23.542969 C 52.472656 23.113281 51.734375 22.511719 50.589844 22.011719 C 49.578125 21.570312 47.945312 21.003906 47.6875 21.003906 C 47.191406 21.003906 48.839844 21.941406 50.214844 22.441406 C 51.261719 22.820312 51.71875 23.066406 51.71875 23.246094 C 51.71875 23.578125 49.683594 22.882812 47.839844 21.925781 C 47.128906 21.554688 46.832031 21.535156 46.832031 21.859375 C 46.832031 22.128906 47.289062 22.398438 48.824219 23.027344 C 49.582031 23.339844 50.300781 23.65625 50.425781 23.734375 C 50.621094 23.851562 50.59375 23.871094 50.257812 23.875 C 49.8125 23.878906 47.960938 23.230469 47.066406 22.757812 C 46.464844 22.441406 46.328125 22.457031 46.328125 22.839844 C 46.328125 23.003906 46.597656 23.167969 47.300781 23.429688 C 48.984375 24.054688 49.160156 24.140625 48.976562 24.257812 C 48.886719 24.320312 48.582031 24.3125 48.300781 24.246094 C 47.308594 24.015625 45.261719 23.210938 45.101562 22.992188 C 44.945312 22.78125 44.925781 22.78125 44.757812 23.019531 C 44.496094 23.386719 44.691406 23.550781 45.867188 23.953125 C 47.105469 24.378906 47.136719 24.394531 46.972656 24.566406 C 46.886719 24.65625 46.65625 24.648438 46.242188 24.539062 C 44.679688 24.117188 44.214844 23.890625 43.882812 23.378906 C 43.621094 22.980469 43.570312 22.949219 43.496094 23.152344 C 43.359375 23.523438 43.582031 23.773438 44.484375 24.269531 C 44.941406 24.523438 45.359375 24.78125 45.414062 24.84375 C 45.636719 25.101562 44.371094 24.789062 43.605469 24.394531 C 42.917969 24.042969 42.757812 23.894531 42.597656 23.46875 C 42.351562 22.820312 42.195312 22.824219 42.195312 23.484375 C 42.195312 23.964844 42.246094 24.050781 42.820312 24.480469 C 43.164062 24.738281 43.445312 25 43.445312 25.066406 C 43.445312 25.417969 42.402344 24.964844 41.984375 24.433594 C 41.902344 24.328125 41.773438 24.28125 41.699219 24.328125 C 41.492188 24.464844 41.542969 24.898438 41.785156 25.039062 C 42.109375 25.226562 41.890625 25.359375 41.410156 25.265625 C 41.128906 25.210938 40.921875 25.058594 40.773438 24.792969 C 40.496094 24.308594 40.367188 24.296875 40.253906 24.757812 C 40.1875 25.03125 40.230469 25.164062 40.4375 25.339844 C 40.71875 25.578125 40.683594 25.839844 40.375 25.839844 C 40.277344 25.839844 40.085938 25.710938 39.945312 25.554688 L 39.691406 25.269531 L 39.5 25.75 C 39.371094 26.074219 39.226562 26.230469 39.058594 26.230469 C 38.800781 26.230469 38.726562 25.980469 38.921875 25.765625 C 38.984375 25.699219 39.070312 25.4375 39.117188 25.183594 L 39.203125 24.726562 L 38.816406 25.316406 C 38.605469 25.640625 38.371094 26.125 38.300781 26.398438 C 38.167969 26.902344 37.882812 27.148438 37.679688 26.933594 C 37.617188 26.867188 37.65625 26.496094 37.773438 26.066406 C 37.882812 25.652344 37.941406 25.28125 37.898438 25.238281 C 37.769531 25.101562 37.554688 25.320312 37.554688 25.585938 C 37.554688 25.796875 37.050781 27.089844 36.6875 27.796875 C 36.554688 28.0625 36.171875 28.125 36.035156 27.910156 C 35.886719 27.679688 35.78125 27.824219 34.988281 29.351562 C 34.136719 30.988281 33.960938 30.945312 34.417969 29.214844 C 34.652344 28.332031 34.652344 27.898438 34.410156 28.148438 C 34.140625 28.433594 33.511719 30.527344 33.484375 31.238281 C 33.464844 31.816406 33.394531 32.066406 33.1875 32.28125 C 32.925781 32.554688 32.917969 32.554688 32.917969 32.296875 C 32.917969 32.152344 33.03125 31.804688 33.167969 31.523438 C 33.304688 31.246094 33.351562 31.085938 33.269531 31.171875 C 32.867188 31.589844 32.839844 31.109375 33.179688 29.5625 C 33.375 28.664062 33.382812 28.421875 33.207031 28.359375 C 33.03125 28.292969 32.566406 29.308594 32.167969 30.640625 C 31.839844 31.726562 31.601562 31.894531 31.714844 30.96875 C 31.890625 29.5 31.941406 28.058594 31.820312 28.058594 C 31.589844 28.058594 31.167969 29.503906 31.164062 30.304688 C 31.164062 30.570312 31.113281 30.820312 31.050781 30.859375 C 30.742188 31.058594 30.699219 29.578125 30.988281 28.777344 C 31.308594 27.910156 31.320312 27.820312 31.226562 27.308594 L 31.136719 26.816406 L 30.933594 27.136719 C 30.820312 27.3125 30.640625 27.808594 30.539062 28.238281 C 30.273438 29.34375 30.097656 29.304688 29.960938 28.105469 C 29.898438 27.550781 29.789062 27.078125 29.71875 27.054688 C 29.535156 26.992188 29.285156 27.777344 29.285156 28.421875 C 29.285156 28.714844 29.234375 28.992188 29.171875 29.03125 C 29.042969 29.113281 28.785156 28.429688 28.78125 28.007812 C 28.777344 27.855469 28.675781 27.59375 28.550781 27.425781 L 28.324219 27.121094 L 28.132812 27.753906 C 28.023438 28.101562 27.863281 28.386719 27.777344 28.386719 C 27.6875 28.386719 27.535156 28.136719 27.4375 27.832031 C 27.339844 27.523438 27.207031 27.277344 27.148438 27.277344 C 27.085938 27.277344 26.949219 27.585938 26.84375 27.960938 C 26.550781 28.996094 26.464844 29.085938 26.226562 28.609375 C 26.117188 28.386719 26.023438 28.066406 26.019531 27.902344 C 26.019531 27.738281 25.9375 27.457031 25.84375 27.277344 C 25.636719 26.886719 25.601562 26.957031 25.371094 28.179688 C 25.171875 29.21875 24.945312 29.347656 24.828125 28.492188 C 24.78125 28.144531 24.667969 27.714844 24.578125 27.535156 L 24.417969 27.210938 L 24.332031 27.601562 C 24.289062 27.816406 24.226562 28.070312 24.199219 28.160156 C 24.171875 28.253906 24.234375 28.695312 24.335938 29.140625 C 24.566406 30.164062 24.570312 30.542969 24.347656 30.542969 C 24.234375 30.542969 24.121094 30.25 24.019531 29.683594 C 23.8125 28.535156 23.632812 28.757812 23.550781 30.265625 C 23.511719 30.917969 23.4375 31.417969 23.378906 31.382812 C 23.320312 31.34375 23.128906 30.816406 22.949219 30.210938 C 22.773438 29.605469 22.574219 29.078125 22.511719 29.035156 C 22.292969 28.894531 22.082031 29.59375 22.242188 29.921875 C 22.570312 30.585938 23.027344 33.039062 23.136719 34.753906 C 23.246094 36.410156 23.15625 39.226562 22.957031 40.570312 C 22.695312 42.285156 22.601562 42.863281 22.433594 43.738281 C 21.816406 46.980469 21.75 48.359375 22.136719 49.929688 C 22.875 52.941406 24.6875 55.066406 27.253906 55.941406 C 27.785156 56.121094 28.359375 56.292969 28.53125 56.324219 C 29.289062 56.457031 31.277344 56.398438 31.898438 56.226562 Z M 29.863281 55.488281 C 29.683594 55.339844 29.535156 55.132812 29.535156 55.027344 C 29.535156 54.863281 29.578125 54.863281 29.878906 55.023438 C 30.070312 55.128906 30.332031 55.335938 30.464844 55.484375 C 30.699219 55.757812 30.699219 55.761719 30.449219 55.761719 C 30.308594 55.761719 30.046875 55.640625 29.863281 55.488281 Z M 27.984375 55.140625 C 27.359375 54.632812 26.910156 54.011719 27.0625 53.851562 C 27.109375 53.800781 27.421875 54.019531 27.757812 54.335938 C 28.09375 54.652344 28.558594 55.070312 28.792969 55.261719 C 29.214844 55.609375 29.214844 55.617188 28.910156 55.621094 C 28.730469 55.625 28.332031 55.417969 27.984375 55.140625 Z M 30.753906 54.714844 C 30.636719 54.425781 30.539062 54.058594 30.542969 53.898438 C 30.546875 53.617188 30.558594 53.621094 30.84375 53.984375 C 31.15625 54.382812 31.335938 55.238281 31.105469 55.238281 C 31.03125 55.238281 30.875 55.003906 30.753906 54.714844 Z M 26.214844 54.914062 C 25.699219 54.675781 24.816406 53.75 24.507812 53.121094 C 24.121094 52.328125 24.292969 52.246094 24.800781 52.980469 C 25.265625 53.65625 25.761719 54.109375 26.519531 54.546875 C 27.3125 55.003906 27.0625 55.304688 26.214844 54.914062 Z M 31.8125 54.773438 C 31.730469 54.589844 31.667969 54.195312 31.667969 53.890625 L 31.671875 53.34375 L 31.917969 53.671875 C 32.070312 53.875 32.164062 54.203125 32.164062 54.550781 C 32.167969 55.179688 32.027344 55.269531 31.8125 54.773438 Z M 28.664062 54.527344 C 28.5 54.34375 28.394531 54.164062 28.429688 54.125 C 28.542969 54.007812 29.074219 54.527344 29.019531 54.699219 C 28.984375 54.804688 28.859375 54.742188 28.664062 54.527344 Z M 32.824219 54.496094 C 32.699219 54.175781 32.703125 52.671875 32.832031 52.542969 C 33.023438 52.339844 33.164062 52.824219 33.167969 53.695312 C 33.167969 54.5625 33.003906 54.949219 32.824219 54.496094 Z M 29.433594 54.167969 C 29.351562 54.082031 29.285156 53.890625 29.289062 53.742188 C 29.292969 53.484375 29.304688 53.488281 29.539062 53.78125 C 29.902344 54.238281 29.8125 54.5625 29.433594 54.167969 Z M 25.785156 53.585938 C 25.511719 53.226562 25.453125 53.015625 25.628906 53.015625 C 25.78125 53.015625 26.277344 53.597656 26.277344 53.777344 C 26.277344 54.035156 26.058594 53.949219 25.785156 53.585938 Z M 33.746094 52.300781 C 33.597656 50.4375 33.367188 49.492188 32.183594 45.960938 C 31.636719 44.335938 31.40625 42.789062 31.328125 40.207031 C 31.246094 37.667969 31.347656 36.046875 31.601562 35.683594 C 31.746094 35.480469 31.761719 35.832031 31.699219 37.964844 C 31.597656 41.554688 31.878906 43.546875 32.929688 46.679688 C 33.957031 49.738281 34.371094 52.035156 34.09375 53.113281 C 33.949219 53.679688 33.832031 53.402344 33.746094 52.300781 Z M 27.09375 52.632812 C 26.875 52.183594 26.851562 51.972656 27.027344 51.972656 C 27.125 51.972656 27.53125 52.769531 27.53125 52.96875 C 27.53125 53.164062 27.25 52.949219 27.09375 52.632812 Z M 28.4375 52.757812 C 28.25 52.449219 28.234375 52.101562 28.402344 52.101562 C 28.550781 52.101562 28.78125 52.535156 28.78125 52.8125 C 28.78125 53.09375 28.625 53.070312 28.4375 52.757812 Z M 31.042969 52.765625 C 30.878906 52.445312 30.867188 51.476562 31.027344 51.652344 C 31.160156 51.792969 31.355469 53.015625 31.246094 53.015625 C 31.207031 53.015625 31.113281 52.902344 31.042969 52.765625 Z M 32.039062 52.679688 C 31.886719 52.261719 31.878906 51.1875 32.027344 51.1875 C 32.152344 51.1875 32.234375 51.480469 32.359375 52.394531 C 32.457031 53.085938 32.25 53.265625 32.039062 52.679688 Z M 29.75 52.265625 C 29.714844 52.070312 29.714844 51.851562 29.757812 51.785156 C 29.835938 51.648438 30.015625 52.042969 30.027344 52.394531 C 30.042969 52.761719 29.820312 52.660156 29.75 52.265625 Z M 25.679688 51.972656 C 25.59375 51.832031 25.527344 51.609375 25.527344 51.484375 C 25.53125 51.292969 25.574219 51.3125 25.773438 51.578125 C 26.023438 51.914062 26.101562 52.234375 25.929688 52.234375 C 25.878906 52.234375 25.765625 52.117188 25.679688 51.972656 Z M 32.878906 51.875 C 32.761719 51.675781 32.167969 49.046875 32.167969 48.742188 C 32.167969 47.75 32.839844 49.71875 32.992188 51.15625 C 33.070312 51.894531 33.03125 52.140625 32.878906 51.875 Z M 24.40625 51.335938 C 24.238281 51.011719 24.230469 50.535156 24.390625 50.535156 C 24.523438 50.535156 24.71875 51.417969 24.609375 51.53125 C 24.574219 51.570312 24.480469 51.484375 24.40625 51.335938 Z M 31.300781 50.015625 C 31.132812 49.195312 31.117188 48.078125 31.277344 48.253906 C 31.480469 48.472656 31.730469 50.386719 31.578125 50.546875 C 31.480469 50.648438 31.402344 50.503906 31.300781 50.015625 Z M 30.21875 49.953125 C 30.113281 49.214844 30.210938 48.910156 30.398438 49.398438 C 30.566406 49.847656 30.582031 50.535156 30.421875 50.535156 C 30.355469 50.535156 30.265625 50.273438 30.21875 49.953125 Z M 23.03125 49.824219 C 22.71875 48.527344 22.925781 45.203125 23.382812 44.132812 C 23.5 43.855469 23.515625 43.914062 23.46875 44.523438 C 23.441406 44.917969 23.351562 45.742188 23.269531 46.351562 C 23.128906 47.390625 23.164062 49.042969 23.347656 49.992188 C 23.46875 50.632812 23.191406 50.484375 23.03125 49.824219 Z M 24.105469 49.261719 C 23.925781 48.578125 23.894531 48.253906 23.96875 47.847656 C 24.101562 47.097656 24.25 47.339844 24.292969 48.390625 C 24.332031 49.328125 24.234375 49.769531 24.105469 49.261719 Z M 31.707031 47.691406 C 31.425781 47 31.039062 45.558594 31.039062 45.210938 C 31.039062 44.582031 31.296875 44.964844 31.605469 46.058594 C 31.785156 46.6875 31.984375 47.371094 32.050781 47.582031 C 32.199219 48.066406 32.199219 48.183594 32.035156 48.183594 C 31.960938 48.183594 31.816406 47.960938 31.707031 47.691406 Z M 30.441406 47.355469 C 30.355469 47.15625 30.292969 46.714844 30.296875 46.375 L 30.308594 45.765625 L 30.492188 46.203125 C 30.59375 46.445312 30.65625 46.886719 30.632812 47.183594 L 30.59375 47.726562 Z M 29.738281 44.707031 C 29.621094 44.394531 29.644531 43.476562 29.769531 43.476562 C 29.875 43.476562 30.03125 44.199219 30.035156 44.6875 C 30.035156 44.972656 29.839844 44.984375 29.738281 44.707031 Z M 30.613281 43.640625 C 30.378906 42.410156 30.265625 40.972656 30.335938 40.179688 C 30.480469 38.539062 30.621094 38.804688 30.703125 40.882812 C 30.75 41.988281 30.820312 43.140625 30.867188 43.445312 C 30.957031 44.066406 30.730469 44.246094 30.613281 43.640625 Z M 23.644531 42.078125 C 23.644531 41.574219 23.761719 41.234375 23.902344 41.328125 C 24.027344 41.40625 23.914062 42.175781 23.753906 42.359375 C 23.6875 42.433594 23.644531 42.316406 23.644531 42.078125 Z M 30.414062 37.214844 C 30.414062 36.859375 30.46875 36.53125 30.539062 36.488281 C 30.617188 36.4375 30.664062 36.683594 30.664062 37.132812 C 30.664062 37.53125 30.605469 37.859375 30.539062 37.859375 C 30.46875 37.859375 30.414062 37.570312 30.414062 37.214844 Z M 24.355469 36.988281 C 24.222656 36.851562 24.257812 35.664062 24.394531 35.574219 C 24.472656 35.523438 24.523438 35.789062 24.523438 36.285156 C 24.523438 37.082031 24.507812 37.148438 24.355469 36.988281 Z M 31.039062 35.492188 C 31.039062 35.242188 31.128906 34.921875 31.234375 34.78125 C 31.417969 34.542969 31.429688 34.5625 31.371094 35.097656 C 31.292969 35.839844 31.039062 36.136719 31.039062 35.492188 Z M 30.050781 34.570312 C 30.035156 33.761719 30.125 33.378906 30.300781 33.492188 C 30.457031 33.589844 30.425781 34.167969 30.226562 34.789062 L 30.0625 35.3125 Z M 31.84375 33.859375 C 31.914062 32.953125 32.34375 31.585938 32.558594 31.585938 C 32.699219 31.585938 32.699219 32.097656 32.554688 32.582031 C 32.492188 32.789062 32.351562 33.28125 32.238281 33.679688 C 31.90625 34.855469 31.761719 34.921875 31.84375 33.859375 Z M 28.101562 33.820312 C 27.980469 33.617188 28.148438 32.875 28.292969 32.964844 C 28.4375 33.058594 28.4375 33.554688 28.296875 33.789062 C 28.21875 33.917969 28.164062 33.925781 28.101562 33.820312 Z M 24.230469 33.625 C 24.105469 33.285156 24.128906 32.527344 24.265625 32.441406 C 24.4375 32.328125 24.574219 33.253906 24.433594 33.578125 C 24.328125 33.832031 24.308594 33.835938 24.230469 33.625 Z M 29.246094 33.109375 C 29.210938 33.015625 29.226562 32.734375 29.28125 32.492188 C 29.382812 32.054688 29.382812 32.0625 29.398438 32.664062 C 29.410156 33.292969 29.363281 33.429688 29.246094 33.109375 Z M 30.921875 32.699219 C 30.921875 32.339844 31.003906 31.898438 31.101562 31.71875 C 31.273438 31.40625 31.28125 31.421875 31.285156 32.117188 C 31.289062 32.5625 31.21875 32.941406 31.105469 33.097656 C 30.9375 33.332031 30.921875 33.300781 30.921875 32.699219 Z M 26.484375 32.320312 C 26.394531 32.066406 26.53125 31.574219 26.667969 31.660156 C 26.8125 31.753906 26.8125 32.503906 26.664062 32.503906 C 26.605469 32.503906 26.523438 32.417969 26.484375 32.320312 Z M 30.171875 31.816406 C 30.175781 31.582031 30.226562 31.273438 30.28125 31.128906 C 30.378906 30.890625 30.390625 30.886719 30.476562 31.097656 C 30.585938 31.386719 30.441406 32.242188 30.28125 32.242188 C 30.214844 32.242188 30.164062 32.050781 30.171875 31.816406 Z M 27.621094 31.898438 C 27.511719 31.785156 27.5 31.035156 27.605469 30.75 C 27.726562 30.425781 27.90625 30.644531 27.898438 31.105469 C 27.886719 31.613281 27.742188 32.027344 27.621094 31.898438 Z M 28.730469 31.347656 C 28.625 31.167969 28.773438 30.542969 28.921875 30.542969 C 29.0625 30.542969 29.0625 31.074219 28.921875 31.308594 C 28.851562 31.425781 28.785156 31.4375 28.730469 31.347656 Z M 25.613281 30.890625 C 25.492188 30.5625 25.503906 29.730469 25.636719 29.511719 C 25.820312 29.214844 25.90625 29.734375 25.800781 30.476562 C 25.730469 30.941406 25.679688 31.0625 25.613281 30.890625 Z M 26.777344 29.960938 C 26.777344 29.640625 26.835938 29.34375 26.902344 29.300781 C 26.980469 29.25 27.027344 29.472656 27.027344 29.882812 C 27.027344 30.246094 26.972656 30.542969 26.902344 30.542969 C 26.835938 30.542969 26.777344 30.28125 26.777344 29.960938 Z M 29.617188 30.453125 C 29.488281 30.320312 29.519531 29.519531 29.660156 29.429688 C 29.738281 29.382812 29.785156 29.582031 29.785156 29.945312 C 29.785156 30.550781 29.765625 30.609375 29.617188 30.453125 Z M 28.15625 29.382812 C 28.15625 29.09375 28.210938 28.824219 28.28125 28.777344 C 28.355469 28.730469 28.40625 28.90625 28.40625 29.21875 C 28.40625 29.507812 28.351562 29.777344 28.28125 29.824219 C 28.207031 29.871094 28.15625 29.695312 28.15625 29.382812 Z M 55.972656 40.46875 C 57.554688 40.070312 58.21875 39.550781 58.492188 38.488281 C 58.667969 37.808594 58.457031 36.730469 57.960938 35.742188 C 57.457031 34.753906 56.1875 33.507812 54.726562 32.570312 C 54.070312 32.152344 53.03125 31.457031 52.417969 31.023438 C 51.0625 30.078125 49.773438 29.441406 48.625 29.152344 C 47.378906 28.839844 45.167969 28.871094 43.886719 29.222656 C 41.84375 29.78125 39.019531 31.582031 37.140625 33.515625 C 35.234375 35.480469 34.820312 37.835938 36.226562 38.722656 C 36.71875 39.035156 37.003906 39.125 38.246094 39.371094 C 38.796875 39.476562 39.605469 39.65625 40.042969 39.765625 C 40.480469 39.878906 40.871094 39.9375 40.90625 39.898438 C 40.945312 39.859375 40.886719 39.6875 40.78125 39.519531 C 40.628906 39.277344 40.5 39.222656 40.214844 39.265625 C 39.730469 39.339844 39.578125 39.082031 39.992188 38.882812 C 40.167969 38.800781 40.3125 38.679688 40.3125 38.617188 C 40.3125 38.390625 39.949219 38.367188 39.566406 38.574219 C 39.332031 38.703125 38.957031 38.773438 38.644531 38.75 L 38.121094 38.707031 L 38.589844 38.464844 C 38.847656 38.332031 39.058594 38.179688 39.058594 38.128906 C 39.058594 37.890625 38.867188 37.90625 38.226562 38.199219 C 37.375 38.59375 37.113281 38.480469 37.695312 37.964844 L 38.121094 37.585938 L 37.683594 37.773438 C 37.441406 37.875 37.089844 38.03125 36.90625 38.121094 C 36.511719 38.3125 36.175781 38.21875 36.175781 37.914062 C 36.175781 37.136719 38.757812 36.007812 41.691406 35.5 C 42.226562 35.410156 43.6875 35.34375 45.078125 35.347656 C 47.53125 35.355469 49.015625 35.519531 50.652344 35.972656 C 51.066406 36.085938 52.140625 36.375 53.035156 36.617188 C 55 37.140625 54.96875 37.128906 55.953125 37.625 C 57.058594 38.179688 57.636719 39.023438 57.183594 39.414062 C 57.050781 39.53125 56.925781 39.492188 56.628906 39.230469 C 56.226562 38.875 54.484375 37.988281 54.203125 37.992188 C 54.03125 37.996094 54.585938 38.503906 54.765625 38.507812 C 54.976562 38.515625 55.984375 39.316406 55.917969 39.425781 C 55.84375 39.550781 55.40625 39.382812 54.121094 38.75 C 53.367188 38.378906 53.105469 38.339844 53.273438 38.621094 C 53.316406 38.691406 53.714844 38.972656 54.164062 39.246094 C 54.609375 39.519531 54.976562 39.792969 54.976562 39.855469 C 54.976562 40.03125 54.300781 39.839844 53.386719 39.40625 C 52.515625 38.996094 52.238281 38.984375 52.785156 39.382812 C 52.96875 39.515625 53.265625 39.753906 53.453125 39.914062 C 53.753906 40.175781 53.761719 40.203125 53.535156 40.207031 C 53.246094 40.210938 52.101562 39.554688 51.855469 39.242188 C 51.761719 39.128906 51.609375 39.035156 51.515625 39.035156 C 51.207031 39.035156 51.335938 39.535156 51.71875 39.820312 C 52.375 40.308594 52.160156 40.511719 51.390625 40.128906 C 50.898438 39.886719 50.890625 39.890625 50.777344 40.363281 C 50.703125 40.675781 50.734375 40.722656 51.050781 40.78125 C 51.847656 40.925781 54.925781 40.730469 55.972656 40.46875 Z M 57.296875 37.125 C 57.195312 36.863281 57.109375 36.625 57.109375 36.597656 C 57.109375 36.421875 56.136719 34.996094 55.640625 34.449219 C 55.015625 33.75 54.988281 33.480469 55.585938 33.925781 C 56.582031 34.664062 57.734375 36.4375 57.734375 37.230469 C 57.734375 37.742188 57.523438 37.6875 57.296875 37.125 Z M 55.976562 36.34375 C 55.910156 36.160156 55.886719 35.949219 55.929688 35.878906 C 56.027344 35.71875 56.347656 36.152344 56.351562 36.453125 C 56.359375 36.800781 56.117188 36.730469 55.976562 36.34375 Z M 54.546875 34.710938 C 53.953125 33.777344 53.875 33.425781 54.363281 33.886719 C 54.625 34.128906 55.351562 35.34375 55.351562 35.539062 C 55.355469 35.828125 55.078125 35.539062 54.546875 34.710938 Z M 36.804688 35.296875 C 36.804688 35.113281 37.726562 33.925781 38.054688 33.679688 C 38.761719 33.15625 38.683594 33.4375 37.855469 34.398438 C 37.09375 35.28125 36.804688 35.53125 36.804688 35.296875 Z M 53.519531 34.890625 C 53.402344 34.691406 53.105469 34.308594 52.863281 34.039062 C 52.621094 33.773438 52.460938 33.511719 52.507812 33.464844 C 52.648438 33.316406 53.398438 34.011719 53.695312 34.566406 C 54.019531 35.167969 53.859375 35.464844 53.519531 34.890625 Z M 51.546875 34.121094 C 50.9375 33.410156 50.851562 33.140625 51.316406 33.402344 C 51.863281 33.707031 52.621094 34.875 52.25 34.847656 C 52.199219 34.84375 51.882812 34.515625 51.546875 34.121094 Z M 50.089844 33.875 C 49.648438 33.386719 49.910156 33.300781 50.375 33.78125 C 50.648438 34.070312 50.710938 34.199219 50.578125 34.199219 C 50.472656 34.199219 50.25 34.054688 50.089844 33.875 Z M 53.027344 32.6875 C 52.1875 32.160156 51.875 31.894531 51.695312 31.542969 C 51.550781 31.257812 51.519531 31.238281 52.875 32.207031 C 54.285156 33.210938 54.390625 33.542969 53.027344 32.6875 Z M 41.316406 32.917969 C 41.316406 32.75 41.804688 32.316406 41.894531 32.40625 C 41.933594 32.449219 41.929688 32.546875 41.886719 32.625 C 41.769531 32.820312 41.316406 33.054688 41.316406 32.917969 Z M 39.953125 32.664062 C 40.269531 32.246094 40.601562 31.980469 40.804688 31.984375 C 40.9375 31.984375 40.847656 32.136719 40.535156 32.441406 C 40.039062 32.921875 39.648438 33.074219 39.953125 32.664062 Z M 48.542969 32.65625 C 48.429688 32.523438 48.335938 32.347656 48.335938 32.261719 C 48.335938 32.054688 48.742188 32.316406 48.945312 32.652344 C 49.140625 32.984375 48.828125 32.984375 48.542969 32.65625 Z M 49.53125 32.308594 C 49.328125 32.132812 49.199219 31.949219 49.25 31.898438 C 49.371094 31.769531 49.957031 32.113281 50.105469 32.398438 C 50.277344 32.738281 49.984375 32.691406 49.53125 32.308594 Z M 50.960938 32.246094 C 50.722656 32.035156 50.585938 31.855469 50.65625 31.855469 C 50.792969 31.847656 51.71875 32.472656 51.71875 32.570312 C 51.71875 32.746094 51.34375 32.585938 50.960938 32.246094 Z M 41.816406 31.480469 C 41.816406 31.308594 42.378906 30.804688 42.570312 30.804688 C 42.675781 30.804688 42.597656 30.957031 42.382812 31.195312 C 42.023438 31.582031 41.816406 31.6875 41.816406 31.480469 Z M 47.816406 31.207031 C 47.511719 30.949219 47.535156 30.742188 47.851562 30.867188 C 48.0625 30.953125 48.382812 31.457031 48.222656 31.457031 C 48.164062 31.457031 47.980469 31.34375 47.816406 31.207031 Z M 43.320312 31.203125 C 43.320312 31.027344 43.78125 30.542969 43.949219 30.542969 C 44.140625 30.542969 44.097656 30.742188 43.855469 30.960938 C 43.511719 31.265625 43.320312 31.355469 43.320312 31.203125 Z M 48.714844 30.910156 C 48.511719 30.710938 48.46875 30.605469 48.578125 30.566406 C 48.667969 30.535156 48.886719 30.664062 49.066406 30.851562 C 49.480469 31.285156 49.152344 31.335938 48.714844 30.910156 Z M 50.003906 30.871094 C 49.730469 30.625 49.699219 30.550781 49.863281 30.546875 C 49.980469 30.542969 50.234375 30.6875 50.425781 30.863281 C 50.699219 31.113281 50.730469 31.1875 50.566406 31.191406 C 50.449219 31.195312 50.195312 31.050781 50.003906 30.871094 Z M 52.796875 38.175781 C 52.851562 37.949219 52.8125 37.769531 52.679688 37.628906 C 52.40625 37.34375 52.339844 37.453125 52.429688 38.03125 C 52.515625 38.59375 52.683594 38.65625 52.796875 38.175781 Z M 51.515625 38.089844 C 51.667969 37.492188 51.609375 37.207031 51.328125 37.207031 C 51.113281 37.207031 51.078125 37.261719 51.136719 37.5 C 51.179688 37.660156 51.214844 37.925781 51.214844 38.089844 C 51.21875 38.25 51.265625 38.382812 51.328125 38.382812 C 51.390625 38.382812 51.472656 38.25 51.515625 38.089844 Z M 50.339844 37.3125 C 50.339844 37.03125 50.28125 36.945312 50.089844 36.945312 C 49.882812 36.945312 49.839844 37.03125 49.839844 37.445312 C 49.839844 37.722656 49.878906 37.988281 49.929688 38.039062 C 50.074219 38.191406 50.339844 37.714844 50.339844 37.3125 Z M 40.789062 37.359375 C 40.820312 36.945312 40.785156 36.8125 40.640625 36.8125 C 40.363281 36.8125 40.277344 37.039062 40.371094 37.550781 C 40.480469 38.164062 40.742188 38.046875 40.789062 37.359375 Z M 49.160156 37.238281 C 49.238281 36.730469 49.222656 36.683594 48.976562 36.683594 C 48.71875 36.683594 48.640625 36.902344 48.703125 37.46875 C 48.78125 38.203125 49.03125 38.078125 49.160156 37.238281 Z M 39.5625 37.460938 C 39.5625 37.320312 39.476562 37.207031 39.375 37.207031 C 39.1875 37.207031 39.109375 37.605469 39.265625 37.769531 C 39.394531 37.90625 39.5625 37.730469 39.5625 37.460938 Z M 41.941406 37.269531 C 41.941406 36.769531 41.90625 36.683594 41.691406 36.683594 C 41.492188 36.683594 41.441406 36.769531 41.441406 37.113281 C 41.441406 37.523438 41.621094 37.859375 41.84375 37.859375 C 41.898438 37.859375 41.941406 37.59375 41.941406 37.269531 Z M 46.695312 37.449219 C 46.929688 36.742188 46.875 36.421875 46.519531 36.421875 C 46.246094 36.421875 46.203125 36.480469 46.207031 36.847656 C 46.207031 37.378906 46.328125 37.859375 46.457031 37.859375 C 46.511719 37.859375 46.617188 37.675781 46.695312 37.449219 Z M 47.960938 37.324219 C 48.132812 36.65625 48.046875 36.390625 47.675781 36.445312 C 47.460938 36.476562 47.386719 36.585938 47.355469 36.90625 C 47.316406 37.339844 47.507812 37.859375 47.707031 37.859375 C 47.773438 37.859375 47.886719 37.617188 47.960938 37.324219 Z M 43.117188 36.988281 C 43.132812 36.570312 43.09375 36.488281 42.882812 36.488281 C 42.671875 36.488281 42.636719 36.5625 42.664062 36.945312 C 42.683594 37.195312 42.726562 37.484375 42.761719 37.585938 C 42.875 37.910156 43.101562 37.527344 43.117188 36.988281 Z M 44.347656 36.875 C 44.378906 36.558594 44.335938 36.480469 44.105469 36.445312 C 43.78125 36.398438 43.734375 36.679688 43.957031 37.296875 C 44.066406 37.589844 44.113281 37.625 44.199219 37.464844 C 44.257812 37.351562 44.324219 37.089844 44.347656 36.875 Z M 45.519531 36.910156 C 45.601562 36.445312 45.589844 36.421875 45.265625 36.421875 C 44.9375 36.421875 44.925781 36.445312 45.011719 36.910156 C 45.167969 37.785156 45.367188 37.785156 45.519531 36.910156 Z M 21.257812 29.628906 C 21.257812 28.832031 21.074219 28.527344 20.894531 29.019531 C 20.820312 29.21875 20.761719 29.492188 20.761719 29.628906 C 20.761719 29.761719 20.820312 30.035156 20.894531 30.234375 C 21.074219 30.730469 21.257812 30.421875 21.257812 29.628906 Z M 19.75 29.105469 C 19.746094 28.566406 19.699219 28.007812 19.644531 27.867188 C 19.550781 27.617188 19.542969 27.621094 19.390625 27.914062 C 19.238281 28.207031 19.285156 29.546875 19.46875 30.199219 C 19.605469 30.691406 19.753906 30.101562 19.75 29.105469 Z M 18.640625 29.335938 C 18.746094 28.914062 18.746094 28.613281 18.636719 28.09375 C 18.46875 27.316406 18.316406 27.21875 18.191406 27.808594 C 18.082031 28.3125 18.277344 29.886719 18.445312 29.886719 C 18.472656 29.886719 18.558594 29.640625 18.640625 29.335938 Z M 17.375 28.492188 C 17.375 28.121094 17.3125 27.648438 17.234375 27.445312 L 17.089844 27.078125 L 16.984375 27.535156 C 16.886719 27.964844 16.929688 28.710938 17.085938 29.285156 C 17.203125 29.710938 17.375 29.242188 17.375 28.492188 Z M 23.390625 28.183594 C 23.394531 27.652344 23.328125 27.230469 23.21875 27.074219 C 23.054688 26.839844 23.03125 26.863281 22.894531 27.390625 C 22.742188 27.984375 22.824219 28.914062 23.050781 29.207031 C 23.269531 29.492188 23.390625 29.132812 23.390625 28.183594 Z M 21.953125 28.019531 C 21.953125 27.003906 21.820312 26.308594 21.648438 26.417969 C 21.453125 26.546875 21.410156 27.328125 21.542969 28.296875 C 21.710938 29.523438 21.953125 29.359375 21.953125 28.019531 Z M 20.558594 28.765625 C 20.691406 28.40625 20.632812 27.222656 20.457031 26.816406 L 20.292969 26.425781 L 20.167969 26.753906 C 20.054688 27.0625 20.066406 27.589844 20.207031 28.550781 C 20.277344 29.003906 20.4375 29.105469 20.558594 28.765625 Z M 16.28125 27.652344 C 16.304688 26.339844 16.027344 25.484375 15.828125 26.261719 C 15.714844 26.707031 15.734375 27.320312 15.886719 28.066406 C 16.066406 28.945312 16.257812 28.746094 16.28125 27.652344 Z M 32.65625 28.289062 C 32.910156 27.457031 32.945312 26.832031 32.75 26.558594 C 32.648438 26.414062 32.53125 26.328125 32.492188 26.367188 C 32.347656 26.519531 32.25 28.710938 32.390625 28.710938 C 32.464844 28.710938 32.582031 28.523438 32.65625 28.289062 Z M 14.066406 27.84375 C 14.167969 27.285156 13.988281 26.152344 13.804688 26.195312 C 13.664062 26.230469 13.566406 27.570312 13.675781 28.019531 C 13.785156 28.46875 13.972656 28.382812 14.066406 27.84375 Z M 34.167969 27.554688 C 34.238281 27.292969 34.296875 26.875 34.296875 26.621094 C 34.292969 26.144531 34.125 25.730469 34.011719 25.921875 C 33.910156 26.09375 33.671875 27.535156 33.671875 27.96875 C 33.671875 28.292969 33.699219 28.328125 33.855469 28.191406 C 33.960938 28.101562 34.101562 27.816406 34.167969 27.554688 Z M 15.246094 27.242188 C 15.242188 26.214844 15.09375 25.75 14.871094 26.097656 C 14.710938 26.359375 14.714844 26.898438 14.886719 27.609375 C 15.09375 28.472656 15.246094 28.3125 15.246094 27.242188 Z M 26.574219 27.503906 C 26.742188 26.84375 26.613281 25.183594 26.390625 25.183594 C 26.332031 25.183594 26.21875 25.417969 26.136719 25.703125 C 26.019531 26.105469 26.023438 26.390625 26.148438 27.007812 C 26.320312 27.839844 26.449219 27.992188 26.574219 27.503906 Z M 35.671875 26.359375 C 35.671875 25.660156 35.480469 25.453125 35.324219 25.984375 C 35.160156 26.546875 35.058594 27.632812 35.160156 27.738281 C 35.289062 27.875 35.667969 26.851562 35.671875 26.359375 Z M 13.210938 26.101562 C 13.253906 25.332031 13.222656 24.871094 13.117188 24.664062 C 12.902344 24.242188 12.792969 24.492188 12.6875 25.667969 C 12.585938 26.765625 12.792969 27.898438 13.019531 27.480469 C 13.089844 27.34375 13.179688 26.726562 13.210938 26.101562 Z M 19.316406 26.441406 C 19.273438 26.207031 19.1875 25.933594 19.121094 25.828125 C 19.023438 25.667969 18.988281 25.667969 18.882812 25.839844 C 18.71875 26.097656 18.726562 26.570312 18.902344 27.210938 L 19.042969 27.734375 L 19.21875 27.296875 C 19.320312 27.046875 19.359375 26.6875 19.316406 26.441406 Z M 18.003906 26.621094 C 18.003906 25.777344 17.78125 25.058594 17.609375 25.34375 C 17.460938 25.585938 17.480469 26.988281 17.632812 27.289062 C 17.851562 27.710938 18.003906 27.4375 18.003906 26.621094 Z M 11.976562 26.996094 C 12.136719 26.511719 12.160156 25.101562 12.007812 25 C 11.871094 24.914062 11.613281 26.097656 11.613281 26.828125 C 11.613281 27.503906 11.78125 27.582031 11.976562 26.996094 Z M 24.054688 26.277344 C 24.066406 25.257812 23.9375 24.695312 23.746094 24.898438 C 23.59375 25.054688 23.566406 26.371094 23.703125 26.996094 C 23.847656 27.683594 24.042969 27.292969 24.054688 26.277344 Z M 25.210938 27.144531 C 25.253906 27 25.296875 26.574219 25.300781 26.199219 C 25.320312 25.066406 25.015625 24.476562 24.851562 25.332031 C 24.625 26.5 24.933594 28.050781 25.210938 27.144531 Z M 28.027344 26.238281 C 28.023438 25.839844 27.945312 25.363281 27.847656 25.183594 L 27.675781 24.859375 L 27.574219 25.25 C 27.441406 25.757812 27.4375 26.875 27.570312 27.210938 C 27.671875 27.46875 27.675781 27.46875 27.851562 27.21875 C 27.957031 27.066406 28.027344 26.667969 28.027344 26.238281 Z M 29.207031 27.070312 C 29.324219 26.757812 29.296875 25.273438 29.171875 25.070312 C 28.949219 24.703125 28.78125 25.082031 28.78125 25.964844 C 28.78125 26.882812 28.859375 27.273438 29.035156 27.273438 C 29.085938 27.273438 29.167969 27.183594 29.207031 27.070312 Z M 30.707031 26.15625 C 30.699219 25.460938 30.480469 24.863281 30.28125 24.992188 C 30.117188 25.097656 30.128906 26.515625 30.296875 26.972656 C 30.425781 27.324219 30.4375 27.328125 30.570312 27.078125 C 30.648438 26.9375 30.710938 26.519531 30.707031 26.15625 Z M 36.582031 26.679688 C 36.695312 26.253906 36.601562 25.445312 36.4375 25.445312 C 36.3125 25.445312 36.175781 26.097656 36.175781 26.714844 C 36.175781 27.261719 36.429688 27.242188 36.582031 26.679688 Z M 22.703125 26.488281 C 22.800781 25.890625 22.675781 24.699219 22.503906 24.589844 C 22.296875 24.457031 22.117188 25.238281 22.179688 25.992188 C 22.273438 27.136719 22.554688 27.402344 22.703125 26.488281 Z M 31.917969 26.105469 C 31.917969 25.367188 31.625 24.5 31.496094 24.855469 C 31.367188 25.203125 31.402344 26.351562 31.546875 26.632812 C 31.75 27.035156 31.917969 26.800781 31.917969 26.105469 Z M 16.84375 25.15625 C 16.773438 24.105469 16.582031 23.769531 16.375 24.335938 C 16.242188 24.699219 16.265625 24.988281 16.523438 26.027344 C 16.632812 26.476562 16.667969 26.511719 16.777344 26.304688 C 16.851562 26.167969 16.878906 25.667969 16.84375 25.15625 Z M 21.136719 25.460938 C 21.136719 24.761719 21.085938 24.386719 20.96875 24.285156 C 20.71875 24.070312 20.636719 24.242188 20.636719 24.992188 C 20.636719 25.710938 20.835938 26.492188 21.023438 26.492188 C 21.085938 26.492188 21.136719 26.027344 21.136719 25.460938 Z M 11.109375 26.253906 C 11.109375 26.195312 10.980469 26.015625 10.820312 25.863281 C 10.601562 25.644531 10.5 25.613281 10.386719 25.730469 C 10.15625 25.96875 10.050781 25.746094 10.214844 25.375 C 10.414062 24.914062 10.394531 24.074219 10.179688 23.882812 C 10.027344 23.753906 9.984375 23.8125 9.921875 24.226562 C 9.769531 25.210938 9.722656 25.324219 9.414062 25.472656 C 9.03125 25.652344 8.875 25.519531 9.078125 25.179688 C 9.265625 24.871094 9.28125 24.140625 9.101562 24.140625 C 9.03125 24.140625 8.921875 24.28125 8.859375 24.453125 C 8.734375 24.800781 8.246094 25.210938 8.082031 25.105469 C 8.027344 25.070312 8.089844 24.808594 8.230469 24.53125 C 8.480469 24.015625 8.570312 23.226562 8.375 23.226562 C 8.175781 23.226562 7.703125 23.859375 7.542969 24.351562 C 7.328125 24.996094 7.140625 25.046875 6.925781 24.519531 C 6.628906 23.785156 7.0625 22.832031 8.019531 22.113281 C 9.160156 21.253906 11.355469 20.015625 12.386719 19.652344 C 14.039062 19.066406 17.042969 18.894531 19.695312 19.230469 C 24.839844 19.878906 24.707031 19.871094 26.851562 19.648438 C 29.117188 19.410156 29.152344 19.402344 32.265625 18.664062 C 38.054688 17.289062 43.457031 17.828125 49.242188 20.355469 C 52.40625 21.738281 53.066406 22.167969 53.367188 23.03125 C 53.453125 23.28125 53.554688 23.484375 53.59375 23.484375 C 53.628906 23.484375 53.796875 23.28125 53.957031 23.027344 C 55.039062 21.375 53.6875 18.027344 50.996094 15.703125 C 49.9375 14.785156 48.777344 14.0625 47.347656 13.417969 C 46.351562 12.96875 45.523438 12.734375 41.378906 11.710938 C 39.910156 11.351562 38.542969 10.796875 36.277344 9.652344 C 32.234375 7.609375 30.472656 7.179688 26.753906 7.320312 C 24.605469 7.402344 23.269531 7.664062 21.164062 8.402344 C 18.757812 9.25 16.761719 10.394531 13.992188 12.527344 C 13.199219 13.136719 11.847656 14.132812 10.988281 14.738281 C 8.378906 16.578125 6.703125 18.574219 5.859375 20.859375 C 4.625 24.195312 6.300781 26.222656 10.390625 26.339844 C 10.785156 26.351562 11.109375 26.3125 11.109375 26.253906 Z M 53.101562 20.535156 C 52.894531 20.058594 52.476562 19.308594 52.171875 18.867188 C 51.632812 18.082031 49.957031 16.304688 49.34375 15.871094 C 48.953125 15.589844 49.105469 15.421875 49.554688 15.636719 C 50.582031 16.125 52.453125 18.238281 53.085938 19.632812 C 53.402344 20.328125 53.671875 21.394531 53.53125 21.394531 C 53.5 21.394531 53.308594 21.007812 53.101562 20.535156 Z M 6.976562 20.839844 C 6.976562 20.417969 8 19.042969 8.3125 19.042969 C 8.570312 19.042969 8.527344 19.125 7.785156 20.09375 C 7.066406 21.03125 6.976562 21.117188 6.976562 20.839844 Z M 51.40625 19.730469 C 51.144531 19.316406 50.738281 18.726562 50.5 18.421875 C 49.863281 17.59375 50.074219 17.417969 50.777344 18.195312 C 51.375 18.855469 51.875 19.648438 52.027344 20.1875 C 52.175781 20.710938 51.890625 20.5 51.40625 19.730469 Z M 8.855469 20.09375 C 8.855469 19.898438 9.378906 19.433594 9.507812 19.515625 C 9.667969 19.621094 9.199219 20.210938 8.949219 20.21875 C 8.898438 20.21875 8.855469 20.164062 8.855469 20.09375 Z M 48.808594 18.410156 C 47.972656 17.554688 47.824219 17.347656 48.046875 17.347656 C 48.359375 17.34375 49.785156 18.65625 49.90625 19.0625 C 50.070312 19.597656 49.816406 19.449219 48.808594 18.410156 Z M 47.125 18.347656 C 46.746094 18.132812 45.953125 17.363281 45.953125 17.210938 C 45.953125 16.992188 46.121094 17.070312 46.707031 17.550781 C 47.476562 18.191406 47.742188 18.695312 47.125 18.347656 Z M 25.425781 17.714844 C 25.496094 17.5 25.871094 17.269531 25.976562 17.378906 C 26.09375 17.503906 25.785156 17.867188 25.5625 17.867188 C 25.460938 17.867188 25.398438 17.796875 25.425781 17.714844 Z M 24.144531 17.609375 C 24.144531 17.425781 24.761719 17.03125 24.871094 17.140625 C 24.917969 17.195312 24.828125 17.347656 24.664062 17.488281 C 24.339844 17.761719 24.144531 17.808594 24.144531 17.609375 Z M 22.890625 17.5 C 22.890625 17.316406 23.1875 17.082031 23.417969 17.082031 C 23.746094 17.082031 23.695312 17.277344 23.324219 17.453125 C 22.945312 17.632812 22.890625 17.640625 22.890625 17.5 Z M 44.230469 17.445312 C 43.890625 17.277344 43.863281 17.082031 44.175781 17.082031 C 44.40625 17.082031 44.699219 17.316406 44.699219 17.5 C 44.699219 17.636719 44.578125 17.621094 44.230469 17.445312 Z M 48.335938 16.550781 C 47.175781 15.601562 46.972656 15.246094 47.859375 15.726562 C 48.296875 15.960938 49.464844 17.058594 49.464844 17.230469 C 49.464844 17.4375 49.28125 17.328125 48.335938 16.550781 Z M 19.257812 17.097656 C 19.257812 16.953125 19.582031 16.8125 19.679688 16.914062 C 19.71875 16.957031 19.722656 17.039062 19.6875 17.101562 C 19.597656 17.25 19.257812 17.246094 19.257812 17.097656 Z M 21.765625 17.082031 C 21.765625 16.898438 22.488281 16.539062 22.574219 16.683594 C 22.65625 16.820312 22.570312 16.886719 22.09375 17.078125 C 21.890625 17.15625 21.765625 17.160156 21.765625 17.082031 Z M 20.621094 16.777344 C 20.714844 16.660156 20.9375 16.5625 21.117188 16.5625 C 21.519531 16.5625 21.34375 16.765625 20.824219 16.898438 C 20.484375 16.988281 20.464844 16.976562 20.621094 16.777344 Z M 27.53125 16.625 C 27.824219 16.300781 28.15625 16.191406 28.15625 16.421875 C 28.15625 16.585938 27.644531 16.953125 27.417969 16.953125 C 27.289062 16.953125 27.320312 16.859375 27.53125 16.625 Z M 46.359375 16.34375 C 45.578125 15.757812 45.375 15.484375 45.808594 15.601562 C 46.109375 15.683594 47.238281 16.582031 47.300781 16.789062 C 47.386719 17.054688 47.1875 16.960938 46.359375 16.34375 Z M 44.515625 16.359375 C 44.175781 16.113281 43.835938 15.886719 43.765625 15.863281 C 43.695312 15.835938 43.675781 15.765625 43.722656 15.710938 C 43.851562 15.570312 44.964844 16.207031 45.179688 16.542969 C 45.429688 16.933594 45.242188 16.882812 44.515625 16.359375 Z M 26.402344 16.441406 C 26.402344 16.289062 26.902344 15.777344 27.050781 15.777344 C 27.175781 15.777344 27.179688 15.925781 27.058594 16.117188 C 26.917969 16.335938 26.402344 16.589844 26.402344 16.441406 Z M 42.414062 16.355469 C 42.105469 16.183594 41.941406 15.90625 42.144531 15.90625 C 42.324219 15.90625 43.070312 16.339844 43.070312 16.445312 C 43.070312 16.613281 42.804688 16.578125 42.414062 16.355469 Z M 25.023438 16.242188 C 25.023438 16.042969 25.386719 15.777344 25.65625 15.777344 C 25.847656 15.777344 25.582031 16.125 25.253906 16.3125 C 25.078125 16.410156 25.023438 16.394531 25.023438 16.242188 Z M 10.609375 16.179688 C 10.609375 15.882812 12.417969 14.59375 12.816406 14.609375 C 13.046875 14.617188 13.046875 14.621094 12.824219 14.773438 C 12.695312 14.855469 12.300781 15.152344 11.945312 15.429688 C 11.152344 16.042969 10.609375 16.347656 10.609375 16.179688 Z M 23.644531 16.175781 C 23.644531 16.007812 24.160156 15.644531 24.394531 15.652344 C 24.515625 15.652344 24.453125 15.769531 24.207031 15.976562 C 23.808594 16.316406 23.644531 16.375 23.644531 16.175781 Z M 13.808594 15.007812 C 13.945312 14.871094 14.199219 14.71875 14.371094 14.671875 L 14.683594 14.585938 L 14.332031 14.921875 C 13.902344 15.328125 13.40625 15.410156 13.808594 15.007812 Z M 39.78125 15.101562 C 39.40625 14.960938 39.316406 14.730469 39.632812 14.730469 C 39.898438 14.730469 40.3125 14.972656 40.3125 15.128906 C 40.3125 15.277344 40.234375 15.273438 39.78125 15.101562 Z M 41.875 14.941406 C 41.734375 14.839844 41.488281 14.738281 41.324219 14.710938 C 40.984375 14.660156 40.8125 14.339844 41.121094 14.339844 C 41.371094 14.339844 42.269531 14.804688 42.378906 14.992188 C 42.496094 15.183594 42.164062 15.152344 41.875 14.941406 Z M 45.453125 14.625 C 44.792969 14.234375 44.691406 14.136719 44.921875 14.101562 C 45.222656 14.054688 46.339844 14.699219 46.425781 14.964844 C 46.503906 15.207031 46.339844 15.148438 45.453125 14.625 Z M 47.558594 14.792969 C 46.921875 14.445312 46.699219 14.207031 47.015625 14.207031 C 47.253906 14.207031 48.210938 14.851562 48.210938 15.011719 C 48.210938 15.152344 48.25 15.167969 47.558594 14.792969 Z M 43.515625 14.539062 C 43.003906 14.292969 42.707031 14.085938 42.792969 14.03125 C 43.058594 13.859375 44.65625 14.71875 44.4375 14.910156 C 44.410156 14.933594 43.996094 14.769531 43.515625 14.539062 Z M 14.246094 13.828125 C 14.246094 13.617188 15.457031 12.769531 15.765625 12.769531 C 15.992188 12.769531 15.871094 12.902344 15.21875 13.359375 C 14.335938 13.976562 14.246094 14.019531 14.246094 13.828125 Z M 16.246094 13.550781 C 16.65625 13.183594 17.003906 13.050781 17 13.261719 C 16.996094 13.398438 16.164062 13.949219 15.96875 13.941406 C 15.882812 13.9375 16.007812 13.761719 16.246094 13.550781 Z M 18.503906 12.3125 C 18.785156 12.003906 19.257812 11.867188 19.257812 12.09375 C 19.257812 12.195312 18.46875 12.640625 18.292969 12.640625 C 18.246094 12.640625 18.34375 12.492188 18.503906 12.3125 Z M 16.875 12.117188 C 16.875 11.960938 17.617188 11.464844 17.847656 11.464844 C 18.144531 11.464844 18.003906 11.679688 17.515625 11.964844 C 16.96875 12.285156 16.875 12.304688 16.875 12.117188 Z M 36.039062 11.808594 C 35.195312 11.449219 34.550781 11.046875 34.238281 10.683594 C 33.929688 10.328125 34.210938 10.335938 34.703125 10.703125 C 34.910156 10.855469 35.503906 11.175781 36.019531 11.410156 C 36.535156 11.644531 37.019531 11.898438 37.09375 11.976562 C 37.328125 12.21875 36.800781 12.136719 36.039062 11.808594 Z M 33.796875 11.707031 C 33.554688 11.550781 33.425781 11.402344 33.503906 11.371094 C 33.671875 11.3125 34.367188 11.652344 34.484375 11.855469 C 34.617188 12.078125 34.257812 12 33.796875 11.707031 Z M 38.097656 11.664062 C 36.464844 11.007812 33.671875 9.460938 33.671875 9.214844 C 33.671875 8.96875 34.230469 9.160156 35.195312 9.738281 C 36.765625 10.679688 38.976562 11.726562 39.386719 11.726562 C 39.476562 11.726562 39.582031 11.785156 39.625 11.855469 C 39.765625 12.09375 38.894531 11.984375 38.097656 11.664062 Z M 30.1875 11.308594 C 29.796875 10.902344 30.1875 10.816406 30.664062 11.203125 L 30.976562 11.457031 L 30.65625 11.460938 C 30.480469 11.464844 30.269531 11.394531 30.1875 11.308594 Z M 31.507812 10.914062 C 30.90625 10.644531 30.734375 10.417969 31.132812 10.417969 C 31.414062 10.421875 32.167969 10.894531 32.167969 11.070312 C 32.167969 11.144531 32.152344 11.199219 32.136719 11.191406 C 32.117188 11.1875 31.835938 11.0625 31.507812 10.914062 Z M 32.324219 10.253906 C 31.65625 9.828125 31.511719 9.636719 31.855469 9.636719 C 32.140625 9.636719 33.042969 10.296875 33.042969 10.503906 C 33.042969 10.726562 33.097656 10.746094 32.324219 10.253906 Z M 27.402344 10.21875 C 27.316406 10.109375 27.273438 9.988281 27.3125 9.949219 C 27.382812 9.875 28.15625 10.25 28.15625 10.355469 C 28.15625 10.511719 27.542969 10.398438 27.402344 10.21875 Z M 28.6875 9.898438 C 28.328125 9.667969 28.144531 9.375 28.359375 9.375 C 28.515625 9.375 29.410156 9.949219 29.410156 10.050781 C 29.410156 10.230469 29.117188 10.167969 28.6875 9.898438 Z M 29.941406 9.613281 C 29.71875 9.46875 29.535156 9.296875 29.535156 9.230469 C 29.535156 8.992188 29.917969 9.125 30.316406 9.5 C 30.789062 9.949219 30.566406 10.015625 29.941406 9.613281 Z M 25.332031 9.234375 C 25.285156 9.15625 25.28125 9.0625 25.316406 9.023438 C 25.425781 8.910156 26.027344 9.101562 26.027344 9.246094 C 26.027344 9.417969 25.433594 9.410156 25.332031 9.234375 Z M 32.449219 9.214844 C 32.292969 9.136719 32.167969 9.023438 32.167969 8.960938 C 32.167969 8.75 32.628906 8.851562 32.855469 9.113281 C 33.113281 9.410156 32.929688 9.457031 32.449219 9.214844 Z M 27.277344 8.894531 C 26.601562 8.785156 26.402344 8.710938 26.402344 8.570312 C 26.402344 8.367188 27.414062 8.546875 27.652344 8.792969 C 27.75 8.894531 27.78125 8.972656 27.714844 8.964844 C 27.648438 8.953125 27.453125 8.921875 27.277344 8.894531 Z M 30.457031 8.851562 C 30.148438 8.722656 29.953125 8.460938 30.160156 8.460938 C 30.328125 8.460938 31.039062 8.832031 31.039062 8.921875 C 31.039062 9.011719 30.761719 8.980469 30.457031 8.851562 Z M 28.574219 8.628906 C 28.308594 8.578125 28.050781 8.199219 28.277344 8.199219 C 28.523438 8.199219 29.035156 8.460938 29.035156 8.585938 C 29.035156 8.660156 28.992188 8.710938 28.941406 8.703125 C 28.886719 8.691406 28.722656 8.660156 28.574219 8.628906 Z M 33.527344 25.609375 C 33.660156 24.917969 33.546875 23.878906 33.34375 23.878906 C 33.199219 23.878906 32.917969 24.824219 32.917969 25.320312 C 32.917969 25.863281 33.09375 26.359375 33.28125 26.359375 C 33.339844 26.359375 33.449219 26.023438 33.527344 25.609375 Z M 19.949219 25.835938 C 20.046875 25.367188 19.933594 24.589844 19.707031 24.152344 L 19.542969 23.839844 L 19.460938 24.292969 C 19.417969 24.539062 19.4375 25.054688 19.507812 25.4375 C 19.578125 25.820312 19.632812 26.15625 19.632812 26.183594 C 19.632812 26.207031 19.6875 26.230469 19.75 26.230469 C 19.8125 26.230469 19.902344 26.050781 19.949219 25.835938 Z M 14.542969 25.894531 C 14.671875 25.550781 14.628906 24.402344 14.480469 24.113281 C 14.28125 23.71875 14.121094 24.046875 14.121094 24.859375 C 14.121094 25.898438 14.34375 26.441406 14.542969 25.894531 Z M 34.984375 25.015625 C 34.984375 24.570312 34.9375 24.085938 34.878906 23.941406 L 34.773438 23.683594 L 34.667969 23.941406 C 34.542969 24.261719 34.515625 25.890625 34.632812 26.015625 C 34.828125 26.21875 34.984375 25.78125 34.984375 25.015625 Z M 15.6875 24.820312 C 15.6875 23.992188 15.566406 23.558594 15.375 23.679688 C 15.234375 23.769531 15.199219 25.292969 15.328125 25.640625 C 15.480469 26.054688 15.6875 25.582031 15.6875 24.820312 Z M 11.5625 24.707031 C 11.671875 24.097656 11.386719 23.152344 11.164062 23.386719 C 11.023438 23.53125 10.949219 24.617188 11.042969 25.140625 C 11.128906 25.605469 11.144531 25.621094 11.308594 25.390625 C 11.40625 25.25 11.519531 24.945312 11.5625 24.707031 Z M 18.628906 24.816406 C 18.628906 24.238281 18.410156 23.355469 18.265625 23.355469 C 17.980469 23.355469 18.035156 24.835938 18.339844 25.351562 C 18.46875 25.570312 18.632812 25.273438 18.628906 24.816406 Z M 25.945312 25.019531 C 26.144531 24.257812 25.933594 22.847656 25.648438 23.027344 C 25.410156 23.183594 25.527344 25.316406 25.773438 25.316406 C 25.828125 25.316406 25.90625 25.183594 25.945312 25.019531 Z M 27.277344 24.230469 C 27.273438 23.320312 27.136719 22.804688 26.949219 23 C 26.71875 23.242188 26.921875 25.398438 27.160156 25.246094 C 27.226562 25.203125 27.277344 24.746094 27.277344 24.230469 Z M 37.304688 24.230469 C 37.300781 23.207031 37.152344 22.746094 36.929688 23.09375 C 36.765625 23.355469 36.769531 24.742188 36.9375 25.066406 C 37.167969 25.515625 37.304688 25.199219 37.304688 24.230469 Z M 24.613281 23.640625 C 24.558594 22.707031 24.394531 22.257812 24.214844 22.5625 C 24.070312 22.804688 24.125 24.46875 24.289062 24.847656 L 24.445312 25.207031 L 24.558594 24.902344 C 24.617188 24.734375 24.644531 24.167969 24.613281 23.640625 Z M 29.835938 23.839844 C 29.828125 22.898438 29.628906 22.234375 29.402344 22.378906 C 29.242188 22.484375 29.253906 23.953125 29.421875 24.578125 C 29.628906 25.359375 29.84375 24.972656 29.835938 23.839844 Z M 38.699219 24.53125 C 38.816406 24.125 38.816406 23.890625 38.699219 23.480469 C 38.613281 23.191406 38.5 22.984375 38.441406 23.023438 C 38.164062 23.203125 38.167969 25.054688 38.445312 25.054688 C 38.5 25.054688 38.617188 24.820312 38.699219 24.53125 Z M 31.164062 24.160156 C 31.164062 23.332031 30.957031 22.527344 30.777344 22.644531 C 30.621094 22.746094 30.632812 24.359375 30.792969 24.671875 C 31.027344 25.125 31.164062 24.9375 31.164062 24.160156 Z M 32.417969 24.152344 C 32.417969 23.507812 32.234375 22.773438 31.996094 22.457031 C 31.761719 22.148438 31.652344 22.949219 31.808594 23.8125 C 32.039062 25.082031 32.417969 25.292969 32.417969 24.152344 Z M 35.972656 24.628906 C 36.105469 24.117188 36.058594 23.28125 35.882812 23.035156 C 35.644531 22.691406 35.503906 22.976562 35.523438 23.773438 C 35.546875 24.8125 35.800781 25.296875 35.972656 24.628906 Z M 28.53125 23.804688 C 28.53125 22.761719 28.347656 22.121094 28.144531 22.457031 C 27.902344 22.859375 28.132812 24.792969 28.425781 24.792969 C 28.484375 24.792969 28.53125 24.347656 28.53125 23.804688 Z M 12.609375 23.65625 C 12.617188 23.199219 12.386719 22.570312 12.21875 22.570312 C 12.09375 22.570312 12.074219 24.449219 12.199219 24.578125 C 12.339844 24.722656 12.605469 24.117188 12.609375 23.65625 Z M 17.503906 23.535156 C 17.503906 22.695312 17.359375 22.179688 17.121094 22.179688 C 16.960938 22.179688 16.96875 23.960938 17.132812 24.28125 C 17.355469 24.71875 17.503906 24.421875 17.503906 23.535156 Z M 21.8125 24.238281 C 21.984375 23.554688 21.753906 22.351562 21.402344 22.125 C 21.117188 21.941406 21.152344 23.285156 21.460938 24.300781 C 21.558594 24.617188 21.71875 24.589844 21.8125 24.238281 Z M 23.316406 24.324219 C 23.546875 23.703125 23.308594 21.917969 22.996094 21.917969 C 22.84375 21.917969 22.808594 23.925781 22.957031 24.367188 C 23.03125 24.59375 23.226562 24.570312 23.316406 24.324219 Z M 40.007812 23.945312 C 40.097656 23.457031 39.859375 22.527344 39.675781 22.644531 C 39.546875 22.726562 39.519531 24 39.636719 24.324219 C 39.75 24.625 39.917969 24.453125 40.007812 23.945312 Z M 13.664062 23.976562 C 13.804688 23.429688 13.746094 22.234375 13.566406 21.980469 C 13.40625 21.746094 13.382812 21.765625 13.234375 22.28125 C 13.109375 22.722656 13.109375 22.976562 13.230469 23.550781 C 13.394531 24.3125 13.539062 24.457031 13.664062 23.976562 Z M 20.265625 22.277344 C 20.1875 22.007812 20.0625 21.789062 19.988281 21.789062 C 19.804688 21.789062 19.925781 23.421875 20.148438 23.941406 C 20.316406 24.332031 20.320312 24.328125 20.359375 23.550781 C 20.382812 23.121094 20.339844 22.546875 20.265625 22.277344 Z M 41.375 23.765625 C 41.457031 23.367188 41.226562 22.179688 41.066406 22.179688 C 40.820312 22.179688 40.757812 23.0625 40.949219 23.785156 C 41.09375 24.332031 41.257812 24.324219 41.375 23.765625 Z M 34.277344 23.546875 C 34.554688 22.90625 34.378906 21.117188 34.054688 21.324219 C 33.769531 21.507812 33.753906 23.878906 34.039062 23.878906 C 34.089844 23.878906 34.199219 23.726562 34.277344 23.546875 Z M 9.605469 22.945312 C 9.605469 22.75 9.558594 22.554688 9.5 22.515625 C 9.328125 22.40625 8.964844 22.902344 9.039062 23.140625 C 9.261719 23.863281 9.234375 23.835938 9.429688 23.558594 C 9.527344 23.417969 9.605469 23.144531 9.605469 22.945312 Z M 14.992188 22.921875 C 14.988281 22.550781 14.910156 22.066406 14.824219 21.851562 C 14.679688 21.503906 14.652344 21.488281 14.585938 21.722656 C 14.375 22.46875 14.367188 22.835938 14.546875 23.285156 C 14.804688 23.921875 14.996094 23.761719 14.992188 22.921875 Z M 19.0625 23.074219 C 19.054688 22.460938 18.804688 21.65625 18.617188 21.65625 C 18.453125 21.65625 18.480469 22.8125 18.65625 23.316406 C 18.863281 23.90625 19.070312 23.785156 19.0625 23.074219 Z M 16.25 22.894531 C 16.25 22.308594 16.042969 21.65625 15.855469 21.65625 C 15.707031 21.65625 15.722656 22.875 15.875 23.289062 C 16.050781 23.777344 16.25 23.570312 16.25 22.894531 Z M 10.609375 22.660156 C 10.609375 21.902344 10.554688 21.769531 10.285156 21.875 C 10.070312 21.960938 10.054688 22.566406 10.253906 23.023438 C 10.480469 23.546875 10.609375 23.414062 10.609375 22.660156 Z M 33.222656 22.765625 C 33.316406 22.253906 33.203125 21.417969 33.007812 21.160156 C 32.800781 20.890625 32.671875 21.226562 32.671875 22.023438 C 32.667969 23.121094 33.0625 23.65625 33.222656 22.765625 Z M 26.632812 21.835938 C 26.679688 20.863281 26.675781 20.851562 26.382812 20.894531 C 26.113281 20.933594 26.089844 20.996094 26.109375 21.589844 C 26.171875 23.363281 26.550781 23.542969 26.632812 21.835938 Z M 38.03125 22.269531 C 38.070312 21.523438 37.894531 20.933594 37.675781 21.074219 C 37.542969 21.15625 37.511719 22.558594 37.632812 22.894531 C 37.789062 23.316406 37.996094 22.992188 38.03125 22.269531 Z M 11.859375 21.828125 C 11.863281 21.210938 11.730469 21.054688 11.386719 21.277344 C 11.183594 21.410156 11.164062 21.515625 11.257812 22.035156 C 11.316406 22.367188 11.394531 22.726562 11.433594 22.832031 C 11.554688 23.160156 11.851562 22.449219 11.859375 21.828125 Z M 25.339844 22.269531 C 25.464844 21.386719 25.378906 20.9375 25.085938 20.9375 C 24.863281 20.9375 24.839844 21.015625 24.863281 21.589844 C 24.925781 22.898438 25.195312 23.28125 25.339844 22.269531 Z M 39.304688 21.589844 C 39.308594 20.765625 39.148438 20.453125 38.9375 20.867188 C 38.761719 21.207031 38.714844 22.433594 38.863281 22.691406 C 39.039062 22.984375 39.300781 22.332031 39.304688 21.589844 Z M 43.238281 22.40625 C 43.324219 21.914062 43.175781 21.070312 43.007812 21.070312 C 42.761719 21.070312 42.648438 21.761719 42.804688 22.304688 C 42.988281 22.941406 43.144531 22.980469 43.238281 22.40625 Z M 44.511719 22.453125 C 44.601562 22.023438 44.472656 21.132812 44.324219 21.132812 C 44.179688 21.132812 44.074219 21.488281 44.074219 21.984375 C 44.074219 22.824219 44.367188 23.136719 44.511719 22.453125 Z M 36.765625 21.953125 C 36.808594 21.621094 36.765625 21.300781 36.644531 21.058594 L 36.453125 20.679688 L 36.3125 21.230469 C 36.1875 21.714844 36.222656 22.292969 36.398438 22.617188 C 36.507812 22.820312 36.699219 22.476562 36.765625 21.953125 Z M 40.613281 21.53125 C 40.621094 20.726562 40.484375 20.328125 40.300781 20.628906 C 40.175781 20.835938 40.15625 21.972656 40.269531 22.421875 C 40.34375 22.707031 40.359375 22.710938 40.476562 22.496094 C 40.546875 22.363281 40.609375 21.929688 40.613281 21.53125 Z M 46.003906 22.496094 C 46.113281 22.191406 46.097656 21.851562 45.945312 21.441406 C 45.839844 21.148438 45.789062 21.117188 45.699219 21.269531 C 45.507812 21.585938 45.546875 22.703125 45.753906 22.703125 C 45.847656 22.703125 45.960938 22.609375 46.003906 22.496094 Z M 27.703125 22.363281 C 27.746094 22.25 27.78125 21.832031 27.78125 21.4375 C 27.78125 20.832031 27.75 20.726562 27.582031 20.792969 C 27.472656 20.835938 27.359375 20.871094 27.332031 20.871094 C 27.25 20.871094 27.269531 22.132812 27.355469 22.363281 C 27.398438 22.476562 27.476562 22.570312 27.53125 22.570312 C 27.582031 22.570312 27.664062 22.476562 27.703125 22.363281 Z M 35.476562 22.363281 C 35.601562 22.023438 35.5625 21.023438 35.417969 20.933594 C 35.230469 20.8125 35.175781 20.898438 35.089844 21.4375 C 34.96875 22.222656 35.265625 22.9375 35.476562 22.363281 Z M 42.144531 22.234375 C 42.242188 21.832031 41.984375 20.832031 41.8125 20.941406 C 41.675781 21.027344 41.648438 22.347656 41.777344 22.484375 C 41.9375 22.652344 42.066406 22.566406 42.144531 22.234375 Z M 22.390625 21.519531 C 22.390625 21.089844 22.335938 20.734375 22.265625 20.722656 C 21.855469 20.660156 21.828125 20.691406 21.863281 21.199219 C 21.910156 21.839844 22.128906 22.460938 22.28125 22.367188 C 22.339844 22.328125 22.390625 21.945312 22.390625 21.519531 Z M 29.035156 21.527344 C 29.035156 20.699219 29.011719 20.613281 28.78125 20.613281 C 28.488281 20.613281 28.457031 20.964844 28.671875 21.859375 C 28.878906 22.710938 29.035156 22.570312 29.035156 21.527344 Z M 30.433594 21.328125 C 30.472656 20.488281 30.453125 20.414062 30.222656 20.414062 C 30 20.414062 29.976562 20.5 29.984375 21.214844 C 30.007812 22.765625 30.367188 22.859375 30.433594 21.328125 Z M 31.640625 20.957031 C 31.613281 20.464844 31.554688 20.285156 31.414062 20.285156 C 31.269531 20.285156 31.21875 20.488281 31.191406 21.1875 C 31.167969 21.683594 31.191406 22.183594 31.234375 22.296875 C 31.386719 22.671875 31.679688 21.691406 31.640625 20.957031 Z M 12.867188 21.460938 C 12.867188 20.902344 12.824219 20.742188 12.671875 20.742188 C 12.386719 20.742188 12.3125 21.089844 12.476562 21.667969 C 12.6875 22.394531 12.867188 22.300781 12.867188 21.460938 Z M 23.996094 21.417969 C 24.03125 20.941406 24.003906 20.871094 23.777344 20.871094 C 23.5 20.871094 23.472656 20.992188 23.597656 21.644531 C 23.707031 22.214844 23.949219 22.078125 23.996094 21.417969 Z M 18.003906 20.996094 C 18.003906 20.257812 17.988281 20.21875 17.695312 20.21875 C 17.394531 20.21875 17.386719 20.246094 17.460938 20.839844 C 17.621094 22.136719 18.003906 22.246094 18.003906 20.996094 Z M 16.726562 20.859375 C 16.695312 20.253906 16.652344 20.152344 16.4375 20.152344 C 16.21875 20.152344 16.191406 20.230469 16.222656 20.726562 C 16.265625 21.40625 16.46875 21.871094 16.644531 21.6875 C 16.710938 21.621094 16.746094 21.246094 16.726562 20.859375 Z M 14.183594 21.390625 C 14.316406 20.949219 14.128906 20.351562 13.859375 20.351562 C 13.578125 20.351562 13.566406 20.464844 13.761719 21.152344 C 13.925781 21.710938 14.0625 21.792969 14.183594 21.390625 Z M 19.382812 21.003906 C 19.382812 20.394531 19.363281 20.351562 19.070312 20.351562 C 18.707031 20.351562 18.71875 20.316406 18.894531 20.886719 C 18.96875 21.128906 19.050781 21.402344 19.078125 21.492188 C 19.195312 21.898438 19.382812 21.597656 19.382812 21.003906 Z M 20.988281 20.988281 C 20.957031 20.640625 20.886719 20.535156 20.65625 20.503906 C 20.34375 20.457031 20.34375 20.511719 20.65625 21.382812 C 20.816406 21.824219 21.042969 21.554688 20.988281 20.988281 Z M 15.496094 20.871094 C 15.496094 20.253906 15.480469 20.21875 15.167969 20.21875 C 14.859375 20.21875 14.84375 20.25 14.910156 20.6875 C 14.984375 21.167969 15.191406 21.527344 15.386719 21.527344 C 15.449219 21.527344 15.496094 21.230469 15.496094 20.871094 Z M 46.804688 20.820312 C 46.753906 20.457031 46.328125 20.367188 46.328125 20.722656 C 46.328125 20.863281 46.363281 21.078125 46.40625 21.191406 C 46.519531 21.492188 46.855469 21.179688 46.804688 20.820312 Z M 45.402344 20.808594 C 45.507812 20.359375 45.386719 20.089844 45.070312 20.089844 C 44.859375 20.089844 44.824219 20.144531 44.890625 20.382812 C 44.933594 20.542969 45 20.78125 45.03125 20.90625 C 45.121094 21.234375 45.308594 21.1875 45.402344 20.808594 Z M 32.519531 20.308594 C 32.558594 19.796875 32.550781 19.78125 32.238281 19.90625 C 32.035156 19.988281 31.984375 20.304688 32.121094 20.671875 C 32.25 21.023438 32.476562 20.816406 32.519531 20.308594 Z M 44.09375 20.554688 C 44.253906 20.1875 44.167969 19.855469 43.882812 19.742188 C 43.597656 19.628906 43.554688 19.730469 43.648438 20.332031 C 43.742188 20.945312 43.890625 21.019531 44.09375 20.554688 Z M 33.867188 20.425781 C 33.976562 19.972656 33.820312 19.566406 33.539062 19.566406 C 33.351562 19.566406 33.296875 19.65625 33.296875 19.945312 C 33.296875 20.726562 33.710938 21.074219 33.867188 20.425781 Z M 37.363281 20.355469 C 37.46875 20.144531 37.554688 19.757812 37.554688 19.496094 C 37.554688 19.117188 37.511719 19.03125 37.335938 19.066406 C 37.160156 19.101562 37.109375 19.273438 37.082031 19.925781 C 37.058594 20.375 37.074219 20.742188 37.109375 20.742188 C 37.144531 20.742188 37.261719 20.570312 37.363281 20.355469 Z M 41.441406 20.023438 C 41.441406 19.390625 41.410156 19.304688 41.191406 19.304688 C 40.90625 19.304688 40.878906 19.523438 41.070312 20.25 C 41.261719 20.964844 41.441406 20.851562 41.441406 20.023438 Z M 35.132812 19.785156 C 35.203125 19.332031 35.1875 19.304688 34.878906 19.304688 C 34.585938 19.304688 34.546875 19.355469 34.546875 19.75 C 34.546875 19.996094 34.585938 20.296875 34.628906 20.414062 C 34.75 20.742188 35.039062 20.382812 35.132812 19.785156 Z M 42.765625 20.296875 C 42.875 19.835938 42.785156 19.511719 42.535156 19.460938 C 42.304688 19.414062 42.25 19.746094 42.398438 20.316406 C 42.496094 20.703125 42.671875 20.691406 42.765625 20.296875 Z M 38.65625 20.1875 C 38.847656 19.9375 38.964844 19.210938 38.828125 19.121094 C 38.53125 18.929688 38.308594 19.207031 38.308594 19.777344 C 38.308594 20.355469 38.421875 20.488281 38.65625 20.1875 Z M 40.1875 19.539062 C 40.1875 19.238281 40.136719 19.175781 39.875 19.175781 C 39.605469 19.175781 39.5625 19.230469 39.5625 19.605469 C 39.5625 20.171875 39.808594 20.449219 40.03125 20.132812 C 40.117188 20.007812 40.1875 19.742188 40.1875 19.539062 Z M 36.304688 19.550781 C 36.304688 19.261719 36.246094 19.175781 36.050781 19.175781 C 35.792969 19.175781 35.714844 19.566406 35.878906 20.015625 C 36 20.339844 36.304688 20.003906 36.304688 19.550781 Z M 36.304688 19.550781 "/>
</g>
</svg>
