<?xml version="1.0" encoding="UTF-8"?>
<svg xmlns="http://www.w3.org/2000/svg" xmlns:xlink="http://www.w3.org/1999/xlink" width="128px" height="128px" viewBox="0 0 128 128" version="1.1">
<g id="surface1">
<path style=" stroke:none;fill-rule:nonzero;fill:rgb(38.431373%,38.431373%,38.431373%);fill-opacity:1;" d="M 76.492188 115.574219 C 76.351562 115.527344 75.5625 115.277344 74.738281 115.027344 C 72.886719 114.460938 71.210938 113.308594 70.558594 112.164062 L 70.070312 111.296875 L 68.519531 112.410156 C 66.441406 113.902344 64.65625 114.589844 61.992188 114.921875 C 55.582031 115.726562 48.695312 112.578125 45.234375 107.265625 C 43.195312 104.136719 42.089844 100.726562 41.847656 96.824219 C 41.699219 94.425781 41.898438 92.652344 42.914062 87.316406 C 44.164062 80.761719 44.359375 78.902344 44.359375 73.628906 C 44.359375 68.882812 44.199219 66.945312 43.484375 63.097656 L 43.207031 61.585938 L 42.636719 62.140625 C 41.917969 62.84375 41.210938 62.519531 40.773438 61.285156 L 40.46875 60.429688 L 40.027344 61.425781 C 39.152344 63.410156 38.707031 63.351562 38.152344 61.183594 C 37.839844 59.949219 37.820312 59.929688 37.566406 60.585938 C 37.242188 61.417969 36.542969 62.179688 36.261719 62 C 36.148438 61.925781 35.980469 61.304688 35.890625 60.613281 C 35.648438 58.78125 35.375 58.476562 35.011719 59.628906 C 34.773438 60.382812 34.59375 60.574219 34.175781 60.511719 C 33.785156 60.453125 33.59375 60.164062 33.445312 59.402344 C 33.179688 58.070312 33.105469 58.015625 32.546875 58.738281 C 31.941406 59.511719 31.582031 59.257812 31.363281 57.898438 L 31.1875 56.804688 L 30.480469 57.703125 L 29.777344 58.601562 L 29.507812 57.867188 C 29.363281 57.460938 29.242188 56.96875 29.242188 56.769531 C 29.242188 55.941406 28.714844 56.167969 28.335938 57.164062 C 27.839844 58.449219 27.222656 58.476562 26.871094 57.226562 C 26.683594 56.5625 26.527344 56.414062 26.160156 56.535156 C 25.859375 56.632812 25.460938 56.46875 25.054688 56.078125 L 24.421875 55.464844 L 24.042969 56.054688 C 23.664062 56.640625 22.722656 56.875 22.722656 56.378906 C 22.722656 55.765625 21.691406 55.074219 20.78125 55.074219 C 18.207031 55.074219 14.265625 53.855469 12.316406 52.457031 C 10 50.796875 8.933594 48.621094 8.941406 45.566406 C 8.945312 42.171875 10.253906 38.71875 12.949219 34.988281 C 15.027344 32.113281 17.296875 29.988281 21.476562 27 C 23.472656 25.570312 25.894531 23.792969 26.859375 23.046875 C 36.851562 15.335938 48.261719 11.480469 58.160156 12.46875 C 64.195312 13.074219 66.996094 13.929688 72.964844 16.996094 C 79.15625 20.175781 81.566406 21.042969 88.773438 22.660156 C 95.820312 24.246094 100.390625 26.589844 104.53125 30.742188 C 108.898438 35.128906 110.917969 39.410156 110.652344 43.738281 C 110.425781 47.402344 108.421875 49.460938 103.304688 51.273438 C 99.894531 52.484375 93.777344 53.5 89.871094 53.503906 C 82.730469 53.511719 75.636719 56.964844 71.464844 62.464844 C 69.570312 64.964844 68.609375 66.78125 67.71875 69.546875 C 66.359375 73.773438 66.019531 78.40625 66.71875 83.1875 C 67.21875 86.589844 67.261719 86.757812 69.578125 94.402344 C 70.699219 98.109375 71.222656 100.519531 71.484375 103.183594 L 71.652344 104.910156 L 72.71875 103.707031 C 75.234375 100.863281 78.953125 96.179688 80.027344 94.492188 C 81.609375 92.015625 82.363281 89.644531 82.527344 86.636719 C 82.601562 85.304688 82.566406 83.859375 82.449219 83.429688 C 82.164062 82.390625 80.699219 81.65625 78.035156 81.21875 C 72.082031 80.246094 70.277344 79.296875 69.183594 76.578125 C 68.324219 74.4375 68.980469 70.878906 70.789062 67.878906 C 72.484375 65.066406 76.917969 61.300781 81.394531 58.878906 C 86.363281 56.1875 90.582031 55.253906 95.152344 55.828125 C 99.359375 56.363281 101.640625 57.335938 106.820312 60.808594 C 108.476562 61.917969 110.621094 63.347656 111.585938 63.980469 C 114.015625 65.578125 116.75 68.476562 117.726562 70.492188 C 120.171875 75.546875 119.214844 79.863281 115.171875 82.015625 C 112.878906 83.234375 106.183594 84.292969 102.769531 83.96875 C 101.179688 83.820312 100.957031 83.855469 100.835938 84.269531 C 100.761719 84.523438 100.023438 87.625 99.195312 91.160156 C 98.367188 94.695312 97.339844 98.609375 96.914062 99.863281 C 93.265625 110.648438 87.445312 115.761719 78.917969 115.683594 C 77.722656 115.671875 76.628906 115.621094 76.492188 115.574219 Z M 83.886719 112.863281 C 87.980469 111.503906 91.316406 108.070312 93.667969 102.796875 C 94.914062 100.003906 95.234375 98.980469 96.675781 93.097656 C 97.34375 90.367188 98.070312 87.425781 98.289062 86.5625 C 98.886719 84.21875 100.191406 80.152344 100.679688 79.117188 C 100.917969 78.613281 101.1875 77.683594 101.28125 77.050781 C 101.429688 76.035156 101.40625 75.9375 101.066406 76.234375 C 100.855469 76.417969 100.679688 76.65625 100.679688 76.765625 C 100.679688 76.875 100.132812 78.183594 99.464844 79.671875 C 98.792969 81.164062 98.175781 82.589844 98.09375 82.839844 C 98.007812 83.089844 97.808594 83.296875 97.648438 83.296875 C 97.210938 83.296875 97.507812 81.578125 98.242188 79.898438 C 98.585938 79.109375 98.941406 78.207031 99.03125 77.898438 C 99.214844 77.277344 98.980469 75.980469 98.6875 75.980469 C 98.476562 75.980469 97.175781 79.328125 97.164062 79.90625 C 97.15625 80.117188 96.996094 80.585938 96.804688 80.945312 C 96.488281 81.535156 96.4375 81.554688 96.277344 81.121094 C 96.179688 80.859375 96.230469 80.199219 96.386719 79.652344 C 96.714844 78.503906 96.769531 75.457031 96.460938 75.457031 C 96.238281 75.457031 95.667969 76.605469 95.667969 77.050781 C 95.667969 77.195312 95.441406 77.796875 95.164062 78.394531 C 94.882812 79.007812 94.664062 80.011719 94.664062 80.710938 C 94.664062 82.105469 94.480469 82.773438 94.101562 82.773438 C 93.761719 82.773438 94.019531 79.742188 94.402344 79.261719 C 94.730469 78.851562 94.246094 75.246094 93.917969 75.632812 C 93.558594 76.046875 93.160156 77.632812 93.160156 78.632812 C 93.160156 80.808594 92.425781 79.375 92.039062 76.445312 C 91.953125 75.765625 91.777344 75.140625 91.652344 75.0625 C 91.527344 74.980469 91.242188 75.566406 91.023438 76.363281 C 90.800781 77.160156 90.527344 77.808594 90.414062 77.808594 C 90.304688 77.808594 90.085938 77.285156 89.933594 76.648438 C 89.433594 74.582031 88.9375 74.820312 88.738281 77.226562 C 88.460938 80.632812 88.109375 80.773438 87.644531 77.667969 C 87.183594 74.582031 86.625 74.273438 86.394531 76.980469 C 86.324219 77.796875 86.15625 78.460938 86.015625 78.460938 C 85.878906 78.460938 85.589844 77.882812 85.375 77.171875 C 84.800781 75.289062 84.386719 75.328125 84.386719 77.265625 C 84.386719 78.140625 84.285156 78.855469 84.15625 78.855469 C 84.03125 78.855469 83.609375 78.148438 83.21875 77.285156 C 82.828125 76.425781 82.421875 75.71875 82.320312 75.71875 C 81.882812 75.71875 82.1875 77.144531 82.980469 78.789062 C 84.300781 81.535156 84.503906 82.40625 84.507812 85.386719 C 84.511719 88.511719 84.101562 90.492188 82.832031 93.46875 C 82.347656 94.601562 80.226562 98.035156 79.570312 98.75 C 77.792969 100.679688 74.367188 104.871094 73.621094 106.023438 C 71.476562 109.34375 71.671875 111.414062 74.257812 112.691406 C 76.316406 113.710938 81.082031 113.796875 83.886719 112.863281 Z M 82.269531 111.800781 C 82.398438 111.667969 83.128906 111.304688 83.886719 110.996094 C 86.34375 109.996094 88.496094 107.890625 91.265625 103.78125 C 92.035156 102.636719 92.015625 103.53125 91.238281 105.046875 C 90.257812 106.953125 86.855469 110.476562 85.152344 111.347656 C 83.863281 112.007812 81.738281 112.339844 82.269531 111.800781 Z M 79.4375 110.675781 C 79.578125 110.230469 81.109375 109.324219 81.328125 109.554688 C 81.542969 109.777344 80.140625 110.996094 79.667969 110.996094 C 79.484375 110.996094 79.378906 110.851562 79.4375 110.675781 Z M 76.175781 109.886719 C 76.292969 109.515625 77.59375 108.792969 77.785156 108.992188 C 77.855469 109.066406 77.675781 109.371094 77.390625 109.671875 C 76.820312 110.265625 76.011719 110.410156 76.175781 109.886719 Z M 85.457031 107.792969 C 86.8125 106.1875 87.394531 105.734375 87.394531 106.285156 C 87.394531 106.738281 85.183594 109.097656 84.613281 109.25 C 84.253906 109.347656 84.503906 108.921875 85.457031 107.792969 Z M 74.109375 108.242188 C 74.109375 107.507812 76.4375 104.714844 76.765625 105.054688 C 76.949219 105.246094 74.644531 108.386719 74.324219 108.386719 C 74.207031 108.386719 74.109375 108.320312 74.109375 108.242188 Z M 82.632812 107.902344 C 82.632812 107.59375 83.859375 106.441406 84.015625 106.605469 C 84.273438 106.871094 83.851562 107.535156 83.246094 107.820312 C 82.910156 107.980469 82.632812 108.019531 82.632812 107.902344 Z M 88.398438 104.78125 C 88.398438 104.179688 90.769531 100.40625 90.855469 100.867188 C 90.902344 101.117188 90.636719 101.90625 90.261719 102.617188 C 89.566406 103.957031 88.398438 105.308594 88.398438 104.78125 Z M 86.429688 103.667969 C 87.054688 102.507812 87.574219 101.953125 87.808594 102.195312 C 88.058594 102.453125 86.652344 104.726562 86.242188 104.726562 C 85.929688 104.726562 85.964844 104.527344 86.429688 103.667969 Z M 92.15625 102.285156 C 92.15625 102.238281 92.375 101.503906 92.636719 100.652344 C 93.851562 96.738281 94.296875 94.746094 94.9375 90.351562 C 95.097656 89.273438 95.382812 88.039062 95.574219 87.609375 C 95.894531 86.882812 95.914062 86.980469 95.800781 88.914062 C 95.734375 90.066406 95.507812 91.828125 95.292969 92.835938 C 95.078125 93.84375 94.800781 95.195312 94.675781 95.839844 C 94.195312 98.265625 92.753906 102.375 92.382812 102.375 C 92.257812 102.375 92.15625 102.335938 92.15625 102.285156 Z M 79.621094 101.335938 C 80.207031 100.472656 80.59375 100.160156 80.796875 100.375 C 81.023438 100.609375 79.871094 102.113281 79.464844 102.113281 C 79.164062 102.113281 79.195312 101.957031 79.621094 101.335938 Z M 88.90625 99.96875 C 88.898438 99.386719 89.421875 98.191406 89.691406 98.191406 C 90.078125 98.191406 89.90625 99.175781 89.410156 99.796875 C 89.007812 100.300781 88.914062 100.332031 88.90625 99.96875 Z M 91.40625 98.882812 C 91.40625 97.996094 92.726562 92.972656 93.078125 92.519531 C 93.402344 92.101562 93.421875 92.191406 93.277344 93.339844 C 93.125 94.546875 91.839844 98.871094 91.542969 99.183594 C 91.464844 99.261719 91.40625 99.125 91.40625 98.882812 Z M 93.039062 88.457031 C 93.132812 87.847656 93.417969 86.878906 93.667969 86.300781 C 94.074219 85.363281 94.125 85.328125 94.140625 85.9375 C 94.152344 86.3125 94.058594 86.957031 93.933594 87.375 C 93.808594 87.789062 93.636719 88.457031 93.550781 88.851562 C 93.300781 90.058594 92.84375 89.710938 93.039062 88.457031 Z M 96.671875 85.976562 C 96.679688 85.367188 97.070312 84.746094 97.253906 85.054688 C 97.445312 85.378906 97.171875 86.433594 96.890625 86.433594 C 96.769531 86.433594 96.671875 86.226562 96.671875 85.976562 Z M 87.902344 84.292969 C 87.90625 83.085938 88.21875 82.261719 88.496094 82.730469 C 88.703125 83.082031 88.402344 85.09375 88.113281 85.277344 C 87.996094 85.355469 87.898438 84.910156 87.902344 84.292969 Z M 95.375 84.96875 C 95.21875 84.328125 95.609375 82.773438 95.925781 82.773438 C 96.289062 82.773438 96.21875 84.433594 95.832031 84.984375 C 95.503906 85.449219 95.492188 85.449219 95.375 84.96875 Z M 91.90625 83.242188 C 91.90625 81.875 92.09375 81.207031 92.46875 81.207031 C 92.808594 81.207031 92.570312 83.757812 92.191406 84.148438 C 91.980469 84.371094 91.90625 84.144531 91.90625 83.242188 Z M 85.550781 82.070312 C 85.304688 81.816406 85.359375 79.6875 85.613281 79.523438 C 85.914062 79.332031 86.140625 80.003906 86.140625 81.082031 C 86.140625 81.941406 85.867188 82.402344 85.550781 82.070312 Z M 90.007812 81.117188 C 89.78125 80.496094 90 79.035156 90.339844 78.917969 C 90.558594 78.84375 90.652344 79.164062 90.652344 79.992188 C 90.652344 81.175781 90.273438 81.839844 90.007812 81.117188 Z M 63.796875 112.449219 C 66.160156 111.792969 67.882812 110.328125 68.875 108.128906 C 69.351562 107.078125 69.390625 106.636719 69.273438 103.6875 C 69.132812 100.042969 68.824219 98.613281 66.867188 92.492188 C 64.140625 83.976562 63.699219 78.683594 65.117188 71.539062 C 66.640625 63.871094 72.125 56.910156 79.207031 53.644531 C 82.667969 52.046875 85.003906 51.550781 91.53125 51.023438 C 94.289062 50.800781 96.882812 50.554688 97.296875 50.476562 C 101.953125 49.605469 104.9375 48.28125 104.941406 47.089844 C 104.941406 46.222656 103.46875 45.023438 101.183594 44.023438 C 99.160156 43.144531 95.890625 42.007812 95.375 42.007812 C 94.382812 42.007812 97.679688 43.878906 100.429688 44.878906 C 102.527344 45.640625 103.4375 46.128906 103.4375 46.488281 C 103.4375 47.15625 99.363281 45.769531 95.679688 43.851562 C 94.261719 43.109375 93.660156 43.074219 93.660156 43.722656 C 93.660156 44.257812 94.578125 44.796875 97.644531 46.058594 C 99.160156 46.679688 100.605469 47.3125 100.855469 47.464844 C 101.242188 47.699219 101.191406 47.742188 100.511719 47.746094 C 99.628906 47.757812 95.921875 46.460938 94.132812 45.515625 C 92.929688 44.882812 92.660156 44.914062 92.660156 45.683594 C 92.660156 46.011719 93.191406 46.332031 94.601562 46.855469 C 97.964844 48.105469 98.324219 48.28125 97.957031 48.519531 C 97.773438 48.636719 97.164062 48.625 96.605469 48.496094 C 94.613281 48.03125 90.523438 46.425781 90.199219 45.984375 C 89.890625 45.5625 89.847656 45.566406 89.515625 46.035156 C 88.992188 46.769531 89.382812 47.097656 91.738281 47.90625 C 94.214844 48.757812 94.273438 48.789062 93.949219 49.128906 C 93.769531 49.316406 93.3125 49.296875 92.484375 49.074219 C 89.359375 48.234375 88.429688 47.777344 87.765625 46.757812 C 87.246094 45.960938 87.140625 45.898438 86.988281 46.308594 C 86.71875 47.042969 87.167969 47.550781 88.96875 48.539062 C 89.882812 49.042969 90.722656 49.558594 90.832031 49.6875 C 91.273438 50.203125 88.738281 49.574219 87.207031 48.789062 C 85.839844 48.085938 85.511719 47.789062 85.195312 46.9375 C 84.703125 45.636719 84.386719 45.648438 84.386719 46.972656 C 84.386719 47.929688 84.496094 48.097656 85.640625 48.957031 C 86.328125 49.472656 86.894531 50.003906 86.894531 50.132812 C 86.894531 50.835938 84.804688 49.933594 83.964844 48.867188 C 83.800781 48.65625 83.546875 48.566406 83.402344 48.660156 C 82.984375 48.929688 83.085938 49.792969 83.570312 50.074219 C 84.214844 50.453125 83.78125 50.71875 82.824219 50.53125 C 82.257812 50.417969 81.84375 50.113281 81.542969 49.585938 C 80.992188 48.613281 80.730469 48.597656 80.511719 49.515625 C 80.378906 50.066406 80.460938 50.332031 80.878906 50.683594 C 81.433594 51.152344 81.367188 51.675781 80.746094 51.675781 C 80.554688 51.675781 80.167969 51.421875 79.890625 51.109375 L 79.382812 50.542969 L 79 51.5 C 78.738281 52.148438 78.453125 52.460938 78.117188 52.460938 C 77.601562 52.460938 77.453125 51.964844 77.84375 51.53125 C 77.96875 51.394531 78.144531 50.871094 78.238281 50.371094 L 78.40625 49.453125 L 77.632812 50.628906 C 77.210938 51.277344 76.742188 52.253906 76.601562 52.800781 C 76.335938 53.800781 75.765625 54.292969 75.359375 53.867188 C 75.234375 53.734375 75.316406 52.992188 75.542969 52.132812 C 75.765625 51.304688 75.878906 50.558594 75.796875 50.472656 C 75.539062 50.203125 75.113281 50.636719 75.113281 51.167969 C 75.113281 51.59375 74.097656 54.183594 73.378906 55.597656 C 73.109375 56.125 72.34375 56.253906 72.066406 55.816406 C 71.773438 55.355469 71.5625 55.648438 69.976562 58.703125 C 68.273438 61.976562 67.917969 61.894531 68.839844 58.429688 C 69.308594 56.667969 69.300781 55.800781 68.824219 56.296875 C 68.277344 56.867188 67.019531 61.058594 66.96875 62.476562 C 66.929688 63.632812 66.785156 64.132812 66.375 64.558594 C 65.847656 65.109375 65.835938 65.109375 65.835938 64.59375 C 65.835938 64.304688 66.0625 63.609375 66.335938 63.050781 C 66.609375 62.488281 66.699219 62.171875 66.535156 62.339844 C 65.730469 63.179688 65.679688 62.21875 66.355469 59.125 C 66.753906 57.324219 66.765625 56.84375 66.417969 56.714844 C 66.0625 56.589844 65.136719 58.621094 64.332031 61.28125 C 63.679688 63.449219 63.207031 63.792969 63.429688 61.933594 C 63.78125 59 63.886719 56.117188 63.644531 56.117188 C 63.175781 56.117188 62.332031 59.011719 62.328125 60.613281 C 62.328125 61.140625 62.226562 61.640625 62.105469 61.71875 C 61.484375 62.117188 61.398438 59.152344 61.980469 57.554688 C 62.613281 55.820312 62.644531 55.640625 62.457031 54.621094 L 62.273438 53.636719 L 61.863281 54.273438 C 61.636719 54.625 61.285156 55.613281 61.074219 56.476562 C 60.542969 58.691406 60.195312 58.609375 59.925781 56.210938 C 59.800781 55.105469 59.578125 54.160156 59.433594 54.109375 C 59.066406 53.984375 58.570312 55.558594 58.570312 56.839844 C 58.570312 57.433594 58.464844 57.984375 58.34375 58.0625 C 58.089844 58.226562 57.570312 56.863281 57.558594 56.015625 C 57.558594 55.710938 57.351562 55.191406 57.101562 54.851562 L 56.652344 54.242188 L 56.261719 55.507812 C 56.050781 56.203125 55.730469 56.773438 55.550781 56.773438 C 55.371094 56.773438 55.066406 56.273438 54.871094 55.660156 C 54.675781 55.050781 54.414062 54.550781 54.292969 54.550781 C 54.171875 54.550781 53.894531 55.167969 53.683594 55.921875 C 53.101562 57.988281 52.925781 58.171875 52.453125 57.214844 C 52.230469 56.769531 52.046875 56.136719 52.042969 55.804688 C 52.039062 55.476562 51.875 54.910156 51.683594 54.550781 C 51.269531 53.777344 51.199219 53.910156 50.738281 56.359375 C 50.347656 58.4375 49.894531 58.699219 49.65625 56.984375 C 49.558594 56.292969 49.335938 55.433594 49.15625 55.074219 L 48.835938 54.421875 L 48.667969 55.203125 C 48.574219 55.636719 48.453125 56.140625 48.398438 56.324219 C 48.34375 56.507812 48.464844 57.390625 48.667969 58.285156 C 49.132812 60.332031 49.136719 61.085938 48.695312 61.085938 C 48.464844 61.085938 48.242188 60.5 48.035156 59.367188 C 47.621094 57.074219 47.261719 57.519531 47.097656 60.535156 C 47.027344 61.835938 46.875 62.839844 46.757812 62.761719 C 46.640625 62.6875 46.253906 61.636719 45.902344 60.425781 C 45.546875 59.214844 45.148438 58.15625 45.019531 58.070312 C 44.585938 57.789062 44.164062 59.191406 44.488281 59.84375 C 45.144531 61.171875 46.050781 66.082031 46.277344 69.511719 C 46.496094 72.816406 46.316406 78.457031 45.910156 81.136719 C 45.390625 84.570312 45.199219 85.730469 44.867188 87.480469 C 43.632812 93.957031 43.5 96.714844 44.273438 99.863281 C 45.75 105.882812 49.371094 110.136719 54.507812 111.882812 C 55.570312 112.242188 56.71875 112.585938 57.0625 112.648438 C 58.578125 112.910156 62.550781 112.792969 63.796875 112.449219 Z M 59.730469 110.980469 C 59.367188 110.683594 59.070312 110.265625 59.070312 110.058594 C 59.070312 109.726562 59.160156 109.726562 59.761719 110.050781 C 60.140625 110.253906 60.664062 110.667969 60.925781 110.972656 C 61.394531 111.511719 61.394531 111.519531 60.898438 111.519531 C 60.617188 111.519531 60.09375 111.277344 59.730469 110.980469 Z M 55.972656 110.277344 C 54.714844 109.269531 53.820312 108.019531 54.125 107.703125 C 54.222656 107.605469 54.847656 108.039062 55.515625 108.671875 C 56.183594 109.304688 57.117188 110.140625 57.585938 110.527344 C 58.425781 111.21875 58.429688 111.230469 57.816406 111.246094 C 57.460938 111.25 56.660156 110.832031 55.972656 110.277344 Z M 61.511719 109.429688 C 61.269531 108.851562 61.078125 108.117188 61.085938 107.796875 C 61.09375 107.234375 61.117188 107.242188 61.6875 107.96875 C 62.316406 108.765625 62.671875 110.476562 62.210938 110.476562 C 62.066406 110.476562 61.75 110.003906 61.511719 109.429688 Z M 52.425781 109.828125 C 51.398438 109.351562 49.632812 107.5 49.019531 106.246094 C 48.242188 104.660156 48.585938 104.492188 49.597656 105.964844 C 50.527344 107.3125 51.523438 108.21875 53.035156 109.089844 C 54.625 110.003906 54.125 110.605469 52.425781 109.828125 Z M 63.621094 109.550781 C 63.460938 109.183594 63.332031 108.390625 63.335938 107.785156 L 63.34375 106.6875 L 63.832031 107.339844 C 64.140625 107.75 64.324219 108.40625 64.328125 109.105469 C 64.335938 110.359375 64.054688 110.535156 63.621094 109.550781 Z M 57.332031 109.054688 C 57 108.6875 56.789062 108.324219 56.859375 108.25 C 57.085938 108.015625 58.144531 109.054688 58.035156 109.398438 C 57.96875 109.609375 57.71875 109.488281 57.332031 109.054688 Z M 65.648438 108.988281 C 65.398438 108.355469 65.410156 105.347656 65.664062 105.082031 C 66.050781 104.679688 66.332031 105.652344 66.335938 107.390625 C 66.339844 109.125 66.007812 109.898438 65.648438 108.988281 Z M 58.871094 108.332031 C 58.703125 108.160156 58.574219 107.777344 58.578125 107.484375 C 58.585938 106.96875 58.605469 106.972656 59.078125 107.566406 C 59.804688 108.472656 59.628906 109.125 58.871094 108.332031 Z M 51.566406 107.175781 C 51.023438 106.449219 50.90625 106.035156 51.253906 106.035156 C 51.5625 106.035156 52.550781 107.195312 52.550781 107.554688 C 52.550781 108.070312 52.117188 107.902344 51.566406 107.175781 Z M 67.488281 104.597656 C 67.199219 100.871094 66.734375 98.980469 64.363281 91.921875 C 63.277344 88.675781 62.816406 85.574219 62.652344 80.414062 C 62.496094 75.335938 62.691406 72.09375 63.207031 71.363281 C 63.492188 70.957031 63.523438 71.660156 63.398438 75.929688 C 63.191406 83.105469 63.753906 87.097656 65.859375 93.359375 C 67.910156 99.472656 68.742188 104.066406 68.1875 106.230469 C 67.898438 107.355469 67.660156 106.800781 67.488281 104.597656 Z M 54.1875 105.261719 C 53.746094 104.371094 53.703125 103.941406 54.054688 103.941406 C 54.25 103.941406 55.058594 105.542969 55.058594 105.933594 C 55.058594 106.324219 54.503906 105.894531 54.1875 105.261719 Z M 56.875 105.515625 C 56.503906 104.894531 56.46875 104.203125 56.804688 104.203125 C 57.101562 104.203125 57.566406 105.070312 57.566406 105.625 C 57.566406 106.1875 57.246094 106.136719 56.875 105.515625 Z M 62.085938 105.527344 C 61.761719 104.894531 61.734375 102.953125 62.058594 103.300781 C 62.320312 103.585938 62.710938 106.035156 62.492188 106.035156 C 62.410156 106.035156 62.230469 105.804688 62.085938 105.527344 Z M 64.078125 105.363281 C 63.769531 104.523438 63.757812 102.375 64.054688 102.375 C 64.304688 102.375 64.46875 102.960938 64.71875 104.792969 C 64.910156 106.171875 64.503906 106.53125 64.078125 105.363281 Z M 59.5 104.53125 C 59.425781 104.136719 59.433594 103.703125 59.511719 103.570312 C 59.675781 103.292969 60.027344 104.089844 60.054688 104.792969 C 60.082031 105.523438 59.640625 105.320312 59.5 104.53125 Z M 51.359375 103.945312 C 51.1875 103.660156 51.050781 103.21875 51.054688 102.964844 C 51.058594 102.589844 51.148438 102.625 51.550781 103.160156 C 52.050781 103.824219 52.203125 104.464844 51.859375 104.464844 C 51.757812 104.464844 51.53125 104.230469 51.359375 103.945312 Z M 65.753906 103.746094 C 65.527344 103.347656 64.332031 98.09375 64.332031 97.484375 C 64.332031 95.496094 65.679688 99.433594 65.980469 102.308594 C 66.136719 103.789062 66.058594 104.277344 65.753906 103.746094 Z M 48.8125 102.675781 C 48.476562 102.023438 48.457031 101.066406 48.78125 101.066406 C 49.046875 101.066406 49.433594 102.839844 49.21875 103.0625 C 49.144531 103.140625 48.960938 102.964844 48.8125 102.675781 Z M 62.605469 100.035156 C 62.265625 98.386719 62.234375 96.160156 62.558594 96.507812 C 62.964844 96.949219 63.460938 100.773438 63.15625 101.09375 C 62.957031 101.300781 62.804688 101.007812 62.605469 100.035156 Z M 60.4375 99.910156 C 60.226562 98.429688 60.421875 97.820312 60.792969 98.796875 C 61.136719 99.691406 61.164062 101.066406 60.839844 101.066406 C 60.710938 101.066406 60.53125 100.546875 60.4375 99.910156 Z M 46.066406 99.644531 C 45.441406 97.054688 45.847656 90.40625 46.765625 88.261719 C 47.003906 87.707031 47.027344 87.828125 46.941406 89.046875 C 46.882812 89.835938 46.699219 91.484375 46.535156 92.707031 C 46.257812 94.78125 46.328125 98.085938 46.691406 99.980469 C 46.9375 101.265625 46.382812 100.96875 46.066406 99.644531 Z M 48.207031 98.523438 C 47.851562 97.15625 47.789062 96.507812 47.933594 95.695312 C 48.203125 94.195312 48.496094 94.683594 48.585938 96.78125 C 48.664062 98.65625 48.472656 99.539062 48.207031 98.523438 Z M 63.410156 95.382812 C 62.851562 94 62.078125 91.117188 62.078125 90.417969 C 62.078125 89.164062 62.59375 89.929688 63.214844 92.117188 C 63.570312 93.375 63.96875 94.746094 64.097656 95.160156 C 64.398438 96.132812 64.394531 96.363281 64.070312 96.363281 C 63.925781 96.363281 63.628906 95.921875 63.410156 95.382812 Z M 60.878906 94.714844 C 60.710938 94.308594 60.582031 93.425781 60.59375 92.753906 L 60.613281 91.527344 L 60.984375 92.410156 C 61.1875 92.894531 61.3125 93.777344 61.269531 94.371094 L 61.183594 95.449219 Z M 59.472656 89.417969 C 59.242188 88.789062 59.289062 86.957031 59.539062 86.957031 C 59.746094 86.957031 60.0625 88.402344 60.070312 89.375 C 60.074219 89.945312 59.675781 89.972656 59.472656 89.417969 Z M 61.230469 87.28125 C 60.761719 84.824219 60.527344 81.945312 60.671875 80.359375 C 60.964844 77.078125 61.242188 77.613281 61.410156 81.769531 C 61.496094 83.976562 61.640625 86.28125 61.730469 86.890625 C 61.914062 88.132812 61.457031 88.488281 61.230469 87.28125 Z M 47.289062 84.15625 C 47.289062 83.144531 47.523438 82.472656 47.808594 82.65625 C 48.054688 82.816406 47.832031 84.351562 47.507812 84.722656 C 47.378906 84.867188 47.289062 84.632812 47.289062 84.15625 Z M 60.824219 74.425781 C 60.824219 73.71875 60.9375 73.0625 61.074219 72.972656 C 61.230469 72.875 61.324219 73.363281 61.324219 74.265625 C 61.324219 75.066406 61.214844 75.71875 61.074219 75.71875 C 60.9375 75.71875 60.824219 75.136719 60.824219 74.425781 Z M 48.710938 73.976562 C 48.445312 73.699219 48.515625 71.324219 48.792969 71.144531 C 48.949219 71.042969 49.042969 71.578125 49.042969 72.566406 C 49.042969 74.164062 49.011719 74.292969 48.710938 73.976562 Z M 62.078125 70.984375 C 62.078125 70.480469 62.253906 69.839844 62.472656 69.5625 C 62.839844 69.085938 62.855469 69.125 62.742188 70.195312 C 62.582031 71.675781 62.078125 72.277344 62.078125 70.984375 Z M 60.097656 69.140625 C 60.070312 67.527344 60.25 66.753906 60.601562 66.980469 C 60.914062 67.183594 60.847656 68.335938 60.457031 69.578125 L 60.125 70.621094 Z M 63.683594 67.722656 C 63.824219 65.90625 64.6875 63.175781 65.121094 63.175781 C 65.402344 63.175781 65.398438 64.199219 65.113281 65.160156 C 64.988281 65.578125 64.703125 66.566406 64.480469 67.355469 C 63.808594 69.710938 63.519531 69.84375 63.683594 67.722656 Z M 56.199219 67.640625 C 55.960938 67.234375 56.296875 65.746094 56.582031 65.933594 C 56.871094 66.117188 56.875 67.109375 56.589844 67.578125 C 56.4375 67.832031 56.324219 67.851562 56.199219 67.640625 Z M 48.460938 67.253906 C 48.210938 66.574219 48.253906 65.058594 48.527344 64.882812 C 48.875 64.660156 49.148438 66.503906 48.867188 67.160156 C 48.652344 67.664062 48.617188 67.671875 48.460938 67.253906 Z M 58.492188 66.222656 C 58.421875 66.03125 58.457031 65.472656 58.566406 64.980469 C 58.761719 64.113281 58.769531 64.121094 58.792969 65.332031 C 58.820312 66.585938 58.726562 66.859375 58.492188 66.222656 Z M 61.84375 65.394531 C 61.84375 64.675781 62.007812 63.796875 62.203125 63.4375 C 62.546875 62.808594 62.5625 62.84375 62.570312 64.234375 C 62.574219 65.121094 62.4375 65.886719 62.210938 66.195312 C 61.871094 66.664062 61.84375 66.601562 61.84375 65.394531 Z M 52.972656 64.636719 C 52.789062 64.136719 53.058594 63.148438 53.332031 63.324219 C 53.625 63.511719 53.621094 65.003906 53.332031 65.003906 C 53.207031 65.003906 53.046875 64.839844 52.972656 64.636719 Z M 60.339844 63.632812 C 60.351562 63.164062 60.453125 62.546875 60.566406 62.261719 C 60.753906 61.777344 60.785156 61.773438 60.949219 62.195312 C 61.175781 62.769531 60.886719 64.480469 60.5625 64.480469 C 60.429688 64.480469 60.332031 64.097656 60.339844 63.632812 Z M 55.238281 63.796875 C 55.019531 63.570312 55 62.066406 55.210938 61.5 C 55.449219 60.847656 55.8125 61.292969 55.792969 62.210938 C 55.773438 63.226562 55.484375 64.054688 55.238281 63.796875 Z M 57.464844 62.691406 C 57.253906 62.335938 57.550781 61.082031 57.84375 61.082031 C 58.128906 61.082031 58.128906 62.148438 57.84375 62.613281 C 57.703125 62.847656 57.574219 62.875 57.464844 62.691406 Z M 51.230469 61.78125 C 50.980469 61.125 51.007812 59.464844 51.277344 59.023438 C 51.636719 58.429688 51.8125 59.46875 51.597656 60.953125 C 51.464844 61.882812 51.359375 62.121094 51.230469 61.78125 Z M 53.554688 59.921875 C 53.554688 59.285156 53.667969 58.691406 53.804688 58.601562 C 53.960938 58.5 54.054688 58.945312 54.054688 59.761719 C 54.054688 60.488281 53.945312 61.082031 53.804688 61.082031 C 53.667969 61.082031 53.554688 60.5625 53.554688 59.921875 Z M 59.238281 60.910156 C 58.976562 60.636719 59.042969 59.042969 59.320312 58.863281 C 59.472656 58.765625 59.570312 59.164062 59.570312 59.890625 C 59.570312 61.105469 59.535156 61.21875 59.238281 60.910156 Z M 56.3125 58.761719 C 56.3125 58.1875 56.425781 57.644531 56.5625 57.554688 C 56.714844 57.457031 56.8125 57.808594 56.8125 58.441406 C 56.8125 59.015625 56.699219 59.558594 56.5625 59.648438 C 56.414062 59.742188 56.3125 59.394531 56.3125 58.761719 Z M 111.941406 80.9375 C 115.113281 80.144531 116.4375 79.101562 116.988281 76.972656 C 117.339844 75.617188 116.917969 73.457031 115.917969 71.488281 C 114.914062 69.507812 112.378906 67.015625 109.453125 65.144531 C 108.144531 64.304688 106.066406 62.914062 104.832031 62.050781 C 102.125 60.15625 99.546875 58.878906 97.25 58.300781 C 94.761719 57.675781 90.339844 57.742188 87.769531 58.445312 C 83.6875 59.566406 78.035156 63.160156 74.28125 67.03125 C 70.46875 70.960938 69.640625 75.671875 72.453125 77.445312 C 73.4375 78.070312 74.003906 78.25 76.492188 78.738281 C 77.59375 78.957031 79.210938 79.3125 80.085938 79.535156 C 80.960938 79.757812 81.738281 79.875 81.8125 79.796875 C 81.886719 79.71875 81.773438 79.375 81.558594 79.035156 C 81.257812 78.554688 81.003906 78.441406 80.425781 78.53125 C 79.457031 78.679688 79.160156 78.160156 79.988281 77.769531 C 80.339844 77.601562 80.628906 77.363281 80.628906 77.238281 C 80.628906 76.777344 79.902344 76.738281 79.132812 77.152344 C 78.664062 77.402344 77.914062 77.542969 77.292969 77.496094 L 76.242188 77.417969 L 77.179688 76.929688 C 77.699219 76.664062 78.121094 76.359375 78.121094 76.253906 C 78.121094 75.777344 77.730469 75.8125 76.453125 76.398438 C 74.746094 77.1875 74.226562 76.957031 75.386719 75.929688 L 76.242188 75.175781 L 75.363281 75.546875 C 74.878906 75.75 74.183594 76.0625 73.8125 76.242188 C 73.027344 76.625 72.355469 76.4375 72.355469 75.832031 C 72.355469 74.273438 77.515625 72.015625 83.382812 71.003906 C 84.453125 70.820312 87.375 70.6875 90.152344 70.695312 C 95.0625 70.707031 98.03125 71.042969 101.308594 71.945312 C 102.132812 72.175781 104.277344 72.753906 106.070312 73.230469 C 110.003906 74.28125 109.941406 74.257812 111.90625 75.246094 C 114.117188 76.359375 115.277344 78.046875 114.371094 78.832031 C 114.097656 79.066406 113.855469 78.984375 113.257812 78.460938 C 112.453125 77.753906 108.964844 75.976562 108.40625 75.984375 C 108.0625 75.992188 109.171875 77.007812 109.535156 77.019531 C 109.957031 77.03125 111.964844 78.632812 111.835938 78.855469 C 111.691406 79.097656 110.808594 78.765625 108.242188 77.5 C 106.738281 76.757812 106.210938 76.679688 106.546875 77.246094 C 106.628906 77.382812 107.429688 77.945312 108.328125 78.492188 C 109.222656 79.039062 109.957031 79.589844 109.957031 79.714844 C 109.957031 80.058594 108.601562 79.675781 106.777344 78.8125 C 105.035156 77.992188 104.476562 77.96875 105.570312 78.761719 C 105.933594 79.027344 106.535156 79.507812 106.902344 79.828125 C 107.507812 80.347656 107.523438 80.40625 107.074219 80.410156 C 106.496094 80.417969 104.199219 79.105469 103.707031 78.488281 C 103.527344 78.257812 103.222656 78.070312 103.03125 78.070312 C 102.410156 78.070312 102.667969 79.066406 103.4375 79.636719 C 104.75 80.613281 104.320312 81.019531 102.777344 80.257812 C 101.800781 79.773438 101.785156 79.78125 101.554688 80.730469 C 101.40625 81.347656 101.46875 81.445312 102.097656 81.558594 C 103.691406 81.847656 109.851562 81.460938 111.941406 80.9375 Z M 114.597656 74.25 C 114.386719 73.730469 114.214844 73.253906 114.214844 73.191406 C 114.214844 72.847656 112.269531 69.996094 111.285156 68.894531 C 110.035156 67.503906 109.976562 66.964844 111.171875 67.851562 C 113.164062 69.328125 115.46875 72.878906 115.46875 74.464844 C 115.46875 75.480469 115.046875 75.378906 114.597656 74.25 Z M 111.953125 72.691406 C 111.816406 72.320312 111.773438 71.902344 111.859375 71.761719 C 112.050781 71.433594 112.695312 72.304688 112.703125 72.910156 C 112.714844 73.597656 112.230469 73.457031 111.953125 72.691406 Z M 109.097656 69.421875 C 107.90625 67.550781 107.75 66.851562 108.730469 67.769531 C 109.25 68.257812 110.699219 70.691406 110.703125 71.078125 C 110.710938 71.652344 110.152344 71.078125 109.097656 69.421875 Z M 73.609375 70.59375 C 73.609375 70.230469 75.449219 67.847656 76.109375 67.359375 C 77.523438 66.308594 77.367188 66.875 75.714844 68.792969 C 74.191406 70.5625 73.609375 71.058594 73.609375 70.59375 Z M 107.039062 69.78125 C 106.800781 69.382812 106.210938 68.617188 105.726562 68.078125 C 105.246094 67.542969 104.921875 67.027344 105.015625 66.933594 C 105.296875 66.636719 106.796875 68.023438 107.390625 69.132812 C 108.039062 70.339844 107.71875 70.929688 107.039062 69.78125 Z M 103.09375 68.246094 C 101.875 66.816406 101.703125 66.285156 102.628906 66.800781 C 103.726562 67.414062 105.242188 69.75 104.503906 69.695312 C 104.398438 69.683594 103.765625 69.035156 103.09375 68.246094 Z M 100.179688 67.75 C 99.296875 66.769531 99.820312 66.601562 100.746094 67.566406 C 101.296875 68.136719 101.425781 68.402344 101.15625 68.402344 C 100.945312 68.402344 100.503906 68.109375 100.179688 67.75 Z M 106.054688 65.375 C 104.371094 64.320312 103.753906 63.789062 103.394531 63.085938 C 103.097656 62.511719 103.042969 62.480469 105.746094 64.410156 C 108.570312 66.425781 108.777344 67.085938 106.054688 65.375 Z M 82.632812 65.835938 C 82.632812 65.5 83.613281 64.632812 83.789062 64.8125 C 83.871094 64.898438 83.863281 65.09375 83.773438 65.246094 C 83.535156 65.644531 82.632812 66.113281 82.632812 65.835938 Z M 79.90625 65.332031 C 80.535156 64.492188 81.199219 63.957031 81.605469 63.964844 C 81.871094 63.96875 81.695312 64.273438 81.070312 64.878906 C 80.078125 65.84375 79.296875 66.144531 79.90625 65.332031 Z M 97.085938 65.308594 C 96.855469 65.046875 96.671875 64.695312 96.671875 64.523438 C 96.671875 64.113281 97.488281 64.636719 97.886719 65.304688 C 98.285156 65.964844 97.65625 65.96875 97.085938 65.308594 Z M 99.0625 64.613281 C 98.652344 64.265625 98.398438 63.898438 98.496094 63.796875 C 98.742188 63.539062 99.914062 64.226562 100.207031 64.796875 C 100.558594 65.480469 99.964844 65.386719 99.0625 64.613281 Z M 101.925781 64.492188 C 101.445312 64.066406 101.171875 63.714844 101.3125 63.707031 C 101.589844 63.695312 103.4375 64.945312 103.4375 65.144531 C 103.4375 65.496094 102.6875 65.171875 101.925781 64.492188 Z M 83.636719 62.957031 C 83.636719 62.617188 84.761719 61.605469 85.140625 61.605469 C 85.347656 61.605469 85.199219 61.917969 84.761719 62.390625 C 84.050781 63.167969 83.636719 63.375 83.636719 62.957031 Z M 95.632812 62.414062 C 95.023438 61.898438 95.066406 61.484375 95.699219 61.734375 C 96.128906 61.90625 96.769531 62.914062 96.449219 62.914062 C 96.324219 62.914062 95.957031 62.6875 95.632812 62.414062 Z M 86.644531 62.40625 C 86.644531 62.054688 87.5625 61.082031 87.898438 61.082031 C 88.285156 61.082031 88.195312 61.484375 87.707031 61.917969 C 87.019531 62.535156 86.644531 62.707031 86.644531 62.40625 Z M 97.425781 61.816406 C 97.023438 61.425781 96.9375 61.207031 97.15625 61.132812 C 97.332031 61.070312 97.773438 61.328125 98.132812 61.707031 C 98.960938 62.570312 98.308594 62.671875 97.425781 61.816406 Z M 100.003906 61.746094 C 99.464844 61.25 99.398438 61.097656 99.726562 61.09375 C 99.960938 61.085938 100.46875 61.375 100.855469 61.730469 C 101.394531 62.226562 101.460938 62.375 101.132812 62.382812 C 100.898438 62.386719 100.390625 62.101562 100.003906 61.746094 Z M 105.597656 76.351562 C 105.707031 75.894531 105.628906 75.535156 105.355469 75.253906 C 104.8125 74.6875 104.675781 74.90625 104.855469 76.058594 C 105.03125 77.183594 105.363281 77.316406 105.597656 76.351562 Z M 103.027344 76.175781 C 103.335938 74.984375 103.214844 74.410156 102.65625 74.410156 C 102.230469 74.410156 102.15625 74.527344 102.277344 75 C 102.359375 75.324219 102.429688 75.851562 102.433594 76.175781 C 102.433594 76.5 102.535156 76.765625 102.65625 76.765625 C 102.777344 76.765625 102.945312 76.5 103.03125 76.175781 Z M 100.679688 74.625 C 100.679688 74.0625 100.5625 73.890625 100.179688 73.890625 C 99.765625 73.890625 99.679688 74.0625 99.679688 74.890625 C 99.679688 75.441406 99.757812 75.976562 99.859375 76.082031 C 100.144531 76.378906 100.679688 75.429688 100.679688 74.625 Z M 81.582031 74.71875 C 81.640625 73.886719 81.570312 73.628906 81.28125 73.628906 C 80.722656 73.628906 80.558594 74.078125 80.742188 75.097656 C 80.964844 76.328125 81.484375 76.09375 81.582031 74.71875 Z M 98.320312 74.476562 C 98.472656 73.464844 98.441406 73.367188 97.957031 73.367188 C 97.4375 73.367188 97.285156 73.804688 97.402344 74.933594 C 97.558594 76.40625 98.0625 76.15625 98.320312 74.476562 Z M 79.125 74.917969 C 79.125 74.640625 78.953125 74.410156 78.746094 74.410156 C 78.375 74.410156 78.222656 75.214844 78.53125 75.539062 C 78.792969 75.808594 79.125 75.464844 79.125 74.917969 Z M 83.886719 74.542969 C 83.886719 73.539062 83.8125 73.367188 83.382812 73.367188 C 82.984375 73.367188 82.882812 73.539062 82.882812 74.230469 C 82.882812 75.046875 83.246094 75.71875 83.683594 75.71875 C 83.796875 75.71875 83.886719 75.1875 83.886719 74.542969 Z M 93.386719 74.894531 C 93.859375 73.480469 93.75 72.84375 93.035156 72.84375 C 92.496094 72.84375 92.410156 72.960938 92.410156 73.691406 C 92.417969 74.753906 92.65625 75.71875 92.914062 75.71875 C 93.023438 75.71875 93.234375 75.347656 93.386719 74.894531 Z M 95.925781 74.644531 C 96.269531 73.316406 96.09375 72.78125 95.355469 72.890625 C 94.921875 72.953125 94.773438 73.171875 94.710938 73.8125 C 94.632812 74.683594 95.011719 75.71875 95.414062 75.71875 C 95.542969 75.71875 95.773438 75.234375 95.925781 74.644531 Z M 86.238281 73.972656 C 86.261719 73.136719 86.183594 72.972656 85.765625 72.972656 C 85.347656 72.972656 85.277344 73.125 85.332031 73.890625 C 85.367188 74.390625 85.457031 74.96875 85.527344 75.175781 C 85.753906 75.820312 86.203125 75.058594 86.238281 73.972656 Z M 88.691406 73.75 C 88.757812 73.113281 88.671875 72.960938 88.210938 72.890625 C 87.566406 72.796875 87.464844 73.363281 87.914062 74.589844 C 88.128906 75.183594 88.222656 75.25 88.398438 74.925781 C 88.515625 74.707031 88.648438 74.175781 88.691406 73.75 Z M 91.039062 73.824219 C 91.203125 72.886719 91.179688 72.84375 90.527344 72.84375 C 89.875 72.84375 89.855469 72.886719 90.023438 73.820312 C 90.335938 75.566406 90.730469 75.570312 91.039062 73.824219 Z M 42.519531 59.253906 C 42.519531 57.667969 42.148438 57.050781 41.789062 58.039062 C 41.640625 58.4375 41.523438 58.984375 41.523438 59.253906 C 41.523438 59.523438 41.640625 60.070312 41.789062 60.46875 C 42.148438 61.457031 42.519531 60.84375 42.519531 59.253906 Z M 39.496094 58.210938 C 39.488281 57.132812 39.394531 56.015625 39.289062 55.730469 C 39.101562 55.234375 39.082031 55.238281 38.78125 55.832031 C 38.476562 56.417969 38.570312 59.09375 38.933594 60.398438 C 39.207031 61.382812 39.511719 60.203125 39.496094 58.210938 Z M 37.277344 58.667969 C 37.496094 57.828125 37.492188 57.222656 37.269531 56.183594 C 36.9375 54.628906 36.628906 54.433594 36.378906 55.621094 C 36.167969 56.625 36.558594 59.777344 36.894531 59.777344 C 36.949219 59.777344 37.121094 59.277344 37.277344 58.667969 Z M 34.75 56.984375 C 34.753906 56.238281 34.625 55.300781 34.46875 54.894531 L 34.183594 54.160156 L 33.972656 55.074219 C 33.773438 55.925781 33.859375 57.425781 34.175781 58.570312 C 34.40625 59.421875 34.746094 58.484375 34.75 56.984375 Z M 46.785156 56.363281 C 46.785156 55.300781 46.652344 54.460938 46.4375 54.148438 C 46.109375 53.683594 46.066406 53.726562 45.792969 54.78125 C 45.488281 55.964844 45.644531 57.828125 46.105469 58.417969 C 46.542969 58.980469 46.777344 58.265625 46.785156 56.363281 Z M 43.90625 56.039062 C 43.90625 54.007812 43.640625 52.617188 43.300781 52.839844 C 42.910156 53.089844 42.816406 54.65625 43.082031 56.59375 C 43.417969 59.050781 43.90625 58.722656 43.90625 56.039062 Z M 41.121094 57.535156 C 41.386719 56.8125 41.261719 54.449219 40.917969 53.636719 L 40.582031 52.851562 L 40.335938 53.503906 C 40.105469 54.125 40.128906 55.179688 40.417969 57.097656 C 40.550781 58.007812 40.871094 58.207031 41.121094 57.535156 Z M 32.5625 55.304688 C 32.609375 52.679688 32.054688 50.972656 31.65625 52.523438 C 31.425781 53.414062 31.464844 54.640625 31.773438 56.132812 C 32.136719 57.890625 32.519531 57.488281 32.5625 55.304688 Z M 65.308594 56.574219 C 65.824219 54.917969 65.890625 53.664062 65.5 53.113281 C 65.292969 52.828125 65.0625 52.65625 64.984375 52.738281 C 64.699219 53.039062 64.503906 57.425781 64.777344 57.425781 C 64.925781 57.425781 65.164062 57.042969 65.308594 56.574219 Z M 28.136719 55.6875 C 28.335938 54.570312 27.976562 52.300781 27.609375 52.390625 C 27.324219 52.460938 27.132812 55.140625 27.351562 56.042969 C 27.566406 56.9375 27.941406 56.765625 28.136719 55.6875 Z M 68.339844 55.109375 C 68.476562 54.585938 68.589844 53.746094 68.589844 53.242188 C 68.585938 52.289062 68.253906 51.457031 68.023438 51.84375 C 67.824219 52.183594 67.34375 55.066406 67.34375 55.9375 C 67.34375 56.585938 67.398438 56.65625 67.714844 56.382812 C 67.917969 56.207031 68.199219 55.632812 68.339844 55.109375 Z M 30.488281 54.484375 C 30.484375 52.425781 30.183594 51.5 29.746094 52.199219 C 29.417969 52.71875 29.429688 53.796875 29.773438 55.21875 C 30.1875 56.941406 30.496094 56.628906 30.492188 54.484375 Z M 53.148438 55.007812 C 53.488281 53.683594 53.226562 50.371094 52.78125 50.371094 C 52.667969 50.371094 52.4375 50.835938 52.277344 51.402344 C 52.042969 52.214844 52.046875 52.78125 52.300781 54.015625 C 52.636719 55.679688 52.894531 55.980469 53.148438 55.007812 Z M 71.34375 52.722656 C 71.347656 51.320312 70.964844 50.902344 70.652344 51.972656 C 70.320312 53.097656 70.117188 55.265625 70.320312 55.476562 C 70.578125 55.746094 71.339844 53.699219 71.34375 52.722656 Z M 26.425781 52.203125 C 26.507812 50.664062 26.449219 49.742188 26.234375 49.328125 C 25.800781 48.484375 25.585938 48.984375 25.375 51.332031 C 25.171875 53.535156 25.589844 55.796875 26.039062 54.957031 C 26.183594 54.691406 26.355469 53.453125 26.425781 52.203125 Z M 38.628906 52.882812 C 38.546875 52.414062 38.371094 51.867188 38.246094 51.660156 C 38.046875 51.335938 37.980469 51.335938 37.765625 51.675781 C 37.441406 52.195312 37.453125 53.140625 37.800781 54.421875 L 38.085938 55.464844 L 38.433594 54.597656 C 38.636719 54.09375 38.71875 53.375 38.628906 52.882812 Z M 36.007812 53.242188 C 36.007812 51.554688 35.5625 50.121094 35.21875 50.6875 C 34.921875 51.171875 34.960938 53.972656 35.269531 54.574219 C 35.703125 55.421875 36.007812 54.875 36.007812 53.242188 Z M 23.953125 53.988281 C 24.273438 53.023438 24.320312 50.199219 24.015625 50.003906 C 23.738281 49.824219 23.226562 52.195312 23.226562 53.65625 C 23.226562 55.007812 23.558594 55.160156 23.953125 53.988281 Z M 48.105469 52.554688 C 48.128906 50.519531 47.878906 49.390625 47.488281 49.796875 C 47.191406 50.105469 47.136719 52.746094 47.402344 53.988281 C 47.699219 55.367188 48.082031 54.582031 48.105469 52.554688 Z M 50.421875 54.289062 C 50.507812 54.003906 50.589844 53.148438 50.605469 52.394531 C 50.644531 50.128906 50.03125 48.953125 49.703125 50.664062 C 49.253906 53 49.871094 56.101562 50.421875 54.289062 Z M 56.054688 52.476562 C 56.046875 51.675781 55.886719 50.730469 55.699219 50.371094 L 55.351562 49.714844 L 55.148438 50.5 C 54.882812 51.519531 54.878906 53.753906 55.140625 54.421875 C 55.34375 54.9375 55.351562 54.9375 55.703125 54.433594 C 55.917969 54.132812 56.058594 53.335938 56.054688 52.476562 Z M 58.417969 54.136719 C 58.644531 53.511719 58.589844 50.550781 58.34375 50.140625 C 57.894531 49.40625 57.566406 50.167969 57.566406 51.929688 C 57.566406 53.761719 57.71875 54.550781 58.066406 54.550781 C 58.175781 54.550781 58.332031 54.363281 58.417969 54.136719 Z M 61.414062 52.316406 C 61.394531 50.921875 60.960938 49.726562 60.5625 49.984375 C 60.238281 50.195312 60.257812 53.035156 60.589844 53.945312 C 60.847656 54.648438 60.871094 54.65625 61.144531 54.160156 C 61.300781 53.871094 61.421875 53.042969 61.414062 52.316406 Z M 73.160156 53.359375 C 73.390625 52.511719 73.203125 50.890625 72.875 50.890625 C 72.625 50.890625 72.355469 52.199219 72.355469 53.429688 C 72.355469 54.523438 72.859375 54.480469 73.160156 53.359375 Z M 45.410156 52.976562 C 45.601562 51.785156 45.351562 49.398438 45.007812 49.179688 C 44.59375 48.910156 44.230469 50.476562 44.355469 51.984375 C 44.546875 54.277344 45.113281 54.808594 45.410156 52.976562 Z M 63.832031 52.214844 C 63.832031 50.730469 63.253906 49.003906 62.992188 49.710938 C 62.738281 50.402344 62.800781 52.703125 63.09375 53.269531 C 63.503906 54.066406 63.832031 53.597656 63.832031 52.214844 Z M 33.691406 50.316406 C 33.546875 48.210938 33.160156 47.542969 32.75 48.671875 C 32.484375 49.398438 32.535156 49.976562 33.042969 52.058594 C 33.265625 52.953125 33.332031 53.027344 33.558594 52.609375 C 33.703125 52.339844 33.761719 51.335938 33.691406 50.316406 Z M 42.273438 50.925781 C 42.273438 49.519531 42.167969 48.773438 41.9375 48.574219 C 41.433594 48.136719 41.273438 48.480469 41.273438 49.980469 C 41.273438 51.425781 41.675781 52.984375 42.050781 52.984375 C 42.171875 52.984375 42.273438 52.054688 42.273438 50.925781 Z M 22.222656 52.503906 C 22.222656 52.386719 21.960938 52.035156 21.644531 51.722656 C 21.199219 51.289062 20.996094 51.230469 20.769531 51.464844 C 20.316406 51.9375 20.101562 51.496094 20.425781 50.75 C 20.832031 49.824219 20.792969 48.144531 20.355469 47.769531 C 20.054688 47.507812 19.96875 47.621094 19.839844 48.457031 C 19.535156 50.421875 19.441406 50.652344 18.828125 50.941406 C 18.0625 51.308594 17.753906 51.039062 18.15625 50.359375 C 18.527344 49.742188 18.5625 48.277344 18.203125 48.277344 C 18.0625 48.277344 17.84375 48.5625 17.71875 48.90625 C 17.464844 49.601562 16.492188 50.421875 16.167969 50.214844 C 16.050781 50.140625 16.183594 49.621094 16.457031 49.058594 C 16.960938 48.035156 17.136719 46.449219 16.75 46.449219 C 16.347656 46.449219 15.40625 47.71875 15.082031 48.703125 C 14.65625 49.992188 14.277344 50.097656 13.851562 49.039062 C 13.257812 47.574219 14.125 45.667969 16.039062 44.222656 C 18.316406 42.503906 22.707031 40.03125 24.769531 39.304688 C 28.082031 38.136719 34.085938 37.789062 39.394531 38.460938 C 49.679688 39.761719 49.417969 39.746094 53.699219 39.296875 C 58.234375 38.816406 58.304688 38.804688 64.53125 37.324219 C 76.105469 34.578125 86.914062 35.65625 98.484375 40.714844 C 104.8125 43.476562 106.132812 44.335938 106.734375 46.0625 C 106.90625 46.5625 107.109375 46.972656 107.1875 46.96875 C 107.261719 46.96875 107.589844 46.558594 107.917969 46.058594 C 110.078125 42.75 107.371094 36.058594 101.992188 31.40625 C 99.875 29.574219 97.558594 28.121094 94.695312 26.835938 C 92.703125 25.941406 91.042969 25.464844 82.757812 23.425781 C 79.820312 22.699219 77.082031 21.597656 72.554688 19.308594 C 64.464844 15.21875 60.941406 14.355469 53.503906 14.644531 C 49.210938 14.808594 46.535156 15.324219 42.328125 16.804688 C 37.515625 18.496094 33.523438 20.792969 27.988281 25.054688 C 26.402344 26.273438 23.699219 28.261719 21.976562 29.472656 C 16.753906 33.15625 13.410156 37.148438 11.71875 41.722656 C 9.25 48.394531 12.597656 52.441406 20.78125 52.679688 C 21.574219 52.703125 22.222656 52.625 22.222656 52.503906 Z M 106.203125 41.066406 C 105.789062 40.117188 104.957031 38.621094 104.347656 37.734375 C 103.265625 36.164062 99.910156 32.609375 98.691406 31.738281 C 97.90625 31.183594 98.207031 30.84375 99.105469 31.269531 C 101.167969 32.25 104.902344 36.476562 106.171875 39.261719 C 106.808594 40.660156 107.34375 42.789062 107.058594 42.789062 C 107 42.789062 106.613281 42.015625 106.203125 41.066406 Z M 13.949219 41.679688 C 13.953125 40.839844 16.003906 38.085938 16.628906 38.085938 C 17.136719 38.085938 17.054688 38.246094 15.570312 40.191406 C 14.132812 42.066406 13.949219 42.234375 13.949219 41.679688 Z M 102.8125 39.457031 C 102.292969 38.632812 101.476562 37.453125 101.003906 36.839844 C 99.722656 35.1875 100.148438 34.839844 101.554688 36.386719 C 102.75 37.707031 103.746094 39.296875 104.054688 40.375 C 104.355469 41.417969 103.78125 41 102.8125 39.457031 Z M 17.710938 40.1875 C 17.710938 39.800781 18.761719 38.871094 19.011719 39.035156 C 19.339844 39.242188 18.398438 40.425781 17.898438 40.433594 C 17.792969 40.4375 17.710938 40.324219 17.710938 40.1875 Z M 97.613281 36.824219 C 95.945312 35.109375 95.648438 34.695312 96.089844 34.691406 C 96.722656 34.6875 99.566406 37.3125 99.8125 38.125 C 100.140625 39.195312 99.636719 38.894531 97.613281 36.824219 Z M 94.246094 36.691406 C 93.492188 36.265625 91.90625 34.730469 91.90625 34.421875 C 91.90625 33.984375 92.242188 34.136719 93.410156 35.105469 C 94.949219 36.378906 95.484375 37.390625 94.246094 36.691406 Z M 50.855469 35.425781 C 50.992188 34.996094 51.742188 34.539062 51.949219 34.757812 C 52.1875 35.007812 51.570312 35.734375 51.121094 35.734375 C 50.921875 35.734375 50.800781 35.597656 50.855469 35.425781 Z M 48.292969 35.21875 C 48.292969 34.851562 49.523438 34.058594 49.742188 34.285156 C 49.839844 34.386719 49.65625 34.699219 49.328125 34.972656 C 48.679688 35.523438 48.292969 35.613281 48.292969 35.21875 Z M 45.785156 35.003906 C 45.785156 34.632812 46.371094 34.167969 46.835938 34.167969 C 47.488281 34.167969 47.390625 34.554688 46.648438 34.910156 C 45.894531 35.269531 45.785156 35.28125 45.785156 35.003906 Z M 88.460938 34.894531 C 87.78125 34.550781 87.722656 34.167969 88.347656 34.167969 C 88.8125 34.167969 89.402344 34.632812 89.402344 35.003906 C 89.402344 35.273438 89.160156 35.246094 88.460938 34.894531 Z M 96.671875 33.105469 C 94.355469 31.203125 93.945312 30.496094 95.71875 31.449219 C 96.589844 31.921875 98.925781 34.113281 98.925781 34.464844 C 98.925781 34.875 98.566406 34.660156 96.671875 33.105469 Z M 38.515625 34.195312 C 38.515625 33.90625 39.164062 33.625 39.359375 33.828125 C 39.441406 33.910156 39.445312 34.078125 39.371094 34.203125 C 39.195312 34.5 38.515625 34.492188 38.515625 34.195312 Z M 43.527344 34.167969 C 43.527344 33.796875 44.980469 33.082031 45.148438 33.367188 C 45.308594 33.636719 45.144531 33.773438 44.191406 34.152344 C 43.78125 34.3125 43.527344 34.320312 43.527344 34.167969 Z M 41.242188 33.558594 C 41.429688 33.316406 41.875 33.121094 42.230469 33.121094 C 43.039062 33.121094 42.6875 33.535156 41.648438 33.800781 C 40.96875 33.972656 40.929688 33.949219 41.242188 33.558594 Z M 55.058594 33.253906 C 55.648438 32.597656 56.3125 32.382812 56.3125 32.84375 C 56.3125 33.171875 55.292969 33.90625 54.835938 33.90625 C 54.578125 33.90625 54.640625 33.714844 55.058594 33.253906 Z M 92.722656 32.6875 C 91.15625 31.515625 90.75 30.96875 91.613281 31.203125 C 92.214844 31.367188 94.472656 33.160156 94.605469 33.578125 C 94.769531 34.113281 94.375 33.925781 92.722656 32.6875 Z M 89.035156 32.71875 C 88.347656 32.226562 87.671875 31.777344 87.53125 31.722656 C 87.386719 31.667969 87.351562 31.535156 87.449219 31.425781 C 87.699219 31.140625 89.929688 32.410156 90.359375 33.082031 C 90.855469 33.867188 90.484375 33.761719 89.035156 32.71875 Z M 52.804688 32.878906 C 52.804688 32.574219 53.804688 31.554688 54.105469 31.554688 C 54.355469 31.554688 54.359375 31.851562 54.117188 32.234375 C 53.832031 32.675781 52.804688 33.183594 52.804688 32.878906 Z M 84.824219 32.710938 C 84.214844 32.363281 83.882812 31.816406 84.285156 31.816406 C 84.648438 31.816406 86.140625 32.679688 86.140625 32.890625 C 86.140625 33.226562 85.613281 33.15625 84.824219 32.710938 Z M 50.046875 32.488281 C 50.046875 32.085938 50.773438 31.554688 51.3125 31.554688 C 51.695312 31.554688 51.164062 32.253906 50.503906 32.621094 C 50.15625 32.816406 50.046875 32.785156 50.046875 32.488281 Z M 21.21875 32.363281 C 21.21875 31.761719 24.832031 29.191406 25.636719 29.214844 C 26.089844 29.230469 26.09375 29.242188 25.644531 29.542969 C 25.390625 29.714844 24.601562 30.304688 23.890625 30.855469 C 22.304688 32.082031 21.21875 32.695312 21.21875 32.363281 Z M 47.289062 32.351562 C 47.289062 32.011719 48.316406 31.289062 48.785156 31.300781 C 49.035156 31.308594 48.90625 31.535156 48.417969 31.953125 C 47.617188 32.636719 47.289062 32.753906 47.289062 32.351562 Z M 27.617188 30.011719 C 27.890625 29.738281 28.394531 29.441406 28.738281 29.34375 L 29.367188 29.171875 L 28.664062 29.839844 C 27.804688 30.652344 26.816406 30.816406 27.617188 30.011719 Z M 79.5625 30.203125 C 78.816406 29.917969 78.632812 29.460938 79.265625 29.460938 C 79.796875 29.460938 80.628906 29.945312 80.628906 30.253906 C 80.628906 30.558594 80.46875 30.550781 79.5625 30.203125 Z M 83.746094 29.878906 C 83.472656 29.679688 82.976562 29.472656 82.644531 29.421875 C 81.964844 29.320312 81.621094 28.679688 82.246094 28.679688 C 82.738281 28.679688 84.542969 29.613281 84.761719 29.980469 C 84.992188 30.371094 84.328125 30.304688 83.746094 29.878906 Z M 90.90625 29.25 C 89.589844 28.472656 89.382812 28.269531 89.84375 28.203125 C 90.445312 28.113281 92.679688 29.398438 92.851562 29.929688 C 93.003906 30.410156 92.679688 30.296875 90.90625 29.25 Z M 95.121094 29.585938 C 93.847656 28.894531 93.402344 28.417969 94.027344 28.417969 C 94.503906 28.417969 96.417969 29.699219 96.417969 30.019531 C 96.417969 30.308594 96.5 30.332031 95.121094 29.585938 Z M 87.035156 29.078125 C 86.007812 28.589844 85.414062 28.171875 85.585938 28.0625 C 86.113281 27.71875 89.3125 29.4375 88.871094 29.824219 C 88.816406 29.871094 87.992188 29.535156 87.035156 29.078125 Z M 28.488281 27.65625 C 28.488281 27.230469 30.917969 25.542969 31.527344 25.542969 C 31.984375 25.542969 31.742188 25.804688 30.4375 26.71875 C 28.667969 27.957031 28.488281 28.042969 28.488281 27.65625 Z M 32.488281 27.101562 C 33.316406 26.363281 34.007812 26.097656 34 26.523438 C 33.996094 26.792969 32.328125 27.898438 31.9375 27.882812 C 31.765625 27.878906 32.011719 27.523438 32.488281 27.101562 Z M 37.011719 24.628906 C 37.570312 24.007812 38.515625 23.730469 38.515625 24.1875 C 38.515625 24.386719 36.933594 25.28125 36.582031 25.28125 C 36.496094 25.28125 36.6875 24.988281 37.011719 24.628906 Z M 33.753906 24.230469 C 33.753906 23.925781 35.234375 22.933594 35.695312 22.929688 C 36.289062 22.929688 36.003906 23.359375 35.035156 23.925781 C 33.941406 24.566406 33.753906 24.613281 33.753906 24.230469 Z M 72.078125 23.621094 C 70.394531 22.898438 69.105469 22.09375 68.476562 21.371094 C 67.855469 20.652344 68.421875 20.675781 69.402344 21.402344 C 69.824219 21.714844 71.007812 22.351562 72.039062 22.816406 C 73.074219 23.285156 74.039062 23.796875 74.1875 23.953125 C 74.65625 24.441406 73.601562 24.273438 72.078125 23.621094 Z M 67.59375 23.410156 C 67.109375 23.101562 66.847656 22.800781 67.011719 22.742188 C 67.34375 22.621094 68.730469 23.308594 68.96875 23.710938 C 69.234375 24.160156 68.515625 24 67.59375 23.410156 Z M 76.191406 23.324219 C 72.929688 22.015625 67.34375 18.925781 67.34375 18.429688 C 67.34375 17.933594 68.457031 18.316406 70.394531 19.476562 C 73.535156 21.355469 77.949219 23.453125 78.777344 23.453125 C 78.949219 23.453125 79.164062 23.570312 79.25 23.714844 C 79.53125 24.1875 77.789062 23.964844 76.191406 23.324219 Z M 60.375 22.617188 C 59.59375 21.800781 60.375 21.628906 61.324219 22.40625 L 61.953125 22.917969 L 61.3125 22.921875 C 60.960938 22.925781 60.539062 22.789062 60.375 22.617188 Z M 63.019531 21.832031 C 61.808594 21.289062 61.46875 20.835938 62.265625 20.839844 C 62.824219 20.839844 64.332031 21.792969 64.332031 22.140625 C 64.332031 22.289062 64.304688 22.398438 64.269531 22.386719 C 64.238281 22.375 63.671875 22.125 63.019531 21.832031 Z M 64.648438 20.503906 C 63.3125 19.65625 63.019531 19.269531 63.710938 19.269531 C 64.277344 19.269531 66.089844 20.589844 66.089844 21.003906 C 66.089844 21.453125 66.191406 21.488281 64.648438 20.503906 Z M 54.804688 20.441406 C 54.628906 20.222656 54.546875 19.976562 54.625 19.898438 C 54.765625 19.75 56.3125 20.496094 56.3125 20.714844 C 56.3125 21.019531 55.089844 20.796875 54.804688 20.441406 Z M 57.378906 19.796875 C 56.660156 19.339844 56.285156 18.746094 56.71875 18.746094 C 57.035156 18.746094 58.820312 19.898438 58.820312 20.101562 C 58.820312 20.464844 58.230469 20.339844 57.378906 19.796875 Z M 59.882812 19.226562 C 59.4375 18.9375 59.070312 18.59375 59.070312 18.460938 C 59.070312 17.980469 59.835938 18.246094 60.632812 19 C 61.574219 19.894531 61.128906 20.027344 59.882812 19.226562 Z M 50.664062 18.46875 C 50.570312 18.316406 50.558594 18.125 50.636719 18.046875 C 50.847656 17.824219 52.050781 18.203125 52.050781 18.492188 C 52.050781 18.839844 50.871094 18.820312 50.664062 18.46875 Z M 64.898438 18.429688 C 64.585938 18.273438 64.332031 18.046875 64.332031 17.925781 C 64.332031 17.503906 65.261719 17.703125 65.710938 18.226562 C 66.230469 18.820312 65.863281 18.914062 64.898438 18.429688 Z M 54.558594 17.789062 C 53.203125 17.566406 52.804688 17.417969 52.804688 17.140625 C 52.804688 16.738281 54.828125 17.097656 55.300781 17.585938 C 55.503906 17.792969 55.558594 17.949219 55.425781 17.929688 C 55.292969 17.910156 54.902344 17.847656 54.558594 17.789062 Z M 60.914062 17.703125 C 60.300781 17.445312 59.902344 16.917969 60.320312 16.917969 C 60.65625 16.917969 62.078125 17.664062 62.078125 17.839844 C 62.078125 18.023438 61.523438 17.960938 60.914062 17.703125 Z M 57.148438 17.257812 C 56.621094 17.152344 56.101562 16.394531 56.554688 16.394531 C 57.046875 16.394531 58.066406 16.921875 58.066406 17.171875 C 58.066406 17.320312 57.984375 17.425781 57.878906 17.40625 C 57.777344 17.386719 57.445312 17.320312 57.148438 17.257812 Z M 67.058594 51.21875 C 67.316406 49.832031 67.097656 47.757812 66.691406 47.757812 C 66.398438 47.757812 65.839844 49.648438 65.839844 50.640625 C 65.839844 51.726562 66.1875 52.722656 66.566406 52.722656 C 66.679688 52.722656 66.902344 52.046875 67.058594 51.21875 Z M 39.894531 51.671875 C 40.09375 50.738281 39.867188 49.183594 39.410156 48.304688 L 39.085938 47.679688 L 38.921875 48.582031 C 38.835938 49.082031 38.875 50.113281 39.015625 50.878906 C 39.152344 51.644531 39.265625 52.3125 39.265625 52.363281 C 39.265625 52.417969 39.371094 52.460938 39.496094 52.460938 C 39.625 52.460938 39.804688 52.105469 39.894531 51.671875 Z M 29.089844 51.785156 C 29.339844 51.101562 29.257812 48.804688 28.964844 48.226562 C 28.558594 47.441406 28.246094 48.089844 28.246094 49.714844 C 28.246094 51.796875 28.6875 52.878906 29.089844 51.785156 Z M 69.96875 50.035156 C 69.972656 49.140625 69.878906 48.175781 69.757812 47.886719 L 69.542969 47.363281 L 69.339844 47.886719 C 69.085938 48.527344 69.03125 51.78125 69.269531 52.027344 C 69.65625 52.433594 69.964844 51.558594 69.96875 50.035156 Z M 31.371094 49.636719 C 31.371094 47.988281 31.132812 47.113281 30.746094 47.363281 C 30.46875 47.539062 30.398438 50.585938 30.652344 51.28125 C 30.957031 52.109375 31.371094 51.167969 31.371094 49.636719 Z M 23.125 49.410156 C 23.34375 48.195312 22.777344 46.304688 22.332031 46.769531 C 22.050781 47.066406 21.898438 49.230469 22.089844 50.285156 C 22.253906 51.210938 22.289062 51.246094 22.617188 50.777344 C 22.808594 50.503906 23.039062 49.886719 23.125 49.410156 Z M 37.261719 49.636719 C 37.257812 48.472656 36.816406 46.710938 36.53125 46.710938 C 35.964844 46.710938 36.074219 49.667969 36.679688 50.699219 C 36.9375 51.140625 37.261719 50.542969 37.261719 49.636719 Z M 51.894531 50.042969 C 52.285156 48.515625 51.867188 45.691406 51.300781 46.058594 C 50.820312 46.367188 51.054688 50.628906 51.550781 50.628906 C 51.65625 50.628906 51.808594 50.367188 51.894531 50.042969 Z M 54.554688 48.460938 C 54.550781 46.636719 54.277344 45.609375 53.902344 46.003906 C 53.441406 46.484375 53.84375 50.800781 54.320312 50.492188 C 54.449219 50.40625 54.554688 49.492188 54.554688 48.460938 Z M 74.609375 48.460938 C 74.601562 46.414062 74.300781 45.492188 73.863281 46.1875 C 73.535156 46.710938 73.539062 49.488281 73.871094 50.132812 C 74.332031 51.03125 74.613281 50.394531 74.605469 48.460938 Z M 49.226562 47.285156 C 49.121094 45.417969 48.785156 44.519531 48.425781 45.125 C 48.136719 45.613281 48.25 48.941406 48.578125 49.699219 L 48.890625 50.410156 L 49.117188 49.800781 C 49.238281 49.46875 49.289062 48.335938 49.226562 47.285156 Z M 59.667969 47.679688 C 59.652344 45.796875 59.261719 44.464844 58.808594 44.757812 C 58.484375 44.964844 58.507812 47.90625 58.839844 49.160156 C 59.253906 50.714844 59.6875 49.945312 59.667969 47.679688 Z M 77.398438 49.0625 C 77.632812 48.25 77.632812 47.785156 77.394531 46.964844 C 77.230469 46.386719 77 45.972656 76.882812 46.046875 C 76.328125 46.402344 76.335938 50.109375 76.890625 50.109375 C 77.003906 50.109375 77.234375 49.636719 77.398438 49.0625 Z M 62.328125 48.316406 C 62.328125 46.664062 61.917969 45.054688 61.550781 45.289062 C 61.238281 45.488281 61.265625 48.71875 61.585938 49.339844 C 62.054688 50.253906 62.328125 49.871094 62.328125 48.316406 Z M 64.835938 48.300781 C 64.835938 47.019531 64.46875 45.550781 63.992188 44.917969 C 63.527344 44.296875 63.304688 45.894531 63.621094 47.625 C 64.082031 50.167969 64.835938 50.585938 64.835938 48.300781 Z M 71.945312 49.257812 C 72.210938 48.230469 72.117188 46.566406 71.765625 46.066406 C 71.289062 45.382812 71.011719 45.953125 71.046875 47.550781 C 71.089844 49.628906 71.601562 50.597656 71.945312 49.257812 Z M 57.066406 47.609375 C 57.066406 45.523438 56.695312 44.242188 56.289062 44.910156 C 55.800781 45.714844 56.269531 49.585938 56.855469 49.585938 C 56.96875 49.585938 57.066406 48.695312 57.066406 47.609375 Z M 25.222656 47.3125 C 25.230469 46.402344 24.777344 45.140625 24.4375 45.140625 C 24.183594 45.140625 24.152344 48.898438 24.402344 49.15625 C 24.675781 49.445312 25.210938 48.238281 25.222656 47.3125 Z M 35.007812 47.070312 C 35.007812 45.390625 34.714844 44.359375 34.246094 44.359375 C 33.917969 44.359375 33.9375 47.921875 34.265625 48.5625 C 34.714844 49.4375 35.007812 48.847656 35.007812 47.070312 Z M 43.621094 48.472656 C 43.972656 47.109375 43.507812 44.699219 42.808594 44.246094 C 42.238281 43.878906 42.308594 46.566406 42.921875 48.605469 C 43.113281 49.238281 43.441406 49.175781 43.621094 48.472656 Z M 46.636719 48.648438 C 47.089844 47.410156 46.617188 43.835938 45.996094 43.835938 C 45.683594 43.835938 45.617188 47.847656 45.910156 48.734375 C 46.0625 49.191406 46.453125 49.144531 46.636719 48.648438 Z M 80.015625 47.894531 C 80.191406 46.914062 79.71875 45.050781 79.355469 45.285156 C 79.097656 45.453125 79.039062 48.003906 79.273438 48.648438 C 79.496094 49.25 79.832031 48.910156 80.015625 47.894531 Z M 27.328125 47.953125 C 27.609375 46.863281 27.492188 44.46875 27.136719 43.960938 C 26.808594 43.496094 26.765625 43.535156 26.46875 44.5625 C 26.21875 45.441406 26.214844 45.957031 26.460938 47.101562 C 26.789062 48.628906 27.082031 48.914062 27.328125 47.953125 Z M 40.527344 44.554688 C 40.375 44.015625 40.125 43.574219 39.976562 43.574219 C 39.605469 43.574219 39.851562 46.847656 40.300781 47.886719 C 40.636719 48.664062 40.640625 48.65625 40.722656 47.101562 C 40.769531 46.238281 40.679688 45.09375 40.527344 44.554688 Z M 82.75 47.527344 C 82.917969 46.734375 82.453125 44.359375 82.128906 44.359375 C 81.640625 44.359375 81.511719 46.128906 81.894531 47.566406 C 82.1875 48.667969 82.515625 48.652344 82.75 47.527344 Z M 68.554688 47.089844 C 69.113281 45.8125 68.753906 42.234375 68.113281 42.648438 C 67.542969 43.015625 67.507812 47.753906 68.074219 47.753906 C 68.179688 47.753906 68.394531 47.457031 68.554688 47.089844 Z M 19.214844 45.890625 C 19.214844 45.496094 19.117188 45.109375 18.996094 45.035156 C 18.65625 44.816406 17.933594 45.800781 18.078125 46.28125 C 18.523438 47.730469 18.46875 47.667969 18.855469 47.117188 C 19.054688 46.839844 19.214844 46.289062 19.214844 45.890625 Z M 29.980469 45.847656 C 29.976562 45.101562 29.824219 44.136719 29.644531 43.707031 C 29.355469 43.007812 29.304688 42.976562 29.175781 43.445312 C 28.753906 44.941406 28.734375 45.671875 29.097656 46.570312 C 29.605469 47.84375 29.996094 47.523438 29.980469 45.847656 Z M 38.125 46.144531 C 38.113281 44.917969 37.605469 43.3125 37.230469 43.3125 C 36.90625 43.3125 36.964844 45.621094 37.3125 46.628906 C 37.726562 47.816406 38.140625 47.566406 38.125 46.144531 Z M 32.5 45.792969 C 32.5 44.617188 32.082031 43.3125 31.707031 43.3125 C 31.414062 43.3125 31.441406 45.746094 31.746094 46.578125 C 32.101562 47.554688 32.5 47.140625 32.5 45.792969 Z M 21.21875 45.316406 C 21.21875 43.804688 21.105469 43.535156 20.566406 43.75 C 20.140625 43.921875 20.109375 45.132812 20.507812 46.046875 C 20.964844 47.089844 21.21875 46.832031 21.21875 45.316406 Z M 66.449219 45.535156 C 66.632812 44.507812 66.40625 42.835938 66.015625 42.320312 C 65.605469 41.78125 65.34375 42.449219 65.339844 44.050781 C 65.335938 46.246094 66.128906 47.308594 66.449219 45.535156 Z M 53.265625 43.675781 C 53.359375 41.726562 53.355469 41.703125 52.769531 41.789062 C 52.230469 41.867188 52.179688 41.992188 52.222656 43.175781 C 52.347656 46.730469 53.101562 47.089844 53.265625 43.675781 Z M 76.066406 44.539062 C 76.140625 43.046875 75.789062 41.863281 75.351562 42.144531 C 75.085938 42.316406 75.023438 45.117188 75.269531 45.785156 C 75.578125 46.628906 75.992188 45.984375 76.066406 44.539062 Z M 23.71875 43.65625 C 23.726562 42.417969 23.460938 42.109375 22.773438 42.558594 C 22.363281 42.824219 22.328125 43.03125 22.511719 44.070312 C 22.628906 44.730469 22.789062 45.449219 22.867188 45.664062 C 23.105469 46.320312 23.707031 44.898438 23.71875 43.65625 Z M 50.679688 44.539062 C 50.933594 42.777344 50.761719 41.875 50.171875 41.875 C 49.730469 41.875 49.675781 42.03125 49.730469 43.183594 C 49.847656 45.792969 50.386719 46.566406 50.679688 44.539062 Z M 78.609375 43.183594 C 78.617188 41.53125 78.300781 40.90625 77.878906 41.730469 C 77.527344 42.414062 77.425781 44.867188 77.730469 45.378906 C 78.082031 45.96875 78.601562 44.664062 78.609375 43.183594 Z M 86.480469 44.816406 C 86.648438 43.824219 86.351562 42.136719 86.011719 42.136719 C 85.523438 42.136719 85.296875 43.523438 85.605469 44.605469 C 85.976562 45.886719 86.285156 45.960938 86.480469 44.816406 Z M 89.019531 44.902344 C 89.199219 44.046875 88.949219 42.269531 88.648438 42.269531 C 88.355469 42.269531 88.148438 42.980469 88.148438 43.964844 C 88.148438 45.644531 88.730469 46.273438 89.019531 44.902344 Z M 73.53125 43.90625 C 73.617188 43.242188 73.527344 42.597656 73.285156 42.117188 L 72.90625 41.363281 L 72.625 42.460938 C 72.375 43.429688 72.445312 44.585938 72.792969 45.230469 C 73.015625 45.636719 73.398438 44.953125 73.53125 43.90625 Z M 81.226562 43.066406 C 81.246094 41.453125 80.96875 40.65625 80.601562 41.261719 C 80.347656 41.671875 80.3125 43.949219 80.542969 44.847656 C 80.6875 45.414062 80.722656 45.425781 80.957031 44.988281 C 81.09375 44.730469 81.21875 43.863281 81.226562 43.066406 Z M 92.003906 44.992188 C 92.230469 44.382812 92.191406 43.703125 91.894531 42.882812 C 91.679688 42.300781 91.582031 42.230469 91.394531 42.539062 C 91.011719 43.167969 91.097656 45.402344 91.503906 45.402344 C 91.695312 45.402344 91.921875 45.21875 92.003906 44.992188 Z M 55.410156 44.730469 C 55.492188 44.5 55.5625 43.667969 55.5625 42.871094 C 55.5625 41.664062 55.496094 41.453125 55.164062 41.585938 C 54.945312 41.675781 54.71875 41.746094 54.664062 41.746094 C 54.5 41.746094 54.539062 44.265625 54.710938 44.730469 C 54.792969 44.957031 54.949219 45.144531 55.058594 45.144531 C 55.167969 45.144531 55.324219 44.957031 55.410156 44.730469 Z M 70.949219 44.730469 C 71.203125 44.046875 71.121094 42.050781 70.835938 41.863281 C 70.464844 41.625 70.351562 41.800781 70.183594 42.875 C 69.9375 44.449219 70.527344 45.875 70.949219 44.730469 Z M 84.289062 44.464844 C 84.484375 43.664062 83.964844 41.664062 83.625 41.882812 C 83.355469 42.058594 83.292969 44.699219 83.550781 44.96875 C 83.875 45.308594 84.128906 45.136719 84.289062 44.464844 Z M 44.78125 43.035156 C 44.78125 42.183594 44.667969 41.464844 44.53125 41.445312 C 43.714844 41.316406 43.65625 41.382812 43.730469 42.398438 C 43.816406 43.683594 44.261719 44.925781 44.558594 44.730469 C 44.683594 44.652344 44.78125 43.890625 44.78125 43.035156 Z M 58.066406 43.050781 C 58.066406 41.398438 58.019531 41.222656 57.566406 41.222656 C 56.976562 41.222656 56.914062 41.929688 57.34375 43.71875 C 57.757812 45.425781 58.066406 45.136719 58.066406 43.050781 Z M 60.871094 42.660156 C 60.945312 40.976562 60.910156 40.832031 60.449219 40.832031 C 60 40.832031 59.949219 40.996094 59.96875 42.425781 C 60.011719 45.535156 60.734375 45.71875 60.871094 42.660156 Z M 63.28125 41.914062 C 63.226562 40.925781 63.105469 40.570312 62.828125 40.570312 C 62.539062 40.570312 62.4375 40.980469 62.378906 42.371094 C 62.335938 43.363281 62.378906 44.363281 62.472656 44.59375 C 62.773438 45.339844 63.363281 43.382812 63.28125 41.914062 Z M 25.730469 42.921875 C 25.730469 41.804688 25.644531 41.484375 25.347656 41.484375 C 24.773438 41.484375 24.625 42.183594 24.957031 43.332031 C 25.375 44.792969 25.730469 44.601562 25.730469 42.921875 Z M 47.992188 42.835938 C 48.058594 41.882812 48.003906 41.746094 47.554688 41.746094 C 47.003906 41.746094 46.945312 41.988281 47.195312 43.289062 C 47.414062 44.433594 47.898438 44.15625 47.992188 42.835938 Z M 36.007812 41.992188 C 36.007812 40.511719 35.980469 40.4375 35.386719 40.4375 C 34.789062 40.4375 34.769531 40.488281 34.921875 41.679688 C 35.246094 44.273438 36.007812 44.492188 36.007812 41.992188 Z M 33.453125 41.71875 C 33.386719 40.507812 33.304688 40.308594 32.875 40.308594 C 32.441406 40.308594 32.382812 40.457031 32.445312 41.453125 C 32.527344 42.8125 32.9375 43.746094 33.289062 43.378906 C 33.421875 43.238281 33.496094 42.492188 33.453125 41.71875 Z M 28.363281 42.785156 C 28.632812 41.902344 28.261719 40.699219 27.714844 40.699219 C 27.15625 40.699219 27.128906 40.925781 27.527344 42.304688 C 27.847656 43.425781 28.121094 43.582031 28.363281 42.785156 Z M 38.765625 42.007812 C 38.765625 40.785156 38.722656 40.699219 38.140625 40.699219 C 37.414062 40.699219 37.433594 40.632812 37.785156 41.773438 C 37.933594 42.261719 38.101562 42.808594 38.152344 42.988281 C 38.390625 43.796875 38.765625 43.195312 38.765625 42.007812 Z M 41.980469 41.972656 C 41.917969 41.277344 41.773438 41.074219 41.3125 41.003906 C 40.6875 40.914062 40.6875 41.023438 41.316406 42.769531 C 41.632812 43.648438 42.085938 43.105469 41.980469 41.972656 Z M 30.996094 41.746094 C 30.996094 40.507812 30.960938 40.4375 30.335938 40.4375 C 29.71875 40.4375 29.6875 40.5 29.824219 41.375 C 29.972656 42.332031 30.378906 43.050781 30.773438 43.050781 C 30.894531 43.050781 30.996094 42.464844 30.996094 41.746094 Z M 93.613281 41.640625 C 93.511719 40.914062 92.660156 40.738281 92.660156 41.441406 C 92.660156 41.730469 92.730469 42.152344 92.8125 42.382812 C 93.035156 42.988281 93.710938 42.355469 93.613281 41.640625 Z M 90.800781 41.613281 C 91.015625 40.71875 90.769531 40.175781 90.144531 40.175781 C 89.71875 40.175781 89.648438 40.289062 89.78125 40.765625 C 89.867188 41.089844 89.996094 41.558594 90.0625 41.808594 C 90.242188 42.472656 90.621094 42.371094 90.800781 41.613281 Z M 65.039062 40.613281 C 65.121094 39.597656 65.097656 39.566406 64.480469 39.8125 C 64.070312 39.976562 63.96875 40.609375 64.238281 41.34375 C 64.5 42.050781 64.957031 41.632812 65.039062 40.613281 Z M 88.1875 41.109375 C 88.503906 40.375 88.332031 39.710938 87.765625 39.484375 C 87.191406 39.253906 87.109375 39.460938 87.292969 40.664062 C 87.480469 41.890625 87.78125 42.039062 88.1875 41.109375 Z M 67.734375 40.847656 C 67.953125 39.941406 67.640625 39.132812 67.074219 39.132812 C 66.707031 39.132812 66.589844 39.316406 66.589844 39.894531 C 66.589844 41.449219 67.421875 42.144531 67.734375 40.847656 Z M 74.730469 40.710938 C 74.941406 40.289062 75.113281 39.515625 75.113281 38.996094 C 75.113281 38.234375 75.027344 38.066406 74.675781 38.136719 C 74.320312 38.207031 74.21875 38.546875 74.160156 39.851562 C 74.121094 40.75 74.144531 41.484375 74.21875 41.484375 C 74.289062 41.484375 74.519531 41.136719 74.730469 40.710938 Z M 82.882812 40.046875 C 82.882812 38.785156 82.824219 38.609375 82.382812 38.609375 C 81.808594 38.609375 81.753906 39.042969 82.144531 40.503906 C 82.523438 41.925781 82.882812 41.703125 82.882812 40.046875 Z M 70.265625 39.570312 C 70.40625 38.667969 70.375 38.609375 69.757812 38.609375 C 69.171875 38.609375 69.097656 38.710938 69.097656 39.503906 C 69.097656 39.992188 69.167969 40.589844 69.257812 40.828125 C 69.5 41.488281 70.082031 40.761719 70.265625 39.570312 Z M 85.53125 40.589844 C 85.753906 39.675781 85.574219 39.019531 85.074219 38.917969 C 84.609375 38.828125 84.5 39.492188 84.796875 40.632812 C 84.992188 41.40625 85.339844 41.382812 85.53125 40.589844 Z M 77.308594 40.375 C 77.695312 39.875 77.929688 38.417969 77.65625 38.242188 C 77.0625 37.855469 76.617188 38.417969 76.617188 39.550781 C 76.617188 40.707031 76.84375 40.976562 77.308594 40.375 Z M 80.375 39.082031 C 80.375 38.472656 80.269531 38.347656 79.75 38.347656 C 79.207031 38.347656 79.125 38.464844 79.125 39.210938 C 79.125 40.339844 79.617188 40.898438 80.058594 40.265625 C 80.234375 40.019531 80.375 39.484375 80.375 39.082031 Z M 72.605469 39.101562 C 72.605469 38.523438 72.488281 38.347656 72.105469 38.347656 C 71.585938 38.347656 71.425781 39.128906 71.757812 40.03125 C 71.996094 40.679688 72.605469 40.011719 72.605469 39.101562 Z M 72.605469 39.101562 "/>
</g>
</svg>
