<svg xmlns="http://www.w3.org/2000/svg" xml:space="preserve" width="128" height="128" viewBox="0 0 33.867 33.867"><path d="M20.238 30.579a28 28 0 0 0-.464-.145c-.49-.15-.933-.454-1.105-.758l-.13-.228-.41.294c-.55.394-1.022.576-1.727.665-1.696.212-3.518-.62-4.434-2.027-.539-.827-.832-1.73-.896-2.762-.04-.634.013-1.104.282-2.516.331-1.734.383-2.226.383-3.621 0-1.255-.043-1.768-.231-2.786l-.075-.4-.15.147c-.19.186-.378.1-.494-.227l-.08-.226-.116.263c-.232.525-.35.51-.496-.064-.084-.327-.088-.332-.156-.158-.085.22-.27.422-.345.374-.03-.02-.074-.184-.098-.367-.064-.485-.136-.565-.233-.26-.063.2-.11.25-.22.233-.104-.016-.154-.092-.194-.294-.07-.351-.09-.366-.238-.175-.16.205-.254.138-.313-.222l-.047-.29-.186.238-.186.238-.071-.195a1.2 1.2 0 0 1-.071-.29c0-.219-.14-.159-.24.104-.13.34-.294.348-.388.018-.05-.177-.09-.216-.188-.184-.08.027-.185-.017-.292-.12l-.167-.163-.1.156c-.1.155-.35.217-.35.086 0-.162-.273-.346-.514-.346-.681 0-1.723-.322-2.239-.692-.613-.44-.895-1.015-.894-1.823.002-.898.348-1.812 1.061-2.799.55-.76 1.15-1.322 2.256-2.114a65 65 0 0 0 1.425-1.045c2.643-2.04 5.662-3.06 8.281-2.799 1.597.16 2.338.387 3.917 1.198 1.639.842 2.276 1.07 4.183 1.499 1.865.42 3.073 1.04 4.169 2.138 1.156 1.16 1.69 2.293 1.62 3.438-.06.97-.59 1.514-1.944 1.994-.903.32-2.521.589-3.554.59-1.89.002-3.767.916-4.87 2.372-.502.66-.756 1.14-.992 1.873-.36 1.118-.45 2.344-.264 3.609.132.9.143.945.756 2.968.297.98.435 1.618.505 2.323l.044.456.282-.318c.666-.752 1.65-1.992 1.934-2.438.418-.656.618-1.283.662-2.078.02-.353.01-.735-.021-.85q-.111-.41-1.168-.584c-1.575-.258-2.053-.508-2.342-1.228-.228-.566-.054-1.507.425-2.301.448-.745 1.621-1.74 2.805-2.382 1.315-.712 2.431-.96 3.64-.806 1.114.14 1.717.398 3.088 1.317.438.294 1.005.671 1.26.84.644.422 1.367 1.189 1.626 1.722.647 1.337.393 2.48-.676 3.049-.607.323-2.38.602-3.282.517-.421-.04-.48-.03-.511.079-.02.068-.215.888-.435 1.824-.22.935-.49 1.97-.603 2.302-.966 2.854-2.505 4.207-4.761 4.186-.317-.003-.606-.016-.643-.03m1.957-.717c1.083-.36 1.966-1.269 2.588-2.663.33-.74.414-1.01.796-2.567.177-.723.369-1.5.427-1.729.158-.62.503-1.696.632-1.97.063-.133.135-.38.16-.547.039-.268.032-.294-.058-.216-.056.049-.102.112-.102.14 0 .03-.144.376-.322.77-.177.394-.34.772-.362.838-.023.067-.076.121-.118.121-.116 0-.037-.455.157-.899.091-.209.185-.447.21-.53.047-.164-.015-.507-.092-.507-.056 0-.4.886-.403 1.039a.8.8 0 0 1-.095.275c-.084.156-.097.16-.14.046-.025-.069-.013-.244.029-.388.087-.304.102-1.11.02-1.11-.06 0-.21.303-.21.421 0 .038-.06.198-.133.356a1.7 1.7 0 0 0-.132.613c0 .369-.049.546-.15.546-.09 0-.021-.803.08-.93.087-.108-.04-1.062-.128-.96-.095.11-.2.529-.2.794 0 .575-.194.196-.296-.58-.024-.18-.07-.344-.103-.365s-.108.134-.167.344-.131.383-.16.383c-.03 0-.088-.138-.129-.307-.132-.547-.263-.483-.315.153-.074.901-.167.939-.29.116-.122-.816-.27-.897-.33-.181-.019.215-.064.392-.1.392s-.113-.154-.17-.341c-.152-.499-.262-.489-.262.024 0 .231-.027.42-.06.42-.034 0-.145-.186-.249-.414-.103-.228-.21-.415-.238-.415-.115 0-.034.377.175.812.35.727.403.957.405 1.746 0 .827-.108 1.35-.444 2.138-.128.3-.69 1.209-.863 1.397-.47.511-1.377 1.62-1.574 1.926-.568.878-.515 1.425.169 1.763.544.27 1.805.292 2.547.046m-.428-.281c.035-.036.227-.131.428-.213.65-.265 1.22-.822 1.952-1.91.204-.302.199-.065-.007.336-.26.504-1.16 1.436-1.61 1.666-.342.175-.903.263-.763.12m-.75-.298c.038-.118.443-.358.501-.297.056.06-.315.382-.44.382-.048 0-.076-.038-.06-.085m-.862-.208c.03-.1.375-.29.425-.237.019.019-.028.1-.104.179-.151.157-.364.196-.321.058m2.456-.555c.358-.424.512-.544.512-.399 0 .12-.585.744-.736.785-.095.026-.03-.087.224-.386m-3.003.119c0-.194.616-.933.703-.843.048.05-.561.88-.646.88-.031 0-.057-.016-.057-.037m2.255-.09c0-.081.325-.386.366-.343.068.07-.043.246-.204.322-.089.042-.162.052-.162.021m1.526-.826c0-.158.627-1.157.65-1.035.012.066-.058.274-.157.463-.185.354-.493.712-.493.572m-.52-.295c.165-.307.302-.453.363-.389.066.069-.306.67-.414.67-.082 0-.073-.052.05-.28m1.514-.365c0-.012.058-.207.127-.432.322-1.036.44-1.563.61-2.725.04-.285.116-.612.167-.726.086-.192.09-.167.06.346a8 8 0 0 1-.134 1.037c-.056.266-.13.624-.164.795-.126.641-.508 1.729-.606 1.729-.033 0-.06-.01-.06-.024m-3.317-.25c.156-.23.257-.312.311-.256.06.062-.245.46-.352.46-.08 0-.07-.041.04-.205m2.457-.363c-.002-.154.137-.47.208-.47.103 0 .057.26-.075.425-.106.133-.13.141-.133.045m.661-.287c0-.235.35-1.564.443-1.684.086-.11.091-.087.053.217-.04.32-.38 1.464-.46 1.547-.02.02-.036-.016-.036-.08m.433-2.758c.025-.162.1-.419.166-.57.108-.25.12-.26.125-.098a1.4 1.4 0 0 1-.055.38c-.033.111-.079.287-.1.391-.068.32-.188.228-.136-.103m.961-.657c.002-.16.105-.326.154-.244.05.086-.022.365-.096.365-.032 0-.058-.055-.058-.121m-2.321-.446c.001-.319.084-.537.158-.413.055.093-.025.625-.101.674-.032.02-.058-.097-.057-.26m1.977.18c-.041-.17.062-.581.146-.581.096 0 .078.438-.025.585-.086.123-.09.122-.12-.005m-.917-.458q0-.539.148-.538c.09 0 .027.674-.072.778-.057.06-.076 0-.076-.24m-1.682-.31c-.065-.067-.05-.63.017-.673.08-.051.14.127.14.412 0 .228-.073.349-.157.262m1.18-.252c-.06-.164-.002-.55.088-.582.058-.02.083.066.083.285 0 .313-.101.488-.171.297m-6.935 8.29a2 2 0 0 0 1.343-1.143c.126-.278.137-.395.106-1.175-.037-.964-.119-1.342-.637-2.962-.721-2.254-.838-3.654-.463-5.544.403-2.028 1.854-3.87 3.727-4.734.917-.423 1.535-.554 3.262-.694.73-.059 1.416-.124 1.525-.145 1.232-.23 2.021-.58 2.022-.896.001-.229-.389-.547-.994-.81-.535-.234-1.4-.535-1.536-.535-.263 0 .61.496 1.337.76.555.202.796.331.796.426 0 .176-1.078-.19-2.053-.698-.375-.196-.534-.206-.534-.034 0 .142.243.284 1.055.618.4.165.782.333.848.373.103.061.09.073-.09.074-.234.003-1.215-.34-1.688-.59-.318-.168-.39-.16-.39.044 0 .087.141.172.514.31.89.33.985.378.888.44-.049.032-.21.029-.358-.006-.527-.123-1.609-.548-1.695-.665-.081-.111-.092-.11-.18.014-.139.195-.036.281.587.495.656.225.671.234.585.324-.047.05-.168.045-.387-.014-.827-.223-1.073-.344-1.249-.614-.137-.21-.165-.227-.205-.119-.072.195.047.329.524.59.242.134.463.27.492.304.118.137-.553-.03-.958-.237-.362-.186-.449-.265-.533-.49-.13-.344-.214-.34-.214.01 0 .252.03.297.332.524.182.137.332.277.332.311 0 .187-.553-.053-.775-.335-.043-.055-.11-.08-.15-.054-.11.07-.082.3.045.374.171.1.056.17-.197.12a.48.48 0 0 1-.339-.25c-.145-.257-.215-.261-.273-.018-.036.146-.013.216.097.309.147.124.13.263-.035.263-.05 0-.153-.068-.226-.15l-.134-.15-.102.253c-.069.172-.144.254-.233.254-.137 0-.176-.131-.073-.245.033-.037.08-.175.104-.308l.045-.242-.204.311c-.113.171-.236.43-.274.574-.07.265-.22.395-.328.282-.033-.035-.012-.231.049-.458.058-.22.089-.417.067-.44-.068-.07-.181.044-.181.184 0 .113-.269.798-.46 1.172-.07.14-.273.174-.346.058-.077-.122-.133-.045-.554.763-.45.867-.544.845-.3-.071.124-.467.122-.696-.004-.564-.145.15-.478 1.259-.491 1.634-.011.306-.048.438-.157.551-.14.146-.142.146-.142.01 0-.077.059-.26.131-.409s.097-.233.053-.187c-.213.222-.227-.032-.047-.852.104-.476.108-.603.016-.637-.094-.034-.34.504-.551 1.208-.173.574-.298.664-.24.173.093-.776.121-1.539.057-1.539-.123 0-.347.765-.348 1.189 0 .14-.027.272-.06.293-.163.106-.186-.68-.032-1.102.168-.46.175-.507.126-.777l-.048-.26-.109.169c-.06.092-.153.355-.208.583-.141.585-.233.564-.305-.07-.033-.293-.091-.544-.13-.557-.097-.033-.229.384-.229.723 0 .157-.027.302-.06.324-.067.043-.204-.318-.207-.542a.65.65 0 0 0-.12-.308l-.12-.162-.103.335c-.056.184-.14.335-.188.335s-.128-.132-.18-.294-.12-.294-.153-.294c-.032 0-.105.164-.161.363-.154.547-.2.595-.326.342a1.1 1.1 0 0 1-.108-.373.9.9 0 0 0-.095-.332c-.11-.205-.128-.169-.25.479-.104.55-.224.619-.287.165a2 2 0 0 0-.132-.505l-.085-.173-.044.207a5 5 0 0 1-.071.296c-.015.049.017.282.07.519.123.541.125.74.008.74q-.091-.001-.174-.454c-.11-.607-.205-.489-.249.31-.018.344-.059.61-.09.59-.03-.02-.133-.3-.226-.62-.094-.32-.199-.6-.233-.622-.116-.075-.227.296-.141.469.173.35.414 1.65.473 2.557.058.875.01 2.367-.097 3.077a39 39 0 0 1-.276 1.677c-.326 1.715-.361 2.444-.157 3.277.39 1.593 1.35 2.718 2.708 3.18.28.096.585.187.676.203.401.07 1.452.039 1.781-.053m-1.076-.389c-.096-.078-.175-.188-.175-.243 0-.088.024-.088.182-.003.1.055.24.164.31.244.123.143.123.146-.009.146-.073 0-.212-.065-.308-.144m-.995-.185c-.332-.267-.569-.598-.488-.682.025-.026.19.09.368.257.177.167.423.388.548.49.222.183.223.187.06.19-.093.002-.305-.109-.488-.255m1.466-.225a1.4 1.4 0 0 1-.113-.432c.002-.148.01-.146.16.045.166.212.26.664.138.664-.039 0-.122-.125-.185-.277m-2.404.105c-.272-.125-.74-.616-.901-.947-.206-.42-.115-.464.153-.075.246.358.51.597.91.828.42.241.287.4-.162.194m2.962-.073a1.4 1.4 0 0 1-.075-.467l.001-.29.13.172c.082.109.13.282.131.467.002.332-.073.379-.187.118m-1.664-.13c-.088-.098-.144-.194-.125-.214.06-.062.34.213.311.304-.018.056-.083.024-.186-.09m2.2-.018c-.066-.168-.063-.964.005-1.034.101-.106.176.15.177.61s-.087.665-.182.424m-1.793-.174a.36.36 0 0 1-.078-.225c.003-.135.008-.135.133.022.192.24.146.412-.055.203m-1.932-.307c-.144-.19-.175-.301-.083-.301.081 0 .344.307.344.402 0 .136-.116.092-.26-.1m4.212-.68c-.076-.987-.2-1.487-.826-3.355-.288-.86-.41-1.68-.453-3.045-.042-1.344.01-2.201.146-2.394.076-.108.084.078.051 1.208-.054 1.899.095 2.954.65 4.611.544 1.618.764 2.833.617 3.405-.077.299-.14.152-.185-.43m-3.519.175q-.175-.352-.035-.35c.052 0 .266.424.266.528 0 .103-.148-.011-.23-.178m.711.066c-.098-.163-.108-.346-.018-.346.078 0 .201.228.201.375 0 .15-.084.136-.183-.029m1.38.004c-.087-.168-.094-.68-.009-.589.07.075.173.723.115.723-.021 0-.07-.06-.107-.134m.526-.044c-.081-.222-.085-.79-.006-.79.066 0 .109.155.176.64.05.364-.057.46-.17.15m-1.212-.22c-.019-.104-.017-.219.004-.254.043-.073.136.137.144.323.007.194-.11.14-.148-.069m-2.153-.155a.6.6 0 0 1-.08-.259c0-.1.024-.09.13.051.133.177.173.346.083.346-.028 0-.088-.062-.133-.138m3.809-.052c-.06-.106-.376-1.496-.376-1.657 0-.526.356.516.436 1.276q.06.59-.06.38m-4.483-.284c-.089-.173-.094-.425-.008-.425.07 0 .172.468.116.528-.02.02-.069-.026-.108-.103m3.65-.698c-.09-.436-.098-1.026-.013-.934.107.117.24 1.13.158 1.214-.052.054-.093-.023-.146-.28m-.574-.034c-.056-.391-.004-.553.094-.294.09.237.098.6.012.6-.034 0-.082-.137-.106-.306m-3.803-.07c-.165-.684-.057-2.445.185-3.011.063-.147.07-.116.047.207-.016.21-.064.645-.107.968-.074.55-.055 1.424.04 1.926.066.34-.08.26-.165-.09m.567-.296c-.094-.363-.111-.534-.072-.749.071-.397.149-.267.172.288.02.496-.03.73-.1.46m4.023-.831c-.149-.366-.353-1.129-.353-1.314 0-.332.136-.129.3.45.095.332.2.695.235.805.08.257.078.318-.008.318-.038 0-.117-.116-.174-.259m-.67-.177a1.6 1.6 0 0 1-.076-.519l.006-.324.097.233c.054.128.088.362.076.519l-.022.285zm-.372-1.402c-.062-.166-.049-.65.017-.65.055 0 .139.382.14.639.001.15-.103.158-.157.011m.464-.564c-.124-.65-.185-1.413-.148-1.832.078-.868.152-.727.196.373a22 22 0 0 0 .085 1.355c.048.329-.072.423-.133.104m-3.688-.828c0-.267.062-.445.137-.397.066.043.007.449-.08.547-.033.038-.057-.024-.057-.15m3.581-2.574c0-.188.03-.36.066-.384.042-.027.067.103.067.342 0 .21-.03.384-.067.384-.036 0-.066-.154-.066-.342m-3.205-.12c-.07-.072-.052-.7.022-.748.041-.027.066.114.066.376 0 .423-.008.457-.088.373m3.537-.79c0-.134.047-.303.104-.377.097-.126.102-.115.071.168-.042.391-.175.55-.175.209m-.524-.488c-.007-.427.04-.632.133-.572.082.053.065.359-.038.687l-.088.277zm.949-.376c.037-.48.265-1.203.38-1.203.074 0 .073.27-.003.525-.032.11-.108.372-.167.581-.177.624-.254.659-.21.097m-1.98-.022c-.064-.106.025-.5.101-.452.077.05.078.312.002.436-.04.067-.07.072-.103.016m-2.048-.102c-.066-.18-.055-.58.018-.627.091-.06.164.43.09.602-.057.134-.067.136-.108.025m2.654-.273c-.018-.05-.01-.198.02-.328.052-.23.053-.228.06.092.007.333-.018.405-.08.236m.887-.218c0-.19.043-.424.095-.519.09-.165.095-.157.097.212.001.234-.036.436-.095.518-.09.124-.097.107-.097-.211m-2.347-.201c-.05-.133.023-.394.095-.348.077.05.077.445 0 .445-.033 0-.076-.044-.095-.097m1.95-.266c.002-.124.028-.287.058-.363.05-.127.059-.129.103-.017.059.152-.018.605-.103.605-.035 0-.061-.101-.059-.225m-1.35.044c-.059-.06-.063-.458-.008-.608.063-.172.16-.055.154.188-.006.269-.082.487-.147.42m.588-.293c-.056-.094.023-.425.1-.425.076 0 .076.281 0 .405q-.056.093-.1.02m-1.65-.24c-.065-.175-.058-.614.013-.73.095-.158.141.117.085.51-.035.246-.063.31-.098.22m.616-.492c0-.17.03-.327.066-.35.041-.026.066.091.066.307 0 .192-.03.35-.066.35s-.066-.138-.066-.307m1.503.26c-.069-.071-.052-.493.022-.54.04-.027.067.079.067.272 0 .32-.01.35-.089.269m-.774-.567c0-.152.03-.296.067-.32.04-.025.066.067.066.234 0 .152-.03.296-.066.32-.04.025-.067-.068-.067-.234m14.719 5.867c.839-.21 1.19-.486 1.335-1.05.093-.358-.018-.93-.283-1.45-.265-.524-.937-1.183-1.71-1.68-.347-.221-.897-.59-1.223-.818-.717-.501-1.399-.838-2.006-.991-.659-.166-1.829-.148-2.508.038-1.081.296-2.576 1.247-3.57 2.271-1.008 1.04-1.227 2.287-.483 2.756.26.165.41.213 1.068.342.292.057.72.152.952.21.231.06.437.09.456.07s-.01-.111-.067-.202c-.08-.126-.147-.157-.3-.133-.256.039-.335-.098-.116-.202.093-.044.17-.107.17-.14 0-.122-.193-.133-.396-.023a1 1 0 0 1-.487.091l-.278-.02.249-.13c.136-.07.248-.15.248-.178 0-.126-.103-.118-.44.038-.452.208-.59.148-.283-.124l.226-.2-.232.098c-.128.054-.312.137-.41.185-.209.101-.386.051-.386-.11 0-.411 1.366-1.01 2.918-1.277.283-.048 1.056-.084 1.79-.082 1.3.004 2.085.092 2.952.332l1.26.34c1.041.278 1.024.272 1.545.533.584.294.891.74.651.948-.072.062-.136.041-.294-.098-.213-.187-1.135-.657-1.284-.654-.09.001.203.27.299.273.112.003.643.427.609.486-.039.064-.271-.024-.95-.359-.399-.196-.538-.217-.45-.067.022.037.234.185.471.33.237.144.431.29.431.323 0 .092-.358-.01-.84-.238-.462-.218-.609-.224-.32-.013.096.07.255.196.353.28.16.139.164.154.045.156-.153.001-.76-.346-.89-.51-.049-.06-.13-.11-.18-.11-.164 0-.096.264.108.415.348.258.233.366-.175.164-.259-.128-.262-.127-.323.125-.04.163-.023.189.144.22.421.076 2.051-.027 2.604-.165m.702-1.77a2 2 0 0 1-.1-.28c0-.091-.515-.846-.776-1.136-.33-.369-.346-.511-.03-.277.527.391 1.137 1.33 1.137 1.75 0 .27-.111.242-.23-.057m-.7-.412c-.035-.098-.046-.21-.024-.246.051-.087.221.144.224.304.003.182-.125.145-.2-.058m-.755-.865c-.315-.495-.357-.68-.097-.437.137.13.521.772.523.876.001.151-.146 0-.426-.44m-9.39.31c0-.096.488-.726.662-.856.375-.277.333-.128-.104.38-.403.467-.557.599-.557.476m8.846-.215a3.6 3.6 0 0 0-.347-.45c-.128-.142-.213-.279-.189-.304.075-.078.471.288.629.582.172.32.087.475-.093.172m-1.044-.406c-.323-.378-.368-.52-.123-.382.29.162.69.78.496.765-.028-.002-.196-.175-.373-.383m-.771-.132c-.233-.259-.095-.304.15-.048.145.151.18.22.109.22-.057 0-.173-.077-.259-.172m1.554-.628c-.445-.279-.609-.42-.704-.605-.078-.152-.093-.16.623.35.746.533.802.708.081.255m-6.197.123c0-.09.26-.32.306-.271.021.022.02.074-.004.114-.063.105-.302.23-.302.157m-.721-.135c.167-.221.342-.363.45-.36q.105 0-.142.241c-.263.255-.47.335-.308.12m4.545-.005c-.06-.07-.11-.163-.11-.208 0-.11.217.03.323.206.104.175-.061.177-.213.002m.523-.184c-.108-.092-.175-.19-.15-.217.066-.067.376.114.453.265.093.181-.063.156-.303-.048m.758-.032c-.127-.113-.2-.206-.163-.208.074-.003.563.328.563.38 0 .093-.198.008-.4-.172m-4.84-.406c0-.09.298-.358.399-.358.055 0 .015.082-.1.208-.189.205-.299.26-.299.15m3.175-.144c-.16-.136-.15-.247.017-.18.114.046.283.312.199.312-.033 0-.13-.06-.216-.132m-2.379-.002c0-.093.244-.35.332-.35.102 0 .079.106-.05.22-.182.164-.282.21-.282.13m2.854-.156c-.107-.104-.13-.161-.072-.181.046-.016.163.052.258.151.22.229.047.256-.186.03m.682-.02c-.143-.13-.16-.17-.074-.172.062-.001.196.075.298.168.144.132.16.172.074.173-.062.002-.196-.074-.298-.168m1.479 3.865q.044-.179-.063-.29c-.144-.15-.18-.092-.133.213.047.298.135.332.196.077m-.68-.046c.082-.316.05-.467-.098-.467-.113 0-.132.03-.1.156.022.085.04.225.04.31.001.086.028.156.06.156s.077-.07.099-.155m-.62-.41c0-.149-.032-.195-.133-.195-.11 0-.133.046-.133.265 0 .146.022.287.048.315.076.079.217-.172.217-.386m-5.054.024c.016-.22-.003-.288-.079-.288-.148 0-.192.119-.143.389.059.326.196.263.222-.1m4.428-.064c.042-.268.033-.293-.096-.293-.137 0-.177.115-.145.414.04.39.173.324.241-.12m-5.078.117c0-.073-.045-.134-.1-.134-.098 0-.139.212-.057.298.07.072.157-.02.157-.164m1.26-.1c0-.264-.02-.31-.133-.31-.106 0-.132.046-.132.228 0 .216.095.394.212.394.029 0 .053-.14.053-.311m2.514.094c.125-.374.096-.543-.093-.543-.143 0-.166.031-.165.225 0 .28.064.536.133.536.028 0 .085-.098.125-.218m.671-.066c.091-.352.045-.493-.15-.464-.115.017-.155.074-.17.243-.022.23.079.505.185.505.034 0 .095-.128.135-.284m-2.563-.178c.007-.22-.014-.264-.125-.264-.11 0-.13.04-.115.242.01.133.033.286.052.34.06.17.18-.031.188-.318m.65-.059c.017-.168-.006-.21-.128-.227q-.256-.039-.078.45c.057.156.082.174.128.088.03-.058.066-.198.078-.311m.62.02c.044-.248.038-.26-.135-.26-.172 0-.178.012-.134.26.083.46.188.461.27 0M11.25 15.678c0-.42-.098-.583-.194-.322-.038.106-.07.25-.07.322 0 .07.032.216.07.321.096.262.194.099.194-.321m-.8-.277c-.002-.285-.027-.58-.055-.655-.049-.132-.054-.13-.135.026-.08.155-.055.863.041 1.209.073.26.153-.052.15-.58m-.587.122c.058-.222.057-.383-.002-.657-.088-.412-.17-.463-.236-.15-.056.266.047 1.1.136 1.1.015 0 .06-.132.102-.293m-.668-.446c0-.197-.033-.446-.075-.553l-.076-.195-.056.242c-.052.226-.029.623.054.926.061.225.152-.023.153-.42m3.183-.164c0-.281-.034-.504-.092-.586-.086-.123-.098-.112-.17.168-.081.313-.039.805.082.961.116.15.179-.04.18-.543m-.762-.086c0-.538-.069-.905-.16-.847-.103.067-.127.481-.057.994.089.65.217.563.217-.147m-.736.396c.07-.191.037-.817-.054-1.032l-.089-.207-.064.173c-.062.163-.055.443.02.95.036.241.121.294.187.116m-2.265-.59c.013-.695-.134-1.147-.24-.736-.06.236-.05.56.032.954.095.466.197.36.208-.218m8.665.336c.136-.439.154-.77.05-.916-.054-.076-.115-.12-.136-.1-.076.08-.127 1.24-.055 1.24.04 0 .103-.1.14-.224m-9.836-.235c.054-.295-.042-.896-.139-.872-.075.019-.126.727-.068.966.057.236.156.191.207-.094m10.637-.153c.037-.138.067-.36.067-.494 0-.252-.09-.472-.15-.37-.053.09-.18.853-.18 1.083 0 .172.015.19.098.118.054-.047.128-.198.165-.337m-10.014-.165c0-.545-.08-.79-.197-.605-.086.137-.084.423.007.799.11.456.191.373.19-.194m5.995.138c.09-.35.02-1.227-.097-1.227-.03 0-.09.123-.134.274-.061.214-.06.364.007.691.09.44.157.52.224.262m4.814-.605c.001-.371-.1-.48-.183-.198-.087.297-.142.871-.088.927.069.072.27-.47.271-.729m-11.885-.136c.023-.408.007-.652-.05-.762-.114-.223-.171-.09-.228.531-.053.582.057 1.18.177.959.037-.07.083-.399.101-.728m3.23.179a1.2 1.2 0 0 0-.102-.324c-.053-.086-.07-.085-.126.005-.087.137-.084.387.009.726l.075.276.092-.23a.9.9 0 0 0 .052-.453m-.694.095c0-.447-.118-.826-.21-.676-.077.128-.067.87.015 1.029.115.224.195.079.195-.353m-3.19.198c.086-.256.098-1.003.018-1.055-.074-.047-.21.58-.21.966 0 .358.089.399.192.089m6.391-.38c.006-.539-.06-.837-.163-.73-.08.082-.094.78-.023 1.11.078.364.18.157.186-.38m.613.46c.023-.077.045-.302.048-.502.01-.6-.152-.911-.239-.458-.118.618.045 1.439.19.96m1.49-.48c-.002-.212-.044-.463-.094-.558l-.092-.173-.054.208c-.07.27-.071.86-.002 1.037.054.136.056.136.15.004.056-.08.093-.29.092-.519m.625.439c.06-.166.046-.95-.02-1.058-.118-.194-.205.008-.205.474 0 .485.04.693.133.693.028 0 .07-.049.092-.11m.793-.482c-.005-.37-.12-.685-.225-.617-.086.055-.08.807.008 1.048.067.186.074.189.146.056.041-.076.073-.295.07-.487m3.108.276c.061-.225.011-.653-.075-.653-.067 0-.138.346-.138.671 0 .29.133.279.213-.018m-7.342-.101c.05-.316-.016-.947-.106-1.005-.11-.071-.206.343-.173.742.05.606.2.747.279.263m4.874-.202c0-.393-.153-.85-.222-.663-.068.184-.05.792.026.942.109.211.196.087.196-.28m-7.975-.502c-.038-.557-.14-.734-.25-.435-.07.192-.056.345.08.895.057.237.075.257.135.147.038-.072.054-.337.035-.607m2.271.16c0-.37-.028-.569-.089-.621-.133-.115-.176-.024-.176.372 0 .382.107.794.205.794.033 0 .06-.245.06-.544m-5.305.42c0-.032-.07-.125-.153-.208-.118-.115-.172-.13-.231-.068-.12.125-.178.008-.091-.19.107-.244.096-.689-.019-.788-.08-.07-.102-.039-.136.181-.08.52-.106.582-.268.659-.202.096-.285.025-.178-.154.098-.164.107-.551.013-.551-.038 0-.095.074-.129.166-.067.184-.325.4-.41.346-.03-.02.004-.157.077-.306.132-.271.18-.69.077-.69-.107 0-.356.336-.441.596-.113.341-.213.369-.326.09-.157-.389.072-.893.58-1.275.601-.455 1.763-1.11 2.309-1.302.876-.309 2.464-.4 3.869-.223 2.722.344 2.652.34 3.785.22 1.2-.125 1.218-.129 2.866-.52 3.063-.727 5.922-.442 8.983.896 1.674.731 2.024.958 2.183 1.415.046.133.1.24.12.24s.107-.108.193-.24c.572-.876-.144-2.647-1.567-3.878A7.7 7.7 0 0 0 25.055 7.1c-.527-.237-.966-.362-3.159-.902-.777-.192-1.501-.484-2.7-1.09-2.14-1.081-3.071-1.31-5.04-1.234-1.136.044-1.843.18-2.957.572-1.273.448-2.329 1.055-3.794 2.183-.42.322-1.135.849-1.59 1.17-1.382.973-2.267 2.03-2.715 3.24-.653 1.765.233 2.836 2.398 2.9.21.005.382-.016.382-.047m22.22-3.027c-.11-.251-.33-.648-.492-.882-.285-.415-1.173-1.356-1.496-1.586-.207-.148-.128-.237.11-.124.545.259 1.534 1.377 1.87 2.114.167.37.31.934.234.934-.015 0-.117-.206-.227-.456m-24.409.162c0-.223.543-.95.709-.95.134 0 .113.042-.28.556-.38.496-.43.54-.429.394m23.512-.588a11 11 0 0 0-.48-.692c-.338-.438-.226-.53.146-.12.317.349.58.769.662 1.054.08.277-.072.166-.328-.242m-22.517.193c0-.103.278-.349.345-.305.086.055-.163.367-.296.37-.027 0-.05-.029-.05-.065m21.141-.89c-.441-.453-.52-.563-.403-.564.167-.001.92.693.985.908.086.283-.047.204-.582-.344m-.89-.035c-.2-.112-.62-.52-.62-.6 0-.116.089-.076.398.18.407.337.548.605.221.42m-11.482-.335c.037-.113.235-.234.29-.177.063.066-.1.259-.219.259-.053 0-.085-.037-.07-.082m-.678-.055c0-.096.326-.307.383-.247.027.028-.022.11-.108.182-.172.145-.275.17-.275.065m-.663-.057c0-.098.155-.221.278-.221.173 0 .147.103-.05.196-.2.095-.228.098-.228.025m11.291-.029c-.18-.09-.195-.192-.03-.192.123 0 .279.123.279.221 0 .072-.064.064-.249-.029m2.173-.473c-.613-.503-.721-.69-.252-.438.23.125.848.705.848.798 0 .109-.095.051-.596-.36m-15.387.288c0-.076.172-.15.223-.096.021.021.022.066.003.099-.047.078-.226.076-.226-.003m1.326-.007c0-.098.384-.287.428-.212.043.072 0 .108-.253.208-.108.043-.175.044-.175.004m-.605-.161a.37.37 0 0 1 .262-.116c.214 0 .12.11-.154.18-.18.046-.19.04-.108-.064m3.656-.081c.156-.173.331-.23.331-.108 0 .087-.27.28-.39.28-.069 0-.052-.05.059-.172m9.965-.15c-.414-.31-.523-.454-.294-.392.16.044.757.518.792.628.044.142-.061.092-.498-.235m-.976.009a4 4 0 0 0-.398-.264c-.038-.014-.048-.05-.022-.078.067-.075.657.26.77.438.132.207.033.18-.35-.096m-9.586.042c0-.08.265-.35.344-.35.066 0 .068.078.003.18-.075.116-.347.25-.347.17m8.473-.044c-.162-.092-.25-.237-.143-.237.096 0 .49.229.49.284 0 .09-.14.07-.347-.047m-9.203-.06c0-.105.192-.247.336-.247.1 0-.04.186-.214.283-.093.052-.122.043-.122-.036m-7.627-.033c0-.158.956-.839 1.169-.832.12.004.12.007.003.087a14 14 0 0 0-.465.347c-.42.325-.707.487-.707.398m6.898-.002c0-.09.272-.281.396-.278.066.001.031.062-.098.172-.211.181-.298.212-.298.106m-5.205-.62a.8.8 0 0 1 .297-.176l.166-.046-.186.177c-.227.216-.49.259-.277.046m13.744.052c-.198-.076-.246-.197-.079-.197.141 0 .36.128.36.21 0 .08-.041.078-.281-.013m1.107-.086a.8.8 0 0 0-.291-.121c-.18-.027-.271-.197-.106-.197.13 0 .607.247.665.345.061.103-.114.085-.268-.027m1.894-.167c-.349-.206-.402-.26-.28-.277.159-.024.75.316.795.457.04.127-.045.097-.515-.18m1.115.089c-.337-.183-.455-.31-.289-.31.127 0 .633.34.633.425 0 .076.02.083-.344-.115m-2.14-.134c-.27-.13-.428-.24-.383-.27.14-.09.987.364.87.467-.014.012-.233-.076-.486-.197m-15.49-.377c0-.112.643-.559.805-.559.121 0 .056.07-.289.311-.468.327-.515.35-.515.248m1.06-.147c.218-.195.4-.265.399-.153-.001.072-.443.364-.546.36-.046 0 .02-.094.146-.207m1.196-.654c.147-.164.398-.237.398-.116 0 .052-.419.289-.512.289-.023 0 .028-.078.114-.173m-.863-.105c0-.081.392-.344.514-.344.158 0 .082.113-.174.264-.29.17-.34.181-.34.08m10.14-.161c-.445-.191-.786-.405-.952-.596s-.015-.184.245.009c.11.082.425.25.698.374s.528.26.568.3c.124.13-.156.085-.558-.087m-1.186-.056c-.128-.082-.197-.161-.154-.177.088-.031.455.15.518.257.07.118-.12.076-.364-.08m2.275-.022c-.863-.347-2.341-1.165-2.341-1.296 0-.13.295-.03.807.277.831.498 2 1.052 2.218 1.052a.16.16 0 0 1 .125.07c.074.124-.387.066-.809-.103m-4.185-.188c-.207-.216 0-.261.252-.056l.166.136-.17.001c-.093.001-.204-.036-.248-.081m.7-.208c-.32-.144-.41-.263-.2-.262.148 0 .548.252.548.344 0 .039-.008.068-.017.065zm.43-.35c-.352-.225-.43-.327-.247-.327.15 0 .629.35.629.458 0 .12.028.129-.381-.132M14.5 5.407c-.046-.058-.067-.122-.047-.143.038-.04.446.158.446.216 0 .08-.324.022-.399-.073m.681-.17c-.19-.121-.289-.278-.175-.278.084 0 .557.305.557.359 0 .095-.156.062-.382-.081m.663-.151c-.118-.077-.215-.168-.215-.202 0-.127.203-.057.413.143.25.236.132.271-.198.059m-2.44-.2c-.024-.04-.027-.091-.007-.112.057-.06.375.04.375.118 0 .091-.313.086-.368-.006m3.767-.011c-.082-.041-.15-.101-.15-.134 0-.111.246-.058.365.08.137.158.04.182-.215.054m-2.736-.17c-.358-.058-.464-.097-.464-.17 0-.108.536-.013.66.116.054.056.07.097.034.092zm1.682-.022c-.163-.068-.268-.208-.157-.208.088 0 .465.198.465.244 0 .05-.147.032-.308-.036m-.996-.117c-.14-.029-.278-.229-.158-.229.13 0 .4.139.4.206 0 .039-.022.066-.05.061zm2.621 8.985c.069-.367.01-.917-.097-.917-.077 0-.225.502-.225.763 0 .288.092.551.192.551.03 0 .09-.179.13-.397m-7.186.12c.052-.248-.007-.659-.128-.89l-.087-.166-.043.238c-.023.132-.012.405.024.608s.067.38.067.393.028.025.062.025c.033 0 .08-.094.105-.209m-2.86.03c.067-.182.046-.79-.033-.942-.107-.208-.19-.036-.19.394 0 .55.117.837.223.548m10.817-.464c0-.236-.025-.492-.056-.568l-.057-.138-.054.138c-.067.17-.082 1.03-.019 1.096.103.107.185-.124.186-.528M8.3 13.133c0-.436-.063-.667-.165-.602-.073.047-.092.853-.025 1.037.081.22.19-.03.19-.435m-2.182-.06c.058-.322-.092-.821-.21-.698-.074.078-.114.65-.064.93.044.245.054.253.14.13.051-.073.111-.235.134-.362m3.74.06c0-.308-.117-.774-.193-.774-.15 0-.12.782.04 1.055.068.117.154-.04.154-.281m3.872.107c.104-.404-.007-1.15-.157-1.054-.127.082-.065 1.21.066 1.21.028 0 .07-.07.091-.156m.704-.419c0-.481-.073-.753-.173-.65-.122.128-.015 1.27.111 1.188.035-.022.063-.264.062-.538m5.306 0c-.001-.54-.081-.784-.197-.6-.087.138-.085.872.002 1.043.122.238.196.07.195-.443m-6.715-.31c-.029-.494-.117-.732-.212-.572-.076.13-.047 1.01.04 1.21l.083.19.06-.162c.032-.089.045-.389.029-.666m2.762.105c-.004-.498-.108-.85-.228-.774-.085.055-.079.833.01 1.165.109.412.223.207.218-.391m4.691.365a.85.85 0 0 0 0-.555c-.044-.153-.105-.262-.136-.243-.146.095-.145 1.075.002 1.075.03 0 .09-.125.134-.277m-3.987-.197c0-.438-.109-.863-.205-.801-.083.053-.076.907.008 1.072.124.24.197.14.197-.271m.663-.004c0-.34-.096-.728-.223-.896-.123-.163-.181.26-.098.717.122.672.321.783.321.179m1.882.253c.07-.272.045-.712-.048-.844-.126-.181-.2-.03-.19.392.012.55.147.806.238.452m-3.938-.437c0-.551-.097-.89-.205-.713-.129.213-.005 1.236.15 1.236.03 0 .055-.235.055-.523m-8.425-.078c.003-.24-.118-.574-.207-.574-.067 0-.076.993-.01 1.062.073.076.214-.243.217-.488m2.589-.064c0-.444-.077-.717-.201-.717-.087 0-.082.942.005 1.112.119.231.196.075.196-.395m2.28.372c.092-.362-.03-1-.216-1.119-.15-.097-.132.614.03 1.153.051.168.138.151.185-.034m.797.046c.12-.328-.005-1.274-.17-1.274-.082 0-.1 1.062-.022 1.297.04.12.144.108.192-.023m8.832-.2c.046-.259-.079-.752-.175-.69-.068.044-.084.719-.021.89.059.16.147.069.196-.2m-13.94.015c.074-.288.043-.921-.051-1.056-.087-.123-.098-.113-.177.16-.066.233-.067.368-.002.672q.13.606.23.224m3.492-.899c-.04-.142-.106-.259-.146-.259-.098 0-.033.866.086 1.141.088.205.09.203.111-.207a2.6 2.6 0 0 0-.05-.675m11.172.787c.044-.21-.08-.838-.165-.838-.129 0-.163.468-.062.848.078.291.164.287.227-.01m-3.756-.116c.147-.337.053-1.285-.118-1.175-.15.097-.16 1.351-.01 1.351.028 0 .085-.079.128-.176m-13.055-.317c0-.104-.026-.207-.058-.227-.09-.058-.281.203-.242.33.117.383.102.367.205.222a.66.66 0 0 0 .095-.325m2.849-.012a1.9 1.9 0 0 0-.09-.566c-.076-.185-.09-.193-.124-.07-.111.396-.116.59-.02.828.134.337.237.252.234-.192m2.155.08c-.004-.325-.138-.75-.237-.75-.086 0-.071.61.022.878.108.313.219.247.215-.129m-1.49-.094c0-.311-.11-.656-.209-.656-.077 0-.07.644.01.864.095.258.2.149.2-.208m-2.984-.126c0-.4-.03-.471-.172-.414-.113.045-.121.366-.016.607.12.277.188.208.188-.193m11.967.058c.049-.272-.01-.715-.114-.85-.109-.143-.178.033-.179.457-.002.58.209.863.293.393m-3.488-.492c.025-.516.024-.522-.131-.5-.143.022-.156.054-.145.368.033.94.233 1.035.276.132m6.033.229c.02-.395-.074-.709-.19-.634-.07.045-.086.787-.021.963.082.223.191.053.21-.33m-13.85-.235c.002-.327-.069-.409-.25-.29-.109.07-.118.125-.07.4.031.175.074.365.094.422.063.174.222-.203.225-.532m7.133.234c.067-.466.021-.704-.135-.704-.117 0-.13.04-.116.345.03.692.174.895.25.36m7.39-.359c.001-.437-.082-.602-.194-.384-.093.181-.119.83-.039.966.093.156.231-.19.233-.582m2.082.433c.045-.262-.034-.71-.124-.71-.129 0-.189.368-.107.654.097.338.18.358.231.056m.672.023c.048-.227-.019-.698-.098-.698-.077 0-.133.189-.133.45 0 .444.155.61.231.248m-4.098-.264a.84.84 0 0 0-.065-.474l-.1-.199-.075.29c-.066.257-.047.563.045.733.059.108.16-.074.195-.35m2.036-.223c.005-.426-.068-.637-.166-.477-.066.11-.076.711-.015.948.039.15.047.154.11.038.036-.069.069-.298.071-.509m2.852.51c.06-.16.05-.34-.03-.558-.056-.154-.082-.172-.131-.091-.102.167-.08.758.029.758.05 0 .11-.05.132-.11m-9.683-.07c.022-.06.04-.28.04-.49 0-.32-.017-.376-.104-.34a.7.7 0 0 1-.133.041c-.043 0-.033.667.012.79.023.06.064.109.093.109s.07-.05.092-.11m4.112 0c.067-.18.045-.708-.03-.757-.099-.063-.128-.017-.173.267-.064.416.092.794.203.49m3.53-.07c.05-.211-.086-.74-.177-.682-.07.046-.087.745-.019.816q.13.134.196-.133m-10.453-.377c0-.226-.03-.416-.067-.421-.216-.034-.23-.017-.212.252.024.34.14.668.22.617.032-.02.059-.222.059-.448m3.515.004c0-.438-.013-.484-.133-.484-.156 0-.173.187-.058.66.108.452.19.376.19-.176m.741-.104c.02-.445.01-.484-.111-.484-.12 0-.132.044-.127.422.011.822.202.872.238.062m.638-.198c-.014-.26-.046-.355-.12-.355-.076 0-.103.108-.119.477-.01.263 0 .527.025.588.08.197.236-.321.214-.71m-9.935.267c0-.295-.023-.38-.101-.38-.152 0-.192.185-.104.49.11.385.205.335.205-.11m5.89-.022c.018-.252.003-.289-.116-.289-.146 0-.16.064-.095.409.058.302.186.23.211-.12m-3.17-.224c0-.391-.009-.41-.165-.41-.158 0-.163.013-.124.328.086.686.288.743.288.082m-.677-.072c-.017-.32-.039-.373-.153-.373-.115 0-.13.04-.114.302.023.36.13.607.224.51.035-.036.054-.234.043-.44m-1.346.282c.071-.234-.028-.551-.172-.551-.148 0-.155.06-.05.424q.127.444.222.127m2.752-.206c0-.322-.011-.345-.166-.345-.192 0-.186-.019-.094.283l.098.322c.062.214.162.054.162-.26m.85-.008c-.017-.184-.054-.239-.177-.257-.164-.024-.164.005.001.467.084.232.204.09.176-.21m-2.906-.06c0-.328-.01-.347-.175-.347-.163 0-.172.016-.136.249.04.253.148.443.253.443.032 0 .058-.156.058-.346m16.567-.029c-.026-.192-.252-.239-.252-.052 0 .076.019.188.041.25.059.158.237-.008.211-.198m-.743-.006c.057-.238-.009-.38-.175-.38-.112 0-.13.029-.096.155l.075.276c.047.175.147.149.196-.051m-6.817-.265c.022-.27.016-.278-.148-.212-.109.043-.135.21-.063.405.069.187.19.077.211-.193m6.124.13c.085-.193.04-.369-.11-.429-.153-.06-.174-.006-.126.312q.075.487.236.118m-5.41-.068c.057-.24-.025-.454-.175-.454-.098 0-.128.048-.128.201 0 .412.22.596.303.253m1.85-.036c.056-.112.102-.317.102-.455 0-.2-.023-.246-.117-.227-.093.018-.12.108-.135.454-.011.238-.005.432.015.432.019 0 .08-.092.135-.204m2.158-.176c0-.335-.017-.38-.133-.38-.151 0-.166.114-.063.5.1.377.196.318.196-.12m-3.339-.126c.037-.24.03-.255-.135-.255-.154 0-.174.028-.174.237 0 .13.019.288.042.35.064.175.218-.017.267-.332m4.04.27c.058-.243.01-.416-.122-.442-.123-.025-.151.15-.073.453.052.204.144.198.195-.012m-2.176-.058c.101-.132.164-.517.092-.564-.158-.102-.276.046-.276.347q-.001.458.184.217m.811-.342c0-.16-.028-.194-.165-.194-.144 0-.166.031-.166.228 0 .3.13.447.248.28a.65.65 0 0 0 .083-.314m-2.056.005c0-.153-.03-.199-.132-.199-.137 0-.18.207-.092.446.063.171.224-.006.224-.247" style="fill:#626262;fill-opacity:1"/></svg>