<?xml version="1.0" encoding="UTF-8"?>
<svg xmlns="http://www.w3.org/2000/svg" xmlns:xlink="http://www.w3.org/1999/xlink" width="32px" height="32px" viewBox="0 0 32 32" version="1.1">
<g id="surface1">
<path style=" stroke:none;fill-rule:nonzero;fill:rgb(38.431373%,38.431373%,38.431373%);fill-opacity:1;" d="M 19.121094 28.894531 C 19.089844 28.882812 18.890625 28.820312 18.683594 28.757812 C 18.222656 28.613281 17.800781 28.328125 17.640625 28.039062 L 17.519531 27.824219 L 17.128906 28.101562 C 16.609375 28.476562 16.164062 28.648438 15.496094 28.730469 C 13.894531 28.933594 12.175781 28.144531 11.308594 26.816406 C 10.800781 26.035156 10.523438 25.179688 10.460938 24.207031 C 10.425781 23.605469 10.472656 23.164062 10.730469 21.828125 C 11.042969 20.191406 11.089844 19.726562 11.089844 18.40625 C 11.089844 17.222656 11.050781 16.734375 10.871094 15.773438 L 10.800781 15.398438 L 10.660156 15.535156 C 10.480469 15.710938 10.300781 15.628906 10.191406 15.320312 L 10.117188 15.109375 L 10.007812 15.355469 C 9.789062 15.851562 9.675781 15.839844 9.539062 15.296875 C 9.460938 14.988281 9.453125 14.980469 9.390625 15.148438 C 9.3125 15.355469 9.136719 15.546875 9.066406 15.5 C 9.039062 15.480469 8.996094 15.324219 8.972656 15.152344 C 8.910156 14.695312 8.84375 14.617188 8.753906 14.90625 C 8.691406 15.097656 8.648438 15.144531 8.542969 15.128906 C 8.445312 15.113281 8.398438 15.039062 8.359375 14.851562 C 8.292969 14.519531 8.277344 14.503906 8.136719 14.683594 C 7.984375 14.878906 7.894531 14.816406 7.839844 14.472656 L 7.796875 14.199219 L 7.621094 14.425781 L 7.445312 14.648438 L 7.378906 14.464844 C 7.339844 14.367188 7.308594 14.242188 7.308594 14.191406 C 7.308594 13.984375 7.179688 14.042969 7.082031 14.289062 C 6.960938 14.613281 6.804688 14.621094 6.71875 14.308594 C 6.671875 14.140625 6.632812 14.101562 6.539062 14.132812 C 6.464844 14.160156 6.363281 14.117188 6.265625 14.019531 L 6.105469 13.867188 L 6.011719 14.011719 C 5.917969 14.160156 5.679688 14.21875 5.679688 14.09375 C 5.679688 13.941406 5.421875 13.769531 5.195312 13.769531 C 4.550781 13.769531 3.566406 13.464844 3.078125 13.113281 C 2.5 12.699219 2.234375 12.15625 2.234375 11.390625 C 2.234375 10.542969 2.5625 9.679688 3.238281 8.746094 C 3.757812 8.027344 4.324219 7.496094 5.367188 6.75 C 5.867188 6.394531 6.472656 5.949219 6.714844 5.761719 C 9.210938 3.832031 12.066406 2.871094 14.539062 3.117188 C 16.046875 3.269531 16.75 3.484375 18.242188 4.25 C 19.789062 5.042969 20.390625 5.261719 22.195312 5.664062 C 23.957031 6.0625 25.097656 6.648438 26.132812 7.6875 C 27.226562 8.78125 27.730469 9.851562 27.664062 10.933594 C 27.605469 11.851562 27.105469 12.363281 25.828125 12.820312 C 24.972656 13.121094 23.445312 13.375 22.46875 13.375 C 20.683594 13.378906 18.910156 14.242188 17.867188 15.617188 C 17.390625 16.242188 17.152344 16.695312 16.929688 17.386719 C 16.589844 18.445312 16.503906 19.601562 16.679688 20.796875 C 16.804688 21.648438 16.816406 21.691406 17.394531 23.601562 C 17.675781 24.527344 17.804688 25.128906 17.871094 25.796875 L 17.914062 26.226562 L 18.179688 25.925781 C 18.808594 25.214844 19.738281 24.042969 20.007812 23.621094 C 20.402344 23.003906 20.589844 22.410156 20.632812 21.660156 C 20.652344 21.324219 20.640625 20.964844 20.613281 20.855469 C 20.542969 20.597656 20.175781 20.414062 19.507812 20.304688 C 18.019531 20.0625 17.570312 19.824219 17.296875 19.144531 C 17.082031 18.609375 17.246094 17.71875 17.699219 16.96875 C 18.121094 16.265625 19.230469 15.324219 20.347656 14.71875 C 21.589844 14.046875 22.644531 13.8125 23.789062 13.957031 C 24.839844 14.089844 25.410156 14.332031 26.707031 15.203125 C 27.117188 15.480469 27.65625 15.835938 27.894531 15.996094 C 28.503906 16.394531 29.1875 17.121094 29.433594 17.625 C 30.042969 18.886719 29.804688 19.964844 28.792969 20.503906 C 28.21875 20.808594 26.546875 21.074219 25.691406 20.992188 C 25.292969 20.957031 25.238281 20.964844 25.210938 21.066406 C 25.191406 21.132812 25.007812 21.90625 24.796875 22.789062 C 24.589844 23.671875 24.335938 24.652344 24.230469 24.964844 C 23.316406 27.660156 21.863281 28.941406 19.730469 28.921875 C 19.429688 28.917969 19.15625 28.90625 19.121094 28.894531 Z M 20.972656 28.214844 C 21.996094 27.875 22.828125 27.015625 23.417969 25.699219 C 23.730469 25 23.808594 24.746094 24.167969 23.273438 C 24.335938 22.589844 24.519531 21.855469 24.574219 21.640625 C 24.722656 21.054688 25.046875 20.039062 25.171875 19.777344 C 25.230469 19.652344 25.296875 19.421875 25.320312 19.261719 C 25.359375 19.007812 25.351562 18.984375 25.265625 19.058594 C 25.214844 19.105469 25.171875 19.164062 25.171875 19.191406 C 25.171875 19.21875 25.035156 19.546875 24.867188 19.917969 C 24.699219 20.289062 24.542969 20.648438 24.523438 20.710938 C 24.503906 20.773438 24.453125 20.824219 24.410156 20.824219 C 24.300781 20.824219 24.378906 20.394531 24.558594 19.976562 C 24.644531 19.777344 24.734375 19.550781 24.757812 19.472656 C 24.804688 19.320312 24.746094 18.996094 24.671875 18.996094 C 24.617188 18.996094 24.292969 19.832031 24.289062 19.976562 C 24.289062 20.03125 24.25 20.144531 24.199219 20.234375 C 24.121094 20.382812 24.109375 20.386719 24.070312 20.28125 C 24.046875 20.214844 24.058594 20.050781 24.097656 19.914062 C 24.179688 19.625 24.191406 18.863281 24.113281 18.863281 C 24.058594 18.863281 23.917969 19.152344 23.917969 19.261719 C 23.917969 19.296875 23.859375 19.449219 23.792969 19.597656 C 23.71875 19.75 23.667969 20.003906 23.667969 20.179688 C 23.667969 20.527344 23.621094 20.695312 23.527344 20.695312 C 23.441406 20.695312 23.503906 19.933594 23.601562 19.816406 C 23.683594 19.710938 23.5625 18.8125 23.480469 18.90625 C 23.390625 19.011719 23.289062 19.40625 23.289062 19.65625 C 23.289062 20.203125 23.105469 19.84375 23.011719 19.109375 C 22.988281 18.941406 22.945312 18.785156 22.914062 18.765625 C 22.882812 18.746094 22.8125 18.890625 22.753906 19.089844 C 22.699219 19.289062 22.632812 19.453125 22.605469 19.453125 C 22.574219 19.453125 22.523438 19.320312 22.484375 19.164062 C 22.359375 18.644531 22.234375 18.707031 22.183594 19.308594 C 22.117188 20.160156 22.027344 20.195312 21.910156 19.417969 C 21.796875 18.644531 21.65625 18.570312 21.597656 19.246094 C 21.582031 19.449219 21.539062 19.617188 21.503906 19.617188 C 21.46875 19.617188 21.398438 19.46875 21.34375 19.292969 C 21.199219 18.820312 21.097656 18.832031 21.097656 19.316406 C 21.097656 19.535156 21.070312 19.714844 21.039062 19.714844 C 21.007812 19.714844 20.902344 19.539062 20.804688 19.320312 C 20.707031 19.105469 20.605469 18.929688 20.578125 18.929688 C 20.46875 18.929688 20.546875 19.285156 20.746094 19.695312 C 21.074219 20.382812 21.125 20.601562 21.128906 21.347656 C 21.128906 22.128906 21.027344 22.625 20.707031 23.367188 C 20.585938 23.648438 20.058594 24.507812 19.894531 24.6875 C 19.449219 25.171875 18.589844 26.21875 18.40625 26.507812 C 17.867188 27.335938 17.917969 27.851562 18.566406 28.171875 C 19.078125 28.425781 20.269531 28.449219 20.972656 28.214844 Z M 20.566406 27.949219 C 20.601562 27.917969 20.78125 27.828125 20.972656 27.75 C 21.585938 27.5 22.125 26.972656 22.816406 25.945312 C 23.007812 25.660156 23.003906 25.882812 22.808594 26.261719 C 22.5625 26.738281 21.714844 27.621094 21.289062 27.835938 C 20.964844 28 20.433594 28.085938 20.566406 27.949219 Z M 19.859375 27.667969 C 19.894531 27.558594 20.277344 27.332031 20.332031 27.386719 C 20.386719 27.445312 20.035156 27.75 19.917969 27.75 C 19.871094 27.75 19.84375 27.714844 19.859375 27.667969 Z M 19.042969 27.472656 C 19.074219 27.378906 19.398438 27.199219 19.445312 27.25 C 19.464844 27.265625 19.417969 27.34375 19.347656 27.417969 C 19.203125 27.566406 19.003906 27.601562 19.042969 27.472656 Z M 21.363281 26.949219 C 21.703125 26.546875 21.847656 26.433594 21.847656 26.570312 C 21.847656 26.683594 21.296875 27.273438 21.152344 27.3125 C 21.0625 27.335938 21.125 27.230469 21.363281 26.949219 Z M 18.527344 27.058594 C 18.527344 26.878906 19.109375 26.179688 19.191406 26.265625 C 19.238281 26.3125 18.660156 27.097656 18.582031 27.097656 C 18.550781 27.097656 18.527344 27.082031 18.527344 27.058594 Z M 20.65625 26.976562 C 20.65625 26.898438 20.964844 26.609375 21.003906 26.652344 C 21.066406 26.71875 20.964844 26.882812 20.8125 26.957031 C 20.726562 26.996094 20.65625 27.003906 20.65625 26.976562 Z M 22.097656 26.195312 C 22.097656 26.046875 22.691406 25.101562 22.714844 25.21875 C 22.726562 25.28125 22.660156 25.476562 22.566406 25.65625 C 22.390625 25.988281 22.097656 26.328125 22.097656 26.195312 Z M 21.609375 25.917969 C 21.765625 25.625 21.894531 25.488281 21.953125 25.546875 C 22.015625 25.613281 21.664062 26.183594 21.558594 26.183594 C 21.484375 26.183594 21.492188 26.132812 21.609375 25.917969 Z M 23.039062 25.570312 C 23.039062 25.558594 23.09375 25.375 23.160156 25.164062 C 23.464844 24.183594 23.574219 23.6875 23.734375 22.589844 C 23.773438 22.320312 23.84375 22.011719 23.894531 21.902344 C 23.972656 21.722656 23.976562 21.746094 23.949219 22.230469 C 23.933594 22.515625 23.875 22.957031 23.824219 23.207031 C 23.769531 23.460938 23.699219 23.796875 23.667969 23.960938 C 23.550781 24.566406 23.1875 25.59375 23.09375 25.59375 C 23.066406 25.59375 23.039062 25.582031 23.039062 25.570312 Z M 19.90625 25.335938 C 20.050781 25.117188 20.148438 25.039062 20.199219 25.09375 C 20.253906 25.152344 19.96875 25.527344 19.867188 25.527344 C 19.792969 25.527344 19.800781 25.488281 19.90625 25.335938 Z M 22.226562 24.992188 C 22.222656 24.847656 22.355469 24.546875 22.421875 24.546875 C 22.519531 24.546875 22.476562 24.792969 22.351562 24.949219 C 22.25 25.074219 22.230469 25.082031 22.226562 24.992188 Z M 22.851562 24.71875 C 22.851562 24.5 23.179688 23.242188 23.269531 23.128906 C 23.351562 23.027344 23.355469 23.046875 23.320312 23.335938 C 23.28125 23.636719 22.960938 24.71875 22.886719 24.796875 C 22.867188 24.816406 22.851562 24.78125 22.851562 24.71875 Z M 23.257812 22.113281 C 23.285156 21.960938 23.355469 21.71875 23.417969 21.574219 C 23.519531 21.339844 23.53125 21.332031 23.535156 21.484375 C 23.539062 21.578125 23.515625 21.738281 23.484375 21.84375 C 23.453125 21.949219 23.410156 22.113281 23.386719 22.210938 C 23.324219 22.515625 23.210938 22.425781 23.257812 22.113281 Z M 24.167969 21.492188 C 24.167969 21.34375 24.269531 21.1875 24.3125 21.261719 C 24.363281 21.34375 24.292969 21.609375 24.222656 21.609375 C 24.191406 21.609375 24.167969 21.558594 24.167969 21.492188 Z M 21.976562 21.074219 C 21.976562 20.773438 22.054688 20.566406 22.125 20.683594 C 22.175781 20.769531 22.101562 21.273438 22.027344 21.320312 C 22 21.339844 21.972656 21.226562 21.976562 21.074219 Z M 23.84375 21.242188 C 23.804688 21.082031 23.902344 20.695312 23.980469 20.695312 C 24.070312 20.695312 24.054688 21.109375 23.957031 21.246094 C 23.875 21.363281 23.871094 21.363281 23.84375 21.242188 Z M 22.976562 20.808594 C 22.976562 20.46875 23.023438 20.300781 23.117188 20.300781 C 23.203125 20.300781 23.140625 20.9375 23.046875 21.039062 C 22.996094 21.09375 22.976562 21.035156 22.976562 20.808594 Z M 21.386719 20.519531 C 21.328125 20.453125 21.339844 19.921875 21.402344 19.882812 C 21.476562 19.832031 21.535156 20 21.535156 20.269531 C 21.535156 20.484375 21.46875 20.601562 21.386719 20.519531 Z M 22.503906 20.28125 C 22.445312 20.125 22.5 19.757812 22.585938 19.730469 C 22.640625 19.710938 22.664062 19.792969 22.664062 20 C 22.664062 20.292969 22.566406 20.460938 22.503906 20.28125 Z M 15.949219 28.113281 C 16.539062 27.949219 16.96875 27.582031 17.21875 27.03125 C 17.335938 26.769531 17.347656 26.660156 17.320312 25.921875 C 17.285156 25.011719 17.207031 24.652344 16.714844 23.125 C 16.035156 20.992188 15.925781 19.671875 16.28125 17.882812 C 16.660156 15.96875 18.03125 14.226562 19.800781 13.410156 C 20.667969 13.011719 21.25 12.886719 22.882812 12.757812 C 23.570312 12.699219 24.222656 12.636719 24.324219 12.621094 C 25.488281 12.402344 26.234375 12.070312 26.234375 11.773438 C 26.234375 11.554688 25.867188 11.253906 25.296875 11.007812 C 24.789062 10.785156 23.972656 10.5 23.84375 10.5 C 23.59375 10.5 24.417969 10.96875 25.109375 11.21875 C 25.632812 11.410156 25.859375 11.53125 25.859375 11.621094 C 25.859375 11.789062 24.839844 11.441406 23.921875 10.960938 C 23.566406 10.777344 23.414062 10.769531 23.414062 10.929688 C 23.414062 11.066406 23.644531 11.199219 24.410156 11.515625 C 24.789062 11.671875 25.152344 11.828125 25.214844 11.867188 C 25.308594 11.925781 25.296875 11.933594 25.128906 11.9375 C 24.90625 11.9375 23.980469 11.613281 23.53125 11.378906 C 23.230469 11.21875 23.164062 11.226562 23.164062 11.421875 C 23.164062 11.503906 23.296875 11.582031 23.652344 11.714844 C 24.492188 12.027344 24.582031 12.070312 24.488281 12.128906 C 24.441406 12.160156 24.292969 12.15625 24.152344 12.125 C 23.652344 12.007812 22.628906 11.605469 22.550781 11.496094 C 22.472656 11.390625 22.460938 11.390625 22.378906 11.507812 C 22.25 11.691406 22.347656 11.773438 22.933594 11.976562 C 23.554688 12.1875 23.570312 12.199219 23.488281 12.28125 C 23.441406 12.328125 23.328125 12.324219 23.121094 12.269531 C 22.339844 12.058594 22.109375 11.945312 21.941406 11.6875 C 21.8125 11.488281 21.785156 11.476562 21.746094 11.578125 C 21.679688 11.761719 21.792969 11.886719 22.242188 12.136719 C 22.472656 12.261719 22.679688 12.390625 22.707031 12.421875 C 22.820312 12.550781 22.183594 12.394531 21.800781 12.195312 C 21.460938 12.023438 21.378906 11.945312 21.296875 11.734375 C 21.175781 11.410156 21.097656 11.414062 21.097656 11.742188 C 21.097656 11.980469 21.125 12.023438 21.410156 12.238281 C 21.582031 12.367188 21.722656 12.5 21.722656 12.53125 C 21.722656 12.710938 21.199219 12.484375 20.992188 12.214844 C 20.949219 12.164062 20.886719 12.140625 20.851562 12.164062 C 20.746094 12.230469 20.773438 12.449219 20.894531 12.519531 C 21.054688 12.613281 20.945312 12.679688 20.707031 12.632812 C 20.5625 12.605469 20.460938 12.527344 20.386719 12.394531 C 20.25 12.152344 20.183594 12.148438 20.128906 12.378906 C 20.09375 12.515625 20.113281 12.582031 20.21875 12.671875 C 20.359375 12.789062 20.339844 12.917969 20.1875 12.917969 C 20.136719 12.917969 20.042969 12.855469 19.972656 12.777344 L 19.847656 12.636719 L 19.75 12.875 C 19.683594 13.039062 19.613281 13.113281 19.53125 13.113281 C 19.398438 13.113281 19.363281 12.992188 19.460938 12.882812 C 19.492188 12.847656 19.535156 12.71875 19.558594 12.59375 L 19.601562 12.363281 L 19.410156 12.65625 C 19.300781 12.820312 19.1875 13.0625 19.148438 13.199219 C 19.085938 13.449219 18.941406 13.574219 18.839844 13.464844 C 18.808594 13.433594 18.828125 13.246094 18.886719 13.035156 C 18.941406 12.828125 18.96875 12.640625 18.949219 12.617188 C 18.886719 12.550781 18.777344 12.660156 18.777344 12.792969 C 18.777344 12.898438 18.523438 13.546875 18.34375 13.898438 C 18.277344 14.03125 18.085938 14.0625 18.015625 13.953125 C 17.945312 13.839844 17.890625 13.910156 17.492188 14.675781 C 17.066406 15.496094 16.980469 15.472656 17.210938 14.609375 C 17.328125 14.167969 17.324219 13.949219 17.207031 14.074219 C 17.070312 14.21875 16.753906 15.265625 16.742188 15.617188 C 16.730469 15.910156 16.695312 16.03125 16.59375 16.140625 C 16.460938 16.277344 16.460938 16.277344 16.460938 16.148438 C 16.460938 16.078125 16.515625 15.902344 16.585938 15.761719 C 16.652344 15.621094 16.675781 15.542969 16.632812 15.585938 C 16.433594 15.796875 16.417969 15.554688 16.589844 14.78125 C 16.6875 14.332031 16.691406 14.210938 16.605469 14.179688 C 16.515625 14.148438 16.285156 14.65625 16.082031 15.320312 C 15.917969 15.863281 15.800781 15.949219 15.855469 15.484375 C 15.945312 14.75 15.972656 14.03125 15.910156 14.03125 C 15.792969 14.03125 15.582031 14.753906 15.582031 15.152344 C 15.582031 15.285156 15.558594 15.410156 15.527344 15.429688 C 15.371094 15.53125 15.347656 14.789062 15.496094 14.390625 C 15.652344 13.953125 15.660156 13.910156 15.613281 13.65625 L 15.570312 13.410156 L 15.464844 13.566406 C 15.410156 13.65625 15.320312 13.902344 15.269531 14.117188 C 15.136719 14.671875 15.046875 14.652344 14.980469 14.054688 C 14.949219 13.777344 14.894531 13.539062 14.859375 13.527344 C 14.765625 13.496094 14.640625 13.890625 14.640625 14.210938 C 14.640625 14.359375 14.617188 14.496094 14.585938 14.515625 C 14.523438 14.554688 14.390625 14.214844 14.390625 14.003906 C 14.390625 13.929688 14.335938 13.796875 14.277344 13.714844 L 14.164062 13.558594 L 14.066406 13.875 C 14.011719 14.050781 13.933594 14.191406 13.886719 14.191406 C 13.84375 14.191406 13.765625 14.066406 13.71875 13.914062 C 13.667969 13.761719 13.605469 13.636719 13.574219 13.636719 C 13.542969 13.636719 13.472656 13.792969 13.421875 13.980469 C 13.273438 14.496094 13.230469 14.542969 13.113281 14.304688 C 13.058594 14.191406 13.011719 14.035156 13.011719 13.953125 C 13.007812 13.867188 12.96875 13.726562 12.921875 13.636719 C 12.816406 13.445312 12.800781 13.476562 12.683594 14.089844 C 12.585938 14.609375 12.472656 14.675781 12.414062 14.246094 C 12.390625 14.074219 12.332031 13.859375 12.289062 13.769531 L 12.207031 13.605469 L 12.167969 13.800781 C 12.144531 13.910156 12.113281 14.035156 12.101562 14.082031 C 12.085938 14.125 12.117188 14.347656 12.167969 14.570312 C 12.28125 15.082031 12.285156 15.269531 12.175781 15.269531 C 12.117188 15.269531 12.0625 15.125 12.007812 14.839844 C 11.90625 14.269531 11.816406 14.378906 11.773438 15.132812 C 11.757812 15.457031 11.71875 15.710938 11.6875 15.691406 C 11.660156 15.671875 11.5625 15.410156 11.476562 15.105469 C 11.386719 14.804688 11.289062 14.539062 11.253906 14.519531 C 11.144531 14.449219 11.042969 14.796875 11.121094 14.960938 C 11.285156 15.292969 11.511719 16.519531 11.570312 17.378906 C 11.625 18.203125 11.578125 19.613281 11.476562 20.285156 C 11.347656 21.144531 11.300781 21.433594 11.214844 21.871094 C 10.910156 23.488281 10.875 24.179688 11.066406 24.964844 C 11.4375 26.46875 12.34375 27.535156 13.628906 27.972656 C 13.890625 28.0625 14.179688 28.148438 14.265625 28.160156 C 14.644531 28.226562 15.636719 28.199219 15.949219 28.113281 Z M 14.933594 27.746094 C 14.839844 27.671875 14.765625 27.566406 14.765625 27.515625 C 14.765625 27.433594 14.789062 27.433594 14.941406 27.511719 C 15.035156 27.5625 15.167969 27.667969 15.230469 27.742188 C 15.347656 27.878906 15.347656 27.878906 15.222656 27.878906 C 15.15625 27.878906 15.023438 27.820312 14.933594 27.746094 Z M 13.992188 27.570312 C 13.679688 27.316406 13.457031 27.003906 13.53125 26.925781 C 13.554688 26.902344 13.710938 27.011719 13.878906 27.167969 C 14.046875 27.328125 14.277344 27.535156 14.398438 27.632812 C 14.605469 27.804688 14.609375 27.808594 14.453125 27.8125 C 14.367188 27.8125 14.164062 27.707031 13.992188 27.570312 Z M 15.378906 27.355469 C 15.316406 27.214844 15.269531 27.03125 15.269531 26.949219 C 15.273438 26.808594 15.28125 26.8125 15.421875 26.992188 C 15.578125 27.191406 15.667969 27.617188 15.554688 27.617188 C 15.515625 27.617188 15.4375 27.5 15.378906 27.355469 Z M 13.105469 27.457031 C 12.847656 27.339844 12.40625 26.875 12.253906 26.5625 C 12.0625 26.164062 12.144531 26.125 12.398438 26.492188 C 12.632812 26.828125 12.882812 27.054688 13.257812 27.273438 C 13.65625 27.5 13.53125 27.652344 13.105469 27.457031 Z M 15.90625 27.386719 C 15.867188 27.296875 15.832031 27.097656 15.835938 26.945312 L 15.835938 26.671875 L 15.957031 26.835938 C 16.035156 26.9375 16.082031 27.101562 16.082031 27.277344 C 16.082031 27.589844 16.011719 27.632812 15.90625 27.386719 Z M 14.332031 27.265625 C 14.25 27.171875 14.195312 27.082031 14.214844 27.0625 C 14.269531 27.003906 14.535156 27.265625 14.507812 27.351562 C 14.492188 27.402344 14.429688 27.371094 14.332031 27.265625 Z M 16.410156 27.246094 C 16.347656 27.089844 16.351562 26.335938 16.414062 26.269531 C 16.511719 26.171875 16.582031 26.414062 16.582031 26.847656 C 16.585938 27.28125 16.5 27.476562 16.410156 27.246094 Z M 14.71875 27.082031 C 14.675781 27.039062 14.644531 26.945312 14.644531 26.871094 C 14.644531 26.742188 14.652344 26.742188 14.769531 26.890625 C 14.953125 27.117188 14.90625 27.28125 14.71875 27.082031 Z M 12.890625 26.792969 C 12.753906 26.613281 12.726562 26.507812 12.8125 26.507812 C 12.890625 26.507812 13.136719 26.796875 13.136719 26.886719 C 13.136719 27.015625 13.03125 26.976562 12.890625 26.792969 Z M 16.871094 26.148438 C 16.800781 25.21875 16.683594 24.746094 16.089844 22.980469 C 15.820312 22.167969 15.703125 21.394531 15.664062 20.101562 C 15.625 18.832031 15.671875 18.023438 15.800781 17.839844 C 15.875 17.738281 15.878906 17.914062 15.851562 18.980469 C 15.796875 20.777344 15.9375 21.773438 16.464844 23.339844 C 16.976562 24.867188 17.1875 26.015625 17.046875 26.558594 C 16.972656 26.839844 16.914062 26.699219 16.871094 26.148438 Z M 13.546875 26.316406 C 13.4375 26.09375 13.425781 25.984375 13.511719 25.984375 C 13.5625 25.984375 13.765625 26.386719 13.765625 26.484375 C 13.765625 26.582031 13.625 26.472656 13.546875 26.316406 Z M 14.21875 26.378906 C 14.125 26.222656 14.117188 26.050781 14.203125 26.050781 C 14.277344 26.050781 14.390625 26.265625 14.390625 26.40625 C 14.390625 26.546875 14.3125 26.535156 14.21875 26.378906 Z M 15.523438 26.382812 C 15.441406 26.222656 15.433594 25.738281 15.515625 25.824219 C 15.582031 25.898438 15.675781 26.507812 15.621094 26.507812 C 15.601562 26.507812 15.558594 26.453125 15.523438 26.382812 Z M 16.019531 26.339844 C 15.941406 26.132812 15.9375 25.59375 16.015625 25.59375 C 16.078125 25.59375 16.117188 25.742188 16.179688 26.199219 C 16.226562 26.542969 16.125 26.632812 16.019531 26.339844 Z M 14.875 26.132812 C 14.855469 26.035156 14.859375 25.925781 14.878906 25.890625 C 14.917969 25.824219 15.007812 26.023438 15.015625 26.199219 C 15.019531 26.382812 14.910156 26.328125 14.875 26.132812 Z M 12.839844 25.988281 C 12.796875 25.914062 12.761719 25.804688 12.761719 25.742188 C 12.765625 25.648438 12.789062 25.65625 12.886719 25.789062 C 13.011719 25.957031 13.050781 26.117188 12.964844 26.117188 C 12.9375 26.117188 12.882812 26.058594 12.839844 25.988281 Z M 16.4375 25.9375 C 16.382812 25.835938 16.082031 24.523438 16.082031 24.371094 C 16.082031 23.875 16.417969 24.859375 16.496094 25.578125 C 16.535156 25.949219 16.515625 26.070312 16.4375 25.9375 Z M 12.203125 25.667969 C 12.121094 25.503906 12.113281 25.265625 12.195312 25.265625 C 12.261719 25.265625 12.359375 25.710938 12.304688 25.765625 C 12.285156 25.785156 12.242188 25.742188 12.203125 25.667969 Z M 15.652344 25.007812 C 15.566406 24.597656 15.558594 24.039062 15.640625 24.125 C 15.742188 24.238281 15.867188 25.195312 15.789062 25.273438 C 15.738281 25.324219 15.703125 25.25 15.652344 25.007812 Z M 15.109375 24.976562 C 15.054688 24.609375 15.105469 24.453125 15.199219 24.699219 C 15.285156 24.921875 15.289062 25.265625 15.210938 25.265625 C 15.175781 25.265625 15.132812 25.136719 15.109375 24.976562 Z M 11.515625 24.910156 C 11.359375 24.265625 11.460938 22.601562 11.691406 22.066406 C 11.75 21.925781 11.757812 21.957031 11.734375 22.261719 C 11.71875 22.460938 11.675781 22.871094 11.632812 23.175781 C 11.5625 23.695312 11.582031 24.519531 11.671875 24.996094 C 11.734375 25.316406 11.597656 25.242188 11.515625 24.910156 Z M 12.050781 24.632812 C 11.960938 24.289062 11.945312 24.125 11.984375 23.921875 C 12.050781 23.546875 12.125 23.671875 12.144531 24.195312 C 12.164062 24.664062 12.117188 24.882812 12.050781 24.632812 Z M 15.851562 23.847656 C 15.714844 23.5 15.519531 22.78125 15.519531 22.605469 C 15.519531 22.289062 15.648438 22.484375 15.804688 23.03125 C 15.894531 23.34375 15.992188 23.6875 16.023438 23.789062 C 16.101562 24.035156 16.097656 24.089844 16.019531 24.089844 C 15.980469 24.089844 15.90625 23.980469 15.851562 23.847656 Z M 15.21875 23.679688 C 15.179688 23.578125 15.144531 23.355469 15.148438 23.1875 L 15.152344 22.882812 L 15.246094 23.101562 C 15.296875 23.222656 15.328125 23.445312 15.316406 23.59375 L 15.296875 23.863281 Z M 14.867188 22.355469 C 14.808594 22.199219 14.824219 21.738281 14.882812 21.738281 C 14.9375 21.738281 15.015625 22.101562 15.015625 22.34375 C 15.019531 22.484375 14.917969 22.492188 14.867188 22.355469 Z M 15.308594 21.820312 C 15.191406 21.207031 15.132812 20.488281 15.167969 20.089844 C 15.242188 19.269531 15.3125 19.402344 15.351562 20.441406 C 15.375 20.992188 15.410156 21.570312 15.433594 21.722656 C 15.476562 22.035156 15.363281 22.121094 15.308594 21.820312 Z M 11.820312 21.039062 C 11.820312 20.785156 11.878906 20.617188 11.953125 20.664062 C 12.015625 20.703125 11.957031 21.085938 11.875 21.179688 C 11.84375 21.214844 11.820312 21.15625 11.820312 21.039062 Z M 15.207031 18.605469 C 15.207031 18.429688 15.234375 18.265625 15.269531 18.242188 C 15.308594 18.21875 15.332031 18.339844 15.332031 18.566406 C 15.332031 18.765625 15.304688 18.929688 15.269531 18.929688 C 15.234375 18.929688 15.207031 18.785156 15.207031 18.605469 Z M 12.175781 18.492188 C 12.109375 18.425781 12.128906 17.832031 12.199219 17.785156 C 12.238281 17.761719 12.261719 17.894531 12.261719 18.140625 C 12.261719 18.542969 12.253906 18.574219 12.175781 18.492188 Z M 15.519531 17.746094 C 15.519531 17.621094 15.5625 17.460938 15.617188 17.390625 C 15.710938 17.273438 15.714844 17.28125 15.683594 17.550781 C 15.644531 17.917969 15.519531 18.070312 15.519531 17.746094 Z M 15.023438 17.285156 C 15.015625 16.882812 15.0625 16.6875 15.148438 16.746094 C 15.226562 16.796875 15.210938 17.082031 15.113281 17.394531 L 15.03125 17.65625 Z M 15.921875 16.929688 C 15.957031 16.476562 16.171875 15.792969 16.28125 15.792969 C 16.351562 15.792969 16.347656 16.050781 16.277344 16.289062 C 16.246094 16.394531 16.175781 16.640625 16.121094 16.839844 C 15.953125 17.429688 15.878906 17.460938 15.921875 16.929688 Z M 14.050781 16.910156 C 13.992188 16.808594 14.074219 16.4375 14.144531 16.484375 C 14.21875 16.53125 14.21875 16.777344 14.148438 16.894531 C 14.109375 16.957031 14.082031 16.960938 14.050781 16.910156 Z M 12.117188 16.8125 C 12.054688 16.644531 12.0625 16.265625 12.132812 16.21875 C 12.21875 16.164062 12.285156 16.625 12.21875 16.789062 C 12.164062 16.914062 12.152344 16.917969 12.117188 16.8125 Z M 14.625 16.554688 C 14.605469 16.507812 14.613281 16.367188 14.640625 16.246094 C 14.691406 16.027344 14.691406 16.03125 14.699219 16.332031 C 14.703125 16.648438 14.683594 16.714844 14.625 16.554688 Z M 15.460938 16.347656 C 15.460938 16.167969 15.5 15.949219 15.550781 15.859375 C 15.636719 15.703125 15.640625 15.710938 15.644531 16.058594 C 15.644531 16.28125 15.609375 16.472656 15.554688 16.550781 C 15.46875 16.664062 15.460938 16.648438 15.460938 16.347656 Z M 13.242188 16.160156 C 13.195312 16.035156 13.265625 15.785156 13.332031 15.832031 C 13.40625 15.878906 13.40625 16.25 13.332031 16.25 C 13.300781 16.25 13.261719 16.210938 13.242188 16.160156 Z M 15.085938 15.90625 C 15.085938 15.792969 15.113281 15.636719 15.140625 15.566406 C 15.1875 15.445312 15.195312 15.445312 15.238281 15.550781 C 15.292969 15.691406 15.222656 16.121094 15.140625 16.121094 C 15.109375 16.121094 15.082031 16.023438 15.085938 15.90625 Z M 13.808594 15.949219 C 13.753906 15.890625 13.75 15.515625 13.800781 15.375 C 13.863281 15.210938 13.953125 15.324219 13.949219 15.550781 C 13.941406 15.808594 13.871094 16.011719 13.808594 15.949219 Z M 14.367188 15.671875 C 14.3125 15.585938 14.386719 15.269531 14.460938 15.269531 C 14.53125 15.269531 14.53125 15.535156 14.460938 15.652344 C 14.425781 15.710938 14.394531 15.71875 14.367188 15.671875 Z M 12.808594 15.445312 C 12.746094 15.28125 12.753906 14.867188 12.820312 14.757812 C 12.910156 14.605469 12.953125 14.867188 12.898438 15.238281 C 12.867188 15.472656 12.839844 15.53125 12.808594 15.445312 Z M 13.390625 14.980469 C 13.390625 14.820312 13.417969 14.671875 13.453125 14.648438 C 13.488281 14.625 13.515625 14.738281 13.515625 14.941406 C 13.515625 15.121094 13.484375 15.269531 13.453125 15.269531 C 13.417969 15.269531 13.390625 15.140625 13.390625 14.980469 Z M 14.808594 15.226562 C 14.742188 15.160156 14.761719 14.761719 14.832031 14.714844 C 14.867188 14.691406 14.894531 14.792969 14.894531 14.972656 C 14.894531 15.277344 14.882812 15.304688 14.808594 15.226562 Z M 14.078125 14.691406 C 14.078125 14.546875 14.105469 14.410156 14.140625 14.390625 C 14.179688 14.363281 14.203125 14.453125 14.203125 14.609375 C 14.203125 14.753906 14.175781 14.890625 14.140625 14.910156 C 14.101562 14.9375 14.078125 14.847656 14.078125 14.691406 Z M 27.984375 20.234375 C 28.777344 20.035156 29.109375 19.777344 29.246094 19.242188 C 29.335938 18.902344 29.230469 18.363281 28.980469 17.871094 C 28.730469 17.375 28.09375 16.753906 27.363281 16.285156 C 27.035156 16.074219 26.515625 15.726562 26.207031 15.511719 C 25.53125 15.039062 24.886719 14.71875 24.3125 14.574219 C 23.691406 14.417969 22.585938 14.4375 21.941406 14.613281 C 20.921875 14.890625 19.507812 15.789062 18.570312 16.757812 C 17.617188 17.738281 17.410156 18.917969 18.113281 19.363281 C 18.359375 19.515625 18.5 19.5625 19.121094 19.683594 C 19.398438 19.738281 19.804688 19.828125 20.023438 19.882812 C 20.242188 19.9375 20.433594 19.96875 20.453125 19.949219 C 20.472656 19.929688 20.441406 19.84375 20.390625 19.757812 C 20.3125 19.640625 20.25 19.609375 20.105469 19.632812 C 19.863281 19.667969 19.789062 19.539062 19.996094 19.441406 C 20.085938 19.398438 20.15625 19.339844 20.15625 19.308594 C 20.15625 19.195312 19.976562 19.183594 19.78125 19.289062 C 19.667969 19.351562 19.476562 19.386719 19.324219 19.375 L 19.058594 19.355469 L 19.296875 19.234375 C 19.425781 19.164062 19.53125 19.089844 19.53125 19.0625 C 19.53125 18.945312 19.433594 18.953125 19.113281 19.101562 C 18.6875 19.296875 18.554688 19.238281 18.847656 18.984375 L 19.058594 18.792969 L 18.839844 18.886719 C 18.71875 18.9375 18.546875 19.015625 18.453125 19.0625 C 18.257812 19.15625 18.089844 19.109375 18.089844 18.957031 C 18.089844 18.570312 19.378906 18.003906 20.847656 17.75 C 21.113281 17.703125 21.84375 17.671875 22.539062 17.671875 C 23.765625 17.675781 24.507812 17.761719 25.328125 17.988281 C 25.535156 18.042969 26.070312 18.1875 26.515625 18.308594 C 27.5 18.570312 27.484375 18.566406 27.976562 18.8125 C 28.527344 19.089844 28.820312 19.511719 28.59375 19.707031 C 28.523438 19.765625 28.464844 19.746094 28.3125 19.613281 C 28.113281 19.4375 27.242188 18.992188 27.101562 18.996094 C 27.015625 18.996094 27.292969 19.253906 27.382812 19.253906 C 27.488281 19.257812 27.992188 19.660156 27.957031 19.714844 C 27.921875 19.773438 27.703125 19.691406 27.0625 19.375 C 26.683594 19.1875 26.550781 19.167969 26.636719 19.3125 C 26.65625 19.347656 26.859375 19.488281 27.082031 19.625 C 27.304688 19.757812 27.488281 19.898438 27.488281 19.929688 C 27.488281 20.015625 27.148438 19.917969 26.695312 19.703125 C 26.257812 19.496094 26.121094 19.492188 26.390625 19.691406 C 26.484375 19.757812 26.632812 19.875 26.726562 19.957031 C 26.875 20.085938 26.882812 20.101562 26.769531 20.101562 C 26.625 20.105469 26.050781 19.777344 25.925781 19.621094 C 25.882812 19.566406 25.804688 19.519531 25.757812 19.519531 C 25.601562 19.519531 25.667969 19.765625 25.859375 19.910156 C 26.1875 20.152344 26.078125 20.253906 25.695312 20.0625 C 25.449219 19.945312 25.445312 19.945312 25.390625 20.183594 C 25.351562 20.335938 25.367188 20.359375 25.523438 20.390625 C 25.921875 20.460938 27.464844 20.363281 27.984375 20.234375 Z M 28.648438 18.5625 C 28.597656 18.433594 28.554688 18.3125 28.554688 18.296875 C 28.554688 18.210938 28.066406 17.5 27.820312 17.222656 C 27.507812 16.875 27.496094 16.742188 27.792969 16.964844 C 28.289062 17.332031 28.867188 18.21875 28.867188 18.617188 C 28.867188 18.871094 28.761719 18.84375 28.648438 18.5625 Z M 27.988281 18.171875 C 27.953125 18.078125 27.945312 17.976562 27.964844 17.941406 C 28.011719 17.859375 28.171875 18.078125 28.175781 18.226562 C 28.179688 18.398438 28.058594 18.363281 27.988281 18.171875 Z M 27.273438 17.355469 C 26.976562 16.886719 26.9375 16.710938 27.183594 16.941406 C 27.3125 17.066406 27.675781 17.671875 27.675781 17.769531 C 27.679688 17.914062 27.539062 17.769531 27.273438 17.355469 Z M 18.402344 17.648438 C 18.402344 17.558594 18.863281 16.960938 19.027344 16.839844 C 19.382812 16.578125 19.34375 16.71875 18.929688 17.199219 C 18.546875 17.640625 18.402344 17.765625 18.402344 17.648438 Z M 26.757812 17.445312 C 26.699219 17.34375 26.554688 17.152344 26.433594 17.019531 C 26.3125 16.886719 26.230469 16.757812 26.253906 16.734375 C 26.324219 16.660156 26.699219 17.003906 26.847656 17.28125 C 27.011719 17.585938 26.929688 17.730469 26.757812 17.445312 Z M 25.773438 17.0625 C 25.46875 16.703125 25.425781 16.570312 25.65625 16.699219 C 25.933594 16.855469 26.308594 17.4375 26.125 17.421875 C 26.101562 17.421875 25.941406 17.257812 25.773438 17.0625 Z M 25.046875 16.9375 C 24.824219 16.691406 24.957031 16.648438 25.1875 16.890625 C 25.324219 17.035156 25.355469 17.101562 25.289062 17.101562 C 25.234375 17.101562 25.125 17.027344 25.046875 16.9375 Z M 26.515625 16.34375 C 26.09375 16.078125 25.9375 15.945312 25.847656 15.773438 C 25.773438 15.628906 25.761719 15.621094 26.4375 16.101562 C 27.140625 16.605469 27.195312 16.769531 26.515625 16.34375 Z M 20.65625 16.460938 C 20.65625 16.375 20.902344 16.15625 20.945312 16.203125 C 20.96875 16.226562 20.964844 16.273438 20.941406 16.3125 C 20.882812 16.410156 20.65625 16.527344 20.65625 16.460938 Z M 19.976562 16.332031 C 20.132812 16.125 20.300781 15.988281 20.402344 15.992188 C 20.46875 15.992188 20.421875 16.070312 20.265625 16.21875 C 20.019531 16.460938 19.824219 16.535156 19.976562 16.332031 Z M 24.269531 16.328125 C 24.214844 16.261719 24.167969 16.171875 24.167969 16.132812 C 24.167969 16.027344 24.371094 16.160156 24.472656 16.324219 C 24.570312 16.492188 24.414062 16.492188 24.269531 16.328125 Z M 24.765625 16.152344 C 24.664062 16.066406 24.601562 15.972656 24.625 15.949219 C 24.6875 15.886719 24.976562 16.054688 25.050781 16.199219 C 25.140625 16.371094 24.992188 16.347656 24.765625 16.152344 Z M 25.480469 16.121094 C 25.363281 16.015625 25.292969 15.929688 25.328125 15.925781 C 25.398438 15.925781 25.859375 16.238281 25.859375 16.285156 C 25.859375 16.375 25.671875 16.292969 25.480469 16.121094 Z M 20.910156 15.738281 C 20.910156 15.65625 21.191406 15.402344 21.285156 15.402344 C 21.335938 15.402344 21.300781 15.480469 21.191406 15.597656 C 21.011719 15.792969 20.910156 15.84375 20.910156 15.738281 Z M 23.90625 15.601562 C 23.757812 15.476562 23.765625 15.371094 23.925781 15.433594 C 24.03125 15.476562 24.191406 15.726562 24.113281 15.726562 C 24.082031 15.726562 23.988281 15.671875 23.90625 15.601562 Z M 21.660156 15.601562 C 21.660156 15.515625 21.890625 15.269531 21.972656 15.269531 C 22.070312 15.269531 22.046875 15.371094 21.925781 15.480469 C 21.753906 15.632812 21.660156 15.675781 21.660156 15.601562 Z M 24.355469 15.453125 C 24.257812 15.355469 24.234375 15.300781 24.289062 15.28125 C 24.332031 15.269531 24.441406 15.332031 24.53125 15.425781 C 24.742188 15.640625 24.578125 15.667969 24.355469 15.453125 Z M 25 15.4375 C 24.867188 15.3125 24.851562 15.273438 24.933594 15.273438 C 24.988281 15.273438 25.117188 15.34375 25.214844 15.433594 C 25.347656 15.554688 25.363281 15.59375 25.285156 15.59375 C 25.226562 15.597656 25.097656 15.523438 25 15.4375 Z M 26.398438 19.085938 C 26.425781 18.972656 26.40625 18.882812 26.339844 18.8125 C 26.203125 18.671875 26.167969 18.726562 26.214844 19.015625 C 26.257812 19.296875 26.339844 19.328125 26.398438 19.085938 Z M 25.757812 19.042969 C 25.832031 18.746094 25.804688 18.601562 25.664062 18.601562 C 25.558594 18.601562 25.539062 18.632812 25.570312 18.75 C 25.589844 18.832031 25.609375 18.964844 25.609375 19.042969 C 25.609375 19.125 25.632812 19.191406 25.664062 19.191406 C 25.695312 19.191406 25.738281 19.125 25.757812 19.042969 Z M 25.171875 18.65625 C 25.171875 18.515625 25.140625 18.472656 25.042969 18.472656 C 24.941406 18.472656 24.917969 18.515625 24.917969 18.722656 C 24.917969 18.859375 24.941406 18.996094 24.964844 19.019531 C 25.035156 19.09375 25.171875 18.859375 25.171875 18.65625 Z M 20.394531 18.679688 C 20.410156 18.472656 20.390625 18.40625 20.320312 18.40625 C 20.179688 18.40625 20.140625 18.519531 20.183594 18.773438 C 20.242188 19.082031 20.371094 19.023438 20.394531 18.679688 Z M 24.578125 18.621094 C 24.617188 18.367188 24.609375 18.339844 24.488281 18.339844 C 24.359375 18.339844 24.320312 18.449219 24.351562 18.734375 C 24.390625 19.101562 24.515625 19.039062 24.578125 18.621094 Z M 19.78125 18.730469 C 19.78125 18.660156 19.738281 18.601562 19.6875 18.601562 C 19.59375 18.601562 19.554688 18.804688 19.632812 18.882812 C 19.699219 18.953125 19.78125 18.867188 19.78125 18.730469 Z M 20.972656 18.636719 C 20.972656 18.386719 20.953125 18.339844 20.847656 18.339844 C 20.746094 18.339844 20.722656 18.386719 20.722656 18.558594 C 20.722656 18.761719 20.8125 18.929688 20.921875 18.929688 C 20.949219 18.929688 20.972656 18.796875 20.972656 18.636719 Z M 23.347656 18.722656 C 23.464844 18.371094 23.4375 18.210938 23.257812 18.210938 C 23.125 18.210938 23.101562 18.238281 23.101562 18.421875 C 23.105469 18.6875 23.164062 18.929688 23.230469 18.929688 C 23.253906 18.929688 23.308594 18.835938 23.347656 18.722656 Z M 23.980469 18.660156 C 24.066406 18.328125 24.023438 18.195312 23.839844 18.222656 C 23.730469 18.238281 23.691406 18.292969 23.679688 18.453125 C 23.65625 18.671875 23.753906 18.929688 23.855469 18.929688 C 23.886719 18.929688 23.941406 18.808594 23.980469 18.660156 Z M 21.558594 18.492188 C 21.566406 18.285156 21.546875 18.242188 21.441406 18.242188 C 21.335938 18.242188 21.320312 18.28125 21.332031 18.472656 C 21.34375 18.597656 21.363281 18.742188 21.382812 18.792969 C 21.4375 18.953125 21.550781 18.765625 21.558594 18.492188 Z M 22.171875 18.4375 C 22.191406 18.277344 22.167969 18.238281 22.050781 18.222656 C 21.890625 18.199219 21.867188 18.339844 21.980469 18.648438 C 22.03125 18.796875 22.054688 18.8125 22.097656 18.730469 C 22.128906 18.675781 22.164062 18.542969 22.171875 18.4375 Z M 22.757812 18.457031 C 22.800781 18.222656 22.796875 18.210938 22.632812 18.210938 C 22.46875 18.210938 22.464844 18.222656 22.503906 18.457031 C 22.585938 18.890625 22.683594 18.890625 22.757812 18.457031 Z M 10.628906 14.8125 C 10.628906 14.417969 10.539062 14.261719 10.445312 14.511719 C 10.410156 14.609375 10.378906 14.746094 10.378906 14.8125 C 10.378906 14.878906 10.410156 15.015625 10.445312 15.117188 C 10.539062 15.363281 10.628906 15.210938 10.628906 14.8125 Z M 9.875 14.550781 C 9.871094 14.28125 9.847656 14.003906 9.820312 13.933594 C 9.777344 13.808594 9.769531 13.808594 9.695312 13.957031 C 9.621094 14.105469 9.640625 14.773438 9.734375 15.101562 C 9.800781 15.34375 9.878906 15.050781 9.875 14.550781 Z M 9.320312 14.667969 C 9.375 14.457031 9.375 14.304688 9.316406 14.046875 C 9.234375 13.65625 9.15625 13.609375 9.09375 13.90625 C 9.042969 14.15625 9.140625 14.945312 9.222656 14.945312 C 9.238281 14.945312 9.28125 14.820312 9.320312 14.667969 Z M 8.6875 14.246094 C 8.6875 14.058594 8.65625 13.824219 8.617188 13.722656 L 8.546875 13.539062 L 8.492188 13.769531 C 8.445312 13.980469 8.464844 14.355469 8.542969 14.644531 C 8.601562 14.855469 8.6875 14.621094 8.6875 14.246094 Z M 11.695312 14.089844 C 11.695312 13.824219 11.664062 13.613281 11.609375 13.539062 C 11.527344 13.421875 11.515625 13.429688 11.449219 13.695312 C 11.371094 13.992188 11.410156 14.457031 11.527344 14.605469 C 11.636719 14.746094 11.695312 14.566406 11.695312 14.089844 Z M 10.976562 14.011719 C 10.976562 13.5 10.910156 13.15625 10.824219 13.210938 C 10.726562 13.273438 10.703125 13.664062 10.769531 14.148438 C 10.855469 14.761719 10.976562 14.679688 10.976562 14.011719 Z M 10.28125 14.382812 C 10.347656 14.203125 10.316406 13.613281 10.230469 13.410156 L 10.144531 13.214844 L 10.085938 13.375 C 10.027344 13.53125 10.03125 13.796875 10.105469 14.273438 C 10.136719 14.503906 10.21875 14.550781 10.28125 14.382812 Z M 8.140625 13.828125 C 8.152344 13.171875 8.011719 12.742188 7.914062 13.132812 C 7.855469 13.355469 7.867188 13.660156 7.941406 14.03125 C 8.035156 14.472656 8.128906 14.371094 8.140625 13.828125 Z M 16.328125 14.144531 C 16.457031 13.730469 16.472656 13.414062 16.375 13.277344 C 16.324219 13.207031 16.265625 13.164062 16.246094 13.183594 C 16.175781 13.261719 16.125 14.355469 16.195312 14.355469 C 16.230469 14.355469 16.292969 14.261719 16.328125 14.144531 Z M 7.035156 13.921875 C 7.085938 13.644531 6.992188 13.074219 6.902344 13.097656 C 6.832031 13.117188 6.785156 13.785156 6.835938 14.011719 C 6.890625 14.234375 6.984375 14.191406 7.035156 13.921875 Z M 17.085938 13.777344 C 17.121094 13.648438 17.148438 13.4375 17.148438 13.3125 C 17.148438 13.070312 17.0625 12.863281 17.007812 12.960938 C 16.957031 13.046875 16.835938 13.765625 16.835938 13.984375 C 16.835938 14.148438 16.851562 14.164062 16.929688 14.097656 C 16.980469 14.050781 17.050781 13.910156 17.085938 13.777344 Z M 7.621094 13.621094 C 7.621094 13.105469 7.546875 12.875 7.4375 13.050781 C 7.355469 13.179688 7.355469 13.449219 7.441406 13.804688 C 7.546875 14.234375 7.625 14.15625 7.621094 13.621094 Z M 13.285156 13.753906 C 13.371094 13.421875 13.304688 12.59375 13.195312 12.59375 C 13.167969 12.59375 13.109375 12.707031 13.070312 12.851562 C 13.011719 13.054688 13.011719 13.195312 13.074219 13.503906 C 13.160156 13.921875 13.222656 13.996094 13.285156 13.753906 Z M 17.835938 13.179688 C 17.835938 12.828125 17.742188 12.726562 17.664062 12.992188 C 17.582031 13.273438 17.527344 13.816406 17.578125 13.871094 C 17.644531 13.9375 17.835938 13.425781 17.835938 13.179688 Z M 6.605469 13.050781 C 6.628906 12.667969 6.613281 12.4375 6.558594 12.332031 C 6.449219 12.121094 6.398438 12.246094 6.34375 12.832031 C 6.292969 13.382812 6.398438 13.949219 6.511719 13.738281 C 6.546875 13.671875 6.589844 13.363281 6.605469 13.050781 Z M 9.65625 13.21875 C 9.636719 13.105469 9.59375 12.964844 9.5625 12.914062 C 9.511719 12.832031 9.496094 12.835938 9.441406 12.917969 C 9.359375 13.050781 9.363281 13.285156 9.449219 13.605469 L 9.523438 13.867188 L 9.609375 13.648438 C 9.660156 13.523438 9.679688 13.34375 9.65625 13.21875 Z M 9.003906 13.308594 C 9.003906 12.886719 8.890625 12.53125 8.804688 12.671875 C 8.730469 12.792969 8.738281 13.492188 8.816406 13.644531 C 8.925781 13.855469 9.003906 13.71875 9.003906 13.308594 Z M 5.988281 13.496094 C 6.070312 13.253906 6.082031 12.550781 6.003906 12.5 C 5.933594 12.457031 5.804688 13.050781 5.804688 13.414062 C 5.804688 13.75 5.890625 13.789062 5.988281 13.496094 Z M 12.027344 13.136719 C 12.03125 12.628906 11.96875 12.347656 11.871094 12.449219 C 11.796875 12.527344 11.785156 13.1875 11.851562 13.496094 C 11.925781 13.84375 12.019531 13.644531 12.027344 13.136719 Z M 12.605469 13.574219 C 12.628906 13.5 12.648438 13.289062 12.652344 13.097656 C 12.660156 12.53125 12.507812 12.238281 12.425781 12.664062 C 12.3125 13.25 12.46875 14.027344 12.605469 13.574219 Z M 14.011719 13.117188 C 14.011719 12.917969 13.972656 12.683594 13.925781 12.59375 L 13.835938 12.429688 L 13.785156 12.625 C 13.71875 12.878906 13.71875 13.4375 13.785156 13.605469 C 13.835938 13.734375 13.835938 13.734375 13.925781 13.609375 C 13.980469 13.535156 14.015625 13.335938 14.011719 13.117188 Z M 14.605469 13.535156 C 14.660156 13.378906 14.648438 12.636719 14.585938 12.535156 C 14.472656 12.351562 14.390625 12.542969 14.390625 12.984375 C 14.390625 13.441406 14.429688 13.636719 14.515625 13.636719 C 14.542969 13.636719 14.582031 13.589844 14.605469 13.535156 Z M 15.351562 13.078125 C 15.347656 12.730469 15.238281 12.433594 15.140625 12.496094 C 15.058594 12.546875 15.066406 13.257812 15.148438 13.488281 C 15.210938 13.664062 15.21875 13.664062 15.285156 13.539062 C 15.324219 13.46875 15.355469 13.261719 15.351562 13.078125 Z M 18.289062 13.339844 C 18.347656 13.128906 18.300781 12.722656 18.21875 12.722656 C 18.15625 12.722656 18.089844 13.050781 18.089844 13.355469 C 18.089844 13.632812 18.214844 13.621094 18.289062 13.339844 Z M 11.351562 13.246094 C 11.402344 12.945312 11.335938 12.351562 11.253906 12.292969 C 11.148438 12.226562 11.058594 12.617188 11.089844 12.996094 C 11.136719 13.570312 11.277344 13.703125 11.351562 13.246094 Z M 15.957031 13.054688 C 15.957031 12.683594 15.8125 12.25 15.746094 12.425781 C 15.683594 12.601562 15.699219 13.175781 15.773438 13.316406 C 15.875 13.515625 15.957031 13.398438 15.957031 13.054688 Z M 8.421875 12.578125 C 8.386719 12.054688 8.289062 11.886719 8.1875 12.167969 C 8.121094 12.351562 8.132812 12.492188 8.261719 13.015625 C 8.316406 13.238281 8.332031 13.257812 8.390625 13.152344 C 8.425781 13.085938 8.441406 12.835938 8.421875 12.578125 Z M 10.570312 12.730469 C 10.570312 12.378906 10.542969 12.191406 10.484375 12.144531 C 10.359375 12.035156 10.316406 12.121094 10.316406 12.496094 C 10.316406 12.855469 10.417969 13.246094 10.511719 13.246094 C 10.542969 13.246094 10.570312 13.015625 10.570312 12.730469 Z M 5.554688 13.125 C 5.554688 13.097656 5.492188 13.007812 5.410156 12.929688 C 5.300781 12.824219 5.25 12.808594 5.191406 12.867188 C 5.078125 12.984375 5.023438 12.875 5.105469 12.6875 C 5.207031 12.457031 5.199219 12.035156 5.089844 11.941406 C 5.015625 11.878906 4.992188 11.90625 4.960938 12.113281 C 4.882812 12.605469 4.859375 12.664062 4.707031 12.734375 C 4.515625 12.828125 4.4375 12.757812 4.539062 12.589844 C 4.632812 12.4375 4.640625 12.070312 4.550781 12.070312 C 4.515625 12.070312 4.460938 12.140625 4.429688 12.226562 C 4.367188 12.398438 4.121094 12.605469 4.042969 12.554688 C 4.011719 12.535156 4.046875 12.40625 4.113281 12.265625 C 4.238281 12.007812 4.285156 11.613281 4.1875 11.613281 C 4.085938 11.613281 3.851562 11.929688 3.769531 12.175781 C 3.664062 12.5 3.570312 12.523438 3.460938 12.261719 C 3.316406 11.894531 3.53125 11.417969 4.011719 11.054688 C 4.578125 10.625 5.675781 10.007812 6.191406 9.824219 C 7.019531 9.535156 8.519531 9.449219 9.847656 9.613281 C 12.421875 9.941406 12.355469 9.9375 13.425781 9.824219 C 14.558594 9.703125 14.578125 9.703125 16.132812 9.332031 C 19.027344 8.644531 21.726562 8.914062 24.621094 10.179688 C 26.203125 10.871094 26.535156 11.082031 26.683594 11.515625 C 26.726562 11.640625 26.777344 11.742188 26.796875 11.742188 C 26.816406 11.742188 26.898438 11.640625 26.980469 11.515625 C 27.519531 10.6875 26.84375 9.015625 25.5 7.851562 C 24.96875 7.394531 24.390625 7.03125 23.675781 6.707031 C 23.175781 6.484375 22.761719 6.367188 20.691406 5.855469 C 19.953125 5.675781 19.269531 5.398438 18.136719 4.828125 C 16.117188 3.804688 15.234375 3.589844 13.375 3.660156 C 12.300781 3.703125 11.632812 3.832031 10.582031 4.203125 C 9.378906 4.625 8.382812 5.199219 6.996094 6.261719 C 6.601562 6.566406 5.925781 7.066406 5.496094 7.367188 C 4.1875 8.289062 3.351562 9.289062 2.929688 10.429688 C 2.3125 12.097656 3.148438 13.109375 5.195312 13.167969 C 5.394531 13.175781 5.554688 13.15625 5.554688 13.125 Z M 26.550781 10.265625 C 26.449219 10.03125 26.238281 9.65625 26.085938 9.433594 C 25.816406 9.042969 24.976562 8.152344 24.671875 7.933594 C 24.476562 7.796875 24.550781 7.710938 24.777344 7.816406 C 25.292969 8.0625 26.226562 9.117188 26.542969 9.816406 C 26.703125 10.164062 26.835938 10.699219 26.765625 10.699219 C 26.75 10.699219 26.652344 10.503906 26.550781 10.265625 Z M 3.488281 10.421875 C 3.488281 10.210938 4 9.523438 4.15625 9.523438 C 4.285156 9.523438 4.265625 9.5625 3.890625 10.046875 C 3.535156 10.515625 3.488281 10.558594 3.488281 10.421875 Z M 25.703125 9.863281 C 25.574219 9.65625 25.371094 9.363281 25.25 9.210938 C 24.929688 8.796875 25.035156 8.710938 25.386719 9.097656 C 25.6875 9.425781 25.9375 9.824219 26.015625 10.09375 C 26.089844 10.355469 25.945312 10.25 25.703125 9.863281 Z M 4.425781 10.046875 C 4.425781 9.949219 4.691406 9.71875 4.753906 9.757812 C 4.835938 9.8125 4.601562 10.105469 4.472656 10.109375 C 4.449219 10.109375 4.425781 10.082031 4.425781 10.046875 Z M 24.402344 9.207031 C 23.984375 8.777344 23.914062 8.675781 24.023438 8.671875 C 24.179688 8.671875 24.890625 9.328125 24.953125 9.53125 C 25.035156 9.796875 24.910156 9.722656 24.402344 9.207031 Z M 23.5625 9.171875 C 23.371094 9.066406 22.976562 8.683594 22.976562 8.605469 C 22.976562 8.496094 23.0625 8.535156 23.351562 8.777344 C 23.738281 9.09375 23.871094 9.347656 23.5625 9.171875 Z M 12.714844 8.855469 C 12.746094 8.75 12.933594 8.636719 12.988281 8.6875 C 13.046875 8.75 12.894531 8.933594 12.78125 8.933594 C 12.730469 8.933594 12.699219 8.898438 12.714844 8.855469 Z M 12.074219 8.804688 C 12.074219 8.714844 12.382812 8.515625 12.433594 8.570312 C 12.460938 8.597656 12.414062 8.675781 12.332031 8.742188 C 12.171875 8.878906 12.074219 8.902344 12.074219 8.804688 Z M 11.445312 8.75 C 11.445312 8.660156 11.59375 8.542969 11.710938 8.542969 C 11.871094 8.542969 11.847656 8.640625 11.664062 8.726562 C 11.472656 8.816406 11.445312 8.820312 11.445312 8.75 Z M 22.113281 8.722656 C 21.945312 8.636719 21.929688 8.542969 22.085938 8.542969 C 22.203125 8.542969 22.351562 8.660156 22.351562 8.75 C 22.351562 8.816406 22.289062 8.8125 22.113281 8.722656 Z M 24.167969 8.277344 C 23.589844 7.800781 23.488281 7.625 23.929688 7.863281 C 24.148438 7.980469 24.730469 8.527344 24.730469 8.617188 C 24.730469 8.71875 24.640625 8.664062 24.167969 8.277344 Z M 9.628906 8.546875 C 9.628906 8.476562 9.792969 8.40625 9.839844 8.457031 C 9.859375 8.476562 9.859375 8.519531 9.84375 8.550781 C 9.796875 8.625 9.628906 8.625 9.628906 8.546875 Z M 10.882812 8.542969 C 10.882812 8.449219 11.246094 8.269531 11.285156 8.339844 C 11.328125 8.410156 11.285156 8.445312 11.046875 8.539062 C 10.945312 8.578125 10.882812 8.578125 10.882812 8.542969 Z M 10.308594 8.390625 C 10.359375 8.328125 10.46875 8.28125 10.558594 8.28125 C 10.761719 8.28125 10.671875 8.382812 10.414062 8.449219 C 10.242188 8.492188 10.230469 8.488281 10.308594 8.390625 Z M 13.765625 8.3125 C 13.914062 8.148438 14.078125 8.09375 14.078125 8.210938 C 14.078125 8.292969 13.824219 8.476562 13.707031 8.476562 C 13.644531 8.476562 13.660156 8.429688 13.765625 8.3125 Z M 23.179688 8.171875 C 22.789062 7.878906 22.6875 7.742188 22.902344 7.800781 C 23.054688 7.84375 23.617188 8.289062 23.652344 8.394531 C 23.691406 8.527344 23.59375 8.480469 23.179688 8.171875 Z M 22.257812 8.179688 C 22.085938 8.054688 21.917969 7.945312 21.882812 7.929688 C 21.847656 7.917969 21.835938 7.882812 21.863281 7.855469 C 21.925781 7.785156 22.484375 8.101562 22.589844 8.269531 C 22.714844 8.464844 22.621094 8.441406 22.257812 8.179688 Z M 13.199219 8.21875 C 13.199219 8.144531 13.453125 7.886719 13.527344 7.886719 C 13.589844 7.886719 13.589844 7.960938 13.527344 8.058594 C 13.457031 8.167969 13.199219 8.296875 13.199219 8.21875 Z M 21.207031 8.175781 C 21.054688 8.089844 20.972656 7.953125 21.070312 7.953125 C 21.160156 7.953125 21.535156 8.171875 21.535156 8.222656 C 21.535156 8.308594 21.402344 8.289062 21.207031 8.175781 Z M 12.511719 8.121094 C 12.511719 8.023438 12.691406 7.886719 12.828125 7.886719 C 12.921875 7.886719 12.792969 8.0625 12.625 8.15625 C 12.539062 8.203125 12.511719 8.195312 12.511719 8.121094 Z M 5.304688 8.089844 C 5.304688 7.941406 6.207031 7.296875 6.410156 7.304688 C 6.523438 7.308594 6.523438 7.3125 6.410156 7.386719 C 6.347656 7.429688 6.152344 7.578125 5.972656 7.714844 C 5.578125 8.019531 5.304688 8.171875 5.304688 8.089844 Z M 11.820312 8.089844 C 11.820312 8.003906 12.078125 7.824219 12.195312 7.824219 C 12.257812 7.828125 12.226562 7.882812 12.105469 7.988281 C 11.90625 8.160156 11.820312 8.1875 11.820312 8.089844 Z M 6.90625 7.503906 C 6.972656 7.433594 7.097656 7.359375 7.183594 7.335938 L 7.339844 7.292969 L 7.164062 7.460938 C 6.953125 7.664062 6.703125 7.703125 6.90625 7.503906 Z M 19.890625 7.550781 C 19.703125 7.480469 19.65625 7.367188 19.816406 7.367188 C 19.949219 7.367188 20.15625 7.488281 20.15625 7.5625 C 20.15625 7.640625 20.117188 7.636719 19.890625 7.550781 Z M 20.9375 7.46875 C 20.867188 7.417969 20.742188 7.367188 20.660156 7.355469 C 20.492188 7.328125 20.40625 7.167969 20.5625 7.167969 C 20.683594 7.167969 21.136719 7.402344 21.191406 7.496094 C 21.246094 7.59375 21.082031 7.574219 20.9375 7.46875 Z M 22.726562 7.3125 C 22.398438 7.117188 22.347656 7.066406 22.460938 7.050781 C 22.613281 7.027344 23.171875 7.347656 23.210938 7.484375 C 23.25 7.601562 23.171875 7.574219 22.726562 7.3125 Z M 23.78125 7.394531 C 23.460938 7.222656 23.351562 7.105469 23.507812 7.105469 C 23.625 7.105469 24.105469 7.425781 24.105469 7.503906 C 24.105469 7.578125 24.125 7.582031 23.78125 7.394531 Z M 21.757812 7.269531 C 21.503906 7.148438 21.355469 7.042969 21.394531 7.015625 C 21.527344 6.929688 22.328125 7.359375 22.21875 7.457031 C 22.203125 7.46875 21.996094 7.382812 21.757812 7.269531 Z M 7.121094 6.914062 C 7.121094 6.808594 7.730469 6.386719 7.882812 6.386719 C 7.996094 6.386719 7.933594 6.453125 7.609375 6.679688 C 7.167969 6.988281 7.121094 7.011719 7.121094 6.914062 Z M 8.121094 6.773438 C 8.328125 6.589844 8.5 6.523438 8.5 6.628906 C 8.5 6.699219 8.082031 6.972656 7.984375 6.972656 C 7.941406 6.96875 8.003906 6.882812 8.121094 6.773438 Z M 9.253906 6.15625 C 9.390625 6 9.628906 5.933594 9.628906 6.046875 C 9.628906 6.097656 9.234375 6.320312 9.144531 6.320312 C 9.125 6.320312 9.171875 6.246094 9.253906 6.15625 Z M 8.4375 6.058594 C 8.4375 5.980469 8.808594 5.734375 8.921875 5.734375 C 9.074219 5.730469 9 5.839844 8.757812 5.980469 C 8.484375 6.140625 8.4375 6.152344 8.4375 6.058594 Z M 18.019531 5.90625 C 17.597656 5.726562 17.277344 5.523438 17.121094 5.34375 C 16.964844 5.164062 17.105469 5.167969 17.351562 5.351562 C 17.457031 5.429688 17.753906 5.585938 18.011719 5.703125 C 18.269531 5.820312 18.507812 5.949219 18.546875 5.988281 C 18.664062 6.109375 18.398438 6.070312 18.019531 5.90625 Z M 16.898438 5.851562 C 16.777344 5.777344 16.710938 5.699219 16.753906 5.6875 C 16.835938 5.65625 17.183594 5.828125 17.242188 5.929688 C 17.308594 6.039062 17.128906 6 16.898438 5.851562 Z M 19.046875 5.832031 C 18.234375 5.503906 16.835938 4.730469 16.835938 4.609375 C 16.835938 4.484375 17.113281 4.578125 17.597656 4.867188 C 18.382812 5.339844 19.488281 5.863281 19.695312 5.863281 C 19.738281 5.863281 19.789062 5.890625 19.8125 5.929688 C 19.882812 6.046875 19.445312 5.992188 19.046875 5.832031 Z M 15.09375 5.652344 C 14.898438 5.449219 15.09375 5.40625 15.332031 5.601562 L 15.488281 5.730469 L 15.328125 5.730469 C 15.242188 5.730469 15.132812 5.695312 15.09375 5.652344 Z M 15.753906 5.457031 C 15.453125 5.320312 15.367188 5.210938 15.566406 5.210938 C 15.707031 5.210938 16.082031 5.449219 16.082031 5.535156 C 16.082031 5.570312 16.078125 5.597656 16.066406 5.597656 C 16.058594 5.59375 15.917969 5.53125 15.753906 5.457031 Z M 16.160156 5.125 C 15.828125 4.914062 15.753906 4.816406 15.929688 4.816406 C 16.070312 4.816406 16.523438 5.148438 16.523438 5.25 C 16.523438 5.363281 16.546875 5.371094 16.160156 5.125 Z M 13.699219 5.109375 C 13.65625 5.054688 13.636719 4.996094 13.65625 4.972656 C 13.691406 4.9375 14.078125 5.125 14.078125 5.179688 C 14.078125 5.253906 13.773438 5.199219 13.699219 5.109375 Z M 14.34375 4.949219 C 14.164062 4.835938 14.070312 4.6875 14.179688 4.6875 C 14.257812 4.6875 14.703125 4.972656 14.703125 5.027344 C 14.703125 5.117188 14.558594 5.085938 14.34375 4.949219 Z M 14.972656 4.804688 C 14.859375 4.734375 14.765625 4.648438 14.765625 4.617188 C 14.765625 4.496094 14.960938 4.5625 15.15625 4.75 C 15.394531 4.972656 15.28125 5.007812 14.972656 4.804688 Z M 12.664062 4.617188 C 12.644531 4.578125 12.640625 4.53125 12.660156 4.511719 C 12.710938 4.457031 13.011719 4.550781 13.011719 4.621094 C 13.011719 4.710938 12.71875 4.703125 12.664062 4.617188 Z M 16.222656 4.605469 C 16.148438 4.566406 16.082031 4.511719 16.082031 4.480469 C 16.082031 4.375 16.316406 4.425781 16.429688 4.554688 C 16.558594 4.707031 16.464844 4.726562 16.222656 4.605469 Z M 13.640625 4.449219 C 13.300781 4.390625 13.199219 4.355469 13.199219 4.285156 C 13.199219 4.183594 13.707031 4.273438 13.824219 4.394531 C 13.875 4.449219 13.890625 4.488281 13.855469 4.480469 C 13.824219 4.476562 13.726562 4.460938 13.640625 4.449219 Z M 15.226562 4.425781 C 15.074219 4.363281 14.976562 4.230469 15.082031 4.230469 C 15.164062 4.230469 15.519531 4.417969 15.519531 4.460938 C 15.519531 4.507812 15.378906 4.488281 15.226562 4.425781 Z M 14.289062 4.316406 C 14.15625 4.289062 14.023438 4.097656 14.140625 4.097656 C 14.261719 4.097656 14.515625 4.230469 14.515625 4.292969 C 14.515625 4.332031 14.496094 4.355469 14.46875 4.351562 C 14.445312 4.347656 14.363281 4.332031 14.289062 4.316406 Z M 16.765625 12.804688 C 16.828125 12.457031 16.773438 11.9375 16.671875 11.9375 C 16.597656 11.9375 16.460938 12.414062 16.460938 12.660156 C 16.460938 12.933594 16.546875 13.179688 16.640625 13.179688 C 16.671875 13.179688 16.726562 13.011719 16.765625 12.804688 Z M 9.972656 12.917969 C 10.023438 12.683594 9.96875 12.296875 9.851562 12.078125 L 9.769531 11.921875 L 9.730469 12.144531 C 9.707031 12.269531 9.71875 12.527344 9.753906 12.71875 C 9.789062 12.910156 9.816406 13.078125 9.816406 13.089844 C 9.816406 13.105469 9.84375 13.113281 9.875 13.113281 C 9.90625 13.113281 9.949219 13.027344 9.972656 12.917969 Z M 7.273438 12.945312 C 7.335938 12.773438 7.316406 12.199219 7.242188 12.054688 C 7.140625 11.859375 7.0625 12.023438 7.0625 12.429688 C 7.0625 12.949219 7.171875 13.21875 7.273438 12.945312 Z M 17.492188 12.507812 C 17.492188 12.285156 17.46875 12.042969 17.441406 11.972656 L 17.386719 11.839844 L 17.335938 11.972656 C 17.269531 12.132812 17.257812 12.945312 17.316406 13.007812 C 17.414062 13.109375 17.492188 12.890625 17.492188 12.507812 Z M 7.84375 12.410156 C 7.84375 11.996094 7.78125 11.777344 7.6875 11.839844 C 7.617188 11.886719 7.597656 12.648438 7.664062 12.820312 C 7.738281 13.027344 7.84375 12.792969 7.84375 12.410156 Z M 5.78125 12.351562 C 5.835938 12.046875 5.695312 11.578125 5.582031 11.691406 C 5.511719 11.765625 5.476562 12.308594 5.523438 12.570312 C 5.5625 12.804688 5.574219 12.8125 5.65625 12.695312 C 5.703125 12.625 5.757812 12.472656 5.78125 12.351562 Z M 9.316406 12.410156 C 9.316406 12.117188 9.203125 11.675781 9.132812 11.675781 C 8.992188 11.675781 9.019531 12.417969 9.167969 12.675781 C 9.234375 12.785156 9.316406 12.636719 9.316406 12.410156 Z M 12.972656 12.511719 C 13.070312 12.128906 12.964844 11.421875 12.824219 11.515625 C 12.703125 11.589844 12.761719 12.65625 12.886719 12.65625 C 12.914062 12.65625 12.953125 12.589844 12.972656 12.511719 Z M 13.636719 12.113281 C 13.636719 11.660156 13.570312 11.402344 13.476562 11.5 C 13.359375 11.621094 13.460938 12.699219 13.578125 12.621094 C 13.613281 12.601562 13.640625 12.375 13.636719 12.113281 Z M 18.652344 12.113281 C 18.652344 11.605469 18.574219 11.375 18.464844 11.546875 C 18.382812 11.675781 18.386719 12.371094 18.46875 12.53125 C 18.582031 12.757812 18.652344 12.597656 18.652344 12.113281 Z M 12.308594 11.820312 C 12.28125 11.355469 12.195312 11.128906 12.105469 11.28125 C 12.035156 11.402344 12.0625 12.234375 12.144531 12.425781 L 12.222656 12.601562 L 12.277344 12.449219 C 12.308594 12.367188 12.320312 12.082031 12.308594 11.820312 Z M 14.917969 11.921875 C 14.914062 11.449219 14.816406 11.117188 14.703125 11.191406 C 14.621094 11.242188 14.625 11.976562 14.710938 12.289062 C 14.8125 12.679688 14.921875 12.484375 14.917969 11.921875 Z M 19.347656 12.265625 C 19.40625 12.0625 19.40625 11.945312 19.347656 11.742188 C 19.308594 11.597656 19.25 11.492188 19.222656 11.511719 C 19.082031 11.601562 19.082031 12.527344 19.222656 12.527344 C 19.25 12.527344 19.308594 12.410156 19.347656 12.265625 Z M 15.582031 12.078125 C 15.582031 11.664062 15.480469 11.261719 15.386719 11.320312 C 15.308594 11.371094 15.316406 12.179688 15.394531 12.335938 C 15.511719 12.5625 15.582031 12.46875 15.582031 12.078125 Z M 16.207031 12.074219 C 16.207031 11.753906 16.117188 11.386719 16 11.230469 C 15.882812 11.074219 15.828125 11.472656 15.90625 11.90625 C 16.019531 12.542969 16.207031 12.648438 16.207031 12.074219 Z M 17.988281 12.316406 C 18.050781 12.058594 18.027344 11.640625 17.941406 11.515625 C 17.820312 11.347656 17.753906 11.488281 17.761719 11.886719 C 17.773438 12.40625 17.902344 12.648438 17.988281 12.316406 Z M 14.265625 11.902344 C 14.265625 11.382812 14.175781 11.058594 14.074219 11.226562 C 13.949219 11.429688 14.066406 12.394531 14.214844 12.394531 C 14.242188 12.394531 14.265625 12.175781 14.265625 11.902344 Z M 6.304688 11.828125 C 6.308594 11.601562 6.195312 11.285156 6.109375 11.285156 C 6.046875 11.285156 6.039062 12.222656 6.101562 12.289062 C 6.167969 12.359375 6.304688 12.058594 6.304688 11.828125 Z M 8.75 11.765625 C 8.75 11.347656 8.679688 11.089844 8.5625 11.089844 C 8.480469 11.089844 8.484375 11.980469 8.566406 12.140625 C 8.679688 12.359375 8.75 12.210938 8.75 11.765625 Z M 10.90625 12.117188 C 10.992188 11.777344 10.878906 11.175781 10.703125 11.0625 C 10.558594 10.96875 10.578125 11.640625 10.730469 12.152344 C 10.777344 12.308594 10.859375 12.292969 10.90625 12.117188 Z M 11.660156 12.164062 C 11.773438 11.851562 11.652344 10.957031 11.5 10.957031 C 11.421875 10.957031 11.402344 11.960938 11.476562 12.183594 C 11.515625 12.296875 11.613281 12.285156 11.660156 12.164062 Z M 20.003906 11.972656 C 20.046875 11.730469 19.929688 11.261719 19.839844 11.320312 C 19.773438 11.363281 19.757812 12 19.820312 12.160156 C 19.875 12.3125 19.957031 12.226562 20.003906 11.972656 Z M 6.832031 11.988281 C 6.902344 11.714844 6.875 11.117188 6.785156 10.988281 C 6.703125 10.875 6.691406 10.882812 6.617188 11.140625 C 6.554688 11.359375 6.554688 11.488281 6.617188 11.777344 C 6.695312 12.15625 6.769531 12.230469 6.832031 11.988281 Z M 10.132812 11.136719 C 10.09375 11.003906 10.03125 10.894531 9.992188 10.894531 C 9.902344 10.894531 9.964844 11.710938 10.074219 11.972656 C 10.160156 12.164062 10.160156 12.164062 10.179688 11.777344 C 10.191406 11.558594 10.171875 11.273438 10.132812 11.136719 Z M 20.6875 11.882812 C 20.730469 11.683594 20.613281 11.089844 20.53125 11.089844 C 20.410156 11.089844 20.378906 11.53125 20.472656 11.890625 C 20.546875 12.167969 20.628906 12.164062 20.6875 11.882812 Z M 17.140625 11.773438 C 17.277344 11.453125 17.1875 10.558594 17.027344 10.660156 C 16.886719 10.753906 16.875 11.9375 17.019531 11.9375 C 17.042969 11.9375 17.097656 11.863281 17.140625 11.773438 Z M 4.804688 11.472656 C 4.804688 11.375 4.777344 11.277344 4.75 11.257812 C 4.664062 11.203125 4.484375 11.449219 4.519531 11.570312 C 4.628906 11.933594 4.617188 11.917969 4.714844 11.78125 C 4.761719 11.710938 4.804688 11.570312 4.804688 11.472656 Z M 7.496094 11.460938 C 7.492188 11.273438 7.457031 11.035156 7.410156 10.925781 C 7.339844 10.75 7.328125 10.746094 7.292969 10.859375 C 7.1875 11.234375 7.183594 11.417969 7.273438 11.644531 C 7.402344 11.960938 7.5 11.882812 7.496094 11.460938 Z M 9.53125 11.535156 C 9.527344 11.230469 9.402344 10.828125 9.308594 10.828125 C 9.226562 10.828125 9.242188 11.40625 9.328125 11.65625 C 9.429688 11.953125 9.535156 11.890625 9.53125 11.535156 Z M 8.125 11.449219 C 8.125 11.152344 8.019531 10.828125 7.925781 10.828125 C 7.851562 10.828125 7.859375 11.4375 7.9375 11.644531 C 8.027344 11.890625 8.125 11.785156 8.125 11.449219 Z M 5.304688 11.328125 C 5.304688 10.953125 5.277344 10.882812 5.140625 10.9375 C 5.035156 10.980469 5.027344 11.285156 5.125 11.511719 C 5.242188 11.773438 5.304688 11.707031 5.304688 11.328125 Z M 16.613281 11.382812 C 16.65625 11.128906 16.601562 10.707031 16.503906 10.582031 C 16.402344 10.445312 16.335938 10.613281 16.335938 11.011719 C 16.332031 11.5625 16.53125 11.828125 16.613281 11.382812 Z M 13.316406 10.917969 C 13.339844 10.429688 13.339844 10.425781 13.191406 10.445312 C 13.058594 10.46875 13.046875 10.496094 13.054688 10.792969 C 13.085938 11.683594 13.273438 11.773438 13.316406 10.917969 Z M 19.015625 11.136719 C 19.035156 10.761719 18.945312 10.464844 18.835938 10.535156 C 18.773438 10.578125 18.753906 11.28125 18.816406 11.445312 C 18.894531 11.65625 18.996094 11.496094 19.015625 11.136719 Z M 5.929688 10.914062 C 5.933594 10.605469 5.867188 10.527344 5.691406 10.640625 C 5.589844 10.707031 5.582031 10.757812 5.628906 11.015625 C 5.65625 11.183594 5.699219 11.363281 5.71875 11.417969 C 5.777344 11.582031 5.925781 11.226562 5.929688 10.914062 Z M 12.667969 11.136719 C 12.734375 10.695312 12.691406 10.46875 12.542969 10.46875 C 12.433594 10.46875 12.417969 10.507812 12.433594 10.796875 C 12.460938 11.449219 12.597656 11.640625 12.667969 11.136719 Z M 19.652344 10.796875 C 19.652344 10.382812 19.574219 10.226562 19.46875 10.433594 C 19.382812 10.605469 19.355469 11.21875 19.433594 11.34375 C 19.519531 11.492188 19.652344 11.164062 19.652344 10.796875 Z M 21.621094 11.203125 C 21.660156 10.957031 21.589844 10.535156 21.503906 10.535156 C 21.382812 10.535156 21.324219 10.882812 21.402344 11.152344 C 21.492188 11.472656 21.570312 11.488281 21.621094 11.203125 Z M 22.253906 11.226562 C 22.300781 11.011719 22.238281 10.566406 22.160156 10.566406 C 22.089844 10.566406 22.035156 10.746094 22.035156 10.992188 C 22.035156 11.410156 22.183594 11.566406 22.253906 11.226562 Z M 18.382812 10.976562 C 18.402344 10.8125 18.382812 10.648438 18.320312 10.527344 L 18.226562 10.339844 L 18.15625 10.613281 C 18.09375 10.859375 18.109375 11.148438 18.199219 11.308594 C 18.253906 11.410156 18.347656 11.238281 18.382812 10.976562 Z M 20.304688 10.765625 C 20.3125 10.363281 20.242188 10.164062 20.148438 10.316406 C 20.085938 10.417969 20.078125 10.988281 20.136719 11.210938 C 20.171875 11.355469 20.179688 11.355469 20.238281 11.246094 C 20.273438 11.183594 20.304688 10.964844 20.304688 10.765625 Z M 23 11.246094 C 23.058594 11.097656 23.046875 10.925781 22.972656 10.71875 C 22.921875 10.574219 22.894531 10.558594 22.847656 10.632812 C 22.753906 10.792969 22.773438 11.351562 22.875 11.351562 C 22.925781 11.351562 22.980469 11.304688 23 11.246094 Z M 13.851562 11.183594 C 13.871094 11.125 13.890625 10.917969 13.890625 10.71875 C 13.890625 10.414062 13.875 10.363281 13.792969 10.398438 C 13.738281 10.417969 13.679688 10.4375 13.664062 10.4375 C 13.625 10.4375 13.636719 11.066406 13.675781 11.183594 C 13.699219 11.238281 13.738281 11.285156 13.765625 11.285156 C 13.792969 11.285156 13.832031 11.238281 13.851562 11.183594 Z M 17.738281 11.183594 C 17.800781 11.011719 17.78125 10.511719 17.707031 10.464844 C 17.617188 10.40625 17.585938 10.449219 17.546875 10.71875 C 17.484375 11.113281 17.632812 11.46875 17.738281 11.183594 Z M 21.074219 11.117188 C 21.121094 10.914062 20.992188 10.414062 20.90625 10.472656 C 20.839844 10.515625 20.824219 11.175781 20.886719 11.242188 C 20.96875 11.328125 21.03125 11.285156 21.074219 11.117188 Z M 11.195312 10.757812 C 11.195312 10.546875 11.167969 10.367188 11.132812 10.359375 C 10.929688 10.328125 10.914062 10.347656 10.933594 10.601562 C 10.953125 10.921875 11.066406 11.230469 11.140625 11.183594 C 11.171875 11.164062 11.195312 10.972656 11.195312 10.757812 Z M 14.515625 10.761719 C 14.515625 10.347656 14.503906 10.304688 14.390625 10.304688 C 14.242188 10.304688 14.226562 10.480469 14.335938 10.929688 C 14.4375 11.355469 14.515625 11.285156 14.515625 10.761719 Z M 15.21875 10.664062 C 15.234375 10.246094 15.226562 10.207031 15.113281 10.207031 C 15 10.207031 14.988281 10.25 14.992188 10.605469 C 15.003906 11.382812 15.183594 11.429688 15.21875 10.664062 Z M 15.820312 10.476562 C 15.804688 10.230469 15.777344 10.140625 15.707031 10.140625 C 15.636719 10.140625 15.609375 10.246094 15.59375 10.59375 C 15.585938 10.839844 15.59375 11.089844 15.617188 11.148438 C 15.691406 11.335938 15.839844 10.84375 15.820312 10.476562 Z M 6.433594 10.730469 C 6.433594 10.453125 6.410156 10.371094 6.335938 10.371094 C 6.191406 10.371094 6.15625 10.546875 6.238281 10.832031 C 6.34375 11.199219 6.433594 11.152344 6.433594 10.730469 Z M 12 10.707031 C 12.015625 10.472656 12 10.4375 11.886719 10.4375 C 11.75 10.4375 11.738281 10.496094 11.800781 10.824219 C 11.855469 11.109375 11.976562 11.039062 12 10.707031 Z M 9.003906 10.496094 C 9.003906 10.128906 8.996094 10.109375 8.847656 10.109375 C 8.699219 10.109375 8.691406 10.121094 8.730469 10.421875 C 8.8125 11.066406 9.003906 11.121094 9.003906 10.496094 Z M 8.363281 10.429688 C 8.347656 10.128906 8.328125 10.078125 8.21875 10.078125 C 8.109375 10.078125 8.097656 10.113281 8.109375 10.363281 C 8.132812 10.703125 8.234375 10.9375 8.320312 10.84375 C 8.355469 10.808594 8.375 10.625 8.363281 10.429688 Z M 7.089844 10.695312 C 7.160156 10.476562 7.066406 10.175781 6.929688 10.175781 C 6.789062 10.175781 6.78125 10.230469 6.882812 10.574219 C 6.960938 10.855469 7.03125 10.894531 7.089844 10.695312 Z M 9.691406 10.5 C 9.691406 10.195312 9.679688 10.175781 9.535156 10.175781 C 9.351562 10.175781 9.359375 10.15625 9.445312 10.441406 C 9.484375 10.566406 9.523438 10.703125 9.539062 10.746094 C 9.597656 10.949219 9.691406 10.796875 9.691406 10.5 Z M 10.496094 10.492188 C 10.480469 10.320312 10.445312 10.269531 10.328125 10.25 C 10.171875 10.226562 10.171875 10.253906 10.328125 10.691406 C 10.40625 10.910156 10.519531 10.777344 10.496094 10.492188 Z M 7.75 10.4375 C 7.75 10.128906 7.738281 10.109375 7.582031 10.109375 C 7.429688 10.109375 7.421875 10.125 7.457031 10.34375 C 7.492188 10.582031 7.59375 10.761719 7.695312 10.761719 C 7.722656 10.761719 7.75 10.617188 7.75 10.4375 Z M 23.402344 10.410156 C 23.378906 10.226562 23.164062 10.183594 23.164062 10.359375 C 23.164062 10.433594 23.183594 10.539062 23.203125 10.597656 C 23.257812 10.746094 23.425781 10.589844 23.402344 10.410156 Z M 22.699219 10.402344 C 22.753906 10.179688 22.691406 10.042969 22.535156 10.042969 C 22.429688 10.042969 22.410156 10.070312 22.445312 10.191406 C 22.46875 10.273438 22.5 10.390625 22.515625 10.453125 C 22.558594 10.617188 22.65625 10.59375 22.699219 10.402344 Z M 16.257812 10.152344 C 16.28125 9.898438 16.273438 9.890625 16.121094 9.953125 C 16.015625 9.996094 15.992188 10.152344 16.058594 10.335938 C 16.125 10.511719 16.238281 10.410156 16.257812 10.152344 Z M 22.046875 10.277344 C 22.125 10.09375 22.082031 9.929688 21.941406 9.871094 C 21.796875 9.8125 21.777344 9.867188 21.824219 10.167969 C 21.871094 10.472656 21.945312 10.507812 22.046875 10.277344 Z M 16.933594 10.210938 C 16.988281 9.984375 16.910156 9.78125 16.769531 9.78125 C 16.675781 9.78125 16.648438 9.828125 16.648438 9.972656 C 16.648438 10.363281 16.855469 10.535156 16.933594 10.210938 Z M 18.683594 10.179688 C 18.734375 10.070312 18.777344 9.878906 18.777344 9.75 C 18.777344 9.558594 18.757812 9.515625 18.667969 9.535156 C 18.582031 9.550781 18.554688 9.636719 18.539062 9.964844 C 18.53125 10.1875 18.535156 10.371094 18.554688 10.371094 C 18.570312 10.371094 18.628906 10.285156 18.683594 10.179688 Z M 20.722656 10.011719 C 20.722656 9.695312 20.707031 9.652344 20.59375 9.652344 C 20.453125 9.652344 20.4375 9.761719 20.535156 10.125 C 20.632812 10.480469 20.722656 10.425781 20.722656 10.011719 Z M 17.566406 9.894531 C 17.601562 9.667969 17.59375 9.652344 17.4375 9.652344 C 17.292969 9.652344 17.273438 9.679688 17.273438 9.875 C 17.273438 10 17.292969 10.148438 17.3125 10.207031 C 17.375 10.371094 17.519531 10.191406 17.566406 9.894531 Z M 21.382812 10.148438 C 21.4375 9.917969 21.394531 9.753906 21.269531 9.730469 C 21.152344 9.707031 21.125 9.871094 21.199219 10.160156 C 21.25 10.351562 21.335938 10.347656 21.382812 10.148438 Z M 19.328125 10.09375 C 19.421875 9.96875 19.484375 9.605469 19.414062 9.558594 C 19.265625 9.464844 19.152344 9.605469 19.152344 9.886719 C 19.152344 10.175781 19.210938 10.242188 19.328125 10.09375 Z M 20.09375 9.769531 C 20.09375 9.617188 20.066406 9.585938 19.9375 9.585938 C 19.800781 9.585938 19.78125 9.617188 19.78125 9.800781 C 19.78125 10.085938 19.90625 10.222656 20.015625 10.066406 C 20.058594 10.003906 20.09375 9.871094 20.09375 9.769531 Z M 18.152344 9.773438 C 18.152344 9.628906 18.121094 9.585938 18.027344 9.585938 C 17.898438 9.585938 17.855469 9.78125 17.941406 10.007812 C 18 10.171875 18.152344 10.003906 18.152344 9.773438 Z M 18.152344 9.773438 "/>
</g>
</svg>
