<?xml version="1.0" encoding="UTF-8"?>
<svg xmlns="http://www.w3.org/2000/svg" xmlns:xlink="http://www.w3.org/1999/xlink" width="32px" height="32px" viewBox="0 0 32 32" version="1.1">
<g id="surface1">
<path style=" stroke:none;fill-rule:nonzero;fill:rgb(38.431373%,38.431373%,38.431373%);fill-opacity:1;" d="M 8.707031 29.867188 C 8.707031 29.800781 9.214844 29.605469 9.835938 29.433594 C 10.457031 29.257812 10.996094 29.082031 11.039062 29.039062 C 11.078125 29 11.144531 28.664062 11.183594 28.296875 C 11.242188 27.765625 11.167969 27.449219 10.8125 26.726562 C 9.820312 24.683594 8.769531 21.976562 7.800781 18.945312 C 7.132812 16.863281 6.40625 14.964844 5.726562 13.53125 C 4.578125 11.105469 4.410156 10.285156 4.902344 9.507812 C 5.128906 9.148438 5.261719 9.09375 5.917969 9.09375 C 6.59375 9.09375 6.730469 9.15625 7.164062 9.628906 C 7.433594 9.925781 7.691406 10.164062 7.738281 10.164062 C 7.78125 10.164062 7.820312 9.90625 7.820312 9.59375 C 7.824219 7.746094 8.757812 6.757812 9.953125 7.34375 C 10.75 7.734375 10.902344 8.449219 10.8125 11.40625 C 10.730469 14.109375 10.851562 15.472656 11.128906 14.984375 C 11.550781 14.242188 11.9375 13.984375 12.628906 13.984375 L 13.304688 13.984375 L 13.210938 13.179688 C 12.925781 10.707031 12.179688 8.292969 11.21875 6.722656 C 10.640625 5.777344 10.484375 5.382812 10.484375 4.882812 C 10.484375 3.949219 10.917969 3.445312 11.722656 3.445312 C 12.070312 3.445312 12.480469 3.546875 12.636719 3.667969 C 13.011719 3.960938 13.148438 3.957031 13.148438 3.65625 C 13.148438 3.140625 13.785156 2.230469 14.257812 2.070312 C 14.792969 1.886719 15.144531 1.980469 15.628906 2.429688 C 15.957031 2.734375 15.964844 2.796875 15.941406 5.769531 C 15.910156 9.601562 16.011719 9.84375 16.605469 7.363281 C 16.800781 6.550781 17.074219 5.710938 17.207031 5.496094 C 17.867188 4.457031 19.152344 4.691406 19.5625 5.929688 C 19.828125 6.726562 19.640625 8.105469 18.929688 10.621094 C 18.234375 13.085938 17.878906 14.925781 17.882812 16.097656 C 17.886719 17.742188 18.226562 17.703125 19.234375 15.945312 C 20.460938 13.820312 21 11.917969 21.207031 9.019531 C 21.261719 8.261719 21.375 7.421875 21.453125 7.152344 C 21.664062 6.449219 22.226562 6.039062 22.992188 6.039062 C 23.519531 6.039062 23.691406 6.121094 24.007812 6.511719 C 24.363281 6.945312 24.390625 7.09375 24.390625 8.445312 L 24.390625 9.914062 L 24.738281 9.578125 C 25.179688 9.148438 25.941406 8.917969 26.363281 9.085938 C 26.539062 9.15625 26.84375 9.390625 27.039062 9.605469 C 27.59375 10.222656 27.425781 11.160156 26.5625 12.273438 C 25.378906 13.796875 22.414062 18.121094 21.363281 19.863281 C 19.519531 22.910156 18.585938 25.515625 18.59375 27.605469 C 18.59375 28.253906 18.636719 28.851562 18.6875 28.9375 C 18.738281 29.019531 19.027344 29.132812 19.328125 29.183594 C 20.183594 29.332031 21.285156 29.722656 21.285156 29.878906 C 21.285156 29.957031 20.113281 30.019531 18.546875 30.019531 C 17.042969 30.019531 15.808594 29.960938 15.808594 29.894531 C 15.808594 29.824219 16.226562 29.617188 16.738281 29.433594 L 17.664062 29.09375 L 17.667969 27.53125 C 17.667969 26.132812 17.726562 25.800781 18.21875 24.316406 C 19.25 21.21875 21.140625 17.976562 25.03125 12.648438 C 26.375 10.804688 26.589844 10.386719 26.335938 10.125 C 26.0625 9.84375 24.976562 10.507812 24.246094 11.402344 C 23.484375 12.332031 23.136719 12.394531 23.261719 11.578125 C 23.453125 10.351562 23.523438 8.378906 23.398438 7.796875 C 23.121094 6.488281 22.171875 7.457031 22.171875 9.046875 C 22.171875 11.90625 21.121094 15.1875 19.398438 17.707031 C 18.902344 18.433594 18.128906 18.894531 17.679688 18.730469 C 17.507812 18.667969 17.242188 18.378906 17.09375 18.09375 C 16.699219 17.332031 16.832031 14.605469 17.367188 12.53125 C 18.582031 7.804688 18.847656 6.378906 18.5625 6.082031 C 18.300781 5.808594 17.921875 6.421875 17.5 7.8125 C 16.609375 10.746094 16.152344 11.449219 15.527344 10.863281 C 15.058594 10.425781 14.875 9.4375 14.925781 7.644531 C 15.035156 3.691406 15.015625 3.226562 14.734375 3.167969 C 14.421875 3.105469 14.113281 3.773438 13.957031 4.851562 C 13.789062 6.027344 13.539062 6.085938 12.703125 5.15625 C 11.941406 4.304688 11.804688 4.238281 11.523438 4.585938 C 11.375 4.769531 11.417969 4.949219 11.75 5.539062 C 13.089844 7.941406 13.386719 8.722656 13.882812 11.15625 C 14.535156 14.359375 15.011719 22.164062 14.640625 23.558594 C 14.328125 24.742188 13.820312 24.960938 13.144531 24.210938 C 12.441406 23.433594 12.191406 22.40625 12.199219 20.320312 C 12.203125 18.746094 12.261719 18.308594 12.613281 17.21875 C 13.015625 15.953125 13.070312 15.199219 12.761719 15.097656 C 12.421875 14.980469 11.941406 15.628906 11.546875 16.730469 C 11.226562 17.625 11.074219 17.878906 10.847656 17.878906 C 10.078125 17.878906 9.652344 15.121094 9.820312 11.269531 C 9.910156 9.253906 9.890625 8.886719 9.683594 8.558594 C 9.160156 7.738281 8.945312 8.164062 8.632812 10.636719 C 8.5 11.679688 8.335938 12.59375 8.265625 12.667969 C 8.015625 12.925781 7.722656 12.628906 7.246094 11.628906 C 6.742188 10.574219 6.21875 10.0625 5.804688 10.226562 C 5.445312 10.371094 5.625 11.011719 6.570312 12.960938 C 7.03125 13.90625 7.875 16.105469 8.476562 17.945312 C 9.8125 22.011719 10.125 22.828125 11.328125 25.339844 C 12.234375 27.226562 12.28125 27.382812 12.234375 28.257812 C 12.1875 29.140625 12.199219 29.179688 12.554688 29.226562 C 13.269531 29.3125 14.480469 29.722656 14.480469 29.875 C 14.480469 29.972656 13.429688 30.019531 11.59375 30.007812 C 10.007812 29.996094 8.707031 29.933594 8.707031 29.867188 Z M 13.738281 20.136719 C 13.738281 17.425781 13.601562 17.074219 13.214844 18.789062 C 13 19.753906 13.027344 21.054688 13.285156 22.039062 C 13.609375 23.277344 13.738281 22.734375 13.738281 20.136719 Z M 13.738281 20.136719 "/>
</g>
</svg>
