<?xml version="1.0" encoding="UTF-8"?>
<svg xmlns="http://www.w3.org/2000/svg" xmlns:xlink="http://www.w3.org/1999/xlink" width="64px" height="64px" viewBox="0 0 64 64" version="1.1">
<g id="surface1">
<path style=" stroke:none;fill-rule:nonzero;fill:rgb(38.431373%,38.431373%,38.431373%);fill-opacity:1;" d="M 17.417969 59.738281 C 17.417969 59.605469 18.429688 59.210938 19.671875 58.863281 C 20.914062 58.515625 21.996094 58.164062 22.074219 58.078125 C 22.15625 57.996094 22.285156 57.328125 22.367188 56.597656 C 22.480469 55.53125 22.332031 54.898438 21.628906 53.449219 C 19.636719 49.367188 17.539062 43.953125 15.601562 37.890625 C 14.269531 33.730469 12.8125 29.929688 11.457031 27.0625 C 9.15625 22.210938 8.820312 20.570312 9.804688 19.019531 C 10.261719 18.296875 10.523438 18.191406 11.839844 18.191406 C 13.183594 18.191406 13.460938 18.308594 14.328125 19.261719 C 14.867188 19.847656 15.378906 20.328125 15.472656 20.328125 C 15.566406 20.328125 15.640625 19.8125 15.640625 19.183594 C 15.648438 15.492188 17.519531 13.515625 19.90625 14.6875 C 21.503906 15.46875 21.804688 16.898438 21.625 22.816406 C 21.464844 28.214844 21.703125 30.949219 22.257812 29.96875 C 23.097656 28.484375 23.875 27.964844 25.253906 27.964844 L 26.609375 27.964844 L 26.425781 26.363281 C 25.851562 21.414062 24.363281 16.589844 22.4375 13.445312 C 21.285156 11.554688 20.96875 10.765625 20.96875 9.769531 C 20.96875 7.898438 21.835938 6.890625 23.449219 6.890625 C 24.136719 6.890625 24.960938 7.089844 25.277344 7.335938 C 26.027344 7.921875 26.292969 7.917969 26.292969 7.3125 C 26.292969 6.285156 27.570312 4.460938 28.519531 4.136719 C 29.589844 3.773438 30.292969 3.957031 31.257812 4.855469 C 31.917969 5.46875 31.929688 5.597656 31.882812 11.539062 C 31.824219 19.203125 32.023438 19.683594 33.214844 14.726562 C 33.605469 13.101562 34.144531 11.421875 34.414062 10.996094 C 35.734375 8.917969 38.300781 9.386719 39.125 11.855469 C 39.65625 13.453125 39.285156 16.214844 37.859375 21.246094 C 36.464844 26.167969 35.761719 29.851562 35.769531 32.199219 C 35.777344 35.480469 36.449219 35.402344 38.472656 31.890625 C 40.917969 27.640625 42 23.835938 42.417969 18.039062 C 42.523438 16.527344 42.746094 14.84375 42.910156 14.300781 C 43.328125 12.894531 44.457031 12.082031 45.984375 12.082031 C 47.035156 12.082031 47.382812 12.242188 48.015625 13.023438 C 48.726562 13.890625 48.785156 14.183594 48.785156 16.894531 L 48.785156 19.824219 L 49.476562 19.152344 C 50.355469 18.300781 51.886719 17.839844 52.722656 18.175781 C 53.078125 18.316406 53.6875 18.785156 54.074219 19.214844 C 55.183594 20.445312 54.851562 22.320312 53.125 24.542969 C 50.757812 27.589844 44.832031 36.246094 42.726562 39.726562 C 39.039062 45.820312 37.175781 51.03125 37.183594 55.210938 C 37.1875 56.507812 37.273438 57.703125 37.375 57.871094 C 37.476562 58.042969 38.054688 58.265625 38.660156 58.371094 C 40.371094 58.667969 42.570312 59.445312 42.570312 59.757812 C 42.570312 59.917969 40.226562 60.039062 37.09375 60.039062 C 34.082031 60.039062 31.621094 59.925781 31.621094 59.789062 C 31.621094 59.652344 32.453125 59.234375 33.472656 58.863281 L 35.328125 58.1875 L 35.332031 55.066406 C 35.335938 52.269531 35.453125 51.597656 36.4375 48.636719 C 38.5 42.4375 42.285156 35.953125 50.0625 25.292969 C 52.753906 21.605469 53.183594 20.777344 52.671875 20.25 C 52.128906 19.6875 49.953125 21.015625 48.492188 22.804688 C 46.972656 24.664062 46.277344 24.789062 46.527344 23.15625 C 46.902344 20.707031 47.042969 16.757812 46.796875 15.59375 C 46.242188 12.980469 44.347656 14.910156 44.34375 18.09375 C 44.34375 23.8125 42.242188 30.375 38.796875 35.417969 C 37.800781 36.871094 36.257812 37.792969 35.363281 37.464844 C 35.011719 37.335938 34.484375 36.761719 34.1875 36.1875 C 33.398438 34.660156 33.664062 29.207031 34.734375 25.0625 C 37.167969 15.609375 37.699219 12.753906 37.128906 12.167969 C 36.597656 11.621094 35.84375 12.847656 35 15.625 C 33.214844 21.492188 32.308594 22.898438 31.050781 21.726562 C 30.117188 20.851562 29.746094 18.871094 29.847656 15.289062 C 30.074219 7.386719 30.035156 6.449219 29.46875 6.335938 C 28.84375 6.210938 28.230469 7.550781 27.917969 9.703125 C 27.578125 12.054688 27.078125 12.175781 25.40625 10.3125 C 23.878906 8.605469 23.605469 8.472656 23.046875 9.171875 C 22.753906 9.535156 22.839844 9.902344 23.496094 11.082031 C 26.179688 15.882812 26.773438 17.449219 27.761719 22.316406 C 29.066406 28.71875 30.023438 44.332031 29.28125 47.117188 C 28.652344 49.484375 27.644531 49.921875 26.285156 48.421875 C 24.882812 46.871094 24.382812 44.808594 24.398438 40.640625 C 24.410156 37.492188 24.527344 36.621094 25.222656 34.4375 C 26.03125 31.90625 26.140625 30.402344 25.523438 30.191406 C 24.84375 29.960938 23.878906 31.257812 23.09375 33.464844 C 22.457031 35.25 22.148438 35.753906 21.695312 35.753906 C 20.160156 35.753906 19.304688 30.242188 19.640625 22.539062 C 19.820312 18.507812 19.78125 17.773438 19.363281 17.117188 C 18.320312 15.472656 17.890625 16.328125 17.265625 21.269531 C 17.003906 23.355469 16.671875 25.183594 16.53125 25.332031 C 16.03125 25.855469 15.445312 25.257812 14.492188 23.253906 C 13.484375 21.144531 12.4375 20.125 11.613281 20.453125 C 10.886719 20.738281 11.246094 22.027344 13.144531 25.917969 C 14.066406 27.808594 15.746094 32.210938 16.953125 35.890625 C 19.621094 44.023438 20.253906 45.65625 22.660156 50.679688 C 24.464844 54.449219 24.5625 54.765625 24.46875 56.511719 C 24.375 58.285156 24.398438 58.359375 25.109375 58.449219 C 26.535156 58.628906 28.957031 59.445312 28.957031 59.75 C 28.957031 59.945312 26.859375 60.039062 23.1875 60.015625 C 20.011719 59.996094 17.417969 59.871094 17.417969 59.738281 Z M 27.476562 40.273438 C 27.476562 34.855469 27.203125 34.148438 26.429688 37.578125 C 25.996094 39.503906 26.054688 42.113281 26.566406 44.078125 C 27.21875 46.554688 27.476562 45.46875 27.476562 40.273438 Z M 27.476562 40.273438 "/>
</g>
</svg>
