<svg xmlns="http://www.w3.org/2000/svg" xml:space="preserve" width="128" height="128" viewBox="0 0 33.867 33.867"><path d="M9.216 31.611c0-.07.537-.278 1.194-.462.657-.185 1.229-.371 1.271-.415.043-.044.112-.397.154-.785.062-.563-.017-.898-.39-1.665-1.053-2.16-2.163-5.026-3.19-8.233-.705-2.202-1.475-4.214-2.193-5.73-1.217-2.568-1.396-3.436-.874-4.257.241-.382.38-.438 1.077-.438.712 0 .857.063 1.317.566.284.31.557.565.606.565s.089-.272.09-.606c.002-1.953.993-2.998 2.255-2.38.845.414 1.006 1.171.911 4.302-.086 2.858.042 4.304.335 3.785.444-.785.855-1.06 1.585-1.06h.717l-.098-.848c-.303-2.62-1.091-5.172-2.109-6.836-.611-1-.779-1.418-.779-1.945 0-.989.46-1.523 1.313-1.523.364 0 .8.106.967.237.397.31.539.306.539-.013 0-.544.676-1.51 1.177-1.68.566-.193.938-.095 1.45.38.348.324.355.392.33 3.537-.031 4.054.075 4.31.705 1.687.206-.861.492-1.75.635-1.975.699-1.1 2.057-.853 2.492.455.281.845.085 2.306-.67 4.968-.737 2.606-1.11 4.555-1.106 5.797.005 1.736.362 1.696 1.431-.163 1.295-2.249 1.868-4.262 2.088-7.33.057-.8.174-1.69.26-1.978.222-.744.819-1.175 1.628-1.175.556 0 .739.085 1.075.498.375.46.406.615.406 2.048v1.552l.366-.356c.465-.451 1.275-.695 1.719-.518.188.075.51.323.715.55.587.652.41 1.643-.504 2.82-1.251 1.613-4.388 6.193-5.502 8.034-1.95 3.225-2.938 5.983-2.932 8.195.002.685.047 1.319.1 1.408.054.09.36.209.68.264.906.156 2.07.569 2.07.733 0 .085-1.24.149-2.898.149-1.593 0-2.897-.06-2.897-.132s.442-.293.981-.49l.98-.356.004-1.653c.002-1.48.063-1.835.585-3.402 1.09-3.28 3.093-6.712 7.21-12.352 1.424-1.952 1.65-2.39 1.38-2.67-.288-.297-1.44.406-2.212 1.352-.805.985-1.172 1.05-1.04.186.2-1.296.274-3.385.143-4-.293-1.385-1.296-.363-1.297 1.321 0 3.026-1.113 6.499-2.937 9.167-.525.77-1.343 1.257-1.816 1.083-.185-.068-.465-.372-.622-.675-.418-.808-.276-3.693.289-5.886 1.288-5.003 1.568-6.514 1.267-6.824-.28-.29-.68.359-1.127 1.83-.943 3.104-1.424 3.848-2.088 3.228-.495-.462-.69-1.51-.637-3.406.12-4.183.098-4.678-.2-4.738-.331-.066-.657.642-.822 1.783-.18 1.243-.445 1.307-1.329.32-.807-.902-.952-.972-1.25-.602-.154.192-.109.385.24 1.01 1.418 2.541 1.733 3.37 2.257 5.944.69 3.39 1.197 11.65.805 13.125-.333 1.252-.868 1.484-1.587.69-.742-.821-1.007-1.912-.999-4.117.007-1.667.068-2.128.437-3.282.429-1.34.485-2.137.16-2.247-.361-.122-.87.564-1.287 1.73-.337.946-.5 1.213-.74 1.213-.812 0-1.265-2.916-1.086-6.993.093-2.133.073-2.521-.147-2.869-.552-.87-.78-.417-1.11 2.198-.14 1.104-.314 2.071-.39 2.15-.264.276-.573-.04-1.08-1.1-.531-1.116-1.086-1.656-1.522-1.483-.384.152-.193.832.81 2.893.488 1 1.377 3.329 2.017 5.277 1.412 4.302 1.745 5.167 3.018 7.824.957 1.997 1.008 2.164.959 3.087-.05.938-.037.979.338 1.026.755.094 2.036.527 2.036.687 0 .103-1.109.155-3.053.142-1.68-.011-3.054-.078-3.054-.148m5.324-10.299c0-2.868-.145-3.241-.553-1.426-.23 1.018-.2 2.398.072 3.438.344 1.311.481.736.481-2.012" style="fill:#626262;fill-opacity:1"/></svg>