<?xml version="1.0" encoding="UTF-8"?>
<svg xmlns="http://www.w3.org/2000/svg" xmlns:xlink="http://www.w3.org/1999/xlink" width="128px" height="128px" viewBox="0 0 128 128" version="1.1">
<g id="surface1">
<path style=" stroke:none;fill-rule:nonzero;fill:rgb(38.431373%,38.431373%,38.431373%);fill-opacity:1;" d="M 34.832031 119.476562 C 34.832031 119.210938 36.863281 118.421875 39.34375 117.726562 C 41.828125 117.03125 43.988281 116.324219 44.148438 116.160156 C 44.308594 115.992188 44.570312 114.660156 44.730469 113.195312 C 44.964844 111.066406 44.667969 109.796875 43.253906 106.902344 C 39.273438 98.734375 35.082031 87.90625 31.199219 75.785156 C 28.535156 67.460938 25.625 59.855469 22.910156 54.128906 C 18.3125 44.421875 17.636719 41.140625 19.605469 38.035156 C 20.519531 36.59375 21.042969 36.382812 23.679688 36.382812 C 26.367188 36.382812 26.917969 36.617188 28.65625 38.519531 C 29.730469 39.695312 30.761719 40.660156 30.945312 40.660156 C 31.128906 40.660156 31.28125 39.628906 31.285156 38.367188 C 31.296875 30.984375 35.039062 27.035156 39.808594 29.371094 C 43.003906 30.9375 43.609375 33.796875 43.253906 45.628906 C 42.925781 56.429688 43.410156 61.898438 44.519531 59.9375 C 46.195312 56.96875 47.75 55.929688 50.507812 55.929688 L 53.21875 55.929688 L 52.847656 52.722656 C 51.703125 42.824219 48.726562 33.175781 44.878906 26.886719 C 42.566406 23.109375 41.933594 21.53125 41.933594 19.535156 C 41.933594 15.800781 43.675781 13.777344 46.894531 13.777344 C 48.273438 13.777344 49.917969 14.183594 50.550781 14.675781 C 52.050781 15.847656 52.585938 15.832031 52.585938 14.625 C 52.585938 12.570312 55.144531 8.921875 57.039062 8.277344 C 59.175781 7.546875 60.582031 7.917969 62.515625 9.714844 C 63.832031 10.9375 63.855469 11.195312 63.765625 23.078125 C 63.644531 38.402344 64.046875 39.367188 66.425781 29.457031 C 67.207031 26.203125 68.289062 22.84375 68.832031 21.992188 C 71.46875 17.832031 76.601562 18.769531 78.25 23.714844 C 79.3125 26.90625 78.566406 32.429688 75.71875 42.492188 C 72.929688 52.339844 71.523438 59.707031 71.535156 64.398438 C 71.554688 70.960938 72.902344 70.808594 76.945312 63.785156 C 81.835938 55.285156 84.003906 47.675781 84.835938 36.078125 C 85.050781 33.050781 85.492188 29.6875 85.816406 28.601562 C 86.65625 25.789062 88.914062 24.164062 91.972656 24.164062 C 94.070312 24.164062 94.765625 24.484375 96.035156 26.042969 C 97.449219 27.78125 97.566406 28.371094 97.566406 33.785156 L 97.566406 39.648438 L 98.953125 38.304688 C 100.710938 36.601562 103.769531 35.679688 105.449219 36.347656 C 106.160156 36.632812 107.375 37.566406 108.152344 38.429688 C 110.371094 40.890625 109.699219 44.636719 106.246094 49.085938 C 101.515625 55.183594 89.664062 72.492188 85.453125 79.449219 C 78.078125 91.640625 74.347656 102.0625 74.367188 110.425781 C 74.375 113.011719 74.546875 115.40625 74.75 115.746094 C 74.953125 116.085938 76.109375 116.53125 77.316406 116.742188 C 80.742188 117.332031 85.136719 118.890625 85.136719 119.511719 C 85.136719 119.835938 80.457031 120.074219 74.191406 120.074219 C 68.167969 120.074219 63.242188 119.851562 63.242188 119.578125 C 63.242188 119.304688 64.910156 118.472656 66.945312 117.726562 L 70.652344 116.378906 L 70.664062 110.132812 C 70.675781 104.535156 70.90625 103.199219 72.875 97.273438 C 76.996094 84.875 84.570312 71.90625 100.125 50.589844 C 105.507812 43.210938 106.367188 41.554688 105.34375 40.5 C 104.253906 39.375 99.902344 42.03125 96.980469 45.605469 C 93.941406 49.328125 92.554688 49.578125 93.054688 46.308594 C 93.804688 41.410156 94.089844 33.519531 93.59375 31.1875 C 92.484375 25.957031 88.691406 29.820312 88.691406 36.183594 C 88.6875 47.625 84.484375 60.746094 77.589844 70.832031 C 75.605469 73.738281 72.511719 75.582031 70.726562 74.925781 C 70.027344 74.667969 68.96875 73.519531 68.375 72.371094 C 66.796875 69.320312 67.332031 58.417969 69.464844 50.128906 C 74.335938 31.21875 75.394531 25.507812 74.257812 24.335938 C 73.195312 23.242188 71.6875 25.691406 69.996094 31.253906 C 66.433594 42.984375 64.613281 45.796875 62.105469 43.453125 C 60.234375 41.707031 59.496094 37.742188 59.699219 30.578125 C 60.148438 14.773438 60.066406 12.898438 58.9375 12.671875 C 57.691406 12.421875 56.457031 15.097656 55.835938 19.410156 C 55.15625 24.109375 54.152344 24.351562 50.8125 20.621094 C 47.761719 17.210938 47.214844 16.949219 46.089844 18.34375 C 45.503906 19.074219 45.675781 19.800781 46.996094 22.164062 C 52.355469 31.769531 53.542969 34.898438 55.527344 44.628906 C 58.132812 57.4375 60.046875 88.664062 58.566406 94.238281 C 57.308594 98.964844 55.289062 99.84375 52.570312 96.84375 C 49.761719 93.738281 48.761719 89.617188 48.796875 81.28125 C 48.820312 74.984375 49.050781 73.238281 50.445312 68.878906 C 52.066406 63.8125 52.277344 60.800781 51.050781 60.386719 C 49.683594 59.925781 47.757812 62.515625 46.1875 66.925781 C 44.914062 70.5 44.300781 71.507812 43.390625 71.507812 C 40.320312 71.507812 38.605469 60.488281 39.28125 45.078125 C 39.636719 37.015625 39.5625 35.546875 38.726562 34.234375 C 36.640625 30.949219 35.777344 32.660156 34.535156 42.539062 C 34.007812 46.714844 33.34375 50.371094 33.0625 50.667969 C 32.0625 51.710938 30.894531 50.519531 28.980469 46.507812 C 26.96875 42.292969 24.875 40.253906 23.222656 40.90625 C 21.773438 41.480469 22.496094 44.050781 26.289062 51.839844 C 28.128906 55.621094 31.492188 64.421875 33.910156 71.785156 C 39.246094 88.046875 40.503906 91.3125 45.316406 101.355469 C 48.933594 108.902344 49.128906 109.53125 48.941406 113.023438 C 48.75 116.566406 48.800781 116.722656 50.21875 116.898438 C 53.070312 117.257812 57.914062 118.894531 57.914062 119.496094 C 57.914062 119.886719 53.722656 120.082031 46.375 120.035156 C 40.027344 119.992188 34.832031 119.742188 34.832031 119.476562 Z M 54.953125 80.550781 C 54.953125 69.710938 54.40625 68.300781 52.863281 75.160156 C 51.996094 79.007812 52.105469 84.222656 53.136719 88.15625 C 54.433594 93.109375 54.953125 90.9375 54.953125 80.550781 Z M 54.953125 80.550781 "/>
</g>
</svg>
