<?xml version="1.0" encoding="UTF-8"?>
<svg xmlns="http://www.w3.org/2000/svg" xmlns:xlink="http://www.w3.org/1999/xlink" width="128px" height="128px" viewBox="0 0 128 128" version="1.1">
<g id="surface1">
<path style=" stroke:none;fill-rule:nonzero;fill:rgb(38.431373%,38.431373%,38.431373%);fill-opacity:1;" d="M 54.511719 117.238281 C 42.339844 113.898438 41.734375 113.800781 35.222656 114.171875 C 26.070312 114.695312 26.808594 112.5625 36.292969 111.097656 L 39.300781 110.632812 L 39.300781 106.371094 C 39.300781 102.660156 39.710938 101.359375 42.484375 96.269531 C 46.371094 89.136719 46.53125 87.28125 43.371094 85.972656 C 39.71875 84.460938 31.46875 75.664062 27.507812 69.0625 C 24.230469 63.605469 15.796875 47.308594 10.792969 36.773438 C 8.667969 32.296875 8.261719 27.433594 9.78125 24.71875 C 14.394531 16.492188 37.039062 10.378906 63.027344 10.347656 C 81.265625 10.324219 96.460938 12.691406 107.859375 17.328125 C 122.210938 23.167969 122.484375 26.304688 110.804688 50.996094 C 101.71875 70.207031 95.707031 78.765625 87.421875 84.273438 C 82.585938 87.488281 82.40625 87.710938 82.871094 89.839844 C 83.136719 91.0625 84.761719 94.726562 86.476562 97.984375 C 89.242188 103.230469 89.546875 104.261719 89.140625 106.964844 L 88.683594 110.023438 L 92.539062 111.144531 C 94.660156 111.757812 97 112.722656 97.742188 113.285156 C 98.945312 114.195312 98.285156 114.308594 91.636719 114.328125 C 85.796875 114.34375 83.269531 114.683594 79.960938 115.886719 C 76.566406 117.121094 73.871094 117.460938 66.1875 117.621094 C 60.933594 117.730469 55.679688 117.558594 54.511719 117.238281 Z M 70.433594 112.996094 C 83.9375 111.230469 86.425781 108.125 81.492188 99.203125 C 80.179688 96.832031 78.71875 93.691406 78.25 92.222656 L 77.390625 89.550781 L 73.734375 90.097656 C 69.144531 90.785156 60.789062 90.800781 55.117188 90.132812 C 50.796875 89.625 50.761719 89.636719 50.296875 91.546875 C 50.039062 92.609375 48.59375 95.566406 47.085938 98.121094 C 45.578125 100.675781 44.132812 103.613281 43.875 104.648438 C 42.410156 110.46875 56.320312 114.839844 70.433594 112.996094 Z M 78.03125 83.636719 C 84.035156 81.730469 90.136719 77.089844 93.992188 71.503906 C 97.949219 65.773438 102.894531 56.800781 105.34375 50.914062 C 106.292969 48.636719 107.914062 44.902344 108.945312 42.617188 C 110.574219 39.019531 110.65625 38.535156 109.558594 38.992188 C 99.976562 42.996094 91.8125 44.34375 74.300781 44.8125 C 58.367188 45.238281 49.097656 44.453125 38.394531 41.785156 C 27.40625 39.039062 22.316406 35.855469 22.316406 31.726562 C 22.316406 27.921875 28.480469 24.933594 41.070312 22.625 C 50.140625 20.964844 72.585938 20.945312 82.109375 22.589844 C 94.960938 24.808594 98.175781 26.640625 85.941406 24.773438 C 75.574219 23.191406 54.640625 23.730469 44.015625 25.855469 C 35.550781 27.546875 28.6875 30.289062 28.6875 31.972656 C 28.6875 33.636719 35.160156 36.082031 44.605469 37.984375 C 52.253906 39.527344 54.820312 39.695312 70.433594 39.664062 C 88.992188 39.628906 95.496094 38.773438 105.355469 35.078125 C 111.773438 32.675781 114.574219 28.746094 112.105469 25.605469 C 107.949219 20.324219 90.074219 16.171875 68.664062 15.515625 C 48.351562 14.894531 31.898438 17.375 20.46875 22.785156 C 12.101562 26.742188 11.757812 32.511719 19.523438 38.664062 C 23.285156 41.644531 35.546875 47.824219 37.820312 47.886719 C 38.828125 47.914062 40.289062 48.207031 41.070312 48.542969 C 42.210938 49.035156 41.980469 49.160156 39.875 49.199219 C 35.839844 49.277344 27.457031 47.296875 23.578125 45.347656 C 21.652344 44.382812 19.960938 43.589844 19.816406 43.589844 C 19.28125 43.589844 31.15625 66.039062 33.667969 69.769531 C 36.703125 74.277344 42.261719 79.679688 45.734375 81.492188 C 51.816406 84.667969 55.53125 85.355469 65.128906 85.078125 C 71.070312 84.90625 75.636719 84.398438 78.03125 83.636719 Z M 78.03125 83.636719 "/>
</g>
</svg>
