<svg xmlns="http://www.w3.org/2000/svg" xml:space="preserve" width="128" height="128" viewBox="0 0 33.867 33.867"><path d="M17.874 32.885c-.21-.036-.573-.087-.805-.114-.233-.026-.474-.083-.537-.126-.098-.067-.093-.096.04-.202.083-.069.146-.15.14-.18-.023-.095.841-.107 1.226-.017.413.097.971.45.971.615 0 .124-.402.134-1.035.024m-4.56-.376c-.394-.085-1.108-.13-2.262-.144-2.093-.024-1.952-.011-1.763-.166.318-.26.822-.424 1.7-.55.498-.072.935-.16.97-.196s-.078-.259-.25-.496c-1.001-1.38-1.488-3.1-1.481-5.237.005-1.784.327-3.538 1.17-6.37.375-1.26.998-3.708 1.105-4.343.06-.36.115-.34-1.336-.463-2.765-.231-5.413-.842-6.506-1.5a4.5 4.5 0 0 1-.638-.487c-1.37-1.293-.57-3.913 1.99-6.516 1.844-1.873 4.002-3.216 6.43-4 1.37-.442 2.334-.58 4.09-.587 1.96-.007 2.927.153 4.637.77.745.268 2.402 1.12 3.105 1.596 2.518 1.706 4.637 4.236 5.324 6.357.201.622.29 1.657.19 2.233s-.395 1.185-.71 1.463c-.884.777-2.828 1.138-6.49 1.205l-2.185.04.019.494c.025.663.292 2.26.518 3.098.1.374.428 1.456.729 2.403.717 2.262.978 3.34 1.088 4.497.195 2.038-.286 3.962-1.347 5.389-.193.26-.333.503-.31.54.022.039.167.07.323.071.68.003 2.468.404 2.468.553 0 .113-1.179.189-2.02.13-.564-.038-.926-.02-1.315.065-.9.198-1.5.235-1.83.112l-.297-.11.653-.383c2.29-1.343 3.317-4.312 2.65-7.66-.084-.418-.353-1.391-.598-2.162-.798-2.515-1.051-3.484-1.3-4.967a22.6 22.6 0 0 1-.307-3.793c.007-.521-.018-.979-.054-1.016-.334-.344-5.205-.277-5.568.076-.033.032-.159.56-.28 1.173a65 65 0 0 1-1.421 5.763c-.933 3.146-1.162 4.54-1.092 6.65q.07 2.098.629 3.292c.253.54 1.1 1.697 1.454 1.983.378.307 1.456.895 1.874 1.023l.339.104-.224.1c-.3.134-1.166.118-1.872-.034m12.668-18.475c.412-.07.947-.186 1.189-.258.541-.16 1.32-.514 1.32-.6 0-.26-1.121-.764-2.658-1.192-4.244-1.181-8.596-1.862-11.907-1.861-2.139 0-5.33.37-7.397.856-.758.179-1.74.592-1.851.78-.07.12.284.452.697.654 1.351.66 3.563 1.115 6.68 1.373l.618.05.098-.572c.054-.315.084-.588.067-.605s-.27.007-.563.055c-.709.116-2.483.04-3.005-.13-.642-.207-.5-.295.383-.237 1.084.072 2.051-.066 3.124-.446 1.31-.464 2.14-.59 3.91-.587 1.61.001 2.849.14 5.121.576.661.127 1.478.279 1.815.339l.614.108-.575.064c-.568.063-2.486.016-2.97-.073-.229-.042-.25-.028-.25.162 0 .25.21.377.92.558.52.133 2.028.285 3.143.316l.651.018-.46.114c-.712.177-2.817.146-3.621-.052l-.633-.156v.953l2.396-.04c1.663-.027 2.624-.078 3.144-.167m-14.094-2.857c.484-.246 1.142-.373 1.435-.275l.18.06-.187.071c-.299.116-1.518.387-1.708.38-.12-.004-.037-.075.28-.236m17.176.469c-.115-1.042-.673-2.351-1.483-3.482a14.5 14.5 0 0 0-8.423-5.658c-.66-.155-.97-.176-2.664-.176-1.707 0-2.004.02-2.72.183-3.976.9-7.805 3.734-9.255 6.85-.249.533-.535 1.626-.45 1.715.021.022.359-.125.751-.326.767-.393 1.648-.628 3.472-.928 5.246-.861 8.879-.674 15.6.803 2.183.48 3.18.766 4.139 1.188.4.176.81.321.908.323.176.002.179-.01.125-.492m-1.824-1.508a8 8 0 0 0-.579-1.14c-.483-.777-.487-.784-.426-.784.145 0 .881.917 1.094 1.362.224.468.332 1.124.185 1.121-.032 0-.155-.252-.274-.56m-1.716-.65a5.6 5.6 0 0 0-.792-1.217c-.502-.573-.514-.694-.027-.29.376.312.479.429.77.874.27.415.432.88.396 1.136-.018.13-.11-.003-.347-.503M14.001 31.31c-.249-.18-.434-.42-.784-1.009-.333-.562-.412-.991-.091-.497.108.166.437.603.732.972.508.637.562.838.143.534m5.186-.043c.03-.055.27-.389.53-.741a10 10 0 0 0 .68-1.042l.204-.4-.045.32c-.072.505-.411 1.13-.85 1.564-.377.372-.65.53-.52.3m-2.476-.473c.06-.148.202-.43.316-.629.242-.422.187-.142-.081.415-.211.44-.396.607-.235.214m.742.162c0-.027.084-.244.187-.48.102-.237.261-.755.353-1.152.159-.69.303-1.038.303-.732 0 .38-.187 1.329-.318 1.614-.142.307-.524.854-.525.75m-2.331-.684c-.153-.328-.352-1.03-.349-1.228.003-.203.214.245.386.82.188.628.168.85-.037.408m3.792.132c-.003-.067.081-.554.186-1.082.105-.527.191-.988.192-1.024 0-.036.035-.043.077-.015.105.067.094.382-.033 1.001-.11.536-.412 1.337-.422 1.12m-4.884-.77c-.283-.532-.487-1.364-.486-1.98.001-.4.024-.537.076-.453.04.066.075.256.075.422.001.166.124.7.275 1.186.3.97.326 1.327.06.826m3-1.801c.016-.458.066-.922.112-1.032.064-.155.076.014.053.746-.016.521-.066.986-.11 1.032-.058.06-.074-.16-.054-.746m3.603.25c.03-.155.105-.443.168-.642.067-.21.133-.818.158-1.463.023-.607.054-1.092.067-1.078s.058.335.099.713c.088.81.006 1.57-.236 2.176-.213.532-.327.663-.256.293m-8.422.022c-.135-.14-.361-.809-.433-1.278-.073-.48-.055-1.103.057-1.95l.047-.36.059.32c.032.177.06.736.06 1.243.002.708.04 1.048.164 1.47.154.52.168.683.046.555m7.344-2.44c-.005-1.257-.024-1.452-.205-2.069-.11-.374-.185-.695-.168-.712.066-.07.42.862.538 1.41.149.698.122 2.088-.048 2.492-.103.246-.112.165-.117-1.122m-.953.22c0-.414-.023-.817-.05-.894q-.05-.135.03-.087c.146.095.27.84.215 1.3-.083.69-.195.508-.195-.318m-5.182-.74c-.1-.913-.07-2.67.052-3.04.1-.301.11-.171.11 1.576 0 1.047-.023 1.928-.051 1.957s-.078-.193-.111-.494m3.4-1.175a1.6 1.6 0 0 1-.057-.44 7 7 0 0 0-.115-.923 7.8 7.8 0 0 1-.042-2.256c.049-.33.061-.238.07.515.005.503.064 1.213.129 1.577.118.659.13 1.819.015 1.527m3.71-1.185c-.133-.582-.23-1.071-.213-1.088.044-.045.406 1.062.513 1.565.057.27.064.455.017.503-.046.049-.162-.311-.316-.98m-8.421-.03c.044-.752.198-1.413.395-1.684.105-.147.109-.137.04.121-.042.155-.145.711-.23 1.237-.084.526-.174.976-.2 1.001s-.028-.279-.005-.675m6.683-1.823a5 5 0 0 1-.106-.46c-.038-.199-.16-.722-.271-1.162-.144-.571-.215-1.1-.248-1.843-.025-.573-.027-1.024-.003-1.002.023.023.097.542.165 1.155s.206 1.46.307 1.883c.101.422.2.94.22 1.149.033.37.008.483-.064.28m-1.857-1.062c0-.659.023-1.039.059-.92.08.264.083 1.318.005 1.722-.044.224-.063-.017-.064-.802m2.587.004c0-.02-.088-.403-.196-.85-.224-.924-.205-1.134.034-.38.203.64.317 1.266.23 1.266-.038 0-.068-.016-.068-.036m-5.868-.644q.03-.561.26-1.162c.125-.33.289-.935.363-1.342.15-.823.264-.998.182-.28-.086.755-.231 1.393-.43 1.889-.102.256-.236.69-.296.961l-.11.494zm3.441-2.224c-.081-.239-.047-2.907.042-3.264.048-.194.072.296.078 1.582.004 1.024-.007 1.863-.026 1.863-.018 0-.06-.082-.094-.18m1.856-.596c-.18-.535-.323-2.458-.218-2.917l.081-.352.01.48c.013.688.15 2.17.246 2.67.106.55.046.61-.12.119m-5.134-.666c.105-.902.474-2.598.488-2.243.011.284-.312 2.107-.416 2.344l-.114.26zm1.845-.13c-.065-.495-.053-1.504.024-1.953.043-.254.064.036.07.982.006.738-.002 1.342-.018 1.342-.015 0-.05-.167-.076-.372m2.368-.931a8 8 0 0 1 .021-1.262c.07-.667.071-.656.081.58.006.695-.004 1.263-.021 1.263s-.054-.262-.081-.581m-3.179-.428c-.012-.605.1-1.707.168-1.662.084.054.002 1.484-.1 1.746-.054.14-.064.127-.068-.084" style="fill:#626262;fill-opacity:1"/></svg>