<?xml version="1.0" encoding="UTF-8"?>
<svg xmlns="http://www.w3.org/2000/svg" xmlns:xlink="http://www.w3.org/1999/xlink" width="64px" height="64px" viewBox="0 0 64 64" version="1.1">
<g id="surface1">
<path style=" stroke:none;fill-rule:nonzero;fill:rgb(38.431373%,38.431373%,38.431373%);fill-opacity:1;" d="M 33.777344 62.144531 C 33.378906 62.078125 32.695312 61.980469 32.253906 61.929688 C 31.816406 61.878906 31.359375 61.773438 31.242188 61.691406 C 31.054688 61.566406 31.066406 61.511719 31.316406 61.308594 C 31.476562 61.179688 31.59375 61.027344 31.582031 60.96875 C 31.539062 60.789062 33.171875 60.769531 33.898438 60.9375 C 34.679688 61.121094 35.734375 61.789062 35.734375 62.097656 C 35.734375 62.335938 34.972656 62.351562 33.777344 62.144531 Z M 25.160156 61.433594 C 24.414062 61.273438 23.066406 61.1875 20.886719 61.164062 C 16.929688 61.117188 17.195312 61.140625 17.554688 60.847656 C 18.15625 60.355469 19.109375 60.046875 20.765625 59.808594 C 21.707031 59.671875 22.53125 59.507812 22.597656 59.4375 C 22.664062 59.371094 22.453125 58.949219 22.128906 58.503906 C 20.234375 55.894531 19.316406 52.644531 19.328125 48.605469 C 19.339844 45.234375 19.945312 41.917969 21.539062 36.566406 C 22.25 34.1875 23.425781 29.558594 23.628906 28.359375 C 23.742188 27.679688 23.847656 27.714844 21.101562 27.484375 C 15.878906 27.046875 10.875 25.894531 8.808594 24.652344 C 8.460938 24.441406 7.917969 24.027344 7.601562 23.730469 C 5.011719 21.285156 6.527344 16.335938 11.363281 11.417969 C 14.847656 7.875 18.925781 5.339844 23.515625 3.855469 C 26.101562 3.019531 27.925781 2.761719 31.242188 2.746094 C 34.945312 2.734375 36.773438 3.039062 40.007812 4.203125 C 41.414062 4.710938 44.546875 6.320312 45.875 7.21875 C 50.632812 10.441406 54.636719 15.222656 55.933594 19.234375 C 56.316406 20.410156 56.484375 22.363281 56.296875 23.453125 C 56.105469 24.542969 55.546875 25.691406 54.949219 26.21875 C 53.28125 27.683594 49.609375 28.367188 42.6875 28.492188 L 38.558594 28.570312 L 38.59375 29.503906 C 38.644531 30.757812 39.148438 33.773438 39.574219 35.355469 C 39.761719 36.066406 40.382812 38.109375 40.949219 39.898438 C 42.304688 44.175781 42.800781 46.210938 43.007812 48.398438 C 43.375 52.25 42.46875 55.886719 40.460938 58.582031 C 40.097656 59.070312 39.832031 59.53125 39.875 59.601562 C 39.917969 59.675781 40.191406 59.734375 40.488281 59.734375 C 41.769531 59.742188 45.148438 60.5 45.148438 60.78125 C 45.148438 60.992188 42.921875 61.136719 41.332031 61.027344 C 40.265625 60.953125 39.582031 60.988281 38.847656 61.148438 C 37.148438 61.523438 36.015625 61.59375 35.390625 61.359375 L 34.828125 61.152344 L 36.0625 60.429688 C 40.390625 57.890625 42.328125 52.28125 41.070312 45.957031 C 40.910156 45.164062 40.402344 43.324219 39.941406 41.867188 C 38.433594 37.117188 37.953125 35.28125 37.484375 32.480469 C 37.089844 30.125 36.875 27.476562 36.902344 25.3125 C 36.914062 24.328125 36.871094 23.464844 36.800781 23.394531 C 36.167969 22.742188 26.964844 22.871094 26.277344 23.535156 C 26.214844 23.597656 25.980469 24.59375 25.75 25.753906 C 25.054688 29.292969 24.117188 33.097656 23.0625 36.644531 C 21.300781 42.589844 20.867188 45.222656 21 49.210938 C 21.089844 51.855469 21.484375 53.925781 22.191406 55.433594 C 22.667969 56.453125 24.269531 58.636719 24.9375 59.179688 C 25.652344 59.757812 27.6875 60.871094 28.480469 61.113281 L 29.117188 61.308594 L 28.695312 61.5 C 28.128906 61.75 26.492188 61.722656 25.160156 61.433594 Z M 49.101562 26.519531 C 49.878906 26.386719 50.890625 26.167969 51.347656 26.035156 C 52.371094 25.730469 53.839844 25.0625 53.839844 24.902344 C 53.839844 24.40625 51.722656 23.457031 48.816406 22.648438 C 40.796875 20.414062 32.574219 19.128906 26.316406 19.128906 C 22.273438 19.128906 16.242188 19.828125 12.339844 20.746094 C 10.90625 21.085938 9.050781 21.867188 8.839844 22.222656 C 8.707031 22.449219 9.375 23.074219 10.15625 23.457031 C 12.710938 24.707031 16.890625 25.5625 22.78125 26.050781 L 23.949219 26.148438 L 24.132812 25.066406 C 24.234375 24.46875 24.292969 23.953125 24.261719 23.921875 C 24.230469 23.886719 23.75 23.933594 23.195312 24.027344 C 21.859375 24.246094 18.503906 24.101562 17.515625 23.78125 C 16.304688 23.390625 16.574219 23.222656 18.242188 23.332031 C 20.292969 23.46875 22.117188 23.207031 24.144531 22.488281 C 26.621094 21.613281 28.191406 21.375 31.53125 21.378906 C 34.578125 21.382812 36.917969 21.644531 41.210938 22.46875 C 42.460938 22.707031 44.003906 22.996094 44.640625 23.109375 L 45.800781 23.3125 L 44.714844 23.433594 C 43.644531 23.554688 40.015625 23.464844 39.101562 23.296875 C 38.671875 23.21875 38.628906 23.246094 38.628906 23.601562 C 38.628906 24.074219 39.027344 24.316406 40.371094 24.65625 C 41.351562 24.910156 44.203125 25.195312 46.308594 25.253906 L 47.539062 25.289062 L 46.671875 25.503906 C 45.324219 25.839844 41.347656 25.78125 39.824219 25.40625 L 38.628906 25.109375 L 38.628906 26.914062 L 43.15625 26.835938 C 46.300781 26.785156 48.117188 26.6875 49.101562 26.519531 Z M 22.464844 21.121094 C 23.378906 20.65625 24.625 20.417969 25.175781 20.601562 L 25.515625 20.714844 L 25.164062 20.851562 C 24.601562 21.066406 22.296875 21.582031 21.9375 21.566406 C 21.707031 21.558594 21.867188 21.425781 22.464844 21.121094 Z M 54.925781 22.007812 C 54.707031 20.039062 53.652344 17.566406 52.121094 15.425781 C 48.277344 10.0625 42.574219 6.230469 36.203125 4.734375 C 34.957031 4.441406 34.371094 4.402344 31.171875 4.402344 C 27.945312 4.402344 27.382812 4.441406 26.027344 4.75 C 18.515625 6.449219 11.28125 11.804688 8.539062 17.691406 C 8.070312 18.699219 7.527344 20.765625 7.691406 20.933594 C 7.730469 20.976562 8.367188 20.699219 9.109375 20.320312 C 10.558594 19.578125 12.222656 19.132812 15.671875 18.566406 C 25.585938 16.9375 32.449219 17.292969 45.148438 20.082031 C 49.277344 20.992188 51.160156 21.53125 52.972656 22.328125 C 53.730469 22.660156 54.5 22.933594 54.6875 22.9375 C 55.019531 22.941406 55.027344 22.917969 54.925781 22.007812 Z M 51.476562 19.160156 C 51.253906 18.578125 50.761719 17.609375 50.382812 17.003906 C 49.46875 15.535156 49.464844 15.523438 49.578125 15.523438 C 49.851562 15.523438 51.242188 17.253906 51.644531 18.097656 C 52.066406 18.980469 52.273438 20.21875 51.996094 20.214844 C 51.933594 20.214844 51.703125 19.738281 51.476562 19.160156 Z M 48.234375 17.929688 C 47.855469 17.125 47.292969 16.261719 46.738281 15.628906 C 45.789062 14.546875 45.765625 14.320312 46.6875 15.082031 C 47.398438 15.671875 47.589844 15.890625 48.140625 16.734375 C 48.652344 17.519531 48.957031 18.398438 48.890625 18.882812 C 48.855469 19.128906 48.683594 18.875 48.234375 17.929688 Z M 26.457031 59.171875 C 25.988281 58.828125 25.636719 58.378906 24.976562 57.265625 C 24.347656 56.199219 24.199219 55.390625 24.804688 56.324219 C 25.007812 56.636719 25.628906 57.464844 26.1875 58.160156 C 27.148438 59.363281 27.25 59.746094 26.457031 59.171875 Z M 36.257812 59.089844 C 36.316406 58.984375 36.769531 58.355469 37.261719 57.6875 C 37.753906 57.023438 38.332031 56.136719 38.546875 55.71875 L 38.933594 54.964844 L 38.847656 55.570312 C 38.710938 56.523438 38.070312 57.703125 37.238281 58.523438 C 36.527344 59.226562 36.011719 59.523438 36.257812 59.089844 Z M 31.578125 58.195312 C 31.695312 57.917969 31.960938 57.382812 32.175781 57.007812 C 32.632812 56.207031 32.53125 56.738281 32.023438 57.792969 C 31.625 58.621094 31.277344 58.9375 31.578125 58.195312 Z M 32.980469 58.5 C 32.980469 58.449219 33.140625 58.039062 33.335938 57.59375 C 33.527344 57.144531 33.828125 56.167969 34 55.417969 C 34.300781 54.113281 34.574219 53.457031 34.574219 54.035156 C 34.574219 54.75 34.222656 56.546875 33.972656 57.082031 C 33.707031 57.664062 32.984375 58.699219 32.980469 58.5 Z M 28.578125 57.207031 C 28.289062 56.589844 27.914062 55.261719 27.917969 54.886719 C 27.925781 54.503906 28.324219 55.351562 28.648438 56.4375 C 29 57.625 28.964844 58.042969 28.578125 57.207031 Z M 35.742188 57.457031 C 35.738281 57.332031 35.894531 56.410156 36.09375 55.414062 C 36.292969 54.417969 36.457031 53.546875 36.457031 53.476562 C 36.457031 53.410156 36.523438 53.398438 36.601562 53.449219 C 36.800781 53.578125 36.78125 54.171875 36.539062 55.34375 C 36.332031 56.355469 35.761719 57.871094 35.742188 57.457031 Z M 26.511719 56.003906 C 25.976562 54.996094 25.59375 53.425781 25.59375 52.261719 C 25.597656 51.507812 25.640625 51.246094 25.738281 51.40625 C 25.816406 51.53125 25.878906 51.890625 25.882812 52.203125 C 25.882812 52.515625 26.117188 53.523438 26.398438 54.441406 C 26.96875 56.277344 27.015625 56.953125 26.511719 56.003906 Z M 32.183594 52.597656 C 32.210938 51.734375 32.308594 50.855469 32.394531 50.648438 C 32.515625 50.355469 32.539062 50.675781 32.496094 52.058594 C 32.464844 53.042969 32.371094 53.921875 32.285156 54.011719 C 32.175781 54.125 32.148438 53.707031 32.183594 52.597656 Z M 38.992188 53.070312 C 39.046875 52.78125 39.191406 52.234375 39.308594 51.859375 C 39.4375 51.460938 39.558594 50.3125 39.605469 49.09375 C 39.652344 47.949219 39.707031 47.03125 39.734375 47.058594 C 39.757812 47.085938 39.84375 47.691406 39.921875 48.40625 C 40.085938 49.9375 39.933594 51.371094 39.476562 52.515625 C 39.074219 53.523438 38.859375 53.769531 38.992188 53.070312 Z M 23.074219 53.113281 C 22.820312 52.847656 22.394531 51.585938 22.257812 50.699219 C 22.121094 49.792969 22.152344 48.613281 22.363281 47.015625 L 22.453125 46.332031 L 22.566406 46.9375 C 22.625 47.273438 22.675781 48.328125 22.679688 49.285156 C 22.683594 50.625 22.753906 51.265625 22.988281 52.0625 C 23.28125 53.050781 23.304688 53.355469 23.074219 53.113281 Z M 36.953125 48.5 C 36.945312 46.128906 36.910156 45.757812 36.566406 44.59375 C 36.359375 43.886719 36.21875 43.28125 36.25 43.246094 C 36.375 43.117188 37.042969 44.875 37.265625 45.910156 C 37.546875 47.230469 37.496094 49.855469 37.175781 50.621094 C 36.980469 51.085938 36.964844 50.933594 36.953125 48.5 Z M 35.152344 48.917969 C 35.152344 48.136719 35.109375 47.375 35.058594 47.230469 C 34.996094 47.0625 35.015625 47 35.113281 47.066406 C 35.390625 47.246094 35.625 48.652344 35.523438 49.519531 C 35.367188 50.828125 35.152344 50.480469 35.152344 48.917969 Z M 25.359375 47.519531 C 25.171875 45.796875 25.226562 42.472656 25.460938 41.777344 C 25.648438 41.207031 25.664062 41.453125 25.664062 44.753906 C 25.664062 46.730469 25.621094 48.398438 25.570312 48.453125 C 25.515625 48.507812 25.421875 48.085938 25.359375 47.519531 Z M 31.785156 45.300781 C 31.726562 45.148438 31.675781 44.773438 31.675781 44.464844 C 31.675781 44.160156 31.578125 43.378906 31.460938 42.722656 C 31.230469 41.460938 31.195312 39.703125 31.382812 38.460938 C 31.472656 37.839844 31.496094 38.011719 31.511719 39.433594 C 31.523438 40.382812 31.632812 41.726562 31.757812 42.414062 C 31.980469 43.660156 32.003906 45.851562 31.785156 45.300781 Z M 38.796875 43.058594 C 38.546875 41.960938 38.363281 41.035156 38.394531 41.003906 C 38.476562 40.917969 39.164062 43.011719 39.363281 43.960938 C 39.472656 44.472656 39.484375 44.820312 39.398438 44.914062 C 39.308594 45.003906 39.089844 44.324219 38.796875 43.058594 Z M 22.882812 43.003906 C 22.964844 41.582031 23.257812 40.332031 23.628906 39.820312 C 23.828125 39.542969 23.835938 39.5625 23.703125 40.050781 C 23.625 40.34375 23.433594 41.394531 23.273438 42.386719 C 23.113281 43.382812 22.941406 44.234375 22.890625 44.28125 C 22.84375 44.328125 22.839844 43.753906 22.882812 43.003906 Z M 35.511719 39.558594 C 35.476562 39.453125 35.386719 39.0625 35.3125 38.6875 C 35.242188 38.3125 35.007812 37.324219 34.800781 36.492188 C 34.527344 35.414062 34.394531 34.414062 34.332031 33.011719 C 34.285156 31.929688 34.28125 31.074219 34.324219 31.117188 C 34.367188 31.160156 34.511719 32.140625 34.636719 33.300781 C 34.765625 34.457031 35.027344 36.058594 35.21875 36.855469 C 35.410156 37.65625 35.59375 38.632812 35.632812 39.027344 C 35.695312 39.730469 35.648438 39.941406 35.511719 39.558594 Z M 32.003906 37.550781 C 32 36.308594 32.046875 35.589844 32.113281 35.8125 C 32.265625 36.3125 32.269531 38.304688 32.125 39.066406 C 32.042969 39.488281 32.003906 39.035156 32.003906 37.550781 Z M 36.890625 37.558594 C 36.890625 37.519531 36.726562 36.796875 36.519531 35.953125 C 36.097656 34.207031 36.132812 33.808594 36.585938 35.234375 C 36.96875 36.441406 37.183594 37.628906 37.019531 37.628906 C 36.949219 37.628906 36.890625 37.597656 36.890625 37.558594 Z M 25.804688 36.339844 C 25.839844 35.636719 26.003906 34.902344 26.292969 34.144531 C 26.53125 33.519531 26.839844 32.378906 26.980469 31.609375 C 27.265625 30.054688 27.480469 29.726562 27.324219 31.078125 C 27.160156 32.507812 26.886719 33.714844 26.511719 34.648438 C 26.320312 35.136719 26.066406 35.953125 25.953125 36.464844 L 25.746094 37.402344 Z M 32.304688 32.140625 C 32.152344 31.6875 32.21875 26.644531 32.386719 25.96875 C 32.476562 25.605469 32.523438 26.53125 32.53125 28.960938 C 32.539062 30.894531 32.519531 32.480469 32.484375 32.480469 C 32.449219 32.480469 32.371094 32.328125 32.304688 32.140625 Z M 35.8125 31.011719 C 35.472656 30.003906 35.203125 26.367188 35.402344 25.5 L 35.554688 24.835938 L 35.570312 25.742188 C 35.597656 27.042969 35.855469 29.84375 36.039062 30.789062 C 36.238281 31.828125 36.125 31.941406 35.8125 31.011719 Z M 26.109375 29.753906 C 26.308594 28.050781 27.003906 24.84375 27.03125 25.515625 C 27.054688 26.054688 26.445312 29.496094 26.246094 29.945312 L 26.03125 30.4375 Z M 29.597656 29.507812 C 29.472656 28.574219 29.496094 26.667969 29.640625 25.820312 C 29.722656 25.339844 29.761719 25.886719 29.777344 27.671875 C 29.785156 29.066406 29.769531 30.210938 29.742188 30.210938 C 29.710938 30.210938 29.648438 29.894531 29.597656 29.507812 Z M 34.070312 27.75 C 34.019531 27.144531 34.039062 26.074219 34.113281 25.363281 C 34.242188 24.101562 34.246094 24.125 34.265625 26.460938 C 34.277344 27.773438 34.257812 28.847656 34.226562 28.847656 C 34.191406 28.847656 34.121094 28.351562 34.070312 27.75 Z M 28.066406 26.941406 C 28.042969 25.796875 28.253906 23.714844 28.382812 23.796875 C 28.542969 23.902344 28.386719 26.601562 28.195312 27.097656 C 28.09375 27.363281 28.074219 27.339844 28.066406 26.941406 Z M 28.066406 26.941406 "/>
</g>
</svg>
