<?xml version="1.0" encoding="UTF-8"?>
<svg xmlns="http://www.w3.org/2000/svg" xmlns:xlink="http://www.w3.org/1999/xlink" width="32px" height="32px" viewBox="0 0 32 32" version="1.1">
<g id="surface1">
<path style=" stroke:none;fill-rule:nonzero;fill:rgb(38.431373%,38.431373%,38.431373%);fill-opacity:1;" d="M 16.890625 31.074219 C 16.691406 31.039062 16.347656 30.988281 16.128906 30.964844 C 15.910156 30.941406 15.679688 30.886719 15.621094 30.847656 C 15.527344 30.78125 15.535156 30.753906 15.65625 30.65625 C 15.738281 30.589844 15.796875 30.511719 15.789062 30.484375 C 15.769531 30.394531 16.585938 30.382812 16.949219 30.46875 C 17.339844 30.558594 17.867188 30.894531 17.867188 31.050781 C 17.867188 31.167969 17.488281 31.175781 16.890625 31.074219 Z M 12.578125 30.71875 C 12.207031 30.636719 11.535156 30.59375 10.441406 30.582031 C 8.464844 30.558594 8.597656 30.570312 8.777344 30.425781 C 9.078125 30.179688 9.554688 30.023438 10.382812 29.90625 C 10.855469 29.835938 11.265625 29.753906 11.300781 29.71875 C 11.332031 29.6875 11.226562 29.476562 11.0625 29.25 C 10.117188 27.949219 9.65625 26.320312 9.664062 24.300781 C 9.667969 22.617188 9.972656 20.960938 10.769531 18.285156 C 11.125 17.09375 11.710938 14.78125 11.8125 14.179688 C 11.871094 13.839844 11.921875 13.859375 10.550781 13.742188 C 7.9375 13.523438 5.4375 12.945312 4.402344 12.324219 C 4.230469 12.21875 3.957031 12.011719 3.800781 11.863281 C 2.507812 10.644531 3.261719 8.167969 5.683594 5.707031 C 7.425781 3.9375 9.464844 2.667969 11.757812 1.929688 C 13.050781 1.511719 13.960938 1.378906 15.621094 1.375 C 17.472656 1.367188 18.386719 1.519531 20.003906 2.101562 C 20.707031 2.355469 22.273438 3.160156 22.9375 3.609375 C 25.316406 5.222656 27.316406 7.613281 27.96875 9.617188 C 28.15625 10.203125 28.242188 11.183594 28.148438 11.726562 C 28.054688 12.269531 27.773438 12.847656 27.476562 13.109375 C 26.640625 13.84375 24.804688 14.183594 21.34375 14.246094 L 19.277344 14.285156 L 19.296875 14.75 C 19.320312 15.378906 19.574219 16.886719 19.785156 17.679688 C 19.882812 18.03125 20.191406 19.054688 20.476562 19.949219 C 21.152344 22.085938 21.398438 23.105469 21.503906 24.199219 C 21.6875 26.125 21.234375 27.941406 20.230469 29.289062 C 20.046875 29.535156 19.917969 29.765625 19.9375 29.800781 C 19.957031 29.835938 20.097656 29.867188 20.242188 29.867188 C 20.886719 29.871094 22.574219 30.25 22.574219 30.390625 C 22.574219 30.496094 21.460938 30.570312 20.667969 30.515625 C 20.132812 30.476562 19.792969 30.492188 19.425781 30.574219 C 18.574219 30.761719 18.007812 30.796875 17.695312 30.679688 L 17.414062 30.578125 L 18.03125 30.214844 C 20.195312 28.945312 21.164062 26.140625 20.535156 22.976562 C 20.457031 22.582031 20.203125 21.664062 19.96875 20.933594 C 19.214844 18.558594 18.976562 17.640625 18.742188 16.238281 C 18.546875 15.0625 18.4375 13.738281 18.453125 12.65625 C 18.457031 12.164062 18.433594 11.730469 18.398438 11.695312 C 18.085938 11.371094 13.484375 11.433594 13.140625 11.769531 C 13.109375 11.796875 12.988281 12.296875 12.875 12.878906 C 12.527344 14.644531 12.058594 16.546875 11.53125 18.320312 C 10.652344 21.292969 10.433594 22.613281 10.5 24.605469 C 10.542969 25.925781 10.742188 26.964844 11.09375 27.714844 C 11.332031 28.226562 12.136719 29.320312 12.46875 29.589844 C 12.824219 29.878906 13.84375 30.4375 14.238281 30.558594 L 14.558594 30.65625 L 14.347656 30.75 C 14.066406 30.875 13.246094 30.859375 12.578125 30.71875 Z M 24.550781 13.261719 C 24.941406 13.195312 25.445312 13.085938 25.671875 13.015625 C 26.183594 12.863281 26.921875 12.53125 26.921875 12.449219 C 26.921875 12.203125 25.863281 11.726562 24.410156 11.324219 C 20.398438 10.207031 16.289062 9.5625 13.160156 9.566406 C 11.136719 9.566406 8.121094 9.914062 6.167969 10.375 C 5.453125 10.542969 4.523438 10.933594 4.421875 11.109375 C 4.351562 11.222656 4.6875 11.539062 5.078125 11.730469 C 6.355469 12.351562 8.445312 12.78125 11.390625 13.027344 L 11.972656 13.074219 L 12.066406 12.53125 C 12.117188 12.234375 12.148438 11.976562 12.128906 11.960938 C 12.113281 11.945312 11.875 11.96875 11.597656 12.011719 C 10.929688 12.121094 9.253906 12.050781 8.757812 11.890625 C 8.152344 11.695312 8.289062 11.613281 9.121094 11.667969 C 10.144531 11.734375 11.058594 11.605469 12.074219 11.246094 C 13.308594 10.804688 14.09375 10.6875 15.765625 10.691406 C 17.289062 10.691406 18.460938 10.824219 20.605469 11.234375 C 21.230469 11.355469 22.003906 11.5 22.320312 11.554688 L 22.902344 11.65625 L 22.359375 11.71875 C 21.820312 11.777344 20.007812 11.730469 19.550781 11.648438 C 19.335938 11.609375 19.316406 11.621094 19.316406 11.800781 C 19.316406 12.039062 19.511719 12.15625 20.183594 12.328125 C 20.675781 12.453125 22.101562 12.597656 23.152344 12.628906 L 23.769531 12.644531 L 23.335938 12.753906 C 22.664062 12.917969 20.671875 12.890625 19.914062 12.703125 L 19.316406 12.554688 L 19.316406 13.457031 L 21.578125 13.417969 C 23.148438 13.390625 24.058594 13.34375 24.550781 13.261719 Z M 11.230469 10.5625 C 11.691406 10.328125 12.3125 10.207031 12.589844 10.300781 L 12.757812 10.355469 L 12.582031 10.425781 C 12.300781 10.535156 11.148438 10.789062 10.96875 10.785156 C 10.855469 10.78125 10.933594 10.714844 11.230469 10.5625 Z M 27.460938 11.003906 C 27.351562 10.019531 26.824219 8.78125 26.0625 7.714844 C 24.140625 5.03125 21.289062 3.117188 18.101562 2.367188 C 17.476562 2.222656 17.183594 2.203125 15.585938 2.203125 C 13.972656 2.203125 13.691406 2.21875 13.015625 2.375 C 9.257812 3.226562 5.640625 5.902344 4.269531 8.847656 C 4.035156 9.351562 3.765625 10.382812 3.84375 10.46875 C 3.863281 10.488281 4.183594 10.347656 4.554688 10.160156 C 5.277344 9.789062 6.113281 9.566406 7.835938 9.28125 C 12.792969 8.46875 16.222656 8.644531 22.574219 10.042969 C 24.636719 10.496094 25.578125 10.765625 26.484375 11.164062 C 26.863281 11.332031 27.25 11.46875 27.34375 11.46875 C 27.511719 11.472656 27.511719 11.460938 27.460938 11.003906 Z M 25.738281 9.578125 C 25.625 9.289062 25.378906 8.804688 25.191406 8.5 C 24.734375 7.769531 24.730469 7.761719 24.789062 7.761719 C 24.925781 7.761719 25.621094 8.628906 25.824219 9.046875 C 26.035156 9.492188 26.136719 10.109375 25.996094 10.109375 C 25.96875 10.105469 25.851562 9.871094 25.738281 9.578125 Z M 24.117188 8.964844 C 23.925781 8.5625 23.648438 8.132812 23.367188 7.816406 C 22.894531 7.273438 22.882812 7.160156 23.34375 7.542969 C 23.699219 7.835938 23.796875 7.945312 24.070312 8.367188 C 24.324219 8.757812 24.480469 9.199219 24.445312 9.441406 C 24.429688 9.5625 24.339844 9.4375 24.117188 8.964844 Z M 13.230469 29.585938 C 12.996094 29.414062 12.820312 29.1875 12.488281 28.632812 C 12.175781 28.101562 12.097656 27.695312 12.402344 28.160156 C 12.503906 28.320312 12.816406 28.730469 13.09375 29.082031 C 13.574219 29.683594 13.625 29.871094 13.230469 29.585938 Z M 18.128906 29.542969 C 18.160156 29.492188 18.382812 29.175781 18.632812 28.84375 C 18.878906 28.511719 19.167969 28.070312 19.273438 27.859375 L 19.464844 27.480469 L 19.421875 27.785156 C 19.355469 28.261719 19.035156 28.851562 18.621094 29.261719 C 18.261719 29.613281 18.007812 29.761719 18.128906 29.542969 Z M 15.789062 29.097656 C 15.847656 28.957031 15.980469 28.691406 16.089844 28.503906 C 16.316406 28.105469 16.265625 28.367188 16.011719 28.894531 C 15.8125 29.3125 15.636719 29.46875 15.789062 29.097656 Z M 16.492188 29.25 C 16.492188 29.226562 16.570312 29.019531 16.667969 28.796875 C 16.765625 28.574219 16.914062 28.082031 17 27.707031 C 17.152344 27.054688 17.289062 26.726562 17.289062 27.015625 C 17.289062 27.375 17.109375 28.273438 16.988281 28.542969 C 16.851562 28.832031 16.492188 29.347656 16.492188 29.25 Z M 14.289062 28.605469 C 14.144531 28.292969 13.957031 27.628906 13.960938 27.445312 C 13.960938 27.253906 14.160156 27.675781 14.324219 28.21875 C 14.5 28.8125 14.480469 29.023438 14.289062 28.605469 Z M 17.871094 28.730469 C 17.867188 28.664062 17.949219 28.207031 18.046875 27.707031 C 18.148438 27.207031 18.226562 26.773438 18.226562 26.738281 C 18.230469 26.707031 18.261719 26.699219 18.300781 26.726562 C 18.398438 26.789062 18.390625 27.085938 18.269531 27.671875 C 18.167969 28.175781 17.882812 28.933594 17.871094 28.730469 Z M 13.257812 28.003906 C 12.988281 27.5 12.796875 26.710938 12.796875 26.128906 C 12.796875 25.753906 12.820312 25.625 12.871094 25.703125 C 12.90625 25.765625 12.941406 25.945312 12.941406 26.101562 C 12.941406 26.257812 13.058594 26.761719 13.199219 27.222656 C 13.484375 28.140625 13.507812 28.476562 13.257812 28.003906 Z M 16.09375 26.300781 C 16.105469 25.867188 16.152344 25.429688 16.195312 25.324219 C 16.257812 25.179688 16.269531 25.339844 16.246094 26.03125 C 16.230469 26.523438 16.183594 26.960938 16.144531 27.003906 C 16.089844 27.0625 16.074219 26.855469 16.09375 26.300781 Z M 19.496094 26.535156 C 19.523438 26.390625 19.59375 26.117188 19.65625 25.929688 C 19.71875 25.730469 19.78125 25.15625 19.804688 24.546875 C 19.824219 23.972656 19.855469 23.515625 19.867188 23.527344 C 19.878906 23.542969 19.921875 23.84375 19.960938 24.203125 C 20.042969 24.96875 19.964844 25.6875 19.738281 26.257812 C 19.535156 26.761719 19.429688 26.882812 19.496094 26.535156 Z M 11.539062 26.558594 C 11.410156 26.425781 11.195312 25.792969 11.128906 25.351562 C 11.058594 24.894531 11.078125 24.308594 11.183594 23.507812 L 11.226562 23.167969 L 11.28125 23.46875 C 11.3125 23.636719 11.339844 24.164062 11.339844 24.644531 C 11.339844 25.3125 11.375 25.632812 11.496094 26.03125 C 11.640625 26.523438 11.652344 26.675781 11.539062 26.558594 Z M 18.476562 24.25 C 18.472656 23.0625 18.453125 22.878906 18.285156 22.296875 C 18.179688 21.941406 18.109375 21.640625 18.125 21.625 C 18.1875 21.558594 18.523438 22.4375 18.632812 22.957031 C 18.773438 23.617188 18.75 24.929688 18.589844 25.3125 C 18.488281 25.542969 18.480469 25.464844 18.476562 24.25 Z M 17.578125 24.460938 C 17.578125 24.066406 17.554688 23.6875 17.527344 23.613281 C 17.496094 23.53125 17.507812 23.5 17.558594 23.53125 C 17.695312 23.621094 17.8125 24.324219 17.761719 24.757812 C 17.683594 25.414062 17.578125 25.242188 17.578125 24.460938 Z M 12.679688 23.757812 C 12.585938 22.898438 12.613281 21.238281 12.730469 20.886719 C 12.824219 20.601562 12.832031 20.726562 12.832031 22.375 C 12.832031 23.367188 12.8125 24.199219 12.785156 24.226562 C 12.757812 24.253906 12.710938 24.042969 12.679688 23.757812 Z M 15.894531 22.648438 C 15.863281 22.574219 15.839844 22.386719 15.839844 22.234375 C 15.839844 22.082031 15.789062 21.6875 15.730469 21.363281 C 15.613281 20.730469 15.597656 19.851562 15.691406 19.230469 C 15.738281 18.917969 15.75 19.003906 15.757812 19.714844 C 15.761719 20.191406 15.816406 20.863281 15.878906 21.207031 C 15.988281 21.828125 16 22.925781 15.894531 22.648438 Z M 19.398438 21.53125 C 19.273438 20.980469 19.183594 20.519531 19.199219 20.5 C 19.238281 20.460938 19.582031 21.507812 19.683594 21.980469 C 19.734375 22.234375 19.742188 22.410156 19.699219 22.457031 C 19.65625 22.5 19.546875 22.160156 19.398438 21.53125 Z M 11.441406 21.5 C 11.484375 20.789062 11.628906 20.167969 11.8125 19.910156 C 11.914062 19.773438 11.917969 19.78125 11.851562 20.023438 C 11.8125 20.171875 11.714844 20.695312 11.636719 21.195312 C 11.554688 21.691406 11.46875 22.117188 11.445312 22.140625 C 11.421875 22.164062 11.417969 21.875 11.441406 21.5 Z M 17.757812 19.777344 C 17.738281 19.726562 17.691406 19.53125 17.65625 19.34375 C 17.621094 19.15625 17.503906 18.664062 17.398438 18.246094 C 17.265625 17.707031 17.195312 17.207031 17.164062 16.503906 C 17.140625 15.964844 17.140625 15.539062 17.164062 15.558594 C 17.183594 15.578125 17.253906 16.070312 17.320312 16.648438 C 17.382812 17.230469 17.515625 18.027344 17.609375 18.429688 C 17.703125 18.828125 17.796875 19.316406 17.816406 19.515625 C 17.847656 19.863281 17.824219 19.96875 17.757812 19.777344 Z M 16 18.777344 C 16 18.152344 16.023438 17.792969 16.058594 17.90625 C 16.132812 18.15625 16.136719 19.152344 16.0625 19.53125 C 16.019531 19.746094 16.003906 19.515625 16 18.777344 Z M 18.445312 18.777344 C 18.445312 18.761719 18.363281 18.398438 18.261719 17.976562 C 18.050781 17.101562 18.066406 16.90625 18.292969 17.617188 C 18.484375 18.222656 18.59375 18.8125 18.507812 18.8125 C 18.476562 18.8125 18.445312 18.796875 18.445312 18.777344 Z M 12.902344 18.171875 C 12.921875 17.816406 13.003906 17.449219 13.148438 17.074219 C 13.265625 16.761719 13.421875 16.191406 13.492188 15.804688 C 13.632812 15.027344 13.738281 14.863281 13.660156 15.539062 C 13.582031 16.253906 13.445312 16.855469 13.257812 17.324219 C 13.160156 17.566406 13.03125 17.976562 12.976562 18.234375 L 12.871094 18.699219 Z M 16.152344 16.070312 C 16.074219 15.84375 16.109375 13.324219 16.191406 12.984375 C 16.238281 12.800781 16.261719 13.265625 16.265625 14.480469 C 16.269531 15.449219 16.257812 16.238281 16.242188 16.238281 C 16.226562 16.238281 16.183594 16.164062 16.152344 16.070312 Z M 17.90625 15.507812 C 17.738281 15 17.601562 13.183594 17.699219 12.75 L 17.777344 12.417969 L 17.785156 12.871094 C 17.796875 13.519531 17.925781 14.921875 18.019531 15.394531 C 18.121094 15.914062 18.0625 15.972656 17.90625 15.507812 Z M 13.054688 14.878906 C 13.15625 14.023438 13.503906 12.421875 13.515625 12.757812 C 13.527344 13.027344 13.222656 14.75 13.125 14.972656 L 13.015625 15.21875 Z M 14.796875 14.753906 C 14.738281 14.285156 14.75 13.332031 14.820312 12.910156 C 14.863281 12.667969 14.882812 12.941406 14.886719 13.835938 C 14.894531 14.535156 14.886719 15.105469 14.871094 15.105469 C 14.855469 15.105469 14.824219 14.945312 14.796875 14.753906 Z M 17.035156 13.875 C 17.011719 13.574219 17.019531 13.035156 17.054688 12.683594 C 17.121094 12.050781 17.125 12.0625 17.132812 13.230469 C 17.136719 13.886719 17.128906 14.421875 17.113281 14.421875 C 17.097656 14.421875 17.0625 14.175781 17.035156 13.875 Z M 14.03125 13.46875 C 14.019531 12.898438 14.125 11.859375 14.191406 11.898438 C 14.269531 11.949219 14.191406 13.300781 14.097656 13.550781 C 14.046875 13.679688 14.035156 13.667969 14.03125 13.46875 Z M 14.03125 13.46875 "/>
</g>
</svg>
