<?xml version="1.0" encoding="UTF-8"?>
<svg xmlns="http://www.w3.org/2000/svg" xmlns:xlink="http://www.w3.org/1999/xlink" width="128px" height="128px" viewBox="0 0 128 128" version="1.1">
<g id="surface1">
<path style=" stroke:none;fill-rule:nonzero;fill:rgb(38.431373%,38.431373%,38.431373%);fill-opacity:1;" d="M 67.554688 124.292969 C 66.757812 124.152344 65.390625 123.960938 64.511719 123.859375 C 63.632812 123.761719 62.722656 123.546875 62.484375 123.382812 C 62.113281 123.128906 62.132812 123.019531 62.628906 122.617188 C 62.949219 122.359375 63.1875 122.054688 63.160156 121.9375 C 63.074219 121.578125 66.34375 121.535156 67.796875 121.875 C 69.355469 122.242188 71.46875 123.578125 71.46875 124.199219 C 71.46875 124.667969 69.949219 124.703125 67.554688 124.292969 Z M 50.316406 122.867188 C 48.832031 122.546875 46.132812 122.375 41.769531 122.324219 C 33.859375 122.230469 34.390625 122.28125 35.109375 121.695312 C 36.308594 120.710938 38.214844 120.09375 41.535156 119.617188 C 43.417969 119.347656 45.066406 119.011719 45.199219 118.878906 C 45.328125 118.742188 44.90625 117.898438 44.257812 117.003906 C 40.46875 111.789062 38.632812 105.289062 38.65625 97.210938 C 38.675781 90.464844 39.894531 83.835938 43.078125 73.136719 C 44.496094 68.375 46.851562 59.117188 47.253906 56.71875 C 47.484375 55.359375 47.691406 55.429688 42.207031 54.972656 C 31.753906 54.09375 21.75 51.789062 17.617188 49.300781 C 16.917969 48.882812 15.832031 48.054688 15.203125 47.460938 C 10.027344 42.570312 13.050781 32.667969 22.726562 22.832031 C 29.695312 15.75 37.851562 10.675781 47.03125 7.714844 C 52.203125 6.042969 55.851562 5.519531 62.484375 5.496094 C 69.890625 5.46875 73.550781 6.074219 80.015625 8.40625 C 82.828125 9.417969 89.089844 12.640625 91.746094 14.4375 C 101.265625 20.886719 109.273438 30.445312 111.871094 38.464844 C 112.632812 40.816406 112.964844 44.726562 112.589844 46.902344 C 112.214844 49.082031 111.097656 51.382812 109.902344 52.433594 C 106.566406 55.367188 99.21875 56.734375 85.375 56.988281 L 77.117188 57.136719 L 77.1875 59.003906 C 77.285156 61.511719 78.292969 67.542969 79.144531 70.714844 C 79.527344 72.128906 80.765625 76.21875 81.902344 79.796875 C 84.613281 88.347656 85.597656 92.421875 86.015625 96.792969 C 86.753906 104.496094 84.933594 111.769531 80.921875 117.160156 C 80.191406 118.140625 79.664062 119.0625 79.75 119.203125 C 79.835938 119.347656 80.382812 119.46875 80.972656 119.472656 C 83.542969 119.484375 90.300781 121 90.300781 121.5625 C 90.300781 121.988281 85.84375 122.277344 82.664062 122.054688 C 80.535156 121.90625 79.164062 121.976562 77.695312 122.296875 C 74.296875 123.046875 72.027344 123.183594 70.777344 122.722656 L 69.65625 122.308594 L 72.125 120.859375 C 80.777344 115.78125 84.660156 104.558594 82.136719 91.910156 C 81.820312 90.328125 80.808594 86.648438 79.882812 83.734375 C 76.867188 74.230469 75.90625 70.566406 74.96875 64.960938 C 74.179688 60.253906 73.75 54.949219 73.804688 50.628906 C 73.832031 48.65625 73.738281 46.929688 73.601562 46.785156 C 72.339844 45.488281 53.929688 45.738281 52.554688 47.074219 C 52.433594 47.195312 51.957031 49.1875 51.5 51.507812 C 50.109375 58.582031 48.230469 66.195312 46.128906 73.289062 C 42.601562 85.179688 41.738281 90.449219 42.003906 98.421875 C 42.179688 103.710938 42.96875 107.851562 44.378906 110.863281 C 45.335938 112.90625 48.539062 117.277344 49.871094 118.359375 C 51.304688 119.519531 55.378906 121.742188 56.957031 122.226562 L 58.238281 122.621094 L 57.390625 122.996094 C 56.257812 123.503906 52.984375 123.441406 50.316406 122.867188 Z M 98.199219 53.042969 C 99.757812 52.777344 101.78125 52.335938 102.691406 52.066406 C 104.738281 51.460938 107.683594 50.125 107.683594 49.800781 C 107.683594 48.8125 103.445312 46.914062 97.636719 45.292969 C 81.59375 40.828125 65.148438 38.257812 52.636719 38.257812 C 44.550781 38.261719 32.484375 39.65625 24.675781 41.496094 C 21.8125 42.171875 18.101562 43.734375 17.679688 44.445312 C 17.414062 44.894531 18.753906 46.152344 20.316406 46.914062 C 25.421875 49.410156 33.78125 51.128906 45.558594 52.101562 L 47.898438 52.296875 L 48.269531 50.128906 C 48.472656 48.9375 48.585938 47.910156 48.523438 47.84375 C 48.457031 47.777344 47.5 47.871094 46.390625 48.050781 C 43.714844 48.492188 37.007812 48.203125 35.035156 47.5625 C 32.609375 46.78125 33.148438 46.445312 36.484375 46.667969 C 40.582031 46.9375 44.234375 46.417969 48.289062 44.980469 C 53.238281 43.226562 56.382812 42.753906 63.066406 42.757812 C 69.15625 42.765625 73.835938 43.292969 82.425781 44.9375 C 84.921875 45.417969 88.011719 45.992188 89.285156 46.21875 L 91.601562 46.628906 L 89.429688 46.867188 C 87.285156 47.105469 80.035156 46.929688 78.203125 46.59375 C 77.339844 46.4375 77.261719 46.488281 77.261719 47.207031 C 77.261719 48.152344 78.050781 48.628906 80.738281 49.316406 C 82.707031 49.820312 88.402344 50.390625 92.617188 50.507812 L 95.078125 50.578125 L 93.339844 51.007812 C 90.648438 51.675781 82.691406 51.5625 79.652344 50.8125 L 77.261719 50.222656 L 77.261719 53.824219 L 86.316406 53.675781 C 92.601562 53.570312 96.234375 53.375 98.199219 53.042969 Z M 44.929688 42.242188 C 46.761719 41.3125 49.246094 40.835938 50.355469 41.203125 L 51.03125 41.429688 L 50.328125 41.699219 C 49.199219 42.136719 44.59375 43.160156 43.875 43.136719 C 43.414062 43.121094 43.730469 42.851562 44.929688 42.242188 Z M 109.847656 44.015625 C 109.410156 40.078125 107.304688 35.128906 104.242188 30.855469 C 96.554688 20.121094 85.152344 12.460938 72.40625 9.46875 C 69.914062 8.882812 68.738281 8.808594 62.339844 8.808594 C 55.886719 8.808594 54.765625 8.882812 52.054688 9.496094 C 37.03125 12.902344 22.5625 23.613281 17.078125 35.386719 C 16.140625 37.402344 15.058594 41.535156 15.382812 41.871094 C 15.460938 41.953125 16.734375 41.398438 18.21875 40.640625 C 21.117188 39.152344 24.445312 38.261719 31.339844 37.132812 C 51.167969 33.875 64.898438 34.582031 90.300781 40.167969 C 98.550781 41.980469 102.316406 43.0625 105.945312 44.65625 C 107.457031 45.320312 109.003906 45.871094 109.375 45.875 C 110.039062 45.882812 110.050781 45.835938 109.847656 44.015625 Z M 102.953125 38.316406 C 102.503906 37.15625 101.519531 35.214844 100.765625 34.003906 C 98.941406 31.074219 98.925781 31.046875 99.15625 31.046875 C 99.703125 31.046875 102.484375 34.511719 103.289062 36.195312 C 104.136719 37.964844 104.542969 40.441406 103.988281 40.429688 C 103.867188 40.429688 103.402344 39.476562 102.953125 38.316406 Z M 96.46875 35.859375 C 95.710938 34.253906 94.585938 32.527344 93.476562 31.257812 C 91.578125 29.09375 91.535156 28.636719 93.375 30.164062 C 94.796875 31.34375 95.183594 31.785156 96.28125 33.46875 C 97.300781 35.035156 97.914062 36.792969 97.78125 37.761719 C 97.710938 38.253906 97.363281 37.75 96.46875 35.859375 Z M 52.917969 118.339844 C 51.976562 117.660156 51.277344 116.757812 49.957031 114.527344 C 48.695312 112.402344 48.398438 110.78125 49.609375 112.648438 C 50.015625 113.273438 51.261719 114.929688 52.375 116.324219 C 54.296875 118.730469 54.5 119.488281 52.917969 118.339844 Z M 72.515625 118.179688 C 72.632812 117.96875 73.539062 116.710938 74.523438 115.378906 C 75.507812 114.046875 76.664062 112.273438 77.089844 111.441406 L 77.863281 109.925781 L 77.691406 111.136719 C 77.421875 113.046875 76.136719 115.40625 74.476562 117.046875 C 73.054688 118.453125 72.023438 119.046875 72.515625 118.179688 Z M 63.160156 116.390625 C 63.386719 115.832031 63.925781 114.765625 64.351562 114.015625 C 65.265625 112.417969 65.058594 113.476562 64.046875 115.582031 C 63.25 117.242188 62.550781 117.878906 63.160156 116.390625 Z M 65.964844 117.003906 C 65.964844 116.898438 66.28125 116.082031 66.667969 115.1875 C 67.058594 114.292969 67.65625 112.335938 68.003906 110.835938 C 68.605469 108.226562 69.148438 106.910156 69.148438 108.066406 C 69.148438 109.5 68.441406 113.089844 67.945312 114.167969 C 67.414062 115.328125 65.96875 117.398438 65.964844 117.003906 Z M 57.152344 114.417969 C 56.578125 113.175781 55.824219 110.523438 55.835938 109.777344 C 55.847656 109.007812 56.644531 110.703125 57.292969 112.871094 C 58.003906 115.246094 57.925781 116.089844 57.152344 114.417969 Z M 71.488281 114.917969 C 71.476562 114.664062 71.792969 112.824219 72.1875 110.828125 C 72.585938 108.835938 72.914062 107.089844 72.914062 106.957031 C 72.914062 106.820312 73.046875 106.796875 73.207031 106.898438 C 73.601562 107.15625 73.5625 108.34375 73.082031 110.683594 C 72.664062 112.707031 71.523438 115.738281 71.488281 114.917969 Z M 53.027344 112.007812 C 51.957031 109.996094 51.1875 106.851562 51.191406 104.519531 C 51.195312 103.011719 51.28125 102.496094 51.476562 102.8125 C 51.632812 103.0625 51.757812 103.777344 51.761719 104.40625 C 51.765625 105.035156 52.230469 107.050781 52.800781 108.886719 C 53.933594 112.558594 54.03125 113.902344 53.027344 112.007812 Z M 64.367188 105.199219 C 64.425781 103.46875 64.613281 101.714844 64.785156 101.296875 C 65.03125 100.710938 65.078125 101.351562 64.992188 104.121094 C 64.929688 106.089844 64.738281 107.84375 64.570312 108.019531 C 64.355469 108.246094 64.292969 107.414062 64.367188 105.199219 Z M 77.980469 106.140625 C 78.09375 105.558594 78.378906 104.46875 78.617188 103.71875 C 78.871094 102.921875 79.117188 100.628906 79.214844 98.1875 C 79.304688 95.894531 79.417969 94.0625 79.46875 94.117188 C 79.519531 94.167969 79.6875 95.378906 79.84375 96.808594 C 80.175781 99.871094 79.863281 102.742188 78.949219 105.03125 C 78.148438 107.042969 77.714844 107.539062 77.980469 106.140625 Z M 46.152344 106.226562 C 45.640625 105.695312 44.785156 103.171875 44.515625 101.398438 C 44.238281 99.582031 44.304688 97.230469 44.730469 94.03125 L 44.910156 92.667969 L 45.128906 93.878906 C 45.253906 94.542969 45.355469 96.65625 45.359375 98.570312 C 45.363281 101.25 45.507812 102.535156 45.980469 104.128906 C 46.5625 106.097656 46.613281 106.710938 46.152344 106.226562 Z M 73.910156 97.003906 C 73.890625 92.253906 73.816406 91.515625 73.136719 89.1875 C 72.722656 87.773438 72.433594 86.558594 72.496094 86.492188 C 72.746094 86.234375 74.089844 89.753906 74.53125 91.824219 C 75.09375 94.464844 74.996094 99.714844 74.351562 101.242188 C 73.960938 102.175781 73.929688 101.863281 73.910156 97.003906 Z M 70.308594 97.839844 C 70.308594 96.269531 70.222656 94.75 70.113281 94.460938 C 69.992188 94.121094 70.03125 94.003906 70.230469 94.128906 C 70.785156 94.488281 71.25 97.304688 71.042969 99.039062 C 70.730469 101.652344 70.308594 100.964844 70.308594 97.839844 Z M 50.71875 95.039062 C 50.339844 91.589844 50.457031 84.949219 50.917969 83.550781 C 51.296875 82.414062 51.332031 82.902344 51.332031 89.507812 C 51.332031 93.464844 51.246094 96.792969 51.140625 96.902344 C 51.035156 97.015625 50.847656 96.175781 50.71875 95.039062 Z M 63.574219 90.597656 C 63.453125 90.292969 63.355469 89.542969 63.355469 88.933594 C 63.355469 88.324219 63.160156 86.753906 62.921875 85.449219 C 62.457031 82.921875 62.390625 79.402344 62.761719 76.921875 C 62.949219 75.675781 62.996094 76.023438 63.027344 78.867188 C 63.046875 80.769531 63.265625 83.453125 63.515625 84.828125 C 63.960938 87.316406 64.003906 91.703125 63.574219 90.597656 Z M 77.597656 86.121094 C 77.089844 83.921875 76.726562 82.070312 76.789062 82.007812 C 76.953125 81.835938 78.324219 86.023438 78.726562 87.921875 C 78.945312 88.945312 78.96875 89.644531 78.792969 89.824219 C 78.617188 90.007812 78.179688 88.648438 77.597656 86.121094 Z M 45.765625 86.003906 C 45.929688 83.164062 46.515625 80.667969 47.257812 79.640625 C 47.65625 79.085938 47.667969 79.125 47.410156 80.101562 C 47.253906 80.683594 46.863281 82.785156 46.542969 84.773438 C 46.222656 86.761719 45.882812 88.464844 45.785156 88.558594 C 45.6875 88.652344 45.679688 87.503906 45.765625 86.003906 Z M 71.023438 79.117188 C 70.949219 78.910156 70.769531 78.125 70.625 77.375 C 70.480469 76.625 70.019531 74.652344 69.601562 72.984375 C 69.054688 70.828125 68.789062 68.828125 68.664062 66.019531 C 68.566406 63.855469 68.5625 62.152344 68.648438 62.234375 C 68.738281 62.320312 69.019531 64.28125 69.277344 66.597656 C 69.53125 68.914062 70.054688 72.117188 70.4375 73.714844 C 70.820312 75.3125 71.191406 77.265625 71.261719 78.058594 C 71.394531 79.457031 71.296875 79.882812 71.023438 79.117188 Z M 64.007812 75.105469 C 64.003906 72.613281 64.09375 71.175781 64.226562 71.621094 C 64.53125 72.625 64.542969 76.605469 64.246094 78.132812 C 64.082031 78.980469 64.011719 78.070312 64.007812 75.105469 Z M 73.785156 75.117188 C 73.785156 75.039062 73.449219 73.59375 73.042969 71.90625 C 72.195312 68.410156 72.269531 67.617188 73.171875 70.46875 C 73.941406 72.886719 74.367188 75.257812 74.039062 75.257812 C 73.898438 75.257812 73.785156 75.195312 73.785156 75.117188 Z M 51.605469 72.683594 C 51.683594 71.269531 52.011719 69.804688 52.585938 68.292969 C 53.0625 67.042969 53.679688 64.761719 53.960938 63.21875 C 54.527344 60.109375 54.957031 59.449219 54.648438 62.160156 C 54.324219 65.015625 53.773438 67.425781 53.023438 69.300781 C 52.636719 70.269531 52.132812 71.90625 51.90625 72.933594 L 51.488281 74.800781 Z M 64.609375 64.28125 C 64.304688 63.375 64.433594 53.292969 64.769531 51.941406 C 64.953125 51.207031 65.042969 53.0625 65.0625 57.921875 C 65.078125 61.792969 65.035156 64.960938 64.96875 64.960938 C 64.898438 64.960938 64.738281 64.652344 64.609375 64.28125 Z M 71.625 62.023438 C 70.945312 60.003906 70.40625 52.734375 70.804688 51 L 71.109375 49.667969 L 71.144531 51.484375 C 71.191406 54.085938 71.710938 59.6875 72.074219 61.578125 C 72.476562 63.660156 72.246094 63.886719 71.625 62.023438 Z M 52.222656 59.511719 C 52.617188 56.097656 54.011719 49.691406 54.066406 51.03125 C 54.109375 52.105469 52.886719 58.996094 52.496094 59.890625 L 52.0625 60.871094 Z M 59.195312 59.015625 C 58.949219 57.148438 58.996094 53.332031 59.285156 51.636719 C 59.449219 50.675781 59.527344 51.773438 59.550781 55.347656 C 59.574219 58.136719 59.542969 60.417969 59.484375 60.417969 C 59.425781 60.417969 59.296875 59.785156 59.195312 59.015625 Z M 68.144531 55.5 C 68.042969 54.289062 68.078125 52.144531 68.226562 50.730469 C 68.488281 48.207031 68.492188 48.25 68.53125 52.925781 C 68.554688 55.546875 68.515625 57.695312 68.449219 57.695312 C 68.382812 57.695312 68.246094 56.707031 68.144531 55.5 Z M 56.128906 53.878906 C 56.085938 51.59375 56.507812 47.429688 56.765625 47.597656 C 57.082031 47.800781 56.773438 53.207031 56.390625 54.199219 C 56.183594 54.726562 56.144531 54.679688 56.128906 53.878906 Z M 56.128906 53.878906 "/>
</g>
</svg>
