<?xml version="1.0" encoding="UTF-8"?>
<svg xmlns="http://www.w3.org/2000/svg" xmlns:xlink="http://www.w3.org/1999/xlink" width="128px" height="128px" viewBox="0 0 128 128" version="1.1">
<g id="surface1">
<path style=" stroke:none;fill-rule:nonzero;fill:rgb(38.431373%,38.431373%,38.431373%);fill-opacity:1;" d="M 32.539062 115.394531 C 32.042969 114.554688 35.753906 112.929688 39.335938 112.417969 C 42.3125 111.992188 42.609375 111.101562 40.203125 109.835938 C 39.277344 109.351562 37.355469 109.207031 34.941406 109.441406 C 30.175781 109.90625 28.5 109.46875 25.890625 107.074219 C 23.59375 104.96875 22.613281 102.113281 21.929688 95.539062 L 21.5 91.371094 L 17.816406 91.03125 C 11.78125 90.472656 8.167969 87.765625 5.460938 81.757812 C 3.59375 77.617188 3.515625 71.957031 5.253906 67.097656 C 5.941406 65.179688 6.878906 63.285156 7.332031 62.894531 C 7.933594 62.371094 8.070312 61.058594 7.839844 58.066406 C 7.5625 54.441406 7.714844 53.617188 9.15625 51.054688 C 11.242188 47.335938 15.164062 44.535156 20.210938 43.152344 C 24.160156 42.070312 24.234375 42.074219 27.453125 43.539062 C 32.582031 45.878906 32.855469 45.910156 32.855469 44.148438 C 32.855469 42.988281 32.042969 42.042969 29.640625 40.386719 C 22.660156 35.585938 21.738281 28.25 27.410156 22.6875 C 31.738281 18.445312 38.886719 16.09375 43.894531 17.269531 C 46.347656 17.84375 46.527344 17.785156 47.472656 16.0625 C 48.019531 15.066406 49.308594 13.730469 50.328125 13.097656 C 52.671875 11.648438 57.664062 11.609375 60.222656 13.019531 C 61.945312 13.96875 62.359375 13.972656 64.828125 13.070312 C 70.660156 10.941406 81.210938 13.488281 85.378906 18.03125 C 87.554688 20.402344 87.707031 24.4375 85.742188 27.753906 C 84.445312 29.945312 84.441406 30.050781 85.523438 31.445312 C 86.632812 32.878906 86.648438 32.878906 88.75 31.691406 C 91.96875 29.867188 100.414062 30.007812 103.890625 31.9375 C 107.902344 34.164062 110.871094 37.21875 112.4375 40.734375 C 114.746094 45.902344 114.1875 50.65625 110.738281 55.28125 C 109.765625 56.582031 108.972656 57.933594 108.972656 58.28125 C 108.972656 58.628906 110.429688 59.355469 112.210938 59.898438 C 122.003906 62.871094 126.921875 75.261719 122.164062 84.980469 C 119.917969 89.566406 116.628906 92.34375 111.214844 94.222656 C 107.320312 95.578125 107.226562 95.664062 105.40625 99.644531 C 104.390625 101.867188 102.828125 104.285156 101.9375 105.019531 C 99.851562 106.730469 94.671875 107.417969 91.210938 106.445312 C 88.582031 105.707031 88.542969 105.71875 86.75 107.992188 C 81.796875 114.261719 72.039062 116.332031 63.660156 112.890625 L 60.785156 111.707031 L 57.851562 113.257812 C 56.238281 114.109375 52.925781 115.078125 50.484375 115.40625 C 44.472656 116.222656 33.027344 116.214844 32.539062 115.394531 Z M 54.664062 109.992188 C 55.835938 109.480469 56.792969 108.90625 56.792969 108.710938 C 56.792969 108.519531 55.863281 106.988281 54.726562 105.3125 C 53.589844 103.640625 52.398438 101.421875 52.082031 100.386719 C 51.550781 98.671875 51.050781 98.390625 46.320312 97.183594 C 39.625 95.472656 36.027344 93.207031 32.59375 88.550781 C 28.953125 83.609375 26.570312 81.585938 23.78125 81.058594 C 19.703125 80.285156 17.507812 78.601562 17.507812 76.242188 C 17.507812 75.910156 18.128906 76.054688 18.890625 76.566406 C 19.648438 77.074219 21.648438 77.703125 23.328125 77.957031 C 28.117188 78.6875 29.765625 79.707031 34.695312 85.011719 C 40.558594 91.3125 44.03125 93.117188 50.289062 93.117188 C 55.765625 93.117188 58.933594 91.628906 63.027344 87.128906 C 66.480469 83.332031 67.59375 79.488281 66.953125 73.585938 C 66.390625 68.386719 64.277344 64.195312 61.039062 61.851562 C 58.679688 60.144531 57.96875 59.964844 53.472656 59.96875 C 49.113281 59.972656 47.792969 60.277344 42.675781 62.464844 C 35.128906 65.691406 28.605469 66.351562 25.949219 64.152344 C 23.730469 62.316406 23.617188 60.648438 25.78125 61.679688 C 28.28125 62.867188 40.222656 60.242188 40.222656 58.503906 C 40.222656 58.238281 38.960938 56.519531 37.421875 54.683594 C 35.371094 52.230469 33.941406 51.152344 32.050781 50.628906 C 30.636719 50.234375 28.566406 49.328125 27.449219 48.617188 C 25.050781 47.082031 21.425781 46.976562 18.855469 48.363281 C 16.121094 49.839844 13.277344 52.527344 12.25 54.601562 C 11.28125 56.558594 11.632812 57.980469 13.6875 60.441406 C 14.539062 61.460938 14.375 61.828125 11.808594 64.691406 C 6.085938 71.078125 6.523438 78.707031 12.949219 84.597656 C 14.960938 86.441406 15.40625 86.566406 19.964844 86.566406 C 25.796875 86.566406 25.777344 86.539062 26.382812 94.328125 C 26.859375 100.464844 28.160156 103.5 30.746094 104.527344 C 31.613281 104.871094 34.332031 105.152344 36.792969 105.152344 C 40.730469 105.152344 41.550781 105.371094 43.660156 106.96875 C 44.976562 107.96875 46.429688 109.265625 46.894531 109.851562 C 47.949219 111.191406 51.761719 111.257812 54.664062 109.992188 Z M 51.699219 81.03125 C 51.484375 80.808594 52.269531 79.625 53.4375 78.402344 C 55.695312 76.046875 56.167969 73.558594 54.980469 70.292969 C 54.523438 69.042969 54.574219 68.753906 55.199219 69.003906 C 56.347656 69.464844 57.558594 74.144531 57.09375 76.339844 C 56.878906 77.363281 55.875 78.925781 54.859375 79.816406 C 52.953125 81.496094 52.359375 81.722656 51.699219 81.03125 Z M 78.585938 108.324219 C 79.9375 107.679688 81.613281 106.625 82.3125 105.984375 C 83.890625 104.527344 86.507812 99.820312 87.433594 96.757812 C 88.910156 91.886719 91.453125 88.742188 95.875 86.308594 C 103 82.390625 106.003906 78.558594 106.003906 73.398438 C 106.003906 68.886719 104.589844 61.03125 103.714844 60.679688 C 102.15625 60.054688 99.03125 63.074219 97.863281 66.328125 C 96.480469 70.183594 92.867188 74.191406 89.953125 75.097656 C 87.414062 75.886719 82.828125 75.632812 83.007812 74.707031 C 83.074219 74.355469 83.964844 73.886719 84.984375 73.671875 C 88.214844 72.980469 89.875 71.292969 92.339844 66.199219 C 95.308594 60.058594 97.09375 58.261719 102.484375 55.988281 C 106.207031 54.417969 106.90625 53.847656 108.15625 51.371094 C 110.855469 46.03125 109.566406 41.527344 104.207031 37.597656 C 100.539062 34.90625 95.542969 34.554688 90.515625 36.640625 C 87.042969 38.082031 86.871094 38.257812 86.851562 40.40625 C 86.84375 41.644531 86.308594 44.242188 85.667969 46.179688 C 85.03125 48.113281 84.554688 49.730469 84.617188 49.773438 C 84.675781 49.816406 85.746094 50.015625 87 50.214844 C 89.621094 50.636719 92.398438 48.871094 92.398438 46.78125 C 92.398438 44.796875 93.363281 45.355469 94.066406 47.746094 C 95.148438 51.433594 93.550781 52.417969 83.046875 54.535156 C 78.9375 55.363281 77.375 56.992188 76.730469 61.105469 C 76.214844 64.371094 75.128906 65.773438 72.363281 66.726562 L 70.277344 67.441406 L 70.675781 72.429688 C 71.558594 83.457031 66.894531 92.722656 58.851562 95.929688 C 55.632812 97.210938 55.398438 98.640625 57.792969 102.328125 C 62.320312 109.292969 71.199219 111.851562 78.585938 108.324219 Z M 75.515625 98.199219 C 77.542969 97.617188 79.804688 96.78125 80.539062 96.339844 C 82.167969 95.367188 82.574219 95.339844 82.574219 96.1875 C 82.574219 97.683594 78.585938 99.378906 75.210938 99.320312 L 71.832031 99.261719 Z M 98.578125 101.285156 C 99.230469 100.917969 100.445312 99.214844 101.277344 97.5 C 103.128906 93.6875 104.96875 92.117188 109.683594 90.320312 C 115.765625 88.007812 120.019531 82.53125 120.019531 77.019531 C 120.019531 74.070312 118.277344 69.746094 116.175781 67.484375 C 114.355469 65.519531 109.988281 63.496094 109.246094 64.269531 C 109.066406 64.460938 109.214844 67.09375 109.574219 70.117188 C 110.433594 77.351562 109.703125 80.449219 106.167969 84.554688 C 104.714844 86.242188 101.917969 88.539062 99.957031 89.65625 C 95.269531 92.324219 94.023438 93.492188 92.464844 96.679688 C 90.984375 99.710938 90.839844 101.058594 91.9375 101.523438 C 93.324219 102.105469 97.363281 101.960938 98.578125 101.285156 Z M 72.292969 61.761719 C 72.546875 61.613281 72.753906 60.96875 72.753906 60.328125 C 72.753906 58.238281 74.53125 54.648438 77.371094 51.011719 C 82.042969 45.023438 82.570312 43.792969 82.574219 38.925781 C 82.574219 34.941406 82.414062 34.382812 80.78125 32.675781 C 77.777344 29.542969 75.050781 30.425781 74.78125 34.625 C 74.691406 36.0625 74.21875 38.027344 73.738281 38.988281 C 71.574219 43.296875 66.042969 46.832031 61.476562 46.824219 C 59.316406 46.820312 54.6875 45.609375 55.117188 45.160156 C 55.269531 45 57.226562 44.761719 59.46875 44.628906 C 66.070312 44.242188 70.640625 40.617188 71.8125 34.835938 C 72.234375 32.75 74.136719 30.753906 78.871094 27.425781 C 83.523438 24.160156 83.265625 21.421875 78.078125 18.898438 C 74.496094 17.15625 69.605469 16.855469 65.144531 18.101562 C 62.832031 18.746094 61.859375 18.683594 58.65625 17.671875 C 54.566406 16.378906 52.269531 16.71875 51.027344 18.796875 C 50.503906 19.675781 50.609375 20.398438 51.496094 22.003906 C 52.125 23.140625 53.480469 25.730469 54.503906 27.757812 C 55.71875 30.160156 56.753906 31.445312 57.472656 31.445312 C 59.871094 31.445312 61.800781 29.820312 63.710938 26.195312 C 64.796875 24.136719 65.972656 22.566406 66.328125 22.710938 C 66.683594 22.851562 67.5 22.570312 68.140625 22.078125 C 69.46875 21.066406 72.621094 20.917969 73.964844 21.804688 C 75.058594 22.527344 74.996094 22.582031 71.527344 23.769531 C 69.097656 24.601562 68.542969 25.164062 66.921875 28.429688 C 65.800781 30.691406 64.230469 32.738281 62.90625 33.652344 C 58.191406 36.910156 51.628906 37.480469 46.667969 35.0625 C 42.171875 32.871094 36.140625 28.699219 37.023438 28.390625 C 37.441406 28.246094 40.144531 29.015625 43.023438 30.105469 C 48.011719 31.988281 52.496094 32.683594 52.496094 31.570312 C 52.496094 30.46875 48.921875 25.242188 47.027344 23.578125 C 45.390625 22.140625 44.441406 21.828125 41.6875 21.828125 C 37.652344 21.828125 34.941406 22.933594 31.289062 26.058594 C 26.628906 30.046875 27.007812 33.609375 32.503906 37.417969 C 35.828125 39.722656 37.765625 42.785156 37.765625 45.738281 C 37.765625 46.640625 38.96875 49.011719 40.515625 51.160156 C 44.441406 56.613281 44.621094 56.726562 47.855469 55.875 C 54.464844 54.140625 61.328125 55.789062 66.105469 60.269531 C 68.644531 62.648438 70.15625 63.015625 72.292969 61.761719 Z M 84.417969 115.449219 L 81.042969 115.0625 L 83.496094 113.832031 C 86.976562 112.085938 96.644531 112.019531 99.917969 113.71875 C 101.183594 114.375 102.21875 115.167969 102.21875 115.480469 C 102.21875 116.097656 89.863281 116.078125 84.417969 115.449219 Z M 84.417969 115.449219 "/>
</g>
</svg>
