<?xml version="1.0" encoding="UTF-8"?>
<svg xmlns="http://www.w3.org/2000/svg" xmlns:xlink="http://www.w3.org/1999/xlink" width="32px" height="32px" viewBox="0 0 32 32" version="1.1">
<g id="surface1">
<path style=" stroke:none;fill-rule:nonzero;fill:rgb(38.431373%,38.431373%,38.431373%);fill-opacity:1;" d="M 8.136719 28.847656 C 8.011719 28.640625 8.9375 28.234375 9.832031 28.105469 C 10.578125 28 10.652344 27.773438 10.050781 27.457031 C 9.820312 27.335938 9.339844 27.300781 8.734375 27.359375 C 7.542969 27.476562 7.125 27.367188 6.472656 26.769531 C 5.898438 26.242188 5.652344 25.527344 5.484375 23.882812 L 5.375 22.84375 L 4.453125 22.757812 C 2.945312 22.617188 2.042969 21.941406 1.367188 20.441406 C 0.898438 19.402344 0.878906 17.988281 1.3125 16.773438 C 1.484375 16.292969 1.71875 15.820312 1.832031 15.722656 C 1.984375 15.59375 2.019531 15.265625 1.960938 14.515625 C 1.890625 13.609375 1.929688 13.40625 2.289062 12.761719 C 2.808594 11.835938 3.789062 11.132812 5.054688 10.789062 C 6.039062 10.519531 6.058594 10.519531 6.863281 10.886719 C 8.144531 11.46875 8.214844 11.476562 8.214844 11.035156 C 8.214844 10.746094 8.011719 10.511719 7.410156 10.097656 C 5.664062 8.894531 5.433594 7.0625 6.851562 5.671875 C 7.933594 4.609375 9.722656 4.023438 10.972656 4.316406 C 11.585938 4.460938 11.632812 4.445312 11.867188 4.015625 C 12.003906 3.765625 12.328125 3.433594 12.582031 3.273438 C 13.167969 2.914062 14.417969 2.902344 15.054688 3.253906 C 15.488281 3.492188 15.589844 3.492188 16.207031 3.269531 C 17.664062 2.734375 20.304688 3.371094 21.34375 4.507812 C 21.890625 5.101562 21.925781 6.109375 21.4375 6.9375 C 21.113281 7.484375 21.109375 7.511719 21.382812 7.863281 C 21.660156 8.21875 21.664062 8.21875 22.1875 7.921875 C 22.992188 7.46875 25.101562 7.5 25.972656 7.984375 C 26.976562 8.539062 27.71875 9.304688 28.109375 10.183594 C 28.6875 11.476562 28.546875 12.664062 27.683594 13.820312 C 27.441406 14.144531 27.242188 14.484375 27.242188 14.570312 C 27.242188 14.65625 27.605469 14.839844 28.050781 14.972656 C 30.5 15.71875 31.730469 18.816406 30.539062 21.246094 C 29.980469 22.390625 29.15625 23.085938 27.804688 23.554688 C 26.828125 23.894531 26.808594 23.914062 26.351562 24.910156 C 26.097656 25.464844 25.707031 26.070312 25.484375 26.253906 C 24.964844 26.683594 23.667969 26.855469 22.804688 26.613281 C 22.144531 26.425781 22.136719 26.429688 21.6875 26.996094 C 20.449219 28.566406 18.007812 29.082031 15.914062 28.222656 L 15.195312 27.925781 L 14.464844 28.3125 C 14.058594 28.527344 13.230469 28.769531 12.621094 28.851562 C 11.117188 29.054688 8.257812 29.054688 8.136719 28.847656 Z M 13.667969 27.5 C 13.960938 27.371094 14.199219 27.226562 14.199219 27.179688 C 14.199219 27.128906 13.964844 26.746094 13.683594 26.328125 C 13.398438 25.910156 13.101562 25.355469 13.019531 25.097656 C 12.886719 24.667969 12.761719 24.597656 11.582031 24.296875 C 9.90625 23.867188 9.007812 23.300781 8.148438 22.136719 C 7.238281 20.902344 6.644531 20.394531 5.945312 20.265625 C 4.925781 20.070312 4.378906 19.652344 4.378906 19.0625 C 4.378906 18.976562 4.53125 19.015625 4.722656 19.140625 C 4.914062 19.269531 5.410156 19.425781 5.832031 19.488281 C 7.027344 19.671875 7.441406 19.925781 8.675781 21.253906 C 10.140625 22.828125 11.007812 23.277344 12.574219 23.277344 C 13.941406 23.277344 14.734375 22.90625 15.757812 21.78125 C 16.621094 20.832031 16.898438 19.871094 16.738281 18.394531 C 16.597656 17.097656 16.070312 16.046875 15.261719 15.460938 C 14.671875 15.035156 14.492188 14.992188 13.367188 14.992188 C 12.277344 14.992188 11.949219 15.070312 10.667969 15.617188 C 8.78125 16.421875 7.152344 16.585938 6.488281 16.039062 C 5.933594 15.578125 5.902344 15.160156 6.445312 15.417969 C 7.070312 15.71875 10.054688 15.0625 10.054688 14.625 C 10.054688 14.558594 9.742188 14.128906 9.355469 13.671875 C 8.84375 13.058594 8.484375 12.789062 8.011719 12.65625 C 7.660156 12.558594 7.140625 12.332031 6.863281 12.152344 C 6.261719 11.769531 5.355469 11.746094 4.714844 12.089844 C 4.03125 12.460938 3.320312 13.132812 3.0625 13.648438 C 2.820312 14.140625 2.90625 14.496094 3.421875 15.109375 C 3.632812 15.363281 3.59375 15.457031 2.953125 16.171875 C 1.523438 17.769531 1.632812 19.675781 3.238281 21.148438 C 3.738281 21.609375 3.851562 21.640625 4.992188 21.640625 C 6.449219 21.640625 6.445312 21.632812 6.597656 23.582031 C 6.714844 25.117188 7.039062 25.875 7.6875 26.132812 C 7.902344 26.21875 8.582031 26.289062 9.199219 26.289062 C 10.183594 26.289062 10.386719 26.34375 10.914062 26.742188 C 11.242188 26.992188 11.609375 27.316406 11.722656 27.464844 C 11.988281 27.796875 12.941406 27.816406 13.667969 27.5 Z M 12.925781 20.257812 C 12.871094 20.203125 13.066406 19.90625 13.359375 19.601562 C 13.921875 19.011719 14.042969 18.390625 13.746094 17.574219 C 13.632812 17.261719 13.644531 17.1875 13.800781 17.25 C 14.085938 17.367188 14.390625 18.535156 14.273438 19.085938 C 14.21875 19.339844 13.96875 19.730469 13.714844 19.953125 C 13.238281 20.375 13.089844 20.429688 12.925781 20.257812 Z M 19.648438 27.082031 C 19.984375 26.917969 20.402344 26.65625 20.578125 26.496094 C 20.972656 26.132812 21.628906 24.953125 21.859375 24.191406 C 22.226562 22.972656 22.863281 22.183594 23.96875 21.578125 C 25.75 20.597656 26.5 19.640625 26.5 18.347656 C 26.5 17.222656 26.148438 15.257812 25.929688 15.171875 C 25.539062 15.015625 24.757812 15.769531 24.464844 16.582031 C 24.121094 17.546875 23.214844 18.546875 22.488281 18.773438 C 21.855469 18.972656 20.707031 18.90625 20.75 18.675781 C 20.769531 18.589844 20.992188 18.472656 21.246094 18.417969 C 22.054688 18.246094 22.46875 17.824219 23.085938 16.550781 C 23.828125 15.015625 24.273438 14.566406 25.621094 13.996094 C 26.550781 13.605469 26.726562 13.460938 27.039062 12.84375 C 27.714844 11.507812 27.390625 10.382812 26.050781 9.398438 C 25.132812 8.726562 23.886719 8.640625 22.628906 9.160156 C 21.761719 9.519531 21.71875 9.5625 21.714844 10.101562 C 21.710938 10.410156 21.578125 11.0625 21.417969 11.542969 C 21.257812 12.027344 21.140625 12.433594 21.152344 12.445312 C 21.167969 12.453125 21.4375 12.503906 21.75 12.554688 C 22.40625 12.660156 23.097656 12.21875 23.097656 11.695312 C 23.097656 11.199219 23.339844 11.339844 23.515625 11.9375 C 23.789062 12.859375 23.386719 13.105469 20.761719 13.632812 C 19.734375 13.839844 19.34375 14.246094 19.183594 15.277344 C 19.054688 16.09375 18.78125 16.441406 18.089844 16.679688 L 17.570312 16.859375 L 17.667969 18.109375 C 17.890625 20.863281 16.722656 23.179688 14.710938 23.984375 C 13.910156 24.304688 13.847656 24.660156 14.449219 25.582031 C 15.578125 27.324219 17.800781 27.964844 19.648438 27.082031 Z M 18.878906 24.550781 C 19.386719 24.40625 19.949219 24.195312 20.136719 24.085938 C 20.542969 23.84375 20.644531 23.835938 20.644531 24.046875 C 20.644531 24.421875 19.644531 24.84375 18.800781 24.828125 L 17.957031 24.816406 Z M 24.644531 25.320312 C 24.808594 25.230469 25.113281 24.804688 25.320312 24.375 C 25.78125 23.421875 26.242188 23.027344 27.421875 22.582031 C 28.941406 22 30.003906 20.632812 30.003906 19.253906 C 30.003906 18.515625 29.570312 17.4375 29.042969 16.871094 C 28.589844 16.378906 27.496094 15.875 27.3125 16.066406 C 27.265625 16.113281 27.304688 16.773438 27.394531 17.53125 C 27.609375 19.339844 27.425781 20.113281 26.542969 21.136719 C 26.179688 21.5625 25.480469 22.136719 24.988281 22.414062 C 23.816406 23.082031 23.507812 23.375 23.117188 24.167969 C 22.746094 24.925781 22.710938 25.265625 22.984375 25.378906 C 23.332031 25.527344 24.339844 25.492188 24.644531 25.320312 Z M 18.074219 15.441406 C 18.136719 15.402344 18.1875 15.242188 18.1875 15.082031 C 18.1875 14.558594 18.632812 13.664062 19.34375 12.753906 C 20.511719 11.253906 20.644531 10.949219 20.644531 9.730469 C 20.644531 8.734375 20.605469 8.59375 20.195312 8.167969 C 19.445312 7.386719 18.761719 7.605469 18.695312 8.65625 C 18.671875 9.015625 18.554688 9.507812 18.433594 9.746094 C 17.894531 10.824219 16.511719 11.707031 15.367188 11.707031 C 14.828125 11.703125 13.671875 11.402344 13.78125 11.289062 C 13.816406 11.25 14.308594 11.191406 14.867188 11.15625 C 16.515625 11.0625 17.660156 10.152344 17.953125 8.710938 C 18.058594 8.1875 18.535156 7.6875 19.71875 6.855469 C 20.878906 6.039062 20.816406 5.355469 19.519531 4.726562 C 18.625 4.289062 17.402344 4.214844 16.285156 4.527344 C 15.707031 4.6875 15.464844 4.671875 14.664062 4.417969 C 13.640625 4.09375 13.066406 4.179688 12.757812 4.699219 C 12.625 4.917969 12.652344 5.101562 12.875 5.5 C 13.03125 5.785156 13.371094 6.433594 13.625 6.941406 C 13.929688 7.539062 14.1875 7.859375 14.367188 7.859375 C 14.96875 7.859375 15.449219 7.457031 15.925781 6.550781 C 16.199219 6.035156 16.492188 5.640625 16.582031 5.675781 C 16.671875 5.714844 16.875 5.640625 17.035156 5.519531 C 17.367188 5.265625 18.15625 5.230469 18.492188 5.453125 C 18.765625 5.632812 18.75 5.644531 17.882812 5.941406 C 17.273438 6.148438 17.136719 6.292969 16.730469 7.109375 C 16.449219 7.671875 16.058594 8.183594 15.726562 8.414062 C 14.546875 9.226562 12.90625 9.371094 11.667969 8.765625 C 10.542969 8.21875 9.035156 7.175781 9.253906 7.097656 C 9.359375 7.0625 10.035156 7.253906 10.757812 7.527344 C 12.003906 7.996094 13.125 8.171875 13.125 7.890625 C 13.125 7.617188 12.230469 6.308594 11.757812 5.894531 C 11.347656 5.535156 11.109375 5.457031 10.421875 5.457031 C 9.414062 5.457031 8.734375 5.734375 7.820312 6.515625 C 6.65625 7.511719 6.753906 8.402344 8.125 9.355469 C 8.957031 9.929688 9.441406 10.695312 9.441406 11.433594 C 9.441406 11.660156 9.742188 12.253906 10.128906 12.789062 C 11.109375 14.152344 11.15625 14.183594 11.964844 13.96875 C 13.617188 13.535156 15.332031 13.949219 16.527344 15.066406 C 17.160156 15.664062 17.539062 15.753906 18.074219 15.441406 Z M 21.105469 28.863281 L 20.261719 28.765625 L 20.875 28.457031 C 21.742188 28.019531 24.160156 28.003906 24.980469 28.429688 C 25.296875 28.59375 25.554688 28.792969 25.554688 28.871094 C 25.554688 29.023438 22.464844 29.019531 21.105469 28.863281 Z M 21.105469 28.863281 "/>
</g>
</svg>
