<?xml version="1.0" encoding="UTF-8"?>
<svg xmlns="http://www.w3.org/2000/svg" xmlns:xlink="http://www.w3.org/1999/xlink" width="64px" height="64px" viewBox="0 0 64 64" version="1.1">
<g id="surface1">
<path style=" stroke:none;fill-rule:nonzero;fill:rgb(38.431373%,38.431373%,38.431373%);fill-opacity:1;" d="M 16.269531 57.695312 C 16.023438 57.277344 17.878906 56.464844 19.667969 56.210938 C 21.15625 55.996094 21.304688 55.550781 20.101562 54.917969 C 19.636719 54.675781 18.679688 54.601562 17.472656 54.71875 C 15.085938 54.953125 14.25 54.734375 12.945312 53.539062 C 11.796875 52.484375 11.304688 51.054688 10.964844 47.769531 L 10.75 45.6875 L 8.90625 45.515625 C 5.890625 45.238281 4.085938 43.882812 2.730469 40.878906 C 1.796875 38.808594 1.757812 35.980469 2.628906 33.550781 C 2.972656 32.589844 3.4375 31.644531 3.664062 31.445312 C 3.964844 31.1875 4.035156 30.527344 3.921875 29.035156 C 3.78125 27.21875 3.859375 26.808594 4.578125 25.527344 C 5.621094 23.667969 7.582031 22.265625 10.105469 21.574219 C 12.078125 21.035156 12.117188 21.039062 13.726562 21.769531 C 16.292969 22.9375 16.425781 22.953125 16.425781 22.074219 C 16.425781 21.496094 16.023438 21.019531 14.820312 20.195312 C 11.332031 17.792969 10.867188 14.125 13.707031 11.34375 C 15.871094 9.222656 19.445312 8.046875 21.945312 8.636719 C 23.175781 8.921875 23.261719 8.894531 23.738281 8.03125 C 24.011719 7.53125 24.652344 6.867188 25.164062 6.550781 C 26.335938 5.824219 28.832031 5.804688 30.109375 6.507812 C 30.972656 6.984375 31.179688 6.988281 32.414062 6.535156 C 35.328125 5.46875 40.605469 6.742188 42.691406 9.015625 C 43.777344 10.199219 43.851562 12.21875 42.871094 13.875 C 42.222656 14.972656 42.21875 15.023438 42.761719 15.722656 C 43.316406 16.4375 43.324219 16.441406 44.375 15.84375 C 45.984375 14.933594 50.207031 15.003906 51.945312 15.96875 C 53.949219 17.082031 55.4375 18.609375 56.21875 20.367188 C 57.371094 22.949219 57.09375 25.328125 55.367188 27.640625 C 54.882812 28.292969 54.484375 28.964844 54.484375 29.140625 C 54.484375 29.3125 55.214844 29.679688 56.105469 29.949219 C 61.003906 31.433594 63.460938 37.632812 61.082031 42.492188 C 59.957031 44.785156 58.316406 46.171875 55.609375 47.113281 C 53.660156 47.789062 53.613281 47.832031 52.703125 49.820312 C 52.195312 50.933594 51.414062 52.144531 50.96875 52.507812 C 49.925781 53.363281 47.335938 53.710938 45.605469 53.222656 C 44.289062 52.851562 44.269531 52.859375 43.375 53.996094 C 40.898438 57.132812 36.019531 58.167969 31.828125 56.445312 L 30.390625 55.855469 L 28.925781 56.628906 C 28.121094 57.054688 26.460938 57.539062 25.242188 57.703125 C 22.238281 58.113281 16.511719 58.105469 16.269531 57.695312 Z M 27.332031 54.996094 C 27.917969 54.742188 28.398438 54.453125 28.398438 54.355469 C 28.398438 54.257812 27.933594 53.496094 27.363281 52.65625 C 26.796875 51.820312 26.199219 50.710938 26.039062 50.195312 C 25.777344 49.335938 25.523438 49.195312 23.160156 48.589844 C 19.8125 47.734375 18.011719 46.605469 16.296875 44.277344 C 14.476562 41.804688 13.285156 40.792969 11.890625 40.527344 C 9.851562 40.144531 8.753906 39.300781 8.753906 38.121094 C 8.753906 37.957031 9.066406 38.027344 9.445312 38.28125 C 9.824219 38.539062 10.824219 38.851562 11.664062 38.980469 C 14.058594 39.34375 14.882812 39.855469 17.347656 42.503906 C 20.28125 45.65625 22.015625 46.558594 25.144531 46.558594 C 27.882812 46.558594 29.464844 45.8125 31.511719 43.5625 C 33.238281 41.667969 33.796875 39.746094 33.476562 36.792969 C 33.195312 34.195312 32.136719 32.097656 30.519531 30.925781 C 29.339844 30.070312 28.984375 29.984375 26.734375 29.984375 C 24.558594 29.984375 23.898438 30.136719 21.339844 31.234375 C 17.566406 32.847656 14.304688 33.175781 12.972656 32.078125 C 11.863281 31.160156 11.808594 30.324219 12.890625 30.839844 C 14.140625 31.433594 20.109375 30.121094 20.109375 29.253906 C 20.109375 29.121094 19.480469 28.257812 18.710938 27.339844 C 17.683594 26.117188 16.96875 25.578125 16.027344 25.3125 C 15.320312 25.117188 14.28125 24.664062 13.722656 24.308594 C 12.527344 23.542969 10.710938 23.488281 9.425781 24.183594 C 8.0625 24.921875 6.640625 26.261719 6.125 27.300781 C 5.640625 28.277344 5.816406 28.988281 6.84375 30.21875 C 7.269531 30.730469 7.1875 30.914062 5.90625 32.34375 C 3.042969 35.539062 3.261719 39.351562 6.476562 42.296875 C 7.480469 43.21875 7.703125 43.28125 9.980469 43.28125 C 12.898438 43.28125 12.886719 43.269531 13.191406 47.164062 C 13.429688 50.230469 14.078125 51.75 15.375 52.265625 C 15.804688 52.4375 17.167969 52.578125 18.394531 52.578125 C 20.363281 52.578125 20.773438 52.683594 21.828125 53.484375 C 22.488281 53.984375 23.214844 54.632812 23.449219 54.925781 C 23.976562 55.59375 25.878906 55.628906 27.332031 54.996094 Z M 25.851562 40.515625 C 25.742188 40.402344 26.132812 39.8125 26.71875 39.203125 C 27.847656 38.023438 28.085938 36.777344 27.488281 35.148438 C 27.261719 34.523438 27.289062 34.375 27.597656 34.5 C 28.175781 34.730469 28.777344 37.070312 28.546875 38.171875 C 28.441406 38.679688 27.9375 39.464844 27.429688 39.910156 C 26.476562 40.746094 26.179688 40.859375 25.851562 40.515625 Z M 39.292969 54.164062 C 39.96875 53.839844 40.804688 53.3125 41.15625 52.992188 C 41.945312 52.265625 43.253906 49.910156 43.71875 48.378906 C 44.457031 45.941406 45.726562 44.371094 47.9375 43.152344 C 51.5 41.195312 53.003906 39.28125 53.003906 36.699219 C 53.003906 34.441406 52.296875 30.515625 51.859375 30.339844 C 51.078125 30.027344 49.515625 31.535156 48.933594 33.164062 C 48.242188 35.089844 46.433594 37.09375 44.976562 37.550781 C 43.707031 37.945312 41.414062 37.816406 41.503906 37.355469 C 41.535156 37.175781 41.980469 36.945312 42.492188 36.835938 C 44.105469 36.492188 44.9375 35.648438 46.167969 33.101562 C 47.65625 30.03125 48.546875 29.132812 51.242188 27.996094 C 53.101562 27.210938 53.453125 26.925781 54.078125 25.6875 C 55.429688 23.015625 54.78125 20.765625 52.105469 18.800781 C 50.269531 17.453125 47.773438 17.277344 45.257812 18.320312 C 43.519531 19.039062 43.4375 19.128906 43.425781 20.203125 C 43.421875 20.824219 43.15625 22.121094 42.835938 23.089844 C 42.515625 24.058594 42.277344 24.867188 42.308594 24.886719 C 42.335938 24.90625 42.875 25.007812 43.5 25.109375 C 44.808594 25.320312 46.199219 24.433594 46.199219 23.390625 C 46.199219 22.398438 46.683594 22.679688 47.03125 23.871094 C 47.574219 25.71875 46.777344 26.210938 41.523438 27.269531 C 39.46875 27.683594 38.6875 28.496094 38.363281 30.554688 C 38.109375 32.1875 37.5625 32.886719 36.183594 33.363281 L 35.140625 33.722656 L 35.339844 36.214844 C 35.777344 41.730469 33.449219 46.359375 29.425781 47.964844 C 27.816406 48.605469 27.699219 49.320312 28.898438 51.164062 C 31.160156 54.644531 35.597656 55.925781 39.292969 54.164062 Z M 37.757812 49.101562 C 38.769531 48.808594 39.902344 48.390625 40.269531 48.167969 C 41.082031 47.683594 41.289062 47.667969 41.289062 48.09375 C 41.289062 48.839844 39.292969 49.691406 37.605469 49.660156 L 35.917969 49.628906 Z M 49.289062 50.640625 C 49.617188 50.460938 50.222656 49.609375 50.640625 48.75 C 51.566406 46.84375 52.484375 46.058594 54.84375 45.160156 C 57.882812 44.003906 60.011719 41.265625 60.011719 38.507812 C 60.011719 37.035156 59.140625 34.875 58.085938 33.742188 C 57.175781 32.761719 54.996094 31.75 54.625 32.136719 C 54.535156 32.230469 54.605469 33.546875 54.785156 35.058594 C 55.21875 38.675781 54.851562 40.222656 53.085938 42.277344 C 52.355469 43.121094 50.960938 44.269531 49.976562 44.828125 C 47.632812 46.164062 47.011719 46.746094 46.234375 48.339844 C 45.492188 49.855469 45.417969 50.53125 45.96875 50.761719 C 46.660156 51.054688 48.683594 50.980469 49.289062 50.640625 Z M 36.148438 30.882812 C 36.273438 30.808594 36.378906 30.484375 36.378906 30.164062 C 36.378906 29.117188 37.265625 27.324219 38.683594 25.507812 C 41.019531 22.511719 41.285156 21.898438 41.285156 19.464844 C 41.289062 17.472656 41.207031 17.191406 40.390625 16.339844 C 38.890625 14.769531 37.527344 15.214844 37.390625 17.3125 C 37.34375 18.03125 37.109375 19.011719 36.867188 19.496094 C 35.789062 21.648438 33.019531 23.414062 30.738281 23.410156 C 29.660156 23.410156 27.34375 22.804688 27.558594 22.578125 C 27.636719 22.5 28.613281 22.378906 29.734375 22.316406 C 33.035156 22.121094 35.320312 20.308594 35.90625 17.417969 C 36.117188 16.375 37.066406 15.375 39.433594 13.714844 C 41.761719 12.078125 41.632812 10.710938 39.039062 9.449219 C 37.246094 8.578125 34.804688 8.429688 32.570312 9.050781 C 31.417969 9.375 30.929688 9.339844 29.328125 8.835938 C 27.285156 8.1875 26.136719 8.359375 25.511719 9.398438 C 25.25 9.835938 25.304688 10.199219 25.75 11 C 26.0625 11.570312 26.742188 12.867188 27.253906 13.878906 C 27.859375 15.082031 28.375 15.722656 28.738281 15.722656 C 29.9375 15.722656 30.902344 14.910156 31.855469 13.097656 C 32.398438 12.066406 32.988281 11.285156 33.164062 11.355469 C 33.34375 11.425781 33.75 11.285156 34.070312 11.039062 C 34.734375 10.53125 36.308594 10.457031 36.980469 10.902344 C 37.53125 11.265625 37.496094 11.289062 35.761719 11.882812 C 34.550781 12.300781 34.269531 12.582031 33.460938 14.214844 C 32.902344 15.347656 32.113281 16.367188 31.453125 16.824219 C 29.097656 18.457031 25.8125 18.742188 23.332031 17.53125 C 21.085938 16.4375 18.070312 14.347656 18.511719 14.195312 C 18.722656 14.121094 20.070312 14.507812 21.511719 15.050781 C 24.003906 15.996094 26.25 16.339844 26.25 15.785156 C 26.25 15.234375 24.460938 12.621094 23.515625 11.789062 C 22.695312 11.070312 22.21875 10.914062 20.84375 10.914062 C 18.824219 10.914062 17.472656 11.464844 15.644531 13.03125 C 13.3125 15.023438 13.503906 16.804688 16.25 18.707031 C 17.914062 19.863281 18.882812 21.394531 18.882812 22.871094 C 18.882812 23.320312 19.484375 24.503906 20.257812 25.582031 C 22.21875 28.308594 22.308594 28.363281 23.929688 27.9375 C 27.234375 27.070312 30.664062 27.894531 33.050781 30.132812 C 34.324219 31.324219 35.078125 31.507812 36.148438 30.882812 Z M 42.207031 57.726562 L 40.519531 57.53125 L 41.75 56.914062 C 43.488281 56.042969 48.320312 56.007812 49.957031 56.859375 C 50.589844 57.1875 51.109375 57.585938 51.109375 57.742188 C 51.109375 58.050781 44.933594 58.039062 42.207031 57.726562 Z M 42.207031 57.726562 "/>
</g>
</svg>
