<?xml version="1.0" encoding="UTF-8"?>
<svg xmlns="http://www.w3.org/2000/svg" xmlns:xlink="http://www.w3.org/1999/xlink" width="64px" height="64px" viewBox="0 0 64 64" version="1.1">
<g id="surface1">
<path style=" stroke:none;fill-rule:nonzero;fill:rgb(38.431373%,38.431373%,38.431373%);fill-opacity:1;" d="M 29.132812 57.875 C 28.605469 57.699219 27.9375 57.402344 27.65625 57.210938 C 27.207031 56.910156 26.734375 56.855469 23.980469 56.796875 C 21.070312 56.730469 20.871094 56.707031 21.492188 56.484375 C 21.859375 56.351562 23.066406 56.105469 24.167969 55.9375 C 25.839844 55.679688 26.152344 55.582031 26.066406 55.347656 C 25.339844 53.4375 25.257812 50.800781 25.796875 46.914062 C 26.191406 44.070312 26.269531 40.449219 25.972656 38.734375 C 25.390625 35.375 23.207031 30.386719 21.019531 27.414062 C 19.246094 25 17.007812 22.871094 16.246094 22.871094 C 15.941406 22.871094 15.242188 22.628906 14.695312 22.332031 C 14.144531 22.039062 13.613281 21.847656 13.511719 21.910156 C 13.410156 21.976562 12.8125 22.019531 12.183594 22.011719 C 11.226562 22 10.828125 21.886719 9.71875 21.3125 C 8.179688 20.519531 7.707031 19.921875 7.527344 18.535156 C 7.425781 17.746094 7.273438 17.449219 6.605469 16.714844 L 5.808594 15.839844 L 5.894531 14.710938 C 6.144531 11.550781 9.117188 9.128906 13.140625 8.804688 C 14.648438 8.683594 14.785156 8.636719 16.007812 7.796875 C 18.226562 6.273438 19.644531 5.816406 22.238281 5.800781 C 24.808594 5.785156 26.109375 6.128906 29.398438 7.683594 L 31.324219 8.59375 L 33.597656 8.519531 C 37.347656 8.398438 37.726562 8.441406 39.980469 9.234375 C 41.890625 9.910156 42.113281 9.949219 42.878906 9.777344 C 44.105469 9.492188 47.085938 9.539062 48.265625 9.859375 C 49.453125 10.179688 50.109375 10.503906 51.191406 11.296875 C 51.625 11.617188 52.371094 11.972656 52.851562 12.09375 C 55.675781 12.800781 58.191406 15.777344 58.191406 18.40625 C 58.191406 19.40625 57.839844 20.414062 57.265625 21.050781 C 57.050781 21.289062 56.089844 21.867188 55.128906 22.339844 C 54.039062 22.875 53.148438 23.457031 52.769531 23.871094 C 51.871094 24.859375 50.875 25.242188 48.917969 25.347656 L 47.25 25.433594 L 46.007812 26.476562 C 41.46875 30.269531 38.222656 36.160156 36.992188 42.816406 C 36.894531 43.339844 36.757812 45.867188 36.683594 48.433594 C 36.554688 52.933594 36.535156 53.136719 36.082031 54.246094 C 35.824219 54.878906 35.644531 55.433594 35.683594 55.472656 C 35.726562 55.515625 36.375 55.625 37.128906 55.722656 C 38.503906 55.894531 40.441406 56.34375 40.773438 56.566406 C 40.871094 56.628906 39.488281 56.722656 37.703125 56.773438 C 35.042969 56.847656 34.375 56.917969 34.003906 57.167969 C 33.308594 57.636719 31.5 58.210938 30.757812 58.199219 C 30.394531 58.195312 29.664062 58.046875 29.132812 57.875 Z M 32.636719 56.671875 C 35.136719 55.480469 35.605469 54.183594 35.597656 48.535156 C 35.59375 44.90625 35.675781 44.070312 36.339844 40.988281 C 37.574219 35.25 40.609375 29.859375 44.84375 25.875 L 45.75 25.023438 L 45.136719 25.023438 C 44.226562 25.023438 42.953125 25.773438 41.941406 26.90625 C 40.628906 28.378906 38.730469 31.378906 37.53125 33.867188 C 36.957031 35.0625 36.484375 35.980469 36.484375 35.90625 C 36.484375 35.605469 37.792969 32.210938 38.328125 31.121094 C 38.644531 30.480469 39.339844 29.277344 39.878906 28.445312 C 40.417969 27.613281 40.824219 26.898438 40.785156 26.855469 C 40.742188 26.8125 40.226562 26.835938 39.636719 26.90625 L 38.566406 27.035156 L 37.375 29.570312 C 36.722656 30.96875 35.769531 33.34375 35.261719 34.851562 C 34.753906 36.359375 34.3125 37.566406 34.285156 37.535156 C 34.074219 37.320312 35.960938 30.820312 36.746094 29.050781 C 37.066406 28.332031 37.277344 27.683594 37.214844 27.609375 C 37.152344 27.535156 37.1875 27.53125 37.300781 27.59375 C 37.46875 27.691406 37.816406 27.210938 37.671875 27.082031 C 37.546875 26.972656 35.566406 26.445312 35.507812 26.503906 C 35.433594 26.578125 33.8125 32.625 33.605469 33.601562 C 33.535156 33.929688 33.449219 34.167969 33.414062 34.132812 C 33.351562 34.066406 33.867188 29.875 34.207031 27.714844 C 34.308594 27.074219 34.410156 26.402344 34.433594 26.222656 C 34.464844 25.980469 34.238281 25.816406 33.53125 25.554688 C 33.011719 25.367188 32.53125 25.246094 32.464844 25.289062 C 32.398438 25.332031 32.289062 27.246094 32.226562 29.546875 C 32.113281 33.648438 31.9375 36.746094 31.824219 36.628906 C 31.792969 36.597656 31.726562 35.003906 31.671875 33.085938 C 31.5625 29.035156 31.4375 26.640625 31.292969 25.90625 C 31.195312 25.398438 31.15625 25.382812 30.171875 25.382812 C 29.613281 25.382812 29.117188 25.445312 29.070312 25.519531 C 29.027344 25.597656 29.105469 26.183594 29.25 26.820312 C 29.683594 28.730469 29.953125 30.71875 29.964844 32.082031 C 29.96875 32.785156 29.9375 33.164062 29.894531 32.917969 C 29.746094 32.09375 28.636719 27.636719 28.3125 26.5625 L 27.988281 25.5 L 27.03125 25.28125 C 26.503906 25.160156 25.882812 25 25.65625 24.925781 L 25.238281 24.789062 L 25.679688 25.578125 C 26.609375 27.230469 27.976562 31.511719 28.609375 34.75 C 28.980469 36.652344 28.984375 37.296875 28.617188 35.835938 C 27.332031 30.734375 25.316406 26.007812 23.644531 24.175781 C 22.722656 23.167969 22.546875 23.050781 21.933594 23.050781 L 21.25 23.050781 L 22.195312 24.441406 C 23.089844 25.753906 24.417969 28.265625 24.765625 29.304688 C 24.953125 29.863281 24.957031 29.871094 23.550781 27.5625 C 22.507812 25.855469 21.472656 24.433594 20.441406 23.296875 C 19.9375 22.738281 19.605469 22.535156 19.113281 22.480469 C 18.75 22.4375 18.460938 22.449219 18.460938 22.503906 C 18.464844 22.558594 19.09375 23.289062 19.863281 24.125 C 21.648438 26.082031 23.070312 28.195312 24.316406 30.742188 C 27.199219 36.632812 27.8125 40.550781 26.867188 46.996094 C 26.449219 49.859375 26.4375 52.96875 26.835938 54.277344 C 27.273438 55.707031 29.308594 57.101562 30.972656 57.121094 C 31.371094 57.125 32.089844 56.929688 32.636719 56.671875 Z M 31.675781 54.84375 C 31.816406 54.476562 32.050781 53.605469 32.191406 52.917969 L 32.445312 51.660156 L 32.355469 52.828125 C 32.300781 53.46875 32.113281 54.335938 31.933594 54.753906 C 31.527344 55.695312 31.316406 55.769531 31.675781 54.84375 Z M 32.816406 55.417969 C 32.8125 55.316406 32.890625 55.148438 32.992188 55.046875 C 33.089844 54.945312 33.324219 54.464844 33.507812 53.976562 C 33.691406 53.492188 33.847656 53.238281 33.851562 53.414062 C 33.855469 53.589844 33.75 53.996094 33.617188 54.3125 C 33.332031 54.992188 32.824219 55.691406 32.816406 55.417969 Z M 27.617188 51.480469 C 27.617188 50.792969 27.648438 50.53125 27.6875 50.902344 C 27.722656 51.273438 27.722656 51.839844 27.683594 52.160156 C 27.648438 52.476562 27.617188 52.171875 27.617188 51.480469 Z M 33.871094 46.355469 C 33.875 45.523438 33.949219 44.523438 34.035156 44.128906 C 34.140625 43.644531 34.160156 44.117188 34.09375 45.5625 C 34.039062 46.746094 33.964844 47.75 33.925781 47.789062 C 33.890625 47.832031 33.863281 47.183594 33.871094 46.355469 Z M 41.5 25.144531 C 41.902344 24.996094 42.546875 24.65625 42.933594 24.394531 C 44.023438 23.652344 44.738281 23.554688 46.632812 23.878906 C 48.65625 24.230469 49.820312 24.144531 50.945312 23.574219 C 51.570312 23.257812 51.894531 22.949219 52.132812 22.445312 C 52.449219 21.78125 52.453125 21.707031 52.171875 20.792969 C 51.941406 20.039062 51.667969 19.648438 50.890625 18.9375 C 50.347656 18.4375 49.941406 17.992188 49.992188 17.941406 C 50.109375 17.820312 52.058594 19.117188 52.441406 19.570312 C 52.601562 19.757812 52.90625 20.253906 53.117188 20.671875 C 53.5625 21.554688 53.960938 21.644531 55.003906 21.09375 C 56.203125 20.460938 56.644531 19.8125 56.746094 18.523438 C 56.851562 17.136719 56.625 16.601562 55.328125 15.195312 C 53.925781 13.675781 52.351562 13.019531 50.050781 12.996094 L 48.828125 12.984375 L 49.703125 12.578125 L 50.578125 12.175781 L 49.4375 11.609375 C 47.472656 10.632812 44.925781 10.445312 42.527344 11.097656 C 41.269531 11.441406 38.996094 12.402344 37.972656 13.023438 L 37.097656 13.554688 L 37.972656 12.726562 C 38.457031 12.269531 39.273438 11.648438 39.789062 11.347656 C 40.714844 10.800781 40.722656 10.792969 40.308594 10.570312 C 40.078125 10.445312 39.382812 10.167969 38.757812 9.949219 C 37.742188 9.59375 37.246094 9.550781 34.035156 9.53125 L 30.445312 9.507812 L 28.433594 8.492188 C 25.835938 7.183594 24.320312 6.832031 21.808594 6.949219 C 19.574219 7.054688 18.414062 7.453125 16.949219 8.621094 C 16.394531 9.058594 15.878906 9.417969 15.800781 9.417969 C 15.53125 9.417969 15.652344 9.75 15.960938 9.855469 C 16.128906 9.914062 16.464844 10.113281 16.699219 10.304688 C 17.128906 10.640625 17.128906 10.644531 16.089844 10.390625 C 14.648438 10.039062 12.09375 10.042969 11.109375 10.402344 C 8.789062 11.242188 6.902344 13.289062 6.902344 14.964844 C 6.902344 15.347656 7.128906 15.765625 7.683594 16.402344 C 8.175781 16.972656 8.507812 17.550781 8.585938 17.980469 C 8.898438 19.707031 10.023438 20.539062 12.046875 20.539062 C 13.164062 20.539062 14.121094 20.171875 15.566406 19.191406 C 16.074219 18.847656 16.066406 18.867188 15.414062 19.691406 C 14.765625 20.503906 14.746094 20.5625 15.03125 20.882812 C 15.457031 21.367188 16.386719 21.492188 17.359375 21.199219 C 18.125 20.96875 18.339844 20.980469 19.945312 21.359375 C 22.519531 21.96875 23.050781 21.925781 24.007812 21.03125 L 24.394531 20.667969 L 24.308594 21.277344 C 24.179688 22.171875 24.539062 22.675781 25.800781 23.386719 C 26.792969 23.941406 27.109375 24.027344 28.425781 24.085938 C 29.386719 24.128906 30.328125 24.054688 31.050781 23.878906 L 32.179688 23.601562 L 34.378906 24.519531 C 35.757812 25.09375 36.964844 25.472656 37.625 25.542969 C 38.910156 25.675781 40.53125 25.511719 41.5 25.144531 Z M 28.171875 18.75 C 26.6875 18.492188 25.320312 17.898438 24.273438 17.066406 C 22.683594 15.804688 22.242188 15.632812 20.382812 15.554688 C 19.21875 15.503906 18.394531 15.566406 17.644531 15.765625 C 16.253906 16.136719 16.148438 16.128906 16.84375 15.695312 C 17.582031 15.234375 19.730469 14.621094 20.640625 14.613281 L 21.34375 14.605469 L 20.667969 14.03125 C 20.292969 13.714844 19.503906 13.191406 18.914062 12.875 C 17.675781 12.203125 17.691406 12.160156 19.007812 12.625 C 20.285156 13.074219 21.199219 13.566406 22.046875 14.261719 C 22.429688 14.578125 23.140625 15.039062 23.621094 15.289062 C 24.101562 15.539062 24.71875 15.9375 24.996094 16.171875 C 25.800781 16.863281 26.976562 17.324219 28.722656 17.632812 C 30.46875 17.945312 30.828125 17.914062 35.785156 17.039062 C 36.605469 16.898438 37.804688 16.777344 38.449219 16.777344 C 39.519531 16.773438 39.722656 16.707031 40.699219 16.058594 C 42.371094 14.953125 43.535156 14.566406 44.886719 14.671875 C 45.515625 14.71875 46.300781 14.886719 46.640625 15.039062 C 47.242188 15.316406 47.226562 15.320312 45.839844 15.214844 C 44.292969 15.097656 43.753906 15.21875 41.953125 16.085938 C 40.914062 16.585938 40.671875 16.953125 41.378906 16.953125 C 41.964844 16.953125 43.4375 17.523438 43.945312 17.949219 L 44.449219 18.375 L 43.839844 18.199219 C 43.503906 18.105469 41.640625 18.027344 39.703125 18.027344 C 36.820312 18.027344 35.859375 18.09375 34.449219 18.394531 C 32.507812 18.8125 29.488281 18.980469 28.171875 18.75 Z M 26.476562 15.742188 C 26.332031 15.566406 25.960938 15.042969 25.652344 14.574219 C 25.34375 14.109375 24.367188 12.980469 23.480469 12.074219 C 22.457031 11.023438 22.082031 10.550781 22.449219 10.773438 C 23.605469 11.46875 25.273438 13.261719 26.066406 14.664062 C 26.863281 16.070312 26.953125 16.3125 26.476562 15.742188 Z M 29.375 14.976562 C 29.386719 14.335938 29.339844 13.367188 29.273438 12.824219 C 29.152344 11.851562 29.152344 11.847656 29.390625 12.464844 C 29.65625 13.148438 29.71875 15.210938 29.496094 15.785156 C 29.40625 16.011719 29.363281 15.71875 29.375 14.976562 Z M 32.839844 15.785156 C 33.0625 15.140625 34.601562 12.269531 34.675781 12.347656 C 34.792969 12.464844 33.828125 14.429688 33.222656 15.3125 C 32.976562 15.671875 32.804688 15.882812 32.839844 15.785156 Z M 9.964844 12.546875 C 10.921875 11.800781 13.550781 11.382812 15.042969 11.738281 C 15.394531 11.820312 14.929688 11.894531 13.644531 11.957031 C 12.335938 12.023438 11.378906 12.179688 10.667969 12.4375 C 9.9375 12.699219 9.722656 12.734375 9.964844 12.546875 Z M 9.964844 12.546875 "/>
</g>
</svg>
