<?xml version="1.0" encoding="UTF-8"?>
<svg xmlns="http://www.w3.org/2000/svg" xmlns:xlink="http://www.w3.org/1999/xlink" width="32px" height="32px" viewBox="0 0 32 32" version="1.1">
<g id="surface1">
<path style=" stroke:none;fill-rule:nonzero;fill:rgb(38.431373%,38.431373%,38.431373%);fill-opacity:1;" d="M 14.566406 28.9375 C 14.300781 28.851562 13.96875 28.699219 13.828125 28.605469 C 13.605469 28.457031 13.367188 28.429688 11.988281 28.398438 C 10.535156 28.367188 10.4375 28.351562 10.746094 28.242188 C 10.929688 28.175781 11.53125 28.050781 12.082031 27.96875 C 12.921875 27.839844 13.078125 27.792969 13.03125 27.675781 C 12.671875 26.71875 12.628906 25.402344 12.898438 23.457031 C 13.097656 22.035156 13.136719 20.222656 12.988281 19.367188 C 12.695312 17.6875 11.605469 15.191406 10.511719 13.707031 C 9.621094 12.5 8.503906 11.433594 8.121094 11.433594 C 7.96875 11.433594 7.621094 11.3125 7.347656 11.167969 C 7.074219 11.019531 6.804688 10.921875 6.757812 10.957031 C 6.707031 10.988281 6.40625 11.011719 6.09375 11.007812 C 5.613281 11 5.414062 10.941406 4.859375 10.65625 C 4.089844 10.257812 3.855469 9.960938 3.765625 9.269531 C 3.714844 8.875 3.636719 8.722656 3.304688 8.359375 L 2.902344 7.921875 L 2.949219 7.355469 C 3.070312 5.777344 4.558594 4.5625 6.570312 4.402344 C 7.324219 4.34375 7.390625 4.316406 8.003906 3.898438 C 9.113281 3.136719 9.824219 2.910156 11.121094 2.902344 C 12.40625 2.894531 13.054688 3.0625 14.699219 3.839844 L 15.660156 4.296875 L 16.800781 4.261719 C 18.675781 4.199219 18.863281 4.222656 19.988281 4.617188 C 20.945312 4.953125 21.058594 4.976562 21.4375 4.886719 C 22.050781 4.746094 23.542969 4.769531 24.132812 4.929688 C 24.726562 5.089844 25.054688 5.25 25.59375 5.648438 C 25.8125 5.808594 26.1875 5.988281 26.425781 6.046875 C 27.835938 6.402344 29.097656 7.890625 29.097656 9.203125 C 29.097656 9.703125 28.917969 10.207031 28.632812 10.527344 C 28.527344 10.644531 28.046875 10.933594 27.5625 11.171875 C 27.019531 11.4375 26.574219 11.726562 26.382812 11.9375 C 25.933594 12.429688 25.4375 12.621094 24.457031 12.671875 L 23.625 12.71875 L 23.003906 13.238281 C 20.734375 15.136719 19.109375 18.082031 18.496094 21.40625 C 18.449219 21.667969 18.378906 22.933594 18.34375 24.214844 C 18.277344 26.46875 18.269531 26.566406 18.039062 27.125 C 17.910156 27.441406 17.824219 27.714844 17.84375 27.738281 C 17.863281 27.757812 18.1875 27.8125 18.5625 27.859375 C 19.25 27.945312 20.222656 28.171875 20.386719 28.28125 C 20.433594 28.316406 19.746094 28.363281 18.851562 28.386719 C 17.519531 28.421875 17.1875 28.460938 17 28.585938 C 16.652344 28.816406 15.75 29.105469 15.378906 29.097656 C 15.199219 29.097656 14.832031 29.023438 14.566406 28.9375 Z M 16.316406 28.335938 C 17.566406 27.742188 17.804688 27.09375 17.800781 24.265625 C 17.796875 22.453125 17.835938 22.035156 18.167969 20.492188 C 18.789062 17.625 20.304688 14.929688 22.421875 12.9375 L 22.875 12.511719 L 22.570312 12.511719 C 22.113281 12.511719 21.476562 12.886719 20.972656 13.453125 C 20.316406 14.191406 19.363281 15.6875 18.765625 16.933594 C 18.476562 17.53125 18.242188 17.988281 18.242188 17.953125 C 18.242188 17.800781 18.898438 16.105469 19.164062 15.5625 C 19.320312 15.242188 19.671875 14.636719 19.941406 14.222656 C 20.207031 13.804688 20.414062 13.449219 20.390625 13.429688 C 20.371094 13.40625 20.113281 13.417969 19.820312 13.453125 L 19.28125 13.515625 L 18.6875 14.785156 C 18.359375 15.484375 17.886719 16.671875 17.632812 17.425781 C 17.378906 18.179688 17.15625 18.78125 17.140625 18.765625 C 17.035156 18.660156 17.980469 15.410156 18.375 14.527344 C 18.535156 14.164062 18.640625 13.839844 18.605469 13.804688 C 18.574219 13.769531 18.59375 13.765625 18.648438 13.796875 C 18.734375 13.847656 18.910156 13.605469 18.835938 13.542969 C 18.773438 13.488281 17.78125 13.222656 17.753906 13.253906 C 17.71875 13.289062 16.90625 16.3125 16.800781 16.800781 C 16.765625 16.964844 16.722656 17.085938 16.707031 17.066406 C 16.675781 17.035156 16.933594 14.9375 17.105469 13.855469 C 17.152344 13.535156 17.203125 13.203125 17.214844 13.113281 C 17.230469 12.992188 17.121094 12.90625 16.765625 12.777344 C 16.503906 12.683594 16.265625 12.625 16.230469 12.644531 C 16.199219 12.667969 16.144531 13.625 16.113281 14.773438 C 16.058594 16.824219 15.96875 18.375 15.914062 18.316406 C 15.898438 18.296875 15.863281 17.5 15.835938 16.542969 C 15.78125 14.519531 15.71875 13.320312 15.648438 12.953125 C 15.597656 12.699219 15.578125 12.691406 15.085938 12.691406 C 14.804688 12.691406 14.558594 12.722656 14.535156 12.761719 C 14.511719 12.796875 14.554688 13.089844 14.625 13.410156 C 14.84375 14.367188 14.976562 15.359375 14.984375 16.039062 C 14.984375 16.394531 14.96875 16.582031 14.945312 16.457031 C 14.871094 16.046875 14.316406 13.820312 14.15625 13.28125 L 13.996094 12.75 L 13.515625 12.640625 C 13.25 12.578125 12.941406 12.5 12.828125 12.460938 L 12.617188 12.394531 L 12.839844 12.789062 C 13.304688 13.613281 13.988281 15.753906 14.304688 17.375 C 14.488281 18.324219 14.492188 18.648438 14.308594 17.917969 C 13.664062 15.367188 12.65625 13.003906 11.820312 12.085938 C 11.363281 11.582031 11.273438 11.523438 10.964844 11.523438 L 10.625 11.523438 L 11.097656 12.21875 C 11.546875 12.878906 12.207031 14.132812 12.382812 14.652344 C 12.476562 14.933594 12.480469 14.933594 11.773438 13.78125 C 11.253906 12.929688 10.738281 12.21875 10.21875 11.648438 C 9.96875 11.367188 9.804688 11.265625 9.554688 11.238281 C 9.375 11.21875 9.230469 11.222656 9.230469 11.25 C 9.234375 11.277344 9.546875 11.644531 9.929688 12.0625 C 10.824219 13.039062 11.535156 14.097656 12.160156 15.371094 C 13.597656 18.316406 13.90625 20.277344 13.433594 23.5 C 13.226562 24.929688 13.21875 26.484375 13.417969 27.140625 C 13.636719 27.851562 14.652344 28.550781 15.484375 28.5625 C 15.683594 28.5625 16.042969 28.464844 16.316406 28.335938 Z M 15.835938 27.421875 C 15.910156 27.238281 16.023438 26.804688 16.09375 26.457031 L 16.222656 25.832031 L 16.175781 26.414062 C 16.152344 26.734375 16.054688 27.167969 15.964844 27.378906 C 15.765625 27.847656 15.65625 27.886719 15.835938 27.421875 Z M 16.40625 27.710938 C 16.40625 27.65625 16.445312 27.574219 16.496094 27.523438 C 16.546875 27.472656 16.660156 27.230469 16.753906 26.988281 C 16.847656 26.746094 16.925781 26.621094 16.925781 26.707031 C 16.929688 26.796875 16.875 26.996094 16.808594 27.15625 C 16.664062 27.496094 16.410156 27.84375 16.40625 27.710938 Z M 13.808594 25.742188 C 13.808594 25.394531 13.824219 25.265625 13.84375 25.453125 C 13.863281 25.636719 13.863281 25.921875 13.84375 26.078125 C 13.824219 26.238281 13.808594 26.085938 13.808594 25.742188 Z M 16.933594 23.175781 C 16.9375 22.761719 16.976562 22.261719 17.019531 22.0625 C 17.070312 21.824219 17.078125 22.058594 17.046875 22.78125 C 17.019531 23.375 16.980469 23.875 16.964844 23.894531 C 16.945312 23.914062 16.933594 23.59375 16.933594 23.175781 Z M 20.75 12.574219 C 20.949219 12.496094 21.273438 12.328125 21.46875 12.195312 C 22.011719 11.828125 22.367188 11.777344 23.316406 11.941406 C 24.328125 12.113281 24.910156 12.074219 25.472656 11.789062 C 25.785156 11.628906 25.945312 11.476562 26.066406 11.222656 C 26.226562 10.890625 26.226562 10.851562 26.085938 10.398438 C 25.96875 10.019531 25.835938 9.824219 25.445312 9.46875 C 25.171875 9.21875 24.972656 8.996094 24.996094 8.96875 C 25.054688 8.910156 26.03125 9.558594 26.222656 9.785156 C 26.300781 9.878906 26.453125 10.128906 26.558594 10.335938 C 26.78125 10.777344 26.980469 10.820312 27.503906 10.546875 C 28.101562 10.230469 28.320312 9.90625 28.371094 9.261719 C 28.425781 8.570312 28.3125 8.300781 27.664062 7.597656 C 26.964844 6.839844 26.175781 6.511719 25.027344 6.496094 L 24.414062 6.492188 L 25.289062 6.085938 L 24.71875 5.804688 C 23.734375 5.316406 22.460938 5.222656 21.261719 5.550781 C 20.636719 5.722656 19.496094 6.203125 18.988281 6.511719 L 18.550781 6.777344 L 18.988281 6.363281 C 19.226562 6.136719 19.636719 5.824219 19.894531 5.671875 C 20.359375 5.402344 20.363281 5.394531 20.15625 5.285156 C 20.039062 5.222656 19.691406 5.082031 19.378906 4.972656 C 18.871094 4.796875 18.625 4.773438 17.019531 4.765625 L 15.222656 4.753906 L 14.21875 4.246094 C 12.917969 3.59375 12.160156 3.414062 10.902344 3.472656 C 9.789062 3.527344 9.207031 3.726562 8.472656 4.308594 C 8.199219 4.527344 7.941406 4.707031 7.898438 4.707031 C 7.765625 4.707031 7.828125 4.875 7.980469 4.929688 C 8.066406 4.957031 8.230469 5.058594 8.351562 5.152344 C 8.566406 5.320312 8.5625 5.320312 8.042969 5.195312 C 7.324219 5.019531 6.046875 5.023438 5.554688 5.199219 C 4.394531 5.621094 3.453125 6.644531 3.453125 7.484375 C 3.453125 7.675781 3.5625 7.882812 3.839844 8.203125 C 4.089844 8.484375 4.253906 8.773438 4.292969 8.988281 C 4.449219 9.851562 5.011719 10.269531 6.023438 10.269531 C 6.582031 10.269531 7.0625 10.085938 7.785156 9.59375 C 8.035156 9.425781 8.035156 9.433594 7.707031 9.84375 C 7.382812 10.253906 7.375 10.28125 7.515625 10.441406 C 7.730469 10.683594 8.191406 10.746094 8.679688 10.597656 C 9.0625 10.484375 9.171875 10.492188 9.972656 10.679688 C 11.257812 10.984375 11.523438 10.960938 12.003906 10.515625 L 12.195312 10.335938 L 12.152344 10.636719 C 12.089844 11.085938 12.269531 11.339844 12.898438 11.691406 C 13.398438 11.972656 13.554688 12.015625 14.214844 12.042969 C 14.691406 12.066406 15.164062 12.027344 15.527344 11.941406 L 16.089844 11.800781 L 17.1875 12.257812 C 17.878906 12.546875 18.480469 12.738281 18.8125 12.769531 C 19.457031 12.839844 20.265625 12.753906 20.75 12.574219 Z M 14.085938 9.375 C 13.34375 9.246094 12.660156 8.949219 12.136719 8.535156 C 11.339844 7.902344 11.121094 7.816406 10.191406 7.777344 C 9.609375 7.75 9.199219 7.785156 8.820312 7.882812 C 8.125 8.070312 8.074219 8.0625 8.421875 7.847656 C 8.789062 7.617188 9.867188 7.3125 10.320312 7.308594 L 10.671875 7.304688 L 10.332031 7.015625 C 10.148438 6.855469 9.753906 6.597656 9.457031 6.4375 C 8.835938 6.101562 8.84375 6.078125 9.503906 6.3125 C 10.140625 6.539062 10.601562 6.785156 11.023438 7.128906 C 11.214844 7.289062 11.570312 7.519531 11.808594 7.644531 C 12.050781 7.769531 12.359375 7.96875 12.496094 8.085938 C 12.902344 8.433594 13.488281 8.664062 14.363281 8.816406 C 15.234375 8.972656 15.414062 8.957031 17.894531 8.519531 C 18.300781 8.449219 18.902344 8.390625 19.226562 8.386719 C 19.757812 8.386719 19.859375 8.355469 20.351562 8.03125 C 21.1875 7.476562 21.769531 7.285156 22.445312 7.335938 C 22.757812 7.359375 23.152344 7.441406 23.320312 7.519531 C 23.621094 7.65625 23.613281 7.660156 22.917969 7.605469 C 22.144531 7.550781 21.875 7.609375 20.976562 8.042969 C 20.457031 8.292969 20.335938 8.476562 20.6875 8.476562 C 20.984375 8.476562 21.71875 8.761719 21.972656 8.976562 L 22.226562 9.1875 L 21.917969 9.101562 C 21.75 9.050781 20.820312 9.015625 19.851562 9.015625 C 18.410156 9.015625 17.929688 9.046875 17.222656 9.199219 C 16.253906 9.40625 14.746094 9.492188 14.085938 9.375 Z M 13.238281 7.871094 C 13.164062 7.785156 12.980469 7.523438 12.828125 7.289062 C 12.671875 7.054688 12.183594 6.492188 11.742188 6.035156 C 11.226562 5.511719 11.039062 5.273438 11.226562 5.386719 C 11.800781 5.734375 12.636719 6.632812 13.03125 7.332031 C 13.429688 8.035156 13.476562 8.15625 13.238281 7.871094 Z M 14.6875 7.488281 C 14.695312 7.167969 14.671875 6.683594 14.636719 6.414062 C 14.574219 5.925781 14.578125 5.925781 14.695312 6.234375 C 14.828125 6.574219 14.859375 7.605469 14.746094 7.894531 C 14.703125 8.007812 14.683594 7.859375 14.6875 7.488281 Z M 16.417969 7.894531 C 16.53125 7.570312 17.300781 6.132812 17.339844 6.171875 C 17.394531 6.234375 16.914062 7.214844 16.609375 7.65625 C 16.488281 7.835938 16.402344 7.941406 16.417969 7.894531 Z M 4.980469 6.273438 C 5.460938 5.902344 6.777344 5.691406 7.523438 5.867188 C 7.695312 5.910156 7.464844 5.945312 6.820312 5.980469 C 6.167969 6.011719 5.691406 6.089844 5.332031 6.21875 C 4.96875 6.351562 4.863281 6.367188 4.980469 6.273438 Z M 4.980469 6.273438 "/>
</g>
</svg>
