<svg xmlns="http://www.w3.org/2000/svg" xml:space="preserve" width="128" height="128" viewBox="0 0 33.867 33.867"><path d="M15.417 30.625c-.28-.092-.633-.25-.783-.35-.237-.16-.487-.188-1.944-.22-1.541-.035-1.645-.048-1.317-.165.195-.07.832-.201 1.415-.29.886-.136 1.051-.187 1.005-.311-.384-1.012-.428-2.406-.142-4.464.21-1.505.25-3.422.094-4.328-.309-1.777-1.464-4.418-2.622-5.991-.94-1.278-2.123-2.404-2.527-2.404-.16 0-.53-.128-.82-.284-.291-.157-.572-.257-.626-.223-.053.034-.37.058-.702.053-.507-.007-.718-.067-1.306-.37-.814-.42-1.063-.736-1.158-1.469-.054-.418-.134-.576-.488-.963l-.423-.464.047-.597C3.251 6.113 4.824 4.83 6.954 4.66c.798-.064.87-.089 1.516-.533 1.175-.807 1.926-1.047 3.299-1.056 1.359-.008 2.048.173 3.787.995l1.019.483 1.204-.04c1.985-.063 2.186-.04 3.377.379 1.011.356 1.13.379 1.534.286.648-.15 2.227-.124 2.851.045.628.17.974.34 1.547.76.23.169.625.358.88.422 1.493.374 2.825 1.949 2.825 3.34 0 .529-.187 1.063-.49 1.4-.113.124-.621.431-1.13.682-.577.284-1.049.59-1.25.81-.475.524-1.001.725-2.038.78l-.881.047-.659.55c-2.4 2.01-4.12 5.126-4.77 8.647-.05.278-.124 1.615-.163 2.973-.068 2.382-.079 2.489-.319 3.077-.137.335-.231.627-.21.649s.365.08.764.13c.727.092 1.754.33 1.929.447.051.035-.68.085-1.625.11-1.408.04-1.761.077-1.958.21-.368.247-1.324.55-1.716.545-.193-.003-.58-.08-.86-.172m1.853-.637c1.322-.629 1.572-1.315 1.568-4.305-.003-1.92.04-2.362.392-3.993.653-3.036 2.258-5.889 4.5-7.998l.479-.45h-.324c-.482 0-1.155.396-1.69.997-.695.779-1.7 2.365-2.335 3.682-.304.633-.553 1.118-.553 1.079 0-.159.692-1.955.975-2.531.167-.34.536-.977.82-1.417.286-.44.5-.819.48-.84-.022-.023-.296-.01-.608.026l-.567.068-.63 1.342c-.345.739-.849 1.996-1.117 2.794-.27.797-.502 1.437-.518 1.42-.112-.114.887-3.552 1.303-4.489.17-.381.281-.725.248-.763s-.014-.042.045-.008c.088.052.274-.203.197-.27-.066-.059-1.115-.338-1.146-.306-.038.04-.896 3.238-1.006 3.755-.038.173-.083.3-.101.28-.034-.034.24-2.253.42-3.396.053-.339.106-.694.118-.788.017-.129-.102-.216-.477-.353-.274-.1-.528-.164-.564-.141-.036.022-.092 1.036-.126 2.251-.06 2.172-.152 3.811-.212 3.75-.017-.018-.053-.862-.08-1.877q-.088-3.213-.202-3.8c-.052-.266-.072-.276-.592-.276-.297 0-.56.033-.583.074-.025.04.018.35.095.688.23 1.011.372 2.061.377 2.783.003.374-.013.573-.037.442-.079-.436-.666-2.793-.838-3.362l-.17-.563-.507-.116c-.28-.064-.607-.148-.729-.187l-.22-.072.235.418c.49.873 1.213 3.139 1.549 4.853.196 1.005.199 1.348.004.574-.68-2.7-1.747-5.201-2.631-6.17-.488-.534-.58-.596-.906-.596h-.362l.501.736c.474.695 1.175 2.024 1.36 2.573.1.297.102.3-.643-.922q-.826-1.354-1.645-2.257c-.267-.295-.442-.402-.703-.432-.191-.021-.346-.016-.345.013s.335.415.741.859c.946 1.035 1.699 2.153 2.358 3.501 1.525 3.117 1.85 5.19 1.35 8.601-.222 1.515-.229 3.16-.016 3.854.23.755 1.307 1.494 2.188 1.504.21.002.59-.101.88-.239m-.51-.966c.077-.196.2-.655.274-1.02l.136-.665-.05.617c-.027.34-.127.799-.222 1.02-.214.499-.327.538-.137.048m.605.304a.33.33 0 0 1 .093-.198c.053-.054.176-.308.273-.565s.18-.39.183-.297c.002.093-.054.306-.125.474-.152.36-.42.73-.424.586m-2.751-2.084c0-.365.017-.503.037-.306s.02.496 0 .665c-.021.168-.038.007-.037-.359m3.31-2.713c.002-.44.041-.97.087-1.178.055-.255.064-.005.03.759-.029.627-.068 1.157-.088 1.179-.02.021-.033-.32-.03-.76m4.037-11.223c.212-.08.553-.258.759-.398.576-.391.954-.443 1.956-.271 1.072.184 1.688.14 2.282-.161.33-.168.502-.332.63-.6.167-.35.168-.39.02-.873-.123-.398-.267-.606-.679-.983-.288-.263-.501-.5-.475-.527.062-.063 1.094.624 1.297.863.084.099.245.362.356.584.236.466.448.513 1 .222.634-.335.867-.678.92-1.36.058-.733-.063-1.018-.75-1.762-.74-.803-1.574-1.15-2.79-1.163l-.65-.007.463-.214.463-.214-.601-.299c-1.041-.517-2.389-.617-3.659-.27-.664.182-1.868.69-2.408 1.018l-.463.28.463-.437c.254-.241.687-.57.96-.73.49-.288.494-.293.276-.41a8 8 0 0 0-.822-.33c-.536-.187-.8-.21-2.498-.221l-1.9-.012-1.065-.537c-1.375-.693-2.176-.88-3.506-.817-1.181.056-1.797.267-2.572.884-.292.232-.565.422-.607.422-.143 0-.077.177.086.233.089.03.265.137.39.236.228.18.227.18-.324.046-.762-.186-2.114-.183-2.634.006-1.228.446-2.226 1.53-2.226 2.416 0 .202.12.422.412.76.261.301.436.607.478.834.166.914.762 1.354 1.831 1.354.592 0 1.1-.193 1.864-.713.267-.181.264-.171-.082.265-.343.43-.352.46-.202.63.226.257.717.324 1.232.168.405-.122.52-.115 1.368.085 1.362.321 1.643.298 2.15-.175l.204-.19-.045.321c-.068.473.122.74.79 1.116.525.295.693.34 1.39.371a5.1 5.1 0 0 0 1.388-.11l.598-.146 1.162.484c.73.304 1.37.506 1.718.542.682.07 1.539-.017 2.052-.21m-7.054-3.384c-.784-.137-1.51-.45-2.063-.89-.84-.668-1.074-.759-2.059-.802-.614-.027-1.051.008-1.449.114-.735.196-.791.19-.423-.04.39-.243 1.528-.567 2.01-.571l.372-.003-.359-.306a6.6 6.6 0 0 0-.926-.612c-.657-.354-.649-.377.048-.132.675.238 1.16.5 1.607.866.204.167.58.412.834.545.255.132.582.342.727.467.427.366 1.05.61 1.974.773s1.114.148 3.737-.313c.433-.077 1.067-.14 1.41-.141.565-.002.673-.036 1.19-.378.885-.587 1.5-.79 2.217-.735.33.026.747.113.926.195.318.146.311.147-.424.092-.818-.061-1.104.003-2.056.461-.55.265-.678.458-.304.458.31 0 1.09.303 1.36.53l.266.222-.324-.091c-.178-.05-1.163-.091-2.19-.091-1.525 0-2.032.035-2.779.195-1.027.22-2.624.31-3.322.187M14.01 8.33a9 9 0 0 1-.436-.616c-.162-.248-.68-.844-1.148-1.324-.543-.556-.741-.807-.546-.689.61.368 1.493 1.318 1.913 2.06.421.743.47.872.217.57m1.535-.403a10 10 0 0 0-.055-1.14c-.064-.514-.064-.516.063-.189.14.362.173 1.452.055 1.756-.047.12-.07-.035-.063-.427m1.832.427c.12-.34.932-1.861.973-1.82.06.063-.448 1.103-.77 1.57-.13.19-.221.302-.203.25M5.273 6.64c.506-.393 1.898-.615 2.687-.428q.28.066-.74.117c-.692.035-1.198.117-1.575.253-.387.14-.5.157-.372.058" style="fill:#626262;fill-opacity:1"/></svg>