<?xml version="1.0" encoding="UTF-8"?>
<svg xmlns="http://www.w3.org/2000/svg" xmlns:xlink="http://www.w3.org/1999/xlink" width="128px" height="128px" viewBox="0 0 128 128" version="1.1">
<g id="surface1">
<path style=" stroke:none;fill-rule:nonzero;fill:rgb(38.431373%,38.431373%,38.431373%);fill-opacity:1;" d="M 58.265625 115.746094 C 57.207031 115.398438 55.878906 114.804688 55.3125 114.421875 C 54.414062 113.820312 53.46875 113.714844 47.960938 113.59375 C 42.136719 113.464844 41.746094 113.414062 42.984375 112.96875 C 43.722656 112.703125 46.128906 112.210938 48.332031 111.871094 C 51.683594 111.359375 52.304688 111.167969 52.128906 110.699219 C 50.679688 106.875 50.515625 101.601562 51.59375 93.824219 C 52.386719 88.136719 52.542969 80.894531 51.949219 77.46875 C 50.785156 70.753906 46.417969 60.769531 42.042969 54.824219 C 38.488281 49.996094 34.015625 45.742188 32.488281 45.742188 C 31.878906 45.742188 30.484375 45.257812 29.386719 44.664062 C 28.289062 44.074219 27.226562 43.695312 27.023438 43.824219 C 26.820312 43.953125 25.628906 44.042969 24.371094 44.023438 C 22.453125 44 21.65625 43.773438 19.433594 42.625 C 16.355469 41.039062 15.417969 39.84375 15.058594 37.074219 C 14.855469 35.496094 14.550781 34.894531 13.214844 33.433594 L 11.617188 31.679688 L 11.792969 29.425781 C 12.289062 23.101562 18.230469 18.253906 26.28125 17.609375 C 29.300781 17.367188 29.570312 17.273438 32.011719 15.59375 C 36.453125 12.542969 39.289062 11.636719 44.480469 11.601562 C 49.617188 11.570312 52.21875 12.253906 58.792969 15.367188 L 62.644531 17.1875 L 67.195312 17.039062 C 74.695312 16.796875 75.457031 16.882812 79.957031 18.46875 C 83.78125 19.816406 84.230469 19.902344 85.757812 19.550781 C 88.207031 18.988281 94.175781 19.082031 96.535156 19.71875 C 98.90625 20.363281 100.214844 21.003906 102.378906 22.59375 C 103.246094 23.230469 104.742188 23.949219 105.707031 24.191406 C 111.351562 25.601562 116.382812 31.554688 116.382812 36.816406 C 116.382812 38.8125 115.675781 40.832031 114.53125 42.101562 C 114.105469 42.574219 112.183594 43.734375 110.257812 44.683594 C 108.082031 45.753906 106.296875 46.910156 105.539062 47.746094 C 103.738281 49.722656 101.75 50.484375 97.832031 50.691406 L 94.503906 50.867188 L 92.015625 52.949219 C 82.941406 60.542969 76.441406 72.320312 73.984375 85.628906 C 73.792969 86.679688 73.515625 91.734375 73.367188 96.863281 C 73.113281 105.867188 73.070312 106.273438 72.164062 108.496094 C 71.644531 109.761719 71.289062 110.863281 71.371094 110.949219 C 71.449219 111.03125 72.75 111.253906 74.257812 111.441406 C 77.003906 111.789062 80.882812 112.6875 81.546875 113.128906 C 81.742188 113.261719 78.976562 113.449219 75.40625 113.546875 C 70.085938 113.695312 68.75 113.835938 68.003906 114.335938 C 66.617188 115.269531 63 116.417969 61.519531 116.398438 C 60.789062 116.386719 59.328125 116.09375 58.265625 115.746094 Z M 65.269531 113.339844 C 70.269531 110.964844 71.214844 108.371094 71.199219 97.066406 C 71.1875 89.816406 71.351562 88.144531 72.679688 81.976562 C 75.148438 70.503906 81.214844 59.722656 89.6875 51.75 L 91.496094 50.046875 L 90.277344 50.046875 C 88.449219 50.046875 85.910156 51.546875 83.886719 53.816406 C 81.257812 56.757812 77.457031 62.757812 75.0625 67.734375 C 73.914062 70.125 72.972656 71.957031 72.972656 71.808594 C 72.972656 71.210938 75.585938 64.421875 76.65625 62.246094 C 77.285156 60.960938 78.683594 58.550781 79.757812 56.886719 C 80.835938 55.226562 81.648438 53.796875 81.566406 53.710938 C 81.484375 53.628906 80.453125 53.671875 79.273438 53.8125 L 77.128906 54.070312 L 74.75 59.144531 C 73.441406 61.933594 71.539062 66.683594 70.523438 69.699219 C 69.507812 72.714844 68.628906 75.132812 68.566406 75.070312 C 68.144531 74.636719 71.917969 61.644531 73.492188 58.101562 C 74.136719 56.660156 74.554688 55.363281 74.429688 55.21875 C 74.300781 55.074219 74.378906 55.058594 74.597656 55.1875 C 74.933594 55.386719 75.636719 54.421875 75.34375 54.164062 C 75.097656 53.945312 71.128906 52.890625 71.011719 53.011719 C 70.867188 53.160156 67.628906 65.25 67.210938 67.203125 C 67.070312 67.859375 66.898438 68.335938 66.828125 68.265625 C 66.699219 68.132812 67.738281 59.746094 68.414062 55.429688 C 68.617188 54.144531 68.820312 52.804688 68.863281 52.449219 C 68.925781 51.960938 68.476562 51.628906 67.058594 51.113281 C 66.023438 50.734375 65.0625 50.496094 64.929688 50.578125 C 64.792969 50.664062 64.578125 54.496094 64.453125 59.089844 C 64.230469 67.296875 63.878906 73.492188 63.648438 73.261719 C 63.585938 73.195312 63.449219 70.003906 63.347656 66.167969 C 63.128906 58.074219 62.875 53.285156 62.585938 51.808594 C 62.390625 50.800781 62.316406 50.765625 60.347656 50.765625 C 59.226562 50.765625 58.234375 50.890625 58.144531 51.042969 C 58.050781 51.195312 58.210938 52.363281 58.503906 53.640625 C 59.371094 57.464844 59.90625 61.433594 59.929688 64.160156 C 59.941406 65.574219 59.878906 66.324219 59.789062 65.832031 C 59.492188 64.1875 57.269531 55.277344 56.621094 53.125 L 55.980469 50.996094 L 54.0625 50.558594 C 53.003906 50.316406 51.765625 50 51.308594 49.851562 L 50.476562 49.578125 L 51.363281 51.160156 C 53.214844 54.457031 55.949219 63.023438 57.21875 69.5 C 57.960938 73.300781 57.96875 74.597656 57.234375 71.671875 C 54.660156 61.46875 50.628906 52.011719 47.289062 48.351562 C 45.445312 46.332031 45.09375 46.101562 43.867188 46.101562 L 42.5 46.101562 L 44.390625 48.878906 C 46.179688 51.507812 48.832031 56.527344 49.53125 58.605469 C 49.90625 59.726562 49.917969 59.742188 47.097656 55.121094 C 45.019531 51.710938 42.945312 48.867188 40.882812 46.589844 C 39.871094 45.476562 39.210938 45.070312 38.226562 44.957031 C 37.503906 44.875 36.917969 44.898438 36.925781 45.007812 C 36.929688 45.113281 38.191406 46.574219 39.722656 48.253906 C 43.296875 52.164062 46.144531 56.390625 48.636719 61.484375 C 54.398438 73.265625 55.625 81.101562 53.738281 93.996094 C 52.898438 99.71875 52.871094 105.9375 53.675781 108.558594 C 54.550781 111.410156 58.617188 114.207031 61.945312 114.242188 C 62.738281 114.25 64.179688 113.859375 65.269531 113.339844 Z M 63.347656 109.691406 C 63.636719 108.949219 64.101562 107.214844 64.382812 105.832031 L 64.894531 103.324219 L 64.707031 105.652344 C 64.605469 106.9375 64.226562 108.671875 63.863281 109.511719 C 63.054688 111.394531 62.628906 111.539062 63.347656 109.691406 Z M 65.632812 110.839844 C 65.625 110.632812 65.785156 110.292969 65.984375 110.089844 C 66.179688 109.886719 66.648438 108.925781 67.015625 107.957031 C 67.386719 106.984375 67.695312 106.480469 67.703125 106.832031 C 67.714844 107.183594 67.5 107.992188 67.234375 108.625 C 66.660156 109.980469 65.648438 111.378906 65.632812 110.839844 Z M 55.234375 102.964844 C 55.234375 101.582031 55.296875 101.0625 55.375 101.804688 C 55.449219 102.550781 55.449219 103.679688 55.371094 104.316406 C 55.292969 104.953125 55.230469 104.34375 55.234375 102.964844 Z M 67.742188 92.710938 C 67.753906 91.046875 67.902344 89.042969 68.070312 88.253906 C 68.277344 87.292969 68.316406 88.238281 68.183594 91.125 C 68.078125 93.492188 67.929688 95.496094 67.855469 95.578125 C 67.78125 95.660156 67.730469 94.371094 67.742188 92.710938 Z M 83.003906 50.292969 C 83.804688 49.992188 85.09375 49.3125 85.871094 48.785156 C 88.050781 47.308594 89.476562 47.109375 93.261719 47.761719 C 97.316406 48.457031 99.640625 48.292969 101.890625 47.152344 C 103.136719 46.519531 103.785156 45.898438 104.269531 44.890625 C 104.902344 43.5625 104.90625 43.414062 104.34375 41.585938 C 103.878906 40.082031 103.335938 39.292969 101.777344 37.871094 C 100.691406 36.878906 99.882812 35.980469 99.984375 35.878906 C 100.21875 35.640625 104.121094 38.238281 104.886719 39.140625 C 105.203125 39.515625 105.808594 40.507812 106.234375 41.347656 C 107.121094 43.109375 107.921875 43.285156 110.007812 42.1875 C 112.410156 40.921875 113.289062 39.625 113.488281 37.046875 C 113.707031 34.273438 113.25 33.199219 110.652344 30.386719 C 107.855469 27.355469 104.703125 26.042969 100.105469 25.992188 L 97.652344 25.964844 L 101.152344 24.347656 L 98.878906 23.21875 C 94.945312 21.261719 89.851562 20.886719 85.050781 22.199219 C 82.539062 22.882812 77.988281 24.808594 75.949219 26.042969 L 74.199219 27.105469 L 75.949219 25.449219 C 76.910156 24.539062 78.542969 23.300781 79.578125 22.691406 C 81.433594 21.601562 81.445312 21.582031 80.621094 21.140625 C 80.160156 20.894531 78.761719 20.332031 77.515625 19.898438 C 75.488281 19.1875 74.492188 19.097656 68.070312 19.058594 L 60.894531 19.015625 L 56.867188 16.984375 C 51.667969 14.367188 48.640625 13.660156 43.613281 13.898438 C 39.152344 14.109375 36.824219 14.90625 33.894531 17.238281 C 32.792969 18.117188 31.757812 18.835938 31.601562 18.835938 C 31.0625 18.835938 31.308594 19.503906 31.925781 19.714844 C 32.261719 19.828125 32.925781 20.230469 33.402344 20.605469 C 34.261719 21.285156 34.253906 21.285156 32.175781 20.777344 C 29.296875 20.074219 24.183594 20.085938 22.21875 20.800781 C 17.578125 22.488281 13.808594 26.582031 13.808594 29.933594 C 13.808594 30.699219 14.257812 31.527344 15.363281 32.804688 C 16.351562 33.945312 17.011719 35.101562 17.167969 35.957031 C 17.796875 39.410156 20.050781 41.078125 24.09375 41.078125 C 26.328125 41.078125 28.246094 40.34375 31.136719 38.382812 C 32.148438 37.695312 32.136719 37.734375 30.824219 39.378906 C 29.53125 41.007812 29.492188 41.125 30.0625 41.765625 C 30.917969 42.734375 32.773438 42.988281 34.71875 42.398438 C 36.246094 41.9375 36.683594 41.964844 39.890625 42.71875 C 45.035156 43.933594 46.097656 43.847656 48.015625 42.058594 L 48.789062 41.339844 L 48.613281 42.554688 C 48.359375 44.34375 49.074219 45.351562 51.601562 46.769531 C 53.585938 47.886719 54.222656 48.054688 56.851562 48.175781 C 58.773438 48.261719 60.652344 48.113281 62.101562 47.757812 L 64.363281 47.207031 L 68.753906 49.035156 C 71.515625 50.1875 73.929688 50.945312 75.25 51.085938 C 77.824219 51.351562 81.0625 51.019531 83.003906 50.292969 Z M 56.34375 37.5 C 53.378906 36.980469 50.636719 35.800781 48.542969 34.136719 C 45.367188 31.613281 44.484375 31.269531 40.765625 31.105469 C 38.441406 31.003906 36.789062 31.132812 35.289062 31.535156 C 32.507812 32.277344 32.296875 32.257812 33.6875 31.386719 C 35.160156 30.464844 39.464844 29.242188 41.28125 29.226562 L 42.691406 29.214844 L 41.332031 28.0625 C 40.585938 27.425781 39.011719 26.386719 37.832031 25.746094 C 35.347656 24.40625 35.378906 24.320312 38.011719 25.25 C 40.566406 26.148438 42.398438 27.136719 44.089844 28.523438 C 44.859375 29.152344 46.277344 30.078125 47.242188 30.578125 C 48.203125 31.078125 49.441406 31.871094 49.988281 32.34375 C 51.601562 33.726562 53.953125 34.648438 57.449219 35.269531 C 60.941406 35.886719 61.660156 35.828125 71.570312 34.082031 C 73.207031 33.792969 75.605469 33.554688 76.898438 33.550781 C 79.039062 33.542969 79.445312 33.414062 81.398438 32.121094 C 84.746094 29.90625 87.070312 29.132812 89.777344 29.34375 C 91.027344 29.441406 92.605469 29.773438 93.277344 30.082031 C 94.480469 30.632812 94.453125 30.636719 91.675781 30.429688 C 88.585938 30.199219 87.503906 30.441406 83.90625 32.171875 C 81.828125 33.171875 81.34375 33.902344 82.753906 33.902344 C 83.929688 33.902344 86.875 35.046875 87.894531 35.902344 L 88.902344 36.746094 L 87.679688 36.402344 C 87.007812 36.210938 83.28125 36.054688 79.402344 36.054688 C 73.636719 36.054688 71.71875 36.191406 68.898438 36.792969 C 65.015625 37.621094 58.976562 37.964844 56.34375 37.5 Z M 52.949219 31.480469 C 52.660156 31.136719 51.921875 30.085938 51.304688 29.152344 C 50.6875 28.214844 48.734375 25.964844 46.960938 24.148438 C 44.910156 22.046875 44.160156 21.097656 44.902344 21.542969 C 47.210938 22.933594 50.542969 26.523438 52.132812 29.328125 C 53.722656 32.140625 53.90625 32.625 52.949219 31.480469 Z M 58.753906 29.957031 C 58.777344 28.671875 58.683594 26.738281 58.546875 25.652344 C 58.300781 23.707031 58.304688 23.695312 58.78125 24.933594 C 59.308594 26.300781 59.4375 30.417969 58.992188 31.570312 C 58.8125 32.027344 58.726562 31.4375 58.753906 29.957031 Z M 65.675781 31.570312 C 66.128906 30.28125 69.199219 24.535156 69.351562 24.691406 C 69.585938 24.929688 67.660156 28.859375 66.445312 30.628906 C 65.953125 31.34375 65.605469 31.769531 65.675781 31.570312 Z M 19.929688 25.089844 C 21.839844 23.605469 27.101562 22.765625 30.085938 23.472656 C 30.789062 23.640625 29.859375 23.785156 27.285156 23.917969 C 24.671875 24.050781 22.757812 24.355469 21.332031 24.871094 C 19.875 25.398438 19.445312 25.46875 19.929688 25.089844 Z M 19.929688 25.089844 "/>
</g>
</svg>
