<?xml version="1.0" encoding="UTF-8"?>
<svg xmlns="http://www.w3.org/2000/svg" xmlns:xlink="http://www.w3.org/1999/xlink" width="32px" height="32px" viewBox="0 0 32 32" version="1.1">
<g id="surface1">
<path style=" stroke:none;fill-rule:nonzero;fill:rgb(38.431373%,38.431373%,38.431373%);fill-opacity:1;" d="M 8.011719 28.578125 C 8.011719 28.429688 9.558594 28.015625 10.574219 27.890625 C 11.238281 27.808594 11.429688 27.722656 11.429688 27.503906 C 11.429688 27.347656 11.59375 26.503906 11.789062 25.628906 C 11.988281 24.757812 12.148438 23.671875 12.148438 23.222656 L 12.148438 22.402344 L 11.164062 22.128906 C 9.046875 21.550781 8.015625 20.421875 7.636719 18.273438 C 7.285156 16.289062 7.507812 13.933594 8.234375 12.011719 C 8.574219 11.109375 9.070312 9.757812 9.335938 9.007812 C 10.183594 6.601562 12.398438 4.152344 14.511719 3.273438 C 16.609375 2.402344 17.917969 2.3125 19.367188 2.945312 C 20.28125 3.34375 20.910156 4.050781 21.734375 5.59375 C 22.753906 7.492188 22.882812 7.871094 23.210938 9.8125 C 23.375 10.769531 23.789062 12.410156 24.136719 13.464844 C 24.925781 15.847656 25.136719 18.183594 24.683594 19.535156 C 24.28125 20.742188 23.398438 21.578125 21.957031 22.125 L 20.78125 22.570312 L 20.828125 25.191406 L 20.875 27.808594 L 21.59375 27.90625 C 22.53125 28.03125 23.992188 28.4375 24.113281 28.605469 C 24.164062 28.679688 22.710938 28.738281 20.878906 28.742188 C 19.046875 28.742188 17.546875 28.714844 17.546875 28.683594 C 17.546875 28.652344 17.992188 28.449219 18.535156 28.234375 L 19.527344 27.839844 L 19.527344 25.414062 C 19.527344 24.078125 19.464844 22.957031 19.390625 22.921875 C 19.316406 22.882812 17.988281 22.800781 16.4375 22.742188 L 13.617188 22.628906 L 13.5 23.542969 C 13.4375 24.046875 13.269531 24.949219 13.128906 25.550781 C 12.988281 26.15625 12.851562 26.921875 12.828125 27.257812 C 12.78125 27.832031 12.824219 27.886719 13.574219 28.238281 C 14.015625 28.441406 14.410156 28.640625 14.457031 28.683594 C 14.503906 28.722656 13.074219 28.738281 11.277344 28.71875 C 9.480469 28.699219 8.011719 28.636719 8.011719 28.578125 Z M 21.457031 21.265625 C 22.613281 20.816406 23.601562 19.898438 23.765625 19.125 C 24.011719 17.988281 23.730469 15.910156 23.058594 13.867188 C 22.695312 12.777344 22.25 10.996094 22.058594 9.90625 C 21.871094 8.820312 21.640625 7.84375 21.546875 7.738281 C 21.453125 7.636719 21.148438 7.023438 20.871094 6.375 C 19.890625 4.085938 19.03125 3.402344 17.140625 3.402344 C 15.804688 3.402344 14.578125 4.074219 12.992188 5.671875 C 11.496094 7.179688 10.917969 8.136719 10.191406 10.308594 C 9.886719 11.214844 9.441406 12.414062 9.199219 12.976562 C 8.609375 14.332031 8.492188 15.472656 8.699219 17.683594 C 8.898438 19.796875 9.175781 20.359375 10.269531 20.882812 C 11.601562 21.523438 13.195312 21.707031 17.007812 21.667969 C 20.246094 21.632812 20.585938 21.601562 21.457031 21.265625 Z M 14.769531 20.425781 C 14.988281 19.8125 15.398438 19.199219 15.648438 19.113281 C 15.988281 19.003906 17.3125 19.757812 17.453125 20.144531 C 17.648438 20.671875 17.40625 20.777344 15.996094 20.777344 C 14.675781 20.777344 14.648438 20.769531 14.769531 20.425781 Z M 10.523438 20.191406 C 10.054688 19.828125 9.929688 19.59375 9.863281 18.96875 C 9.683594 17.3125 10.601562 16.722656 11.265625 18.066406 C 11.660156 18.871094 11.6875 20.46875 11.308594 20.578125 C 11.195312 20.613281 10.839844 20.4375 10.523438 20.191406 Z M 18.902344 20.160156 C 18.550781 19.574219 18.554688 19.550781 18.992188 18.527344 C 19.554688 17.21875 20.300781 17.199219 20.523438 18.492188 C 20.804688 20.132812 19.613281 21.359375 18.902344 20.160156 Z M 12.9375 19.652344 C 12.722656 19.351562 12.636719 17.148438 12.816406 16.550781 C 12.945312 16.117188 13.082031 15.992188 13.46875 15.953125 C 13.882812 15.910156 14 15.992188 14.230469 16.472656 C 14.71875 17.492188 14.734375 17.898438 14.308594 18.660156 C 13.714844 19.730469 13.238281 20.074219 12.9375 19.652344 Z M 22.003906 19.4375 C 21.949219 19.355469 21.847656 18.703125 21.773438 17.984375 C 21.667969 16.902344 21.699219 16.574219 21.964844 16.0625 C 22.140625 15.722656 22.371094 15.472656 22.476562 15.503906 C 22.703125 15.570312 23.035156 16.507812 23.203125 17.578125 C 23.316406 18.304688 23.289062 18.394531 22.714844 18.96875 C 22.378906 19.308594 22.0625 19.515625 22.003906 19.4375 Z M 17.050781 18.433594 C 16.3125 17.832031 16.042969 16.007812 16.5625 15.132812 C 16.824219 14.691406 16.863281 14.679688 17.328125 14.882812 C 17.597656 15.003906 18.042969 15.144531 18.316406 15.203125 C 18.902344 15.324219 19.222656 15.902344 19.050781 16.523438 C 18.957031 16.863281 18.125 18.03125 17.550781 18.625 C 17.488281 18.691406 17.261719 18.605469 17.050781 18.433594 Z M 10.351562 16.121094 C 10.003906 16.085938 9.625 15.988281 9.507812 15.902344 C 9.265625 15.726562 9.375 14.867188 9.730469 14.09375 C 10.003906 13.507812 11.105469 12.011719 11.261719 12.011719 C 11.78125 12.011719 11.96875 14.445312 11.535156 15.527344 C 11.261719 16.210938 11.253906 16.214844 10.351562 16.121094 Z M 20.308594 15.847656 C 19.996094 15.136719 20.785156 12.898438 21.316406 12.984375 C 21.703125 13.050781 21.78125 14.476562 21.4375 15.195312 C 21.121094 15.859375 20.480469 16.226562 20.308594 15.847656 Z M 13.792969 14.539062 C 13.28125 14.117188 13.132812 13.761719 13.214844 13.109375 C 13.261719 12.75 13.808594 11.230469 13.890625 11.230469 C 13.933594 11.230469 14.191406 11.328125 14.464844 11.453125 C 15.53125 11.933594 15.859375 13.582031 15.066406 14.503906 C 14.597656 15.050781 14.433594 15.054688 13.792969 14.539062 Z M 18.15625 14.023438 C 17.574219 13.773438 17.007812 12.769531 17.007812 11.992188 C 17.011719 11.308594 17.679688 9.804688 18.070312 9.59375 C 18.332031 9.453125 18.722656 10.277344 18.886719 11.308594 C 18.957031 11.738281 19.214844 12.359375 19.460938 12.6875 C 19.816406 13.164062 19.875 13.371094 19.746094 13.707031 C 19.570312 14.171875 18.839844 14.320312 18.15625 14.023438 Z M 20.554688 11.582031 C 20.148438 11.1875 19.777344 8.644531 20.042969 8.058594 C 20.484375 7.082031 21.09375 7.882812 21.371094 9.816406 C 21.515625 10.804688 21.523438 11.324219 21.394531 11.503906 C 21.125 11.875 20.886719 11.898438 20.554688 11.582031 Z M 11.484375 10.066406 C 11.601562 8.988281 12.101562 7.847656 12.644531 7.425781 C 12.996094 7.152344 13.019531 7.15625 13.40625 7.582031 C 13.910156 8.136719 13.835938 9.136719 13.210938 10.230469 C 12.808594 10.9375 12.730469 10.992188 12.082031 11.007812 L 11.382812 11.023438 Z M 15.128906 10.410156 C 14.554688 9.699219 14.921875 8.285156 15.839844 7.65625 C 16.585938 7.144531 17.117188 7.207031 17.359375 7.839844 C 17.464844 8.125 17.492188 8.507812 17.417969 8.683594 C 17.1875 9.207031 15.855469 10.742188 15.621094 10.75 C 15.503906 10.757812 15.28125 10.601562 15.128906 10.410156 Z M 18.359375 7.433594 C 17.742188 6.097656 18.121094 4.09375 18.886719 4.648438 C 19.195312 4.871094 19.707031 6.21875 19.707031 6.8125 C 19.707031 7.269531 19.171875 8.097656 18.875 8.097656 C 18.761719 8.097656 18.527344 7.796875 18.359375 7.433594 Z M 14.429688 7.210938 C 13.96875 6.808594 14.675781 5.285156 15.628906 4.617188 C 16.171875 4.238281 16.417969 4.273438 16.714844 4.773438 C 17.070312 5.371094 16.757812 5.972656 15.699219 6.730469 C 14.871094 7.320312 14.648438 7.402344 14.429688 7.210938 Z M 14.128906 27.3125 C 14.132812 26.746094 14.488281 25.789062 14.699219 25.789062 C 14.808594 25.789062 14.84375 25.933594 14.777344 26.140625 C 14.71875 26.332031 14.617188 26.757812 14.554688 27.078125 C 14.433594 27.714844 14.128906 27.882812 14.128906 27.3125 Z M 18.230469 27.113281 C 18.175781 27.066406 18.199219 26.761719 18.28125 26.445312 C 18.367188 26.125 18.441406 25.636719 18.441406 25.355469 C 18.445312 25.078125 18.539062 24.847656 18.652344 24.847656 C 18.792969 24.847656 18.824219 25.136719 18.757812 25.773438 C 18.664062 26.691406 18.429688 27.285156 18.230469 27.113281 Z M 16.46875 25.257812 C 16.46875 25.042969 16.546875 24.824219 16.648438 24.769531 C 16.75 24.714844 16.828125 24.84375 16.828125 25.066406 C 16.828125 25.28125 16.746094 25.5 16.648438 25.550781 C 16.546875 25.605469 16.46875 25.480469 16.46875 25.257812 Z M 16.46875 25.257812 "/>
</g>
</svg>
