<?xml version="1.0" encoding="UTF-8"?>
<svg xmlns="http://www.w3.org/2000/svg" xmlns:xlink="http://www.w3.org/1999/xlink" width="64px" height="64px" viewBox="0 0 64 64" version="1.1">
<g id="surface1">
<path style=" stroke:none;fill-rule:nonzero;fill:rgb(38.431373%,38.431373%,38.431373%);fill-opacity:1;" d="M 16.023438 57.15625 C 16.023438 56.859375 19.121094 56.03125 21.152344 55.78125 C 22.472656 55.621094 22.859375 55.445312 22.859375 55.007812 C 22.859375 54.695312 23.183594 53.007812 23.578125 51.261719 C 23.976562 49.515625 24.300781 47.347656 24.300781 46.441406 L 24.300781 44.800781 L 22.328125 44.261719 C 18.097656 43.101562 16.03125 40.84375 15.273438 36.546875 C 14.570312 32.574219 15.019531 27.867188 16.46875 24.023438 C 17.148438 22.214844 18.140625 19.511719 18.667969 18.015625 C 20.371094 13.203125 24.796875 8.300781 29.023438 6.546875 C 33.222656 4.800781 35.839844 4.625 38.734375 5.894531 C 40.5625 6.691406 41.820312 8.101562 43.472656 11.1875 C 45.503906 14.988281 45.769531 15.742188 46.425781 19.625 C 46.75 21.539062 47.582031 24.824219 48.277344 26.929688 C 49.851562 31.691406 50.269531 36.371094 49.367188 39.074219 C 48.5625 41.480469 46.796875 43.160156 43.914062 44.25 L 41.558594 45.144531 L 41.65625 50.378906 L 41.75 55.617188 L 43.1875 55.808594 C 45.066406 56.058594 47.988281 56.871094 48.226562 57.210938 C 48.332031 57.355469 45.417969 57.480469 41.753906 57.480469 C 38.089844 57.484375 35.09375 57.433594 35.09375 57.371094 C 35.09375 57.308594 35.984375 56.902344 37.074219 56.46875 L 39.050781 55.679688 L 39.050781 50.828125 C 39.050781 48.160156 38.929688 45.914062 38.78125 45.839844 C 38.632812 45.765625 35.976562 45.605469 32.875 45.484375 L 27.238281 45.261719 L 27.003906 47.085938 C 26.875 48.09375 26.539062 49.898438 26.257812 51.105469 C 25.980469 52.308594 25.707031 53.84375 25.652344 54.515625 C 25.5625 55.667969 25.648438 55.777344 27.152344 56.476562 C 28.027344 56.882812 28.820312 57.285156 28.914062 57.363281 C 29.007812 57.445312 26.144531 57.480469 22.554688 57.441406 C 18.960938 57.398438 16.023438 57.273438 16.023438 57.15625 Z M 42.917969 42.527344 C 45.222656 41.628906 47.199219 39.800781 47.535156 38.253906 C 48.023438 35.976562 47.464844 31.820312 46.113281 27.734375 C 45.394531 25.554688 44.496094 21.992188 44.121094 19.816406 C 43.742188 17.640625 43.28125 15.6875 43.09375 15.480469 C 42.90625 15.269531 42.300781 14.042969 41.746094 12.753906 C 39.78125 8.175781 38.058594 6.804688 34.28125 6.804688 C 31.609375 6.804688 29.152344 8.148438 25.984375 11.34375 C 22.992188 14.359375 21.835938 16.273438 20.382812 20.613281 C 19.773438 22.425781 18.882812 24.828125 18.394531 25.953125 C 17.222656 28.664062 16.980469 30.945312 17.398438 35.367188 C 17.800781 39.597656 18.351562 40.71875 20.539062 41.769531 C 23.203125 43.046875 26.394531 43.417969 34.015625 43.335938 C 40.496094 43.269531 41.175781 43.207031 42.917969 42.527344 Z M 29.539062 40.851562 C 29.972656 39.621094 30.796875 38.398438 31.300781 38.230469 C 31.976562 38.003906 34.625 39.515625 34.910156 40.289062 C 35.292969 41.347656 34.808594 41.554688 31.988281 41.554688 C 29.355469 41.554688 29.292969 41.539062 29.539062 40.851562 Z M 21.042969 40.382812 C 20.113281 39.65625 19.855469 39.183594 19.722656 37.9375 C 19.371094 34.625 21.203125 33.449219 22.527344 36.136719 C 23.320312 37.742188 23.378906 40.941406 22.617188 41.15625 C 22.386719 41.222656 21.679688 40.875 21.042969 40.382812 Z M 37.800781 40.320312 C 37.105469 39.148438 37.109375 39.097656 37.984375 37.058594 C 39.113281 34.433594 40.597656 34.398438 41.042969 36.984375 C 41.609375 40.265625 39.226562 42.714844 37.800781 40.320312 Z M 25.875 39.304688 C 25.449219 38.703125 25.273438 34.292969 25.632812 33.101562 C 25.890625 32.230469 26.160156 31.988281 26.9375 31.90625 C 27.761719 31.824219 27.996094 31.980469 28.457031 32.941406 C 29.441406 34.984375 29.46875 35.796875 28.621094 37.324219 C 27.433594 39.457031 26.476562 40.148438 25.875 39.304688 Z M 44.011719 38.875 C 43.902344 38.714844 43.691406 37.40625 43.550781 35.972656 C 43.332031 33.804688 43.398438 33.152344 43.929688 32.125 C 44.28125 31.449219 44.738281 30.941406 44.949219 31.003906 C 45.410156 31.136719 46.066406 33.019531 46.40625 35.15625 C 46.636719 36.613281 46.574219 36.789062 45.433594 37.9375 C 44.761719 38.613281 44.121094 39.035156 44.011719 38.875 Z M 34.101562 36.863281 C 32.625 35.664062 32.085938 32.019531 33.125 30.265625 C 33.648438 29.386719 33.726562 29.359375 34.65625 29.769531 C 35.191406 30.003906 36.085938 30.292969 36.636719 30.40625 C 37.804688 30.648438 38.445312 31.804688 38.101562 33.046875 C 37.914062 33.722656 36.25 36.058594 35.101562 37.253906 C 34.976562 37.382812 34.527344 37.207031 34.101562 36.863281 Z M 20.703125 32.242188 C 20.011719 32.171875 19.253906 31.972656 19.019531 31.804688 C 18.535156 31.457031 18.746094 29.730469 19.464844 28.1875 C 20.007812 27.015625 22.210938 24.023438 22.527344 24.023438 C 23.558594 24.023438 23.9375 28.890625 23.070312 31.058594 C 22.527344 32.421875 22.511719 32.429688 20.703125 32.242188 Z M 40.621094 31.691406 C 39.996094 30.277344 41.570312 25.796875 42.632812 25.972656 C 43.410156 26.101562 43.566406 28.957031 42.878906 30.390625 C 42.242188 31.714844 40.957031 32.457031 40.621094 31.691406 Z M 27.589844 29.074219 C 26.558594 28.238281 26.269531 27.519531 26.429688 26.214844 C 26.519531 25.5 27.617188 22.457031 27.785156 22.457031 C 27.867188 22.457031 28.382812 22.660156 28.929688 22.90625 C 31.066406 23.867188 31.714844 27.160156 30.132812 29.003906 C 29.191406 30.101562 28.863281 30.109375 27.589844 29.074219 Z M 36.308594 28.050781 C 35.144531 27.546875 34.011719 25.539062 34.015625 23.980469 C 34.019531 22.621094 35.355469 19.609375 36.144531 19.1875 C 36.660156 18.90625 37.445312 20.554688 37.773438 22.613281 C 37.910156 23.476562 38.425781 24.71875 38.917969 25.375 C 39.632812 26.328125 39.75 26.742188 39.496094 27.410156 C 39.140625 28.347656 37.675781 28.640625 36.308594 28.050781 Z M 41.113281 23.160156 C 40.296875 22.378906 39.550781 17.285156 40.082031 16.117188 C 40.96875 14.164062 42.183594 15.765625 42.746094 19.628906 C 43.03125 21.609375 43.046875 22.652344 42.789062 23.003906 C 42.246094 23.753906 41.773438 23.796875 41.113281 23.160156 Z M 22.972656 20.128906 C 23.203125 17.972656 24.203125 15.695312 25.289062 14.847656 C 25.996094 14.300781 26.039062 14.308594 26.8125 15.164062 C 27.820312 16.273438 27.675781 18.273438 26.425781 20.464844 C 25.621094 21.871094 25.460938 21.984375 24.164062 22.011719 L 22.765625 22.046875 Z M 30.257812 20.824219 C 29.109375 19.398438 29.839844 16.566406 31.679688 15.308594 C 33.175781 14.285156 34.234375 14.414062 34.714844 15.675781 C 34.933594 16.253906 34.988281 17.011719 34.832031 17.367188 C 34.378906 18.410156 31.710938 21.488281 31.246094 21.503906 C 31.007812 21.511719 30.566406 21.207031 30.257812 20.824219 Z M 36.714844 14.867188 C 35.480469 12.191406 36.242188 8.1875 37.773438 9.292969 C 38.390625 9.738281 39.410156 12.441406 39.410156 13.621094 C 39.410156 14.535156 38.339844 16.195312 37.753906 16.195312 C 37.519531 16.195312 37.054688 15.597656 36.714844 14.867188 Z M 28.855469 14.421875 C 27.933594 13.621094 29.347656 10.570312 31.257812 9.238281 C 32.347656 8.480469 32.835938 8.550781 33.429688 9.550781 C 34.140625 10.746094 33.515625 11.949219 31.398438 13.457031 C 29.746094 14.636719 29.300781 14.808594 28.855469 14.421875 Z M 28.257812 54.628906 C 28.261719 53.496094 28.976562 51.574219 29.394531 51.574219 C 29.621094 51.574219 29.6875 51.867188 29.558594 52.277344 C 29.4375 52.667969 29.234375 53.511719 29.109375 54.15625 C 28.867188 55.433594 28.253906 55.769531 28.257812 54.628906 Z M 36.464844 54.230469 C 36.351562 54.128906 36.394531 53.527344 36.566406 52.890625 C 36.734375 52.253906 36.878906 51.273438 36.882812 50.714844 C 36.886719 50.152344 37.078125 49.695312 37.300781 49.695312 C 37.585938 49.695312 37.652344 50.273438 37.519531 51.542969 C 37.328125 53.386719 36.859375 54.574219 36.464844 54.230469 Z M 32.933594 50.515625 C 32.933594 50.085938 33.097656 49.644531 33.292969 49.539062 C 33.496094 49.429688 33.652344 49.6875 33.652344 50.128906 C 33.652344 50.558594 33.492188 51 33.292969 51.105469 C 33.089844 51.214844 32.933594 50.957031 32.933594 50.515625 Z M 32.933594 50.515625 "/>
</g>
</svg>
