<?xml version="1.0" encoding="UTF-8"?>
<svg xmlns="http://www.w3.org/2000/svg" xmlns:xlink="http://www.w3.org/1999/xlink" width="128px" height="128px" viewBox="0 0 128 128" version="1.1">
<g id="surface1">
<path style=" stroke:none;fill-rule:nonzero;fill:rgb(38.431373%,38.431373%,38.431373%);fill-opacity:1;" d="M 32.046875 114.3125 C 32.046875 113.722656 38.242188 112.058594 42.300781 111.566406 C 44.945312 111.242188 45.71875 110.890625 45.71875 110.011719 C 45.71875 109.386719 46.367188 106.019531 47.160156 102.523438 C 47.949219 99.027344 48.597656 94.691406 48.597656 92.886719 L 48.597656 89.601562 L 44.652344 88.519531 C 36.191406 86.199219 32.0625 81.6875 30.542969 73.09375 C 29.136719 65.152344 30.039062 55.734375 32.933594 48.046875 C 34.300781 44.429688 36.28125 39.023438 37.335938 36.035156 C 40.742188 26.40625 49.589844 16.601562 58.046875 13.089844 C 66.441406 9.605469 71.679688 9.253906 77.472656 11.785156 C 81.121094 13.382812 83.644531 16.199219 86.945312 22.375 C 91.007812 29.972656 91.535156 31.484375 92.851562 39.25 C 93.496094 43.074219 95.164062 49.648438 96.554688 53.855469 C 99.699219 63.382812 100.539062 72.738281 98.734375 78.144531 C 97.125 82.960938 93.589844 86.316406 87.824219 88.503906 L 83.117188 90.285156 L 83.308594 100.757812 L 83.5 111.234375 L 86.378906 111.617188 C 90.132812 112.121094 95.972656 113.746094 96.453125 114.421875 C 96.660156 114.714844 90.835938 114.957031 83.507812 114.960938 C 76.183594 114.964844 70.1875 114.867188 70.1875 114.742188 C 70.1875 114.613281 71.96875 113.804688 74.144531 112.9375 L 78.101562 111.359375 L 78.101562 101.65625 C 78.101562 96.320312 77.859375 91.828125 77.5625 91.679688 C 77.265625 91.53125 71.949219 91.210938 65.75 90.964844 L 54.472656 90.523438 L 54.003906 94.175781 C 53.746094 96.183594 53.078125 99.800781 52.519531 102.210938 C 51.957031 104.621094 51.414062 107.691406 51.308594 109.03125 C 51.128906 111.335938 51.292969 111.550781 54.304688 112.953125 C 56.054688 113.765625 57.640625 114.566406 57.828125 114.730469 C 58.015625 114.890625 52.292969 114.960938 45.109375 114.878906 C 37.925781 114.800781 32.046875 114.546875 32.046875 114.3125 Z M 85.832031 85.054688 C 90.449219 83.261719 94.402344 79.601562 95.070312 76.503906 C 96.050781 71.953125 94.925781 63.640625 92.226562 55.464844 C 90.789062 51.105469 88.992188 43.980469 88.238281 39.628906 C 87.484375 35.277344 86.5625 31.375 86.1875 30.960938 C 85.8125 30.542969 84.597656 28.085938 83.488281 25.503906 C 79.5625 16.347656 76.121094 13.609375 68.558594 13.609375 C 63.21875 13.609375 58.304688 16.292969 51.96875 22.683594 C 45.984375 28.714844 43.671875 32.542969 40.761719 41.230469 C 39.550781 44.855469 37.761719 49.65625 36.789062 51.90625 C 34.441406 57.332031 33.960938 61.886719 34.796875 70.730469 C 35.601562 79.195312 36.699219 81.433594 41.078125 83.535156 C 46.410156 86.09375 52.785156 86.835938 68.027344 86.671875 C 80.988281 86.535156 82.347656 86.410156 85.832031 85.054688 Z M 59.074219 81.703125 C 59.945312 79.246094 61.59375 76.796875 62.601562 76.460938 C 63.953125 76.007812 69.253906 79.03125 69.816406 80.578125 C 70.585938 82.691406 69.621094 83.113281 63.980469 83.113281 C 58.707031 83.113281 58.589844 83.078125 59.074219 81.703125 Z M 42.085938 80.761719 C 40.222656 79.3125 39.714844 78.371094 39.445312 75.875 C 38.738281 69.25 42.410156 66.894531 45.058594 72.269531 C 46.640625 75.488281 46.757812 81.878906 45.238281 82.316406 C 44.773438 82.449219 43.355469 81.75 42.085938 80.761719 Z M 75.601562 80.636719 C 74.210938 78.292969 74.214844 78.199219 75.96875 74.113281 C 78.226562 68.871094 81.195312 68.800781 82.089844 73.972656 C 83.21875 80.53125 78.449219 85.429688 75.601562 80.636719 Z M 51.753906 78.609375 C 50.898438 77.40625 50.550781 68.589844 51.261719 66.207031 C 51.785156 64.464844 52.320312 63.972656 53.875 63.816406 C 55.527344 63.644531 55.992188 63.964844 56.914062 65.882812 C 58.878906 69.972656 58.9375 71.59375 57.238281 74.648438 C 54.863281 78.917969 52.949219 80.296875 51.753906 78.609375 Z M 88.023438 77.746094 C 87.800781 77.425781 87.386719 74.8125 87.097656 71.941406 C 86.664062 67.605469 86.792969 66.300781 87.855469 64.253906 C 88.558594 62.898438 89.480469 61.886719 89.898438 62.007812 C 90.816406 62.273438 92.136719 66.039062 92.8125 70.316406 C 93.273438 73.226562 93.148438 73.578125 90.863281 75.878906 C 89.523438 77.226562 88.246094 78.070312 88.023438 77.746094 Z M 68.203125 73.726562 C 65.246094 71.332031 64.167969 64.039062 66.25 60.53125 C 67.296875 58.773438 67.453125 58.722656 69.308594 59.535156 C 70.386719 60.007812 72.167969 60.582031 73.269531 60.8125 C 75.609375 61.300781 76.886719 63.605469 76.203125 66.09375 C 75.832031 67.445312 72.496094 72.117188 70.203125 74.503906 C 69.953125 74.765625 69.050781 74.414062 68.203125 73.726562 Z M 41.40625 64.484375 C 40.019531 64.339844 38.507812 63.949219 38.039062 63.609375 C 37.070312 62.910156 37.492188 59.464844 38.929688 56.375 C 40.015625 54.03125 44.417969 48.046875 45.054688 48.046875 C 47.121094 48.046875 47.875 57.785156 46.144531 62.113281 C 45.054688 64.839844 45.023438 64.855469 41.40625 64.484375 Z M 81.242188 63.386719 C 79.992188 60.550781 83.144531 51.59375 85.269531 51.945312 C 86.816406 52.199219 87.132812 57.914062 85.753906 60.777344 C 84.480469 63.433594 81.914062 64.914062 81.242188 63.386719 Z M 55.179688 58.148438 C 53.117188 56.472656 52.535156 55.039062 52.863281 52.429688 C 53.042969 50.996094 55.230469 44.914062 55.570312 44.914062 C 55.730469 44.914062 56.761719 45.320312 57.855469 45.8125 C 62.132812 47.734375 63.433594 54.320312 60.265625 58.011719 C 58.386719 60.203125 57.726562 60.222656 55.179688 58.148438 Z M 72.621094 56.101562 C 70.289062 55.09375 68.027344 51.078125 68.035156 47.960938 C 68.042969 45.242188 70.710938 39.21875 72.285156 38.371094 C 73.324219 37.816406 74.890625 41.109375 75.546875 45.230469 C 75.820312 46.949219 76.851562 49.4375 77.835938 50.75 C 79.265625 52.65625 79.5 53.484375 78.988281 54.820312 C 78.277344 56.695312 75.355469 57.28125 72.621094 56.101562 Z M 82.222656 46.324219 C 80.59375 44.757812 79.105469 34.570312 80.164062 32.234375 C 81.9375 28.328125 84.367188 31.53125 85.488281 39.257812 C 86.0625 43.214844 86.089844 45.304688 85.578125 46.011719 C 84.492188 47.507812 83.542969 47.59375 82.222656 46.324219 Z M 45.945312 40.257812 C 46.40625 35.945312 48.410156 31.390625 50.582031 29.699219 C 51.992188 28.601562 52.078125 28.621094 53.625 30.324219 C 55.640625 32.550781 55.351562 36.550781 52.847656 40.929688 C 51.238281 43.746094 50.917969 43.964844 48.324219 44.027344 L 45.53125 44.09375 Z M 60.511719 41.644531 C 58.21875 38.796875 59.683594 33.136719 63.359375 30.621094 C 66.351562 28.574219 68.472656 28.828125 69.429688 31.355469 C 69.867188 32.507812 69.972656 34.027344 69.664062 34.730469 C 68.753906 36.820312 63.421875 42.976562 62.492188 43.007812 C 62.019531 43.023438 61.128906 42.410156 60.511719 41.644531 Z M 73.433594 29.730469 C 70.964844 24.382812 72.484375 16.378906 75.546875 18.589844 C 76.777344 19.480469 78.824219 24.878906 78.824219 27.242188 C 78.824219 29.070312 76.683594 32.390625 75.507812 32.390625 C 75.042969 32.390625 74.109375 31.195312 73.433594 29.730469 Z M 57.714844 28.84375 C 55.871094 27.242188 58.699219 21.136719 62.519531 18.472656 C 64.691406 16.957031 65.675781 17.097656 66.863281 19.097656 C 68.285156 21.492188 67.035156 23.898438 62.796875 26.917969 C 59.492188 29.273438 58.597656 29.613281 57.714844 28.84375 Z M 56.519531 109.253906 C 56.523438 106.988281 57.953125 103.148438 58.789062 103.148438 C 59.242188 103.148438 59.375 103.734375 59.117188 104.558594 C 58.871094 105.332031 58.46875 107.023438 58.222656 108.316406 C 57.730469 110.867188 56.511719 111.539062 56.519531 109.253906 Z M 72.929688 108.457031 C 72.699219 108.257812 72.792969 107.054688 73.132812 105.78125 C 73.472656 104.503906 73.757812 102.546875 73.769531 101.425781 C 73.777344 100.308594 74.152344 99.390625 74.605469 99.390625 C 75.167969 99.390625 75.304688 100.546875 75.039062 103.089844 C 74.65625 106.769531 73.722656 109.148438 72.929688 108.457031 Z M 65.871094 101.03125 C 65.871094 100.171875 66.191406 99.292969 66.589844 99.078125 C 66.996094 98.859375 67.308594 99.375 67.308594 100.257812 C 67.308594 101.117188 66.984375 101.996094 66.589844 102.210938 C 66.183594 102.429688 65.871094 101.917969 65.871094 101.03125 Z M 65.871094 101.03125 "/>
</g>
</svg>
