<svg xmlns="http://www.w3.org/2000/svg" xml:space="preserve" width="128" height="128" viewBox="0 0 33.867 33.867"><path d="M17.516 31.288c-.195-.034-.636-.21-.98-.391l-.627-.33-1.005.02c-.92.018-1.739-.066-2.126-.218-1.22-.482-2.086-1.177-2.789-2.24-.814-1.23-.96-1.31-2.438-1.31-.771 0-1.213-.036-1.504-.122-2.003-.592-3.331-2.688-2.932-4.627.204-.993 1.001-2.33 1.83-3.067.585-.52 1.503-1.143 2.046-1.386.225-.101.434-.225.465-.275.034-.055-.14-.292-.443-.606-.788-.815-1.205-1.532-1.506-2.596-.25-.877-.246-2.551.007-3.507.333-1.262 1.146-2.651 2.03-3.47a109 109 0 0 1 2.549-2.175c.885-.722 2.682-1.683 3.901-2.087.913-.302 1.895-.429 3.079-.397 1.612.044 2.626.45 3.691 1.476a5.66 5.66 0 0 1 1.512 2.53c.142.505.484 1.271.569 1.271.08 0 .689.61 1.002 1.003.646.81 1.095 2.17 1.183 3.583.024.382.075.734.113.784.039.049.248.132.465.184 2.225.53 3.798 1.886 4.749 4.091.406.941.503 1.54.454 2.798-.03.804-.078 1.125-.233 1.591-.417 1.252-.694 1.707-1.724 2.828-.677.737-.758.889-1.033 1.945-.228.871-.612 1.713-1.022 2.239-.552.707-1.667 1.357-2.703 1.577-.487.103-.825.117-1.788.074l-1.186-.053-.752.393c-1.007.527-1.779.654-2.854.47m1.826-.742c.512-.168.674-.345.554-.61-.068-.152-.128-.188-.259-.155-.093.023-.126.022-.073-.003q.096-.046-.4-.58a10 10 0 0 1-.844-1.064c-.407-.62-.789-1.668-.79-2.168 0-.194-.037-.547-.08-.786-.07-.377-.197-.702-.806-2.047l-.26-.578-.144-.322-.006.655a9 9 0 0 1-.114 1.272c-.33 1.864-.358 2.142-.267 2.666.176 1.002.67 1.743 1.443 2.161.658.356 1.04.604.934.605-.075.001-.072.051.015.222l.113.22-.852-.362c-1.002-.425-1.563-.908-1.901-1.635-.467-1.002-.52-1.981-.185-3.415.124-.534.161-.941.162-1.772 0-.97-.02-1.144-.208-1.715-.192-.586-.662-1.406-1.065-1.858-.364-.407-1.52-1.092-2.234-1.324-1.485-.483-2.473-.472-4.04.042-1.323.435-2.319 1.132-3.163 2.216-1.056 1.353-1.301 2.285-.918 3.486.192.602.335.827.992 1.565.685.767 1.653.993 3.324.776.945-.123 1.921.06 2.555.48.598.397 1.307 1.16 1.307 1.406 0 .275-.168.22-.59-.197a4 4 0 0 0-.842-.597l-.481-.243.248.473c.246.467.935 1.32 1.241 1.536.087.06.176.134.196.162.056.076.503.3.864.434a5.1 5.1 0 0 0 1.685.326l.59.018-.315-.363c-.174-.2-.315-.393-.315-.43s-.056-.066-.124-.066c-.1 0-.106.021-.028.116.052.063.066.115.032.115-.035 0-.024.04.022.087a.24.24 0 0 1 .048.212c-.03.1-.02.097.049-.011.099-.157.193-.12.308.121.08.166.079.167-.042.015s-.124-.152-.231-.005c-.103.14-.111.136-.157-.097-.027-.135-.093-.245-.148-.245a.2.2 0 0 1-.155-.09q-.056-.09.071-.04c.118.045.118.034-.001-.161-.07-.115-.084-.17-.029-.12.11.101.332.05.265-.06a.08.08 0 0 0-.113-.027c-.038.024-.047-.015-.02-.087.03-.08-.001-.168-.082-.228-.072-.054-.127-.119-.12-.144a1.1 1.1 0 0 0-.036-.261c-.05-.228-.495-.536-.642-.443-.048.03-.065.007-.042-.055.024-.063-.039-.143-.156-.197-.237-.11-.288-.114-.23-.019.023.04.01.093-.03.118s-.061-.018-.047-.095c.016-.083-.056-.208-.175-.304-.11-.09-.431-.386-.712-.658-.56-.545-1.148-.894-1.846-1.099-.383-.112-.595-.123-1.33-.07-1.478.11-2.117.082-2.526-.105-.649-.297-1.018-.633-1.289-1.173-.23-.457-.251-.562-.251-1.195 0-.655.017-.727.304-1.31.35-.708 1.15-1.586 1.9-2.083.96-.637 2.649-1.098 3.648-.996 1.262.128 2.156.525 2.973 1.322 1.03 1.003 1.344 1.754 1.335 3.186a9 9 0 0 1-.12 1.388c-.313 1.58-.339 2.646-.084 3.515.171.585.78 1.477 1.26 1.849 1.16.896 2.466 1.235 3.48.903m-.35-.653c-.136-.04-.247-.089-.247-.108 0-.07.464.018.55.105.102.103.04.104-.303.003m-5.606-1.072c-.024-.037-.092-.05-.152-.026s-.2-.03-.312-.119l-.202-.161h.185c.102 0 .226.041.276.092.071.072.093.068.096-.02.003-.06.037-.03.077.07.045.115.113.166.183.139.06-.024.126-.017.146.014.02.032-.03.063-.11.07-.08.005-.164-.02-.187-.059m.277-.155-.18-.151h.174c.095 0 .15.022.123.05-.028.028-.012.098.034.155.12.145.06.124-.15-.054m-.543-.3c0-.04.034-.095.076-.12.043-.028.055.003.03.072-.051.133-.106.158-.106.047m.272-.23c.017-.017-.002-.072-.043-.122q-.077-.092.035-.09c.06 0 .094.026.075.057s.059.093.174.135l.21.076-.241-.012c-.132-.007-.227-.026-.21-.044m3.82-.18c-.25-.27-.747-1.241-.747-1.458 0-.21.117-.228.283-.043.194.216.587 1.11.573 1.302-.007.087.022.124.072.092q.077-.046.027.04c-.031.051-.015.143.036.205.179.219-.015.109-.244-.138m-3.544-.027c-.053-.06-.064-.108-.023-.108.079 0 .193.147.148.19-.015.014-.07-.023-.125-.082m-.657-.394c-.04-.11-.032-.118.043-.043.052.052.075.115.052.138-.024.024-.066-.019-.095-.095m3.62-2.141c-.086-.191-.052-.425.062-.425.08 0 .152.203.152.43 0 .242-.104.239-.214-.005m6.785 4.426c.624-.088 1.41-.356 1.916-.655.784-.462 1.472-1.575 1.846-2.986.263-.99.467-1.365 1.087-2.003 1.84-1.893 2.351-4.164 1.44-6.402-.723-1.775-1.965-2.97-3.702-3.56-.474-.162-.818-.218-1.57-.256-.529-.027-.945-.023-.926.009.02.032-.036.058-.124.058-.292 0-1.098.315-1.625.635-.606.368-1.302 1.141-1.64 1.821-.333.669-.491 1.576-.439 2.516.044.783.093.973.734 2.82.333.963.423 1.689.315 2.544-.148 1.17-.47 1.83-1.166 2.39-.22.177-.393.345-.385.374s-.057.05-.144.047-.175.042-.195.101q-.037.108.06.046.097-.059.045.026c-.086.142.097.399.284.399.274 0 .833-.406 1.218-.886.75-.934 1.17-2.274 1.088-3.469-.03-.442-.16-.997-.46-1.965-.467-1.512-.581-2.051-.577-2.731.007-1.326.456-2.485 1.201-3.1.84-.694 1.582-.919 2.786-.845 1.54.095 2.19.383 3.24 1.434.644.644.775.822 1.077 1.465.432.923.496 1.165.556 2.118.088 1.391-.308 2.394-1.432 3.624-.95 1.04-1.176 1.419-1.396 2.333-.233.967-.709 1.936-1.14 2.321-.41.365-1.143.766-1.655.904-.8.216-1.665.103-2.518-.33-.557-.284-.833-.376-.758-.252.025.04.009.073-.036.073a.08.08 0 0 1-.08-.083c0-.045-.051-.03-.114.033-.063.064-.113.162-.113.218.001.075.02.071.075-.014.065-.103.074-.103.076 0s.01.103.076 0c.052-.081.074-.086.075-.017 0 .054-.076.13-.17.169-.094.038-.134.071-.089.074s.083.059.083.124c0 .068-.052.108-.12.093-.067-.014-.116-.085-.11-.157.005-.073-.02-.132-.057-.132-.177 0-.021.312.27.54.13.102.14.102.089 0-.044-.089-.034-.087.042.007.135.165.484.27 1.393.42a66 66 0 0 1 1.04.18c.028.005.311-.028.63-.072m-3.075-.922c0-.041.051-.075.114-.075s.114.014.114.03c0 .017-.051.05-.114.075s-.114.01-.114-.03m.304-.002c0-.045.034-.06.076-.034s.076.062.076.081-.034.034-.076.034-.076-.037-.076-.081m-.632-.4c.005-.096-.007-.133-.027-.082-.019.05-.084.073-.144.05-.06-.024-.109-.002-.109.047 0 .05.034.068.076.042s.076-.01.076.034c0 .163.12.077.128-.092m3.663-.164c.472-.142 1.125-.546 1.44-.89.347-.378.535-.821.772-1.818.24-1.008.448-1.368 1.418-2.454.919-1.027 1.064-1.238 1.28-1.862.328-.941.223-2.296-.25-3.246-.703-1.41-1.89-2.394-3.206-2.656-.738-.147-1.806-.06-2.31.19-.553.275-1.371 1.07-1.317 1.28.025.098.01.136-.041.104s-.065.01-.038.116c.024.091.012.146-.026.123-.038-.024-.069-.027-.069-.007a1 1 0 0 1-.05.172c-.032.081-.022.115.025.086.041-.026.076.001.076.06 0 .06-.037.102-.083.094-.045-.009-.082.054-.082.139 0 .084-.034.18-.076.21-.046.035-.037.058.024.058.054 0 .08.034.055.073-.024.04-.008.094.036.122.043.027.07.008.058-.043a.1.1 0 0 1 .076-.116c.053-.013.062-.005.019.016-.044.022-.06.072-.036.11.024.04-.013.094-.081.12-.1.04-.105.062-.024.114q.099.065.012.067c-.054 0-.088.137-.088.354 0 .399.007.402.125.049.065-.196.063-.243-.008-.206-.05.025-.032-.003.041-.064.073-.06.133-.148.133-.193s.043-.128.095-.184.189-.24.303-.41c.429-.636.835-1.003 1.516-1.37.453-.245.722-.312.791-.199q.056.091-.052.024c-.084-.05-.082-.034.007.079.106.133.102.14-.057.099-.094-.025-.154-.016-.132.018.02.035-.142.175-.361.312a6 6 0 0 0-.666.482c-.307.27-.774.938-.705 1.008.025.026 0 .048-.055.048-.056 0-.079.022-.052.05s-.01.1-.082.16-.09.088-.037.06c.052-.026.095-.011.095.034 0 .044-.028.081-.063.081s-.107.082-.16.183c-.082.155-.076.206.036.34.132.156.134.156.35-.085.12-.132.214-.277.211-.32-.003-.044-.022-.038-.043.013-.059.147-.255.023-.249-.158.003-.091.023-.122.044-.07.058.146.367.116.569-.054.098-.084.145-.154.103-.156s0-.046.092-.099c.092-.052.416-.25.72-.442.775-.487 1.605-.859 1.671-.75.07.114-.064.36-.227.42-.242.09-1.42.787-1.627.963-.114.097-.296.24-.403.318-.168.121-.181.16-.097.27.087.112.084.116-.021.033-.1-.079-.147-.066-.27.077-.225.258-.57.827-.504.829.032 0 .013.03-.042.065a.3.3 0 0 0-.117.184.6.6 0 0 1-.113.236c-.123.15-.039.194.294.151.204-.026.302-.093.407-.278.076-.134.134-.254.128-.266-.013-.03.427-.44.831-.774a9 9 0 0 0 .38-.325c.076-.084.532-.392.532-.359 0 .019.334-.082.741-.225.408-.142.887-.26 1.065-.26.306 0 .319.008.228.156-.054.09-.291.22-.552.304-1.499.483-1.833.675-2.672 1.536-.43.442-.502.59-.254.525.084-.022.133-.01.11.03-.024.038-.126.07-.228.07-.135 0-.186.041-.186.153 0 .085-.043.146-.095.135s-.089.017-.08.062c.007.045-.082.075-.198.066-.184-.013-.206.009-.176.17q.044.24.337.194c.03-.005.034.046.009.113-.03.08-.109.11-.226.087-.24-.046-.225-.014.056.129.203.102.23.103.193.006q-.046-.116.115-.114c.157 0 .502-.362.462-.486-.011-.036.015-.042.06-.015.097.061.617-.385.545-.467-.029-.032-.013-.036.034-.009.048.028.172-.018.276-.101.333-.266 1.446-.772 1.697-.772.34 0 .39.192.083.31-.913.346-2.408 1.47-2.408 1.809 0 .055-.053.12-.119.146-.065.026-.1.078-.076.116.023.038-.009.09-.071.114-.066.026-.114.142-.114.278 0 .128-.036.233-.08.233s-.06-.034-.034-.077.01-.077-.033-.077c-.045 0-.08.034-.08.075 0 .09.264.243.331.192.027-.02.03-.011.008.018-.07.094-.296.095-.353.002-.03-.05-.082-.06-.116-.023-.033.036-.018.081.035.1.052.02.077.064.055.1s0 .09.05.12q.09.057.026-.045-.068-.108.055-.057c.124.048.704-.486.632-.583q-.032-.046.008-.017c.026.02.24-.139.475-.352.529-.479 1.16-.79 1.925-.95.673-.14.945-.152 1.008-.048.025.041.104.053.176.027s.108-.022.08.009a.3.3 0 0 1-.152.074c-.056.01-.17.054-.254.1a3 3 0 0 1-.57.179c-.8.185-2.203 1.037-2.077 1.261.027.049.021.062-.014.03-.084-.078-.426.251-.365.351.026.043.012.055-.031.028-.044-.027-.12 0-.168.058q-.09.109-.009.158c.044.028.08.014.08-.031s.029-.082.064-.082c.034 0 .063.049.063.109 0 .065-.058.097-.143.08-.188-.036-.342.028-.394.166-.035.09-.011.096.127.028.152-.075.156-.072.037.025-.072.06-.106.136-.076.17.031.035.014.039-.038.008-.052-.03-.155-.016-.228.032-.127.083-.127.085 0 .045.092-.029.132 0 .132.097 0 .077.021.16.047.187.082.083.714-.38.712-.52 0-.044-.037-.028-.082.035-.071.103-.077.103-.046 0 .019-.063.072-.107.119-.096.046.01.264-.098.484-.24.618-.4 1.195-.677 1.289-.618.049.03.064.019.036-.027-.061-.1.136-.186.289-.126.085.033.058.088-.113.234-.125.106-.263.166-.313.135-.053-.034-.069-.023-.039.027.03.048-.214.272-.577.53-.55.391-.787.59-1.435 1.203-.079.074-.18.135-.227.135-.046 0-.064.053-.039.12s.013.099-.03.072c-.073-.046-.745.375-.852.535-.03.045-.037.141-.015.214.055.18-.103.465-.219.395-.05-.03-.04.01.023.09.104.13.102.14-.019.093q-.134-.052-.133.068c0 .064.036.095.08.068.043-.028.135-.004.204.053.096.078.111.08.067.004-.044-.073-.008-.09.137-.063.108.02.196.002.196-.04s.034-.056.076-.03.076.008.076-.042c0-.049-.049-.07-.109-.047s-.126.001-.146-.05c-.02-.05-.04-.032-.043.04-.004.086-.047.117-.12.09-.062-.025-.088-.085-.058-.133a.5.5 0 0 0 .056-.203c.001-.063.065-.127.142-.142.102-.02.132.011.113.115-.018.089.04.177.153.238.219.116.264.12.203.02-.026-.042 0-.058.056-.036.112.043.862-.334 1.25-.629.24-.183.555-.247.555-.113 0 .15-.892.868-1.416 1.142-.301.157-.537.304-.524.327.014.022-.102.048-.258.057-.313.018-.718.2-.634.284.03.03-.002.033-.07.006-.067-.026-.145-.01-.173.035s-.012.082.035.082.06.042.028.094q-.057.093-.156-.135c-.097-.226-.098-.226-.078-.025a.7.7 0 0 0 .118.321c.083.101.073.112-.063.076-.087-.023-.142-.06-.12-.081.02-.021.003-.105-.04-.185-.07-.133-.087-.135-.197-.023-.098.099-.102.14-.023.214.077.072.085.067.037-.025-.033-.063.014-.038.105.057.09.095.258.194.372.219s.286.07.383.099c.33.099 1.015.09 1.373-.018zm-.993-.795c.055-.022.12-.02.146.006s-.02.044-.1.04c-.089-.003-.107-.021-.046-.046m.318-1.18a.08.08 0 0 1 .08-.077c.045 0 .06.034.034.077s-.062.077-.08.077-.034-.035-.034-.077m-.494-.309c-.026-.042-.005-.077.046-.077.052 0 .071-.023.044-.05-.062-.063.09-.258.2-.258.045 0 .015.051-.066.114-.146.114-.146.115.004.095.245-.033.36-.133.274-.238-.054-.066-.035-.092.067-.092.078 0 .125.029.103.064-.021.035.007.123.063.195.089.116.087.12-.02.036-.1-.079-.15-.062-.298.097-.187.201-.338.243-.417.114m.798-1.721c0-.057.051-.103.113-.103.085 0 .092.025.029.103-.047.056-.097.103-.113.103s-.029-.047-.029-.103m-.124-1.63c-.025-.068-.025-.145 0-.172.027-.026.049.019.05.1 0 .123.013.129.074.032.045-.07.074-.079.075-.024.002.15-.148.198-.199.064m.49-.247c.055-.022.12-.02.146.006s-.02.044-.1.04c-.089-.003-.107-.021-.046-.046m.309-.294a2 2 0 0 1-.02-.135c-.007-.053-.08-.086-.162-.074-.123.019-.13.009-.037-.054.126-.086.247-.004.274.185.015.105-.032.172-.055.078m-1.283-.53c0-.016.048-.07.107-.12.083-.069.12-.068.164.003q.053.09-.031.038c-.048-.03-.088-.019-.088.026s-.034.082-.076.082-.076-.013-.076-.03m-.38-.155c0-.016.069-.047.152-.07.084-.022.152-.008.152.03s-.068.07-.152.07-.152-.013-.152-.03m.588-.442c.052-.053.113-.077.136-.053s-.019.067-.094.096c-.108.042-.117.033-.042-.043m-.804-.607c.153-.21.367-.34.254-.154-.026.042-.01.077.034.077s.08-.03.08-.065.056-.064.124-.064c.107 0 .104.015-.017.105-.077.057-.193.086-.257.064-.067-.024-.052.01.036.08.147.116.145.118-.057.082-.115-.021-.209-.006-.209.034s-.035.072-.078.072-.002-.104.09-.231m1.032.067c.052-.052.113-.076.136-.052.024.023-.019.066-.093.095-.109.042-.118.033-.043-.043m.671-.045c-.041-.11-.032-.118.043-.043.052.052.075.115.052.138-.024.024-.066-.019-.095-.095m-1.208-.382a.2.2 0 0 1-.05-.131c0-.048.035-.044.09.012.049.05.071.109.05.13-.022.023-.062.017-.09-.01m-.279-.107c0-.045.034-.06.076-.034s.076.063.076.081c0 .02-.034.034-.076.034s-.076-.036-.076-.081m.302-.153c-.094-.06-.09-.072.021-.073q.173.001.146-.239c-.002-.024.042-.045.099-.045.082 0 .078.041-.02.2-.067.11-.125.205-.128.214-.003.008-.057-.017-.118-.057m.458-.395c0-.05.022-.067.05-.04.027.028.097-.01.156-.083.096-.12.098-.116.024.04-.088.183-.23.234-.23.083m-1.116-.257c-.141-.155.046-.374.21-.247.11.085.11.104 0 .22-.097.103-.137.108-.21.027m.166-.116c.026-.042.01-.077-.033-.077a.08.08 0 0 0-.08.077c0 .043.014.077.033.077.018 0 .054-.034.08-.077m.342-.46c0-.043.054-.08.119-.08.07 0 .096-.035.064-.088-.034-.055-.02-.068.033-.034.121.076.112.105-.064.2q-.153.084-.152.003m3.172-1.63c.052-.053.113-.077.136-.053s-.018.067-.093.096c-.109.042-.117.033-.043-.043m-5.336 11.2c-.023-.024-.085 0-.136.053-.075.076-.066.085.042.043.075-.029.117-.072.094-.096m1.661-1.29c.026-.069.013-.1-.03-.073-.041.026-.075.08-.075.12 0 .11.055.086.105-.047m-.076-.309c.026-.068.013-.1-.03-.072-.041.026-.075.08-.075.12 0 .11.055.086.105-.048m-3.176-.2q.05-.084-.033-.034c-.049.03-.088.012-.088-.04s-.02-.073-.046-.048c-.043.044.023.21.084.21.016 0 .053-.04.083-.088m3.983.012a.077.077 0 0 0-.076-.078.077.077 0 0 0-.076.078c0 .042.034.077.076.077a.077.077 0 0 0 .076-.077m-3.766-.257c-.123-.041-.25-.113-.28-.16q-.056-.085-.057.02c0 .056.067.12.15.143.084.022.153.07.153.106s.058.043.13.015c.102-.04.083-.065-.096-.124m.48-.156c.053-.033.076-.094.052-.134-.025-.04-.004-.064.047-.053.237.055.68-1.23.678-1.962-.002-.514-.155-1.25-.414-1.988-.343-.977-.649-2.092-.653-2.381l-.003-.276-.184.347c-.1.19-.285.607-.41.925-.267.686-.636 1.53-.866 1.984-.128.25-.147.359-.085.462.045.075.161.42.259.765.132.47.222.654.353.725.096.052.155.126.132.165s-.09.007-.147-.07c-.126-.168-.136-.106-.03.177.06.16.1.189.167.12.049-.049.124-.088.168-.087s.02.038-.055.082c-.074.044-.115.112-.09.151.024.04-.015.049-.088.02q-.128-.048-.078.035c.028.047.117.08.197.074s.13-.035.113-.064.01-.07.063-.09.172-.193.266-.383c.21-.427.29-1.3.18-1.97q-.15-.913.15-.524c.214.276.32.92.275 1.662-.034.555-.085.749-.321 1.236-.154.318-.313.59-.353.605s-.033.074.019.137c.072.088.066.1-.028.064-.064-.025-.139-.009-.166.036-.03.05-.004.063.068.035q.119-.046.118.093c0 .13.007.13.105-.008.059-.08.089-.191.068-.247q-.04-.104.097-.048t.08-.037c-.03-.05-.019-.09.025-.09.112 0 .101.122-.02.246-.157.158-.125.346.057.336a.6.6 0 0 0 .254-.07m-1.344-1.799c-.01-.158.124-.182.232-.042.093.12.09.123-.022.034-.102-.08-.133-.08-.165 0q-.04.103-.045.008m.222-.207c0-.016.06-.077.133-.135.12-.096.123-.093.029.03-.1.128-.162.169-.162.105m-.02-.366c.051-.052.112-.076.136-.052.023.023-.019.066-.094.095-.108.042-.117.033-.042-.043m-.03-.39c.013-.14-.01-.307-.05-.37-.04-.064.037-.001.17.14.266.282.272.424.02.462-.145.021-.162-.007-.14-.231m.127-1.16.001-.251.1.192c.105.2.094.309-.03.309-.04 0-.072-.113-.071-.25m-5.653 3.217c-.062-.064-.137-.116-.167-.116s-.01.052.042.116.127.116.167.116.021-.052-.042-.116m1.015-.03c0-.11-.217-.165-.275-.07q-.043.077.03.034c.046-.029.104-.017.13.026.06.097.115.102.115.01m-2.25-.403c-.159-.164-.317-.3-.352-.3-.036 0-.155-.085-.266-.189-.277-.26-1.05-.636-1.52-.738-.483-.105-1.72-.132-2.376-.053-.284.035-.452.032-.395-.007.054-.037.089-.113.076-.169-.058-.254 1.555-.444 2.569-.302.423.059.778.172 1.202.382.33.165.635.278.676.252s.054-.011.027.033.068.16.21.26c.143.099.24.212.216.252s-.004.047.044.017c.05-.031.108-.002.134.065.025.066.078.12.118.12s.053-.03.03-.068.012-.09.077-.115c.09-.036.107-.01.07.107-.028.091-.013.154.038.154.047 0 .064-.035.038-.077-.025-.043.007-.077.072-.077s.119-.044.12-.097q0-.096.073.02c.052.083.036.13-.058.167s-.07.054.088.058c.195.005.208-.008.117-.13-.255-.341-.48-.548-.549-.505-.042.026-.055.014-.03-.028.066-.109-.168-.424-.268-.361-.046.029-.06.016-.033-.029.09-.149-.15-.271-.344-.176-.168.083-.17.082-.027-.033.144-.118.141-.127-.114-.348-.145-.125-.292-.23-.327-.23-.035-.003-.155-.068-.266-.147-.582-.413-1.766-.722-2.786-.726-.334-.002-.55-.017-.48-.034.072-.018.112-.078.09-.135-.06-.159.629-.276 1.318-.226.55.041 1.246.22 1.694.436.306.147 1.14.758 1.14.835 0 .038.054.07.119.07.07 0 .096.036.064.09q-.058.09.11.045c.09-.024.146-.015.125.02-.02.034.067.152.196.262s.206.2.171.2c-.071.002.139.15.215.153.027 0 .124-.112.216-.25s.146-.187.121-.109q-.043.138.048.11c.05-.017.093-.15.095-.295.002-.202-.038-.283-.169-.34-.094-.042-.17-.105-.17-.14s.039-.039.087-.008c.053.033.067.02.036-.031-.085-.139-.267-.018-.234.155.035.188.11.284.11.141 0-.08.023-.08.114-.003.063.053.114.13.114.173 0 .047-.04.044-.102-.009-.056-.047-.123-.064-.15-.037s-.07-.008-.096-.077c-.026-.07-.078-.107-.116-.084-.037.024-.068.006-.068-.039 0-.044.029-.081.064-.081s.063-.054.063-.12c0-.069-.044-.101-.105-.077-.062.024-.085.007-.056-.04.027-.045.096-.064.154-.042.057.023.127.002.156-.045s.02-.065-.02-.04c-.039.024-.15-.074-.248-.219-.098-.144-.213-.24-.256-.213s-.057.012-.029-.034c.123-.202-1.197-.882-1.897-.977-.338-.046-.678-.223-.677-.351.003-.266 1.582.013 2.188.386.129.08.268.124.309.099.04-.026.05-.007.02.042-.05.081.045.125.207.097.034-.007.04.024.014.068-.077.127.178.183.323.072.113-.086.118-.085.037.006-.113.13-.126.26-.019.193.042-.026.076.001.076.06 0 .06.086.148.19.196s.19.135.19.193.06.157.133.22c.116.1.158.102.323.007l.19-.11-.209.034c-.115.019-.209.002-.209-.037 0-.04-.042-.045-.095-.013q-.096.06.01-.073.102-.129.019-.13c-.047 0-.083-.06-.08-.135.004-.081.022-.096.045-.038.021.053.068.078.104.056.036-.023.052.029.036.115-.023.122.01.156.156.156.23 0 .243-.174.023-.321-.124-.084-.149-.152-.105-.29.043-.14.071-.156.123-.073a.44.44 0 0 1 .066.183c0 .043-.033.025-.074-.038-.062-.098-.073-.093-.074.027-.001.114.037.134.184.096.102-.026.206-.012.232.03.028.045-.007.055-.085.025-.106-.041-.12-.023-.07.097a.8.8 0 0 1 .056.283c-.003.078.05.135.123.134.11 0 .113-.011.014-.076-.098-.064-.096-.075.013-.076.07 0 .144.042.165.095.023.058.04.042.045-.038.003-.074-.044-.135-.104-.135a.21.21 0 0 1-.164-.09q-.056-.09.1-.047c.124.032.147.01.115-.11-.021-.083-.085-.17-.142-.192s-.104-.106-.104-.186-.034-.146-.076-.146-.076-.05-.076-.11c0-.062-.03-.131-.068-.155s-.051.027-.03.112c.032.122.013.145-.089.105-.071-.028-.1-.071-.066-.097.143-.106.091-.312-.125-.497-.126-.107-.23-.231-.23-.275 0-.106-.27-.248-.338-.178-.03.03-.043.005-.029-.056.037-.16-1.048-.69-1.6-.78-.666-.109-1.863-.035-2.403.149-1.112.378-1.597.667-2.305 1.374-.843.842-1.175 1.441-1.184 2.142-.012.81.456 1.527 1.175 1.8.379.144 1.167.171 1.804.062.838-.142 2.167-.118 2.543.048.157.069.285.108.285.086 0-.021.146.064.323.189.432.304.52.22.163-.15zm.235-.61c-.025-.04-.018-.075.016-.076.034 0 .015-.03-.042-.067-.072-.046-.077-.082-.019-.12.046-.028.084-.017.084.025s.069.064.152.048c.194-.038.196.05.004.172-.094.06-.166.066-.195.019m-.417-.722c0-.016.053-.05.118-.076.068-.026.098-.013.072.03-.045.074-.19.109-.19.046m1.14-.192c0-.038.05-.088.11-.112q.111-.044.068.069c-.046.122-.178.154-.178.043m-.608-.63c0-.044.035-.06.076-.034.042.027.076.063.076.082s-.034.034-.076.034-.076-.037-.076-.082m.152-.268c0-.01.046-.055.102-.102.075-.063.101-.06.101.016a.1.1 0 0 1-.101.102c-.056 0-.102-.007-.102-.016m1.482-.652c-.025-.042-.01-.077.034-.077a.08.08 0 0 1 .08.077c0 .042-.015.077-.033.077s-.055-.035-.08-.077m-.532-.231c.026-.043.062-.077.08-.077.02 0 .034.034.034.077a.08.08 0 0 1-.08.077c-.044 0-.06-.035-.034-.077m.056-.4c.011-.055-.037-.102-.107-.102s-.156-.032-.19-.07q-.05-.06.026-.018c.049.028.1.014.116-.032.015-.048.086-.018.163.069q.136.153.054.204c-.047.029-.074.007-.062-.05m-.544-.185c.004-.09.022-.108.046-.046.022.055.02.122-.006.147-.025.026-.043-.02-.04-.1m.602-.109c-.1-.066-.1-.075 0-.077.092-.002.094-.015.013-.067-.084-.054-.083-.073.004-.107q.106-.042.105.144c0 .101-.002.184-.004.183-.002 0-.055-.035-.118-.076m-.532-.261c0-.017.053-.051.118-.077.068-.026.098-.013.072.03-.045.074-.19.11-.19.047m-.76-.12c0-.04.034-.093.075-.12.044-.026.056.005.03.073-.05.134-.105.158-.105.047m1.09-.27c0-.062.029-.095.064-.072.036.022.045.072.021.112-.061.1-.085.09-.085-.04m9.907 4.791a2 2 0 0 1 .326-.308c.103-.073.144-.132.09-.132s-.076-.035-.05-.077c.026-.043-.01-.077-.08-.077-.08 0-.11.041-.083.113.023.062.005.137-.042.166q-.083.05-.023-.048.06-.1-.026-.046c-.048.03-.088.022-.088-.018s-.084-.089-.188-.109c-.103-.02-.17-.006-.147.03.022.036.085.066.14.066.16 0 .272.182.192.31q-.07.116-.072.017-.002-.095-.14.039c-.138.132-.144.25-.014.25.036 0 .128-.079.205-.176m-10.069-.05c.116-.137.117-.157.003-.25-.073-.06-.102-.065-.071-.012.084.142-.023.329-.163.284-.109-.036-.11-.03-.013.042l.116.084c.002 0 .06-.066.128-.148m.744-.116c0-.019-.034-.055-.076-.082-.041-.026-.076-.01-.076.034s.035.082.076.082c.042 0 .076-.015.076-.034m.238-.135c-.034-.094-.11-.183-.169-.199q-.104-.027-.025.035a.5.5 0 0 1 .13.198c.028.074.067.135.088.135s.01-.076-.024-.17m-1.264.015c.026-.042-.008-.077-.076-.077-.067 0-.101.035-.076.077s.06.077.076.077.05-.035.076-.077m.773-.265c-.023-.06-.001-.127.049-.148s.03-.04-.043-.043c-.073-.004-.133.008-.133.026 0 .074.096.276.13.276.022 0 .02-.05-.003-.11m-.224-.27c-.058-.227.11-.24.336-.027q.2.187.253.104c.028-.047.024-.08-.01-.074-.157.027-.206-.017-.102-.093.098-.071.096-.077-.013-.042a.22.22 0 0 1-.218-.069c-.05-.06-.117-.093-.15-.072-.034.02-.114.017-.178-.008-.089-.034-.096-.069-.032-.14.099-.106.388-.148.326-.047-.023.037-.008.088.032.113.041.026.06-.025.042-.117-.022-.12 0-.152.084-.119q.117.046.056-.05a.4.4 0 0 1-.061-.172c-.001-.042-.061-.088-.135-.102-.073-.014-.133.015-.133.066 0 .054-.063.075-.155.05-.128-.034-.146-.014-.106.117.03.095.01.184-.053.226-.085.057-.082.086.018.164.128.1.144.137.144.326 0 .063.022.116.047.116s.03-.068.008-.15m-.055-.656c0-.06.227-.108.259-.055.02.032-.031.063-.112.069-.08.006-.147 0-.147-.014m.988-.435c-.086-.062-.09-.091-.018-.12.052-.022.075-.074.05-.116-.026-.041.025-.094.113-.118s.159-.099.158-.168q0-.13-.059-.034c-.062.1-.22.097-.385-.007-.086-.055-.086-.077 0-.138q.106-.074-.087-.02c-.104.03-.199.062-.21.072-.048.041.081.271.152.271.044 0 .037-.049-.018-.116-.052-.064-.06-.115-.018-.115.152 0 .249.197.15.306-.075.081-.072.09.014.04.082-.048.096-.03.057.072-.06.157-.005.276.125.274.056 0 .047-.032-.024-.083m.285-.165c.01-.136-.003-.148-.059-.058-.088.141-.093.23-.014.23.033 0 .066-.077.073-.172m8.177-.401c.049.025.029-.005-.045-.066-.078-.065-.115-.164-.088-.235.026-.068-.008-.18-.074-.247-.11-.11-.122-.111-.122-.002 0 .067.029.121.063.121.035 0 .063.061.063.135s.01.24.023.366c.02.195.03.204.057.057.02-.102.07-.156.123-.13m-8.207-.145c.027.028.05-.013.05-.091s-.02-.121-.044-.097-.144.015-.266-.02c-.128-.038-.223-.036-.223.004 0 .038-.056.047-.126.02q-.124-.047-.074.037c.029.048.152.074.274.058.18-.023.212-.005.174.1-.04.108-.029.113.068.034.064-.053.139-.073.167-.045m3.044-.56c.025-.068.024-.16-.004-.205-.028-.046-.014-.06.032-.03.173.108.27-.532.28-1.84.008-1.28.014-1.324.246-1.907.253-.633.486-.991 1.776-2.72.988-1.327 1.339-1.92 1.744-2.958.492-1.262.633-1.959.632-3.128 0-1.172-.15-1.856-.63-2.872-.36-.764-.721-1.222-1.33-1.69-.978-.748-1.897-1.029-3.407-1.04-2.296-.019-4.69.962-6.438 2.634-.272.26-.75.667-1.064.904-.739.559-1.582 1.418-1.923 1.958-.292.463-.742 1.568-.949 2.329-.156.575-.17 1.83-.026 2.44.15.637.79 1.913 1.188 2.37.196.224.561.52.822.665.432.24.51.258.964.223.272-.02.521-.063.555-.094.033-.031-.2-.172-.52-.313-1.47-.65-2.239-2.047-2.239-4.065 0-.984.175-1.794.535-2.48.38-.722 1.17-1.674 1.721-2.072.275-.199.898-.723 1.383-1.164.95-.864 1.453-1.225 2.035-1.462.202-.082.577-.239.832-.347a8 8 0 0 1 2.88-.64c1.188-.05 1.712.035 2.433.395 1.14.57 2.045 1.764 2.25 2.972.083.488.102 2.145.031 2.59-.231 1.443-1.012 3.113-2.05 4.386-.965 1.181-1.794 2.483-2.067 3.247-.16.444-.178.63-.178 1.732 0 1.237.081 1.84.27 2 .055.046.082.134.06.194-.024.06-.008.11.034.11.041 0 .096-.055.122-.122m-9.531-.148c0-.063-.013-.115-.03-.115-.016 0-.05.052-.074.115-.024.064-.01.116.03.116s.074-.052.074-.116m14.455-.286c-.054-.055-.09-.06-.09-.012 0 .044.023.103.05.131.029.029.07.034.09.012.022-.022 0-.08-.05-.131m-.014-.253c0-.064-.028-.116-.063-.116s-.064.052-.064.116c0 .063.029.116.064.116s.063-.052.063-.116m.304-.036c0-.041-.051-.055-.114-.03-.063.024-.114.057-.114.074s.051.03.114.03.114-.033.114-.074m-.048-.194c.137-.105.136-.108-.019-.096-.088.006-.16.038-.16.07s-.06.039-.134.015c-.112-.037-.115-.03-.019.04.144.105.16.104.332-.029m-.408-1.307c0-.016-.068-.01-.152.012s-.152.072-.152.11c0 .04.068.035.152-.011.084-.045.152-.095.152-.111m-.076-.206c0-.043-.034-.056-.076-.03s-.076.083-.076.125.034.056.076.03.076-.083.076-.125m-3.447-.425c.076-.125.063-.146-.095-.155-.1-.007-.182.021-.182.062s.032.053.07.029c.04-.024.093-.01.12.034.025.043-.007.078-.072.078q-.118 0-.117.212c.001.206.004.207.095.048.052-.09.133-.229.181-.308m.12-.294c.095.096.443-.689.62-1.397l.19-.766-.293.347c-.417.492-.726 1.13-.614 1.268.061.074.063.121.006.157-.044.027-.063.08-.041.115.058.096-.042.316-.121.267a.16.16 0 0 1-.068-.12c0-.043.04-.052.089-.022q.09.056.041-.07c-.026-.069-.014-.146.026-.172a.09.09 0 0 0 .03-.12c-.073-.118-.163-.013-.215.251s.069.422.223.292c.047-.04.104-.053.127-.03m-.005-.197c0-.106.017-.15.038-.097a.3.3 0 0 1 0 .193c-.02.053-.038.01-.038-.096m-3.823-.026c.063-.077.059-.103-.016-.103-.055 0-.1.047-.1.103 0 .057.007.103.016.103a.5.5 0 0 0 .1-.103m-.071-.496c.102-.082.103-.094.006-.077-.063.012-.105-.026-.093-.084.04-.195-.07-.396-.217-.396-.08 0-.146-.037-.146-.082s.031-.062.07-.037c.14.087.16-.11.027-.251a.7.7 0 0 1-.16-.253.7.7 0 0 0-.133-.231c-.06-.067-.11-.154-.11-.193-.001-.039-.244-.348-.54-.687a6.17 6.17 0 0 0-2.918-1.898c-.48-.143-.872-.289-.873-.323 0-.034.034-.041.075-.015.043.027.056-.004.03-.073-.057-.15.026-.15.769-.006.644.125 1.683.615 2.275 1.073.198.154.391.26.429.236s.047.02.02.096c-.028.076-.024.115.008.087.031-.03.16.066.285.211.126.146.265.242.309.214s.059-.015.033.027c-.026.043.032.147.128.232s.303.368.46.629c.156.261.315.455.353.431s.048.011.023.077.018.216.094.332c.077.116.13.24.12.276-.01.035.05.082.135.105.084.022.132.075.107.116-.027.044.019.04.108-.008.125-.067.172-.268.088-.374a.4.4 0 0 1-.025-.116c-.006-.053-.081-.093-.168-.088-.21.01-.202-.172.02-.415.097-.106.177-.227.177-.268s-.068.007-.15.107-.15.15-.152.11c-.001-.04-.054-.005-.117.077-.11.145-.112.145-.063.002.036-.102.024-.13-.037-.092-.05.032-.09.012-.09-.045-.001-.074-.023-.07-.082.015-.072.103-.077.103-.05 0 .036-.134.217-.158.31-.041.038.047.05.016.032-.075a.34.34 0 0 1 .088-.274c.152-.15.478-.148.52.004q.026.107-.033.039c-.07-.086-.252-.14-.252-.074 0 .023.082.132.182.241.192.21.372.19.301-.035-.034-.108-.028-.112.037-.02.043.061.062.137.043.168-.018.03.001.078.043.105.043.026.078-.023.078-.11 0-.088.033-.16.073-.16s.052.058.025.129q-.045.125.035.076c.046-.029.1.009.12.084.02.074.031-.012.025-.192-.008-.212-.047-.327-.112-.328-.054 0-.08.032-.056.07.033.056-.086.062-.243.013-.01-.003.05-.075.133-.16.187-.19.197-.385.019-.386-.111-.001-.115-.013-.022-.073.095-.06.092-.092-.025-.223a.7.7 0 0 1-.157-.255 2 2 0 0 0-.077-.257l-.134-.366c-.043-.116-.108-.192-.144-.169-.037.023-.05-.004-.03-.059.069-.19-.857-1.568-1.419-2.11-.954-.923-1.564-1.282-2.933-1.724-.428-.138-.779-.287-.779-.33 0-.046.048-.039.113.017.092.077.123.07.163-.036.041-.109.11-.123.391-.08a3 3 0 0 1 .502.118c.089.036.4.14.693.23 1.23.382 2.092 1.162 3.416 3.092.123.18.237.285.254.235.016-.05.063-.07.103-.045.045.028.04.086-.013.151-.11.134-.018.291.135.231.097-.038.1-.025.021.072-.07.087-.072.117-.006.117.05 0 .072.03.05.066-.054.088.202.755.364.947.123.146.143.148.317.032.102-.068.187-.096.188-.064.001.033.039-.003.083-.08.044-.078.06-.162.036-.187-.025-.025-.045-.005-.045.044 0 .05-.036.09-.08.09s-.06-.035-.034-.077c.07-.115-.036-.396-.127-.339-.043.027-.062.13-.043.23.02.112.004.163-.044.133-.047-.03-.06 0-.032.072q.047.122-.078.102c-.068-.01-.137-.068-.153-.127-.023-.089-.015-.09.042-.007.052.074.102.008.184-.246.073-.225.088-.384.042-.45-.056-.078-.064-.074-.037.016.018.063-.035.185-.119.27-.123.124-.144.129-.107.024.025-.072.021-.144-.007-.161-.03-.017-.014-.022.034-.01.048.01.106-.051.129-.139.03-.117.076-.144.178-.101.15.062.245.069.594.045.222-.015.223-.017.049-.088-.113-.046-.163-.114-.136-.185.023-.062.01-.133-.03-.158-.072-.045-.095.025-.093.292 0 .114-.02.12-.119.038-.098-.08-.107-.078-.054.011q.066.11-.025.053c-.049-.031-.067-.092-.04-.136q.047-.08-.189-.027c-.205.045-.23.034-.186-.082.037-.099.024-.117-.05-.071q-.097.06-.05-.02c.027-.045-.004-.137-.07-.204-.11-.111-.108-.122.018-.124.13-.003.131-.007.006-.081-.073-.044-.134-.138-.134-.21-.001-.102-.016-.108-.066-.028-.048.076-.075.052-.101-.091-.02-.107-.009-.24.026-.296.058-.092.097-.034.075.11-.005.032.032.05.082.04s.095.015.098.057.055.164.114.27.116.244.126.307c.01.062.059.127.107.144q.095.029-.015.095-.1.065.143.049c.135-.01.264-.065.286-.122.031-.082.064-.085.148-.014.06.05.09.141.067.201q-.04.109.1.104c.077-.003.102-.022.054-.042s-.07-.104-.048-.187c.021-.082.005-.15-.037-.15s-.116-.161-.165-.358a3.3 3.3 0 0 0-.214-.598 2 2 0 0 1-.14-.323c-.008-.046-.104-.228-.214-.405-.11-.176-.18-.32-.155-.32s-.022-.095-.103-.212a5 5 0 0 1-.303-.52c-.364-.718-1.578-1.944-2.467-2.492-.366-.226-.665-.427-.665-.448 0-.02.034-.015.076.011s.076-.009.076-.077c0-.077-.036-.104-.095-.07-.071.04-.074.03-.01-.04.065-.072.167-.052.455.09.502.246 1.373.835 1.803 1.22.31.277 1.267 1.402 1.267 1.49 0 .019.176.34.391.714.216.375.485.901.6 1.17.113.27.228.455.254.412s.028-.13.004-.193-.007-.137.037-.165c.05-.03.065.003.04.089-.021.077.001.061.052-.035.12-.231.029-.31-.16-.137-.145.133-.148.132-.107-.046.022-.1.044-.225.048-.276.003-.05.035-.075.07-.053.11.07.069-.157-.117-.638-.195-.504-.53-1.053-.598-.983-.024.024-.038-.02-.032-.097.007-.08-.032-.13-.089-.119-.055.012-.083-.008-.061-.043.053-.087-.102-.528-.313-.888-.203-.347-.21-.393-.053-.332.072.028.098.014.068-.036-.027-.044-.095-.063-.15-.042-.112.044-.314-.158-.237-.236.027-.027.049-.01.049.04s.06.091.133.093c.21.004.41.187.312.286-.087.088-.029.25.089.25.038 0 .05-.06.026-.134-.023-.074.04.004.142.173.101.17.293.47.426.669.134.198.297.493.363.655s.185.438.263.614c.078.175.196.487.262.693.067.207.141.427.167.49a1 1 0 0 1 .053.155c.004.021.089.172.188.335.147.24.162.31.078.362-.057.036-.078.091-.047.123.084.085.289.103.239.021-.024-.039-.003-.07.047-.07.066 0 .068-.027.005-.104-.047-.057-.06-.131-.028-.166.03-.035.013-.038-.039-.008s-.095.019-.095-.026.043-.084.095-.088c.076-.005.075-.014 0-.045-.053-.021-.077-.07-.053-.11.024-.038.01-.07-.031-.07-.04 0-.088.043-.105.095-.017.051-.051.017-.075-.077-.025-.095-.014-.191.024-.215s.07-.006.07.039c0 .044.033.081.075.081.093 0 .067-.171-.038-.25-.046-.034-.037-.056.024-.057.054 0 .077-.037.05-.08a1.2 1.2 0 0 1-.078-.328c-.11-.882-.408-1.814-.922-2.886-.385-.802-1.129-1.687-1.754-2.086-.198-.126-.508-.323-.689-.436-.25-.157-.31-.23-.248-.305.045-.054.06-.12.034-.147-.048-.049.258.033.543.144.221.087 1.072.714 1.486 1.096.788.726 1.592 2.414 1.86 3.91.069.38.165.9.214 1.154l.089.46.273-.576c1.387-2.93.723-6.121-1.452-6.972-.513-.2-.674-.225-1.596-.243-1.147-.023-1.523.03-2.622.371-.866.268-1.64.642-2.2 1.062-.335.252-1.38 1.173-1.487 1.312-.02.027-.294.228-.608.446-.932.649-1.705 1.652-2.054 2.665-.209.603-.293 2.137-.152 2.758.153.671.573 1.487.92 1.79.342.296 2.806 1.566 3.11 1.602a.54.54 0 0 0 .297-.044q.109-.07.053.022c-.034.054-.001.09.083.093.076.003.308.087.517.187.376.181.525.148.33-.073a9 9 0 0 1-.33-.421c-.125-.17-.269-.293-.319-.276-.052.018-.074-.014-.05-.076.025-.066-.137-.246-.43-.477-.547-.43-1.06-.7-1.462-.767-.157-.026-.285-.08-.285-.12s-.037-.049-.081-.02c-.045.028-.037-.022.018-.111.055-.09.156-.163.225-.163.214 0 1.161.318 1.288.432.066.06.145.108.175.108.123 0 .716.518 1.035.905.189.227.38.456.427.508.046.053.186.276.31.497.125.221.25.379.277.35.028-.028.05.023.05.114 0 .233.272.368.426.212.17-.173.259-.147.259.073 0 .106-.037.193-.08.193-.045 0-.058.039-.028.087q.052.087.132-.058a1 1 0 0 1 .198-.242zm-.712-.15c-.04-.11-.032-.118.043-.042.052.052.075.114.052.138-.024.024-.066-.02-.095-.095m.45-.084a.32.32 0 0 1-.099-.17c-.019-.092.003-.088.11.018.135.134.126.252-.012.152m-.625-.382c.007-.095.04-.172.073-.172.079 0 .074.089-.014.23-.056.09-.069.078-.059-.058m.252-.01c-.023-.037.018-.115.09-.173.117-.093.122-.09.038.018-.052.067-.072.145-.044.173s.03.05.004.05-.065-.03-.088-.068m1.056-.07c.021-.022.001-.086-.045-.143-.064-.079-.059-.104.024-.104.108 0 .438.216.366.239-.113.036-.38.043-.345.008m-1.556-.097c0-.045.035-.06.076-.034.042.026.076.063.076.082 0 .018-.034.034-.076.034s-.076-.037-.076-.082m.152-.15c-.068-.045-.077-.075-.023-.076.05 0 .112.034.137.076.059.096.033.096-.114 0m.203-.111q-.043-.112.067-.07c.06.024.09.074.068.112-.059.096-.087.087-.135-.042m2.021-1.177c.006-.083.055-.15.109-.15.076 0 .078.026.006.122-.05.067-.1.134-.109.15-.01.015-.012-.04-.006-.122m-1.657-.027c-.027-.045-.033-.099-.013-.119s.056.017.08.082c.052.136.008.16-.067.037m1.225-.358c-.042-.11-.033-.118.042-.043.052.052.075.115.052.138s-.066-.019-.094-.095m-1.35-.075c.055-.022.12-.02.146.006s-.02.044-.1.04c-.088-.003-.106-.021-.046-.046m.965-.024c.025-.043.062-.077.08-.077s.034.034.034.077a.08.08 0 0 1-.08.077c-.045 0-.06-.035-.034-.077m-.626-.143c.029-.093-.456-.74-.905-1.21-.39-.406-1.223-.985-1.974-1.37-.356-.183-1.145-.45-1.728-.586-.285-.067-.508-.156-.494-.198.042-.124.976-.06 1.57.106.601.17 1.272.492 1.914.923.5.336 1.52 1.301 1.52 1.439 0 .053.054.118.12.143.065.026.095.086.066.133-.03.047-.017.109.027.136s.102.14.13.25c.039.161.018.21-.106.243-.085.022-.148.018-.14-.01m2.443-1.565q-.055-.09.046-.026.104.069.057-.053c-.034-.089 0-.108.142-.08.207.04.207.038-.025.16-.125.067-.18.066-.22 0m-.113-.701a2 2 0 0 0-.031-.23c-.014-.075.004-.154.04-.176.035-.023.05.032.034.122-.024.124-.002.152.09.116.096-.037.104-.025.036.058-.047.058-.063.128-.036.156s.01.05-.039.05c-.048 0-.09-.043-.094-.096m1.792-.443q-.06-.1.026-.046c.13.08.107-.036-.038-.199-.075-.084-.09-.14-.038-.14.048 0 .088.032.088.07 0 .04.053.084.118.097.102.022.103.045.011.172-.082.114-.12.124-.167.046m-.142-.6c-.025-.042.004-.12.067-.172.123-.104.15-.022.045.144-.04.064-.083.075-.112.028m-2.974-.248c-.026-.042-.011-.077.033-.077a.08.08 0 0 1 .08.077c0 .042-.014.077-.033.077-.018 0-.055-.035-.08-.077m2.84-.135c-.092-.12-.09-.124.017-.039.066.053.149.07.183.038.034-.03.038-.013.008.04-.071.124-.084.122-.208-.039m-3.54-.371c-.483-.7-.651-.881-1.126-1.214-.55-.385-1.742-1.005-2.108-1.096-.115-.029-.209-.085-.209-.126s.043-.047.095-.015q.098.06-.009-.073c-.091-.113-.086-.13.038-.13.213-.001 1.262.365 1.548.54q1.054.641 1.3.862c.272.247.577.746.638 1.046.033.163.082.232.14.197.049-.03.042.005-.016.076-.133.166-.13.167-.29-.067m4.438-2.53c-.186-.397-.477-.913-.647-1.147s-.285-.45-.256-.484c.029-.032.015-.037-.032-.01-.105.06-.366-.217-.302-.321.025-.042.006-.09-.043-.106-.106-.035-.157-.291-.059-.291.07 0 .848.805 1.13 1.17.296.383.628 1.16.657 1.538.016.206-.002.375-.04.375-.04 0-.222-.326-.408-.723m-4.011-.82c-.277-.077-.608-.31-.558-.392.023-.037-.014-.068-.081-.068-.074 0-.102-.036-.07-.09q.051-.082-.033-.033c-.049.03-.142.001-.208-.065-.065-.066-.162-.12-.214-.12-.053 0-.096-.052-.096-.115 0-.07.031-.09.082-.05.045.036.188.1.316.145.129.043.46.236.737.428.485.337.533.475.125.36m-.916 10.416c.056-.037.073-.084.038-.106-.036-.023-.11.008-.163.067-.11.12-.036.142.125.039m1.336-.31c.024-.038-.026-.051-.11-.03-.177.048-.2.1-.042.1.06 0 .129-.031.152-.07m.043-.195c0-.019-.035-.055-.076-.082-.042-.026-.076-.01-.076.034s.034.082.076.082.076-.015.076-.034m.307-.46c-.038-.1-.046-.21-.017-.243.028-.032.008-.033-.045-.002-.053.03-.083.08-.068.108.015.03.049.114.075.188s.064.135.085.135.008-.084-.03-.185zm.351-.235c0-.062-.029-.094-.064-.072s-.045.073-.021.113c.061.1.085.09.085-.04m-1-.196c.025-.042.012-.077-.03-.077s-.097.035-.122.077c-.026.042-.013.077.029.077.041 0 .097-.035.123-.077m.825-.116c.024-.063.01-.115-.03-.115s-.073.052-.073.115c0 .064.013.116.03.116.016 0 .05-.052.073-.116m-.18-.05c0-.03-.034-.077-.075-.104-.042-.026-.076-.012-.076.032 0 .043-.057.057-.127.03q-.124-.048-.074.036c.056.093.353.098.353.006m-.784-.388c-.024-.061-.042-.043-.045.047-.004.08.014.126.04.1.025-.025.027-.091.005-.147m1.89-.477c.008-.145-.02-.173-.141-.141q-.153.04-.098-.049c.03-.05.018-.09-.026-.09s-.08.053-.08.116c0 .068.07.117.17.118.15.002.156.012.042.08-.075.044-.111.126-.085.195.061.162.206.01.219-.229m.153-.504c-.063-.102-.346-.112-.346-.01 0 .04-.069.058-.152.042-.084-.016-.152.006-.152.049 0 .096.378.063.527-.046.088-.065.098-.05.052.074-.043.118-.035.133.033.065.049-.05.066-.128.038-.174m-6.997-.238c.026-.042.013-.077-.029-.077s-.097.035-.123.077c-.026.043-.013.077.03.077.041 0 .096-.034.122-.077m7.23-.41c.058.023.105.007.105-.036s-.054-.097-.119-.123-.1-.076-.078-.113c.022-.036-.044-.05-.147-.03-.102.02-.175.058-.161.085s.049.116.078.197c.037.107.075.124.135.064a.19.19 0 0 1 .187-.043m-.275-.13c0-.042.034-.076.076-.076s.076.034.076.077a.077.077 0 0 1-.076.077.077.077 0 0 1-.076-.077m.502-.14c-.115-.116-.117-.11-.028.082.053.114.108.171.124.126.015-.045-.028-.139-.096-.208m3.642-.443c.035-.225.035-.225-.113.044-.18.327-.197.461-.038.3a.73.73 0 0 0 .151-.344m-2.776.014c0-.017-.053-.05-.118-.076-.068-.027-.098-.014-.072.03.045.073.19.108.19.046m3.54-.17c.21-.054.83-1.162.913-1.634.09-.514.411-.71.411-.252 0 .272-.273 1.151-.408 1.311-.211.252-.228.332-.058.277.089-.028.41-.093.713-.145l.551-.093.039-.383c.043-.44-.096-1.481-.267-1.993-.12-.356-.85-1.518-1.11-1.766-.14-.134-.144-.128-.144.27 0 .771-.329 2.256-.645 2.913-.188.391-.33.9-.371 1.334-.022.232-.005.284.083.25.061-.024.193-.064.292-.09m1.585-1.322a6 6 0 0 0-.073-.304c-.016-.051.013-.077.063-.057.117.046.357.47.3.529-.107.108-.248.027-.29-.168m-5.359 1.116c.091-.12.087-.13-.034-.083-.102.04-.121.027-.075-.049.035-.058.033-.084-.006-.06-.102.063-.238-.118-.214-.283.011-.08.061-.17.111-.2a.15.15 0 0 0 .055-.162c-.021-.066-.084-.01-.165.15-.111.216-.116.288-.034.476.053.121.123.204.156.183s.06.023.06.096.01.118.021.1zm-.039-.469c-.026-.07-.078-.127-.116-.127s-.027.068.024.151c.108.175.162.16.093-.024" style="fill:#626262;fill-opacity:1;stroke-width:.289281"/></svg>