<?xml version="1.0" encoding="UTF-8"?>
<svg xmlns="http://www.w3.org/2000/svg" xmlns:xlink="http://www.w3.org/1999/xlink" width="32px" height="32px" viewBox="0 0 32 32" version="1.1">
<g id="surface1">
<path style=" stroke:none;fill-rule:nonzero;fill:rgb(38.431373%,38.431373%,38.431373%);fill-opacity:1;" d="M 16.550781 29.5625 C 16.367188 29.53125 15.949219 29.367188 15.625 29.195312 L 15.03125 28.882812 L 14.082031 28.902344 C 13.214844 28.917969 12.441406 28.839844 12.074219 28.695312 C 10.921875 28.238281 10.101562 27.582031 9.4375 26.578125 C 8.667969 25.414062 8.53125 25.339844 7.132812 25.339844 C 6.40625 25.339844 5.988281 25.308594 5.714844 25.226562 C 3.820312 24.667969 2.566406 22.683594 2.941406 20.851562 C 3.136719 19.914062 3.890625 18.652344 4.671875 17.957031 C 5.226562 17.464844 6.09375 16.875 6.605469 16.644531 C 6.820312 16.550781 7.015625 16.433594 7.046875 16.386719 C 7.078125 16.332031 6.914062 16.109375 6.625 15.8125 C 5.882812 15.042969 5.488281 14.367188 5.203125 13.359375 C 4.96875 12.53125 4.972656 10.949219 5.210938 10.046875 C 5.523438 8.855469 6.292969 7.542969 7.128906 6.769531 C 7.425781 6.492188 8.984375 5.164062 9.535156 4.714844 C 10.375 4.03125 12.070312 3.121094 13.222656 2.742188 C 14.085938 2.457031 15.011719 2.335938 16.132812 2.367188 C 17.65625 2.40625 18.613281 2.789062 19.621094 3.761719 C 20.296875 4.410156 20.796875 5.25 21.046875 6.152344 C 21.183594 6.628906 21.507812 7.351562 21.585938 7.351562 C 21.660156 7.351562 22.238281 7.929688 22.53125 8.300781 C 23.144531 9.066406 23.566406 10.351562 23.652344 11.6875 C 23.671875 12.046875 23.722656 12.378906 23.757812 12.425781 C 23.792969 12.472656 23.992188 12.550781 24.195312 12.601562 C 26.300781 13.101562 27.785156 14.382812 28.683594 16.464844 C 29.066406 17.355469 29.160156 17.921875 29.113281 19.109375 C 29.082031 19.867188 29.039062 20.171875 28.894531 20.613281 C 28.5 21.796875 28.238281 22.226562 27.261719 23.285156 C 26.625 23.980469 26.546875 24.125 26.289062 25.121094 C 26.074219 25.945312 25.710938 26.742188 25.320312 27.238281 C 24.800781 27.90625 23.746094 28.519531 22.765625 28.726562 C 22.308594 28.824219 21.988281 28.839844 21.078125 28.796875 L 19.957031 28.746094 L 19.246094 29.121094 C 18.296875 29.617188 17.566406 29.738281 16.550781 29.5625 Z M 18.277344 28.863281 C 18.761719 28.703125 18.914062 28.535156 18.800781 28.285156 C 18.734375 28.140625 18.679688 28.109375 18.554688 28.140625 C 18.464844 28.160156 18.433594 28.160156 18.484375 28.136719 C 18.546875 28.109375 18.417969 27.925781 18.109375 27.589844 C 17.847656 27.3125 17.488281 26.859375 17.308594 26.582031 C 16.925781 25.996094 16.566406 25.007812 16.5625 24.535156 C 16.5625 24.351562 16.527344 24.019531 16.488281 23.792969 C 16.421875 23.4375 16.300781 23.128906 15.726562 21.859375 C 15.667969 21.726562 15.554688 21.480469 15.480469 21.3125 L 15.34375 21.007812 L 15.339844 21.625 C 15.335938 21.96875 15.289062 22.507812 15.230469 22.828125 C 14.917969 24.589844 14.894531 24.851562 14.980469 25.347656 C 15.144531 26.292969 15.613281 26.992188 16.34375 27.390625 C 16.964844 27.726562 17.324219 27.960938 17.226562 27.960938 C 17.152344 27.960938 17.15625 28.007812 17.238281 28.171875 L 17.34375 28.378906 L 16.542969 28.035156 C 15.59375 27.636719 15.0625 27.179688 14.746094 26.492188 C 14.304688 25.546875 14.253906 24.621094 14.570312 23.265625 C 14.6875 22.761719 14.722656 22.375 14.722656 21.589844 C 14.722656 20.671875 14.703125 20.511719 14.527344 19.96875 C 14.34375 19.417969 13.902344 18.640625 13.519531 18.214844 C 13.175781 17.828125 12.085938 17.183594 11.410156 16.964844 C 10.007812 16.507812 9.074219 16.515625 7.59375 17.003906 C 6.34375 17.414062 5.402344 18.074219 4.601562 19.097656 C 3.605469 20.375 3.375 21.257812 3.734375 22.390625 C 3.917969 22.960938 4.050781 23.171875 4.671875 23.871094 C 5.320312 24.59375 6.234375 24.808594 7.8125 24.601562 C 8.707031 24.488281 9.628906 24.660156 10.226562 25.058594 C 10.792969 25.433594 11.464844 26.152344 11.464844 26.386719 C 11.464844 26.644531 11.304688 26.59375 10.90625 26.199219 C 10.71875 26.015625 10.359375 25.761719 10.109375 25.636719 L 9.65625 25.40625 L 9.890625 25.851562 C 10.121094 26.292969 10.773438 27.101562 11.0625 27.304688 C 11.144531 27.359375 11.230469 27.429688 11.25 27.457031 C 11.300781 27.527344 11.722656 27.738281 12.0625 27.867188 C 12.589844 28.0625 13.085938 28.15625 13.65625 28.175781 L 14.214844 28.191406 L 13.914062 27.847656 C 13.753906 27.660156 13.617188 27.476562 13.617188 27.441406 C 13.617188 27.40625 13.566406 27.378906 13.5 27.378906 C 13.40625 27.378906 13.402344 27.398438 13.472656 27.488281 C 13.523438 27.550781 13.539062 27.597656 13.503906 27.597656 C 13.472656 27.597656 13.480469 27.636719 13.527344 27.679688 C 13.570312 27.726562 13.589844 27.816406 13.570312 27.878906 C 13.542969 27.976562 13.550781 27.972656 13.617188 27.871094 C 13.710938 27.722656 13.800781 27.757812 13.910156 27.984375 C 13.984375 28.140625 13.984375 28.140625 13.867188 28 C 13.753906 27.855469 13.75 27.855469 13.652344 27.992188 C 13.554688 28.125 13.546875 28.121094 13.503906 27.902344 C 13.476562 27.773438 13.414062 27.671875 13.363281 27.671875 C 13.308594 27.671875 13.246094 27.632812 13.214844 27.585938 C 13.179688 27.527344 13.203125 27.515625 13.285156 27.546875 C 13.394531 27.589844 13.394531 27.578125 13.28125 27.394531 C 13.214844 27.285156 13.203125 27.234375 13.253906 27.28125 C 13.359375 27.378906 13.570312 27.328125 13.503906 27.226562 C 13.484375 27.1875 13.433594 27.175781 13.398438 27.199219 C 13.363281 27.222656 13.355469 27.1875 13.378906 27.117188 C 13.410156 27.042969 13.378906 26.960938 13.300781 26.902344 C 13.234375 26.851562 13.183594 26.789062 13.1875 26.765625 C 13.195312 26.742188 13.179688 26.632812 13.15625 26.519531 C 13.109375 26.304688 12.6875 26.015625 12.546875 26.101562 C 12.503906 26.128906 12.488281 26.109375 12.507812 26.050781 C 12.53125 25.988281 12.472656 25.914062 12.359375 25.863281 C 12.136719 25.761719 12.089844 25.757812 12.144531 25.84375 C 12.164062 25.882812 12.152344 25.933594 12.113281 25.957031 C 12.078125 25.980469 12.058594 25.941406 12.070312 25.867188 C 12.085938 25.789062 12.019531 25.671875 11.90625 25.578125 C 11.800781 25.496094 11.5 25.214844 11.234375 24.957031 C 10.703125 24.441406 10.148438 24.113281 9.488281 23.921875 C 9.125 23.8125 8.925781 23.804688 8.230469 23.855469 C 6.835938 23.957031 6.230469 23.929688 5.84375 23.753906 C 5.230469 23.472656 4.882812 23.15625 4.628906 22.644531 C 4.410156 22.214844 4.390625 22.113281 4.390625 21.515625 C 4.390625 20.898438 4.40625 20.828125 4.675781 20.28125 C 5.007812 19.609375 5.765625 18.78125 6.472656 18.3125 C 7.378906 17.710938 8.976562 17.273438 9.917969 17.371094 C 11.113281 17.492188 11.957031 17.867188 12.730469 18.617188 C 13.703125 19.566406 14 20.277344 13.988281 21.628906 C 13.988281 22.050781 13.9375 22.640625 13.878906 22.941406 C 13.582031 24.433594 13.554688 25.441406 13.796875 26.261719 C 13.957031 26.816406 14.535156 27.65625 14.988281 28.007812 C 16.082031 28.855469 17.316406 29.175781 18.277344 28.863281 Z M 17.945312 28.246094 C 17.816406 28.207031 17.710938 28.160156 17.710938 28.144531 C 17.710938 28.078125 18.152344 28.160156 18.230469 28.242188 C 18.328125 28.339844 18.269531 28.339844 17.945312 28.246094 Z M 12.648438 27.234375 C 12.625 27.195312 12.5625 27.1875 12.503906 27.207031 C 12.449219 27.230469 12.316406 27.179688 12.210938 27.09375 L 12.019531 26.941406 L 12.195312 26.941406 C 12.289062 26.941406 12.40625 26.980469 12.453125 27.03125 C 12.523438 27.097656 12.542969 27.09375 12.546875 27.011719 C 12.546875 26.953125 12.582031 26.984375 12.617188 27.078125 C 12.660156 27.1875 12.722656 27.234375 12.789062 27.207031 C 12.847656 27.1875 12.910156 27.191406 12.929688 27.222656 C 12.945312 27.253906 12.898438 27.28125 12.824219 27.289062 C 12.75 27.292969 12.667969 27.269531 12.648438 27.234375 Z M 12.910156 27.085938 L 12.742188 26.941406 L 12.902344 26.941406 C 12.992188 26.941406 13.046875 26.964844 13.019531 26.992188 C 12.996094 27.015625 13.007812 27.082031 13.054688 27.136719 C 13.164062 27.273438 13.109375 27.253906 12.910156 27.085938 Z M 12.398438 26.800781 C 12.398438 26.765625 12.429688 26.714844 12.46875 26.6875 C 12.507812 26.664062 12.519531 26.691406 12.496094 26.757812 C 12.449219 26.882812 12.398438 26.90625 12.398438 26.800781 Z M 12.652344 26.585938 C 12.671875 26.570312 12.652344 26.515625 12.613281 26.46875 C 12.566406 26.410156 12.574219 26.382812 12.648438 26.382812 C 12.703125 26.382812 12.734375 26.410156 12.71875 26.4375 C 12.699219 26.46875 12.773438 26.527344 12.882812 26.566406 L 13.078125 26.636719 L 12.851562 26.625 C 12.726562 26.621094 12.636719 26.601562 12.652344 26.585938 Z M 16.265625 26.414062 C 16.027344 26.160156 15.558594 25.242188 15.558594 25.039062 C 15.558594 24.839844 15.667969 24.820312 15.824219 24.996094 C 16.007812 25.199219 16.378906 26.046875 16.367188 26.226562 C 16.359375 26.308594 16.386719 26.34375 16.433594 26.3125 C 16.484375 26.285156 16.492188 26.296875 16.460938 26.351562 C 16.429688 26.398438 16.445312 26.488281 16.492188 26.546875 C 16.664062 26.753906 16.480469 26.648438 16.265625 26.414062 Z M 12.914062 26.390625 C 12.863281 26.332031 12.855469 26.289062 12.894531 26.289062 C 12.96875 26.289062 13.074219 26.425781 13.03125 26.46875 C 13.019531 26.480469 12.964844 26.445312 12.914062 26.390625 Z M 12.292969 26.019531 C 12.253906 25.914062 12.261719 25.90625 12.335938 25.976562 C 12.382812 26.027344 12.40625 26.085938 12.382812 26.105469 C 12.359375 26.128906 12.320312 26.089844 12.292969 26.019531 Z M 15.714844 23.996094 C 15.632812 23.8125 15.664062 23.59375 15.773438 23.59375 C 15.847656 23.59375 15.917969 23.785156 15.917969 24 C 15.917969 24.226562 15.816406 24.226562 15.714844 23.996094 Z M 22.125 28.175781 C 22.714844 28.09375 23.457031 27.839844 23.933594 27.558594 C 24.675781 27.121094 25.328125 26.070312 25.679688 24.738281 C 25.929688 23.800781 26.121094 23.445312 26.707031 22.84375 C 28.445312 21.054688 28.929688 18.910156 28.066406 16.792969 C 27.386719 15.117188 26.210938 13.988281 24.570312 13.429688 C 24.121094 13.277344 23.796875 13.222656 23.085938 13.1875 C 22.585938 13.164062 22.191406 13.167969 22.210938 13.195312 C 22.230469 13.226562 22.175781 13.25 22.09375 13.25 C 21.820312 13.25 21.054688 13.550781 20.558594 13.851562 C 19.988281 14.199219 19.328125 14.929688 19.007812 15.574219 C 18.695312 16.203125 18.546875 17.0625 18.59375 17.949219 C 18.636719 18.691406 18.683594 18.867188 19.289062 20.613281 C 19.601562 21.523438 19.6875 22.210938 19.585938 23.019531 C 19.445312 24.125 19.140625 24.746094 18.484375 25.277344 C 18.277344 25.445312 18.113281 25.601562 18.121094 25.628906 C 18.128906 25.65625 18.066406 25.675781 17.984375 25.675781 C 17.902344 25.671875 17.820312 25.714844 17.800781 25.769531 C 17.777344 25.835938 17.796875 25.851562 17.855469 25.8125 C 17.917969 25.777344 17.933594 25.785156 17.898438 25.839844 C 17.816406 25.972656 17.992188 26.214844 18.167969 26.214844 C 18.425781 26.214844 18.953125 25.832031 19.316406 25.378906 C 20.027344 24.496094 20.425781 23.230469 20.347656 22.101562 C 20.316406 21.683594 20.195312 21.15625 19.914062 20.242188 C 19.46875 18.8125 19.363281 18.304688 19.367188 17.664062 C 19.375 16.410156 19.796875 15.316406 20.5 14.734375 C 21.296875 14.078125 21.996094 13.867188 23.132812 13.933594 C 24.589844 14.023438 25.203125 14.296875 26.195312 15.289062 C 26.804688 15.898438 26.925781 16.066406 27.210938 16.675781 C 27.621094 17.546875 27.679688 17.773438 27.738281 18.675781 C 27.820312 19.992188 27.445312 20.9375 26.386719 22.101562 C 25.488281 23.082031 25.273438 23.441406 25.066406 24.304688 C 24.847656 25.21875 24.394531 26.132812 23.988281 26.496094 C 23.601562 26.84375 22.910156 27.222656 22.425781 27.351562 C 21.667969 27.554688 20.851562 27.449219 20.046875 27.039062 C 19.519531 26.769531 19.257812 26.683594 19.328125 26.800781 C 19.351562 26.839844 19.335938 26.871094 19.296875 26.871094 C 19.253906 26.871094 19.21875 26.835938 19.21875 26.792969 C 19.21875 26.75 19.171875 26.761719 19.113281 26.824219 C 19.054688 26.882812 19.003906 26.976562 19.003906 27.027344 C 19.007812 27.101562 19.023438 27.097656 19.078125 27.015625 C 19.136719 26.917969 19.144531 26.917969 19.148438 27.015625 C 19.148438 27.113281 19.15625 27.113281 19.21875 27.015625 C 19.269531 26.9375 19.289062 26.933594 19.289062 27 C 19.292969 27.050781 19.21875 27.125 19.128906 27.160156 C 19.042969 27.195312 19.003906 27.226562 19.046875 27.230469 C 19.089844 27.230469 19.125 27.285156 19.125 27.347656 C 19.125 27.410156 19.074219 27.449219 19.011719 27.433594 C 18.949219 27.421875 18.902344 27.355469 18.90625 27.285156 C 18.914062 27.21875 18.886719 27.160156 18.851562 27.160156 C 18.6875 27.160156 18.832031 27.457031 19.109375 27.671875 C 19.230469 27.769531 19.242188 27.769531 19.191406 27.671875 C 19.152344 27.589844 19.160156 27.589844 19.234375 27.679688 C 19.359375 27.835938 19.6875 27.933594 20.546875 28.074219 C 20.945312 28.140625 21.316406 28.203125 21.375 28.214844 C 21.433594 28.226562 21.503906 28.242188 21.53125 28.246094 C 21.558594 28.25 21.824219 28.21875 22.125 28.175781 Z M 19.21875 27.304688 C 19.21875 27.265625 19.269531 27.234375 19.328125 27.234375 C 19.386719 27.234375 19.433594 27.246094 19.433594 27.261719 C 19.433594 27.277344 19.386719 27.308594 19.328125 27.332031 C 19.269531 27.355469 19.21875 27.34375 19.21875 27.304688 Z M 19.507812 27.304688 C 19.507812 27.261719 19.539062 27.246094 19.578125 27.269531 C 19.617188 27.296875 19.652344 27.332031 19.652344 27.347656 C 19.652344 27.367188 19.617188 27.378906 19.578125 27.378906 C 19.539062 27.378906 19.507812 27.34375 19.507812 27.304688 Z M 18.910156 26.925781 C 18.914062 26.835938 18.902344 26.800781 18.882812 26.847656 C 18.867188 26.894531 18.804688 26.917969 18.75 26.894531 C 18.691406 26.871094 18.644531 26.894531 18.644531 26.941406 C 18.644531 26.984375 18.675781 27.003906 18.71875 26.980469 C 18.757812 26.953125 18.789062 26.96875 18.789062 27.011719 C 18.789062 27.164062 18.902344 27.085938 18.910156 26.925781 Z M 22.371094 26.769531 C 22.816406 26.636719 23.433594 26.253906 23.730469 25.929688 C 24.058594 25.574219 24.238281 25.152344 24.460938 24.210938 C 24.6875 23.257812 24.882812 22.917969 25.800781 21.894531 C 26.667969 20.921875 26.804688 20.722656 27.011719 20.132812 C 27.320312 19.242188 27.222656 17.964844 26.773438 17.066406 C 26.109375 15.734375 24.988281 14.804688 23.746094 14.558594 C 23.046875 14.417969 22.039062 14.5 21.5625 14.738281 C 21.039062 14.996094 20.265625 15.746094 20.316406 15.945312 C 20.339844 16.039062 20.328125 16.074219 20.277344 16.042969 C 20.230469 16.011719 20.21875 16.050781 20.242188 16.152344 C 20.265625 16.238281 20.253906 16.292969 20.21875 16.269531 C 20.183594 16.246094 20.152344 16.246094 20.152344 16.261719 C 20.152344 16.28125 20.132812 16.355469 20.105469 16.425781 C 20.078125 16.503906 20.085938 16.535156 20.128906 16.507812 C 20.167969 16.484375 20.203125 16.507812 20.203125 16.5625 C 20.203125 16.621094 20.167969 16.660156 20.125 16.652344 C 20.082031 16.644531 20.046875 16.703125 20.046875 16.785156 C 20.046875 16.863281 20.011719 16.953125 19.972656 16.984375 C 19.929688 17.015625 19.9375 17.035156 19.996094 17.039062 C 20.046875 17.039062 20.070312 17.070312 20.046875 17.105469 C 20.027344 17.144531 20.042969 17.195312 20.082031 17.222656 C 20.125 17.246094 20.148438 17.230469 20.136719 17.179688 C 20.125 17.132812 20.160156 17.082031 20.210938 17.070312 C 20.257812 17.058594 20.265625 17.066406 20.226562 17.085938 C 20.1875 17.105469 20.171875 17.152344 20.195312 17.191406 C 20.214844 17.226562 20.179688 17.277344 20.117188 17.304688 C 20.023438 17.339844 20.015625 17.363281 20.09375 17.410156 C 20.15625 17.453125 20.160156 17.472656 20.105469 17.472656 C 20.054688 17.476562 20.023438 17.605469 20.023438 17.808594 C 20.023438 18.1875 20.027344 18.1875 20.140625 17.855469 C 20.203125 17.671875 20.199219 17.625 20.132812 17.660156 C 20.085938 17.683594 20.101562 17.65625 20.171875 17.601562 C 20.242188 17.542969 20.296875 17.460938 20.296875 17.417969 C 20.296875 17.375 20.335938 17.296875 20.386719 17.242188 C 20.4375 17.191406 20.566406 17.015625 20.671875 16.855469 C 21.078125 16.253906 21.460938 15.910156 22.105469 15.5625 C 22.535156 15.332031 22.789062 15.265625 22.851562 15.375 C 22.886719 15.433594 22.871094 15.4375 22.804688 15.398438 C 22.726562 15.347656 22.726562 15.363281 22.8125 15.472656 C 22.910156 15.597656 22.90625 15.605469 22.757812 15.566406 C 22.667969 15.542969 22.613281 15.550781 22.632812 15.582031 C 22.652344 15.613281 22.496094 15.746094 22.289062 15.875 C 22.082031 16.003906 21.800781 16.210938 21.660156 16.332031 C 21.371094 16.585938 20.929688 17.21875 20.996094 17.285156 C 21.019531 17.308594 20.996094 17.328125 20.945312 17.328125 C 20.890625 17.328125 20.867188 17.351562 20.894531 17.378906 C 20.921875 17.402344 20.886719 17.472656 20.816406 17.527344 C 20.75 17.585938 20.734375 17.609375 20.78125 17.585938 C 20.832031 17.558594 20.871094 17.574219 20.871094 17.617188 C 20.871094 17.660156 20.84375 17.695312 20.8125 17.695312 C 20.777344 17.695312 20.710938 17.773438 20.660156 17.867188 C 20.582031 18.011719 20.589844 18.0625 20.695312 18.1875 C 20.820312 18.335938 20.820312 18.335938 21.027344 18.109375 C 21.136719 17.984375 21.226562 17.847656 21.226562 17.804688 C 21.222656 17.765625 21.203125 17.769531 21.183594 17.816406 C 21.128906 17.957031 20.941406 17.839844 20.949219 17.667969 C 20.953125 17.582031 20.972656 17.554688 20.992188 17.601562 C 21.046875 17.742188 21.335938 17.710938 21.527344 17.550781 C 21.621094 17.472656 21.664062 17.40625 21.625 17.402344 C 21.585938 17.402344 21.625 17.359375 21.710938 17.3125 C 21.800781 17.261719 22.105469 17.074219 22.390625 16.894531 C 23.125 16.433594 23.910156 16.082031 23.972656 16.183594 C 24.035156 16.292969 23.910156 16.523438 23.757812 16.582031 C 23.527344 16.667969 22.414062 17.324219 22.21875 17.492188 C 22.113281 17.582031 21.941406 17.71875 21.839844 17.792969 C 21.679688 17.90625 21.667969 17.941406 21.746094 18.046875 C 21.828125 18.152344 21.828125 18.15625 21.726562 18.078125 C 21.632812 18.003906 21.589844 18.015625 21.472656 18.148438 C 21.261719 18.394531 20.933594 18.933594 20.996094 18.933594 C 21.027344 18.933594 21.007812 18.960938 20.957031 18.996094 C 20.90625 19.027344 20.855469 19.105469 20.847656 19.167969 C 20.835938 19.230469 20.789062 19.332031 20.738281 19.390625 C 20.621094 19.535156 20.703125 19.574219 21.015625 19.535156 C 21.210938 19.511719 21.300781 19.445312 21.402344 19.273438 C 21.472656 19.144531 21.527344 19.03125 21.523438 19.019531 C 21.511719 18.992188 21.925781 18.605469 22.308594 18.289062 C 22.484375 18.140625 22.648438 18.003906 22.667969 17.980469 C 22.738281 17.902344 23.167969 17.613281 23.167969 17.644531 C 23.167969 17.660156 23.484375 17.566406 23.871094 17.429688 C 24.253906 17.296875 24.707031 17.183594 24.875 17.183594 C 25.164062 17.183594 25.175781 17.191406 25.089844 17.332031 C 25.039062 17.417969 24.816406 17.539062 24.570312 17.617188 C 23.152344 18.074219 22.839844 18.257812 22.046875 19.070312 C 21.636719 19.488281 21.570312 19.628906 21.804688 19.566406 C 21.882812 19.546875 21.929688 19.558594 21.910156 19.59375 C 21.886719 19.628906 21.789062 19.660156 21.691406 19.660156 C 21.566406 19.660156 21.519531 19.699219 21.519531 19.804688 C 21.519531 19.886719 21.476562 19.945312 21.429688 19.933594 C 21.378906 19.921875 21.34375 19.949219 21.351562 19.992188 C 21.359375 20.035156 21.273438 20.0625 21.164062 20.054688 C 20.992188 20.042969 20.96875 20.0625 21 20.214844 C 21.027344 20.367188 21.132812 20.425781 21.316406 20.398438 C 21.347656 20.394531 21.351562 20.441406 21.324219 20.503906 C 21.296875 20.578125 21.222656 20.609375 21.113281 20.585938 C 20.886719 20.542969 20.898438 20.574219 21.164062 20.707031 C 21.355469 20.804688 21.382812 20.804688 21.347656 20.714844 C 21.320312 20.640625 21.355469 20.605469 21.457031 20.605469 C 21.605469 20.605469 21.929688 20.265625 21.894531 20.148438 C 21.882812 20.113281 21.90625 20.109375 21.949219 20.132812 C 22.042969 20.191406 22.53125 19.769531 22.464844 19.691406 C 22.4375 19.660156 22.453125 19.65625 22.496094 19.683594 C 22.542969 19.710938 22.660156 19.667969 22.757812 19.589844 C 23.074219 19.335938 24.125 18.859375 24.359375 18.859375 C 24.679688 18.859375 24.730469 19.039062 24.441406 19.152344 C 23.578125 19.480469 22.164062 20.539062 22.164062 20.859375 C 22.164062 20.914062 22.113281 20.976562 22.050781 21 C 21.992188 21.023438 21.957031 21.074219 21.980469 21.109375 C 22 21.144531 21.972656 21.191406 21.914062 21.214844 C 21.851562 21.242188 21.804688 21.351562 21.804688 21.480469 C 21.804688 21.601562 21.769531 21.699219 21.730469 21.699219 C 21.6875 21.699219 21.671875 21.667969 21.699219 21.625 C 21.722656 21.585938 21.707031 21.554688 21.664062 21.554688 C 21.625 21.554688 21.589844 21.585938 21.589844 21.625 C 21.589844 21.707031 21.839844 21.855469 21.902344 21.804688 C 21.929688 21.789062 21.933594 21.796875 21.910156 21.824219 C 21.84375 21.910156 21.632812 21.914062 21.578125 21.824219 C 21.550781 21.777344 21.5 21.769531 21.46875 21.800781 C 21.4375 21.835938 21.449219 21.878906 21.5 21.898438 C 21.550781 21.914062 21.574219 21.957031 21.554688 21.992188 C 21.53125 22.027344 21.554688 22.078125 21.601562 22.105469 C 21.65625 22.140625 21.664062 22.128906 21.625 22.0625 C 21.582031 21.996094 21.597656 21.980469 21.675781 22.007812 C 21.792969 22.054688 22.339844 21.550781 22.273438 21.457031 C 22.253906 21.429688 22.257812 21.421875 22.28125 21.441406 C 22.304688 21.460938 22.507812 21.3125 22.730469 21.109375 C 23.230469 20.65625 23.828125 20.363281 24.550781 20.210938 C 25.183594 20.082031 25.441406 20.066406 25.5 20.167969 C 25.523438 20.207031 25.601562 20.214844 25.667969 20.191406 C 25.734375 20.167969 25.769531 20.171875 25.742188 20.199219 C 25.71875 20.230469 25.652344 20.261719 25.601562 20.269531 C 25.546875 20.277344 25.4375 20.320312 25.359375 20.363281 C 25.28125 20.40625 25.039062 20.484375 24.820312 20.535156 C 24.066406 20.710938 22.738281 21.515625 22.859375 21.726562 C 22.882812 21.773438 22.878906 21.785156 22.84375 21.753906 C 22.765625 21.679688 22.441406 21.992188 22.5 22.085938 C 22.523438 22.125 22.511719 22.136719 22.472656 22.113281 C 22.429688 22.085938 22.359375 22.109375 22.3125 22.167969 C 22.253906 22.238281 22.253906 22.285156 22.304688 22.316406 C 22.347656 22.34375 22.378906 22.328125 22.378906 22.285156 C 22.378906 22.246094 22.40625 22.210938 22.441406 22.210938 C 22.472656 22.210938 22.5 22.253906 22.5 22.3125 C 22.5 22.375 22.445312 22.402344 22.363281 22.386719 C 22.1875 22.355469 22.042969 22.414062 21.992188 22.542969 C 21.960938 22.628906 21.980469 22.636719 22.113281 22.570312 C 22.253906 22.5 22.257812 22.503906 22.148438 22.59375 C 22.078125 22.652344 22.046875 22.722656 22.074219 22.757812 C 22.105469 22.789062 22.089844 22.792969 22.039062 22.761719 C 21.988281 22.734375 21.894531 22.75 21.824219 22.792969 C 21.703125 22.871094 21.703125 22.875 21.824219 22.835938 C 21.910156 22.808594 21.949219 22.835938 21.949219 22.929688 C 21.949219 23 21.96875 23.078125 21.992188 23.105469 C 22.070312 23.183594 22.667969 22.746094 22.664062 22.613281 C 22.664062 22.570312 22.628906 22.585938 22.589844 22.644531 C 22.519531 22.742188 22.515625 22.742188 22.542969 22.644531 C 22.5625 22.585938 22.613281 22.546875 22.65625 22.554688 C 22.699219 22.566406 22.90625 22.464844 23.113281 22.328125 C 23.699219 21.949219 24.242188 21.6875 24.332031 21.746094 C 24.378906 21.773438 24.394531 21.761719 24.367188 21.71875 C 24.308594 21.625 24.496094 21.542969 24.640625 21.597656 C 24.71875 21.628906 24.695312 21.683594 24.535156 21.820312 C 24.414062 21.921875 24.285156 21.976562 24.238281 21.949219 C 24.1875 21.917969 24.171875 21.925781 24.199219 21.972656 C 24.226562 22.019531 23.996094 22.230469 23.65625 22.476562 C 23.136719 22.84375 22.910156 23.03125 22.300781 23.613281 C 22.226562 23.679688 22.128906 23.738281 22.085938 23.738281 C 22.042969 23.738281 22.023438 23.789062 22.046875 23.851562 C 22.074219 23.917969 22.058594 23.945312 22.019531 23.921875 C 21.949219 23.878906 21.316406 24.273438 21.214844 24.425781 C 21.1875 24.46875 21.179688 24.558594 21.199219 24.628906 C 21.253906 24.796875 21.101562 25.066406 20.992188 25 C 20.945312 24.972656 20.957031 25.011719 21.015625 25.085938 C 21.113281 25.210938 21.109375 25.21875 20.996094 25.175781 C 20.910156 25.140625 20.871094 25.164062 20.871094 25.238281 C 20.871094 25.300781 20.90625 25.328125 20.945312 25.300781 C 20.988281 25.277344 21.074219 25.300781 21.140625 25.351562 C 21.230469 25.425781 21.246094 25.429688 21.203125 25.355469 C 21.160156 25.289062 21.195312 25.273438 21.332031 25.296875 C 21.433594 25.316406 21.519531 25.300781 21.519531 25.257812 C 21.519531 25.21875 21.550781 25.207031 21.589844 25.230469 C 21.628906 25.257812 21.660156 25.238281 21.660156 25.191406 C 21.660156 25.144531 21.613281 25.125 21.558594 25.148438 C 21.5 25.167969 21.441406 25.148438 21.421875 25.101562 C 21.402344 25.050781 21.382812 25.070312 21.378906 25.136719 C 21.375 25.21875 21.335938 25.25 21.265625 25.222656 C 21.207031 25.199219 21.183594 25.144531 21.210938 25.097656 C 21.238281 25.050781 21.261719 24.964844 21.265625 24.90625 C 21.265625 24.847656 21.324219 24.785156 21.398438 24.769531 C 21.496094 24.753906 21.523438 24.78125 21.503906 24.878906 C 21.488281 24.964844 21.542969 25.046875 21.652344 25.105469 C 21.855469 25.214844 21.898438 25.21875 21.839844 25.125 C 21.816406 25.082031 21.839844 25.070312 21.894531 25.089844 C 22 25.128906 22.707031 24.773438 23.074219 24.496094 C 23.304688 24.320312 23.601562 24.261719 23.601562 24.386719 C 23.601562 24.527344 22.757812 25.207031 22.261719 25.46875 C 21.976562 25.617188 21.753906 25.753906 21.769531 25.777344 C 21.78125 25.796875 21.671875 25.820312 21.523438 25.828125 C 21.226562 25.847656 20.84375 26.019531 20.925781 26.097656 C 20.953125 26.125 20.921875 26.128906 20.859375 26.105469 C 20.792969 26.078125 20.722656 26.09375 20.695312 26.136719 C 20.667969 26.179688 20.683594 26.214844 20.726562 26.214844 C 20.773438 26.214844 20.785156 26.253906 20.753906 26.304688 C 20.71875 26.363281 20.667969 26.320312 20.605469 26.175781 C 20.515625 25.960938 20.515625 25.960938 20.535156 26.152344 C 20.542969 26.257812 20.59375 26.394531 20.644531 26.457031 C 20.722656 26.550781 20.714844 26.5625 20.585938 26.527344 C 20.503906 26.503906 20.453125 26.472656 20.472656 26.449219 C 20.492188 26.429688 20.476562 26.351562 20.433594 26.277344 C 20.367188 26.152344 20.351562 26.148438 20.246094 26.253906 C 20.15625 26.347656 20.152344 26.386719 20.226562 26.457031 C 20.296875 26.523438 20.304688 26.519531 20.261719 26.433594 C 20.230469 26.375 20.273438 26.398438 20.359375 26.488281 C 20.445312 26.578125 20.605469 26.667969 20.710938 26.695312 C 20.820312 26.71875 20.980469 26.761719 21.074219 26.789062 C 21.386719 26.878906 22.03125 26.871094 22.371094 26.769531 Z M 21.433594 26.019531 C 21.484375 26 21.546875 26 21.570312 26.023438 C 21.59375 26.050781 21.550781 26.066406 21.476562 26.0625 C 21.390625 26.058594 21.375 26.042969 21.433594 26.019531 Z M 21.734375 24.902344 C 21.734375 24.863281 21.769531 24.832031 21.808594 24.832031 C 21.851562 24.832031 21.867188 24.863281 21.839844 24.902344 C 21.816406 24.945312 21.78125 24.976562 21.765625 24.976562 C 21.746094 24.976562 21.734375 24.945312 21.734375 24.902344 Z M 21.265625 24.613281 C 21.242188 24.574219 21.261719 24.539062 21.308594 24.539062 C 21.359375 24.539062 21.378906 24.519531 21.351562 24.492188 C 21.292969 24.433594 21.4375 24.25 21.539062 24.25 C 21.582031 24.25 21.554688 24.296875 21.476562 24.355469 C 21.339844 24.464844 21.339844 24.464844 21.480469 24.445312 C 21.714844 24.414062 21.820312 24.320312 21.742188 24.222656 C 21.691406 24.160156 21.707031 24.132812 21.804688 24.132812 C 21.878906 24.132812 21.921875 24.160156 21.902344 24.195312 C 21.882812 24.226562 21.90625 24.3125 21.960938 24.378906 C 22.046875 24.488281 22.042969 24.492188 21.941406 24.414062 C 21.847656 24.339844 21.800781 24.355469 21.660156 24.503906 C 21.484375 24.695312 21.339844 24.734375 21.265625 24.613281 Z M 22.019531 22.984375 C 22.019531 22.933594 22.070312 22.890625 22.128906 22.890625 C 22.207031 22.890625 22.214844 22.914062 22.15625 22.984375 C 22.109375 23.039062 22.0625 23.082031 22.046875 23.082031 C 22.03125 23.082031 22.019531 23.039062 22.019531 22.984375 Z M 21.902344 21.445312 C 21.878906 21.382812 21.878906 21.308594 21.902344 21.285156 C 21.929688 21.257812 21.949219 21.300781 21.949219 21.378906 C 21.949219 21.496094 21.960938 21.5 22.019531 21.40625 C 22.0625 21.34375 22.089844 21.332031 22.089844 21.386719 C 22.09375 21.527344 21.953125 21.574219 21.902344 21.445312 Z M 22.367188 21.210938 C 22.417969 21.191406 22.480469 21.195312 22.503906 21.21875 C 22.527344 21.242188 22.484375 21.261719 22.410156 21.257812 C 22.324219 21.253906 22.308594 21.234375 22.367188 21.210938 Z M 22.65625 20.933594 C 22.652344 20.914062 22.644531 20.855469 22.636719 20.808594 C 22.632812 20.757812 22.5625 20.726562 22.484375 20.738281 C 22.371094 20.753906 22.363281 20.746094 22.449219 20.6875 C 22.570312 20.605469 22.683594 20.683594 22.710938 20.859375 C 22.722656 20.960938 22.679688 21.023438 22.65625 20.933594 Z M 21.445312 20.433594 C 21.445312 20.417969 21.492188 20.367188 21.546875 20.320312 C 21.625 20.253906 21.660156 20.257812 21.703125 20.324219 C 21.734375 20.378906 21.726562 20.390625 21.671875 20.359375 C 21.628906 20.332031 21.589844 20.34375 21.589844 20.382812 C 21.589844 20.425781 21.558594 20.460938 21.519531 20.460938 C 21.476562 20.460938 21.445312 20.449219 21.445312 20.433594 Z M 21.085938 20.289062 C 21.085938 20.273438 21.152344 20.242188 21.230469 20.222656 C 21.308594 20.199219 21.375 20.214844 21.375 20.25 C 21.375 20.285156 21.308594 20.316406 21.230469 20.316406 C 21.152344 20.316406 21.085938 20.304688 21.085938 20.289062 Z M 21.640625 19.871094 C 21.691406 19.820312 21.75 19.796875 21.769531 19.820312 C 21.792969 19.84375 21.753906 19.882812 21.683594 19.910156 C 21.582031 19.949219 21.570312 19.941406 21.640625 19.871094 Z M 20.882812 19.296875 C 21.027344 19.097656 21.230469 18.976562 21.121094 19.152344 C 21.097656 19.191406 21.113281 19.222656 21.15625 19.222656 C 21.195312 19.222656 21.230469 19.195312 21.230469 19.164062 C 21.230469 19.128906 21.285156 19.101562 21.347656 19.101562 C 21.449219 19.101562 21.445312 19.117188 21.332031 19.199219 C 21.257812 19.253906 21.148438 19.28125 21.089844 19.261719 C 21.023438 19.238281 21.039062 19.269531 21.121094 19.335938 C 21.261719 19.445312 21.261719 19.449219 21.070312 19.414062 C 20.960938 19.394531 20.871094 19.410156 20.871094 19.445312 C 20.871094 19.484375 20.839844 19.515625 20.796875 19.515625 C 20.757812 19.515625 20.796875 19.417969 20.882812 19.296875 Z M 21.859375 19.359375 C 21.90625 19.308594 21.964844 19.289062 21.988281 19.308594 C 22.007812 19.332031 21.96875 19.375 21.898438 19.402344 C 21.796875 19.441406 21.789062 19.433594 21.859375 19.359375 Z M 22.492188 19.316406 C 22.453125 19.214844 22.460938 19.207031 22.53125 19.277344 C 22.582031 19.324219 22.601562 19.386719 22.582031 19.40625 C 22.558594 19.429688 22.519531 19.390625 22.492188 19.316406 Z M 21.351562 18.957031 C 21.324219 18.929688 21.300781 18.875 21.300781 18.832031 C 21.300781 18.785156 21.335938 18.792969 21.386719 18.84375 C 21.433594 18.890625 21.457031 18.945312 21.433594 18.96875 C 21.414062 18.988281 21.375 18.984375 21.351562 18.957031 Z M 21.085938 18.855469 C 21.085938 18.8125 21.121094 18.796875 21.160156 18.824219 C 21.199219 18.847656 21.230469 18.882812 21.230469 18.898438 C 21.230469 18.917969 21.199219 18.933594 21.160156 18.933594 C 21.121094 18.933594 21.085938 18.898438 21.085938 18.855469 Z M 21.371094 18.710938 C 21.285156 18.652344 21.285156 18.644531 21.390625 18.640625 C 21.5 18.640625 21.546875 18.566406 21.53125 18.417969 C 21.527344 18.394531 21.570312 18.375 21.625 18.375 C 21.699219 18.375 21.699219 18.414062 21.605469 18.5625 C 21.542969 18.664062 21.488281 18.757812 21.484375 18.765625 C 21.480469 18.773438 21.429688 18.746094 21.371094 18.710938 Z M 21.804688 18.335938 C 21.804688 18.289062 21.828125 18.273438 21.851562 18.300781 C 21.878906 18.324219 21.945312 18.289062 22 18.222656 C 22.089844 18.109375 22.09375 18.113281 22.023438 18.257812 C 21.9375 18.433594 21.804688 18.480469 21.804688 18.335938 Z M 20.75 18.09375 C 20.617188 17.949219 20.792969 17.742188 20.949219 17.859375 C 21.054688 17.941406 21.054688 17.960938 20.949219 18.070312 C 20.855469 18.164062 20.820312 18.171875 20.75 18.09375 Z M 20.90625 17.984375 C 20.933594 17.945312 20.917969 17.914062 20.875 17.914062 C 20.835938 17.914062 20.800781 17.945312 20.800781 17.984375 C 20.800781 18.023438 20.8125 18.058594 20.832031 18.058594 C 20.847656 18.058594 20.882812 18.023438 20.90625 17.984375 Z M 21.230469 17.550781 C 21.230469 17.507812 21.28125 17.476562 21.34375 17.476562 C 21.410156 17.476562 21.433594 17.441406 21.402344 17.390625 C 21.371094 17.339844 21.382812 17.328125 21.433594 17.359375 C 21.550781 17.429688 21.539062 17.457031 21.375 17.546875 C 21.277344 17.601562 21.230469 17.601562 21.230469 17.550781 Z M 24.226562 16.011719 C 24.277344 15.960938 24.335938 15.9375 24.355469 15.960938 C 24.378906 15.984375 24.339844 16.023438 24.269531 16.050781 C 24.164062 16.089844 24.15625 16.082031 24.226562 16.011719 Z M 19.1875 26.59375 C 19.164062 26.570312 19.105469 26.59375 19.058594 26.644531 C 18.988281 26.714844 18.996094 26.722656 19.097656 26.683594 C 19.167969 26.65625 19.207031 26.617188 19.1875 26.59375 Z M 20.753906 25.375 C 20.78125 25.308594 20.769531 25.28125 20.726562 25.304688 C 20.6875 25.328125 20.65625 25.378906 20.65625 25.417969 C 20.65625 25.523438 20.707031 25.5 20.753906 25.375 Z M 20.683594 25.082031 C 20.707031 25.015625 20.695312 24.988281 20.65625 25.011719 C 20.617188 25.039062 20.585938 25.089844 20.585938 25.125 C 20.585938 25.230469 20.636719 25.207031 20.683594 25.082031 Z M 17.683594 24.894531 C 17.714844 24.839844 17.703125 24.828125 17.652344 24.859375 C 17.605469 24.890625 17.566406 24.871094 17.566406 24.824219 C 17.566406 24.773438 17.546875 24.753906 17.523438 24.777344 C 17.484375 24.820312 17.546875 24.976562 17.605469 24.976562 C 17.617188 24.976562 17.65625 24.9375 17.683594 24.894531 Z M 21.445312 24.902344 C 21.445312 24.863281 21.414062 24.832031 21.375 24.832031 C 21.335938 24.832031 21.300781 24.863281 21.300781 24.902344 C 21.300781 24.945312 21.335938 24.976562 21.375 24.976562 C 21.414062 24.976562 21.445312 24.945312 21.445312 24.902344 Z M 17.886719 24.660156 C 17.769531 24.621094 17.652344 24.554688 17.621094 24.511719 C 17.585938 24.457031 17.570312 24.460938 17.570312 24.527344 C 17.570312 24.582031 17.632812 24.644531 17.710938 24.664062 C 17.789062 24.683594 17.855469 24.730469 17.855469 24.765625 C 17.855469 24.796875 17.910156 24.804688 17.976562 24.777344 C 18.074219 24.742188 18.054688 24.71875 17.886719 24.660156 Z M 18.339844 24.515625 C 18.390625 24.484375 18.414062 24.425781 18.390625 24.386719 C 18.367188 24.347656 18.386719 24.328125 18.433594 24.335938 C 18.660156 24.390625 19.078125 23.175781 19.074219 22.484375 C 19.074219 21.996094 18.929688 21.300781 18.683594 20.605469 C 18.359375 19.683594 18.070312 18.628906 18.066406 18.355469 L 18.0625 18.09375 L 17.890625 18.421875 C 17.796875 18.601562 17.621094 18.996094 17.503906 19.296875 C 17.25 19.945312 16.902344 20.742188 16.683594 21.171875 C 16.5625 21.40625 16.546875 21.511719 16.605469 21.609375 C 16.648438 21.679688 16.757812 22.003906 16.847656 22.332031 C 16.972656 22.773438 17.058594 22.949219 17.183594 23.015625 C 17.273438 23.066406 17.328125 23.136719 17.308594 23.171875 C 17.285156 23.207031 17.222656 23.179688 17.167969 23.105469 C 17.050781 22.945312 17.039062 23.003906 17.140625 23.273438 C 17.195312 23.421875 17.234375 23.449219 17.296875 23.386719 C 17.34375 23.339844 17.414062 23.300781 17.457031 23.304688 C 17.5 23.304688 17.476562 23.339844 17.40625 23.382812 C 17.335938 23.421875 17.296875 23.488281 17.320312 23.523438 C 17.34375 23.5625 17.304688 23.570312 17.238281 23.542969 C 17.15625 23.511719 17.128906 23.523438 17.164062 23.574219 C 17.191406 23.621094 17.273438 23.652344 17.347656 23.644531 C 17.425781 23.640625 17.472656 23.613281 17.457031 23.585938 C 17.4375 23.558594 17.464844 23.519531 17.515625 23.5 C 17.566406 23.480469 17.679688 23.316406 17.765625 23.136719 C 17.964844 22.734375 18.042969 21.910156 17.9375 21.277344 C 17.84375 20.699219 17.890625 20.539062 18.078125 20.78125 C 18.28125 21.042969 18.382812 21.648438 18.339844 22.351562 C 18.304688 22.875 18.257812 23.058594 18.035156 23.519531 C 17.890625 23.820312 17.738281 24.078125 17.703125 24.089844 C 17.664062 24.105469 17.671875 24.160156 17.71875 24.222656 C 17.785156 24.304688 17.78125 24.316406 17.691406 24.28125 C 17.632812 24.257812 17.5625 24.273438 17.535156 24.316406 C 17.507812 24.363281 17.53125 24.375 17.601562 24.347656 C 17.675781 24.320312 17.710938 24.347656 17.710938 24.4375 C 17.710938 24.558594 17.71875 24.558594 17.8125 24.429688 C 17.867188 24.351562 17.894531 24.25 17.875 24.195312 C 17.851562 24.128906 17.878906 24.117188 17.96875 24.152344 C 18.054688 24.183594 18.078125 24.171875 18.042969 24.113281 C 18.015625 24.066406 18.023438 24.03125 18.066406 24.03125 C 18.171875 24.03125 18.160156 24.144531 18.046875 24.261719 C 17.898438 24.414062 17.929688 24.589844 18.101562 24.582031 C 18.183594 24.574219 18.292969 24.546875 18.339844 24.515625 Z M 17.070312 22.8125 C 17.0625 22.664062 17.1875 22.640625 17.289062 22.773438 C 17.378906 22.886719 17.375 22.890625 17.269531 22.808594 C 17.171875 22.730469 17.144531 22.730469 17.113281 22.808594 C 17.089844 22.871094 17.074219 22.875 17.070312 22.8125 Z M 17.28125 22.617188 C 17.28125 22.605469 17.335938 22.546875 17.40625 22.492188 C 17.519531 22.402344 17.523438 22.402344 17.433594 22.519531 C 17.339844 22.640625 17.28125 22.679688 17.28125 22.617188 Z M 17.261719 22.273438 C 17.308594 22.222656 17.367188 22.199219 17.390625 22.222656 C 17.414062 22.246094 17.371094 22.285156 17.300781 22.3125 C 17.199219 22.351562 17.191406 22.34375 17.261719 22.273438 Z M 17.234375 21.90625 C 17.246094 21.773438 17.226562 21.613281 17.1875 21.554688 C 17.148438 21.492188 17.222656 21.554688 17.347656 21.6875 C 17.597656 21.953125 17.605469 22.085938 17.367188 22.125 C 17.230469 22.144531 17.210938 22.117188 17.234375 21.90625 Z M 17.355469 20.808594 L 17.355469 20.570312 L 17.449219 20.753906 C 17.546875 20.941406 17.539062 21.042969 17.421875 21.042969 C 17.382812 21.042969 17.351562 20.9375 17.355469 20.808594 Z M 12.011719 23.847656 C 11.953125 23.789062 11.882812 23.738281 11.855469 23.738281 C 11.828125 23.738281 11.84375 23.789062 11.894531 23.847656 C 11.945312 23.90625 12.015625 23.957031 12.050781 23.957031 C 12.089844 23.957031 12.070312 23.90625 12.011719 23.847656 Z M 12.972656 23.820312 C 12.972656 23.714844 12.765625 23.664062 12.710938 23.753906 C 12.683594 23.800781 12.695312 23.8125 12.742188 23.785156 C 12.78125 23.757812 12.839844 23.769531 12.863281 23.808594 C 12.917969 23.902344 12.972656 23.90625 12.972656 23.820312 Z M 10.84375 23.4375 C 10.695312 23.285156 10.546875 23.15625 10.511719 23.15625 C 10.480469 23.15625 10.367188 23.074219 10.261719 22.976562 C 10 22.730469 9.269531 22.375 8.824219 22.28125 C 8.371094 22.179688 7.199219 22.152344 6.582031 22.230469 C 6.3125 22.261719 6.152344 22.257812 6.207031 22.222656 C 6.257812 22.1875 6.289062 22.117188 6.277344 22.0625 C 6.222656 21.824219 7.75 21.644531 8.707031 21.777344 C 9.105469 21.832031 9.441406 21.941406 9.839844 22.140625 C 10.152344 22.292969 10.441406 22.402344 10.480469 22.378906 C 10.519531 22.351562 10.53125 22.367188 10.507812 22.40625 C 10.480469 22.449219 10.570312 22.558594 10.707031 22.652344 C 10.839844 22.746094 10.929688 22.855469 10.910156 22.890625 C 10.886719 22.929688 10.90625 22.9375 10.949219 22.90625 C 10.996094 22.878906 11.050781 22.90625 11.078125 22.96875 C 11.101562 23.03125 11.152344 23.082031 11.1875 23.082031 C 11.226562 23.082031 11.238281 23.054688 11.21875 23.019531 C 11.195312 22.980469 11.226562 22.933594 11.289062 22.910156 C 11.375 22.875 11.390625 22.898438 11.355469 23.011719 C 11.328125 23.097656 11.34375 23.15625 11.390625 23.15625 C 11.4375 23.15625 11.453125 23.125 11.429688 23.082031 C 11.402344 23.042969 11.433594 23.011719 11.496094 23.011719 C 11.558594 23.011719 11.609375 22.96875 11.609375 22.917969 C 11.609375 22.859375 11.632812 22.863281 11.675781 22.9375 C 11.726562 23.015625 11.710938 23.058594 11.621094 23.097656 C 11.535156 23.132812 11.558594 23.148438 11.707031 23.152344 C 11.890625 23.15625 11.902344 23.144531 11.816406 23.027344 C 11.574219 22.707031 11.363281 22.507812 11.296875 22.550781 C 11.257812 22.574219 11.246094 22.5625 11.269531 22.523438 C 11.332031 22.421875 11.109375 22.125 11.015625 22.183594 C 10.972656 22.210938 10.960938 22.199219 10.984375 22.15625 C 11.070312 22.015625 10.84375 21.898438 10.660156 21.988281 C 10.5 22.066406 10.5 22.066406 10.632812 21.957031 C 10.769531 21.847656 10.769531 21.839844 10.527344 21.628906 C 10.390625 21.511719 10.25 21.414062 10.21875 21.410156 C 10.183594 21.410156 10.070312 21.347656 9.964844 21.273438 C 9.417969 20.882812 8.296875 20.589844 7.335938 20.585938 C 7.019531 20.585938 6.8125 20.570312 6.882812 20.554688 C 6.949219 20.539062 6.988281 20.480469 6.964844 20.425781 C 6.910156 20.277344 7.558594 20.167969 8.210938 20.214844 C 8.730469 20.253906 9.386719 20.421875 9.8125 20.625 C 10.101562 20.765625 10.890625 21.34375 10.890625 21.414062 C 10.890625 21.449219 10.941406 21.480469 11 21.480469 C 11.066406 21.480469 11.09375 21.515625 11.0625 21.566406 C 11.027344 21.621094 11.058594 21.636719 11.164062 21.609375 C 11.25 21.585938 11.304688 21.59375 11.285156 21.625 C 11.265625 21.660156 11.347656 21.769531 11.46875 21.875 C 11.589844 21.980469 11.664062 22.0625 11.628906 22.066406 C 11.5625 22.066406 11.761719 22.207031 11.832031 22.207031 C 11.859375 22.207031 11.953125 22.101562 12.039062 21.972656 C 12.125 21.84375 12.175781 21.796875 12.152344 21.871094 C 12.125 21.957031 12.140625 21.992188 12.195312 21.972656 C 12.246094 21.957031 12.285156 21.832031 12.285156 21.695312 C 12.289062 21.503906 12.25 21.425781 12.128906 21.371094 C 12.039062 21.332031 11.964844 21.273438 11.964844 21.242188 C 11.964844 21.207031 12.003906 21.203125 12.050781 21.234375 C 12.097656 21.265625 12.113281 21.253906 12.082031 21.203125 C 12.003906 21.074219 11.832031 21.1875 11.863281 21.351562 C 11.894531 21.527344 11.964844 21.617188 11.964844 21.484375 C 11.964844 21.410156 11.988281 21.410156 12.074219 21.480469 C 12.132812 21.53125 12.183594 21.605469 12.183594 21.644531 C 12.183594 21.6875 12.144531 21.6875 12.085938 21.636719 C 12.03125 21.589844 11.96875 21.574219 11.945312 21.601562 C 11.917969 21.625 11.878906 21.59375 11.851562 21.527344 C 11.828125 21.460938 11.777344 21.425781 11.742188 21.449219 C 11.707031 21.472656 11.679688 21.453125 11.679688 21.414062 C 11.679688 21.371094 11.707031 21.335938 11.738281 21.335938 C 11.773438 21.335938 11.796875 21.285156 11.796875 21.222656 C 11.796875 21.15625 11.757812 21.125 11.699219 21.148438 C 11.640625 21.171875 11.621094 21.15625 11.648438 21.109375 C 11.671875 21.070312 11.738281 21.050781 11.792969 21.074219 C 11.847656 21.09375 11.914062 21.074219 11.9375 21.03125 C 11.964844 20.984375 11.957031 20.96875 11.921875 20.992188 C 11.882812 21.015625 11.777344 20.921875 11.6875 20.785156 C 11.59375 20.648438 11.484375 20.558594 11.445312 20.582031 C 11.402344 20.609375 11.390625 20.59375 11.417969 20.550781 C 11.535156 20.359375 10.285156 19.71875 9.625 19.628906 C 9.304688 19.585938 8.984375 19.417969 8.984375 19.296875 C 8.988281 19.042969 10.480469 19.308594 11.050781 19.660156 C 11.175781 19.738281 11.304688 19.777344 11.34375 19.753906 C 11.382812 19.730469 11.390625 19.75 11.363281 19.792969 C 11.316406 19.871094 11.40625 19.914062 11.558594 19.886719 C 11.589844 19.878906 11.597656 19.910156 11.570312 19.949219 C 11.5 20.070312 11.738281 20.125 11.878906 20.019531 C 11.984375 19.9375 11.988281 19.9375 11.914062 20.023438 C 11.804688 20.144531 11.792969 20.269531 11.894531 20.207031 C 11.933594 20.183594 11.964844 20.207031 11.964844 20.261719 C 11.964844 20.320312 12.046875 20.402344 12.144531 20.449219 C 12.246094 20.492188 12.324219 20.574219 12.324219 20.628906 C 12.324219 20.683594 12.382812 20.777344 12.449219 20.839844 C 12.558594 20.933594 12.601562 20.933594 12.757812 20.84375 L 12.9375 20.742188 L 12.738281 20.773438 C 12.628906 20.789062 12.539062 20.773438 12.539062 20.738281 C 12.539062 20.703125 12.5 20.695312 12.449219 20.726562 C 12.390625 20.761719 12.394531 20.742188 12.460938 20.65625 C 12.523438 20.578125 12.53125 20.535156 12.476562 20.535156 C 12.433594 20.535156 12.398438 20.476562 12.402344 20.40625 C 12.40625 20.328125 12.421875 20.316406 12.445312 20.371094 C 12.464844 20.421875 12.507812 20.445312 12.542969 20.421875 C 12.578125 20.402344 12.59375 20.449219 12.578125 20.53125 C 12.554688 20.648438 12.585938 20.679688 12.722656 20.679688 C 12.941406 20.679688 12.953125 20.515625 12.746094 20.375 C 12.628906 20.296875 12.605469 20.234375 12.648438 20.101562 C 12.6875 19.96875 12.714844 19.953125 12.761719 20.03125 C 12.796875 20.089844 12.824219 20.167969 12.824219 20.207031 C 12.824219 20.246094 12.792969 20.230469 12.757812 20.171875 C 12.699219 20.078125 12.6875 20.082031 12.6875 20.195312 C 12.683594 20.304688 12.722656 20.320312 12.859375 20.285156 C 12.957031 20.261719 13.054688 20.273438 13.078125 20.316406 C 13.105469 20.359375 13.074219 20.367188 13 20.339844 C 12.898438 20.300781 12.886719 20.316406 12.933594 20.429688 C 12.964844 20.507812 12.988281 20.628906 12.984375 20.699219 C 12.984375 20.773438 13.03125 20.824219 13.101562 20.824219 C 13.207031 20.824219 13.207031 20.8125 13.117188 20.753906 C 13.023438 20.691406 13.023438 20.683594 13.128906 20.679688 C 13.191406 20.679688 13.261719 20.722656 13.285156 20.769531 C 13.304688 20.824219 13.320312 20.808594 13.324219 20.734375 C 13.328125 20.664062 13.285156 20.605469 13.226562 20.605469 C 13.171875 20.605469 13.101562 20.570312 13.074219 20.523438 C 13.039062 20.464844 13.066406 20.449219 13.167969 20.476562 C 13.285156 20.507812 13.304688 20.488281 13.277344 20.375 C 13.253906 20.292969 13.195312 20.214844 13.140625 20.191406 C 13.085938 20.171875 13.042969 20.09375 13.042969 20.015625 C 13.042969 19.941406 13.011719 19.878906 12.972656 19.878906 C 12.933594 19.878906 12.898438 19.832031 12.898438 19.773438 C 12.898438 19.714844 12.871094 19.652344 12.835938 19.628906 C 12.800781 19.605469 12.785156 19.652344 12.808594 19.734375 C 12.835938 19.847656 12.820312 19.871094 12.722656 19.832031 C 12.65625 19.808594 12.628906 19.765625 12.660156 19.742188 C 12.796875 19.640625 12.746094 19.445312 12.542969 19.273438 C 12.421875 19.171875 12.324219 19.054688 12.324219 19.011719 C 12.324219 18.910156 12.070312 18.777344 12.003906 18.84375 C 11.976562 18.871094 11.964844 18.847656 11.976562 18.789062 C 12.011719 18.640625 10.988281 18.140625 10.46875 18.054688 C 9.835938 17.949219 8.707031 18.019531 8.195312 18.195312 C 7.144531 18.550781 6.6875 18.824219 6.019531 19.492188 C 5.222656 20.289062 4.90625 20.855469 4.898438 21.515625 C 4.886719 22.28125 5.328125 22.960938 6.007812 23.21875 C 6.367188 23.351562 7.113281 23.378906 7.714844 23.277344 C 8.507812 23.140625 9.761719 23.164062 10.117188 23.320312 C 10.265625 23.386719 10.386719 23.421875 10.386719 23.402344 C 10.386719 23.382812 10.523438 23.464844 10.691406 23.582031 C 11.097656 23.867188 11.183594 23.789062 10.84375 23.4375 Z M 11.066406 22.863281 C 11.042969 22.824219 11.050781 22.792969 11.082031 22.789062 C 11.113281 22.789062 11.097656 22.761719 11.042969 22.726562 C 10.976562 22.683594 10.96875 22.648438 11.023438 22.613281 C 11.070312 22.585938 11.105469 22.597656 11.105469 22.636719 C 11.105469 22.679688 11.167969 22.699219 11.25 22.683594 C 11.429688 22.648438 11.433594 22.730469 11.25 22.84375 C 11.164062 22.902344 11.09375 22.90625 11.066406 22.863281 Z M 10.671875 22.179688 C 10.671875 22.164062 10.722656 22.132812 10.785156 22.109375 C 10.847656 22.082031 10.878906 22.097656 10.851562 22.136719 C 10.808594 22.207031 10.671875 22.238281 10.671875 22.179688 Z M 11.75 22 C 11.75 21.960938 11.796875 21.914062 11.855469 21.894531 C 11.925781 21.867188 11.945312 21.886719 11.917969 21.957031 C 11.875 22.074219 11.75 22.101562 11.75 22 Z M 11.175781 21.402344 C 11.175781 21.363281 11.207031 21.347656 11.25 21.371094 C 11.289062 21.398438 11.320312 21.429688 11.320312 21.449219 C 11.320312 21.464844 11.289062 21.480469 11.25 21.480469 C 11.207031 21.480469 11.175781 21.445312 11.175781 21.402344 Z M 11.320312 21.148438 C 11.320312 21.140625 11.363281 21.097656 11.414062 21.054688 C 11.488281 20.992188 11.511719 20.996094 11.511719 21.070312 C 11.511719 21.121094 11.46875 21.164062 11.414062 21.164062 C 11.363281 21.164062 11.320312 21.160156 11.320312 21.148438 Z M 12.71875 20.535156 C 12.695312 20.496094 12.710938 20.460938 12.753906 20.460938 C 12.792969 20.460938 12.828125 20.496094 12.828125 20.535156 C 12.828125 20.574219 12.8125 20.605469 12.796875 20.605469 C 12.777344 20.605469 12.746094 20.574219 12.71875 20.535156 Z M 12.21875 20.316406 C 12.242188 20.277344 12.277344 20.242188 12.292969 20.242188 C 12.3125 20.242188 12.324219 20.277344 12.324219 20.316406 C 12.324219 20.355469 12.292969 20.386719 12.25 20.386719 C 12.207031 20.386719 12.191406 20.355469 12.21875 20.316406 Z M 12.269531 19.9375 C 12.28125 19.886719 12.234375 19.84375 12.167969 19.839844 C 12.101562 19.839844 12.023438 19.8125 11.988281 19.773438 C 11.957031 19.738281 11.96875 19.730469 12.015625 19.757812 C 12.058594 19.785156 12.109375 19.769531 12.125 19.726562 C 12.136719 19.683594 12.207031 19.710938 12.277344 19.792969 C 12.363281 19.890625 12.378906 19.953125 12.328125 19.984375 C 12.285156 20.011719 12.257812 19.992188 12.269531 19.9375 Z M 11.757812 19.761719 C 11.761719 19.679688 11.777344 19.660156 11.800781 19.71875 C 11.820312 19.773438 11.816406 19.835938 11.792969 19.859375 C 11.769531 19.882812 11.753906 19.839844 11.757812 19.761719 Z M 12.324219 19.660156 C 12.230469 19.597656 12.230469 19.589844 12.324219 19.585938 C 12.410156 19.585938 12.414062 19.574219 12.335938 19.523438 C 12.257812 19.472656 12.257812 19.457031 12.339844 19.421875 C 12.410156 19.398438 12.441406 19.441406 12.441406 19.558594 C 12.441406 19.65625 12.4375 19.734375 12.4375 19.730469 C 12.433594 19.730469 12.382812 19.699219 12.324219 19.660156 Z M 11.824219 19.414062 C 11.824219 19.398438 11.871094 19.363281 11.933594 19.339844 C 12 19.316406 12.027344 19.328125 12 19.371094 C 11.960938 19.4375 11.824219 19.472656 11.824219 19.414062 Z M 11.105469 19.300781 C 11.105469 19.261719 11.136719 19.210938 11.175781 19.1875 C 11.214844 19.160156 11.226562 19.191406 11.203125 19.257812 C 11.15625 19.382812 11.105469 19.40625 11.105469 19.300781 Z M 12.132812 19.042969 C 12.132812 18.984375 12.160156 18.957031 12.195312 18.976562 C 12.226562 18.996094 12.238281 19.046875 12.214844 19.082031 C 12.15625 19.179688 12.132812 19.167969 12.132812 19.042969 Z M 21.496094 23.570312 C 21.566406 23.480469 21.707031 23.347656 21.804688 23.28125 C 21.902344 23.210938 21.9375 23.15625 21.890625 23.15625 C 21.839844 23.15625 21.816406 23.125 21.839844 23.082031 C 21.867188 23.042969 21.832031 23.011719 21.765625 23.011719 C 21.691406 23.011719 21.660156 23.050781 21.6875 23.117188 C 21.707031 23.175781 21.691406 23.246094 21.648438 23.273438 C 21.597656 23.304688 21.589844 23.289062 21.625 23.230469 C 21.664062 23.164062 21.65625 23.152344 21.601562 23.183594 C 21.554688 23.214844 21.519531 23.207031 21.519531 23.167969 C 21.519531 23.132812 21.4375 23.085938 21.339844 23.066406 C 21.242188 23.046875 21.179688 23.058594 21.203125 23.09375 C 21.222656 23.128906 21.28125 23.15625 21.332031 23.15625 C 21.484375 23.15625 21.589844 23.328125 21.515625 23.449219 C 21.46875 23.523438 21.449219 23.527344 21.445312 23.464844 C 21.445312 23.40625 21.402344 23.417969 21.3125 23.5 C 21.183594 23.628906 21.179688 23.738281 21.300781 23.738281 C 21.335938 23.738281 21.421875 23.664062 21.496094 23.570312 Z M 11.980469 23.523438 C 12.089844 23.394531 12.089844 23.375 11.984375 23.289062 C 11.914062 23.230469 11.886719 23.226562 11.917969 23.277344 C 11.996094 23.410156 11.894531 23.589844 11.761719 23.546875 C 11.660156 23.511719 11.660156 23.515625 11.75 23.585938 C 11.808594 23.628906 11.859375 23.664062 11.859375 23.664062 C 11.863281 23.664062 11.917969 23.601562 11.980469 23.523438 Z M 12.683594 23.414062 C 12.683594 23.398438 12.652344 23.363281 12.613281 23.339844 C 12.574219 23.3125 12.539062 23.328125 12.539062 23.371094 C 12.539062 23.414062 12.574219 23.449219 12.613281 23.449219 C 12.652344 23.449219 12.683594 23.433594 12.683594 23.414062 Z M 12.910156 23.289062 C 12.875 23.199219 12.804688 23.113281 12.75 23.097656 C 12.683594 23.082031 12.675781 23.09375 12.726562 23.132812 C 12.769531 23.164062 12.824219 23.25 12.847656 23.320312 C 12.875 23.390625 12.910156 23.449219 12.929688 23.449219 C 12.949219 23.449219 12.941406 23.375 12.910156 23.289062 Z M 11.714844 23.300781 C 11.738281 23.261719 11.707031 23.230469 11.644531 23.230469 C 11.578125 23.230469 11.546875 23.261719 11.570312 23.300781 C 11.597656 23.339844 11.628906 23.375 11.644531 23.375 C 11.660156 23.375 11.691406 23.339844 11.714844 23.300781 Z M 12.445312 23.050781 C 12.421875 22.992188 12.445312 22.929688 12.492188 22.910156 C 12.539062 22.890625 12.519531 22.875 12.449219 22.871094 C 12.382812 22.867188 12.324219 22.878906 12.324219 22.894531 C 12.324219 22.964844 12.414062 23.15625 12.449219 23.15625 C 12.46875 23.15625 12.464844 23.109375 12.445312 23.050781 Z M 12.234375 22.796875 C 12.179688 22.582031 12.335938 22.570312 12.550781 22.769531 C 12.675781 22.886719 12.757812 22.921875 12.789062 22.867188 C 12.816406 22.824219 12.8125 22.792969 12.78125 22.796875 C 12.632812 22.824219 12.585938 22.78125 12.683594 22.710938 C 12.777344 22.644531 12.773438 22.636719 12.671875 22.671875 C 12.605469 22.691406 12.511719 22.664062 12.464844 22.605469 C 12.417969 22.550781 12.355469 22.519531 12.324219 22.539062 C 12.292969 22.558594 12.214844 22.554688 12.15625 22.53125 C 12.070312 22.5 12.066406 22.464844 12.125 22.398438 C 12.21875 22.296875 12.492188 22.257812 12.433594 22.355469 C 12.414062 22.390625 12.425781 22.4375 12.464844 22.460938 C 12.503906 22.484375 12.519531 22.4375 12.503906 22.351562 C 12.480469 22.234375 12.503906 22.207031 12.582031 22.238281 C 12.65625 22.265625 12.675781 22.25 12.636719 22.191406 C 12.605469 22.140625 12.578125 22.066406 12.578125 22.027344 C 12.578125 21.988281 12.519531 21.945312 12.449219 21.933594 C 12.382812 21.917969 12.324219 21.945312 12.324219 21.992188 C 12.324219 22.046875 12.265625 22.066406 12.179688 22.042969 C 12.058594 22.007812 12.039062 22.027344 12.078125 22.152344 C 12.105469 22.242188 12.085938 22.324219 12.027344 22.367188 C 11.949219 22.417969 11.949219 22.445312 12.046875 22.519531 C 12.164062 22.613281 12.183594 22.648438 12.183594 22.828125 C 12.183594 22.886719 12.203125 22.9375 12.226562 22.9375 C 12.25 22.9375 12.253906 22.875 12.234375 22.796875 Z M 12.183594 22.175781 C 12.183594 22.121094 12.394531 22.074219 12.425781 22.125 C 12.445312 22.15625 12.398438 22.183594 12.320312 22.191406 C 12.246094 22.195312 12.183594 22.1875 12.183594 22.175781 Z M 13.117188 21.765625 C 13.035156 21.707031 13.03125 21.679688 13.097656 21.652344 C 13.148438 21.632812 13.167969 21.582031 13.144531 21.542969 C 13.121094 21.503906 13.167969 21.453125 13.25 21.429688 C 13.335938 21.410156 13.402344 21.335938 13.402344 21.273438 C 13.402344 21.191406 13.382812 21.179688 13.347656 21.242188 C 13.285156 21.335938 13.136719 21.332031 12.980469 21.234375 C 12.898438 21.179688 12.898438 21.160156 12.980469 21.101562 C 13.046875 21.058594 13.019531 21.050781 12.898438 21.085938 C 12.800781 21.113281 12.710938 21.144531 12.699219 21.152344 C 12.65625 21.191406 12.777344 21.40625 12.84375 21.40625 C 12.886719 21.40625 12.878906 21.363281 12.828125 21.300781 C 12.777344 21.238281 12.769531 21.191406 12.8125 21.191406 C 12.953125 21.191406 13.046875 21.375 12.953125 21.480469 C 12.882812 21.554688 12.882812 21.5625 12.964844 21.515625 C 13.042969 21.472656 13.054688 21.488281 13.019531 21.585938 C 12.964844 21.734375 13.015625 21.84375 13.136719 21.84375 C 13.191406 21.84375 13.183594 21.8125 13.117188 21.765625 Z M 13.382812 21.609375 C 13.394531 21.480469 13.382812 21.46875 13.328125 21.554688 C 13.246094 21.6875 13.242188 21.773438 13.316406 21.773438 C 13.347656 21.773438 13.378906 21.699219 13.382812 21.609375 Z M 21.109375 21.230469 C 21.15625 21.253906 21.136719 21.226562 21.066406 21.167969 C 20.996094 21.105469 20.960938 21.011719 20.984375 20.945312 C 21.007812 20.882812 20.976562 20.777344 20.914062 20.714844 C 20.8125 20.609375 20.800781 20.609375 20.800781 20.710938 C 20.800781 20.773438 20.828125 20.824219 20.859375 20.824219 C 20.890625 20.824219 20.917969 20.882812 20.917969 20.953125 C 20.917969 21.023438 20.929688 21.179688 20.941406 21.300781 C 20.960938 21.484375 20.96875 21.492188 20.996094 21.351562 C 21.011719 21.257812 21.0625 21.207031 21.109375 21.230469 Z M 13.355469 21.09375 C 13.382812 21.121094 13.402344 21.082031 13.402344 21.007812 C 13.402344 20.933594 13.382812 20.894531 13.363281 20.914062 C 13.339844 20.9375 13.226562 20.929688 13.109375 20.898438 C 12.988281 20.863281 12.898438 20.863281 12.898438 20.902344 C 12.898438 20.9375 12.847656 20.945312 12.78125 20.921875 C 12.703125 20.890625 12.679688 20.902344 12.710938 20.953125 C 12.738281 21 12.855469 21.023438 12.96875 21.007812 C 13.140625 20.988281 13.171875 21.003906 13.132812 21.105469 C 13.097656 21.207031 13.105469 21.210938 13.199219 21.136719 C 13.257812 21.085938 13.328125 21.066406 13.355469 21.09375 Z M 16.230469 20.5625 C 16.257812 20.5 16.253906 20.414062 16.230469 20.371094 C 16.203125 20.328125 16.214844 20.3125 16.257812 20.339844 C 16.421875 20.445312 16.515625 19.839844 16.523438 18.605469 C 16.53125 17.394531 16.535156 17.351562 16.757812 16.800781 C 16.996094 16.203125 17.214844 15.867188 18.433594 14.230469 C 19.367188 12.976562 19.699219 12.417969 20.082031 11.4375 C 20.546875 10.246094 20.679688 9.585938 20.679688 8.480469 C 20.679688 7.375 20.535156 6.726562 20.082031 5.769531 C 19.742188 5.046875 19.402344 4.613281 18.824219 4.171875 C 17.902344 3.464844 17.035156 3.199219 15.609375 3.1875 C 13.4375 3.171875 11.175781 4.097656 9.523438 5.675781 C 9.269531 5.921875 8.816406 6.308594 8.519531 6.53125 C 7.820312 7.058594 7.023438 7.871094 6.703125 8.382812 C 6.425781 8.820312 6 9.863281 5.804688 10.582031 C 5.660156 11.125 5.644531 12.3125 5.78125 12.886719 C 5.921875 13.488281 6.527344 14.695312 6.902344 15.125 C 7.089844 15.335938 7.433594 15.617188 7.679688 15.753906 C 8.089844 15.980469 8.160156 16 8.589844 15.964844 C 8.847656 15.945312 9.082031 15.90625 9.113281 15.875 C 9.144531 15.847656 8.925781 15.714844 8.625 15.582031 C 7.234375 14.964844 6.507812 13.648438 6.507812 11.738281 C 6.507812 10.808594 6.671875 10.046875 7.015625 9.398438 C 7.371094 8.714844 8.121094 7.816406 8.640625 7.4375 C 8.898438 7.25 9.488281 6.757812 9.945312 6.339844 C 10.84375 5.523438 11.320312 5.183594 11.871094 4.957031 C 12.0625 4.878906 12.414062 4.730469 12.65625 4.628906 C 13.523438 4.257812 14.382812 4.066406 15.378906 4.027344 C 16.5 3.976562 16.996094 4.058594 17.675781 4.398438 C 18.753906 4.9375 19.609375 6.066406 19.800781 7.207031 C 19.878906 7.667969 19.898438 9.234375 19.832031 9.652344 C 19.613281 11.015625 18.875 12.59375 17.894531 13.796875 C 16.980469 14.914062 16.199219 16.144531 15.941406 16.867188 C 15.789062 17.285156 15.773438 17.460938 15.773438 18.503906 C 15.773438 19.671875 15.851562 20.242188 16.027344 20.390625 C 16.082031 20.4375 16.105469 20.519531 16.082031 20.574219 C 16.0625 20.632812 16.078125 20.679688 16.117188 20.679688 C 16.15625 20.679688 16.207031 20.628906 16.230469 20.5625 Z M 7.226562 20.425781 C 7.226562 20.363281 7.214844 20.316406 7.199219 20.316406 C 7.183594 20.316406 7.152344 20.363281 7.128906 20.425781 C 7.105469 20.484375 7.117188 20.535156 7.15625 20.535156 C 7.195312 20.535156 7.226562 20.484375 7.226562 20.425781 Z M 20.886719 20.15625 C 20.832031 20.101562 20.800781 20.097656 20.800781 20.144531 C 20.800781 20.183594 20.820312 20.242188 20.847656 20.265625 C 20.875 20.292969 20.914062 20.296875 20.933594 20.277344 C 20.953125 20.257812 20.929688 20.203125 20.886719 20.15625 Z M 20.871094 19.914062 C 20.871094 19.855469 20.84375 19.804688 20.8125 19.804688 C 20.777344 19.804688 20.75 19.855469 20.75 19.914062 C 20.75 19.976562 20.777344 20.023438 20.8125 20.023438 C 20.84375 20.023438 20.871094 19.976562 20.871094 19.914062 Z M 21.160156 19.882812 C 21.160156 19.84375 21.109375 19.828125 21.050781 19.851562 C 20.992188 19.875 20.945312 19.90625 20.945312 19.921875 C 20.945312 19.9375 20.992188 19.953125 21.050781 19.953125 C 21.109375 19.953125 21.160156 19.917969 21.160156 19.882812 Z M 21.113281 19.699219 C 21.242188 19.597656 21.242188 19.59375 21.09375 19.605469 C 21.011719 19.613281 20.945312 19.644531 20.945312 19.671875 C 20.945312 19.703125 20.886719 19.710938 20.816406 19.6875 C 20.710938 19.652344 20.707031 19.660156 20.800781 19.726562 C 20.9375 19.824219 20.949219 19.824219 21.113281 19.699219 Z M 20.726562 18.464844 C 20.726562 18.449219 20.664062 18.453125 20.585938 18.472656 C 20.503906 18.496094 20.441406 18.542969 20.441406 18.578125 C 20.441406 18.617188 20.503906 18.609375 20.585938 18.566406 C 20.664062 18.523438 20.726562 18.476562 20.726562 18.464844 Z M 20.65625 18.269531 C 20.65625 18.226562 20.625 18.214844 20.585938 18.238281 C 20.542969 18.265625 20.511719 18.316406 20.511719 18.359375 C 20.511719 18.398438 20.542969 18.410156 20.585938 18.386719 C 20.625 18.359375 20.65625 18.308594 20.65625 18.269531 Z M 17.398438 17.867188 C 17.472656 17.75 17.457031 17.730469 17.308594 17.71875 C 17.214844 17.714844 17.136719 17.742188 17.136719 17.777344 C 17.136719 17.816406 17.167969 17.828125 17.203125 17.804688 C 17.242188 17.785156 17.292969 17.796875 17.316406 17.839844 C 17.339844 17.878906 17.3125 17.914062 17.25 17.914062 C 17.175781 17.914062 17.136719 17.980469 17.136719 18.113281 C 17.140625 18.308594 17.140625 18.308594 17.226562 18.15625 C 17.277344 18.074219 17.355469 17.941406 17.398438 17.867188 Z M 17.511719 17.589844 C 17.601562 17.679688 17.929688 16.9375 18.097656 16.269531 L 18.277344 15.546875 L 18 15.875 C 17.605469 16.339844 17.316406 16.941406 17.421875 17.070312 C 17.476562 17.140625 17.480469 17.1875 17.425781 17.21875 C 17.382812 17.246094 17.367188 17.292969 17.386719 17.328125 C 17.441406 17.417969 17.347656 17.625 17.273438 17.578125 C 17.238281 17.558594 17.210938 17.507812 17.210938 17.46875 C 17.210938 17.425781 17.246094 17.417969 17.292969 17.445312 C 17.347656 17.480469 17.363281 17.460938 17.332031 17.378906 C 17.308594 17.316406 17.320312 17.242188 17.355469 17.21875 C 17.394531 17.195312 17.40625 17.144531 17.382812 17.105469 C 17.316406 16.992188 17.230469 17.09375 17.179688 17.339844 C 17.132812 17.589844 17.246094 17.742188 17.394531 17.617188 C 17.4375 17.582031 17.492188 17.566406 17.511719 17.589844 Z M 17.507812 17.402344 C 17.507812 17.300781 17.523438 17.261719 17.542969 17.3125 C 17.5625 17.363281 17.5625 17.445312 17.542969 17.492188 C 17.523438 17.542969 17.507812 17.503906 17.507812 17.402344 Z M 13.894531 17.378906 C 13.953125 17.304688 13.949219 17.28125 13.878906 17.28125 C 13.828125 17.28125 13.785156 17.324219 13.785156 17.378906 C 13.785156 17.433594 13.792969 17.476562 13.800781 17.476562 C 13.808594 17.476562 13.851562 17.433594 13.894531 17.378906 Z M 13.828125 16.910156 C 13.925781 16.832031 13.925781 16.820312 13.832031 16.835938 C 13.773438 16.847656 13.734375 16.8125 13.746094 16.757812 C 13.785156 16.574219 13.679688 16.382812 13.542969 16.382812 C 13.464844 16.382812 13.402344 16.347656 13.402344 16.304688 C 13.402344 16.261719 13.433594 16.246094 13.46875 16.269531 C 13.601562 16.351562 13.621094 16.167969 13.496094 16.035156 C 13.425781 15.957031 13.355469 15.851562 13.34375 15.792969 C 13.332031 15.738281 13.273438 15.640625 13.21875 15.578125 C 13.160156 15.511719 13.113281 15.429688 13.113281 15.394531 C 13.113281 15.355469 12.882812 15.066406 12.605469 14.746094 C 11.84375 13.875 10.917969 13.273438 9.847656 12.953125 C 9.394531 12.816406 9.023438 12.679688 9.023438 12.644531 C 9.023438 12.613281 9.054688 12.609375 9.09375 12.632812 C 9.132812 12.65625 9.144531 12.628906 9.121094 12.5625 C 9.066406 12.421875 9.144531 12.421875 9.847656 12.558594 C 10.457031 12.675781 11.4375 13.140625 11.996094 13.570312 C 12.183594 13.714844 12.367188 13.816406 12.402344 13.792969 C 12.4375 13.773438 12.445312 13.8125 12.421875 13.886719 C 12.394531 13.957031 12.398438 13.992188 12.429688 13.96875 C 12.457031 13.941406 12.578125 14.03125 12.699219 14.167969 C 12.816406 14.304688 12.949219 14.394531 12.988281 14.367188 C 13.03125 14.34375 13.046875 14.355469 13.019531 14.394531 C 12.996094 14.433594 13.050781 14.535156 13.140625 14.613281 C 13.234375 14.695312 13.429688 14.960938 13.578125 15.207031 C 13.722656 15.453125 13.875 15.636719 13.910156 15.617188 C 13.945312 15.59375 13.957031 15.625 13.933594 15.6875 C 13.910156 15.75 13.949219 15.890625 14.019531 16 C 14.09375 16.109375 14.144531 16.226562 14.136719 16.261719 C 14.125 16.296875 14.183594 16.339844 14.261719 16.359375 C 14.339844 16.382812 14.386719 16.433594 14.363281 16.472656 C 14.335938 16.511719 14.382812 16.507812 14.464844 16.464844 C 14.582031 16.398438 14.628906 16.210938 14.546875 16.109375 C 14.539062 16.101562 14.53125 16.050781 14.523438 16 C 14.519531 15.949219 14.449219 15.914062 14.367188 15.917969 C 14.167969 15.925781 14.175781 15.753906 14.382812 15.527344 C 14.476562 15.425781 14.550781 15.3125 14.550781 15.273438 C 14.550781 15.234375 14.488281 15.277344 14.410156 15.375 C 14.332031 15.46875 14.269531 15.515625 14.265625 15.476562 C 14.265625 15.4375 14.214844 15.472656 14.15625 15.550781 C 14.050781 15.6875 14.050781 15.6875 14.097656 15.550781 C 14.128906 15.457031 14.121094 15.429688 14.0625 15.464844 C 14.011719 15.496094 13.976562 15.476562 13.976562 15.421875 C 13.976562 15.351562 13.953125 15.355469 13.898438 15.4375 C 13.832031 15.535156 13.824219 15.535156 13.851562 15.4375 C 13.886719 15.308594 14.058594 15.289062 14.144531 15.398438 C 14.179688 15.441406 14.191406 15.414062 14.175781 15.328125 C 14.15625 15.246094 14.195312 15.128906 14.257812 15.070312 C 14.402344 14.925781 14.710938 14.929688 14.75 15.070312 C 14.765625 15.136719 14.753906 15.152344 14.71875 15.109375 C 14.652344 15.027344 14.480469 14.976562 14.480469 15.039062 C 14.480469 15.0625 14.558594 15.164062 14.652344 15.265625 C 14.832031 15.464844 15.003906 15.445312 14.9375 15.234375 C 14.90625 15.132812 14.910156 15.128906 14.972656 15.214844 C 15.011719 15.273438 15.03125 15.34375 15.011719 15.375 C 14.996094 15.402344 15.011719 15.445312 15.054688 15.472656 C 15.09375 15.496094 15.125 15.449219 15.125 15.367188 C 15.125 15.285156 15.15625 15.21875 15.195312 15.21875 C 15.234375 15.21875 15.246094 15.273438 15.21875 15.339844 C 15.191406 15.417969 15.203125 15.441406 15.253906 15.410156 C 15.296875 15.382812 15.347656 15.417969 15.367188 15.488281 C 15.382812 15.5625 15.394531 15.480469 15.390625 15.308594 C 15.382812 15.109375 15.34375 15 15.285156 15 C 15.230469 15 15.207031 15.027344 15.230469 15.066406 C 15.261719 15.117188 15.148438 15.125 15 15.078125 C 14.992188 15.074219 15.046875 15.007812 15.125 14.925781 C 15.304688 14.746094 15.3125 14.5625 15.144531 14.5625 C 15.039062 14.558594 15.035156 14.550781 15.125 14.492188 C 15.214844 14.433594 15.210938 14.40625 15.101562 14.28125 C 15.03125 14.203125 14.964844 14.09375 14.953125 14.039062 C 14.941406 13.988281 14.910156 13.878906 14.878906 13.796875 C 14.851562 13.71875 14.792969 13.5625 14.753906 13.453125 C 14.710938 13.34375 14.652344 13.269531 14.617188 13.292969 C 14.582031 13.3125 14.570312 13.289062 14.585938 13.238281 C 14.652344 13.058594 13.777344 11.753906 13.246094 11.242188 C 12.347656 10.371094 11.769531 10.03125 10.476562 9.613281 C 10.070312 9.484375 9.738281 9.34375 9.738281 9.300781 C 9.738281 9.257812 9.785156 9.265625 9.847656 9.316406 C 9.933594 9.390625 9.960938 9.386719 10 9.285156 C 10.039062 9.179688 10.105469 9.167969 10.371094 9.207031 C 10.546875 9.234375 10.761719 9.285156 10.84375 9.320312 C 10.929688 9.355469 11.222656 9.453125 11.5 9.539062 C 12.660156 9.898438 13.476562 10.636719 14.726562 12.460938 C 14.84375 12.628906 14.949219 12.730469 14.964844 12.679688 C 14.980469 12.632812 15.027344 12.613281 15.0625 12.636719 C 15.105469 12.664062 15.101562 12.71875 15.050781 12.78125 C 14.949219 12.910156 15.035156 13.054688 15.179688 13 C 15.269531 12.964844 15.273438 12.976562 15.199219 13.066406 C 15.132812 13.148438 15.132812 13.179688 15.195312 13.179688 C 15.242188 13.179688 15.261719 13.207031 15.242188 13.238281 C 15.191406 13.324219 15.433594 13.953125 15.585938 14.136719 C 15.699219 14.273438 15.71875 14.273438 15.882812 14.164062 C 15.980469 14.101562 16.0625 14.074219 16.0625 14.105469 C 16.0625 14.136719 16.097656 14.101562 16.140625 14.027344 C 16.183594 13.957031 16.199219 13.875 16.175781 13.851562 C 16.152344 13.828125 16.132812 13.847656 16.132812 13.894531 C 16.132812 13.941406 16.097656 13.980469 16.054688 13.980469 C 16.015625 13.980469 16 13.945312 16.023438 13.90625 C 16.089844 13.796875 15.992188 13.53125 15.90625 13.585938 C 15.863281 13.613281 15.84375 13.710938 15.863281 13.804688 C 15.882812 13.910156 15.867188 13.957031 15.820312 13.929688 C 15.777344 13.902344 15.765625 13.929688 15.792969 13.996094 C 15.820312 14.074219 15.796875 14.105469 15.71875 14.09375 C 15.652344 14.085938 15.589844 14.03125 15.574219 13.972656 C 15.550781 13.890625 15.558594 13.890625 15.613281 13.96875 C 15.660156 14.039062 15.710938 13.972656 15.785156 13.734375 C 15.855469 13.523438 15.871094 13.371094 15.828125 13.308594 C 15.773438 13.234375 15.765625 13.238281 15.792969 13.324219 C 15.808594 13.382812 15.757812 13.5 15.679688 13.578125 C 15.5625 13.695312 15.542969 13.703125 15.578125 13.601562 C 15.601562 13.535156 15.597656 13.464844 15.570312 13.449219 C 15.542969 13.433594 15.558594 13.429688 15.605469 13.441406 C 15.648438 13.453125 15.703125 13.390625 15.726562 13.308594 C 15.753906 13.199219 15.796875 13.171875 15.894531 13.214844 C 16.035156 13.273438 16.125 13.277344 16.453125 13.257812 C 16.664062 13.242188 16.664062 13.242188 16.5 13.171875 C 16.394531 13.128906 16.347656 13.066406 16.371094 13 C 16.394531 12.941406 16.382812 12.871094 16.34375 12.847656 C 16.277344 12.804688 16.253906 12.875 16.257812 13.125 C 16.257812 13.234375 16.238281 13.238281 16.144531 13.160156 C 16.050781 13.085938 16.042969 13.085938 16.09375 13.171875 C 16.136719 13.242188 16.128906 13.257812 16.070312 13.222656 C 16.023438 13.191406 16.007812 13.132812 16.03125 13.09375 C 16.0625 13.042969 16 13.035156 15.855469 13.066406 C 15.660156 13.109375 15.636719 13.101562 15.675781 12.992188 C 15.710938 12.898438 15.699219 12.878906 15.628906 12.921875 C 15.570312 12.960938 15.550781 12.953125 15.582031 12.90625 C 15.609375 12.863281 15.578125 12.773438 15.515625 12.710938 C 15.414062 12.605469 15.414062 12.597656 15.535156 12.59375 C 15.65625 12.59375 15.65625 12.585938 15.539062 12.515625 C 15.46875 12.476562 15.414062 12.386719 15.414062 12.320312 C 15.410156 12.222656 15.398438 12.21875 15.351562 12.292969 C 15.304688 12.363281 15.28125 12.34375 15.253906 12.207031 C 15.234375 12.105469 15.246094 11.980469 15.28125 11.925781 C 15.335938 11.839844 15.371094 11.894531 15.351562 12.03125 C 15.34375 12.0625 15.378906 12.078125 15.429688 12.066406 C 15.476562 12.058594 15.515625 12.082031 15.519531 12.121094 C 15.523438 12.164062 15.574219 12.277344 15.628906 12.378906 C 15.683594 12.476562 15.738281 12.609375 15.746094 12.667969 C 15.757812 12.726562 15.800781 12.789062 15.847656 12.804688 C 15.90625 12.824219 15.902344 12.851562 15.835938 12.894531 C 15.769531 12.933594 15.816406 12.949219 15.96875 12.941406 C 16.097656 12.929688 16.21875 12.878906 16.238281 12.824219 C 16.269531 12.746094 16.300781 12.746094 16.378906 12.8125 C 16.4375 12.859375 16.464844 12.945312 16.441406 13.003906 C 16.417969 13.070312 16.449219 13.105469 16.539062 13.101562 C 16.609375 13.097656 16.632812 13.078125 16.589844 13.058594 C 16.542969 13.042969 16.523438 12.960938 16.542969 12.882812 C 16.5625 12.804688 16.546875 12.742188 16.507812 12.742188 C 16.46875 12.742188 16.398438 12.589844 16.351562 12.402344 C 16.304688 12.214844 16.214844 11.960938 16.148438 11.839844 C 16.085938 11.714844 16.027344 11.578125 16.019531 11.535156 C 16.011719 11.488281 15.917969 11.316406 15.816406 11.152344 C 15.710938 10.984375 15.644531 10.847656 15.667969 10.847656 C 15.691406 10.847656 15.648438 10.757812 15.570312 10.648438 C 15.496094 10.539062 15.367188 10.316406 15.285156 10.15625 C 14.941406 9.480469 13.792969 8.320312 12.953125 7.800781 C 12.609375 7.589844 12.324219 7.398438 12.324219 7.378906 C 12.324219 7.359375 12.359375 7.363281 12.398438 7.390625 C 12.4375 7.414062 12.46875 7.382812 12.46875 7.316406 C 12.46875 7.242188 12.433594 7.21875 12.378906 7.25 C 12.3125 7.289062 12.308594 7.277344 12.371094 7.210938 C 12.433594 7.144531 12.527344 7.164062 12.800781 7.296875 C 13.273438 7.53125 14.097656 8.085938 14.503906 8.449219 C 14.796875 8.710938 15.699219 9.773438 15.699219 9.859375 C 15.699219 9.875 15.867188 10.179688 16.070312 10.53125 C 16.273438 10.886719 16.527344 11.382812 16.636719 11.636719 C 16.746094 11.894531 16.851562 12.066406 16.878906 12.027344 C 16.902344 11.988281 16.902344 11.90625 16.882812 11.84375 C 16.859375 11.785156 16.875 11.714844 16.917969 11.6875 C 16.960938 11.660156 16.976562 11.691406 16.953125 11.773438 C 16.933594 11.847656 16.957031 11.832031 17.003906 11.738281 C 17.117188 11.519531 17.03125 11.449219 16.851562 11.609375 C 16.714844 11.738281 16.710938 11.734375 16.75 11.566406 C 16.773438 11.472656 16.792969 11.355469 16.796875 11.304688 C 16.800781 11.257812 16.828125 11.234375 16.863281 11.257812 C 16.964844 11.320312 16.925781 11.109375 16.75 10.652344 C 16.566406 10.175781 16.25 9.660156 16.1875 9.726562 C 16.164062 9.746094 16.152344 9.707031 16.15625 9.632812 C 16.164062 9.558594 16.125 9.507812 16.074219 9.519531 C 16.019531 9.53125 15.996094 9.511719 16.015625 9.480469 C 16.066406 9.398438 15.917969 8.980469 15.71875 8.640625 C 15.527344 8.3125 15.519531 8.269531 15.667969 8.328125 C 15.738281 8.351562 15.761719 8.339844 15.734375 8.292969 C 15.707031 8.25 15.644531 8.234375 15.589844 8.253906 C 15.484375 8.292969 15.292969 8.105469 15.367188 8.03125 C 15.394531 8.003906 15.414062 8.023438 15.414062 8.070312 C 15.414062 8.117188 15.46875 8.15625 15.539062 8.15625 C 15.738281 8.160156 15.925781 8.332031 15.832031 8.425781 C 15.753906 8.507812 15.808594 8.664062 15.917969 8.664062 C 15.953125 8.664062 15.964844 8.605469 15.941406 8.535156 C 15.921875 8.464844 15.980469 8.539062 16.078125 8.699219 C 16.171875 8.859375 16.355469 9.144531 16.480469 9.332031 C 16.605469 9.519531 16.761719 9.796875 16.824219 9.949219 C 16.886719 10.105469 16.996094 10.363281 17.070312 10.53125 C 17.144531 10.695312 17.257812 10.992188 17.320312 11.1875 C 17.382812 11.378906 17.453125 11.589844 17.476562 11.648438 C 17.5 11.710938 17.523438 11.773438 17.527344 11.796875 C 17.53125 11.816406 17.609375 11.957031 17.703125 12.113281 C 17.84375 12.339844 17.859375 12.402344 17.777344 12.453125 C 17.722656 12.488281 17.703125 12.539062 17.734375 12.570312 C 17.8125 12.652344 18.007812 12.667969 17.960938 12.589844 C 17.9375 12.554688 17.957031 12.523438 18.003906 12.523438 C 18.066406 12.523438 18.066406 12.496094 18.007812 12.425781 C 17.964844 12.371094 17.953125 12.300781 17.980469 12.269531 C 18.011719 12.234375 17.996094 12.230469 17.945312 12.261719 C 17.894531 12.289062 17.855469 12.277344 17.855469 12.234375 C 17.855469 12.195312 17.894531 12.15625 17.945312 12.152344 C 18.015625 12.148438 18.015625 12.140625 17.945312 12.109375 C 17.894531 12.089844 17.871094 12.042969 17.894531 12.007812 C 17.917969 11.96875 17.902344 11.941406 17.867188 11.941406 C 17.828125 11.941406 17.78125 11.980469 17.765625 12.03125 C 17.75 12.078125 17.71875 12.046875 17.695312 11.957031 C 17.671875 11.867188 17.683594 11.777344 17.71875 11.753906 C 17.753906 11.730469 17.785156 11.75 17.785156 11.789062 C 17.785156 11.832031 17.816406 11.867188 17.855469 11.867188 C 17.941406 11.867188 17.917969 11.707031 17.820312 11.632812 C 17.777344 11.601562 17.785156 11.578125 17.839844 11.578125 C 17.894531 11.578125 17.914062 11.542969 17.890625 11.5 C 17.863281 11.460938 17.832031 11.320312 17.816406 11.191406 C 17.710938 10.359375 17.429688 9.476562 16.945312 8.464844 C 16.582031 7.707031 15.878906 6.871094 15.289062 6.496094 C 15.101562 6.375 14.808594 6.1875 14.636719 6.082031 C 14.398438 5.933594 14.34375 5.863281 14.402344 5.792969 C 14.445312 5.742188 14.457031 5.679688 14.433594 5.65625 C 14.386719 5.609375 14.679688 5.6875 14.945312 5.792969 C 15.15625 5.875 15.960938 6.464844 16.351562 6.828125 C 17.097656 7.511719 17.855469 9.109375 18.109375 10.519531 C 18.175781 10.882812 18.265625 11.371094 18.3125 11.609375 L 18.394531 12.046875 L 18.652344 11.503906 C 19.964844 8.734375 19.335938 5.71875 17.28125 4.914062 C 16.796875 4.726562 16.644531 4.703125 15.773438 4.683594 C 14.6875 4.664062 14.332031 4.714844 13.296875 5.035156 C 12.476562 5.289062 11.746094 5.640625 11.214844 6.039062 C 10.902344 6.277344 9.914062 7.148438 9.8125 7.277344 C 9.792969 7.304688 9.535156 7.492188 9.238281 7.699219 C 8.355469 8.3125 7.625 9.261719 7.296875 10.21875 C 7.097656 10.789062 7.019531 12.238281 7.152344 12.824219 C 7.296875 13.457031 7.695312 14.230469 8.023438 14.515625 C 8.34375 14.792969 10.671875 15.996094 10.960938 16.03125 C 11.058594 16.042969 11.1875 16.023438 11.242188 15.988281 C 11.308594 15.945312 11.324219 15.949219 11.289062 16.007812 C 11.257812 16.058594 11.289062 16.09375 11.371094 16.097656 C 11.441406 16.097656 11.660156 16.179688 11.859375 16.273438 C 12.214844 16.445312 12.355469 16.414062 12.167969 16.203125 C 12.117188 16.144531 11.976562 15.964844 11.859375 15.804688 C 11.738281 15.644531 11.605469 15.527344 11.558594 15.546875 C 11.507812 15.5625 11.488281 15.53125 11.507812 15.472656 C 11.53125 15.410156 11.378906 15.242188 11.101562 15.023438 C 10.585938 14.617188 10.101562 14.363281 9.722656 14.296875 C 9.574219 14.273438 9.453125 14.222656 9.453125 14.183594 C 9.453125 14.148438 9.417969 14.140625 9.375 14.164062 C 9.332031 14.191406 9.339844 14.144531 9.394531 14.058594 C 9.445312 13.976562 9.539062 13.90625 9.605469 13.90625 C 9.808594 13.90625 10.703125 14.207031 10.824219 14.316406 C 10.886719 14.371094 10.960938 14.417969 10.988281 14.417969 C 11.105469 14.417969 11.664062 14.90625 11.964844 15.273438 C 12.144531 15.488281 12.324219 15.703125 12.367188 15.753906 C 12.414062 15.800781 12.542969 16.011719 12.664062 16.222656 C 12.78125 16.429688 12.898438 16.578125 12.925781 16.554688 C 12.949219 16.527344 12.972656 16.574219 12.972656 16.660156 C 12.972656 16.878906 13.226562 17.007812 13.375 16.859375 C 13.535156 16.699219 13.617188 16.722656 13.617188 16.929688 C 13.617188 17.03125 13.582031 17.113281 13.542969 17.113281 C 13.5 17.113281 13.488281 17.148438 13.515625 17.195312 C 13.550781 17.25 13.589844 17.230469 13.640625 17.140625 C 13.683594 17.0625 13.765625 16.960938 13.828125 16.910156 Z M 13.15625 16.769531 C 13.117188 16.664062 13.125 16.65625 13.195312 16.726562 C 13.246094 16.777344 13.265625 16.835938 13.246094 16.859375 C 13.222656 16.878906 13.183594 16.839844 13.15625 16.769531 Z M 13.582031 16.6875 C 13.542969 16.660156 13.5 16.589844 13.488281 16.527344 C 13.46875 16.441406 13.488281 16.445312 13.589844 16.546875 C 13.71875 16.671875 13.710938 16.78125 13.582031 16.6875 Z M 12.992188 16.328125 C 12.996094 16.238281 13.027344 16.164062 13.058594 16.164062 C 13.132812 16.164062 13.128906 16.25 13.046875 16.382812 C 12.992188 16.46875 12.980469 16.457031 12.992188 16.328125 Z M 13.226562 16.320312 C 13.207031 16.28125 13.246094 16.210938 13.3125 16.15625 C 13.425781 16.066406 13.429688 16.070312 13.347656 16.171875 C 13.300781 16.234375 13.28125 16.308594 13.308594 16.335938 C 13.332031 16.363281 13.335938 16.382812 13.3125 16.382812 C 13.289062 16.382812 13.25 16.355469 13.226562 16.320312 Z M 14.226562 16.253906 C 14.246094 16.230469 14.226562 16.171875 14.183594 16.117188 C 14.121094 16.042969 14.128906 16.019531 14.207031 16.019531 C 14.308594 16.019531 14.621094 16.222656 14.550781 16.246094 C 14.445312 16.277344 14.195312 16.285156 14.226562 16.253906 Z M 12.757812 16.160156 C 12.757812 16.117188 12.789062 16.101562 12.828125 16.128906 C 12.867188 16.152344 12.898438 16.1875 12.898438 16.207031 C 12.898438 16.222656 12.867188 16.238281 12.828125 16.238281 C 12.789062 16.238281 12.757812 16.203125 12.757812 16.160156 Z M 12.898438 16.019531 C 12.835938 15.976562 12.828125 15.949219 12.878906 15.945312 C 12.925781 15.945312 12.984375 15.980469 13.007812 16.019531 C 13.0625 16.109375 13.039062 16.109375 12.898438 16.019531 Z M 13.089844 15.914062 C 13.0625 15.84375 13.085938 15.820312 13.15625 15.847656 C 13.210938 15.871094 13.242188 15.917969 13.21875 15.953125 C 13.164062 16.042969 13.136719 16.035156 13.089844 15.914062 Z M 15 14.800781 C 15.007812 14.722656 15.054688 14.660156 15.105469 14.660156 C 15.175781 14.660156 15.175781 14.683594 15.109375 14.773438 C 15.0625 14.839844 15.015625 14.902344 15.007812 14.917969 C 14.996094 14.929688 14.996094 14.878906 15 14.800781 Z M 13.4375 14.777344 C 13.410156 14.734375 13.402344 14.683594 13.421875 14.664062 C 13.441406 14.644531 13.476562 14.679688 13.5 14.742188 C 13.546875 14.871094 13.507812 14.890625 13.4375 14.777344 Z M 14.59375 14.4375 C 14.554688 14.335938 14.5625 14.324219 14.632812 14.398438 C 14.679688 14.445312 14.703125 14.503906 14.679688 14.527344 C 14.660156 14.550781 14.621094 14.511719 14.59375 14.4375 Z M 13.316406 14.367188 C 13.371094 14.347656 13.429688 14.347656 13.453125 14.371094 C 13.480469 14.398438 13.4375 14.414062 13.359375 14.410156 C 13.277344 14.40625 13.261719 14.390625 13.316406 14.367188 Z M 14.230469 14.34375 C 14.253906 14.304688 14.289062 14.269531 14.304688 14.269531 C 14.320312 14.269531 14.335938 14.304688 14.335938 14.34375 C 14.335938 14.382812 14.300781 14.417969 14.261719 14.417969 C 14.21875 14.417969 14.203125 14.382812 14.230469 14.34375 Z M 13.636719 14.210938 C 13.664062 14.121094 13.207031 13.507812 12.78125 13.066406 C 12.414062 12.683594 11.628906 12.136719 10.917969 11.769531 C 10.582031 11.597656 9.835938 11.34375 9.285156 11.21875 C 9.015625 11.15625 8.804688 11.070312 8.816406 11.03125 C 8.855469 10.914062 9.738281 10.972656 10.300781 11.132812 C 10.871094 11.289062 11.503906 11.597656 12.109375 12.003906 C 12.582031 12.320312 13.546875 13.230469 13.546875 13.363281 C 13.546875 13.414062 13.597656 13.472656 13.660156 13.5 C 13.71875 13.523438 13.75 13.578125 13.722656 13.625 C 13.695312 13.667969 13.707031 13.726562 13.746094 13.753906 C 13.789062 13.777344 13.84375 13.882812 13.867188 13.988281 C 13.90625 14.140625 13.886719 14.1875 13.769531 14.21875 C 13.6875 14.238281 13.628906 14.234375 13.636719 14.207031 Z M 15.945312 12.730469 C 15.910156 12.675781 15.925781 12.667969 15.988281 12.707031 C 16.054688 12.746094 16.070312 12.734375 16.042969 12.65625 C 16.011719 12.570312 16.042969 12.554688 16.175781 12.582031 C 16.375 12.617188 16.375 12.617188 16.152344 12.730469 C 16.035156 12.792969 15.984375 12.792969 15.945312 12.730469 Z M 15.839844 12.066406 C 15.835938 12.019531 15.824219 11.917969 15.808594 11.851562 C 15.796875 11.78125 15.8125 11.707031 15.847656 11.683594 C 15.882812 11.664062 15.894531 11.714844 15.878906 11.800781 C 15.855469 11.917969 15.878906 11.941406 15.964844 11.910156 C 16.054688 11.875 16.0625 11.886719 16 11.964844 C 15.953125 12.019531 15.9375 12.085938 15.964844 12.109375 C 15.992188 12.136719 15.972656 12.160156 15.929688 12.160156 C 15.882812 12.160156 15.84375 12.117188 15.839844 12.066406 Z M 17.53125 11.648438 C 17.492188 11.585938 17.503906 11.570312 17.558594 11.605469 C 17.679688 11.683594 17.65625 11.570312 17.519531 11.417969 C 17.449219 11.339844 17.433594 11.285156 17.484375 11.285156 C 17.53125 11.285156 17.566406 11.316406 17.566406 11.351562 C 17.566406 11.390625 17.617188 11.429688 17.679688 11.445312 C 17.777344 11.464844 17.777344 11.484375 17.691406 11.605469 C 17.613281 11.714844 17.578125 11.722656 17.53125 11.648438 Z M 17.398438 11.082031 C 17.375 11.042969 17.402344 10.96875 17.460938 10.921875 C 17.578125 10.820312 17.601562 10.898438 17.503906 11.054688 C 17.464844 11.117188 17.425781 11.125 17.398438 11.082031 Z M 14.585938 10.847656 C 14.5625 10.808594 14.578125 10.777344 14.621094 10.777344 C 14.660156 10.777344 14.695312 10.808594 14.695312 10.847656 C 14.695312 10.886719 14.679688 10.921875 14.664062 10.921875 C 14.644531 10.921875 14.613281 10.886719 14.585938 10.847656 Z M 17.273438 10.722656 C 17.183594 10.609375 17.1875 10.605469 17.289062 10.683594 C 17.351562 10.734375 17.429688 10.75 17.460938 10.71875 C 17.492188 10.691406 17.496094 10.707031 17.46875 10.757812 C 17.402344 10.875 17.390625 10.871094 17.273438 10.722656 Z M 13.925781 10.371094 C 13.46875 9.707031 13.3125 9.539062 12.863281 9.222656 C 12.34375 8.859375 11.21875 8.273438 10.871094 8.1875 C 10.761719 8.160156 10.671875 8.105469 10.671875 8.070312 C 10.671875 8.03125 10.714844 8.023438 10.761719 8.054688 C 10.824219 8.089844 10.820312 8.070312 10.753906 7.984375 C 10.667969 7.878906 10.671875 7.863281 10.789062 7.863281 C 10.992188 7.863281 11.984375 8.207031 12.253906 8.371094 C 12.917969 8.777344 13.328125 9.046875 13.480469 9.1875 C 13.738281 9.421875 14.027344 9.890625 14.085938 10.175781 C 14.117188 10.328125 14.160156 10.394531 14.214844 10.363281 C 14.261719 10.332031 14.257812 10.367188 14.203125 10.433594 C 14.078125 10.589844 14.078125 10.589844 13.925781 10.371094 Z M 18.121094 7.980469 C 17.945312 7.605469 17.667969 7.117188 17.507812 6.894531 C 17.347656 6.675781 17.238281 6.46875 17.265625 6.4375 C 17.292969 6.40625 17.28125 6.402344 17.238281 6.429688 C 17.136719 6.484375 16.890625 6.222656 16.949219 6.125 C 16.976562 6.085938 16.957031 6.042969 16.910156 6.027344 C 16.8125 5.992188 16.761719 5.75 16.855469 5.75 C 16.921875 5.75 17.65625 6.511719 17.921875 6.855469 C 18.203125 7.21875 18.515625 7.953125 18.542969 8.308594 C 18.558594 8.503906 18.542969 8.664062 18.503906 8.664062 C 18.46875 8.664062 18.296875 8.355469 18.121094 7.980469 Z M 14.332031 7.207031 C 14.070312 7.132812 13.753906 6.910156 13.800781 6.835938 C 13.824219 6.800781 13.789062 6.769531 13.726562 6.769531 C 13.65625 6.769531 13.628906 6.734375 13.660156 6.6875 C 13.691406 6.632812 13.679688 6.621094 13.628906 6.652344 C 13.582031 6.683594 13.496094 6.65625 13.433594 6.59375 C 13.371094 6.53125 13.28125 6.480469 13.230469 6.480469 C 13.179688 6.480469 13.140625 6.429688 13.140625 6.371094 C 13.140625 6.304688 13.167969 6.285156 13.21875 6.324219 C 13.261719 6.355469 13.394531 6.417969 13.515625 6.460938 C 13.636719 6.5 13.949219 6.683594 14.210938 6.863281 C 14.671875 7.183594 14.714844 7.3125 14.332031 7.207031 Z M 13.464844 17.046875 C 13.519531 17.011719 13.535156 16.96875 13.5 16.945312 C 13.464844 16.925781 13.398438 16.953125 13.347656 17.007812 C 13.242188 17.121094 13.3125 17.144531 13.464844 17.046875 Z M 14.726562 16.753906 C 14.75 16.71875 14.703125 16.707031 14.625 16.726562 C 14.457031 16.769531 14.433594 16.820312 14.582031 16.820312 C 14.640625 16.820312 14.703125 16.789062 14.726562 16.753906 Z M 14.765625 16.570312 C 14.765625 16.550781 14.734375 16.515625 14.695312 16.492188 C 14.65625 16.46875 14.625 16.480469 14.625 16.523438 C 14.625 16.566406 14.65625 16.601562 14.695312 16.601562 C 14.734375 16.601562 14.765625 16.585938 14.765625 16.570312 Z M 15.058594 16.136719 C 15.019531 16.039062 15.015625 15.9375 15.042969 15.90625 C 15.066406 15.875 15.050781 15.875 15 15.902344 C 14.949219 15.933594 14.921875 15.976562 14.933594 16.003906 C 14.949219 16.03125 14.980469 16.113281 15.003906 16.183594 C 15.03125 16.253906 15.066406 16.308594 15.085938 16.308594 C 15.105469 16.308594 15.09375 16.230469 15.058594 16.136719 Z M 15.390625 15.914062 C 15.390625 15.855469 15.363281 15.824219 15.328125 15.84375 C 15.296875 15.867188 15.285156 15.914062 15.308594 15.949219 C 15.367188 16.046875 15.390625 16.035156 15.390625 15.914062 Z M 14.445312 15.726562 C 14.46875 15.6875 14.457031 15.65625 14.417969 15.65625 C 14.378906 15.65625 14.324219 15.6875 14.300781 15.726562 C 14.277344 15.769531 14.289062 15.800781 14.328125 15.800781 C 14.367188 15.800781 14.417969 15.769531 14.445312 15.726562 Z M 15.222656 15.617188 C 15.246094 15.558594 15.234375 15.507812 15.195312 15.507812 C 15.15625 15.507812 15.125 15.558594 15.125 15.617188 C 15.125 15.679688 15.140625 15.726562 15.15625 15.726562 C 15.171875 15.726562 15.203125 15.679688 15.222656 15.617188 Z M 15.054688 15.570312 C 15.054688 15.542969 15.023438 15.496094 14.984375 15.472656 C 14.941406 15.449219 14.910156 15.460938 14.910156 15.503906 C 14.910156 15.542969 14.855469 15.554688 14.792969 15.53125 C 14.714844 15.5 14.6875 15.511719 14.722656 15.566406 C 14.773438 15.652344 15.054688 15.65625 15.054688 15.570312 Z M 14.3125 15.203125 C 14.289062 15.144531 14.273438 15.164062 14.269531 15.25 C 14.265625 15.324219 14.285156 15.367188 14.308594 15.34375 C 14.332031 15.320312 14.335938 15.257812 14.3125 15.203125 Z M 16.097656 14.753906 C 16.105469 14.617188 16.078125 14.589844 15.964844 14.621094 C 15.867188 14.644531 15.839844 14.628906 15.875 14.574219 C 15.902344 14.527344 15.890625 14.488281 15.847656 14.488281 C 15.808594 14.488281 15.773438 14.539062 15.773438 14.597656 C 15.773438 14.664062 15.839844 14.707031 15.933594 14.710938 C 16.074219 14.710938 16.082031 14.722656 15.972656 14.785156 C 15.902344 14.828125 15.867188 14.90625 15.894531 14.96875 C 15.949219 15.121094 16.085938 14.980469 16.097656 14.753906 Z M 16.242188 14.277344 C 16.183594 14.179688 15.917969 14.171875 15.917969 14.265625 C 15.917969 14.304688 15.851562 14.324219 15.773438 14.308594 C 15.695312 14.292969 15.628906 14.3125 15.628906 14.351562 C 15.628906 14.445312 15.984375 14.414062 16.128906 14.308594 C 16.210938 14.25 16.21875 14.261719 16.175781 14.378906 C 16.136719 14.492188 16.144531 14.507812 16.207031 14.441406 C 16.253906 14.394531 16.269531 14.320312 16.242188 14.277344 Z M 9.632812 14.050781 C 9.65625 14.011719 9.644531 13.980469 9.605469 13.980469 C 9.566406 13.980469 9.511719 14.011719 9.488281 14.050781 C 9.464844 14.09375 9.476562 14.125 9.515625 14.125 C 9.554688 14.125 9.609375 14.09375 9.632812 14.050781 Z M 16.464844 13.664062 C 16.519531 13.6875 16.5625 13.671875 16.5625 13.632812 C 16.5625 13.589844 16.511719 13.539062 16.449219 13.515625 C 16.386719 13.492188 16.355469 13.441406 16.375 13.410156 C 16.398438 13.375 16.335938 13.359375 16.238281 13.378906 C 16.140625 13.398438 16.074219 13.433594 16.085938 13.460938 C 16.097656 13.484375 16.132812 13.570312 16.160156 13.644531 C 16.195312 13.746094 16.230469 13.761719 16.285156 13.707031 C 16.328125 13.664062 16.410156 13.644531 16.464844 13.664062 Z M 16.203125 13.542969 C 16.203125 13.503906 16.234375 13.46875 16.273438 13.46875 C 16.316406 13.46875 16.347656 13.503906 16.347656 13.542969 C 16.347656 13.582031 16.316406 13.617188 16.273438 13.617188 C 16.234375 13.617188 16.203125 13.582031 16.203125 13.542969 Z M 16.675781 13.410156 C 16.570312 13.300781 16.566406 13.304688 16.652344 13.488281 C 16.703125 13.59375 16.753906 13.648438 16.769531 13.605469 C 16.78125 13.5625 16.742188 13.476562 16.675781 13.410156 Z M 20.121094 12.992188 C 20.152344 12.777344 20.152344 12.777344 20.011719 13.03125 C 19.84375 13.339844 19.828125 13.46875 19.976562 13.316406 C 20.035156 13.253906 20.101562 13.109375 20.121094 12.992188 Z M 17.496094 13.003906 C 17.496094 12.988281 17.445312 12.957031 17.386719 12.933594 C 17.320312 12.90625 17.292969 12.917969 17.316406 12.960938 C 17.359375 13.03125 17.496094 13.0625 17.496094 13.003906 Z M 20.839844 12.84375 C 21.039062 12.792969 21.625 11.746094 21.703125 11.300781 C 21.789062 10.816406 22.09375 10.628906 22.09375 11.0625 C 22.09375 11.320312 21.835938 12.148438 21.707031 12.300781 C 21.507812 12.539062 21.492188 12.613281 21.652344 12.5625 C 21.734375 12.535156 22.039062 12.472656 22.324219 12.425781 L 22.847656 12.335938 L 22.882812 11.976562 C 22.925781 11.558594 22.792969 10.574219 22.628906 10.09375 C 22.519531 9.757812 21.828125 8.660156 21.582031 8.425781 C 21.449219 8.296875 21.445312 8.304688 21.445312 8.679688 C 21.445312 9.40625 21.136719 10.8125 20.835938 11.429688 C 20.660156 11.800781 20.523438 12.28125 20.484375 12.691406 C 20.464844 12.910156 20.480469 12.960938 20.566406 12.925781 C 20.621094 12.90625 20.746094 12.867188 20.839844 12.84375 Z M 22.339844 11.59375 C 22.316406 11.484375 22.285156 11.355469 22.269531 11.308594 C 22.253906 11.257812 22.28125 11.234375 22.328125 11.253906 C 22.441406 11.296875 22.667969 11.699219 22.613281 11.753906 C 22.511719 11.855469 22.378906 11.777344 22.339844 11.59375 Z M 17.273438 12.648438 C 17.363281 12.535156 17.359375 12.527344 17.242188 12.570312 C 17.148438 12.609375 17.128906 12.597656 17.171875 12.523438 C 17.207031 12.46875 17.203125 12.445312 17.167969 12.46875 C 17.070312 12.527344 16.941406 12.355469 16.964844 12.199219 C 16.976562 12.125 17.023438 12.039062 17.070312 12.011719 C 17.117188 11.980469 17.140625 11.914062 17.121094 11.859375 C 17.101562 11.796875 17.042969 11.847656 16.964844 12 C 16.859375 12.203125 16.855469 12.273438 16.933594 12.449219 C 16.984375 12.5625 17.050781 12.640625 17.082031 12.621094 C 17.113281 12.601562 17.136719 12.644531 17.136719 12.714844 C 17.136719 12.78125 17.144531 12.824219 17.15625 12.808594 C 17.167969 12.792969 17.222656 12.71875 17.277344 12.648438 Z M 17.238281 12.207031 C 17.214844 12.140625 17.164062 12.085938 17.128906 12.085938 C 17.09375 12.085938 17.105469 12.148438 17.152344 12.230469 C 17.253906 12.394531 17.304688 12.378906 17.238281 12.207031 Z M 17.238281 12.207031 "/>
</g>
</svg>
