<?xml version="1.0" encoding="UTF-8"?>
<svg xmlns="http://www.w3.org/2000/svg" xmlns:xlink="http://www.w3.org/1999/xlink" width="64px" height="64px" viewBox="0 0 64 64" version="1.1">
<g id="surface1">
<path style=" stroke:none;fill-rule:nonzero;fill:rgb(38.431373%,38.431373%,38.431373%);fill-opacity:1;" d="M 33.101562 59.125 C 32.734375 59.0625 31.898438 58.730469 31.25 58.386719 L 30.066406 57.761719 L 28.164062 57.800781 C 26.425781 57.835938 24.878906 57.679688 24.148438 57.390625 C 21.839844 56.480469 20.207031 55.167969 18.878906 53.15625 C 17.339844 50.832031 17.0625 50.679688 14.269531 50.679688 C 12.8125 50.679688 11.976562 50.613281 11.425781 50.449219 C 7.644531 49.332031 5.132812 45.371094 5.886719 41.707031 C 6.269531 39.832031 7.777344 37.304688 9.34375 35.910156 C 10.449219 34.925781 12.183594 33.75 13.210938 33.292969 C 13.636719 33.101562 14.03125 32.867188 14.089844 32.773438 C 14.152344 32.667969 13.828125 32.21875 13.253906 31.628906 C 11.761719 30.085938 10.976562 28.730469 10.40625 26.722656 C 9.9375 25.0625 9.941406 21.902344 10.417969 20.09375 C 11.050781 17.710938 12.585938 15.082031 14.257812 13.535156 C 14.851562 12.988281 17.964844 10.328125 19.074219 9.425781 C 20.746094 8.0625 24.140625 6.246094 26.445312 5.480469 C 28.171875 4.910156 30.027344 4.671875 32.261719 4.734375 C 35.3125 4.816406 37.226562 5.582031 39.238281 7.519531 C 40.589844 8.824219 41.589844 10.496094 42.097656 12.300781 C 42.363281 13.257812 43.011719 14.703125 43.171875 14.703125 C 43.320312 14.703125 44.472656 15.855469 45.066406 16.601562 C 46.285156 18.132812 47.132812 20.699219 47.300781 23.371094 C 47.347656 24.09375 47.441406 24.757812 47.515625 24.851562 C 47.585938 24.945312 47.984375 25.101562 48.394531 25.199219 C 52.597656 26.203125 55.570312 28.765625 57.367188 32.929688 C 58.132812 34.710938 58.316406 35.839844 58.226562 38.21875 C 58.167969 39.738281 58.078125 40.34375 57.785156 41.226562 C 56.996094 43.589844 56.472656 44.449219 54.527344 46.570312 C 53.246094 47.960938 53.09375 48.25 52.574219 50.246094 C 52.144531 51.890625 51.417969 53.484375 50.644531 54.476562 C 49.601562 55.8125 47.492188 57.039062 45.535156 57.457031 C 44.613281 57.652344 43.976562 57.679688 42.15625 57.597656 L 39.914062 57.496094 L 38.496094 58.238281 C 36.59375 59.234375 35.132812 59.472656 33.101562 59.125 Z M 36.550781 57.726562 C 37.519531 57.40625 37.824219 57.070312 37.597656 56.570312 C 37.472656 56.285156 37.355469 56.214844 37.109375 56.277344 C 36.933594 56.324219 36.871094 56.320312 36.972656 56.273438 C 37.09375 56.21875 36.839844 55.847656 36.214844 55.179688 C 35.699219 54.621094 34.980469 53.71875 34.621094 53.167969 C 33.851562 51.996094 33.128906 50.015625 33.128906 49.070312 C 33.125 48.703125 33.058594 48.035156 32.976562 47.585938 C 32.847656 46.871094 32.605469 46.257812 31.453125 43.714844 C 31.332031 43.449219 31.113281 42.957031 30.960938 42.625 L 30.691406 42.015625 L 30.679688 43.253906 C 30.671875 43.933594 30.574219 45.015625 30.460938 45.65625 C 29.839844 49.179688 29.785156 49.707031 29.957031 50.695312 C 30.289062 52.589844 31.226562 53.988281 32.6875 54.777344 C 33.929688 55.453125 34.652344 55.921875 34.449219 55.921875 C 34.308594 55.925781 34.316406 56.019531 34.480469 56.339844 L 34.691406 56.757812 L 33.082031 56.074219 C 31.1875 55.269531 30.128906 54.359375 29.488281 52.984375 C 28.609375 51.089844 28.507812 49.238281 29.140625 46.53125 C 29.375 45.519531 29.445312 44.75 29.445312 43.179688 C 29.445312 41.347656 29.40625 41.019531 29.054688 39.9375 C 28.691406 38.832031 27.800781 37.28125 27.039062 36.429688 C 26.351562 35.660156 24.171875 34.367188 22.816406 33.925781 C 20.011719 33.015625 18.144531 33.035156 15.1875 34.007812 C 12.683594 34.828125 10.804688 36.144531 9.207031 38.191406 C 7.210938 40.75 6.75 42.511719 7.472656 44.78125 C 7.835938 45.917969 8.105469 46.34375 9.347656 47.738281 C 10.640625 49.191406 12.46875 49.617188 15.628906 49.207031 C 17.414062 48.972656 19.257812 49.320312 20.457031 50.113281 C 21.585938 50.863281 22.925781 52.304688 22.925781 52.769531 C 22.925781 53.289062 22.609375 53.183594 21.8125 52.398438 C 21.4375 52.03125 20.722656 51.523438 20.222656 51.269531 L 19.3125 50.808594 L 19.78125 51.703125 C 20.246094 52.585938 21.546875 54.199219 22.125 54.605469 C 22.289062 54.722656 22.457031 54.859375 22.496094 54.914062 C 22.601562 55.054688 23.445312 55.480469 24.128906 55.734375 C 25.179688 56.125 26.171875 56.316406 27.3125 56.347656 L 28.425781 56.382812 L 27.832031 55.695312 C 27.503906 55.320312 27.238281 54.953125 27.238281 54.886719 C 27.238281 54.816406 27.132812 54.761719 27.003906 54.761719 C 26.8125 54.761719 26.804688 54.800781 26.949219 54.976562 C 27.046875 55.097656 27.074219 55.195312 27.011719 55.195312 C 26.945312 55.195312 26.964844 55.269531 27.054688 55.359375 C 27.140625 55.449219 27.183594 55.628906 27.144531 55.761719 C 27.085938 55.949219 27.105469 55.945312 27.234375 55.738281 C 27.421875 55.445312 27.601562 55.515625 27.816406 55.96875 C 27.96875 56.285156 27.964844 56.285156 27.738281 55.996094 C 27.507812 55.710938 27.503906 55.710938 27.300781 55.988281 C 27.105469 56.253906 27.089844 56.246094 27.003906 55.804688 C 26.953125 55.550781 26.828125 55.34375 26.722656 55.34375 C 26.621094 55.34375 26.488281 55.265625 26.429688 55.171875 C 26.363281 55.058594 26.40625 55.03125 26.566406 55.09375 C 26.789062 55.179688 26.789062 55.160156 26.5625 54.792969 C 26.429688 54.574219 26.40625 54.472656 26.507812 54.566406 C 26.71875 54.757812 27.136719 54.660156 27.011719 54.449219 C 26.964844 54.378906 26.871094 54.355469 26.796875 54.402344 C 26.726562 54.445312 26.707031 54.371094 26.757812 54.238281 C 26.816406 54.085938 26.757812 53.917969 26.605469 53.804688 C 26.46875 53.703125 26.363281 53.582031 26.375 53.53125 C 26.386719 53.484375 26.355469 53.261719 26.308594 53.039062 C 26.214844 52.609375 25.375 52.027344 25.097656 52.203125 C 25.003906 52.257812 24.972656 52.214844 25.015625 52.097656 C 25.0625 51.980469 24.945312 51.828125 24.722656 51.726562 C 24.273438 51.519531 24.175781 51.511719 24.285156 51.691406 C 24.332031 51.765625 24.304688 51.867188 24.230469 51.914062 C 24.152344 51.960938 24.113281 51.878906 24.140625 51.734375 C 24.171875 51.578125 24.035156 51.339844 23.8125 51.160156 C 23.601562 50.988281 22.996094 50.429688 22.464844 49.914062 C 21.40625 48.886719 20.296875 48.226562 18.976562 47.839844 C 18.253906 47.628906 17.851562 47.605469 16.464844 47.707031 C 13.671875 47.914062 12.460938 47.863281 11.691406 47.507812 C 10.464844 46.949219 9.765625 46.3125 9.253906 45.292969 C 8.820312 44.429688 8.78125 44.230469 8.78125 43.035156 C 8.78125 41.796875 8.8125 41.660156 9.355469 40.558594 C 10.015625 39.222656 11.527344 37.5625 12.945312 36.621094 C 14.757812 35.417969 17.949219 34.546875 19.839844 34.738281 C 22.222656 34.980469 23.914062 35.730469 25.457031 37.238281 C 27.402344 39.132812 27.996094 40.550781 27.980469 43.257812 C 27.972656 44.105469 27.871094 45.285156 27.753906 45.882812 C 27.160156 48.867188 27.113281 50.882812 27.59375 52.523438 C 27.917969 53.628906 29.066406 55.316406 29.976562 56.019531 C 32.164062 57.710938 34.636719 58.351562 36.550781 57.726562 Z M 35.890625 56.492188 C 35.632812 56.414062 35.421875 56.324219 35.421875 56.285156 C 35.421875 56.152344 36.300781 56.320312 36.464844 56.484375 C 36.65625 56.679688 36.539062 56.679688 35.890625 56.492188 Z M 25.296875 54.464844 C 25.25 54.394531 25.125 54.371094 25.007812 54.417969 C 24.894531 54.460938 24.628906 54.359375 24.421875 54.191406 L 24.039062 53.886719 L 24.386719 53.886719 C 24.578125 53.886719 24.816406 53.964844 24.910156 54.0625 C 25.042969 54.195312 25.082031 54.1875 25.089844 54.023438 C 25.097656 53.910156 25.160156 53.96875 25.234375 54.15625 C 25.320312 54.371094 25.449219 54.46875 25.582031 54.417969 C 25.695312 54.371094 25.820312 54.382812 25.855469 54.445312 C 25.894531 54.503906 25.800781 54.5625 25.648438 54.574219 C 25.5 54.585938 25.339844 54.539062 25.296875 54.464844 Z M 25.820312 54.171875 L 25.480469 53.886719 L 25.808594 53.886719 C 25.988281 53.886719 26.09375 53.929688 26.039062 53.980469 C 25.988281 54.035156 26.019531 54.164062 26.105469 54.273438 C 26.332031 54.546875 26.21875 54.507812 25.820312 54.171875 Z M 24.792969 53.601562 C 24.792969 53.527344 24.859375 53.425781 24.9375 53.378906 C 25.019531 53.328125 25.042969 53.382812 24.992188 53.515625 C 24.898438 53.765625 24.792969 53.8125 24.792969 53.601562 Z M 25.308594 53.171875 C 25.339844 53.136719 25.304688 53.035156 25.226562 52.941406 C 25.128906 52.824219 25.152344 52.769531 25.292969 52.769531 C 25.40625 52.769531 25.46875 52.816406 25.433594 52.878906 C 25.398438 52.9375 25.546875 53.050781 25.761719 53.132812 L 26.160156 53.277344 L 25.703125 53.253906 C 25.453125 53.242188 25.277344 53.203125 25.308594 53.171875 Z M 32.527344 52.828125 C 32.054688 52.320312 31.113281 50.484375 31.113281 50.074219 C 31.113281 49.675781 31.335938 49.644531 31.648438 49.996094 C 32.015625 50.402344 32.757812 52.089844 32.730469 52.453125 C 32.71875 52.617188 32.773438 52.6875 32.867188 52.628906 C 32.964844 52.566406 32.984375 52.597656 32.917969 52.703125 C 32.859375 52.800781 32.890625 52.976562 32.988281 53.089844 C 33.324219 53.503906 32.957031 53.296875 32.527344 52.828125 Z M 25.832031 52.777344 C 25.726562 52.667969 25.707031 52.574219 25.785156 52.574219 C 25.933594 52.574219 26.152344 52.851562 26.066406 52.933594 C 26.039062 52.960938 25.933594 52.890625 25.832031 52.777344 Z M 24.589844 52.035156 C 24.511719 51.828125 24.527344 51.8125 24.667969 51.953125 C 24.765625 52.050781 24.8125 52.171875 24.765625 52.214844 C 24.722656 52.257812 24.640625 52.179688 24.589844 52.035156 Z M 31.429688 47.988281 C 31.265625 47.628906 31.332031 47.1875 31.546875 47.1875 C 31.699219 47.1875 31.832031 47.566406 31.832031 48 C 31.832031 48.453125 31.636719 48.449219 31.429688 47.988281 Z M 44.25 56.355469 C 45.429688 56.1875 46.914062 55.679688 47.871094 55.117188 C 49.351562 54.242188 50.652344 52.140625 51.359375 49.472656 C 51.859375 47.601562 52.242188 46.890625 53.414062 45.6875 C 56.890625 42.109375 57.859375 37.816406 56.136719 33.589844 C 54.769531 30.234375 52.421875 27.976562 49.140625 26.859375 C 48.242188 26.554688 47.59375 26.449219 46.171875 26.375 C 45.171875 26.324219 44.386719 26.332031 44.421875 26.394531 C 44.460938 26.453125 44.355469 26.503906 44.1875 26.503906 C 43.636719 26.503906 42.113281 27.097656 41.117188 27.703125 C 39.972656 28.398438 38.65625 29.859375 38.019531 31.144531 C 37.390625 32.410156 37.089844 34.125 37.1875 35.902344 C 37.273438 37.378906 37.363281 37.738281 38.574219 41.230469 C 39.207031 43.046875 39.375 44.421875 39.171875 46.035156 C 38.890625 48.246094 38.28125 49.496094 36.96875 50.554688 C 36.554688 50.886719 36.226562 51.207031 36.242188 51.257812 C 36.257812 51.3125 36.132812 51.355469 35.96875 51.347656 C 35.804688 51.34375 35.636719 51.429688 35.597656 51.539062 C 35.550781 51.675781 35.589844 51.703125 35.714844 51.625 C 35.832031 51.550781 35.863281 51.570312 35.796875 51.675781 C 35.636719 51.945312 35.980469 52.429688 36.332031 52.429688 C 36.851562 52.429688 37.90625 51.660156 38.636719 50.753906 C 40.054688 48.992188 40.847656 46.457031 40.691406 44.199219 C 40.636719 43.363281 40.390625 42.316406 39.824219 40.484375 C 38.941406 37.628906 38.726562 36.609375 38.730469 35.324219 C 38.746094 32.820312 39.59375 30.628906 41.003906 29.46875 C 42.589844 28.15625 43.992188 27.730469 46.269531 27.871094 C 49.175781 28.050781 50.40625 28.59375 52.390625 30.582031 C 53.609375 31.796875 53.855469 32.132812 54.425781 33.347656 C 55.242188 35.09375 55.363281 35.550781 55.476562 37.351562 C 55.640625 39.980469 54.894531 41.875 52.769531 44.199219 C 50.976562 46.164062 50.546875 46.878906 50.132812 48.609375 C 49.691406 50.4375 48.792969 52.265625 47.976562 52.996094 C 47.203125 53.683594 45.816406 54.441406 44.851562 54.703125 C 43.335938 55.113281 41.703125 54.898438 40.089844 54.078125 C 39.039062 53.542969 38.519531 53.371094 38.660156 53.601562 C 38.707031 53.679688 38.675781 53.742188 38.59375 53.742188 C 38.507812 53.742188 38.441406 53.671875 38.441406 53.585938 C 38.441406 53.5 38.34375 53.527344 38.222656 53.648438 C 38.105469 53.765625 38.011719 53.953125 38.011719 54.058594 C 38.011719 54.199219 38.050781 54.191406 38.152344 54.03125 C 38.277344 53.835938 38.292969 53.835938 38.296875 54.03125 C 38.300781 54.226562 38.316406 54.226562 38.441406 54.03125 C 38.539062 53.878906 38.578125 53.871094 38.582031 54 C 38.582031 54.101562 38.4375 54.246094 38.261719 54.320312 C 38.082031 54.390625 38.007812 54.453125 38.09375 54.460938 C 38.179688 54.464844 38.25 54.570312 38.25 54.691406 C 38.25 54.820312 38.148438 54.898438 38.019531 54.871094 C 37.894531 54.84375 37.800781 54.710938 37.8125 54.574219 C 37.824219 54.433594 37.777344 54.324219 37.707031 54.324219 C 37.371094 54.324219 37.667969 54.914062 38.214844 55.34375 C 38.464844 55.535156 38.484375 55.535156 38.386719 55.34375 C 38.300781 55.175781 38.320312 55.179688 38.464844 55.355469 C 38.71875 55.667969 39.378906 55.867188 41.097656 56.152344 C 41.886719 56.28125 42.628906 56.40625 42.75 56.429688 C 42.867188 56.453125 43.007812 56.480469 43.0625 56.492188 C 43.113281 56.5 43.652344 56.4375 44.25 56.355469 Z M 38.441406 54.609375 C 38.441406 54.53125 38.535156 54.46875 38.65625 54.46875 C 38.773438 54.46875 38.871094 54.496094 38.871094 54.527344 C 38.871094 54.558594 38.773438 54.621094 38.65625 54.667969 C 38.535156 54.714844 38.441406 54.6875 38.441406 54.609375 Z M 39.015625 54.605469 C 39.015625 54.519531 39.078125 54.492188 39.15625 54.542969 C 39.238281 54.589844 39.300781 54.660156 39.300781 54.695312 C 39.300781 54.730469 39.238281 54.761719 39.15625 54.761719 C 39.078125 54.761719 39.015625 54.691406 39.015625 54.605469 Z M 37.820312 53.851562 C 37.828125 53.667969 37.804688 53.601562 37.769531 53.695312 C 37.734375 53.792969 37.609375 53.832031 37.496094 53.789062 C 37.382812 53.746094 37.289062 53.785156 37.289062 53.878906 C 37.289062 53.972656 37.355469 54.007812 37.433594 53.957031 C 37.511719 53.910156 37.578125 53.9375 37.578125 54.023438 C 37.578125 54.332031 37.804688 54.167969 37.820312 53.851562 Z M 44.742188 53.539062 C 45.632812 53.273438 46.867188 52.507812 47.464844 51.859375 C 48.117188 51.144531 48.472656 50.308594 48.921875 48.425781 C 49.375 46.515625 49.769531 45.835938 51.601562 43.785156 C 53.339844 41.84375 53.613281 41.445312 54.023438 40.265625 C 54.640625 38.488281 54.441406 35.925781 53.546875 34.132812 C 52.21875 31.46875 49.976562 29.609375 47.488281 29.113281 C 46.09375 28.835938 44.078125 29.003906 43.125 29.472656 C 42.078125 29.992188 40.535156 31.496094 40.636719 31.894531 C 40.683594 32.074219 40.65625 32.148438 40.558594 32.089844 C 40.460938 32.027344 40.433594 32.105469 40.488281 32.308594 C 40.53125 32.480469 40.507812 32.585938 40.4375 32.539062 C 40.367188 32.496094 40.308594 32.488281 40.308594 32.527344 C 40.308594 32.566406 40.261719 32.710938 40.210938 32.851562 C 40.152344 33.003906 40.171875 33.070312 40.257812 33.015625 C 40.335938 32.964844 40.402344 33.015625 40.402344 33.128906 C 40.402344 33.242188 40.332031 33.320312 40.246094 33.304688 C 40.160156 33.289062 40.089844 33.40625 40.089844 33.566406 C 40.089844 33.726562 40.027344 33.90625 39.949219 33.964844 C 39.859375 34.03125 39.878906 34.074219 39.992188 34.074219 C 40.09375 34.074219 40.144531 34.136719 40.097656 34.210938 C 40.050781 34.289062 40.082031 34.390625 40.164062 34.441406 C 40.246094 34.492188 40.296875 34.457031 40.273438 34.359375 C 40.253906 34.265625 40.316406 34.167969 40.417969 34.144531 C 40.519531 34.117188 40.535156 34.132812 40.453125 34.171875 C 40.371094 34.214844 40.34375 34.308594 40.386719 34.382812 C 40.433594 34.457031 40.363281 34.558594 40.230469 34.609375 C 40.042969 34.683594 40.035156 34.726562 40.1875 34.824219 C 40.3125 34.902344 40.320312 34.949219 40.210938 34.949219 C 40.109375 34.949219 40.042969 35.207031 40.042969 35.617188 C 40.042969 36.371094 40.058594 36.378906 40.28125 35.710938 C 40.402344 35.339844 40.398438 35.253906 40.265625 35.320312 C 40.167969 35.371094 40.203125 35.316406 40.34375 35.199219 C 40.480469 35.085938 40.59375 34.921875 40.59375 34.835938 C 40.59375 34.75 40.675781 34.59375 40.773438 34.488281 C 40.871094 34.382812 41.128906 34.035156 41.347656 33.714844 C 42.15625 32.511719 42.925781 31.816406 44.210938 31.125 C 45.066406 30.660156 45.574219 30.535156 45.707031 30.75 C 45.777344 30.863281 45.746094 30.878906 45.609375 30.792969 C 45.449219 30.699219 45.453125 30.730469 45.621094 30.941406 C 45.820312 31.195312 45.8125 31.207031 45.511719 31.128906 C 45.335938 31.082031 45.222656 31.097656 45.261719 31.164062 C 45.300781 31.230469 44.996094 31.496094 44.582031 31.753906 C 44.164062 32.011719 43.601562 32.421875 43.324219 32.664062 C 42.742188 33.175781 41.859375 34.4375 41.988281 34.570312 C 42.039062 34.621094 41.992188 34.660156 41.886719 34.660156 C 41.78125 34.660156 41.738281 34.703125 41.789062 34.753906 C 41.839844 34.808594 41.769531 34.941406 41.632812 35.058594 C 41.496094 35.171875 41.464844 35.222656 41.5625 35.171875 C 41.664062 35.121094 41.742188 35.148438 41.742188 35.234375 C 41.742188 35.320312 41.691406 35.386719 41.625 35.386719 C 41.558594 35.386719 41.421875 35.542969 41.320312 35.734375 C 41.167969 36.027344 41.179688 36.125 41.390625 36.375 C 41.640625 36.671875 41.640625 36.671875 42.050781 36.214844 C 42.277344 35.964844 42.457031 35.691406 42.449219 35.609375 C 42.445312 35.527344 42.40625 35.539062 42.367188 35.632812 C 42.257812 35.914062 41.886719 35.679688 41.898438 35.335938 C 41.90625 35.164062 41.941406 35.105469 41.980469 35.207031 C 42.089844 35.480469 42.675781 35.425781 43.054688 35.101562 C 43.242188 34.945312 43.332031 34.8125 43.25 34.808594 C 43.171875 34.804688 43.25 34.71875 43.425781 34.621094 C 43.597656 34.523438 44.210938 34.144531 44.785156 33.785156 C 46.25 32.867188 47.816406 32.164062 47.941406 32.367188 C 48.074219 32.582031 47.820312 33.050781 47.515625 33.164062 C 47.054688 33.332031 44.832031 34.648438 44.4375 34.980469 C 44.222656 35.164062 43.878906 35.433594 43.675781 35.582031 C 43.363281 35.8125 43.335938 35.882812 43.496094 36.09375 C 43.660156 36.304688 43.652344 36.3125 43.453125 36.15625 C 43.265625 36.003906 43.175781 36.03125 42.945312 36.300781 C 42.519531 36.789062 41.867188 37.863281 41.992188 37.867188 C 42.054688 37.867188 42.015625 37.921875 41.914062 37.988281 C 41.808594 38.058594 41.710938 38.214844 41.691406 38.335938 C 41.671875 38.460938 41.578125 38.660156 41.480469 38.785156 C 41.246094 39.066406 41.40625 39.148438 42.035156 39.070312 C 42.417969 39.019531 42.605469 38.894531 42.804688 38.542969 C 42.945312 38.289062 43.054688 38.0625 43.046875 38.042969 C 43.019531 37.984375 43.851562 37.207031 44.617188 36.578125 C 44.972656 36.285156 45.292969 36.007812 45.335938 35.964844 C 45.476562 35.804688 46.339844 35.222656 46.339844 35.285156 C 46.339844 35.320312 46.96875 35.128906 47.738281 34.859375 C 48.511719 34.589844 49.414062 34.371094 49.753906 34.371094 C 50.332031 34.367188 50.355469 34.382812 50.183594 34.664062 C 50.078125 34.832031 49.632812 35.078125 49.140625 35.238281 C 46.308594 36.152344 45.675781 36.515625 44.089844 38.140625 C 43.277344 38.976562 43.140625 39.257812 43.609375 39.132812 C 43.769531 39.089844 43.863281 39.117188 43.816406 39.1875 C 43.773438 39.261719 43.578125 39.320312 43.386719 39.320312 C 43.132812 39.320312 43.035156 39.398438 43.035156 39.613281 C 43.035156 39.773438 42.957031 39.886719 42.855469 39.867188 C 42.757812 39.847656 42.6875 39.898438 42.703125 39.984375 C 42.71875 40.066406 42.550781 40.125 42.332031 40.109375 C 41.984375 40.085938 41.941406 40.125 42 40.429688 C 42.054688 40.730469 42.265625 40.851562 42.636719 40.796875 C 42.691406 40.789062 42.699219 40.882812 42.652344 41.011719 C 42.59375 41.160156 42.445312 41.21875 42.226562 41.175781 C 41.773438 41.085938 41.796875 41.148438 42.332031 41.417969 C 42.714844 41.613281 42.765625 41.613281 42.695312 41.429688 C 42.640625 41.28125 42.707031 41.214844 42.910156 41.214844 C 43.210938 41.214844 43.863281 40.527344 43.785156 40.296875 C 43.765625 40.226562 43.816406 40.214844 43.898438 40.269531 C 44.082031 40.382812 45.066406 39.539062 44.929688 39.382812 C 44.875 39.324219 44.90625 39.316406 44.992188 39.367188 C 45.082031 39.421875 45.316406 39.332031 45.515625 39.175781 C 46.144531 38.675781 48.246094 37.71875 48.722656 37.71875 C 49.363281 37.71875 49.460938 38.082031 48.878906 38.300781 C 47.152344 38.957031 44.328125 41.082031 44.328125 41.722656 C 44.328125 41.824219 44.226562 41.949219 44.105469 42 C 43.980469 42.046875 43.914062 42.144531 43.960938 42.21875 C 44.003906 42.289062 43.941406 42.386719 43.824219 42.433594 C 43.699219 42.480469 43.609375 42.699219 43.609375 42.957031 C 43.609375 43.199219 43.542969 43.398438 43.457031 43.398438 C 43.375 43.398438 43.347656 43.332031 43.394531 43.253906 C 43.445312 43.171875 43.414062 43.109375 43.332031 43.109375 C 43.246094 43.109375 43.179688 43.171875 43.179688 43.25 C 43.179688 43.417969 43.679688 43.707031 43.808594 43.613281 C 43.855469 43.574219 43.863281 43.589844 43.820312 43.644531 C 43.6875 43.824219 43.261719 43.824219 43.15625 43.648438 C 43.097656 43.558594 43 43.535156 42.9375 43.605469 C 42.871094 43.675781 42.902344 43.761719 43 43.796875 C 43.101562 43.832031 43.148438 43.917969 43.105469 43.984375 C 43.066406 44.050781 43.105469 44.15625 43.199219 44.210938 C 43.3125 44.285156 43.328125 44.253906 43.25 44.125 C 43.167969 43.988281 43.195312 43.957031 43.351562 44.019531 C 43.589844 44.109375 44.683594 43.097656 44.546875 42.917969 C 44.503906 42.863281 44.511719 42.847656 44.5625 42.882812 C 44.613281 42.921875 45.015625 42.621094 45.460938 42.21875 C 46.460938 41.316406 47.652344 40.726562 49.097656 40.425781 C 50.367188 40.160156 50.882812 40.136719 51.003906 40.335938 C 51.050781 40.410156 51.199219 40.433594 51.335938 40.382812 C 51.472656 40.335938 51.539062 40.34375 51.488281 40.402344 C 51.433594 40.460938 51.304688 40.523438 51.199219 40.539062 C 51.09375 40.558594 50.878906 40.644531 50.71875 40.730469 C 50.5625 40.816406 50.078125 40.96875 49.644531 41.066406 C 48.128906 41.417969 45.480469 43.027344 45.71875 43.453125 C 45.769531 43.542969 45.757812 43.566406 45.691406 43.507812 C 45.53125 43.359375 44.886719 43.980469 45 44.171875 C 45.050781 44.253906 45.023438 44.277344 44.941406 44.222656 C 44.859375 44.171875 44.714844 44.222656 44.625 44.335938 C 44.511719 44.472656 44.503906 44.570312 44.609375 44.632812 C 44.691406 44.683594 44.757812 44.65625 44.757812 44.574219 C 44.757812 44.488281 44.8125 44.417969 44.878906 44.417969 C 44.945312 44.417969 45 44.511719 45 44.625 C 45 44.746094 44.890625 44.808594 44.730469 44.777344 C 44.371094 44.707031 44.082031 44.828125 43.984375 45.089844 C 43.917969 45.261719 43.964844 45.269531 44.222656 45.140625 C 44.511719 45 44.519531 45.007812 44.292969 45.191406 C 44.15625 45.300781 44.09375 45.449219 44.152344 45.511719 C 44.210938 45.578125 44.175781 45.585938 44.078125 45.527344 C 43.980469 45.46875 43.785156 45.496094 43.648438 45.585938 C 43.410156 45.742188 43.410156 45.746094 43.644531 45.671875 C 43.820312 45.617188 43.898438 45.671875 43.898438 45.855469 C 43.898438 46 43.9375 46.160156 43.984375 46.207031 C 44.140625 46.367188 45.335938 45.492188 45.332031 45.222656 C 45.332031 45.140625 45.261719 45.171875 45.175781 45.292969 C 45.042969 45.488281 45.03125 45.488281 45.089844 45.292969 C 45.125 45.171875 45.226562 45.089844 45.3125 45.109375 C 45.402344 45.128906 45.8125 44.925781 46.230469 44.65625 C 47.398438 43.902344 48.488281 43.378906 48.664062 43.488281 C 48.757812 43.546875 48.785156 43.523438 48.730469 43.4375 C 48.617188 43.25 48.992188 43.085938 49.277344 43.199219 C 49.441406 43.261719 49.390625 43.367188 49.066406 43.640625 C 48.832031 43.84375 48.570312 43.957031 48.476562 43.898438 C 48.375 43.832031 48.34375 43.855469 48.402344 43.949219 C 48.457031 44.039062 47.996094 44.460938 47.3125 44.949219 C 46.273438 45.691406 45.824219 46.066406 44.597656 47.222656 C 44.449219 47.363281 44.257812 47.476562 44.167969 47.476562 C 44.082031 47.476562 44.050781 47.578125 44.097656 47.703125 C 44.144531 47.832031 44.121094 47.890625 44.039062 47.839844 C 43.902344 47.753906 42.632812 48.550781 42.429688 48.851562 C 42.371094 48.9375 42.359375 49.121094 42.402344 49.257812 C 42.503906 49.59375 42.207031 50.136719 41.988281 50.003906 C 41.890625 49.945312 41.910156 50.019531 42.03125 50.171875 C 42.226562 50.421875 42.222656 50.4375 41.996094 50.351562 C 41.824219 50.285156 41.742188 50.324219 41.742188 50.476562 C 41.742188 50.597656 41.8125 50.65625 41.894531 50.605469 C 41.976562 50.554688 42.148438 50.597656 42.28125 50.707031 C 42.460938 50.855469 42.488281 50.855469 42.40625 50.714844 C 42.324219 50.574219 42.390625 50.542969 42.664062 50.59375 C 42.867188 50.632812 43.035156 50.597656 43.035156 50.519531 C 43.035156 50.4375 43.101562 50.414062 43.179688 50.464844 C 43.257812 50.511719 43.324219 50.476562 43.324219 50.382812 C 43.324219 50.289062 43.230469 50.25 43.117188 50.292969 C 43.003906 50.339844 42.878906 50.296875 42.839844 50.199219 C 42.800781 50.105469 42.765625 50.140625 42.761719 50.277344 C 42.753906 50.4375 42.671875 50.496094 42.535156 50.445312 C 42.414062 50.398438 42.367188 50.285156 42.421875 50.195312 C 42.480469 50.101562 42.527344 49.929688 42.53125 49.8125 C 42.53125 49.691406 42.652344 49.570312 42.796875 49.542969 C 42.988281 49.503906 43.046875 49.5625 43.011719 49.757812 C 42.976562 49.925781 43.085938 50.09375 43.300781 50.207031 C 43.714844 50.429688 43.800781 50.4375 43.683594 50.246094 C 43.636719 50.167969 43.683594 50.136719 43.789062 50.179688 C 44 50.261719 45.417969 49.546875 46.148438 48.992188 C 46.605469 48.644531 47.203125 48.523438 47.203125 48.777344 C 47.203125 49.058594 45.515625 50.417969 44.523438 50.933594 C 43.957031 51.230469 43.511719 51.507812 43.535156 51.550781 C 43.558594 51.59375 43.339844 51.644531 43.046875 51.660156 C 42.457031 51.695312 41.691406 52.039062 41.847656 52.195312 C 41.90625 52.253906 41.84375 52.257812 41.71875 52.210938 C 41.589844 52.160156 41.441406 52.1875 41.390625 52.273438 C 41.339844 52.359375 41.367188 52.429688 41.457031 52.429688 C 41.546875 52.429688 41.570312 52.507812 41.507812 52.605469 C 41.4375 52.722656 41.339844 52.640625 41.214844 52.351562 C 41.03125 51.925781 41.027344 51.925781 41.066406 52.304688 C 41.089844 52.515625 41.1875 52.789062 41.289062 52.914062 C 41.445312 53.101562 41.429688 53.125 41.171875 53.054688 C 41.003906 53.011719 40.902344 52.941406 40.941406 52.902344 C 40.980469 52.863281 40.949219 52.703125 40.871094 52.554688 C 40.738281 52.300781 40.703125 52.296875 40.496094 52.507812 C 40.3125 52.695312 40.304688 52.773438 40.453125 52.914062 C 40.597656 53.046875 40.613281 53.039062 40.523438 52.867188 C 40.460938 52.746094 40.546875 52.796875 40.71875 52.972656 C 40.890625 53.152344 41.207031 53.339844 41.425781 53.386719 C 41.640625 53.4375 41.964844 53.519531 42.148438 53.574219 C 42.773438 53.761719 44.066406 53.746094 44.742188 53.539062 Z M 42.867188 52.039062 C 42.96875 51.996094 43.09375 52 43.140625 52.050781 C 43.1875 52.097656 43.105469 52.132812 42.953125 52.125 C 42.785156 52.121094 42.75 52.085938 42.867188 52.039062 Z M 43.46875 49.808594 C 43.46875 49.726562 43.535156 49.660156 43.617188 49.660156 C 43.703125 49.660156 43.730469 49.726562 43.683594 49.808594 C 43.632812 49.886719 43.566406 49.953125 43.53125 49.953125 C 43.496094 49.953125 43.46875 49.886719 43.46875 49.808594 Z M 42.535156 49.226562 C 42.484375 49.144531 42.523438 49.078125 42.621094 49.078125 C 42.71875 49.078125 42.753906 49.035156 42.703125 48.984375 C 42.585938 48.863281 42.871094 48.496094 43.082031 48.496094 C 43.164062 48.496094 43.109375 48.59375 42.957031 48.714844 C 42.679688 48.925781 42.679688 48.929688 42.964844 48.890625 C 43.425781 48.828125 43.644531 48.640625 43.480469 48.441406 C 43.378906 48.316406 43.414062 48.269531 43.609375 48.269531 C 43.753906 48.269531 43.84375 48.324219 43.804688 48.390625 C 43.761719 48.457031 43.816406 48.621094 43.921875 48.757812 C 44.089844 48.976562 44.085938 48.984375 43.886719 48.828125 C 43.695312 48.675781 43.601562 48.707031 43.320312 49.007812 C 42.96875 49.390625 42.683594 49.46875 42.535156 49.226562 Z M 44.042969 45.972656 C 44.042969 45.867188 44.136719 45.777344 44.253906 45.777344 C 44.414062 45.777344 44.429688 45.824219 44.308594 45.972656 C 44.222656 46.078125 44.125 46.167969 44.09375 46.167969 C 44.066406 46.167969 44.042969 46.078125 44.042969 45.972656 Z M 43.808594 42.890625 C 43.757812 42.761719 43.757812 42.617188 43.808594 42.566406 C 43.859375 42.515625 43.898438 42.601562 43.898438 42.753906 C 43.902344 42.988281 43.925781 43 44.042969 42.816406 C 44.125 42.683594 44.179688 42.667969 44.183594 42.769531 C 44.1875 43.054688 43.902344 43.144531 43.808594 42.890625 Z M 44.734375 42.425781 C 44.835938 42.382812 44.960938 42.386719 45.007812 42.4375 C 45.054688 42.484375 44.972656 42.519531 44.820312 42.511719 C 44.652344 42.507812 44.617188 42.472656 44.734375 42.425781 Z M 45.316406 41.871094 C 45.304688 41.828125 45.289062 41.714844 45.277344 41.613281 C 45.265625 41.515625 45.128906 41.453125 44.972656 41.476562 C 44.738281 41.511719 44.726562 41.492188 44.902344 41.371094 C 45.140625 41.210938 45.367188 41.363281 45.421875 41.722656 C 45.449219 41.921875 45.359375 42.046875 45.316406 41.871094 Z M 42.890625 40.867188 C 42.890625 40.835938 42.984375 40.734375 43.09375 40.640625 C 43.25 40.511719 43.324219 40.511719 43.40625 40.648438 C 43.472656 40.757812 43.449219 40.785156 43.34375 40.71875 C 43.253906 40.660156 43.179688 40.683594 43.179688 40.769531 C 43.179688 40.851562 43.113281 40.921875 43.035156 40.921875 C 42.957031 40.921875 42.890625 40.898438 42.890625 40.867188 Z M 42.175781 40.574219 C 42.175781 40.546875 42.304688 40.484375 42.460938 40.445312 C 42.621094 40.402344 42.75 40.425781 42.75 40.5 C 42.75 40.570312 42.621094 40.632812 42.460938 40.632812 C 42.304688 40.632812 42.175781 40.605469 42.175781 40.574219 Z M 43.285156 39.738281 C 43.382812 39.640625 43.5 39.59375 43.542969 39.640625 C 43.585938 39.683594 43.507812 39.765625 43.367188 39.820312 C 43.160156 39.898438 43.144531 39.882812 43.285156 39.738281 Z M 41.765625 38.59375 C 42.054688 38.195312 42.460938 37.953125 42.246094 38.300781 C 42.195312 38.382812 42.226562 38.445312 42.308594 38.445312 C 42.394531 38.445312 42.460938 38.390625 42.460938 38.324219 C 42.460938 38.257812 42.566406 38.203125 42.695312 38.203125 C 42.898438 38.203125 42.894531 38.230469 42.664062 38.402344 C 42.519531 38.511719 42.300781 38.5625 42.179688 38.523438 C 42.050781 38.476562 42.078125 38.542969 42.246094 38.671875 C 42.523438 38.890625 42.519531 38.898438 42.136719 38.828125 C 41.921875 38.789062 41.742188 38.820312 41.742188 38.894531 C 41.742188 38.96875 41.675781 39.027344 41.59375 39.027344 C 41.515625 39.027344 41.589844 38.832031 41.765625 38.59375 Z M 43.714844 38.71875 C 43.8125 38.621094 43.929688 38.574219 43.972656 38.621094 C 44.019531 38.664062 43.9375 38.746094 43.796875 38.800781 C 43.589844 38.878906 43.574219 38.863281 43.714844 38.71875 Z M 44.984375 38.636719 C 44.90625 38.425781 44.921875 38.410156 45.066406 38.554688 C 45.164062 38.652344 45.207031 38.769531 45.164062 38.816406 C 45.117188 38.859375 45.039062 38.777344 44.984375 38.636719 Z M 42.699219 37.914062 C 42.648438 37.859375 42.605469 37.746094 42.605469 37.664062 C 42.605469 37.574219 42.671875 37.582031 42.773438 37.6875 C 42.867188 37.78125 42.910156 37.894531 42.871094 37.933594 C 42.828125 37.976562 42.753906 37.964844 42.699219 37.914062 Z M 42.175781 37.710938 C 42.175781 37.625 42.238281 37.597656 42.316406 37.644531 C 42.398438 37.695312 42.460938 37.765625 42.460938 37.800781 C 42.460938 37.835938 42.398438 37.863281 42.316406 37.863281 C 42.238281 37.863281 42.175781 37.792969 42.175781 37.710938 Z M 42.746094 37.421875 C 42.566406 37.308594 42.574219 37.285156 42.785156 37.285156 C 43.003906 37.28125 43.09375 37.136719 43.0625 36.832031 C 43.054688 36.785156 43.140625 36.746094 43.246094 36.746094 C 43.402344 36.746094 43.394531 36.824219 43.210938 37.125 C 43.082031 37.332031 42.972656 37.511719 42.96875 37.527344 C 42.960938 37.542969 42.859375 37.496094 42.746094 37.421875 Z M 43.609375 36.675781 C 43.609375 36.582031 43.652344 36.546875 43.703125 36.597656 C 43.753906 36.652344 43.886719 36.582031 44 36.441406 C 44.179688 36.214844 44.183594 36.222656 44.042969 36.515625 C 43.878906 36.863281 43.609375 36.960938 43.609375 36.675781 Z M 41.5 36.191406 C 41.234375 35.898438 41.585938 35.484375 41.898438 35.722656 C 42.105469 35.882812 42.105469 35.917969 41.898438 36.136719 C 41.714844 36.332031 41.640625 36.34375 41.5 36.191406 Z M 41.816406 35.96875 C 41.863281 35.890625 41.835938 35.824219 41.75 35.824219 C 41.667969 35.824219 41.601562 35.890625 41.601562 35.96875 C 41.601562 36.050781 41.628906 36.117188 41.664062 36.117188 C 41.699219 36.117188 41.765625 36.050781 41.816406 35.96875 Z M 42.460938 35.101562 C 42.460938 35.019531 42.5625 34.949219 42.683594 34.949219 C 42.816406 34.949219 42.867188 34.882812 42.808594 34.78125 C 42.742188 34.679688 42.765625 34.652344 42.871094 34.71875 C 43.097656 34.863281 43.082031 34.917969 42.75 35.097656 C 42.554688 35.203125 42.460938 35.203125 42.460938 35.101562 Z M 48.457031 32.019531 C 48.554688 31.921875 48.667969 31.875 48.714844 31.921875 C 48.757812 31.964844 48.679688 32.046875 48.535156 32.101562 C 48.332031 32.179688 48.316406 32.164062 48.457031 32.019531 Z M 38.371094 53.1875 C 38.328125 53.140625 38.210938 53.1875 38.113281 53.285156 C 37.972656 53.429688 37.988281 53.445312 38.195312 53.367188 C 38.335938 53.3125 38.414062 53.230469 38.371094 53.1875 Z M 41.511719 50.746094 C 41.558594 50.617188 41.535156 50.558594 41.453125 50.609375 C 41.375 50.660156 41.3125 50.761719 41.3125 50.835938 C 41.3125 51.046875 41.414062 51 41.511719 50.746094 Z M 41.367188 50.164062 C 41.417969 50.035156 41.390625 49.976562 41.3125 50.027344 C 41.234375 50.074219 41.167969 50.179688 41.167969 50.253906 C 41.167969 50.460938 41.273438 50.417969 41.367188 50.164062 Z M 35.367188 49.785156 C 35.429688 49.679688 35.40625 49.65625 35.300781 49.722656 C 35.210938 49.777344 35.136719 49.746094 35.136719 49.644531 C 35.136719 49.546875 35.097656 49.507812 35.050781 49.554688 C 34.96875 49.636719 35.09375 49.953125 35.207031 49.953125 C 35.238281 49.953125 35.308594 49.878906 35.367188 49.785156 Z M 42.890625 49.808594 C 42.890625 49.726562 42.828125 49.660156 42.75 49.660156 C 42.667969 49.660156 42.605469 49.726562 42.605469 49.808594 C 42.605469 49.886719 42.667969 49.953125 42.75 49.953125 C 42.828125 49.953125 42.890625 49.886719 42.890625 49.808594 Z M 35.773438 49.320312 C 35.542969 49.246094 35.304688 49.109375 35.246094 49.019531 C 35.175781 48.914062 35.140625 48.925781 35.136719 49.054688 C 35.136719 49.164062 35.265625 49.285156 35.421875 49.328125 C 35.582031 49.371094 35.710938 49.460938 35.710938 49.527344 C 35.710938 49.597656 35.820312 49.609375 35.953125 49.558594 C 36.148438 49.480469 36.113281 49.433594 35.773438 49.320312 Z M 36.683594 49.027344 C 36.78125 48.964844 36.828125 48.851562 36.78125 48.773438 C 36.734375 48.699219 36.773438 48.652344 36.871094 48.675781 C 37.316406 48.777344 38.15625 46.351562 38.148438 44.964844 C 38.148438 43.996094 37.855469 42.601562 37.367188 41.210938 C 36.71875 39.363281 36.140625 37.257812 36.136719 36.710938 L 36.128906 36.1875 L 35.78125 36.84375 C 35.589844 37.203125 35.242188 37.992188 35.007812 38.59375 C 34.5 39.890625 33.804688 41.484375 33.367188 42.34375 C 33.128906 42.816406 33.089844 43.019531 33.207031 43.214844 C 33.292969 43.355469 33.511719 44.007812 33.699219 44.660156 C 33.949219 45.546875 34.117188 45.898438 34.363281 46.03125 C 34.546875 46.128906 34.660156 46.269531 34.613281 46.34375 C 34.570312 46.414062 34.445312 46.355469 34.335938 46.210938 C 34.097656 45.894531 34.078125 46.007812 34.28125 46.542969 C 34.394531 46.847656 34.46875 46.902344 34.597656 46.773438 C 34.6875 46.679688 34.832031 46.605469 34.914062 46.609375 C 34.996094 46.609375 34.949219 46.679688 34.808594 46.761719 C 34.671875 46.84375 34.59375 46.972656 34.636719 47.046875 C 34.683594 47.121094 34.609375 47.140625 34.472656 47.085938 C 34.3125 47.023438 34.261719 47.046875 34.324219 47.152344 C 34.378906 47.242188 34.546875 47.304688 34.699219 47.292969 C 34.847656 47.28125 34.945312 47.226562 34.910156 47.171875 C 34.878906 47.117188 34.933594 47.039062 35.03125 47 C 35.128906 46.960938 35.355469 46.636719 35.53125 46.277344 C 35.929688 45.46875 36.082031 43.820312 35.875 42.554688 C 35.6875 41.402344 35.777344 41.074219 36.15625 41.5625 C 36.5625 42.085938 36.761719 43.300781 36.675781 44.703125 C 36.613281 45.753906 36.515625 46.121094 36.070312 47.039062 C 35.777344 47.640625 35.476562 48.15625 35.402344 48.183594 C 35.324219 48.210938 35.339844 48.324219 35.4375 48.441406 C 35.574219 48.609375 35.5625 48.632812 35.386719 48.5625 C 35.265625 48.515625 35.125 48.546875 35.070312 48.628906 C 35.015625 48.722656 35.066406 48.75 35.199219 48.699219 C 35.351562 48.640625 35.421875 48.695312 35.421875 48.875 C 35.421875 49.117188 35.4375 49.117188 35.621094 48.859375 C 35.734375 48.707031 35.789062 48.496094 35.75 48.390625 C 35.699219 48.261719 35.757812 48.234375 35.933594 48.300781 C 36.109375 48.371094 36.15625 48.347656 36.085938 48.230469 C 36.027344 48.136719 36.050781 48.058594 36.132812 48.058594 C 36.34375 48.058594 36.324219 48.292969 36.09375 48.523438 C 35.796875 48.824219 35.859375 49.179688 36.203125 49.160156 C 36.367188 49.152344 36.582031 49.09375 36.683594 49.027344 Z M 34.140625 45.628906 C 34.121094 45.332031 34.375 45.285156 34.582031 45.550781 C 34.757812 45.773438 34.75 45.78125 34.539062 45.613281 C 34.34375 45.460938 34.289062 45.460938 34.226562 45.613281 C 34.175781 45.742188 34.148438 45.746094 34.140625 45.628906 Z M 34.5625 45.238281 C 34.5625 45.207031 34.675781 45.09375 34.8125 44.984375 C 35.039062 44.800781 35.046875 44.804688 34.867188 45.039062 C 34.679688 45.28125 34.5625 45.355469 34.5625 45.238281 Z M 34.523438 44.546875 C 34.621094 44.445312 34.738281 44.402344 34.78125 44.445312 C 34.824219 44.492188 34.746094 44.574219 34.605469 44.628906 C 34.398438 44.707031 34.382812 44.691406 34.523438 44.546875 Z M 34.464844 43.808594 C 34.492188 43.542969 34.449219 43.226562 34.375 43.109375 C 34.296875 42.988281 34.441406 43.105469 34.695312 43.375 C 35.195312 43.90625 35.207031 44.175781 34.730469 44.246094 C 34.457031 44.289062 34.425781 44.234375 34.464844 43.808594 Z M 34.707031 41.613281 L 34.710938 41.140625 L 34.898438 41.503906 C 35.097656 41.882812 35.074219 42.089844 34.839844 42.089844 C 34.765625 42.089844 34.707031 41.875 34.707031 41.613281 Z M 24.023438 47.695312 C 23.90625 47.574219 23.765625 47.476562 23.710938 47.476562 C 23.65625 47.476562 23.691406 47.574219 23.789062 47.695312 C 23.886719 47.816406 24.027344 47.914062 24.105469 47.914062 C 24.179688 47.914062 24.144531 47.816406 24.023438 47.695312 Z M 25.945312 47.636719 C 25.945312 47.433594 25.53125 47.328125 25.421875 47.507812 C 25.367188 47.601562 25.390625 47.628906 25.480469 47.570312 C 25.566406 47.515625 25.675781 47.539062 25.726562 47.621094 C 25.839844 47.804688 25.945312 47.8125 25.945312 47.636719 Z M 21.691406 46.878906 C 21.390625 46.566406 21.089844 46.3125 21.023438 46.3125 C 20.957031 46.3125 20.734375 46.152344 20.523438 45.953125 C 20 45.460938 18.539062 44.75 17.652344 44.558594 C 16.738281 44.359375 14.398438 44.308594 13.160156 44.460938 C 12.625 44.523438 12.304688 44.519531 12.414062 44.445312 C 12.515625 44.375 12.582031 44.230469 12.558594 44.125 C 12.449219 43.644531 15.496094 43.285156 17.414062 43.554688 C 18.210938 43.667969 18.882812 43.878906 19.683594 44.277344 C 20.308594 44.589844 20.882812 44.804688 20.960938 44.753906 C 21.039062 44.703125 21.0625 44.734375 21.011719 44.816406 C 20.960938 44.898438 21.140625 45.121094 21.410156 45.308594 C 21.679688 45.492188 21.863281 45.707031 21.816406 45.785156 C 21.769531 45.859375 21.808594 45.871094 21.902344 45.816406 C 21.992188 45.757812 22.105469 45.8125 22.152344 45.9375 C 22.199219 46.0625 22.300781 46.167969 22.375 46.167969 C 22.453125 46.167969 22.476562 46.109375 22.433594 46.035156 C 22.390625 45.964844 22.457031 45.867188 22.578125 45.816406 C 22.75 45.75 22.78125 45.800781 22.710938 46.023438 C 22.65625 46.195312 22.6875 46.3125 22.78125 46.3125 C 22.871094 46.3125 22.90625 46.246094 22.855469 46.167969 C 22.808594 46.085938 22.867188 46.019531 22.992188 46.019531 C 23.113281 46.019531 23.214844 45.9375 23.214844 45.839844 C 23.21875 45.71875 23.265625 45.730469 23.355469 45.875 C 23.453125 46.03125 23.421875 46.121094 23.246094 46.191406 C 23.066406 46.265625 23.113281 46.292969 23.410156 46.300781 C 23.78125 46.3125 23.804688 46.285156 23.632812 46.058594 C 23.152344 45.410156 22.726562 45.019531 22.597656 45.101562 C 22.515625 45.152344 22.492188 45.125 22.539062 45.046875 C 22.664062 44.84375 22.222656 44.246094 22.035156 44.367188 C 21.945312 44.421875 21.917969 44.394531 21.96875 44.3125 C 22.140625 44.03125 21.6875 43.796875 21.320312 43.980469 C 21.003906 44.136719 21 44.132812 21.269531 43.914062 C 21.542969 43.695312 21.535156 43.675781 21.054688 43.257812 C 20.78125 43.023438 20.503906 42.824219 20.4375 42.820312 C 20.367188 42.820312 20.144531 42.695312 19.933594 42.546875 C 18.832031 41.765625 16.597656 41.183594 14.667969 41.171875 C 14.035156 41.171875 13.628906 41.140625 13.761719 41.109375 C 13.898438 41.078125 13.972656 40.960938 13.933594 40.855469 C 13.820312 40.554688 15.121094 40.332031 16.421875 40.429688 C 17.460938 40.503906 18.777344 40.84375 19.625 41.25 C 20.203125 41.53125 21.777344 42.683594 21.777344 42.828125 C 21.777344 42.902344 21.878906 42.960938 22.003906 42.960938 C 22.136719 42.960938 22.183594 43.03125 22.125 43.128906 C 22.054688 43.246094 22.117188 43.273438 22.332031 43.21875 C 22.5 43.171875 22.609375 43.1875 22.566406 43.253906 C 22.527344 43.320312 22.695312 43.542969 22.9375 43.75 C 23.179688 43.957031 23.328125 44.128906 23.261719 44.128906 C 23.125 44.132812 23.523438 44.414062 23.667969 44.417969 C 23.71875 44.417969 23.902344 44.207031 24.074219 43.945312 C 24.25 43.683594 24.351562 43.59375 24.304688 43.738281 C 24.25 43.910156 24.28125 43.984375 24.394531 43.945312 C 24.488281 43.914062 24.570312 43.664062 24.574219 43.386719 C 24.578125 43.007812 24.503906 42.855469 24.257812 42.746094 C 24.078125 42.667969 23.933594 42.546875 23.933594 42.480469 C 23.933594 42.414062 24.007812 42.410156 24.097656 42.464844 C 24.199219 42.527344 24.226562 42.507812 24.164062 42.410156 C 24.007812 42.144531 23.660156 42.375 23.722656 42.703125 C 23.789062 43.054688 23.933594 43.238281 23.933594 42.96875 C 23.933594 42.816406 23.976562 42.816406 24.148438 42.960938 C 24.265625 43.0625 24.363281 43.207031 24.363281 43.289062 C 24.363281 43.378906 24.289062 43.371094 24.171875 43.273438 C 24.066406 43.183594 23.9375 43.152344 23.886719 43.203125 C 23.835938 43.253906 23.753906 43.1875 23.707031 43.054688 C 23.65625 42.925781 23.558594 42.855469 23.488281 42.898438 C 23.414062 42.941406 23.359375 42.910156 23.359375 42.824219 C 23.359375 42.738281 23.410156 42.671875 23.476562 42.671875 C 23.542969 42.671875 23.597656 42.570312 23.597656 42.445312 C 23.597656 42.3125 23.515625 42.253906 23.398438 42.296875 C 23.28125 42.34375 23.238281 42.3125 23.292969 42.222656 C 23.34375 42.136719 23.476562 42.101562 23.582031 42.144531 C 23.691406 42.1875 23.824219 42.148438 23.878906 42.058594 C 23.933594 41.96875 23.917969 41.933594 23.84375 41.980469 C 23.769531 42.027344 23.558594 41.84375 23.371094 41.570312 C 23.1875 41.296875 22.96875 41.113281 22.886719 41.164062 C 22.804688 41.21875 22.78125 41.1875 22.835938 41.101562 C 23.066406 40.722656 20.570312 39.433594 19.25 39.253906 C 18.609375 39.167969 17.96875 38.835938 17.96875 38.59375 C 17.976562 38.089844 20.960938 38.617188 22.105469 39.324219 C 22.347656 39.472656 22.609375 39.558594 22.6875 39.507812 C 22.765625 39.460938 22.78125 39.496094 22.726562 39.589844 C 22.632812 39.742188 22.8125 39.824219 23.117188 39.769531 C 23.183594 39.757812 23.195312 39.816406 23.144531 39.902344 C 23 40.140625 23.480469 40.246094 23.753906 40.035156 C 23.96875 39.875 23.976562 39.875 23.824219 40.046875 C 23.609375 40.292969 23.585938 40.539062 23.789062 40.414062 C 23.867188 40.363281 23.933594 40.414062 23.933594 40.527344 C 23.933594 40.640625 24.09375 40.804688 24.292969 40.894531 C 24.488281 40.988281 24.652344 41.152344 24.652344 41.261719 C 24.652344 41.371094 24.765625 41.558594 24.902344 41.679688 C 25.121094 41.867188 25.199219 41.867188 25.511719 41.691406 L 25.871094 41.484375 L 25.476562 41.546875 C 25.257812 41.582031 25.082031 41.550781 25.082031 41.476562 C 25.082031 41.402344 25 41.390625 24.902344 41.453125 C 24.78125 41.527344 24.785156 41.480469 24.917969 41.316406 C 25.046875 41.152344 25.0625 41.066406 24.957031 41.066406 C 24.867188 41.066406 24.800781 40.953125 24.804688 40.8125 C 24.8125 40.660156 24.847656 40.632812 24.890625 40.742188 C 24.929688 40.84375 25.019531 40.890625 25.085938 40.847656 C 25.15625 40.804688 25.183594 40.902344 25.15625 41.0625 C 25.109375 41.296875 25.175781 41.359375 25.449219 41.359375 C 25.882812 41.359375 25.910156 41.03125 25.492188 40.75 C 25.257812 40.59375 25.210938 40.464844 25.292969 40.207031 C 25.375 39.941406 25.429688 39.910156 25.527344 40.066406 C 25.59375 40.175781 25.652344 40.332031 25.652344 40.414062 C 25.652344 40.492188 25.589844 40.460938 25.511719 40.339844 C 25.394531 40.15625 25.375 40.164062 25.371094 40.390625 C 25.371094 40.605469 25.441406 40.644531 25.71875 40.574219 C 25.910156 40.523438 26.109375 40.550781 26.15625 40.628906 C 26.210938 40.714844 26.144531 40.734375 25.996094 40.675781 C 25.796875 40.597656 25.773438 40.632812 25.867188 40.859375 C 25.929688 41.015625 25.976562 41.253906 25.972656 41.394531 C 25.964844 41.542969 26.0625 41.648438 26.203125 41.648438 C 26.414062 41.648438 26.417969 41.628906 26.230469 41.503906 C 26.042969 41.382812 26.046875 41.363281 26.253906 41.363281 C 26.386719 41.359375 26.527344 41.441406 26.566406 41.542969 C 26.609375 41.652344 26.644531 41.621094 26.652344 41.46875 C 26.65625 41.328125 26.570312 41.214844 26.453125 41.214844 C 26.339844 41.214844 26.203125 41.136719 26.144531 41.046875 C 26.074219 40.929688 26.136719 40.902344 26.332031 40.953125 C 26.566406 41.015625 26.609375 40.976562 26.550781 40.746094 C 26.511719 40.589844 26.390625 40.425781 26.28125 40.386719 C 26.175781 40.34375 26.085938 40.183594 26.085938 40.03125 C 26.085938 39.882812 26.023438 39.757812 25.945312 39.757812 C 25.863281 39.757812 25.800781 39.664062 25.800781 39.546875 C 25.800781 39.433594 25.742188 39.300781 25.667969 39.257812 C 25.597656 39.210938 25.574219 39.304688 25.617188 39.46875 C 25.675781 39.699219 25.636719 39.742188 25.445312 39.667969 C 25.3125 39.613281 25.253906 39.53125 25.320312 39.480469 C 25.589844 39.28125 25.492188 38.890625 25.085938 38.542969 C 24.847656 38.339844 24.652344 38.105469 24.652344 38.023438 C 24.652344 37.824219 24.140625 37.554688 24.011719 37.6875 C 23.953125 37.746094 23.929688 37.695312 23.957031 37.582031 C 24.027344 37.277344 21.976562 36.277344 20.933594 36.109375 C 19.675781 35.902344 17.410156 36.042969 16.390625 36.390625 C 14.289062 37.101562 13.375 37.648438 12.035156 38.984375 C 10.441406 40.578125 9.816406 41.710938 9.796875 43.035156 C 9.777344 44.566406 10.660156 45.917969 12.019531 46.433594 C 12.734375 46.707031 14.222656 46.757812 15.429688 46.554688 C 17.011719 46.285156 19.523438 46.332031 20.234375 46.644531 C 20.53125 46.773438 20.773438 46.847656 20.773438 46.804688 C 20.773438 46.765625 21.046875 46.925781 21.382812 47.164062 C 22.199219 47.738281 22.367188 47.582031 21.691406 46.878906 Z M 22.136719 45.726562 C 22.085938 45.648438 22.101562 45.582031 22.164062 45.582031 C 22.230469 45.582031 22.191406 45.523438 22.085938 45.453125 C 21.949219 45.367188 21.9375 45.296875 22.050781 45.230469 C 22.136719 45.175781 22.210938 45.195312 22.210938 45.277344 C 22.210938 45.355469 22.339844 45.394531 22.496094 45.367188 C 22.863281 45.292969 22.867188 45.460938 22.503906 45.691406 C 22.328125 45.804688 22.191406 45.816406 22.136719 45.726562 Z M 21.347656 44.359375 C 21.347656 44.328125 21.449219 44.265625 21.570312 44.21875 C 21.699219 44.167969 21.753906 44.191406 21.707031 44.273438 C 21.621094 44.414062 21.347656 44.480469 21.347656 44.359375 Z M 23.5 43.996094 C 23.5 43.925781 23.59375 43.832031 23.710938 43.785156 C 23.847656 43.730469 23.890625 43.773438 23.839844 43.917969 C 23.75 44.148438 23.5 44.207031 23.5 43.996094 Z M 22.351562 42.808594 C 22.351562 42.722656 22.417969 42.695312 22.496094 42.742188 C 22.574219 42.792969 22.640625 42.863281 22.640625 42.898438 C 22.640625 42.933594 22.574219 42.960938 22.496094 42.960938 C 22.417969 42.960938 22.351562 42.890625 22.351562 42.808594 Z M 22.640625 42.300781 C 22.640625 42.285156 22.726562 42.195312 22.832031 42.109375 C 22.976562 41.988281 23.023438 41.996094 23.023438 42.140625 C 23.023438 42.246094 22.9375 42.332031 22.832031 42.332031 C 22.726562 42.332031 22.640625 42.316406 22.640625 42.300781 Z M 25.441406 41.070312 C 25.390625 40.988281 25.421875 40.921875 25.503906 40.921875 C 25.585938 40.921875 25.65625 40.988281 25.65625 41.070312 C 25.65625 41.148438 25.628906 41.214844 25.59375 41.214844 C 25.558594 41.214844 25.488281 41.148438 25.441406 41.070312 Z M 24.433594 40.632812 C 24.484375 40.550781 24.550781 40.484375 24.585938 40.484375 C 24.621094 40.484375 24.652344 40.550781 24.652344 40.632812 C 24.652344 40.710938 24.582031 40.777344 24.5 40.777344 C 24.414062 40.777344 24.386719 40.710938 24.433594 40.632812 Z M 24.539062 39.878906 C 24.5625 39.773438 24.46875 39.683594 24.335938 39.683594 C 24.207031 39.683594 24.042969 39.621094 23.980469 39.550781 C 23.914062 39.476562 23.933594 39.460938 24.027344 39.515625 C 24.121094 39.570312 24.21875 39.542969 24.246094 39.457031 C 24.277344 39.367188 24.410156 39.421875 24.554688 39.585938 C 24.726562 39.777344 24.761719 39.90625 24.65625 39.972656 C 24.570312 40.027344 24.519531 39.984375 24.539062 39.878906 Z M 23.511719 39.527344 C 23.519531 39.355469 23.554688 39.324219 23.601562 39.4375 C 23.640625 39.542969 23.636719 39.667969 23.589844 39.71875 C 23.539062 39.765625 23.507812 39.679688 23.511719 39.527344 Z M 24.652344 39.320312 C 24.460938 39.195312 24.460938 39.179688 24.652344 39.175781 C 24.824219 39.171875 24.828125 39.144531 24.675781 39.046875 C 24.515625 38.945312 24.515625 38.910156 24.683594 38.847656 C 24.816406 38.792969 24.878906 38.882812 24.878906 39.117188 C 24.878906 39.308594 24.878906 39.464844 24.875 39.464844 C 24.871094 39.460938 24.769531 39.398438 24.652344 39.320312 Z M 23.644531 38.828125 C 23.644531 38.792969 23.746094 38.730469 23.867188 38.683594 C 23.996094 38.632812 24.054688 38.65625 24.003906 38.738281 C 23.917969 38.878906 23.644531 38.945312 23.644531 38.828125 Z M 22.210938 38.601562 C 22.210938 38.527344 22.273438 38.421875 22.351562 38.375 C 22.433594 38.324219 22.457031 38.382812 22.40625 38.511719 C 22.3125 38.765625 22.210938 38.808594 22.210938 38.601562 Z M 24.269531 38.089844 C 24.269531 37.972656 24.324219 37.910156 24.390625 37.953125 C 24.457031 37.996094 24.476562 38.089844 24.429688 38.164062 C 24.3125 38.355469 24.269531 38.335938 24.269531 38.089844 Z M 42.988281 47.144531 C 43.132812 46.960938 43.410156 46.699219 43.605469 46.5625 C 43.800781 46.425781 43.878906 46.3125 43.777344 46.3125 C 43.675781 46.3125 43.632812 46.246094 43.683594 46.167969 C 43.730469 46.085938 43.664062 46.019531 43.53125 46.019531 C 43.378906 46.019531 43.320312 46.097656 43.375 46.234375 C 43.417969 46.351562 43.382812 46.492188 43.292969 46.546875 C 43.191406 46.613281 43.175781 46.582031 43.25 46.457031 C 43.328125 46.332031 43.3125 46.300781 43.203125 46.371094 C 43.109375 46.429688 43.035156 46.414062 43.035156 46.335938 C 43.035156 46.261719 42.875 46.167969 42.679688 46.132812 C 42.484375 46.09375 42.359375 46.117188 42.402344 46.1875 C 42.445312 46.257812 42.5625 46.3125 42.667969 46.3125 C 42.96875 46.3125 43.179688 46.65625 43.03125 46.898438 C 42.9375 47.042969 42.894531 47.054688 42.894531 46.929688 C 42.894531 46.8125 42.800781 46.835938 42.628906 47.003906 C 42.367188 47.253906 42.355469 47.476562 42.601562 47.476562 C 42.671875 47.476562 42.84375 47.328125 42.988281 47.144531 Z M 23.964844 47.050781 C 24.183594 46.789062 24.183594 46.753906 23.96875 46.578125 C 23.832031 46.464844 23.773438 46.453125 23.832031 46.554688 C 23.992188 46.824219 23.789062 47.175781 23.527344 47.089844 C 23.320312 47.023438 23.316406 47.035156 23.5 47.171875 C 23.621094 47.257812 23.71875 47.328125 23.722656 47.328125 C 23.722656 47.332031 23.832031 47.203125 23.964844 47.050781 Z M 25.367188 46.832031 C 25.367188 46.796875 25.304688 46.726562 25.226562 46.675781 C 25.144531 46.625 25.082031 46.65625 25.082031 46.742188 C 25.082031 46.824219 25.144531 46.894531 25.226562 46.894531 C 25.304688 46.894531 25.367188 46.867188 25.367188 46.832031 Z M 25.816406 46.574219 C 25.753906 46.398438 25.609375 46.230469 25.5 46.199219 C 25.367188 46.164062 25.351562 46.1875 25.453125 46.265625 C 25.535156 46.332031 25.648438 46.5 25.699219 46.640625 C 25.75 46.78125 25.824219 46.894531 25.863281 46.894531 C 25.902344 46.894531 25.882812 46.75 25.816406 46.574219 Z M 23.429688 46.601562 C 23.480469 46.523438 23.414062 46.457031 23.285156 46.457031 C 23.160156 46.457031 23.09375 46.523438 23.144531 46.601562 C 23.191406 46.683594 23.257812 46.75 23.285156 46.75 C 23.316406 46.75 23.382812 46.683594 23.429688 46.601562 Z M 24.890625 46.101562 C 24.847656 45.988281 24.886719 45.863281 24.980469 45.824219 C 25.078125 45.785156 25.039062 45.746094 24.902344 45.742188 C 24.765625 45.734375 24.652344 45.757812 24.652344 45.789062 C 24.652344 45.929688 24.832031 46.3125 24.898438 46.3125 C 24.9375 46.3125 24.933594 46.21875 24.890625 46.101562 Z M 24.46875 45.589844 C 24.355469 45.164062 24.675781 45.136719 25.101562 45.542969 C 25.351562 45.777344 25.515625 45.84375 25.578125 45.738281 C 25.632812 45.648438 25.625 45.585938 25.558594 45.597656 C 25.261719 45.648438 25.171875 45.566406 25.367188 45.421875 C 25.554688 45.289062 25.550781 45.277344 25.34375 45.34375 C 25.210938 45.386719 25.027344 45.328125 24.933594 45.210938 C 24.839844 45.097656 24.710938 45.035156 24.648438 45.074219 C 24.585938 45.117188 24.433594 45.109375 24.3125 45.0625 C 24.144531 44.996094 24.128906 44.929688 24.25 44.796875 C 24.4375 44.597656 24.984375 44.515625 24.867188 44.707031 C 24.824219 44.777344 24.851562 44.875 24.929688 44.921875 C 25.007812 44.972656 25.042969 44.875 25.007812 44.699219 C 24.964844 44.472656 25.007812 44.414062 25.167969 44.476562 C 25.316406 44.535156 25.347656 44.503906 25.269531 44.378906 C 25.207031 44.28125 25.15625 44.136719 25.15625 44.054688 C 25.15625 43.976562 25.039062 43.890625 24.902344 43.863281 C 24.765625 43.835938 24.652344 43.890625 24.652344 43.988281 C 24.652344 44.089844 24.53125 44.128906 24.359375 44.082031 C 24.113281 44.019531 24.082031 44.058594 24.15625 44.304688 C 24.214844 44.484375 24.175781 44.652344 24.054688 44.730469 C 23.894531 44.839844 23.902344 44.890625 24.089844 45.039062 C 24.332031 45.226562 24.363281 45.300781 24.363281 45.65625 C 24.363281 45.777344 24.402344 45.875 24.453125 45.875 C 24.5 45.875 24.507812 45.746094 24.46875 45.589844 Z M 24.363281 44.351562 C 24.363281 44.238281 24.792969 44.148438 24.851562 44.25 C 24.886719 44.308594 24.792969 44.367188 24.640625 44.378906 C 24.488281 44.390625 24.363281 44.378906 24.363281 44.351562 Z M 26.230469 43.53125 C 26.066406 43.414062 26.058594 43.359375 26.195312 43.300781 C 26.296875 43.261719 26.335938 43.164062 26.289062 43.085938 C 26.242188 43.007812 26.335938 42.90625 26.503906 42.863281 C 26.667969 42.816406 26.804688 42.675781 26.804688 42.542969 C 26.800781 42.378906 26.765625 42.359375 26.691406 42.480469 C 26.574219 42.667969 26.273438 42.664062 25.964844 42.464844 C 25.800781 42.363281 25.800781 42.320312 25.964844 42.207031 C 26.097656 42.113281 26.042969 42.101562 25.800781 42.167969 C 25.601562 42.226562 25.421875 42.285156 25.402344 42.304688 C 25.3125 42.382812 25.554688 42.816406 25.6875 42.816406 C 25.773438 42.816406 25.757812 42.722656 25.65625 42.597656 C 25.554688 42.476562 25.539062 42.378906 25.621094 42.378906 C 25.910156 42.378906 26.089844 42.753906 25.902344 42.957031 C 25.761719 43.113281 25.769531 43.125 25.933594 43.03125 C 26.085938 42.941406 26.113281 42.976562 26.039062 43.167969 C 25.925781 43.464844 26.03125 43.691406 26.273438 43.6875 C 26.378906 43.6875 26.363281 43.625 26.230469 43.53125 Z M 26.769531 43.21875 C 26.789062 42.960938 26.765625 42.9375 26.65625 43.109375 C 26.492188 43.375 26.480469 43.542969 26.632812 43.542969 C 26.691406 43.542969 26.753906 43.398438 26.769531 43.21875 Z M 42.21875 42.460938 C 42.3125 42.507812 42.273438 42.453125 42.136719 42.335938 C 41.988281 42.214844 41.917969 42.027344 41.96875 41.890625 C 42.019531 41.761719 41.953125 41.554688 41.828125 41.425781 C 41.621094 41.214844 41.597656 41.214844 41.597656 41.421875 C 41.597656 41.546875 41.652344 41.652344 41.71875 41.652344 C 41.785156 41.652344 41.835938 41.765625 41.835938 41.90625 C 41.835938 42.046875 41.855469 42.359375 41.878906 42.597656 C 41.917969 42.964844 41.9375 42.984375 41.988281 42.703125 C 42.023438 42.511719 42.121094 42.410156 42.21875 42.460938 Z M 26.710938 42.1875 C 26.761719 42.238281 26.804688 42.160156 26.804688 42.015625 C 26.804688 41.867188 26.769531 41.785156 26.722656 41.832031 C 26.675781 41.878906 26.449219 41.859375 26.21875 41.792969 C 25.976562 41.722656 25.800781 41.726562 25.800781 41.800781 C 25.800781 41.875 25.691406 41.890625 25.5625 41.839844 C 25.40625 41.78125 25.355469 41.804688 25.421875 41.910156 C 25.476562 42 25.707031 42.050781 25.9375 42.019531 C 26.28125 41.976562 26.339844 42.011719 26.265625 42.207031 C 26.191406 42.410156 26.214844 42.421875 26.398438 42.269531 C 26.515625 42.171875 26.660156 42.132812 26.710938 42.1875 Z M 32.464844 41.128906 C 32.511719 41 32.507812 40.828125 32.457031 40.742188 C 32.402344 40.652344 32.429688 40.628906 32.515625 40.683594 C 32.84375 40.886719 33.027344 39.679688 33.042969 37.207031 C 33.0625 34.789062 33.074219 34.707031 33.511719 33.605469 C 33.988281 32.40625 34.429688 31.730469 36.867188 28.460938 C 38.734375 25.957031 39.398438 24.835938 40.164062 22.875 C 41.09375 20.488281 41.359375 19.171875 41.359375 16.960938 C 41.355469 14.746094 41.074219 13.457031 40.167969 11.535156 C 39.488281 10.09375 38.804688 9.226562 37.652344 8.34375 C 35.804688 6.929688 34.066406 6.398438 31.214844 6.375 C 26.875 6.339844 22.351562 8.191406 19.050781 11.355469 C 18.535156 11.847656 17.628906 12.613281 17.039062 13.0625 C 15.640625 14.117188 14.046875 15.742188 13.402344 16.761719 C 12.851562 17.636719 12 19.722656 11.613281 21.164062 C 11.316406 22.25 11.289062 24.625 11.5625 25.773438 C 11.84375 26.976562 13.054688 29.390625 13.808594 30.253906 C 14.175781 30.675781 14.867188 31.234375 15.359375 31.507812 C 16.175781 31.964844 16.324219 31.996094 17.183594 31.933594 C 17.695312 31.894531 18.167969 31.8125 18.230469 31.753906 C 18.292969 31.695312 17.851562 31.429688 17.25 31.160156 C 14.46875 29.933594 13.015625 27.292969 13.015625 23.480469 C 13.015625 21.621094 13.347656 20.089844 14.027344 18.796875 C 14.746094 17.429688 16.238281 15.628906 17.28125 14.878906 C 17.800781 14.503906 18.976562 13.511719 19.894531 12.679688 C 21.691406 11.046875 22.640625 10.363281 23.738281 9.917969 C 24.121094 9.761719 24.828125 9.464844 25.3125 9.257812 C 27.050781 8.515625 28.765625 8.136719 30.753906 8.050781 C 33 7.957031 33.988281 8.117188 35.351562 8.796875 C 37.507812 9.875 39.21875 12.132812 39.605469 14.414062 C 39.761719 15.335938 39.796875 18.464844 39.664062 19.308594 C 39.226562 22.035156 37.75 25.191406 35.785156 27.59375 C 33.964844 29.828125 32.398438 32.289062 31.882812 33.734375 C 31.582031 34.570312 31.546875 34.921875 31.546875 37.003906 C 31.546875 39.34375 31.699219 40.484375 32.054688 40.785156 C 32.160156 40.871094 32.210938 41.039062 32.167969 41.152344 C 32.125 41.265625 32.152344 41.359375 32.234375 41.359375 C 32.3125 41.359375 32.414062 41.253906 32.464844 41.128906 Z M 14.453125 40.851562 C 14.453125 40.730469 14.425781 40.632812 14.394531 40.632812 C 14.367188 40.632812 14.304688 40.730469 14.257812 40.851562 C 14.210938 40.96875 14.238281 41.070312 14.3125 41.070312 C 14.390625 41.070312 14.453125 40.96875 14.453125 40.851562 Z M 41.769531 40.308594 C 41.667969 40.203125 41.601562 40.195312 41.601562 40.285156 C 41.601562 40.371094 41.644531 40.480469 41.695312 40.535156 C 41.746094 40.585938 41.824219 40.597656 41.867188 40.554688 C 41.90625 40.515625 41.863281 40.402344 41.769531 40.308594 Z M 41.742188 39.832031 C 41.742188 39.710938 41.6875 39.613281 41.625 39.613281 C 41.558594 39.613281 41.503906 39.710938 41.503906 39.832031 C 41.503906 39.949219 41.558594 40.050781 41.625 40.050781 C 41.6875 40.050781 41.742188 39.949219 41.742188 39.832031 Z M 42.316406 39.761719 C 42.316406 39.683594 42.222656 39.660156 42.101562 39.703125 C 41.984375 39.75 41.886719 39.8125 41.886719 39.847656 C 41.886719 39.878906 41.984375 39.902344 42.101562 39.902344 C 42.222656 39.902344 42.316406 39.839844 42.316406 39.761719 Z M 42.226562 39.398438 C 42.484375 39.199219 42.484375 39.191406 42.191406 39.214844 C 42.023438 39.226562 41.886719 39.285156 41.886719 39.347656 C 41.886719 39.40625 41.773438 39.421875 41.636719 39.375 C 41.421875 39.304688 41.417969 39.316406 41.601562 39.449219 C 41.871094 39.648438 41.902344 39.644531 42.226562 39.398438 Z M 41.457031 36.925781 C 41.457031 36.894531 41.328125 36.90625 41.167969 36.949219 C 41.011719 36.988281 40.882812 37.085938 40.882812 37.15625 C 40.882812 37.230469 41.011719 37.222656 41.167969 37.136719 C 41.328125 37.050781 41.457031 36.957031 41.457031 36.925781 Z M 41.3125 36.535156 C 41.3125 36.457031 41.246094 36.429688 41.167969 36.480469 C 41.089844 36.53125 41.023438 36.636719 41.023438 36.714844 C 41.023438 36.796875 41.089844 36.820312 41.167969 36.773438 C 41.246094 36.722656 41.3125 36.617188 41.3125 36.535156 Z M 34.796875 35.734375 C 34.941406 35.496094 34.917969 35.457031 34.621094 35.441406 C 34.429688 35.429688 34.273438 35.480469 34.273438 35.558594 C 34.273438 35.632812 34.335938 35.660156 34.40625 35.613281 C 34.480469 35.566406 34.582031 35.59375 34.632812 35.675781 C 34.679688 35.757812 34.621094 35.824219 34.5 35.824219 C 34.347656 35.824219 34.273438 35.957031 34.277344 36.226562 C 34.277344 36.613281 34.285156 36.617188 34.457031 36.316406 C 34.554688 36.144531 34.707031 35.882812 34.796875 35.734375 Z M 35.023438 35.175781 C 35.203125 35.359375 35.863281 33.875 36.195312 32.539062 L 36.554688 31.089844 L 36 31.746094 C 35.214844 32.675781 34.628906 33.882812 34.84375 34.140625 C 34.957031 34.28125 34.960938 34.371094 34.855469 34.4375 C 34.769531 34.492188 34.734375 34.589844 34.773438 34.65625 C 34.886719 34.835938 34.695312 35.253906 34.546875 35.160156 C 34.476562 35.117188 34.417969 35.015625 34.417969 34.933594 C 34.417969 34.855469 34.492188 34.835938 34.585938 34.894531 C 34.699219 34.964844 34.722656 34.921875 34.664062 34.761719 C 34.613281 34.628906 34.636719 34.484375 34.714844 34.4375 C 34.789062 34.386719 34.816406 34.285156 34.769531 34.210938 C 34.632812 33.984375 34.460938 34.183594 34.363281 34.683594 C 34.265625 35.183594 34.492188 35.480469 34.785156 35.234375 C 34.875 35.160156 34.980469 35.132812 35.023438 35.175781 Z M 35.015625 34.804688 C 35.015625 34.605469 35.046875 34.523438 35.085938 34.625 C 35.128906 34.722656 35.128906 34.886719 35.085938 34.988281 C 35.046875 35.085938 35.015625 35.003906 35.015625 34.804688 Z M 27.789062 34.757812 C 27.910156 34.613281 27.902344 34.5625 27.761719 34.5625 C 27.65625 34.5625 27.570312 34.648438 27.570312 34.757812 C 27.570312 34.863281 27.585938 34.949219 27.601562 34.949219 C 27.617188 34.949219 27.703125 34.863281 27.789062 34.757812 Z M 27.65625 33.820312 C 27.847656 33.664062 27.851562 33.640625 27.667969 33.675781 C 27.546875 33.695312 27.46875 33.625 27.492188 33.515625 C 27.570312 33.148438 27.359375 32.765625 27.082031 32.765625 C 26.929688 32.765625 26.804688 32.695312 26.804688 32.613281 C 26.804688 32.527344 26.867188 32.496094 26.9375 32.542969 C 27.203125 32.707031 27.242188 32.335938 26.988281 32.066406 C 26.847656 31.917969 26.710938 31.703125 26.6875 31.589844 C 26.660156 31.476562 26.546875 31.277344 26.433594 31.152344 C 26.324219 31.027344 26.230469 30.863281 26.226562 30.789062 C 26.226562 30.714844 25.765625 30.128906 25.207031 29.488281 C 23.6875 27.75 21.835938 26.542969 19.691406 25.902344 C 18.785156 25.632812 18.042969 25.359375 18.042969 25.292969 C 18.042969 25.226562 18.109375 25.214844 18.1875 25.265625 C 18.265625 25.316406 18.292969 25.257812 18.242188 25.125 C 18.136719 24.84375 18.292969 24.84375 19.695312 25.113281 C 20.910156 25.351562 22.875 26.277344 23.992188 27.144531 C 24.367188 27.433594 24.734375 27.632812 24.804688 27.589844 C 24.875 27.542969 24.894531 27.625 24.84375 27.769531 C 24.789062 27.914062 24.796875 27.988281 24.855469 27.933594 C 24.917969 27.878906 25.160156 28.058594 25.398438 28.332031 C 25.632812 28.609375 25.898438 28.789062 25.980469 28.738281 C 26.0625 28.6875 26.089844 28.707031 26.042969 28.789062 C 25.992188 28.871094 26.101562 29.066406 26.285156 29.226562 C 26.464844 29.386719 26.855469 29.921875 27.152344 30.414062 C 27.449219 30.910156 27.75 31.277344 27.820312 31.230469 C 27.890625 31.1875 27.914062 31.25 27.867188 31.375 C 27.816406 31.5 27.898438 31.78125 28.042969 32.003906 C 28.1875 32.222656 28.289062 32.457031 28.269531 32.523438 C 28.25 32.589844 28.363281 32.679688 28.523438 32.722656 C 28.683594 32.765625 28.773438 32.863281 28.726562 32.941406 C 28.675781 33.027344 28.761719 33.019531 28.929688 32.929688 C 29.167969 32.800781 29.253906 32.421875 29.097656 32.21875 C 29.082031 32.199219 29.058594 32.101562 29.050781 32 C 29.039062 31.902344 28.894531 31.828125 28.730469 31.835938 C 28.332031 31.855469 28.351562 31.507812 28.769531 31.050781 C 28.953125 30.847656 29.105469 30.621094 29.105469 30.542969 C 29.105469 30.464844 28.976562 30.558594 28.820312 30.746094 C 28.664062 30.9375 28.535156 31.03125 28.535156 30.953125 C 28.53125 30.878906 28.433594 30.945312 28.3125 31.101562 C 28.105469 31.375 28.101562 31.375 28.195312 31.105469 C 28.261719 30.910156 28.238281 30.859375 28.121094 30.929688 C 28.027344 30.988281 27.953125 30.953125 27.953125 30.84375 C 27.949219 30.703125 27.910156 30.710938 27.796875 30.871094 C 27.664062 31.066406 27.652344 31.066406 27.703125 30.871094 C 27.773438 30.621094 28.113281 30.574219 28.289062 30.796875 C 28.359375 30.882812 28.386719 30.824219 28.351562 30.652344 C 28.316406 30.492188 28.390625 30.261719 28.515625 30.136719 C 28.804688 29.851562 29.421875 29.855469 29.496094 30.144531 C 29.53125 30.273438 29.507812 30.304688 29.4375 30.21875 C 29.304688 30.054688 28.960938 29.953125 28.960938 30.078125 C 28.960938 30.121094 29.113281 30.328125 29.304688 30.53125 C 29.667969 30.929688 30.007812 30.890625 29.875 30.46875 C 29.808594 30.261719 29.820312 30.253906 29.941406 30.429688 C 30.023438 30.546875 30.0625 30.6875 30.027344 30.746094 C 29.988281 30.804688 30.027344 30.894531 30.105469 30.945312 C 30.1875 30.996094 30.253906 30.902344 30.253906 30.734375 C 30.253906 30.570312 30.316406 30.4375 30.390625 30.4375 C 30.46875 30.4375 30.488281 30.542969 30.4375 30.679688 C 30.378906 30.832031 30.402344 30.886719 30.503906 30.820312 C 30.589844 30.769531 30.691406 30.839844 30.730469 30.980469 C 30.769531 31.121094 30.789062 30.957031 30.777344 30.617188 C 30.761719 30.21875 30.6875 30 30.566406 30 C 30.464844 30 30.414062 30.058594 30.460938 30.132812 C 30.523438 30.234375 30.300781 30.246094 30 30.15625 C 29.980469 30.148438 30.09375 30.011719 30.253906 29.851562 C 30.605469 29.492188 30.625 29.125 30.289062 29.121094 C 30.078125 29.121094 30.070312 29.097656 30.246094 28.984375 C 30.425781 28.871094 30.421875 28.8125 30.199219 28.5625 C 30.058594 28.40625 29.925781 28.1875 29.90625 28.082031 C 29.882812 27.972656 29.816406 27.753906 29.757812 27.59375 C 29.699219 27.433594 29.585938 27.125 29.503906 26.90625 C 29.421875 26.6875 29.300781 26.542969 29.230469 26.585938 C 29.164062 26.628906 29.136719 26.578125 29.175781 26.472656 C 29.304688 26.113281 27.558594 23.511719 26.496094 22.484375 C 24.691406 20.742188 23.539062 20.0625 20.953125 19.230469 C 20.144531 18.96875 19.480469 18.6875 19.480469 18.605469 C 19.480469 18.519531 19.570312 18.53125 19.695312 18.636719 C 19.867188 18.78125 19.925781 18.769531 20 18.566406 C 20.078125 18.363281 20.207031 18.335938 20.742188 18.417969 C 21.09375 18.472656 21.523438 18.570312 21.6875 18.640625 C 21.855469 18.707031 22.445312 18.90625 23 19.078125 C 25.324219 19.796875 26.953125 21.273438 29.453125 24.917969 C 29.6875 25.257812 29.902344 25.457031 29.933594 25.363281 C 29.964844 25.269531 30.050781 25.230469 30.128906 25.277344 C 30.214844 25.332031 30.203125 25.441406 30.105469 25.5625 C 29.894531 25.816406 30.070312 26.113281 30.359375 26 C 30.542969 25.929688 30.550781 25.953125 30.398438 26.136719 C 30.265625 26.300781 30.261719 26.355469 30.386719 26.355469 C 30.480469 26.355469 30.523438 26.414062 30.480469 26.480469 C 30.378906 26.648438 30.863281 27.90625 31.167969 28.269531 C 31.402344 28.546875 31.441406 28.550781 31.769531 28.332031 C 31.960938 28.203125 32.121094 28.148438 32.125 28.210938 C 32.125 28.273438 32.195312 28.203125 32.28125 28.058594 C 32.363281 27.910156 32.394531 27.753906 32.347656 27.707031 C 32.300781 27.660156 32.261719 27.695312 32.261719 27.789062 C 32.261719 27.882812 32.195312 27.960938 32.113281 27.960938 C 32.027344 27.960938 32 27.894531 32.050781 27.8125 C 32.179688 27.597656 31.980469 27.066406 31.808594 27.171875 C 31.726562 27.222656 31.691406 27.417969 31.726562 27.609375 C 31.765625 27.820312 31.734375 27.914062 31.644531 27.859375 C 31.554688 27.804688 31.53125 27.859375 31.582031 27.996094 C 31.640625 28.148438 31.59375 28.210938 31.433594 28.1875 C 31.308594 28.167969 31.175781 28.058594 31.148438 27.945312 C 31.101562 27.78125 31.117188 27.777344 31.226562 27.933594 C 31.324219 28.074219 31.417969 27.949219 31.574219 27.46875 C 31.710938 27.042969 31.738281 26.742188 31.652344 26.621094 C 31.546875 26.472656 31.53125 26.480469 31.582031 26.648438 C 31.617188 26.769531 31.519531 27 31.359375 27.160156 C 31.125 27.394531 31.085938 27.402344 31.15625 27.203125 C 31.203125 27.070312 31.195312 26.933594 31.140625 26.902344 C 31.085938 26.867188 31.117188 26.859375 31.207031 26.882812 C 31.300781 26.902344 31.410156 26.785156 31.449219 26.621094 C 31.507812 26.398438 31.59375 26.347656 31.789062 26.425781 C 32.070312 26.542969 32.25 26.558594 32.910156 26.515625 C 33.328125 26.484375 33.332031 26.480469 33.003906 26.347656 C 32.789062 26.261719 32.695312 26.128906 32.746094 25.996094 C 32.789062 25.878906 32.765625 25.746094 32.6875 25.699219 C 32.554688 25.613281 32.511719 25.746094 32.511719 26.25 C 32.511719 26.464844 32.476562 26.476562 32.289062 26.324219 C 32.105469 26.171875 32.085938 26.175781 32.1875 26.34375 C 32.269531 26.484375 32.253906 26.515625 32.140625 26.441406 C 32.046875 26.386719 32.011719 26.269531 32.0625 26.1875 C 32.125 26.085938 32.003906 26.070312 31.707031 26.136719 C 31.320312 26.222656 31.273438 26.199219 31.355469 25.980469 C 31.425781 25.792969 31.398438 25.757812 31.261719 25.847656 C 31.140625 25.921875 31.105469 25.910156 31.164062 25.808594 C 31.21875 25.722656 31.160156 25.550781 31.035156 25.421875 C 30.828125 25.210938 30.828125 25.191406 31.070312 25.1875 C 31.316406 25.183594 31.316406 25.175781 31.078125 25.035156 C 30.941406 24.953125 30.828125 24.773438 30.824219 24.640625 C 30.824219 24.445312 30.796875 24.433594 30.699219 24.585938 C 30.609375 24.730469 30.558594 24.683594 30.507812 24.414062 C 30.472656 24.210938 30.492188 23.960938 30.558594 23.855469 C 30.667969 23.679688 30.742188 23.789062 30.699219 24.0625 C 30.691406 24.125 30.761719 24.15625 30.855469 24.136719 C 30.953125 24.117188 31.035156 24.164062 31.042969 24.246094 C 31.046875 24.324219 31.144531 24.554688 31.257812 24.753906 C 31.367188 24.957031 31.476562 25.214844 31.496094 25.335938 C 31.515625 25.453125 31.605469 25.578125 31.699219 25.609375 C 31.816406 25.648438 31.808594 25.699219 31.667969 25.789062 C 31.542969 25.871094 31.636719 25.902344 31.9375 25.878906 C 32.195312 25.863281 32.4375 25.757812 32.480469 25.648438 C 32.539062 25.496094 32.597656 25.488281 32.757812 25.625 C 32.871094 25.71875 32.929688 25.890625 32.886719 26.003906 C 32.835938 26.140625 32.898438 26.207031 33.074219 26.199219 C 33.222656 26.195312 33.265625 26.15625 33.175781 26.121094 C 33.085938 26.082031 33.046875 25.925781 33.085938 25.769531 C 33.125 25.613281 33.09375 25.484375 33.015625 25.484375 C 32.9375 25.484375 32.796875 25.179688 32.703125 24.804688 C 32.613281 24.433594 32.429688 23.925781 32.300781 23.675781 C 32.171875 23.429688 32.050781 23.152344 32.035156 23.066406 C 32.019531 22.980469 31.839844 22.636719 31.632812 22.300781 C 31.425781 21.96875 31.292969 21.695312 31.339844 21.695312 C 31.382812 21.695312 31.296875 21.515625 31.144531 21.296875 C 30.988281 21.074219 30.730469 20.632812 30.570312 20.3125 C 29.882812 18.957031 27.589844 16.640625 25.90625 15.601562 C 25.214844 15.175781 24.652344 14.796875 24.652344 14.757812 C 24.652344 14.71875 24.714844 14.726562 24.792969 14.777344 C 24.875 14.828125 24.9375 14.761719 24.9375 14.632812 C 24.9375 14.484375 24.871094 14.4375 24.757812 14.5 C 24.625 14.578125 24.621094 14.558594 24.738281 14.425781 C 24.863281 14.289062 25.058594 14.324219 25.601562 14.59375 C 26.550781 15.058594 28.195312 16.171875 29.007812 16.898438 C 29.59375 17.421875 31.402344 19.550781 31.402344 19.71875 C 31.402344 19.75 31.734375 20.359375 32.140625 21.066406 C 32.550781 21.773438 33.058594 22.769531 33.273438 23.277344 C 33.488281 23.785156 33.707031 24.136719 33.753906 24.054688 C 33.804688 23.972656 33.808594 23.808594 33.761719 23.691406 C 33.71875 23.570312 33.75 23.429688 33.832031 23.378906 C 33.925781 23.320312 33.957031 23.382812 33.910156 23.546875 C 33.867188 23.691406 33.910156 23.664062 34.003906 23.480469 C 34.230469 23.042969 34.058594 22.894531 33.707031 23.21875 C 33.429688 23.472656 33.425781 23.472656 33.5 23.136719 C 33.542969 22.945312 33.585938 22.710938 33.59375 22.613281 C 33.597656 22.515625 33.65625 22.472656 33.722656 22.511719 C 33.933594 22.644531 33.855469 22.214844 33.503906 21.304688 C 33.132812 20.355469 32.503906 19.316406 32.371094 19.449219 C 32.328125 19.496094 32.300781 19.410156 32.3125 19.265625 C 32.324219 19.117188 32.253906 19.019531 32.144531 19.042969 C 32.039062 19.0625 31.988281 19.027344 32.03125 18.960938 C 32.128906 18.796875 31.835938 17.964844 31.4375 17.28125 C 31.054688 16.625 31.042969 16.539062 31.335938 16.652344 C 31.472656 16.707031 31.523438 16.679688 31.464844 16.585938 C 31.414062 16.503906 31.289062 16.464844 31.183594 16.507812 C 30.972656 16.589844 30.589844 16.207031 30.734375 16.0625 C 30.785156 16.007812 30.828125 16.042969 30.828125 16.136719 C 30.828125 16.230469 30.941406 16.308594 31.078125 16.3125 C 31.472656 16.320312 31.851562 16.667969 31.667969 16.851562 C 31.503906 17.019531 31.613281 17.328125 31.835938 17.328125 C 31.910156 17.328125 31.929688 17.210938 31.886719 17.070312 C 31.839844 16.933594 31.960938 17.078125 32.152344 17.398438 C 32.34375 17.71875 32.707031 18.289062 32.960938 18.664062 C 33.210938 19.039062 33.519531 19.59375 33.644531 19.902344 C 33.769531 20.207031 33.996094 20.730469 34.140625 21.0625 C 34.289062 21.390625 34.511719 21.980469 34.636719 22.371094 C 34.761719 22.761719 34.90625 23.179688 34.953125 23.296875 C 35 23.417969 35.046875 23.550781 35.054688 23.589844 C 35.058594 23.628906 35.21875 23.914062 35.410156 24.222656 C 35.6875 24.679688 35.714844 24.808594 35.554688 24.90625 C 35.449219 24.976562 35.410156 25.078125 35.46875 25.140625 C 35.625 25.300781 36.011719 25.335938 35.917969 25.179688 C 35.875 25.105469 35.914062 25.046875 36.007812 25.046875 C 36.132812 25.046875 36.136719 24.996094 36.015625 24.851562 C 35.929688 24.742188 35.90625 24.601562 35.964844 24.535156 C 36.023438 24.472656 35.988281 24.464844 35.890625 24.523438 C 35.792969 24.578125 35.710938 24.558594 35.710938 24.472656 C 35.710938 24.386719 35.792969 24.3125 35.890625 24.308594 C 36.03125 24.296875 36.03125 24.28125 35.890625 24.222656 C 35.789062 24.179688 35.746094 24.085938 35.789062 24.015625 C 35.835938 23.941406 35.808594 23.882812 35.730469 23.882812 C 35.65625 23.882812 35.566406 23.960938 35.53125 24.058594 C 35.5 24.15625 35.4375 24.09375 35.390625 23.914062 C 35.34375 23.734375 35.367188 23.554688 35.4375 23.507812 C 35.507812 23.464844 35.566406 23.496094 35.566406 23.582031 C 35.566406 23.667969 35.632812 23.734375 35.710938 23.734375 C 35.886719 23.734375 35.835938 23.410156 35.640625 23.265625 C 35.550781 23.199219 35.570312 23.15625 35.683594 23.15625 C 35.785156 23.152344 35.832031 23.085938 35.78125 23.003906 C 35.730469 22.921875 35.664062 22.640625 35.628906 22.382812 C 35.421875 20.71875 34.859375 18.957031 33.890625 16.929688 C 33.160156 15.414062 31.757812 13.742188 30.574219 12.988281 C 30.199219 12.75 29.613281 12.378906 29.273438 12.164062 C 28.800781 11.867188 28.6875 11.730469 28.804688 11.589844 C 28.886719 11.484375 28.917969 11.359375 28.867188 11.308594 C 28.777344 11.21875 29.355469 11.371094 29.894531 11.582031 C 30.3125 11.746094 31.921875 12.933594 32.703125 13.652344 C 34.191406 15.027344 35.710938 18.214844 36.21875 21.042969 C 36.347656 21.761719 36.53125 22.742188 36.621094 23.222656 L 36.789062 24.09375 L 37.304688 23.003906 C 39.925781 17.46875 38.671875 11.4375 34.5625 9.828125 C 33.59375 9.449219 33.289062 9.402344 31.546875 9.371094 C 29.378906 9.328125 28.667969 9.425781 26.589844 10.070312 C 24.953125 10.578125 23.492188 11.285156 22.433594 12.078125 C 21.800781 12.554688 19.828125 14.292969 19.625 14.554688 C 19.585938 14.609375 19.066406 14.988281 18.476562 15.398438 C 16.714844 16.625 15.253906 18.519531 14.59375 20.433594 C 14.199219 21.574219 14.039062 24.472656 14.304688 25.648438 C 14.59375 26.917969 15.386719 28.457031 16.046875 29.03125 C 16.691406 29.589844 21.347656 31.988281 21.921875 32.058594 C 22.121094 32.082031 22.371094 32.042969 22.484375 31.976562 C 22.621094 31.886719 22.652344 31.902344 22.582031 32.015625 C 22.519531 32.117188 22.582031 32.1875 22.738281 32.191406 C 22.882812 32.195312 23.324219 32.355469 23.71875 32.546875 C 24.429688 32.886719 24.710938 32.824219 24.339844 32.40625 C 24.234375 32.289062 23.953125 31.929688 23.71875 31.613281 C 23.480469 31.292969 23.207031 31.058594 23.113281 31.089844 C 23.015625 31.125 22.972656 31.0625 23.019531 30.949219 C 23.066406 30.820312 22.761719 30.484375 22.207031 30.046875 C 21.171875 29.230469 20.203125 28.722656 19.445312 28.597656 C 19.148438 28.546875 18.90625 28.445312 18.90625 28.371094 C 18.90625 28.296875 18.835938 28.277344 18.75 28.332031 C 18.667969 28.382812 18.683594 28.289062 18.785156 28.121094 C 18.890625 27.953125 19.082031 27.8125 19.210938 27.8125 C 19.617188 27.8125 21.40625 28.414062 21.644531 28.628906 C 21.769531 28.742188 21.917969 28.832031 21.976562 28.832031 C 22.207031 28.832031 23.328125 29.8125 23.933594 30.542969 C 24.289062 30.972656 24.652344 31.40625 24.738281 31.503906 C 24.824219 31.605469 25.089844 32.027344 25.324219 32.445312 C 25.558594 32.863281 25.796875 33.160156 25.847656 33.105469 C 25.902344 33.054688 25.945312 33.148438 25.945312 33.320312 C 25.945312 33.761719 26.457031 34.015625 26.746094 33.71875 C 27.066406 33.394531 27.238281 33.441406 27.238281 33.859375 C 27.238281 34.058594 27.167969 34.222656 27.085938 34.222656 C 27 34.222656 26.976562 34.296875 27.03125 34.386719 C 27.097656 34.496094 27.183594 34.460938 27.28125 34.277344 C 27.363281 34.128906 27.53125 33.921875 27.65625 33.820312 Z M 26.3125 33.539062 C 26.234375 33.328125 26.25 33.3125 26.390625 33.457031 C 26.492188 33.554688 26.535156 33.671875 26.492188 33.714844 C 26.445312 33.761719 26.367188 33.679688 26.3125 33.539062 Z M 27.160156 33.378906 C 27.082031 33.320312 27 33.175781 26.976562 33.058594 C 26.9375 32.882812 26.980469 32.890625 27.183594 33.089844 C 27.4375 33.34375 27.417969 33.566406 27.160156 33.378906 Z M 25.980469 32.65625 C 25.992188 32.476562 26.054688 32.328125 26.117188 32.328125 C 26.269531 32.328125 26.257812 32.496094 26.089844 32.765625 C 25.984375 32.933594 25.960938 32.910156 25.980469 32.65625 Z M 26.457031 32.636719 C 26.414062 32.566406 26.488281 32.417969 26.628906 32.308594 C 26.847656 32.132812 26.855469 32.136719 26.699219 32.34375 C 26.601562 32.46875 26.5625 32.617188 26.613281 32.671875 C 26.667969 32.722656 26.671875 32.765625 26.621094 32.765625 C 26.574219 32.765625 26.5 32.707031 26.457031 32.636719 Z M 28.453125 32.503906 C 28.492188 32.464844 28.453125 32.339844 28.367188 32.234375 C 28.246094 32.085938 28.257812 32.039062 28.414062 32.039062 C 28.617188 32.039062 29.242188 32.445312 29.105469 32.488281 C 28.890625 32.558594 28.386719 32.570312 28.453125 32.503906 Z M 25.511719 32.320312 C 25.511719 32.234375 25.578125 32.207031 25.65625 32.257812 C 25.734375 32.304688 25.800781 32.375 25.800781 32.410156 C 25.800781 32.445312 25.734375 32.476562 25.65625 32.476562 C 25.578125 32.476562 25.511719 32.40625 25.511719 32.320312 Z M 25.800781 32.039062 C 25.671875 31.953125 25.652344 31.894531 25.753906 31.894531 C 25.851562 31.894531 25.964844 31.957031 26.015625 32.039062 C 26.125 32.21875 26.074219 32.21875 25.800781 32.039062 Z M 26.183594 31.828125 C 26.128906 31.6875 26.171875 31.640625 26.308594 31.695312 C 26.421875 31.742188 26.480469 31.835938 26.4375 31.90625 C 26.328125 32.089844 26.273438 32.070312 26.183594 31.828125 Z M 30 29.601562 C 30.011719 29.445312 30.105469 29.320312 30.207031 29.320312 C 30.351562 29.320312 30.355469 29.367188 30.21875 29.550781 C 30.125 29.675781 30.03125 29.804688 30.015625 29.832031 C 29.996094 29.863281 29.992188 29.757812 30 29.601562 Z M 26.871094 29.550781 C 26.820312 29.464844 26.808594 29.367188 26.84375 29.328125 C 26.882812 29.289062 26.953125 29.359375 27 29.484375 C 27.097656 29.738281 27.011719 29.785156 26.871094 29.550781 Z M 29.183594 28.875 C 29.105469 28.667969 29.125 28.652344 29.265625 28.792969 C 29.363281 28.894531 29.40625 29.011719 29.363281 29.054688 C 29.320312 29.101562 29.238281 29.019531 29.183594 28.875 Z M 26.636719 28.734375 C 26.738281 28.691406 26.863281 28.695312 26.910156 28.746094 C 26.957031 28.792969 26.871094 28.828125 26.722656 28.820312 C 26.554688 28.816406 26.519531 28.78125 26.636719 28.734375 Z M 28.457031 28.6875 C 28.507812 28.609375 28.574219 28.542969 28.609375 28.542969 C 28.644531 28.542969 28.671875 28.609375 28.671875 28.6875 C 28.671875 28.769531 28.605469 28.832031 28.519531 28.832031 C 28.4375 28.832031 28.410156 28.769531 28.457031 28.6875 Z M 27.273438 28.417969 C 27.328125 28.242188 26.414062 27.019531 25.566406 26.132812 C 24.828125 25.363281 23.253906 24.269531 21.835938 23.542969 C 21.160156 23.195312 19.671875 22.691406 18.570312 22.433594 C 18.03125 22.308594 17.609375 22.140625 17.636719 22.0625 C 17.714844 21.828125 19.480469 21.945312 20.601562 22.261719 C 21.738281 22.582031 23.003906 23.191406 24.21875 24.007812 C 25.164062 24.640625 27.09375 26.464844 27.09375 26.722656 C 27.09375 26.824219 27.195312 26.949219 27.316406 26.996094 C 27.441406 27.042969 27.496094 27.15625 27.441406 27.246094 C 27.386719 27.335938 27.410156 27.453125 27.492188 27.503906 C 27.578125 27.554688 27.6875 27.769531 27.738281 27.976562 C 27.8125 28.28125 27.773438 28.371094 27.539062 28.433594 C 27.378906 28.476562 27.257812 28.46875 27.273438 28.417969 Z M 31.890625 25.460938 C 31.824219 25.347656 31.851562 25.332031 31.976562 25.410156 C 32.113281 25.496094 32.144531 25.464844 32.085938 25.3125 C 32.023438 25.144531 32.085938 25.109375 32.355469 25.160156 C 32.746094 25.234375 32.746094 25.234375 32.308594 25.464844 C 32.070312 25.589844 31.96875 25.589844 31.890625 25.460938 Z M 31.679688 24.136719 C 31.671875 24.035156 31.644531 23.839844 31.617188 23.699219 C 31.59375 23.558594 31.625 23.410156 31.695312 23.367188 C 31.761719 23.324219 31.792969 23.429688 31.757812 23.597656 C 31.714844 23.835938 31.753906 23.886719 31.929688 23.820312 C 32.113281 23.746094 32.125 23.769531 31.996094 23.929688 C 31.910156 24.035156 31.878906 24.167969 31.929688 24.222656 C 31.980469 24.273438 31.949219 24.316406 31.855469 24.316406 C 31.765625 24.316406 31.683594 24.234375 31.679688 24.136719 Z M 35.0625 23.296875 C 34.988281 23.171875 35.003906 23.144531 35.113281 23.210938 C 35.359375 23.363281 35.316406 23.144531 35.042969 22.835938 C 34.898438 22.675781 34.871094 22.570312 34.96875 22.570312 C 35.0625 22.570312 35.136719 22.632812 35.136719 22.707031 C 35.136719 22.78125 35.238281 22.863281 35.359375 22.886719 C 35.550781 22.929688 35.554688 22.972656 35.378906 23.210938 C 35.226562 23.425781 35.152344 23.445312 35.0625 23.296875 Z M 34.796875 22.164062 C 34.75 22.085938 34.804688 21.941406 34.921875 21.839844 C 35.15625 21.644531 35.203125 21.796875 35.007812 22.113281 C 34.933594 22.234375 34.851562 22.253906 34.796875 22.164062 Z M 29.175781 21.695312 C 29.125 21.617188 29.15625 21.550781 29.238281 21.550781 C 29.324219 21.550781 29.390625 21.617188 29.390625 21.695312 C 29.390625 21.777344 29.363281 21.84375 29.328125 21.84375 C 29.292969 21.84375 29.222656 21.777344 29.175781 21.695312 Z M 34.542969 21.441406 C 34.367188 21.214844 34.371094 21.207031 34.574219 21.367188 C 34.699219 21.46875 34.855469 21.5 34.921875 21.441406 C 34.984375 21.382812 34.992188 21.414062 34.933594 21.515625 C 34.800781 21.75 34.777344 21.746094 34.542969 21.441406 Z M 27.851562 20.738281 C 26.941406 19.417969 26.621094 19.074219 25.726562 18.445312 C 24.6875 17.71875 22.433594 16.546875 21.742188 16.375 C 21.523438 16.320312 21.347656 16.214844 21.347656 16.136719 C 21.347656 16.0625 21.429688 16.046875 21.527344 16.109375 C 21.648438 16.183594 21.644531 16.136719 21.507812 15.972656 C 21.335938 15.757812 21.347656 15.722656 21.582031 15.722656 C 21.984375 15.722656 23.964844 16.414062 24.507812 16.742188 C 25.835938 17.550781 26.652344 18.097656 26.960938 18.375 C 27.476562 18.839844 28.054688 19.785156 28.167969 20.351562 C 28.230469 20.65625 28.324219 20.789062 28.433594 20.722656 C 28.523438 20.667969 28.511719 20.730469 28.402344 20.867188 C 28.152344 21.179688 28.160156 21.183594 27.851562 20.738281 Z M 36.238281 15.960938 C 35.890625 15.210938 35.339844 14.234375 35.015625 13.792969 C 34.695312 13.351562 34.476562 12.941406 34.535156 12.878906 C 34.589844 12.816406 34.5625 12.804688 34.472656 12.859375 C 34.277344 12.972656 33.78125 12.449219 33.902344 12.25 C 33.949219 12.171875 33.914062 12.082031 33.820312 12.050781 C 33.621094 11.984375 33.523438 11.5 33.710938 11.5 C 33.84375 11.5 35.3125 13.023438 35.84375 13.710938 C 36.40625 14.4375 37.03125 15.902344 37.085938 16.621094 C 37.117188 17.007812 37.082031 17.328125 37.007812 17.328125 C 36.9375 17.328125 36.589844 16.710938 36.238281 15.960938 Z M 28.660156 14.410156 C 28.136719 14.261719 27.511719 13.824219 27.605469 13.667969 C 27.648438 13.597656 27.578125 13.539062 27.453125 13.539062 C 27.3125 13.539062 27.261719 13.472656 27.320312 13.371094 C 27.386719 13.265625 27.359375 13.242188 27.257812 13.308594 C 27.164062 13.367188 26.988281 13.308594 26.867188 13.183594 C 26.742188 13.058594 26.558594 12.957031 26.460938 12.957031 C 26.359375 12.957031 26.277344 12.859375 26.277344 12.742188 C 26.277344 12.609375 26.339844 12.570312 26.433594 12.648438 C 26.519531 12.714844 26.789062 12.835938 27.03125 12.917969 C 27.273438 13.003906 27.902344 13.367188 28.421875 13.730469 C 29.339844 14.367188 29.433594 14.628906 28.660156 14.410156 Z M 26.929688 34.09375 C 27.035156 34.023438 27.066406 33.933594 27 33.890625 C 26.933594 33.851562 26.792969 33.90625 26.691406 34.019531 C 26.488281 34.246094 26.625 34.289062 26.929688 34.09375 Z M 29.453125 33.507812 C 29.5 33.433594 29.40625 33.410156 29.246094 33.453125 C 28.910156 33.542969 28.871094 33.640625 29.167969 33.640625 C 29.28125 33.640625 29.410156 33.582031 29.453125 33.507812 Z M 29.535156 33.140625 C 29.535156 33.105469 29.46875 33.035156 29.390625 32.984375 C 29.3125 32.933594 29.246094 32.964844 29.246094 33.050781 C 29.246094 33.132812 29.3125 33.203125 29.390625 33.203125 C 29.46875 33.203125 29.535156 33.175781 29.535156 33.140625 Z M 30.113281 32.269531 C 30.042969 32.078125 30.027344 31.871094 30.082031 31.8125 C 30.136719 31.75 30.097656 31.746094 30 31.804688 C 29.898438 31.863281 29.839844 31.957031 29.867188 32.011719 C 29.898438 32.066406 29.960938 32.226562 30.011719 32.367188 C 30.058594 32.503906 30.132812 32.621094 30.171875 32.621094 C 30.210938 32.621094 30.1875 32.464844 30.113281 32.269531 Z M 30.777344 31.824219 C 30.777344 31.710938 30.722656 31.648438 30.65625 31.691406 C 30.589844 31.730469 30.574219 31.828125 30.617188 31.902344 C 30.734375 32.09375 30.777344 32.070312 30.777344 31.824219 Z M 28.886719 31.457031 C 28.9375 31.375 28.914062 31.308594 28.832031 31.308594 C 28.753906 31.308594 28.648438 31.375 28.601562 31.457031 C 28.550781 31.535156 28.578125 31.601562 28.65625 31.601562 C 28.734375 31.601562 28.839844 31.535156 28.886719 31.457031 Z M 30.449219 31.238281 C 30.492188 31.117188 30.46875 31.019531 30.390625 31.019531 C 30.316406 31.019531 30.253906 31.117188 30.253906 31.238281 C 30.253906 31.355469 30.277344 31.457031 30.308594 31.457031 C 30.339844 31.457031 30.402344 31.355469 30.449219 31.238281 Z M 30.109375 31.140625 C 30.109375 31.082031 30.042969 30.996094 29.964844 30.945312 C 29.886719 30.894531 29.820312 30.921875 29.820312 31.003906 C 29.820312 31.085938 29.714844 31.113281 29.582031 31.0625 C 29.429688 31 29.378906 31.027344 29.441406 31.128906 C 29.546875 31.304688 30.109375 31.316406 30.109375 31.140625 Z M 28.628906 30.410156 C 28.582031 30.292969 28.546875 30.328125 28.539062 30.496094 C 28.535156 30.648438 28.566406 30.734375 28.617188 30.6875 C 28.664062 30.640625 28.667969 30.511719 28.628906 30.410156 Z M 32.199219 29.507812 C 32.214844 29.234375 32.160156 29.179688 31.929688 29.242188 C 31.738281 29.292969 31.675781 29.261719 31.746094 29.148438 C 31.804688 29.054688 31.78125 28.980469 31.699219 28.980469 C 31.613281 28.980469 31.546875 29.078125 31.546875 29.199219 C 31.546875 29.324219 31.679688 29.417969 31.867188 29.421875 C 32.152344 29.425781 32.160156 29.441406 31.945312 29.570312 C 31.804688 29.652344 31.738281 29.808594 31.785156 29.941406 C 31.902344 30.246094 32.175781 29.960938 32.199219 29.507812 Z M 32.488281 28.554688 C 32.367188 28.359375 31.832031 28.34375 31.832031 28.535156 C 31.832031 28.609375 31.703125 28.644531 31.546875 28.613281 C 31.386719 28.585938 31.257812 28.625 31.257812 28.707031 C 31.257812 28.890625 31.972656 28.828125 32.253906 28.621094 C 32.421875 28.5 32.441406 28.523438 32.355469 28.761719 C 32.273438 28.984375 32.285156 29.011719 32.414062 28.882812 C 32.507812 28.789062 32.539062 28.640625 32.488281 28.554688 Z M 19.265625 28.105469 C 19.3125 28.023438 19.289062 27.960938 19.210938 27.960938 C 19.128906 27.960938 19.027344 28.023438 18.976562 28.105469 C 18.929688 28.183594 18.953125 28.25 19.03125 28.25 C 19.109375 28.25 19.214844 28.183594 19.265625 28.105469 Z M 32.925781 27.332031 C 33.035156 27.375 33.125 27.34375 33.125 27.261719 C 33.125 27.183594 33.023438 27.078125 32.902344 27.03125 C 32.777344 26.980469 32.710938 26.886719 32.753906 26.816406 C 32.792969 26.746094 32.671875 26.722656 32.476562 26.757812 C 32.28125 26.796875 32.144531 26.871094 32.171875 26.921875 C 32.199219 26.972656 32.261719 27.136719 32.316406 27.292969 C 32.390625 27.492188 32.460938 27.527344 32.574219 27.414062 C 32.660156 27.324219 32.820312 27.289062 32.925781 27.332031 Z M 32.40625 27.085938 C 32.40625 27.003906 32.472656 26.941406 32.550781 26.941406 C 32.628906 26.941406 32.695312 27.003906 32.695312 27.085938 C 32.695312 27.164062 32.628906 27.230469 32.550781 27.230469 C 32.472656 27.230469 32.40625 27.164062 32.40625 27.085938 Z M 33.355469 26.820312 C 33.140625 26.601562 33.136719 26.613281 33.304688 26.976562 C 33.402344 27.191406 33.507812 27.296875 33.535156 27.210938 C 33.566406 27.125 33.484375 26.949219 33.355469 26.820312 Z M 40.238281 25.984375 C 40.304688 25.558594 40.304688 25.558594 40.023438 26.066406 C 39.683594 26.683594 39.652344 26.9375 39.953125 26.632812 C 40.074219 26.511719 40.203125 26.21875 40.238281 25.984375 Z M 34.992188 26.007812 C 34.992188 25.976562 34.890625 25.914062 34.769531 25.863281 C 34.640625 25.816406 34.585938 25.839844 34.632812 25.921875 C 34.71875 26.058594 34.992188 26.125 34.992188 26.007812 Z M 41.679688 25.6875 C 42.078125 25.585938 43.25 23.492188 43.40625 22.601562 C 43.578125 21.628906 44.183594 21.257812 44.183594 22.121094 C 44.183594 22.636719 43.667969 24.300781 43.414062 24.601562 C 43.015625 25.078125 42.984375 25.230469 43.304688 25.125 C 43.472656 25.070312 44.078125 24.949219 44.652344 24.851562 L 45.691406 24.675781 L 45.765625 23.949219 C 45.847656 23.121094 45.585938 21.152344 45.261719 20.183594 C 45.035156 19.511719 43.65625 17.316406 43.164062 16.847656 C 42.898438 16.59375 42.890625 16.605469 42.890625 17.359375 C 42.894531 18.816406 42.269531 21.621094 41.671875 22.863281 C 41.316406 23.601562 41.050781 24.5625 40.972656 25.382812 C 40.929688 25.820312 40.960938 25.921875 41.128906 25.855469 C 41.246094 25.808594 41.492188 25.734375 41.679688 25.6875 Z M 44.679688 23.1875 C 44.632812 22.96875 44.566406 22.710938 44.539062 22.613281 C 44.511719 22.519531 44.5625 22.46875 44.660156 22.507812 C 44.878906 22.59375 45.335938 23.394531 45.226562 23.507812 C 45.023438 23.710938 44.757812 23.558594 44.679688 23.1875 Z M 34.550781 25.296875 C 34.722656 25.070312 34.714844 25.050781 34.488281 25.140625 C 34.292969 25.214844 34.257812 25.191406 34.34375 25.046875 C 34.410156 24.941406 34.40625 24.890625 34.332031 24.9375 C 34.140625 25.054688 33.882812 24.714844 33.929688 24.398438 C 33.949219 24.25 34.042969 24.082031 34.140625 24.023438 C 34.234375 23.964844 34.28125 23.824219 34.242188 23.714844 C 34.203125 23.59375 34.085938 23.699219 33.929688 24 C 33.71875 24.410156 33.710938 24.542969 33.867188 24.898438 C 33.964844 25.128906 34.097656 25.285156 34.160156 25.246094 C 34.222656 25.207031 34.273438 25.289062 34.273438 25.425781 C 34.273438 25.566406 34.292969 25.648438 34.316406 25.617188 C 34.335938 25.582031 34.445312 25.441406 34.550781 25.296875 Z M 34.476562 24.410156 C 34.429688 24.28125 34.328125 24.171875 34.257812 24.171875 C 34.1875 24.171875 34.207031 24.300781 34.304688 24.457031 C 34.507812 24.789062 34.609375 24.761719 34.476562 24.410156 Z M 34.476562 24.410156 "/>
</g>
</svg>
