<?xml version="1.0" encoding="UTF-8"?>
<svg xmlns="http://www.w3.org/2000/svg" xmlns:xlink="http://www.w3.org/1999/xlink" width="128px" height="128px" viewBox="0 0 128 128" version="1.1">
<g id="surface1">
<path style=" stroke:none;fill-rule:nonzero;fill:rgb(38.431373%,38.431373%,38.431373%);fill-opacity:1;" d="M 66.203125 118.253906 C 65.464844 118.125 63.796875 117.460938 62.496094 116.773438 L 60.128906 115.527344 L 56.328125 115.601562 C 52.851562 115.671875 49.757812 115.355469 48.296875 114.78125 C 43.683594 112.960938 40.410156 110.332031 37.753906 106.316406 C 34.679688 101.660156 34.121094 101.363281 28.539062 101.363281 C 25.625 101.363281 23.957031 101.226562 22.851562 100.902344 C 15.285156 98.667969 10.265625 90.742188 11.769531 83.414062 C 12.542969 79.664062 15.558594 74.609375 18.691406 71.824219 C 20.902344 69.855469 24.371094 67.503906 26.421875 66.582031 C 27.273438 66.199219 28.066406 65.734375 28.179688 65.546875 C 28.308594 65.335938 27.652344 64.441406 26.507812 63.253906 C 23.527344 60.175781 21.953125 57.464844 20.8125 53.441406 C 19.871094 50.125 19.882812 43.800781 20.839844 40.1875 C 22.097656 35.417969 25.171875 30.167969 28.515625 27.074219 C 29.703125 25.976562 35.933594 20.65625 38.144531 18.851562 C 41.492188 16.121094 48.285156 12.492188 52.894531 10.964844 C 56.339844 9.820312 60.050781 9.34375 64.527344 9.464844 C 70.621094 9.632812 74.453125 11.164062 78.480469 15.042969 C 81.183594 17.648438 83.183594 20.992188 84.191406 24.605469 C 84.726562 26.515625 86.023438 29.410156 86.34375 29.410156 C 86.644531 29.410156 88.945312 31.714844 90.128906 33.199219 C 92.570312 36.261719 94.269531 41.398438 94.601562 46.742188 C 94.695312 48.183594 94.886719 49.515625 95.03125 49.703125 C 95.175781 49.890625 95.964844 50.203125 96.785156 50.398438 C 105.195312 52.40625 111.140625 57.527344 114.734375 65.863281 C 116.269531 69.417969 116.636719 71.683594 116.453125 76.4375 C 116.335938 79.476562 116.15625 80.6875 115.570312 82.453125 C 113.996094 87.183594 112.949219 88.902344 109.054688 93.140625 C 106.496094 95.921875 106.191406 96.496094 105.148438 100.488281 C 104.289062 103.785156 102.835938 106.964844 101.285156 108.949219 C 99.199219 111.621094 94.988281 114.082031 91.070312 114.914062 C 89.230469 115.304688 87.953125 115.355469 84.316406 115.191406 L 79.832031 114.992188 L 76.988281 116.476562 C 73.183594 118.46875 70.265625 118.949219 66.203125 118.253906 Z M 73.105469 115.449219 C 75.039062 114.816406 75.648438 114.144531 75.199219 113.140625 C 74.941406 112.566406 74.714844 112.433594 74.21875 112.558594 C 73.867188 112.644531 73.742188 112.640625 73.945312 112.546875 C 74.1875 112.433594 73.679688 111.699219 72.433594 110.355469 C 71.398438 109.242188 69.960938 107.433594 69.238281 106.335938 C 67.703125 103.992188 66.261719 100.03125 66.253906 98.140625 C 66.253906 97.40625 66.117188 96.070312 65.953125 95.167969 C 65.691406 93.742188 65.210938 92.515625 62.90625 87.433594 C 62.667969 86.898438 62.222656 85.914062 61.925781 85.246094 L 61.378906 84.03125 L 61.359375 86.507812 C 61.347656 87.867188 61.152344 90.03125 60.925781 91.3125 C 59.675781 98.359375 59.570312 99.410156 59.917969 101.386719 C 60.582031 105.175781 62.449219 107.976562 65.371094 109.558594 C 67.855469 110.902344 69.300781 111.839844 68.902344 111.84375 C 68.617188 111.847656 68.628906 112.039062 68.957031 112.683594 L 69.382812 113.515625 L 66.164062 112.148438 C 62.378906 110.539062 60.257812 108.714844 58.976562 105.96875 C 57.214844 102.179688 57.015625 98.480469 58.277344 93.0625 C 58.75 91.039062 58.890625 89.503906 58.890625 86.359375 C 58.894531 82.695312 58.8125 82.039062 58.105469 79.878906 C 57.382812 77.664062 55.605469 74.566406 54.078125 72.855469 C 52.707031 71.320312 48.339844 68.730469 45.636719 67.851562 C 40.023438 66.03125 36.289062 66.070312 30.371094 68.015625 C 25.367188 69.65625 21.605469 72.292969 18.414062 76.386719 C 14.425781 81.503906 13.496094 85.027344 14.945312 89.566406 C 15.667969 91.839844 16.207031 92.691406 18.695312 95.476562 C 21.285156 98.378906 24.941406 99.234375 31.257812 98.410156 C 34.828125 97.949219 38.519531 98.640625 40.910156 100.226562 C 43.175781 101.726562 45.855469 104.605469 45.855469 105.539062 C 45.855469 106.582031 45.21875 106.367188 43.621094 104.796875 C 42.875 104.0625 41.445312 103.046875 40.441406 102.539062 L 38.621094 101.621094 L 39.558594 103.40625 C 40.488281 105.175781 43.097656 108.398438 44.25 109.210938 C 44.582031 109.441406 44.914062 109.71875 44.992188 109.828125 C 45.203125 110.113281 46.890625 110.960938 48.257812 111.464844 C 50.363281 112.246094 52.347656 112.632812 54.625 112.699219 L 56.855469 112.765625 L 55.664062 111.390625 C 55.007812 110.636719 54.472656 109.90625 54.472656 109.769531 C 54.472656 109.632812 54.261719 109.519531 54.007812 109.519531 C 53.625 109.519531 53.605469 109.597656 53.898438 109.957031 C 54.09375 110.195312 54.148438 110.394531 54.019531 110.394531 C 53.890625 110.394531 53.929688 110.539062 54.105469 110.71875 C 54.28125 110.898438 54.363281 111.261719 54.285156 111.519531 C 54.171875 111.898438 54.210938 111.890625 54.46875 111.480469 C 54.84375 110.886719 55.203125 111.027344 55.636719 111.9375 C 55.9375 112.566406 55.933594 112.566406 55.476562 111.996094 C 55.019531 111.421875 55.007812 111.421875 54.601562 111.972656 C 54.210938 112.507812 54.183594 112.488281 54.007812 111.609375 C 53.910156 111.101562 53.65625 110.683594 53.449219 110.683594 C 53.242188 110.683594 52.976562 110.53125 52.863281 110.34375 C 52.722656 110.113281 52.8125 110.0625 53.132812 110.1875 C 53.578125 110.363281 53.578125 110.320312 53.128906 109.582031 C 52.863281 109.148438 52.8125 108.945312 53.019531 109.132812 C 53.4375 109.511719 54.273438 109.320312 54.019531 108.902344 C 53.933594 108.753906 53.738281 108.710938 53.59375 108.800781 C 53.449219 108.894531 53.414062 108.746094 53.519531 108.472656 C 53.632812 108.167969 53.515625 107.835938 53.207031 107.609375 C 52.933594 107.40625 52.730469 107.164062 52.753906 107.066406 C 52.773438 106.96875 52.714844 106.523438 52.617188 106.078125 C 52.429688 105.214844 50.75 104.054688 50.191406 104.402344 C 50.011719 104.519531 49.945312 104.433594 50.035156 104.195312 C 50.125 103.957031 49.886719 103.660156 49.445312 103.453125 C 48.546875 103.039062 48.355469 103.023438 48.570312 103.382812 C 48.664062 103.53125 48.613281 103.730469 48.460938 103.828125 C 48.308594 103.921875 48.230469 103.761719 48.285156 103.46875 C 48.34375 103.152344 48.070312 102.683594 47.621094 102.320312 C 47.203125 101.980469 45.992188 100.859375 44.933594 99.832031 C 42.8125 97.773438 40.589844 96.453125 37.953125 95.679688 C 36.503906 95.253906 35.707031 95.214844 32.929688 95.417969 C 27.34375 95.828125 24.925781 95.726562 23.378906 95.019531 C 20.925781 93.894531 19.53125 92.625 18.507812 90.585938 C 17.644531 88.859375 17.558594 88.460938 17.558594 86.070312 C 17.558594 83.59375 17.621094 83.316406 18.707031 81.117188 C 20.027344 78.441406 23.054688 75.121094 25.890625 73.242188 C 29.515625 70.835938 35.902344 69.09375 39.679688 69.476562 C 44.449219 69.960938 47.824219 71.464844 50.914062 74.476562 C 54.804688 78.265625 55.992188 81.101562 55.957031 86.519531 C 55.949219 88.207031 55.746094 90.566406 55.507812 91.761719 C 54.324219 97.734375 54.226562 101.765625 55.1875 105.050781 C 55.835938 107.257812 58.132812 110.628906 59.953125 112.035156 C 64.332031 115.421875 69.273438 116.703125 73.105469 115.449219 Z M 71.78125 112.980469 C 71.265625 112.832031 70.847656 112.648438 70.847656 112.574219 C 70.847656 112.304688 72.601562 112.640625 72.925781 112.96875 C 73.3125 113.359375 73.078125 113.363281 71.78125 112.980469 Z M 50.589844 108.929688 C 50.503906 108.789062 50.246094 108.742188 50.019531 108.832031 C 49.792969 108.921875 49.261719 108.71875 48.839844 108.382812 L 48.074219 107.773438 L 48.773438 107.773438 C 49.160156 107.773438 49.628906 107.929688 49.820312 108.121094 C 50.085938 108.394531 50.167969 108.378906 50.183594 108.046875 C 50.191406 107.816406 50.320312 107.933594 50.472656 108.3125 C 50.640625 108.742188 50.898438 108.9375 51.160156 108.835938 C 51.390625 108.746094 51.640625 108.769531 51.714844 108.890625 C 51.789062 109.007812 51.601562 109.125 51.296875 109.148438 C 50.996094 109.171875 50.679688 109.074219 50.589844 108.929688 Z M 51.640625 108.34375 L 50.960938 107.773438 L 51.617188 107.773438 C 51.976562 107.773438 52.183594 107.859375 52.082031 107.964844 C 51.976562 108.070312 52.035156 108.332031 52.210938 108.546875 C 52.664062 109.097656 52.433594 109.015625 51.640625 108.34375 Z M 49.589844 107.207031 C 49.589844 107.054688 49.71875 106.851562 49.871094 106.753906 C 50.035156 106.652344 50.085938 106.769531 49.984375 107.027344 C 49.792969 107.535156 49.589844 107.625 49.589844 107.207031 Z M 50.617188 106.34375 C 50.679688 106.277344 50.605469 106.070312 50.453125 105.882812 C 50.261719 105.644531 50.300781 105.539062 50.585938 105.539062 C 50.8125 105.539062 50.941406 105.636719 50.867188 105.757812 C 50.792969 105.875 51.089844 106.105469 51.527344 106.265625 L 52.316406 106.554688 L 51.410156 106.507812 C 50.910156 106.480469 50.554688 106.40625 50.617188 106.34375 Z M 65.054688 105.660156 C 64.109375 104.640625 62.230469 100.96875 62.230469 100.152344 C 62.230469 99.355469 62.671875 99.289062 63.300781 99.988281 C 64.03125 100.804688 65.519531 104.183594 65.464844 104.90625 C 65.441406 105.234375 65.550781 105.375 65.738281 105.257812 C 65.929688 105.136719 65.96875 105.195312 65.839844 105.410156 C 65.722656 105.601562 65.78125 105.949219 65.972656 106.183594 C 66.648438 107.007812 65.917969 106.59375 65.054688 105.660156 Z M 51.660156 105.558594 C 51.457031 105.332031 51.417969 105.148438 51.570312 105.148438 C 51.871094 105.148438 52.300781 105.703125 52.132812 105.867188 C 52.074219 105.921875 51.863281 105.78125 51.660156 105.558594 Z M 49.175781 104.070312 C 49.019531 103.65625 49.054688 103.621094 49.335938 103.90625 C 49.535156 104.105469 49.621094 104.339844 49.535156 104.429688 C 49.445312 104.519531 49.285156 104.359375 49.175781 104.070312 Z M 62.855469 95.976562 C 62.53125 95.253906 62.660156 94.371094 63.089844 94.371094 C 63.394531 94.371094 63.664062 95.136719 63.664062 95.996094 C 63.664062 96.910156 63.269531 96.898438 62.855469 95.976562 Z M 88.503906 112.707031 C 90.859375 112.375 93.828125 111.359375 95.742188 110.230469 C 98.707031 108.484375 101.304688 104.277344 102.722656 98.945312 C 103.714844 95.203125 104.484375 93.785156 106.828125 91.375 C 113.785156 84.21875 115.714844 75.636719 112.269531 67.179688 C 109.539062 60.46875 104.84375 55.953125 98.28125 53.71875 C 96.488281 53.109375 95.1875 52.898438 92.347656 52.753906 C 90.347656 52.652344 88.773438 52.667969 88.84375 52.789062 C 88.917969 52.90625 88.707031 53.007812 88.378906 53.007812 C 87.273438 53.007812 84.226562 54.199219 82.234375 55.410156 C 79.945312 56.800781 77.316406 59.722656 76.035156 62.292969 C 74.777344 64.820312 74.179688 68.25 74.378906 71.800781 C 74.542969 74.761719 74.730469 75.476562 77.152344 82.460938 C 78.410156 86.097656 78.75 88.839844 78.34375 92.074219 C 77.785156 96.492188 76.566406 98.988281 73.9375 101.105469 C 73.105469 101.773438 72.453125 102.410156 72.480469 102.519531 C 72.511719 102.628906 72.265625 102.707031 71.9375 102.695312 C 71.605469 102.683594 71.273438 102.855469 71.199219 103.078125 C 71.105469 103.347656 71.183594 103.40625 71.429688 103.253906 C 71.667969 103.101562 71.726562 103.136719 71.597656 103.351562 C 71.269531 103.886719 71.960938 104.859375 72.667969 104.859375 C 73.703125 104.859375 75.816406 103.324219 77.273438 101.511719 C 80.105469 97.980469 81.695312 92.914062 81.386719 88.398438 C 81.269531 86.726562 80.78125 84.628906 79.648438 80.972656 C 77.878906 75.257812 77.449219 73.21875 77.464844 70.648438 C 77.492188 65.640625 79.191406 61.261719 82.003906 58.933594 C 85.179688 56.3125 87.984375 55.460938 92.535156 55.742188 C 98.355469 56.101562 100.8125 57.1875 104.785156 61.160156 C 107.214844 63.59375 107.707031 64.265625 108.847656 66.699219 C 110.484375 70.183594 110.722656 71.101562 110.953125 74.703125 C 111.285156 79.960938 109.785156 83.753906 105.539062 88.402344 C 101.949219 92.328125 101.09375 93.761719 100.261719 97.21875 C 99.382812 100.871094 97.585938 104.535156 95.953125 105.992188 C 94.40625 107.367188 91.636719 108.882812 89.699219 109.40625 C 86.675781 110.222656 83.40625 109.792969 80.183594 108.15625 C 78.078125 107.085938 77.035156 106.738281 77.320312 107.203125 C 77.410156 107.355469 77.351562 107.480469 77.183594 107.480469 C 77.015625 107.480469 76.878906 107.339844 76.878906 107.167969 C 76.878906 106.996094 76.683594 107.054688 76.449219 107.292969 C 76.210938 107.535156 76.019531 107.902344 76.023438 108.117188 C 76.023438 108.398438 76.097656 108.386719 76.304688 108.0625 C 76.550781 107.675781 76.585938 107.675781 76.59375 108.0625 C 76.601562 108.453125 76.632812 108.453125 76.878906 108.0625 C 77.074219 107.757812 77.160156 107.738281 77.164062 108 C 77.164062 108.207031 76.875 108.492188 76.519531 108.636719 C 76.164062 108.78125 76.015625 108.910156 76.183594 108.917969 C 76.355469 108.929688 76.496094 109.140625 76.496094 109.386719 C 76.496094 109.640625 76.300781 109.792969 76.042969 109.738281 C 75.792969 109.6875 75.605469 109.417969 75.625 109.144531 C 75.648438 108.871094 75.550781 108.644531 75.410156 108.644531 C 74.742188 108.644531 75.332031 109.824219 76.433594 110.683594 C 76.925781 111.074219 76.964844 111.074219 76.769531 110.683594 C 76.601562 110.351562 76.640625 110.359375 76.929688 110.714844 C 77.441406 111.335938 78.757812 111.734375 82.195312 112.300781 C 83.773438 112.5625 85.261719 112.816406 85.496094 112.863281 C 85.734375 112.910156 86.015625 112.964844 86.121094 112.980469 C 86.230469 113 87.300781 112.878906 88.503906 112.707031 Z M 76.878906 109.21875 C 76.878906 109.0625 77.074219 108.9375 77.308594 108.9375 C 77.546875 108.9375 77.742188 108.988281 77.742188 109.050781 C 77.742188 109.113281 77.546875 109.242188 77.308594 109.332031 C 77.074219 109.425781 76.878906 109.375 76.878906 109.21875 Z M 78.027344 109.210938 C 78.027344 109.042969 78.15625 108.984375 78.316406 109.082031 C 78.472656 109.183594 78.601562 109.320312 78.601562 109.390625 C 78.601562 109.460938 78.472656 109.519531 78.316406 109.519531 C 78.15625 109.519531 78.027344 109.382812 78.027344 109.210938 Z M 75.640625 107.699219 C 75.65625 107.339844 75.613281 107.199219 75.539062 107.390625 C 75.464844 107.582031 75.21875 107.667969 74.992188 107.578125 C 74.765625 107.492188 74.582031 107.570312 74.582031 107.757812 C 74.582031 107.945312 74.710938 108.015625 74.867188 107.917969 C 75.027344 107.820312 75.15625 107.875 75.15625 108.046875 C 75.15625 108.660156 75.609375 108.335938 75.640625 107.699219 Z M 89.484375 107.082031 C 91.265625 106.542969 93.734375 105.019531 94.925781 103.71875 C 96.234375 102.289062 96.945312 100.613281 97.84375 96.847656 C 98.753906 93.035156 99.539062 91.675781 103.207031 87.574219 C 106.675781 83.691406 107.226562 82.890625 108.046875 80.535156 C 109.28125 76.976562 108.886719 71.855469 107.097656 68.265625 C 104.441406 62.933594 99.953125 59.21875 94.976562 58.226562 C 92.191406 57.671875 88.152344 58.003906 86.25 58.945312 C 84.15625 59.984375 81.066406 62.988281 81.273438 63.785156 C 81.367188 64.152344 81.308594 64.296875 81.117188 64.175781 C 80.921875 64.054688 80.867188 64.210938 80.972656 64.613281 C 81.0625 64.960938 81.019531 65.167969 80.875 65.078125 C 80.730469 64.988281 80.613281 64.976562 80.613281 65.054688 C 80.613281 65.132812 80.527344 65.421875 80.421875 65.703125 C 80.304688 66.011719 80.34375 66.140625 80.515625 66.03125 C 80.675781 65.929688 80.804688 66.03125 80.804688 66.257812 C 80.804688 66.480469 80.664062 66.640625 80.496094 66.609375 C 80.324219 66.578125 80.183594 66.8125 80.183594 67.132812 C 80.183594 67.457031 80.054688 67.8125 79.894531 67.929688 C 79.71875 68.0625 79.753906 68.148438 79.984375 68.148438 C 80.191406 68.152344 80.285156 68.277344 80.195312 68.425781 C 80.105469 68.574219 80.164062 68.78125 80.328125 68.882812 C 80.492188 68.988281 80.59375 68.914062 80.550781 68.722656 C 80.503906 68.53125 80.636719 68.332031 80.835938 68.285156 C 81.039062 68.238281 81.070312 68.265625 80.90625 68.347656 C 80.742188 68.429688 80.683594 68.617188 80.773438 68.765625 C 80.863281 68.910156 80.726562 69.113281 80.464844 69.214844 C 80.085938 69.363281 80.066406 69.449219 80.375 69.648438 C 80.625 69.808594 80.640625 69.894531 80.421875 69.898438 C 80.214844 69.898438 80.085938 70.417969 80.085938 71.238281 C 80.085938 72.742188 80.117188 72.753906 80.558594 71.421875 C 80.804688 70.683594 80.800781 70.503906 80.53125 70.640625 C 80.339844 70.738281 80.410156 70.632812 80.6875 70.402344 C 80.960938 70.171875 81.1875 69.84375 81.1875 69.671875 C 81.1875 69.5 81.351562 69.1875 81.546875 68.976562 C 81.746094 68.765625 82.261719 68.066406 82.691406 67.425781 C 84.3125 65.023438 85.847656 63.632812 88.421875 62.246094 C 90.136719 61.324219 91.152344 61.070312 91.414062 61.5 C 91.554688 61.726562 91.488281 61.757812 91.214844 61.589844 C 90.898438 61.394531 90.90625 61.460938 91.242188 61.886719 C 91.640625 62.386719 91.625 62.417969 91.027344 62.261719 C 90.671875 62.167969 90.445312 62.199219 90.523438 62.328125 C 90.605469 62.460938 89.992188 62.988281 89.160156 63.507812 C 88.332031 64.023438 87.199219 64.84375 86.644531 65.328125 C 85.484375 66.351562 83.71875 68.875 83.980469 69.140625 C 84.078125 69.238281 83.984375 69.320312 83.773438 69.320312 C 83.5625 69.320312 83.476562 69.40625 83.578125 69.507812 C 83.679688 69.613281 83.539062 69.886719 83.265625 70.113281 C 82.992188 70.339844 82.929688 70.445312 83.128906 70.34375 C 83.324219 70.242188 83.488281 70.296875 83.488281 70.46875 C 83.488281 70.636719 83.378906 70.777344 83.246094 70.777344 C 83.117188 70.777344 82.84375 71.085938 82.644531 71.46875 C 82.335938 72.054688 82.355469 72.246094 82.78125 72.75 C 83.277344 73.339844 83.285156 73.339844 84.101562 72.433594 C 84.554688 71.929688 84.914062 71.386719 84.898438 71.222656 C 84.886719 71.054688 84.816406 71.078125 84.738281 71.269531 C 84.515625 71.828125 83.773438 71.355469 83.796875 70.671875 C 83.808594 70.328125 83.882812 70.210938 83.964844 70.410156 C 84.183594 70.960938 85.347656 70.847656 86.113281 70.203125 C 86.484375 69.886719 86.660156 69.625 86.503906 69.617188 C 86.34375 69.609375 86.5 69.441406 86.847656 69.242188 C 87.195312 69.042969 88.421875 68.292969 89.570312 67.570312 C 92.5 65.730469 95.636719 64.324219 95.886719 64.738281 C 96.148438 65.164062 95.644531 66.101562 95.03125 66.328125 C 94.113281 66.664062 89.660156 69.296875 88.878906 69.960938 C 88.445312 70.328125 87.761719 70.871094 87.355469 71.164062 C 86.722656 71.621094 86.671875 71.769531 86.992188 72.183594 C 87.316406 72.609375 87.304688 72.625 86.910156 72.308594 C 86.53125 72.011719 86.355469 72.0625 85.886719 72.601562 C 85.039062 73.578125 83.734375 75.726562 83.984375 75.734375 C 84.105469 75.734375 84.035156 75.847656 83.828125 75.980469 C 83.617188 76.113281 83.417969 76.425781 83.382812 76.675781 C 83.347656 76.921875 83.15625 77.324219 82.957031 77.566406 C 82.492188 78.136719 82.8125 78.300781 84.070312 78.140625 C 84.835938 78.042969 85.210938 77.785156 85.605469 77.085938 C 85.894531 76.582031 86.113281 76.128906 86.089844 76.082031 C 86.042969 75.96875 87.703125 74.417969 89.230469 73.15625 C 89.941406 72.566406 90.589844 72.015625 90.667969 71.925781 C 90.953125 71.609375 92.679688 70.449219 92.679688 70.574219 C 92.679688 70.644531 93.941406 70.261719 95.480469 69.722656 C 97.019531 69.183594 98.832031 68.742188 99.503906 68.738281 C 100.660156 68.738281 100.707031 68.769531 100.367188 69.328125 C 100.160156 69.667969 99.265625 70.160156 98.28125 70.476562 C 92.617188 72.300781 91.351562 73.027344 88.179688 76.285156 C 86.554688 77.953125 86.28125 78.515625 87.222656 78.265625 C 87.539062 78.183594 87.722656 78.230469 87.636719 78.378906 C 87.546875 78.523438 87.160156 78.640625 86.773438 78.640625 C 86.261719 78.640625 86.070312 78.800781 86.070312 79.222656 C 86.070312 79.542969 85.910156 79.773438 85.710938 79.734375 C 85.515625 79.695312 85.378906 79.800781 85.40625 79.96875 C 85.4375 80.136719 85.101562 80.25 84.664062 80.21875 C 83.964844 80.167969 83.882812 80.25 83.996094 80.859375 C 84.109375 81.464844 84.53125 81.703125 85.273438 81.59375 C 85.382812 81.574219 85.398438 81.769531 85.300781 82.019531 C 85.191406 82.320312 84.890625 82.433594 84.453125 82.347656 C 83.542969 82.171875 83.597656 82.296875 84.664062 82.835938 C 85.429688 83.222656 85.53125 83.226562 85.390625 82.855469 C 85.28125 82.566406 85.417969 82.429688 85.824219 82.429688 C 86.417969 82.429688 87.722656 81.058594 87.574219 80.59375 C 87.53125 80.457031 87.628906 80.429688 87.796875 80.535156 C 88.164062 80.765625 90.132812 79.078125 89.855469 78.769531 C 89.75 78.648438 89.808594 78.632812 89.988281 78.738281 C 90.167969 78.839844 90.636719 78.667969 91.03125 78.351562 C 92.289062 77.347656 96.492188 75.4375 97.445312 75.4375 C 98.726562 75.4375 98.921875 76.164062 97.757812 76.605469 C 94.308594 77.914062 88.65625 82.160156 88.65625 83.445312 C 88.65625 83.652344 88.453125 83.902344 88.207031 83.996094 C 87.960938 84.09375 87.832031 84.289062 87.917969 84.433594 C 88.007812 84.578125 87.886719 84.773438 87.648438 84.863281 C 87.398438 84.960938 87.222656 85.398438 87.222656 85.914062 C 87.222656 86.402344 87.082031 86.796875 86.917969 86.796875 C 86.75 86.796875 86.691406 86.667969 86.789062 86.507812 C 86.886719 86.347656 86.832031 86.214844 86.664062 86.214844 C 86.496094 86.214844 86.359375 86.34375 86.359375 86.496094 C 86.359375 86.835938 87.359375 87.414062 87.613281 87.226562 C 87.714844 87.148438 87.726562 87.179688 87.644531 87.292969 C 87.378906 87.648438 86.523438 87.652344 86.308594 87.300781 C 86.195312 87.113281 86 87.074219 85.871094 87.210938 C 85.746094 87.347656 85.804688 87.519531 86 87.589844 C 86.199219 87.664062 86.296875 87.832031 86.210938 87.96875 C 86.128906 88.105469 86.214844 88.308594 86.398438 88.425781 C 86.625 88.566406 86.65625 88.507812 86.5 88.25 C 86.332031 87.976562 86.394531 87.914062 86.707031 88.035156 C 87.175781 88.21875 89.367188 86.199219 89.09375 85.832031 C 89.011719 85.722656 89.027344 85.695312 89.125 85.769531 C 89.226562 85.84375 90.03125 85.246094 90.921875 84.441406 C 92.917969 82.628906 95.304688 81.453125 98.195312 80.851562 C 100.738281 80.320312 101.765625 80.273438 102.007812 80.667969 C 102.101562 80.820312 102.398438 80.867188 102.671875 80.765625 C 102.941406 80.667969 103.078125 80.683594 102.976562 80.800781 C 102.871094 80.921875 102.613281 81.046875 102.398438 81.082031 C 102.1875 81.117188 101.757812 81.285156 101.441406 81.457031 C 101.125 81.628906 100.15625 81.933594 99.285156 82.136719 C 96.257812 82.835938 90.957031 86.058594 91.433594 86.902344 C 91.539062 87.085938 91.511719 87.136719 91.382812 87.015625 C 91.0625 86.722656 89.773438 87.964844 90.003906 88.34375 C 90.101562 88.503906 90.046875 88.550781 89.882812 88.449219 C 89.71875 88.347656 89.433594 88.445312 89.25 88.667969 C 89.023438 88.949219 89.011719 89.136719 89.21875 89.265625 C 89.382812 89.371094 89.519531 89.316406 89.519531 89.144531 C 89.519531 88.976562 89.625 88.835938 89.757812 88.835938 C 89.890625 88.835938 89.996094 89.023438 89.996094 89.25 C 89.996094 89.492188 89.78125 89.617188 89.457031 89.554688 C 88.746094 89.414062 88.164062 89.660156 87.96875 90.179688 C 87.835938 90.519531 87.925781 90.539062 88.449219 90.285156 C 89.023438 90.003906 89.039062 90.011719 88.589844 90.378906 C 88.316406 90.605469 88.1875 90.894531 88.300781 91.023438 C 88.417969 91.15625 88.351562 91.167969 88.15625 91.054688 C 87.960938 90.9375 87.574219 90.992188 87.292969 91.175781 C 86.816406 91.484375 86.816406 91.496094 87.292969 91.34375 C 87.644531 91.234375 87.796875 91.34375 87.796875 91.710938 C 87.796875 92 87.875 92.316406 87.972656 92.414062 C 88.28125 92.730469 90.671875 90.984375 90.664062 90.449219 C 90.660156 90.285156 90.523438 90.34375 90.355469 90.585938 C 90.082031 90.972656 90.0625 90.972656 90.179688 90.585938 C 90.25 90.34375 90.453125 90.179688 90.628906 90.21875 C 90.804688 90.261719 91.628906 89.851562 92.460938 89.3125 C 94.792969 87.804688 96.976562 86.757812 97.332031 86.980469 C 97.515625 87.09375 97.570312 87.050781 97.464844 86.875 C 97.234375 86.5 97.980469 86.175781 98.558594 86.398438 C 98.878906 86.523438 98.777344 86.734375 98.132812 87.285156 C 97.660156 87.6875 97.136719 87.914062 96.949219 87.792969 C 96.746094 87.667969 96.6875 87.707031 96.804688 87.898438 C 96.914062 88.078125 95.992188 88.925781 94.621094 89.898438 C 92.542969 91.378906 91.644531 92.132812 89.195312 94.445312 C 88.898438 94.726562 88.515625 94.957031 88.339844 94.957031 C 88.164062 94.957031 88.097656 95.160156 88.191406 95.40625 C 88.289062 95.664062 88.242188 95.785156 88.082031 95.683594 C 87.804688 95.507812 85.261719 97.101562 84.855469 97.703125 C 84.742188 97.875 84.71875 98.238281 84.800781 98.511719 C 85.007812 99.191406 84.410156 100.269531 83.976562 100.003906 C 83.785156 99.890625 83.824219 100.042969 84.0625 100.34375 C 84.453125 100.839844 84.445312 100.871094 83.988281 100.699219 C 83.648438 100.570312 83.488281 100.652344 83.488281 100.953125 C 83.488281 101.199219 83.621094 101.3125 83.785156 101.210938 C 83.949219 101.105469 84.300781 101.199219 84.558594 101.410156 C 84.921875 101.707031 84.980469 101.710938 84.8125 101.425781 C 84.648438 101.148438 84.78125 101.089844 85.332031 101.1875 C 85.738281 101.265625 86.070312 101.195312 86.070312 101.035156 C 86.070312 100.878906 86.199219 100.828125 86.359375 100.925781 C 86.515625 101.027344 86.644531 100.953125 86.644531 100.769531 C 86.644531 100.582031 86.460938 100.5 86.234375 100.589844 C 86.007812 100.675781 85.757812 100.59375 85.683594 100.402344 C 85.605469 100.210938 85.53125 100.277344 85.519531 100.554688 C 85.503906 100.875 85.34375 100.996094 85.066406 100.886719 C 84.832031 100.796875 84.730469 100.570312 84.84375 100.386719 C 84.957031 100.203125 85.054688 99.859375 85.058594 99.621094 C 85.0625 99.382812 85.304688 99.140625 85.59375 99.085938 C 85.980469 99.007812 86.09375 99.128906 86.019531 99.515625 C 85.957031 99.855469 86.171875 100.1875 86.601562 100.417969 C 87.429688 100.855469 87.597656 100.875 87.367188 100.492188 C 87.269531 100.335938 87.367188 100.273438 87.578125 100.355469 C 88.003906 100.523438 90.835938 99.097656 92.300781 97.980469 C 93.210938 97.289062 94.402344 97.046875 94.402344 97.554688 C 94.402344 98.117188 91.03125 100.835938 89.050781 101.871094 C 87.910156 102.464844 87.019531 103.019531 87.070312 103.105469 C 87.121094 103.1875 86.683594 103.285156 86.09375 103.320312 C 84.914062 103.390625 83.382812 104.074219 83.699219 104.394531 C 83.808594 104.507812 83.691406 104.519531 83.433594 104.417969 C 83.179688 104.320312 82.882812 104.378906 82.78125 104.546875 C 82.675781 104.71875 82.734375 104.859375 82.910156 104.859375 C 83.089844 104.859375 83.136719 105.015625 83.015625 105.214844 C 82.875 105.449219 82.675781 105.277344 82.429688 104.703125 C 82.058594 103.847656 82.054688 103.847656 82.132812 104.609375 C 82.179688 105.03125 82.378906 105.578125 82.578125 105.824219 C 82.890625 106.207031 82.855469 106.246094 82.34375 106.109375 C 82.011719 106.023438 81.804688 105.886719 81.886719 105.804688 C 81.964844 105.722656 81.898438 105.410156 81.738281 105.105469 C 81.472656 104.601562 81.410156 104.59375 80.992188 105.015625 C 80.621094 105.390625 80.605469 105.546875 80.902344 105.824219 C 81.195312 106.097656 81.222656 106.078125 81.042969 105.734375 C 80.917969 105.492188 81.097656 105.589844 81.441406 105.949219 C 81.785156 106.308594 82.417969 106.679688 82.847656 106.773438 C 83.277344 106.871094 83.929688 107.039062 84.292969 107.148438 C 85.542969 107.523438 88.128906 107.488281 89.484375 107.082031 Z M 85.730469 104.078125 C 85.9375 103.992188 86.1875 104.003906 86.28125 104.101562 C 86.375 104.195312 86.207031 104.265625 85.90625 104.253906 C 85.570312 104.238281 85.5 104.171875 85.730469 104.078125 Z M 86.933594 99.617188 C 86.933594 99.457031 87.070312 99.324219 87.238281 99.324219 C 87.40625 99.324219 87.460938 99.457031 87.363281 99.617188 C 87.265625 99.777344 87.128906 99.90625 87.058594 99.90625 C 86.992188 99.90625 86.933594 99.777344 86.933594 99.617188 Z M 85.066406 98.449219 C 84.96875 98.289062 85.046875 98.160156 85.242188 98.160156 C 85.433594 98.160156 85.507812 98.074219 85.402344 97.96875 C 85.171875 97.730469 85.742188 96.992188 86.160156 96.992188 C 86.332031 96.992188 86.21875 97.1875 85.910156 97.425781 C 85.363281 97.855469 85.363281 97.859375 85.929688 97.78125 C 86.855469 97.65625 87.289062 97.28125 86.964844 96.882812 C 86.757812 96.636719 86.832031 96.535156 87.214844 96.535156 C 87.511719 96.535156 87.6875 96.644531 87.605469 96.777344 C 87.523438 96.910156 87.632812 97.242188 87.84375 97.515625 C 88.179688 97.953125 88.171875 97.96875 87.769531 97.652344 C 87.390625 97.355469 87.199219 97.417969 86.644531 98.015625 C 85.9375 98.78125 85.363281 98.9375 85.066406 98.449219 Z M 88.082031 91.945312 C 88.082031 91.730469 88.273438 91.554688 88.507812 91.554688 C 88.832031 91.554688 88.859375 91.648438 88.617188 91.945312 C 88.441406 92.15625 88.25 92.332031 88.191406 92.332031 C 88.132812 92.332031 88.082031 92.15625 88.082031 91.945312 Z M 87.613281 85.785156 C 87.515625 85.527344 87.519531 85.234375 87.617188 85.132812 C 87.714844 85.035156 87.796875 85.203125 87.800781 85.511719 C 87.804688 85.976562 87.851562 86 88.082031 85.632812 C 88.25 85.371094 88.363281 85.335938 88.367188 85.542969 C 88.375 86.109375 87.804688 86.289062 87.613281 85.785156 Z M 89.464844 84.851562 C 89.671875 84.765625 89.921875 84.777344 90.015625 84.875 C 90.109375 84.972656 89.941406 85.039062 89.640625 85.027344 C 89.304688 85.011719 89.234375 84.945312 89.464844 84.851562 Z M 90.632812 83.738281 C 90.613281 83.660156 90.578125 83.429688 90.554688 83.230469 C 90.53125 83.027344 90.257812 82.902344 89.945312 82.949219 C 89.480469 83.019531 89.453125 82.980469 89.804688 82.742188 C 90.28125 82.421875 90.738281 82.730469 90.839844 83.445312 C 90.898438 83.839844 90.71875 84.09375 90.632812 83.738281 Z M 85.785156 81.734375 C 85.785156 81.675781 85.96875 81.472656 86.191406 81.285156 C 86.5 81.023438 86.644531 81.027344 86.808594 81.292969 C 86.945312 81.515625 86.902344 81.566406 86.691406 81.4375 C 86.507812 81.320312 86.359375 81.367188 86.359375 81.539062 C 86.359375 81.707031 86.230469 81.84375 86.070312 81.84375 C 85.914062 81.84375 85.785156 81.796875 85.785156 81.734375 Z M 84.347656 81.152344 C 84.347656 81.089844 84.605469 80.972656 84.921875 80.886719 C 85.238281 80.804688 85.496094 80.855469 85.496094 81 C 85.496094 81.144531 85.238281 81.261719 84.921875 81.261719 C 84.605469 81.261719 84.347656 81.210938 84.347656 81.152344 Z M 86.570312 79.480469 C 86.765625 79.28125 86.996094 79.191406 87.085938 79.28125 C 87.171875 79.371094 87.015625 79.53125 86.730469 79.640625 C 86.320312 79.800781 86.289062 79.765625 86.570312 79.480469 Z M 83.53125 77.183594 C 84.109375 76.394531 84.917969 75.902344 84.492188 76.601562 C 84.394531 76.761719 84.453125 76.894531 84.617188 76.894531 C 84.785156 76.894531 84.921875 76.785156 84.921875 76.652344 C 84.921875 76.515625 85.132812 76.40625 85.390625 76.40625 C 85.792969 76.40625 85.785156 76.464844 85.328125 76.800781 C 85.035156 77.019531 84.597656 77.128906 84.355469 77.042969 C 84.101562 76.957031 84.160156 77.082031 84.492188 77.347656 C 85.046875 77.785156 85.039062 77.796875 84.277344 77.65625 C 83.84375 77.578125 83.488281 77.636719 83.488281 77.785156 C 83.488281 77.9375 83.351562 78.058594 83.191406 78.058594 C 83.027344 78.058594 83.183594 77.664062 83.53125 77.183594 Z M 87.433594 77.441406 C 87.625 77.242188 87.859375 77.152344 87.945312 77.242188 C 88.035156 77.332031 87.875 77.492188 87.59375 77.601562 C 87.183594 77.761719 87.148438 77.726562 87.433594 77.441406 Z M 89.96875 77.269531 C 89.8125 76.855469 89.84375 76.820312 90.128906 77.105469 C 90.324219 77.304688 90.414062 77.539062 90.324219 77.628906 C 90.238281 77.71875 90.078125 77.558594 89.96875 77.269531 Z M 85.402344 75.824219 C 85.296875 75.71875 85.210938 75.496094 85.210938 75.328125 C 85.210938 75.148438 85.34375 75.164062 85.550781 75.375 C 85.738281 75.5625 85.824219 75.785156 85.742188 75.867188 C 85.660156 75.953125 85.507812 75.933594 85.402344 75.824219 Z M 84.347656 75.417969 C 84.347656 75.25 84.476562 75.191406 84.636719 75.292969 C 84.792969 75.390625 84.921875 75.527344 84.921875 75.601562 C 84.921875 75.671875 84.792969 75.726562 84.636719 75.726562 C 84.476562 75.726562 84.347656 75.589844 84.347656 75.417969 Z M 85.488281 74.84375 C 85.132812 74.617188 85.148438 74.570312 85.570312 74.566406 C 86.007812 74.5625 86.1875 74.269531 86.121094 73.664062 C 86.113281 73.570312 86.28125 73.496094 86.492188 73.496094 C 86.804688 73.496094 86.789062 73.648438 86.421875 74.246094 C 86.167969 74.660156 85.949219 75.027344 85.933594 75.058594 C 85.921875 75.089844 85.722656 74.992188 85.488281 74.84375 Z M 87.222656 73.347656 C 87.222656 73.164062 87.304688 73.09375 87.40625 73.199219 C 87.511719 73.304688 87.777344 73.160156 88 72.882812 C 88.359375 72.429688 88.371094 72.445312 88.089844 73.035156 C 87.757812 73.726562 87.222656 73.921875 87.222656 73.347656 Z M 83 72.378906 C 82.46875 71.792969 83.175781 70.964844 83.796875 71.445312 C 84.214844 71.765625 84.214844 71.835938 83.796875 72.273438 C 83.429688 72.664062 83.277344 72.683594 83 72.378906 Z M 83.628906 71.941406 C 83.726562 71.78125 83.671875 71.648438 83.503906 71.648438 C 83.335938 71.648438 83.199219 71.78125 83.199219 71.941406 C 83.199219 72.101562 83.257812 72.230469 83.324219 72.230469 C 83.394531 72.230469 83.53125 72.101562 83.628906 71.941406 Z M 84.921875 70.203125 C 84.921875 70.039062 85.125 69.902344 85.371094 69.902344 C 85.636719 69.902344 85.734375 69.765625 85.613281 69.566406 C 85.488281 69.355469 85.535156 69.308594 85.742188 69.4375 C 86.195312 69.722656 86.160156 69.832031 85.496094 70.191406 C 85.109375 70.40625 84.921875 70.40625 84.921875 70.203125 Z M 96.910156 64.039062 C 97.105469 63.839844 97.339844 63.75 97.425781 63.839844 C 97.515625 63.929688 97.355469 64.09375 97.074219 64.203125 C 96.664062 64.359375 96.628906 64.328125 96.910156 64.039062 Z M 76.742188 106.371094 C 76.65625 106.28125 76.421875 106.371094 76.226562 106.570312 C 75.945312 106.859375 75.980469 106.890625 76.390625 106.734375 C 76.671875 106.625 76.832031 106.460938 76.742188 106.371094 Z M 83.023438 101.492188 C 83.121094 101.234375 83.070312 101.117188 82.910156 101.21875 C 82.753906 101.316406 82.625 101.519531 82.625 101.671875 C 82.625 102.089844 82.832031 102 83.023438 101.492188 Z M 82.734375 100.328125 C 82.832031 100.070312 82.785156 99.953125 82.621094 100.054688 C 82.464844 100.152344 82.335938 100.355469 82.335938 100.507812 C 82.335938 100.925781 82.542969 100.832031 82.734375 100.328125 Z M 70.730469 99.570312 C 70.859375 99.363281 70.808594 99.3125 70.605469 99.441406 C 70.421875 99.554688 70.273438 99.488281 70.273438 99.292969 C 70.273438 99.097656 70.195312 99.015625 70.101562 99.109375 C 69.933594 99.277344 70.183594 99.90625 70.414062 99.90625 C 70.476562 99.90625 70.617188 99.753906 70.730469 99.570312 Z M 85.785156 99.617188 C 85.785156 99.457031 85.65625 99.324219 85.496094 99.324219 C 85.339844 99.324219 85.210938 99.457031 85.210938 99.617188 C 85.210938 99.777344 85.339844 99.90625 85.496094 99.90625 C 85.65625 99.90625 85.785156 99.777344 85.785156 99.617188 Z M 71.550781 98.644531 C 71.085938 98.488281 70.609375 98.21875 70.492188 98.042969 C 70.351562 97.828125 70.28125 97.851562 70.277344 98.113281 C 70.273438 98.328125 70.53125 98.574219 70.847656 98.65625 C 71.164062 98.742188 71.421875 98.921875 71.421875 99.058594 C 71.421875 99.195312 71.640625 99.21875 71.910156 99.117188 C 72.296875 98.964844 72.226562 98.867188 71.550781 98.644531 Z M 73.363281 98.058594 C 73.566406 97.929688 73.652344 97.703125 73.558594 97.550781 C 73.464844 97.394531 73.546875 97.304688 73.738281 97.351562 C 74.632812 97.554688 76.308594 92.703125 76.300781 89.933594 C 76.292969 87.988281 75.714844 85.207031 74.734375 82.421875 C 73.4375 78.730469 72.285156 74.511719 72.269531 73.417969 L 72.257812 72.378906 L 71.5625 73.6875 C 71.179688 74.410156 70.484375 75.984375 70.015625 77.183594 C 69.003906 79.777344 67.609375 82.96875 66.738281 84.683594 C 66.257812 85.632812 66.179688 86.039062 66.417969 86.433594 C 66.585938 86.714844 67.027344 88.015625 67.394531 89.324219 C 67.898438 91.097656 68.234375 91.792969 68.730469 92.0625 C 69.09375 92.257812 69.316406 92.539062 69.230469 92.683594 C 69.140625 92.832031 68.890625 92.714844 68.675781 92.421875 C 68.199219 91.785156 68.160156 92.019531 68.558594 93.089844 C 68.785156 93.691406 68.9375 93.804688 69.191406 93.546875 C 69.375 93.359375 69.660156 93.210938 69.828125 93.214844 C 69.992188 93.21875 69.898438 93.359375 69.621094 93.523438 C 69.339844 93.691406 69.183594 93.945312 69.277344 94.09375 C 69.367188 94.246094 69.222656 94.28125 68.949219 94.171875 C 68.625 94.046875 68.523438 94.09375 68.652344 94.304688 C 68.757812 94.480469 69.09375 94.605469 69.394531 94.585938 C 69.699219 94.5625 69.890625 94.453125 69.824219 94.34375 C 69.757812 94.230469 69.863281 94.078125 70.0625 94 C 70.261719 93.925781 70.710938 93.273438 71.066406 92.554688 C 71.863281 90.9375 72.164062 87.640625 71.75 85.109375 C 71.371094 82.804688 71.554688 82.152344 72.308594 83.125 C 73.121094 84.171875 73.523438 86.601562 73.351562 89.40625 C 73.222656 91.503906 73.035156 92.238281 72.140625 94.082031 C 71.554688 95.28125 70.957031 96.3125 70.808594 96.367188 C 70.652344 96.425781 70.683594 96.644531 70.875 96.882812 C 71.148438 97.214844 71.128906 97.265625 70.773438 97.125 C 70.53125 97.03125 70.246094 97.09375 70.144531 97.261719 C 70.027344 97.449219 70.128906 97.5 70.402344 97.394531 C 70.703125 97.277344 70.847656 97.390625 70.847656 97.746094 C 70.847656 98.238281 70.871094 98.234375 71.246094 97.71875 C 71.464844 97.414062 71.582031 96.992188 71.5 96.785156 C 71.402344 96.519531 71.515625 96.464844 71.867188 96.601562 C 72.21875 96.738281 72.3125 96.695312 72.167969 96.460938 C 72.054688 96.273438 72.097656 96.121094 72.265625 96.121094 C 72.6875 96.121094 72.648438 96.582031 72.1875 97.050781 C 71.597656 97.648438 71.71875 98.359375 72.402344 98.320312 C 72.730469 98.300781 73.164062 98.183594 73.367188 98.058594 Z M 68.285156 91.257812 C 68.246094 90.660156 68.753906 90.570312 69.164062 91.097656 C 69.511719 91.550781 69.503906 91.5625 69.078125 91.226562 C 68.691406 90.921875 68.578125 90.921875 68.457031 91.226562 C 68.351562 91.488281 68.300781 91.496094 68.285156 91.257812 Z M 69.125 90.476562 C 69.125 90.414062 69.347656 90.183594 69.625 89.964844 C 70.082031 89.601562 70.089844 89.613281 69.734375 90.074219 C 69.359375 90.558594 69.125 90.714844 69.125 90.476562 Z M 69.046875 89.09375 C 69.242188 88.894531 69.472656 88.804688 69.5625 88.894531 C 69.648438 88.984375 69.492188 89.144531 69.207031 89.253906 C 68.796875 89.414062 68.765625 89.378906 69.046875 89.09375 Z M 68.933594 87.617188 C 68.984375 87.085938 68.902344 86.457031 68.75 86.214844 C 68.597656 85.976562 68.886719 86.214844 69.390625 86.75 C 70.394531 87.8125 70.417969 88.351562 69.460938 88.492188 C 68.914062 88.574219 68.851562 88.46875 68.933594 87.617188 Z M 69.414062 83.230469 L 69.417969 82.28125 L 69.800781 83.011719 C 70.191406 83.761719 70.148438 84.175781 69.679688 84.175781 C 69.53125 84.175781 69.414062 83.75 69.414062 83.230469 Z M 48.050781 95.390625 C 47.8125 95.152344 47.53125 94.953125 47.417969 94.953125 C 47.308594 94.953125 47.382812 95.152344 47.578125 95.390625 C 47.773438 95.632812 48.058594 95.828125 48.207031 95.828125 C 48.359375 95.828125 48.285156 95.632812 48.050781 95.390625 Z M 51.886719 95.277344 C 51.886719 94.863281 51.0625 94.65625 50.847656 95.011719 C 50.730469 95.199219 50.78125 95.253906 50.960938 95.140625 C 51.132812 95.03125 51.355469 95.078125 51.453125 95.242188 C 51.675781 95.605469 51.886719 95.625 51.886719 95.277344 Z M 43.378906 93.753906 C 42.78125 93.132812 42.183594 92.625 42.050781 92.625 C 41.917969 92.625 41.464844 92.300781 41.046875 91.90625 C 40 90.925781 37.074219 89.503906 35.304688 89.117188 C 33.476562 88.722656 28.800781 88.617188 26.320312 88.917969 C 25.246094 89.050781 24.613281 89.039062 24.828125 88.890625 C 25.035156 88.753906 25.164062 88.464844 25.113281 88.253906 C 24.898438 87.292969 30.992188 86.574219 34.824219 87.109375 C 36.421875 87.332031 37.765625 87.761719 39.367188 88.554688 C 40.617188 89.175781 41.769531 89.605469 41.925781 89.507812 C 42.082031 89.410156 42.125 89.464844 42.023438 89.632812 C 41.925781 89.796875 42.28125 90.238281 42.820312 90.613281 C 43.359375 90.988281 43.726562 91.417969 43.632812 91.566406 C 43.542969 91.71875 43.617188 91.746094 43.800781 91.628906 C 43.988281 91.515625 44.210938 91.621094 44.308594 91.878906 C 44.402344 92.128906 44.601562 92.332031 44.753906 92.332031 C 44.902344 92.332031 44.957031 92.214844 44.867188 92.070312 C 44.78125 91.929688 44.910156 91.734375 45.15625 91.636719 C 45.5 91.503906 45.5625 91.597656 45.421875 92.042969 C 45.316406 92.386719 45.371094 92.625 45.566406 92.625 C 45.742188 92.625 45.808594 92.492188 45.710938 92.332031 C 45.613281 92.171875 45.734375 92.042969 45.980469 92.042969 C 46.226562 92.042969 46.429688 91.878906 46.433594 91.675781 C 46.4375 91.433594 46.53125 91.460938 46.710938 91.75 C 46.90625 92.066406 46.847656 92.242188 46.492188 92.386719 C 46.136719 92.527344 46.230469 92.589844 46.824219 92.601562 C 47.5625 92.621094 47.609375 92.570312 47.269531 92.113281 C 46.304688 90.820312 45.453125 90.039062 45.191406 90.203125 C 45.035156 90.300781 44.984375 90.253906 45.078125 90.09375 C 45.328125 89.6875 44.445312 88.496094 44.066406 88.730469 C 43.894531 88.839844 43.835938 88.792969 43.941406 88.625 C 44.28125 88.058594 43.375 87.597656 42.640625 87.957031 C 42.003906 88.273438 42 88.265625 42.539062 87.832031 C 43.082031 87.386719 43.074219 87.351562 42.105469 86.515625 C 41.5625 86.042969 41.003906 85.652344 40.871094 85.644531 C 40.738281 85.636719 40.285156 85.390625 39.867188 85.089844 C 37.664062 83.53125 33.191406 82.363281 29.335938 82.347656 C 28.074219 82.339844 27.257812 82.285156 27.523438 82.21875 C 27.792969 82.152344 27.945312 81.925781 27.863281 81.710938 C 27.636719 81.109375 30.238281 80.664062 32.84375 80.855469 C 34.925781 81.011719 37.550781 81.6875 39.246094 82.503906 C 40.40625 83.058594 43.554688 85.367188 43.554688 85.65625 C 43.554688 85.804688 43.757812 85.921875 44.003906 85.921875 C 44.269531 85.921875 44.367188 86.0625 44.246094 86.261719 C 44.105469 86.492188 44.234375 86.546875 44.660156 86.433594 C 45 86.34375 45.214844 86.375 45.136719 86.507812 C 45.054688 86.636719 45.390625 87.085938 45.875 87.5 C 46.363281 87.914062 46.652344 88.257812 46.523438 88.257812 C 46.253906 88.261719 47.046875 88.824219 47.335938 88.832031 C 47.4375 88.835938 47.804688 88.410156 48.152344 87.890625 C 48.496094 87.371094 48.703125 87.183594 48.609375 87.476562 C 48.5 87.820312 48.5625 87.96875 48.789062 87.894531 C 48.980469 87.828125 49.140625 87.328125 49.148438 86.777344 C 49.15625 86.015625 49.003906 85.710938 48.511719 85.492188 C 48.15625 85.332031 47.867188 85.09375 47.867188 84.964844 C 47.867188 84.832031 48.015625 84.816406 48.195312 84.933594 C 48.398438 85.058594 48.449219 85.011719 48.332031 84.816406 C 48.011719 84.292969 47.320312 84.75 47.445312 85.402344 C 47.582031 86.113281 47.867188 86.472656 47.867188 85.9375 C 47.867188 85.636719 47.949219 85.632812 48.296875 85.925781 C 48.535156 86.125 48.726562 86.417969 48.726562 86.578125 C 48.726562 86.753906 48.578125 86.742188 48.339844 86.542969 C 48.128906 86.367188 47.875 86.304688 47.773438 86.40625 C 47.671875 86.507812 47.511719 86.375 47.410156 86.113281 C 47.3125 85.851562 47.113281 85.707031 46.972656 85.796875 C 46.832031 85.886719 46.714844 85.820312 46.714844 85.648438 C 46.714844 85.480469 46.824219 85.339844 46.957031 85.339844 C 47.085938 85.339844 47.195312 85.140625 47.195312 84.890625 C 47.195312 84.628906 47.03125 84.507812 46.796875 84.597656 C 46.566406 84.6875 46.476562 84.625 46.585938 84.445312 C 46.691406 84.273438 46.949219 84.207031 47.167969 84.289062 C 47.382812 84.375 47.648438 84.296875 47.757812 84.117188 C 47.867188 83.941406 47.832031 83.871094 47.683594 83.964844 C 47.535156 84.054688 47.113281 83.683594 46.746094 83.140625 C 46.375 82.59375 45.941406 82.230469 45.777344 82.332031 C 45.613281 82.433594 45.5625 82.378906 45.667969 82.207031 C 46.132812 81.441406 41.144531 78.871094 38.5 78.511719 C 37.222656 78.335938 35.933594 77.671875 35.941406 77.183594 C 35.949219 76.179688 41.917969 77.234375 44.207031 78.644531 C 44.695312 78.949219 45.222656 79.113281 45.375 79.019531 C 45.53125 78.921875 45.566406 78.992188 45.449219 79.179688 C 45.265625 79.484375 45.621094 79.648438 46.234375 79.542969 C 46.363281 79.519531 46.390625 79.636719 46.289062 79.800781 C 45.996094 80.28125 46.960938 80.492188 47.511719 80.070312 C 47.933594 79.746094 47.957031 79.75 47.648438 80.097656 C 47.222656 80.585938 47.171875 81.082031 47.578125 80.824219 C 47.734375 80.726562 47.867188 80.828125 47.867188 81.054688 C 47.867188 81.277344 48.1875 81.609375 48.582031 81.792969 C 48.980469 81.976562 49.300781 82.304688 49.300781 82.523438 C 49.300781 82.742188 49.527344 83.117188 49.804688 83.355469 C 50.242188 83.734375 50.402344 83.738281 51.023438 83.378906 L 51.742188 82.96875 L 50.953125 83.09375 C 50.519531 83.164062 50.164062 83.101562 50.164062 82.953125 C 50.164062 82.804688 50 82.785156 49.804688 82.902344 C 49.558594 83.050781 49.570312 82.964844 49.839844 82.628906 C 50.097656 82.308594 50.121094 82.136719 49.910156 82.136719 C 49.734375 82.136719 49.597656 81.90625 49.613281 81.625 C 49.625 81.320312 49.691406 81.261719 49.78125 81.484375 C 49.859375 81.683594 50.035156 81.777344 50.171875 81.695312 C 50.308594 81.609375 50.371094 81.804688 50.308594 82.128906 C 50.21875 82.589844 50.347656 82.71875 50.898438 82.71875 C 51.769531 82.71875 51.816406 82.0625 50.988281 81.503906 C 50.519531 81.1875 50.425781 80.929688 50.585938 80.410156 C 50.753906 79.882812 50.859375 79.820312 51.050781 80.132812 C 51.191406 80.351562 51.304688 80.664062 51.304688 80.824219 C 51.304688 80.984375 51.179688 80.921875 51.023438 80.679688 C 50.789062 80.3125 50.746094 80.328125 50.742188 80.785156 C 50.738281 81.214844 50.882812 81.289062 51.4375 81.148438 C 51.824219 81.050781 52.21875 81.097656 52.316406 81.257812 C 52.421875 81.429688 52.292969 81.46875 51.996094 81.355469 C 51.59375 81.199219 51.542969 81.265625 51.730469 81.722656 C 51.859375 82.03125 51.953125 82.511719 51.941406 82.792969 C 51.929688 83.085938 52.128906 83.300781 52.40625 83.296875 C 52.824219 83.292969 52.832031 83.253906 52.460938 83.011719 C 52.089844 82.765625 52.09375 82.726562 52.507812 82.722656 C 52.773438 82.722656 53.054688 82.882812 53.132812 83.082031 C 53.21875 83.300781 53.289062 83.242188 53.300781 82.9375 C 53.3125 82.65625 53.136719 82.429688 52.910156 82.429688 C 52.683594 82.429688 52.402344 82.277344 52.289062 82.089844 C 52.152344 81.863281 52.273438 81.804688 52.667969 81.90625 C 53.136719 82.03125 53.222656 81.949219 53.105469 81.492188 C 53.023438 81.179688 52.78125 80.855469 52.566406 80.769531 C 52.351562 80.6875 52.175781 80.371094 52.175781 80.066406 C 52.175781 79.761719 52.046875 79.515625 51.886719 79.515625 C 51.730469 79.515625 51.601562 79.324219 51.601562 79.09375 C 51.601562 78.863281 51.484375 78.601562 51.339844 78.511719 C 51.195312 78.421875 51.148438 78.613281 51.230469 78.9375 C 51.347656 79.398438 51.277344 79.484375 50.890625 79.332031 C 50.621094 79.226562 50.511719 79.0625 50.640625 78.964844 C 51.183594 78.5625 50.984375 77.785156 50.167969 77.089844 C 49.691406 76.679688 49.300781 76.214844 49.300781 76.046875 C 49.300781 75.648438 48.28125 75.109375 48.023438 75.375 C 47.910156 75.488281 47.859375 75.394531 47.914062 75.164062 C 48.050781 74.554688 43.949219 72.554688 41.867188 72.214844 C 39.351562 71.804688 34.824219 72.085938 32.785156 72.777344 C 28.582031 74.207031 26.746094 75.300781 24.074219 77.96875 C 20.882812 81.15625 19.632812 83.417969 19.59375 86.070312 C 19.550781 89.128906 21.320312 91.835938 24.035156 92.871094 C 25.46875 93.414062 28.449219 93.515625 30.855469 93.105469 C 34.023438 92.566406 39.046875 92.660156 40.46875 93.285156 C 41.0625 93.546875 41.546875 93.691406 41.546875 93.613281 C 41.546875 93.53125 42.09375 93.851562 42.765625 94.324219 C 44.398438 95.472656 44.734375 95.160156 43.378906 93.753906 Z M 44.269531 91.453125 C 44.175781 91.296875 44.203125 91.164062 44.328125 91.164062 C 44.457031 91.160156 44.386719 91.046875 44.171875 90.90625 C 43.902344 90.734375 43.878906 90.597656 44.101562 90.457031 C 44.273438 90.347656 44.417969 90.390625 44.417969 90.550781 C 44.417969 90.710938 44.675781 90.792969 44.992188 90.730469 C 45.726562 90.585938 45.730469 90.921875 45.007812 91.382812 C 44.652344 91.605469 44.378906 91.632812 44.269531 91.453125 Z M 42.695312 88.722656 C 42.695312 88.660156 42.894531 88.53125 43.140625 88.433594 C 43.394531 88.335938 43.511719 88.382812 43.410156 88.550781 C 43.242188 88.824219 42.695312 88.957031 42.695312 88.722656 Z M 47.003906 87.996094 C 47.003906 87.851562 47.191406 87.660156 47.417969 87.570312 C 47.699219 87.464844 47.78125 87.550781 47.675781 87.832031 C 47.503906 88.292969 47.003906 88.414062 47.003906 87.996094 Z M 44.707031 85.617188 C 44.707031 85.445312 44.835938 85.386719 44.992188 85.488281 C 45.152344 85.585938 45.28125 85.726562 45.28125 85.796875 C 45.28125 85.867188 45.152344 85.925781 44.992188 85.925781 C 44.835938 85.925781 44.707031 85.785156 44.707031 85.617188 Z M 45.28125 84.601562 C 45.28125 84.566406 45.453125 84.394531 45.664062 84.214844 C 45.949219 83.976562 46.046875 83.992188 46.046875 84.277344 C 46.046875 84.488281 45.875 84.660156 45.664062 84.660156 C 45.453125 84.660156 45.28125 84.632812 45.28125 84.601562 Z M 50.882812 82.136719 C 50.785156 81.976562 50.839844 81.84375 51.007812 81.84375 C 51.175781 81.84375 51.3125 81.976562 51.3125 82.136719 C 51.3125 82.296875 51.253906 82.429688 51.1875 82.429688 C 51.117188 82.429688 50.980469 82.296875 50.882812 82.136719 Z M 48.871094 81.261719 C 48.96875 81.101562 49.105469 80.972656 49.175781 80.972656 C 49.246094 80.972656 49.300781 81.101562 49.300781 81.261719 C 49.300781 81.421875 49.164062 81.554688 48.996094 81.554688 C 48.832031 81.554688 48.773438 81.421875 48.871094 81.261719 Z M 49.078125 79.753906 C 49.121094 79.542969 48.941406 79.367188 48.675781 79.367188 C 48.410156 79.363281 48.085938 79.246094 47.957031 79.101562 C 47.824219 78.953125 47.867188 78.921875 48.054688 79.035156 C 48.242188 79.140625 48.4375 79.085938 48.496094 78.910156 C 48.554688 78.734375 48.820312 78.84375 49.113281 79.171875 C 49.457031 79.558594 49.523438 79.8125 49.3125 79.945312 C 49.140625 80.054688 49.035156 79.96875 49.078125 79.753906 Z M 47.027344 79.054688 C 47.039062 78.714844 47.109375 78.644531 47.199219 78.878906 C 47.28125 79.089844 47.273438 79.339844 47.175781 79.4375 C 47.082031 79.53125 47.015625 79.359375 47.027344 79.054688 Z M 49.300781 78.640625 C 48.917969 78.390625 48.917969 78.359375 49.300781 78.351562 C 49.648438 78.34375 49.65625 78.292969 49.347656 78.09375 C 49.03125 77.890625 49.035156 77.820312 49.363281 77.695312 C 49.632812 77.589844 49.761719 77.761719 49.761719 78.234375 C 49.761719 78.617188 49.753906 78.929688 49.746094 78.929688 C 49.738281 78.925781 49.539062 78.796875 49.300781 78.640625 Z M 47.289062 77.652344 C 47.289062 77.589844 47.492188 77.460938 47.738281 77.363281 C 47.992188 77.265625 48.109375 77.3125 48.007812 77.480469 C 47.839844 77.757812 47.289062 77.890625 47.289062 77.652344 Z M 44.417969 77.203125 C 44.417969 77.050781 44.546875 76.847656 44.703125 76.75 C 44.863281 76.648438 44.914062 76.765625 44.816406 77.023438 C 44.625 77.527344 44.417969 77.621094 44.417969 77.203125 Z M 48.535156 76.179688 C 48.535156 75.945312 48.644531 75.824219 48.78125 75.90625 C 48.914062 75.992188 48.949219 76.183594 48.859375 76.332031 C 48.625 76.710938 48.535156 76.667969 48.535156 76.179688 Z M 85.980469 94.289062 C 86.265625 93.921875 86.824219 93.398438 87.214844 93.125 C 87.605469 92.847656 87.757812 92.625 87.554688 92.625 C 87.351562 92.625 87.265625 92.492188 87.363281 92.332031 C 87.460938 92.171875 87.328125 92.042969 87.0625 92.042969 C 86.761719 92.042969 86.644531 92.199219 86.746094 92.46875 C 86.835938 92.703125 86.765625 92.988281 86.589844 93.097656 C 86.382812 93.226562 86.351562 93.164062 86.503906 92.914062 C 86.65625 92.664062 86.621094 92.605469 86.402344 92.742188 C 86.222656 92.855469 86.070312 92.824219 86.070312 92.675781 C 86.070312 92.523438 85.753906 92.339844 85.363281 92.261719 C 84.972656 92.1875 84.722656 92.238281 84.804688 92.375 C 84.886719 92.511719 85.128906 92.625 85.335938 92.625 C 85.9375 92.625 86.363281 93.3125 86.058594 93.800781 C 85.878906 94.089844 85.792969 94.109375 85.789062 93.863281 C 85.785156 93.621094 85.605469 93.671875 85.253906 94.007812 C 84.738281 94.507812 84.714844 94.953125 85.207031 94.953125 C 85.34375 94.953125 85.691406 94.65625 85.980469 94.289062 Z M 47.925781 94.101562 C 48.363281 93.582031 48.363281 93.507812 47.933594 93.152344 C 47.660156 92.929688 47.550781 92.910156 47.667969 93.109375 C 47.988281 93.648438 47.582031 94.351562 47.050781 94.179688 C 46.640625 94.046875 46.632812 94.070312 47.003906 94.339844 C 47.242188 94.511719 47.4375 94.65625 47.441406 94.660156 C 47.445312 94.660156 47.664062 94.410156 47.925781 94.101562 Z M 50.738281 93.660156 C 50.738281 93.589844 50.609375 93.453125 50.449219 93.351562 C 50.292969 93.253906 50.164062 93.3125 50.164062 93.480469 C 50.164062 93.652344 50.292969 93.789062 50.449219 93.789062 C 50.609375 93.789062 50.738281 93.730469 50.738281 93.660156 Z M 51.636719 93.148438 C 51.507812 92.796875 51.21875 92.457031 50.996094 92.398438 C 50.738281 92.328125 50.703125 92.375 50.902344 92.527344 C 51.070312 92.660156 51.292969 93 51.394531 93.28125 C 51.5 93.558594 51.644531 93.789062 51.726562 93.789062 C 51.804688 93.789062 51.761719 93.5 51.636719 93.148438 Z M 46.859375 93.207031 C 46.957031 93.046875 46.828125 92.914062 46.574219 92.914062 C 46.316406 92.914062 46.1875 93.046875 46.285156 93.207031 C 46.382812 93.367188 46.511719 93.496094 46.574219 93.496094 C 46.632812 93.496094 46.761719 93.367188 46.859375 93.207031 Z M 49.78125 92.207031 C 49.691406 91.976562 49.773438 91.722656 49.964844 91.644531 C 50.152344 91.570312 50.082031 91.496094 49.804688 91.480469 C 49.527344 91.46875 49.300781 91.511719 49.300781 91.582031 C 49.300781 91.859375 49.660156 92.625 49.792969 92.625 C 49.875 92.625 49.867188 92.4375 49.78125 92.207031 Z M 48.933594 91.179688 C 48.714844 90.324219 49.347656 90.277344 50.203125 91.082031 C 50.703125 91.550781 51.03125 91.6875 51.160156 91.476562 C 51.265625 91.296875 51.25 91.171875 51.117188 91.195312 C 50.527344 91.300781 50.34375 91.132812 50.738281 90.84375 C 51.105469 90.574219 51.101562 90.550781 50.6875 90.6875 C 50.421875 90.769531 50.050781 90.65625 49.863281 90.425781 C 49.675781 90.195312 49.421875 90.074219 49.296875 90.152344 C 49.167969 90.230469 48.867188 90.21875 48.621094 90.121094 C 48.289062 89.992188 48.257812 89.863281 48.503906 89.597656 C 48.875 89.191406 49.96875 89.035156 49.734375 89.417969 C 49.648438 89.554688 49.703125 89.75 49.855469 89.84375 C 50.011719 89.941406 50.082031 89.75 50.015625 89.402344 C 49.929688 88.945312 50.011719 88.828125 50.332031 88.953125 C 50.628906 89.066406 50.695312 89.007812 50.542969 88.761719 C 50.417969 88.5625 50.3125 88.269531 50.3125 88.113281 C 50.308594 87.953125 50.082031 87.78125 49.804688 87.726562 C 49.527344 87.671875 49.300781 87.785156 49.300781 87.976562 C 49.300781 88.179688 49.0625 88.257812 48.714844 88.167969 C 48.230469 88.039062 48.160156 88.113281 48.316406 88.605469 C 48.429688 88.96875 48.347656 89.304688 48.113281 89.460938 C 47.789062 89.675781 47.800781 89.785156 48.179688 90.082031 C 48.664062 90.457031 48.726562 90.601562 48.726562 91.3125 C 48.726562 91.554688 48.808594 91.75 48.90625 91.75 C 49 91.75 49.015625 91.492188 48.933594 91.179688 Z M 48.726562 88.703125 C 48.726562 88.480469 49.582031 88.296875 49.703125 88.496094 C 49.777344 88.617188 49.585938 88.734375 49.28125 88.757812 C 48.976562 88.78125 48.726562 88.757812 48.726562 88.703125 Z M 52.460938 87.0625 C 52.136719 86.828125 52.117188 86.71875 52.390625 86.605469 C 52.589844 86.523438 52.675781 86.328125 52.578125 86.171875 C 52.480469 86.011719 52.675781 85.8125 53.007812 85.726562 C 53.339844 85.636719 53.609375 85.351562 53.605469 85.089844 C 53.601562 84.761719 53.535156 84.722656 53.382812 84.960938 C 53.148438 85.335938 52.550781 85.324219 51.929688 84.933594 C 51.601562 84.726562 51.601562 84.644531 51.929688 84.410156 C 52.191406 84.226562 52.085938 84.203125 51.601562 84.339844 C 51.203125 84.449219 50.847656 84.570312 50.804688 84.609375 C 50.621094 84.761719 51.109375 85.632812 51.378906 85.632812 C 51.546875 85.632812 51.519531 85.449219 51.3125 85.195312 C 51.113281 84.953125 51.082031 84.757812 51.242188 84.757812 C 51.816406 84.757812 52.183594 85.507812 51.808594 85.914062 C 51.527344 86.222656 51.539062 86.253906 51.863281 86.066406 C 52.171875 85.886719 52.222656 85.953125 52.078125 86.339844 C 51.855469 86.933594 52.058594 87.382812 52.550781 87.375 C 52.761719 87.375 52.726562 87.253906 52.460938 87.0625 Z M 53.535156 86.4375 C 53.574219 85.925781 53.527344 85.878906 53.316406 86.21875 C 52.984375 86.75 52.960938 87.089844 53.261719 87.089844 C 53.386719 87.089844 53.511719 86.796875 53.535156 86.4375 Z M 84.441406 84.921875 C 84.625 85.015625 84.550781 84.902344 84.273438 84.671875 C 83.976562 84.425781 83.835938 84.054688 83.941406 83.785156 C 84.039062 83.527344 83.910156 83.109375 83.65625 82.851562 C 83.242188 82.433594 83.199219 82.429688 83.199219 82.84375 C 83.199219 83.097656 83.304688 83.300781 83.4375 83.300781 C 83.570312 83.300781 83.675781 83.53125 83.671875 83.8125 C 83.671875 84.09375 83.710938 84.714844 83.761719 85.195312 C 83.835938 85.933594 83.871094 85.964844 83.976562 85.410156 C 84.050781 85.023438 84.242188 84.820312 84.441406 84.921875 Z M 53.421875 84.371094 C 53.527344 84.476562 53.609375 84.324219 53.609375 84.03125 C 53.609375 83.738281 53.535156 83.570312 53.445312 83.664062 C 53.355469 83.757812 52.902344 83.722656 52.441406 83.585938 C 51.957031 83.445312 51.601562 83.453125 51.601562 83.605469 C 51.601562 83.75 51.386719 83.78125 51.121094 83.679688 C 50.808594 83.558594 50.714844 83.609375 50.84375 83.820312 C 50.953125 84 51.417969 84.097656 51.878906 84.039062 C 52.558594 83.953125 52.679688 84.019531 52.535156 84.417969 C 52.382812 84.824219 52.425781 84.84375 52.792969 84.542969 C 53.035156 84.34375 53.316406 84.265625 53.421875 84.371094 Z M 64.929688 82.257812 C 65.023438 82 65.019531 81.652344 64.914062 81.484375 C 64.808594 81.308594 64.859375 81.257812 65.035156 81.367188 C 65.6875 81.777344 66.054688 79.359375 66.089844 74.417969 C 66.125 69.582031 66.144531 69.414062 67.023438 67.207031 C 67.976562 64.8125 68.859375 63.460938 73.734375 56.925781 C 77.46875 51.914062 78.792969 49.667969 80.324219 45.746094 C 82.1875 40.976562 82.71875 38.34375 82.714844 33.925781 C 82.710938 29.492188 82.144531 26.910156 80.335938 23.070312 C 78.976562 20.183594 77.609375 18.449219 75.304688 16.683594 C 71.613281 13.855469 68.136719 12.792969 62.429688 12.75 C 53.753906 12.679688 44.703125 16.386719 38.097656 22.707031 C 37.070312 23.691406 35.261719 25.230469 34.078125 26.125 C 31.285156 28.238281 28.097656 31.480469 26.808594 33.527344 C 25.703125 35.277344 24.003906 39.449219 23.222656 42.328125 C 22.632812 44.5 22.582031 49.246094 23.125 51.550781 C 23.6875 53.957031 26.105469 58.777344 27.613281 60.503906 C 28.351562 61.351562 29.734375 62.46875 30.722656 63.019531 C 32.351562 63.925781 32.648438 63.996094 34.363281 63.863281 C 35.390625 63.785156 36.335938 63.625 36.460938 63.507812 C 36.585938 63.386719 35.703125 62.855469 34.496094 62.324219 C 28.941406 59.867188 26.035156 54.589844 26.035156 46.960938 C 26.035156 43.242188 26.695312 40.179688 28.054688 37.589844 C 29.492188 34.859375 32.480469 31.257812 34.5625 29.757812 C 35.601562 29.003906 37.953125 27.023438 39.789062 25.355469 C 43.378906 22.089844 45.277344 20.726562 47.476562 19.832031 C 48.242188 19.519531 49.660156 18.929688 50.625 18.519531 C 54.097656 17.035156 57.535156 16.273438 61.511719 16.101562 C 65.996094 15.910156 67.976562 16.230469 70.703125 17.59375 C 75.015625 19.746094 78.433594 24.261719 79.207031 28.828125 C 79.519531 30.667969 79.59375 36.933594 79.324219 38.613281 C 78.453125 44.070312 75.5 50.382812 71.574219 55.191406 C 67.925781 59.65625 64.796875 64.578125 63.765625 67.464844 C 63.164062 69.144531 63.089844 69.847656 63.089844 74.011719 C 63.089844 78.6875 63.398438 80.96875 64.109375 81.566406 C 64.320312 81.742188 64.421875 82.074219 64.335938 82.304688 C 64.25 82.53125 64.308594 82.71875 64.464844 82.71875 C 64.625 82.71875 64.832031 82.511719 64.929688 82.257812 Z M 28.90625 81.699219 C 28.90625 81.460938 28.855469 81.261719 28.792969 81.261719 C 28.730469 81.261719 28.605469 81.460938 28.515625 81.699219 C 28.421875 81.941406 28.472656 82.136719 28.628906 82.136719 C 28.78125 82.136719 28.90625 81.941406 28.90625 81.699219 Z M 83.539062 80.617188 C 83.332031 80.410156 83.199219 80.390625 83.199219 80.574219 C 83.199219 80.738281 83.285156 80.960938 83.390625 81.070312 C 83.496094 81.175781 83.648438 81.195312 83.730469 81.113281 C 83.8125 81.03125 83.726562 80.808594 83.539062 80.617188 Z M 83.488281 79.660156 C 83.488281 79.421875 83.378906 79.222656 83.246094 79.222656 C 83.117188 79.222656 83.007812 79.421875 83.007812 79.660156 C 83.007812 79.902344 83.117188 80.097656 83.246094 80.097656 C 83.378906 80.097656 83.488281 79.902344 83.488281 79.660156 Z M 84.636719 79.523438 C 84.636719 79.367188 84.441406 79.316406 84.203125 79.410156 C 83.96875 79.5 83.773438 79.628906 83.773438 79.691406 C 83.773438 79.753906 83.96875 79.804688 84.203125 79.804688 C 84.441406 79.804688 84.636719 79.679688 84.636719 79.523438 Z M 84.453125 78.792969 C 84.96875 78.398438 84.96875 78.382812 84.382812 78.425781 C 84.046875 78.453125 83.773438 78.574219 83.773438 78.695312 C 83.773438 78.816406 83.546875 78.839844 83.269531 78.75 C 82.847656 78.613281 82.835938 78.636719 83.199219 78.902344 C 83.742188 79.296875 83.804688 79.292969 84.453125 78.792969 Z M 82.910156 73.851562 C 82.910156 73.792969 82.652344 73.8125 82.335938 73.894531 C 82.023438 73.980469 81.761719 74.167969 81.761719 74.316406 C 81.761719 74.464844 82.019531 74.445312 82.335938 74.273438 C 82.652344 74.101562 82.910156 73.910156 82.910156 73.851562 Z M 82.625 73.070312 C 82.625 72.910156 82.496094 72.863281 82.335938 72.960938 C 82.179688 73.058594 82.050781 73.273438 82.050781 73.433594 C 82.050781 73.59375 82.179688 73.640625 82.335938 73.542969 C 82.496094 73.445312 82.625 73.230469 82.625 73.070312 Z M 69.597656 71.46875 C 69.882812 70.996094 69.835938 70.914062 69.238281 70.878906 C 68.859375 70.855469 68.546875 70.960938 68.546875 71.113281 C 68.546875 71.269531 68.667969 71.316406 68.816406 71.226562 C 68.964844 71.132812 69.164062 71.191406 69.265625 71.355469 C 69.363281 71.515625 69.242188 71.648438 68.996094 71.648438 C 68.699219 71.648438 68.550781 71.917969 68.554688 72.449219 C 68.558594 73.226562 68.566406 73.234375 68.910156 72.632812 C 69.105469 72.292969 69.414062 71.765625 69.597656 71.46875 Z M 70.046875 70.355469 C 70.410156 70.71875 71.726562 67.753906 72.390625 65.074219 L 73.113281 62.183594 L 72.003906 63.492188 C 70.429688 65.351562 69.261719 67.765625 69.683594 68.285156 C 69.914062 68.5625 69.921875 68.742188 69.707031 68.875 C 69.539062 68.980469 69.46875 69.179688 69.550781 69.3125 C 69.769531 69.675781 69.390625 70.507812 69.09375 70.320312 C 68.953125 70.230469 68.835938 70.027344 68.835938 69.867188 C 68.835938 69.707031 68.988281 69.671875 69.171875 69.785156 C 69.398438 69.925781 69.449219 69.839844 69.328125 69.523438 C 69.230469 69.261719 69.273438 68.96875 69.429688 68.871094 C 69.582031 68.773438 69.632812 68.574219 69.539062 68.421875 C 69.265625 67.972656 68.921875 68.367188 68.726562 69.367188 C 68.53125 70.363281 68.988281 70.960938 69.570312 70.46875 C 69.75 70.320312 69.964844 70.269531 70.046875 70.355469 Z M 70.03125 69.609375 C 70.03125 69.210938 70.097656 69.046875 70.175781 69.246094 C 70.253906 69.445312 70.253906 69.773438 70.175781 69.976562 C 70.097656 70.175781 70.03125 70.011719 70.03125 69.609375 Z M 55.582031 69.511719 C 55.820312 69.222656 55.804688 69.125 55.519531 69.125 C 55.3125 69.125 55.144531 69.300781 55.144531 69.511719 C 55.144531 69.726562 55.171875 69.902344 55.203125 69.902344 C 55.238281 69.902344 55.40625 69.726562 55.582031 69.511719 Z M 55.3125 67.640625 C 55.699219 67.328125 55.699219 67.285156 55.335938 67.347656 C 55.097656 67.390625 54.941406 67.25 54.984375 67.03125 C 55.136719 66.292969 54.722656 65.53125 54.164062 65.53125 C 53.859375 65.53125 53.609375 65.394531 53.609375 65.222656 C 53.609375 65.054688 53.730469 64.992188 53.878906 65.082031 C 54.402344 65.414062 54.484375 64.667969 53.980469 64.136719 C 53.699219 63.835938 53.425781 63.40625 53.371094 63.175781 C 53.320312 62.949219 53.09375 62.558594 52.871094 62.304688 C 52.644531 62.050781 52.457031 61.722656 52.457031 61.578125 C 52.453125 61.429688 51.535156 60.257812 50.414062 58.976562 C 47.378906 55.496094 43.671875 53.085938 39.386719 51.804688 C 37.574219 51.265625 36.089844 50.714844 36.089844 50.585938 C 36.089844 50.457031 36.214844 50.429688 36.371094 50.527344 C 36.535156 50.628906 36.582031 50.511719 36.484375 50.253906 C 36.269531 49.6875 36.582031 49.683594 39.390625 50.230469 C 41.824219 50.703125 45.753906 52.554688 47.988281 54.285156 C 48.738281 54.867188 49.46875 55.265625 49.609375 55.179688 C 49.753906 55.089844 49.785156 55.25 49.683594 55.539062 C 49.582031 55.828125 49.59375 55.976562 49.714844 55.867188 C 49.832031 55.757812 50.320312 56.121094 50.792969 56.667969 C 51.269531 57.214844 51.792969 57.578125 51.960938 57.476562 C 52.128906 57.371094 52.183594 57.417969 52.085938 57.578125 C 51.988281 57.738281 52.203125 58.132812 52.570312 58.453125 C 52.933594 58.773438 53.714844 59.84375 54.304688 60.832031 C 54.894531 61.816406 55.496094 62.550781 55.640625 62.460938 C 55.785156 62.371094 55.824219 62.503906 55.730469 62.753906 C 55.636719 63.003906 55.796875 63.566406 56.085938 64.003906 C 56.375 64.445312 56.578125 64.914062 56.539062 65.046875 C 56.5 65.183594 56.726562 65.359375 57.046875 65.445312 C 57.367188 65.53125 57.546875 65.726562 57.453125 65.886719 C 57.351562 66.050781 57.523438 66.039062 57.859375 65.855469 C 58.332031 65.597656 58.511719 64.839844 58.195312 64.441406 C 58.160156 64.398438 58.117188 64.203125 58.097656 64.003906 C 58.078125 63.804688 57.792969 63.652344 57.464844 63.667969 C 56.667969 63.710938 56.699219 63.019531 57.535156 62.101562 C 57.90625 61.699219 58.207031 61.242188 58.207031 61.089844 C 58.207031 60.933594 57.953125 61.117188 57.640625 61.496094 C 57.332031 61.871094 57.074219 62.058594 57.066406 61.910156 C 57.0625 61.757812 56.863281 61.886719 56.625 62.199219 C 56.207031 62.746094 56.199219 62.746094 56.386719 62.207031 C 56.523438 61.820312 56.476562 61.714844 56.246094 61.859375 C 56.054688 61.980469 55.90625 61.90625 55.90625 61.691406 C 55.902344 61.410156 55.820312 61.425781 55.597656 61.746094 C 55.324219 62.132812 55.304688 62.132812 55.410156 61.746094 C 55.542969 61.242188 56.230469 61.148438 56.582031 61.589844 C 56.722656 61.765625 56.769531 61.652344 56.699219 61.308594 C 56.632812 60.988281 56.78125 60.523438 57.035156 60.273438 C 57.609375 59.703125 58.839844 59.710938 58.996094 60.289062 C 59.066406 60.550781 59.015625 60.609375 58.875 60.433594 C 58.613281 60.109375 57.921875 59.910156 57.921875 60.15625 C 57.921875 60.242188 58.230469 60.652344 58.609375 61.066406 C 59.332031 61.859375 60.015625 61.78125 59.746094 60.933594 C 59.617188 60.523438 59.640625 60.511719 59.886719 60.859375 C 60.046875 61.089844 60.121094 61.375 60.050781 61.492188 C 59.980469 61.609375 60.054688 61.789062 60.214844 61.886719 C 60.375 61.988281 60.503906 61.804688 60.503906 61.472656 C 60.503906 61.140625 60.628906 60.871094 60.785156 60.871094 C 60.9375 60.871094 60.980469 61.089844 60.878906 61.355469 C 60.761719 61.667969 60.808594 61.769531 61.007812 61.644531 C 61.183594 61.535156 61.386719 61.679688 61.460938 61.960938 C 61.539062 62.242188 61.582031 61.917969 61.554688 61.234375 C 61.527344 60.433594 61.378906 60 61.136719 59.996094 C 60.929688 59.996094 60.832031 60.117188 60.921875 60.261719 C 61.046875 60.472656 60.597656 60.496094 60.003906 60.3125 C 59.964844 60.300781 60.191406 60.027344 60.503906 59.707031 C 61.214844 58.988281 61.25 58.25 60.578125 58.246094 C 60.160156 58.242188 60.144531 58.195312 60.492188 57.972656 C 60.855469 57.742188 60.839844 57.621094 60.402344 57.128906 C 60.117188 56.8125 59.851562 56.378906 59.808594 56.164062 C 59.765625 55.949219 59.632812 55.511719 59.515625 55.191406 C 59.398438 54.871094 59.171875 54.25 59.007812 53.8125 C 58.847656 53.371094 58.601562 53.085938 58.464844 53.171875 C 58.328125 53.257812 58.277344 53.15625 58.351562 52.949219 C 58.609375 52.226562 55.113281 47.019531 52.992188 44.96875 C 49.382812 41.484375 47.078125 40.128906 41.90625 38.457031 C 40.285156 37.933594 38.960938 37.371094 38.960938 37.210938 C 38.960938 37.035156 39.140625 37.0625 39.386719 37.273438 C 39.734375 37.566406 39.851562 37.539062 40.003906 37.136719 C 40.160156 36.726562 40.417969 36.671875 41.480469 36.835938 C 42.191406 36.941406 43.042969 37.144531 43.378906 37.28125 C 43.714844 37.417969 44.890625 37.808594 46 38.152344 C 50.648438 39.597656 53.902344 42.542969 58.910156 49.839844 C 59.375 50.515625 59.804688 50.914062 59.867188 50.726562 C 59.929688 50.535156 60.105469 50.457031 60.257812 50.554688 C 60.429688 50.660156 60.410156 50.878906 60.207031 51.125 C 59.792969 51.632812 60.136719 52.226562 60.71875 52 C 61.085938 51.855469 61.097656 51.902344 60.796875 52.269531 C 60.53125 52.597656 60.523438 52.714844 60.773438 52.714844 C 60.960938 52.714844 61.046875 52.824219 60.964844 52.960938 C 60.757812 53.296875 61.726562 55.816406 62.339844 56.542969 C 62.804688 57.09375 62.882812 57.101562 63.539062 56.664062 C 63.925781 56.40625 64.242188 56.296875 64.25 56.421875 C 64.253906 56.546875 64.394531 56.410156 64.5625 56.117188 C 64.730469 55.824219 64.789062 55.507812 64.695312 55.410156 C 64.605469 55.316406 64.527344 55.394531 64.527344 55.578125 C 64.527344 55.765625 64.390625 55.917969 64.222656 55.917969 C 64.054688 55.917969 64 55.785156 64.097656 55.625 C 64.359375 55.195312 63.960938 54.132812 63.617188 54.347656 C 63.457031 54.449219 63.382812 54.839844 63.453125 55.214844 C 63.53125 55.636719 63.46875 55.832031 63.289062 55.71875 C 63.113281 55.605469 63.0625 55.71875 63.164062 55.988281 C 63.28125 56.296875 63.1875 56.421875 62.871094 56.375 C 62.613281 56.335938 62.355469 56.121094 62.292969 55.894531 C 62.207031 55.5625 62.234375 55.554688 62.453125 55.867188 C 62.648438 56.152344 62.835938 55.898438 63.148438 54.9375 C 63.425781 54.085938 63.480469 53.488281 63.304688 53.242188 C 63.097656 52.945312 63.066406 52.957031 63.164062 53.296875 C 63.238281 53.539062 63.035156 53.996094 62.71875 54.316406 C 62.25 54.789062 62.171875 54.804688 62.3125 54.410156 C 62.40625 54.140625 62.394531 53.867188 62.285156 53.800781 C 62.175781 53.738281 62.234375 53.71875 62.417969 53.761719 C 62.597656 53.804688 62.816406 53.570312 62.902344 53.238281 C 63.015625 52.792969 63.191406 52.695312 63.578125 52.855469 C 64.140625 53.089844 64.503906 53.117188 65.820312 53.027344 C 66.65625 52.972656 66.664062 52.960938 66.003906 52.695312 C 65.582031 52.523438 65.390625 52.261719 65.488281 51.996094 C 65.578125 51.761719 65.527344 51.492188 65.375 51.394531 C 65.105469 51.226562 65.019531 51.492188 65.023438 52.5 C 65.027344 52.929688 64.953125 52.953125 64.578125 52.648438 C 64.207031 52.34375 64.171875 52.347656 64.371094 52.6875 C 64.539062 52.96875 64.507812 53.03125 64.28125 52.886719 C 64.09375 52.769531 64.027344 52.539062 64.128906 52.371094 C 64.25 52.171875 64.007812 52.136719 63.414062 52.269531 C 62.640625 52.441406 62.542969 52.402344 62.710938 51.960938 C 62.851562 51.589844 62.800781 51.515625 62.519531 51.691406 C 62.277344 51.84375 62.210938 51.816406 62.332031 51.617188 C 62.4375 51.445312 62.316406 51.097656 62.066406 50.84375 C 61.652344 50.425781 61.660156 50.382812 62.136719 50.375 C 62.628906 50.367188 62.628906 50.347656 62.15625 50.070312 C 61.882812 49.90625 61.652344 49.550781 61.652344 49.277344 C 61.648438 48.894531 61.589844 48.871094 61.402344 49.171875 C 61.222656 49.460938 61.121094 49.367188 61.019531 48.828125 C 60.941406 48.421875 60.988281 47.917969 61.121094 47.707031 C 61.335938 47.359375 61.488281 47.582031 61.402344 48.125 C 61.382812 48.246094 61.523438 48.3125 61.714844 48.273438 C 61.902344 48.234375 62.070312 48.332031 62.082031 48.492188 C 62.09375 48.652344 62.289062 49.109375 62.511719 49.511719 C 62.738281 49.910156 62.953125 50.433594 62.988281 50.671875 C 63.027344 50.90625 63.210938 51.152344 63.394531 51.214844 C 63.632812 51.296875 63.617188 51.402344 63.339844 51.578125 C 63.082031 51.738281 63.269531 51.800781 63.878906 51.761719 C 64.390625 51.726562 64.875 51.515625 64.957031 51.296875 C 65.074219 50.988281 65.199219 50.976562 65.519531 51.246094 C 65.746094 51.4375 65.859375 51.78125 65.773438 52.007812 C 65.667969 52.28125 65.800781 52.414062 66.148438 52.402344 C 66.441406 52.386719 66.535156 52.316406 66.351562 52.242188 C 66.171875 52.164062 66.089844 51.847656 66.171875 51.535156 C 66.253906 51.222656 66.1875 50.96875 66.03125 50.96875 C 65.875 50.96875 65.59375 50.355469 65.410156 49.613281 C 65.222656 48.867188 64.859375 47.851562 64.601562 47.355469 C 64.339844 46.859375 64.101562 46.308594 64.074219 46.132812 C 64.042969 45.957031 63.679688 45.269531 63.261719 44.605469 C 62.847656 43.9375 62.585938 43.394531 62.675781 43.394531 C 62.769531 43.394531 62.59375 43.03125 62.285156 42.59375 C 61.980469 42.152344 61.464844 41.265625 61.140625 40.625 C 59.765625 37.914062 55.179688 33.277344 51.816406 31.207031 C 50.433594 30.355469 49.300781 29.59375 49.300781 29.515625 C 49.300781 29.4375 49.433594 29.457031 49.589844 29.554688 C 49.746094 29.65625 49.875 29.523438 49.875 29.265625 C 49.875 28.972656 49.742188 28.871094 49.519531 29 C 49.25 29.152344 49.238281 29.113281 49.480469 28.851562 C 49.730469 28.578125 50.113281 28.652344 51.203125 29.1875 C 53.097656 30.117188 56.390625 32.347656 58.015625 33.796875 C 59.191406 34.847656 62.804688 39.101562 62.804688 39.433594 C 62.804688 39.503906 63.46875 40.71875 64.285156 42.132812 C 65.097656 43.546875 66.117188 45.535156 66.546875 46.554688 C 66.976562 47.570312 67.410156 48.273438 67.511719 48.109375 C 67.609375 47.949219 67.617188 47.621094 67.523438 47.382812 C 67.433594 47.144531 67.496094 46.863281 67.664062 46.757812 C 67.851562 46.640625 67.910156 46.769531 67.820312 47.09375 C 67.734375 47.382812 67.820312 47.324219 68.011719 46.957031 C 68.464844 46.085938 68.121094 45.789062 67.410156 46.441406 C 66.859375 46.945312 66.847656 46.941406 67 46.269531 C 67.089844 45.890625 67.171875 45.417969 67.183594 45.226562 C 67.195312 45.035156 67.316406 44.941406 67.449219 45.023438 C 67.867188 45.285156 67.707031 44.433594 67.003906 42.613281 C 66.269531 40.707031 65.007812 38.632812 64.746094 38.898438 C 64.65625 38.988281 64.605469 38.824219 64.628906 38.53125 C 64.652344 38.234375 64.507812 38.039062 64.289062 38.082031 C 64.082031 38.128906 63.976562 38.054688 64.058594 37.917969 C 64.257812 37.589844 63.671875 35.925781 62.875 34.5625 C 62.109375 33.25 62.082031 33.078125 62.675781 33.308594 C 62.945312 33.414062 63.046875 33.363281 62.933594 33.175781 C 62.828125 33.003906 62.574219 32.933594 62.363281 33.015625 C 61.941406 33.179688 61.179688 32.417969 61.46875 32.121094 C 61.570312 32.019531 61.65625 32.085938 61.65625 32.273438 C 61.65625 32.460938 61.882812 32.617188 62.15625 32.625 C 62.949219 32.636719 63.703125 33.332031 63.335938 33.707031 C 63.007812 34.039062 63.230469 34.652344 63.671875 34.652344 C 63.816406 34.652344 63.863281 34.425781 63.773438 34.144531 C 63.683594 33.863281 63.925781 34.160156 64.308594 34.800781 C 64.691406 35.441406 65.417969 36.578125 65.921875 37.324219 C 66.425781 38.074219 67.042969 39.1875 67.292969 39.800781 C 67.542969 40.414062 67.988281 41.460938 68.285156 42.121094 C 68.578125 42.785156 69.027344 43.964844 69.277344 44.742188 C 69.527344 45.523438 69.808594 46.355469 69.90625 46.597656 C 70 46.835938 70.089844 47.101562 70.105469 47.179688 C 70.121094 47.261719 70.441406 47.832031 70.820312 48.449219 C 71.375 49.355469 71.429688 49.617188 71.113281 49.816406 C 70.898438 49.949219 70.816406 50.160156 70.9375 50.28125 C 71.253906 50.601562 72.027344 50.667969 71.835938 50.359375 C 71.746094 50.210938 71.828125 50.09375 72.015625 50.09375 C 72.265625 50.09375 72.269531 49.992188 72.035156 49.703125 C 71.859375 49.488281 71.808594 49.203125 71.925781 49.074219 C 72.042969 48.941406 71.976562 48.929688 71.78125 49.042969 C 71.582031 49.160156 71.421875 49.113281 71.421875 48.945312 C 71.421875 48.777344 71.582031 48.625 71.78125 48.613281 C 72.066406 48.59375 72.066406 48.558594 71.777344 48.441406 C 71.582031 48.363281 71.492188 48.175781 71.582031 48.027344 C 71.671875 47.882812 71.617188 47.761719 71.464844 47.761719 C 71.308594 47.761719 71.128906 47.921875 71.066406 48.121094 C 71 48.316406 70.871094 48.183594 70.78125 47.828125 C 70.6875 47.472656 70.730469 47.105469 70.875 47.019531 C 71.019531 46.929688 71.132812 46.992188 71.132812 47.164062 C 71.132812 47.332031 71.265625 47.472656 71.421875 47.472656 C 71.773438 47.472656 71.675781 46.824219 71.277344 46.527344 C 71.101562 46.398438 71.136719 46.3125 71.367188 46.3125 C 71.574219 46.308594 71.660156 46.171875 71.5625 46.007812 C 71.460938 45.84375 71.324219 45.285156 71.261719 44.769531 C 70.847656 41.4375 69.722656 37.914062 67.777344 33.863281 C 66.324219 30.828125 63.511719 27.484375 61.152344 25.976562 C 60.402344 25.5 59.226562 24.757812 58.546875 24.328125 C 57.601562 23.738281 57.375 23.460938 57.609375 23.175781 C 57.777344 22.972656 57.832031 22.71875 57.734375 22.621094 C 57.554688 22.4375 58.714844 22.746094 59.789062 23.167969 C 60.625 23.496094 63.839844 25.863281 65.40625 27.304688 C 68.382812 30.050781 71.421875 36.433594 72.4375 42.082031 C 72.695312 43.523438 73.058594 45.488281 73.242188 46.445312 L 73.578125 48.1875 L 74.609375 46.007812 C 79.855469 34.9375 77.34375 22.871094 69.125 19.65625 C 67.1875 18.898438 66.578125 18.808594 63.089844 18.738281 C 58.757812 18.652344 57.335938 18.855469 53.179688 20.140625 C 49.910156 21.152344 46.984375 22.566406 44.867188 24.15625 C 43.601562 25.105469 39.652344 28.589844 39.246094 29.113281 C 39.167969 29.214844 38.132812 29.972656 36.949219 30.800781 C 33.429688 33.25 30.503906 37.042969 29.183594 40.871094 C 28.398438 43.148438 28.078125 48.949219 28.613281 51.292969 C 29.191406 53.832031 30.777344 56.917969 32.089844 58.058594 C 33.378906 59.179688 42.695312 63.980469 43.84375 64.117188 C 44.238281 64.164062 44.742188 64.089844 44.964844 63.949219 C 45.242188 63.773438 45.304688 63.800781 45.164062 64.03125 C 45.039062 64.238281 45.160156 64.375 45.480469 64.382812 C 45.765625 64.394531 46.644531 64.710938 47.433594 65.09375 C 48.855469 65.777344 49.417969 65.652344 48.679688 64.816406 C 48.46875 64.578125 47.910156 63.859375 47.433594 63.222656 C 46.960938 62.585938 46.417969 62.117188 46.226562 62.179688 C 46.03125 62.25 45.949219 62.125 46.035156 61.894531 C 46.132812 61.644531 45.519531 60.964844 44.414062 60.09375 C 42.34375 58.464844 40.410156 57.445312 38.886719 57.191406 C 38.296875 57.09375 37.8125 56.886719 37.8125 56.738281 C 37.8125 56.589844 37.671875 56.554688 37.503906 56.660156 C 37.332031 56.769531 37.363281 56.578125 37.570312 56.242188 C 37.78125 55.90625 38.164062 55.628906 38.425781 55.628906 C 39.230469 55.628906 42.8125 56.828125 43.292969 57.261719 C 43.542969 57.484375 43.835938 57.667969 43.949219 57.667969 C 44.414062 57.667969 46.660156 59.628906 47.867188 61.085938 C 48.578125 61.945312 49.300781 62.8125 49.476562 63.011719 C 49.652344 63.207031 50.179688 64.050781 50.648438 64.886719 C 51.121094 65.722656 51.589844 66.320312 51.695312 66.210938 C 51.800781 66.105469 51.886719 66.296875 51.886719 66.640625 C 51.886719 67.519531 52.910156 68.03125 53.496094 67.441406 C 54.136719 66.789062 54.472656 66.882812 54.472656 67.71875 C 54.472656 68.117188 54.335938 68.445312 54.167969 68.445312 C 54 68.445312 53.953125 68.59375 54.066406 68.773438 C 54.199219 68.992188 54.363281 68.921875 54.5625 68.554688 C 54.726562 68.253906 55.066406 67.84375 55.3125 67.640625 Z M 52.625 67.074219 C 52.46875 66.660156 52.5 66.625 52.785156 66.910156 C 52.980469 67.109375 53.070312 67.34375 52.980469 67.433594 C 52.890625 67.523438 52.730469 67.363281 52.625 67.074219 Z M 54.320312 66.753906 C 54.167969 66.644531 54 66.355469 53.949219 66.113281 C 53.878906 65.765625 53.960938 65.777344 54.363281 66.179688 C 54.875 66.6875 54.839844 67.132812 54.320312 66.753906 Z M 51.960938 65.308594 C 51.988281 64.953125 52.109375 64.660156 52.234375 64.660156 C 52.535156 64.660156 52.515625 64.996094 52.183594 65.527344 C 51.96875 65.871094 51.921875 65.824219 51.960938 65.308594 Z M 52.914062 65.273438 C 52.828125 65.132812 52.980469 64.835938 53.253906 64.617188 C 53.695312 64.269531 53.710938 64.277344 53.398438 64.683594 C 53.203125 64.941406 53.125 65.234375 53.230469 65.339844 C 53.335938 65.445312 53.339844 65.53125 53.246094 65.53125 C 53.148438 65.53125 53 65.414062 52.914062 65.273438 Z M 56.902344 65.011719 C 56.984375 64.925781 56.910156 64.679688 56.734375 64.464844 C 56.492188 64.171875 56.511719 64.074219 56.824219 64.074219 C 57.234375 64.074219 58.480469 64.890625 58.207031 64.976562 C 57.78125 65.113281 56.773438 65.140625 56.902344 65.007812 Z M 51.027344 64.640625 C 51.027344 64.472656 51.15625 64.414062 51.3125 64.511719 C 51.46875 64.613281 51.601562 64.75 51.601562 64.820312 C 51.601562 64.890625 51.46875 64.949219 51.3125 64.949219 C 51.15625 64.949219 51.027344 64.8125 51.027344 64.640625 Z M 51.601562 64.074219 C 51.339844 63.90625 51.304688 63.792969 51.511719 63.789062 C 51.699219 63.785156 51.933594 63.914062 52.03125 64.074219 C 52.25 64.4375 52.152344 64.4375 51.601562 64.074219 Z M 52.363281 63.652344 C 52.257812 63.371094 52.34375 63.285156 52.617188 63.394531 C 52.847656 63.480469 52.960938 63.671875 52.875 63.816406 C 52.652344 64.175781 52.546875 64.144531 52.363281 63.652344 Z M 60.003906 59.203125 C 60.027344 58.894531 60.210938 58.636719 60.414062 58.636719 C 60.703125 58.636719 60.710938 58.734375 60.4375 59.097656 C 60.25 59.351562 60.0625 59.609375 60.027344 59.667969 C 59.992188 59.722656 59.980469 59.515625 60.003906 59.203125 Z M 53.742188 59.105469 C 53.636719 58.933594 53.613281 58.730469 53.691406 58.65625 C 53.765625 58.578125 53.902344 58.71875 53.996094 58.964844 C 54.191406 59.480469 54.027344 59.570312 53.742188 59.105469 Z M 58.371094 57.753906 C 58.214844 57.335938 58.246094 57.304688 58.53125 57.589844 C 58.726562 57.785156 58.816406 58.023438 58.726562 58.113281 C 58.636719 58.203125 58.476562 58.039062 58.371094 57.753906 Z M 53.269531 57.46875 C 53.476562 57.382812 53.726562 57.394531 53.820312 57.492188 C 53.914062 57.585938 53.746094 57.65625 53.441406 57.644531 C 53.109375 57.628906 53.039062 57.5625 53.269531 57.46875 Z M 56.914062 57.375 C 57.011719 57.214844 57.148438 57.085938 57.21875 57.085938 C 57.289062 57.085938 57.34375 57.214844 57.34375 57.375 C 57.34375 57.535156 57.207031 57.667969 57.039062 57.667969 C 56.875 57.667969 56.816406 57.535156 56.914062 57.375 Z M 54.550781 56.835938 C 54.660156 56.484375 52.828125 54.039062 51.128906 52.265625 C 49.660156 50.730469 46.507812 48.539062 43.667969 47.082031 C 42.324219 46.390625 39.34375 45.382812 37.140625 44.871094 C 36.058594 44.617188 35.21875 44.28125 35.273438 44.121094 C 35.429688 43.652344 38.960938 43.894531 41.207031 44.523438 C 43.476562 45.164062 46.011719 46.382812 48.4375 48.011719 C 50.328125 49.28125 54.183594 52.929688 54.183594 53.449219 C 54.183594 53.652344 54.386719 53.894531 54.632812 53.992188 C 54.882812 54.089844 54.992188 54.3125 54.886719 54.492188 C 54.777344 54.671875 54.820312 54.902344 54.988281 55.007812 C 55.152344 55.113281 55.375 55.539062 55.476562 55.957031 C 55.625 56.5625 55.546875 56.746094 55.078125 56.871094 C 54.757812 56.953125 54.519531 56.941406 54.550781 56.835938 Z M 63.78125 50.921875 C 63.644531 50.699219 63.703125 50.664062 63.957031 50.824219 C 64.226562 50.992188 64.289062 50.933594 64.171875 50.625 C 64.042969 50.285156 64.167969 50.214844 64.707031 50.320312 C 65.492188 50.472656 65.492188 50.464844 64.617188 50.929688 C 64.144531 51.175781 63.9375 51.175781 63.78125 50.921875 Z M 63.355469 48.273438 C 63.34375 48.070312 63.289062 47.679688 63.238281 47.398438 C 63.183594 47.121094 63.253906 46.820312 63.386719 46.734375 C 63.523438 46.652344 63.582031 46.859375 63.519531 47.199219 C 63.429688 47.667969 63.511719 47.773438 63.859375 47.636719 C 64.222656 47.496094 64.25 47.542969 63.996094 47.855469 C 63.816406 48.074219 63.753906 48.339844 63.859375 48.445312 C 63.964844 48.550781 63.898438 48.636719 63.714844 48.636719 C 63.527344 48.636719 63.367188 48.472656 63.355469 48.273438 Z M 70.128906 46.597656 C 69.976562 46.34375 70.007812 46.285156 70.226562 46.421875 C 70.714844 46.730469 70.632812 46.285156 70.085938 45.671875 C 69.800781 45.355469 69.742188 45.140625 69.941406 45.140625 C 70.121094 45.140625 70.273438 45.261719 70.273438 45.410156 C 70.273438 45.558594 70.472656 45.722656 70.71875 45.773438 C 71.105469 45.855469 71.109375 45.941406 70.761719 46.421875 C 70.449219 46.855469 70.308594 46.890625 70.128906 46.597656 Z M 69.59375 44.332031 C 69.496094 44.171875 69.609375 43.878906 69.84375 43.679688 C 70.3125 43.289062 70.410156 43.597656 70.015625 44.226562 C 69.867188 44.464844 69.699219 44.507812 69.59375 44.332031 Z M 58.351562 43.394531 C 58.253906 43.234375 58.308594 43.101562 58.476562 43.101562 C 58.644531 43.101562 58.78125 43.234375 58.78125 43.394531 C 58.78125 43.554688 58.722656 43.683594 58.65625 43.683594 C 58.585938 43.683594 58.449219 43.554688 58.351562 43.394531 Z M 69.085938 42.882812 C 68.738281 42.433594 68.746094 42.414062 69.148438 42.734375 C 69.402344 42.933594 69.710938 43 69.84375 42.878906 C 69.972656 42.761719 69.984375 42.828125 69.871094 43.027344 C 69.601562 43.5 69.554688 43.492188 69.085938 42.882812 Z M 55.707031 41.480469 C 53.878906 38.832031 53.246094 38.148438 51.449219 36.890625 C 49.375 35.4375 44.867188 33.09375 43.484375 32.75 C 43.050781 32.640625 42.695312 32.425781 42.695312 32.273438 C 42.695312 32.121094 42.855469 32.097656 43.054688 32.214844 C 43.296875 32.363281 43.285156 32.277344 43.019531 31.941406 C 42.675781 31.511719 42.691406 31.449219 43.164062 31.449219 C 43.964844 31.445312 47.929688 32.828125 49.015625 33.488281 C 51.667969 35.101562 53.308594 36.191406 53.921875 36.75 C 54.953125 37.679688 56.105469 39.566406 56.335938 40.699219 C 56.460938 41.316406 56.648438 41.578125 56.867188 41.445312 C 57.050781 41.332031 57.023438 41.464844 56.808594 41.734375 C 56.304688 42.363281 56.320312 42.367188 55.707031 41.480469 Z M 72.480469 31.921875 C 71.777344 30.417969 70.675781 28.46875 70.035156 27.585938 C 69.390625 26.703125 68.957031 25.878906 69.066406 25.753906 C 69.175781 25.632812 69.121094 25.613281 68.945312 25.714844 C 68.550781 25.945312 67.5625 24.894531 67.804688 24.5 C 67.898438 24.34375 67.828125 24.164062 67.640625 24.101562 C 67.242188 23.96875 67.046875 23 67.421875 23 C 67.6875 23 70.625 26.046875 71.6875 27.421875 C 72.808594 28.871094 74.0625 31.804688 74.171875 33.238281 C 74.234375 34.015625 74.164062 34.652344 74.019531 34.652344 C 73.875 34.652344 73.179688 33.425781 72.480469 31.921875 Z M 57.320312 28.820312 C 56.273438 28.527344 55.023438 27.648438 55.210938 27.339844 C 55.296875 27.195312 55.160156 27.078125 54.902344 27.078125 C 54.625 27.078125 54.519531 26.945312 54.644531 26.742188 C 54.769531 26.535156 54.722656 26.484375 54.515625 26.617188 C 54.332031 26.730469 53.980469 26.621094 53.730469 26.371094 C 53.484375 26.121094 53.121094 25.914062 52.917969 25.914062 C 52.71875 25.914062 52.558594 25.71875 52.558594 25.480469 C 52.558594 25.214844 52.675781 25.144531 52.867188 25.292969 C 53.039062 25.429688 53.578125 25.675781 54.0625 25.839844 C 54.550781 26.003906 55.800781 26.734375 56.847656 27.460938 C 58.683594 28.734375 58.863281 29.253906 57.320312 28.820312 Z M 53.855469 68.1875 C 54.070312 68.046875 54.136719 67.867188 54 67.785156 C 53.863281 67.699219 53.585938 67.816406 53.382812 68.039062 C 52.972656 68.488281 53.25 68.574219 53.855469 68.1875 Z M 58.910156 67.015625 C 58.996094 66.871094 58.8125 66.820312 58.496094 66.90625 C 57.824219 67.082031 57.738281 67.28125 58.332031 67.28125 C 58.5625 67.28125 58.820312 67.160156 58.910156 67.015625 Z M 59.070312 66.277344 C 59.070312 66.207031 58.941406 66.066406 58.78125 65.96875 C 58.625 65.871094 58.496094 65.929688 58.496094 66.097656 C 58.496094 66.265625 58.625 66.40625 58.78125 66.40625 C 58.941406 66.40625 59.070312 66.347656 59.070312 66.277344 Z M 60.230469 64.542969 C 60.085938 64.160156 60.054688 63.746094 60.164062 63.621094 C 60.273438 63.5 60.199219 63.496094 59.996094 63.613281 C 59.796875 63.730469 59.679688 63.914062 59.738281 64.023438 C 59.796875 64.132812 59.921875 64.449219 60.019531 64.730469 C 60.121094 65.011719 60.265625 65.242188 60.34375 65.242188 C 60.425781 65.242188 60.371094 64.925781 60.230469 64.542969 Z M 61.558594 63.652344 C 61.558594 63.417969 61.449219 63.296875 61.3125 63.378906 C 61.179688 63.464844 61.144531 63.65625 61.234375 63.804688 C 61.46875 64.1875 61.558594 64.144531 61.558594 63.652344 Z M 57.777344 62.910156 C 57.875 62.75 57.824219 62.621094 57.667969 62.621094 C 57.507812 62.621094 57.300781 62.75 57.203125 62.910156 C 57.105469 63.070312 57.152344 63.203125 57.3125 63.203125 C 57.46875 63.203125 57.679688 63.070312 57.777344 62.910156 Z M 60.894531 62.472656 C 60.988281 62.234375 60.9375 62.035156 60.785156 62.035156 C 60.628906 62.035156 60.503906 62.234375 60.503906 62.472656 C 60.503906 62.714844 60.554688 62.910156 60.617188 62.910156 C 60.679688 62.910156 60.804688 62.714844 60.894531 62.472656 Z M 60.21875 62.28125 C 60.21875 62.167969 60.089844 61.988281 59.929688 61.890625 C 59.773438 61.792969 59.644531 61.84375 59.644531 62.011719 C 59.644531 62.175781 59.429688 62.226562 59.164062 62.125 C 58.855469 62.003906 58.757812 62.050781 58.882812 62.261719 C 59.097656 62.609375 60.21875 62.628906 60.21875 62.28125 Z M 57.253906 60.816406 C 57.164062 60.585938 57.09375 60.652344 57.082031 60.992188 C 57.066406 61.300781 57.136719 61.472656 57.230469 61.375 C 57.328125 61.277344 57.335938 61.027344 57.253906 60.816406 Z M 64.398438 59.015625 C 64.425781 58.464844 64.320312 58.359375 63.859375 58.480469 C 63.476562 58.582031 63.355469 58.523438 63.492188 58.296875 C 63.605469 58.109375 63.5625 57.957031 63.394531 57.957031 C 63.226562 57.957031 63.089844 58.15625 63.089844 58.394531 C 63.089844 58.652344 63.359375 58.835938 63.738281 58.839844 C 64.304688 58.847656 64.324219 58.886719 63.890625 59.140625 C 63.609375 59.308594 63.472656 59.621094 63.570312 59.878906 C 63.804688 60.492188 64.351562 59.917969 64.398438 59.015625 Z M 64.972656 57.109375 C 64.738281 56.722656 63.664062 56.6875 63.664062 57.066406 C 63.664062 57.21875 63.40625 57.292969 63.089844 57.230469 C 62.773438 57.167969 62.515625 57.25 62.515625 57.414062 C 62.515625 57.777344 63.945312 57.652344 64.507812 57.242188 C 64.84375 56.996094 64.878906 57.050781 64.707031 57.519531 C 64.542969 57.964844 64.574219 58.023438 64.828125 57.765625 C 65.015625 57.578125 65.078125 57.285156 64.972656 57.109375 Z M 38.527344 56.210938 C 38.625 56.050781 38.578125 55.917969 38.417969 55.917969 C 38.261719 55.917969 38.050781 56.050781 37.953125 56.210938 C 37.855469 56.371094 37.90625 56.5 38.0625 56.5 C 38.222656 56.5 38.429688 56.371094 38.527344 56.210938 Z M 65.855469 54.664062 C 66.074219 54.746094 66.25 54.683594 66.25 54.523438 C 66.25 54.363281 66.046875 54.15625 65.800781 54.058594 C 65.554688 53.960938 65.421875 53.769531 65.503906 53.632812 C 65.589844 53.496094 65.339844 53.441406 64.953125 53.519531 C 64.5625 53.59375 64.289062 53.738281 64.34375 53.839844 C 64.394531 53.941406 64.527344 54.277344 64.636719 54.585938 C 64.777344 54.988281 64.921875 55.054688 65.144531 54.824219 C 65.316406 54.652344 65.636719 54.578125 65.855469 54.664062 Z M 64.8125 54.171875 C 64.8125 54.011719 64.945312 53.878906 65.101562 53.878906 C 65.257812 53.878906 65.386719 54.011719 65.386719 54.171875 C 65.386719 54.332031 65.257812 54.460938 65.101562 54.460938 C 64.945312 54.460938 64.8125 54.332031 64.8125 54.171875 Z M 66.710938 53.640625 C 66.277344 53.199219 66.269531 53.222656 66.605469 53.949219 C 66.804688 54.382812 67.015625 54.59375 67.074219 54.425781 C 67.132812 54.253906 66.96875 53.902344 66.710938 53.640625 Z M 80.476562 51.964844 C 80.609375 51.113281 80.609375 51.113281 80.050781 52.132812 C 79.371094 53.367188 79.304688 53.875 79.90625 53.265625 C 80.148438 53.019531 80.40625 52.4375 80.476562 51.964844 Z M 69.984375 52.019531 C 69.984375 51.953125 69.785156 51.824219 69.539062 51.730469 C 69.285156 51.628906 69.167969 51.679688 69.269531 51.84375 C 69.4375 52.121094 69.984375 52.253906 69.984375 52.019531 Z M 83.363281 51.375 C 84.15625 51.171875 86.5 46.984375 86.816406 45.199219 C 87.160156 43.257812 88.371094 42.515625 88.371094 44.246094 C 88.371094 45.273438 87.335938 48.597656 86.828125 49.203125 C 86.027344 50.152344 85.964844 50.457031 86.609375 50.25 C 86.945312 50.144531 88.15625 49.894531 89.300781 49.703125 L 91.386719 49.351562 L 91.53125 47.902344 C 91.695312 46.238281 91.167969 42.304688 90.523438 40.371094 C 90.070312 39.023438 87.3125 34.632812 86.332031 33.695312 C 85.796875 33.1875 85.785156 33.210938 85.785156 34.714844 C 85.785156 37.628906 84.542969 43.242188 83.347656 45.722656 C 82.632812 47.203125 82.097656 49.125 81.945312 50.765625 C 81.859375 51.644531 81.925781 51.839844 82.257812 51.710938 C 82.488281 51.621094 82.984375 51.46875 83.363281 51.375 Z M 89.355469 46.378906 C 89.261719 45.9375 89.136719 45.421875 89.078125 45.226562 C 89.019531 45.035156 89.128906 44.941406 89.316406 45.015625 C 89.761719 45.1875 90.667969 46.789062 90.449219 47.011719 C 90.046875 47.421875 89.515625 47.113281 89.355469 46.378906 Z M 69.101562 50.597656 C 69.445312 50.140625 69.429688 50.101562 68.972656 50.28125 C 68.589844 50.429688 68.515625 50.382812 68.691406 50.097656 C 68.824219 49.878906 68.8125 49.78125 68.664062 49.871094 C 68.28125 50.109375 67.765625 49.425781 67.859375 48.800781 C 67.902344 48.503906 68.089844 48.160156 68.277344 48.042969 C 68.464844 47.925781 68.558594 47.652344 68.488281 47.433594 C 68.402344 47.183594 68.167969 47.398438 67.859375 48 C 67.441406 48.816406 67.421875 49.089844 67.730469 49.796875 C 67.933594 50.257812 68.199219 50.570312 68.324219 50.492188 C 68.445312 50.414062 68.546875 50.578125 68.546875 50.851562 C 68.546875 51.128906 68.585938 51.300781 68.628906 51.234375 C 68.675781 51.167969 68.886719 50.878906 69.101562 50.597656 Z M 68.957031 48.824219 C 68.855469 48.5625 68.65625 48.34375 68.515625 48.34375 C 68.371094 48.34375 68.414062 48.601562 68.605469 48.914062 C 69.015625 49.574219 69.21875 49.519531 68.957031 48.824219 Z M 68.957031 48.824219 "/>
</g>
</svg>
