<svg width="72" height="72" viewBox="0 0 72 72" fill="none" xmlns="http://www.w3.org/2000/svg">
<path d="M71.1429 29.76C68.2838 12.84 53.631 0 36 0C18.369 0 3.71623 12.84 0.857147 29.76L36 12L71.1429 29.76ZM0.857147 42.24C3.71623 59.16 18.369 72 36 72C53.631 72 68.2838 59.16 71.1429 42.24L36 60L0.857147 42.24Z" fill="#699635"/>
<path d="M71.1429 29.76C68.2838 12.84 53.631 0 36 0C18.369 0 3.71623 12.84 0.857147 29.76L36 12L71.1429 29.76ZM0.857147 42.24C3.71623 59.16 18.369 72 36 72C53.631 72 68.2838 59.16 71.1429 42.24L36 60L0.857147 42.24Z" fill="#699635"/>
<path d="M36 12L0.6 29.76C0.24 31.8 0 33.84 0 36C0 38.16 0.24 40.2 0.6 42.24L36 60L71.4 42.24C71.76 40.2 72 38.16 72 36C72 33.84 71.76 31.8 71.4 29.76L36 12Z" fill="#FFE62E"/>
<path d="M53.1429 36C53.1429 45.4677 45.4677 53.1429 36 53.1429C26.5323 53.1429 18.8571 45.4677 18.8571 36C18.8571 26.5323 26.5323 18.8571 36 18.8571C45.4677 18.8571 53.1429 26.5323 53.1429 36Z" fill="#2D9CDB"/>
</svg>
