<svg width="201" height="72" viewBox="0 0 201 72" fill="none" xmlns="http://www.w3.org/2000/svg">
<path d="M18.4074 40.4966C18.4074 40.4966 18.6643 43.931 18.5615 45.6738C18.4588 47.4166 18.2532 48.9031 18.2532 48.9031L19.8978 62.1279L20.0006 63.5119C20.0006 63.5119 22.8787 65.2035 28.8918 65.2035C37.8858 65.2035 41.8946 63.7682 43.2308 60.8977C44.3101 58.5911 42.4085 53.3626 42.0487 51.5686C40.7639 45.6225 41.5348 41.3168 41.5348 41.3168L18.4074 40.4966Z" fill="#C4A878"/>
<path d="M18.4074 40.4966C18.4074 40.4966 18.6643 43.931 18.5615 45.6738C18.4588 47.4166 18.2532 48.9031 18.2532 48.9031L19.8978 62.1279L20.0006 63.5119C20.0006 63.5119 22.8787 65.2035 28.8918 65.2035C37.8858 65.2035 41.8946 63.7682 43.2308 60.8977C44.3101 58.5911 42.4085 53.3626 42.0487 51.5686C40.7639 45.6225 41.5348 41.3168 41.5348 41.3168L18.4074 40.4966Z" fill="#C4A878"/>
<path d="M18.4074 40.4966C18.4074 40.4966 18.6643 43.931 18.5615 45.6738C18.4588 47.4166 18.2532 48.9031 18.2532 48.9031L19.8978 62.1279L20.0006 63.5119C20.0006 63.5119 22.8787 65.2035 28.8918 65.2035C37.8858 65.2035 41.8946 63.7682 43.2308 60.8977C44.3101 58.5911 42.4085 53.3626 42.0487 51.5686C40.7639 45.6225 41.5348 41.3168 41.5348 41.3168L18.4074 40.4966Z" fill="#C4A878"/>
<path d="M18.4074 40.4966C18.4074 40.4966 18.6643 43.931 18.5615 45.6738C18.4588 47.4166 18.2532 48.9031 18.2532 48.9031L19.8978 62.1279L20.0006 63.5119C20.0006 63.5119 22.8787 65.2035 28.8918 65.2035C37.8858 65.2035 41.8946 63.7682 43.2308 60.8977C44.3101 58.5911 42.4085 53.3626 42.0487 51.5686C40.7639 45.6225 41.5348 41.3168 41.5348 41.3168L18.4074 40.4966Z" fill="#C4A878"/>
<path d="M15.8376 59.8212C16.4543 62.6405 20.3089 63.7169 20.3089 63.7169C20.3089 63.7169 25.8595 64.0245 29.4057 63.5631C33.0033 63.0505 35.9842 62.2304 36.2925 60.1288C36.6009 58.0272 36.4981 56.5919 36.3953 54.3878C36.3439 53.4139 36.2411 50.6971 36.2411 50.6971C36.2411 50.6971 32.1296 50.9022 26.6304 50.4921C21.234 50.082 18.3045 48.8005 18.3045 48.8005C18.3045 48.8005 17.5336 52.3374 16.9683 53.7727C16.4029 55.1054 15.2209 57.002 15.8376 59.8212Z" fill="#E8D4AF"/>
<path d="M15.8376 59.8212C16.4543 62.6405 20.3089 63.7169 20.3089 63.7169C20.3089 63.7169 25.8595 64.0245 29.4057 63.5631C33.0033 63.0505 35.9842 62.2304 36.2925 60.1288C36.6009 58.0272 36.4981 56.5919 36.3953 54.3878C36.3439 53.4139 36.2411 50.6971 36.2411 50.6971C36.2411 50.6971 32.1296 50.9022 26.6304 50.4921C21.234 50.082 18.3045 48.8005 18.3045 48.8005C18.3045 48.8005 17.5336 52.3374 16.9683 53.7727C16.4029 55.1054 15.2209 57.002 15.8376 59.8212Z" fill="#E8D4AF"/>
<path d="M15.8376 59.8212C16.4543 62.6405 20.3089 63.7169 20.3089 63.7169C20.3089 63.7169 25.8595 64.0245 29.4057 63.5631C33.0033 63.0505 35.9842 62.2304 36.2925 60.1288C36.6009 58.0272 36.4981 56.5919 36.3953 54.3878C36.3439 53.4139 36.2411 50.6971 36.2411 50.6971C36.2411 50.6971 32.1296 50.9022 26.6304 50.4921C21.234 50.082 18.3045 48.8005 18.3045 48.8005C18.3045 48.8005 17.5336 52.3374 16.9683 53.7727C16.4029 55.1054 15.2209 57.002 15.8376 59.8212Z" fill="#E8D4AF"/>
<path d="M15.8376 59.8212C16.4543 62.6405 20.3089 63.7169 20.3089 63.7169C20.3089 63.7169 25.8595 64.0245 29.4057 63.5631C33.0033 63.0505 35.9842 62.2304 36.2925 60.1288C36.6009 58.0272 36.4981 56.5919 36.3953 54.3878C36.3439 53.4139 36.2411 50.6971 36.2411 50.6971C36.2411 50.6971 32.1296 50.9022 26.6304 50.4921C21.234 50.082 18.3045 48.8005 18.3045 48.8005C18.3045 48.8005 17.5336 52.3374 16.9683 53.7727C16.4029 55.1054 15.2209 57.002 15.8376 59.8212Z" fill="#E8D4AF"/>
<path d="M30.1294 44.8636C50.2246 44.9149 59.27 31.3312 58.9616 17.7989C58.6019 5.6505 39.9971 4.16399 30.7461 4.01021C16.8697 3.80518 0.320694 6.62442 0.0123306 18.1577C-0.398824 31.5875 9.4175 44.8636 30.1294 44.8636Z" fill="#E6441F"/>
<path d="M30.1294 44.8636C50.2246 44.9149 59.27 31.3312 58.9616 17.7989C58.6019 5.6505 39.9971 4.16399 30.7461 4.01021C16.8697 3.80518 0.320694 6.62442 0.0123306 18.1577C-0.398824 31.5875 9.4175 44.8636 30.1294 44.8636Z" fill="#E6441F"/>
<path d="M30.1294 44.8636C50.2246 44.9149 59.27 31.3312 58.9616 17.7989C58.6019 5.6505 39.9971 4.16399 30.7461 4.01021C16.8697 3.80518 0.320694 6.62442 0.0123306 18.1577C-0.398824 31.5875 9.4175 44.8636 30.1294 44.8636Z" fill="#E6441F"/>
<path d="M30.1294 44.8636C50.2246 44.9149 59.27 31.3312 58.9616 17.7989C58.6019 5.6505 39.9971 4.16399 30.7461 4.01021C16.8697 3.80518 0.320694 6.62442 0.0123306 18.1577C-0.398824 31.5875 9.4175 44.8636 30.1294 44.8636Z" fill="#E6441F"/>
<path d="M49.9637 33.6931C52.3083 31.4707 53.6023 27.2342 51.8322 25.2098C50.1627 23.3406 47.0589 24.7319 44.9212 26.8547C42.7836 28.9775 40.6878 31.7673 41.8347 34.2442C43.2826 37.2381 47.3063 36.2186 49.9637 33.6931Z" fill="#FE8468"/>
<path d="M49.9637 33.6931C52.3083 31.4707 53.6023 27.2342 51.8322 25.2098C50.1627 23.3406 47.0589 24.7319 44.9212 26.8547C42.7836 28.9775 40.6878 31.7673 41.8347 34.2442C43.2826 37.2381 47.3063 36.2186 49.9637 33.6931Z" fill="#FE8468"/>
<path d="M49.9637 33.6931C52.3083 31.4707 53.6023 27.2342 51.8322 25.2098C50.1627 23.3406 47.0589 24.7319 44.9212 26.8547C42.7836 28.9775 40.6878 31.7673 41.8347 34.2442C43.2826 37.2381 47.3063 36.2186 49.9637 33.6931Z" fill="#FE8468"/>
<path d="M49.9637 33.6931C52.3083 31.4707 53.6023 27.2342 51.8322 25.2098C50.1627 23.3406 47.0589 24.7319 44.9212 26.8547C42.7836 28.9775 40.6878 31.7673 41.8347 34.2442C43.2826 37.2381 47.3063 36.2186 49.9637 33.6931Z" fill="#FE8468"/>
<path d="M49.7552 12.7302C49.7552 15.5216 40.886 17.7845 29.9452 17.7845C19.0045 17.7845 10.1353 15.5216 10.1353 12.7302C10.1353 9.93879 19.0045 7.67589 29.9452 7.67589C40.886 7.67589 49.7552 9.93879 49.7552 12.7302Z" fill="#FE8468"/>
<path d="M49.7552 12.7302C49.7552 15.5216 40.886 17.7845 29.9452 17.7845C19.0045 17.7845 10.1353 15.5216 10.1353 12.7302C10.1353 9.93879 19.0045 7.67589 29.9452 7.67589C40.886 7.67589 49.7552 9.93879 49.7552 12.7302Z" fill="#FE8468"/>
<path d="M49.7552 12.7302C49.7552 15.5216 40.886 17.7845 29.9452 17.7845C19.0045 17.7845 10.1353 15.5216 10.1353 12.7302C10.1353 9.93879 19.0045 7.67589 29.9452 7.67589C40.886 7.67589 49.7552 9.93879 49.7552 12.7302Z" fill="#FE8468"/>
<path d="M49.7552 12.7302C49.7552 15.5216 40.886 17.7845 29.9452 17.7845C19.0045 17.7845 10.1353 15.5216 10.1353 12.7302C10.1353 9.93879 19.0045 7.67589 29.9452 7.67589C40.886 7.67589 49.7552 9.93879 49.7552 12.7302Z" fill="#FE8468"/>
<path d="M170.374 46.1698C169.038 46.1698 167.917 45.8365 167.013 45.1699C166.148 44.4642 165.539 43.5232 165.185 42.3469C164.871 41.249 164.674 40.0531 164.595 38.7592C164.556 37.4653 164.536 35.6421 164.536 33.2895C164.536 31.0938 164.438 29.4666 164.242 28.408C164.084 27.3493 163.672 26.82 163.003 26.82C162.217 26.82 161.667 27.1729 161.352 27.8786C161.038 28.5452 160.88 29.5058 160.88 30.7605C160.88 31.8976 161.038 33.6816 161.352 36.1126C161.391 36.5831 161.47 37.3281 161.588 38.3475C161.706 39.367 161.765 40.21 161.765 40.8765C161.765 42.7586 161.332 44.0917 160.468 44.8759C159.642 45.6601 158.423 46.0522 156.811 46.0522C154.885 46.0522 153.214 45.0131 151.799 42.935C150.384 40.8569 149.322 38.2691 148.615 35.1716C147.907 32.0348 147.553 28.9569 147.553 25.9378C147.553 22.3305 148.064 18.9781 149.086 15.8806C150.148 12.783 151.72 10.2933 153.804 8.41121C155.927 6.52916 158.482 5.58813 161.47 5.58813C163.986 5.58813 165.991 6.37232 167.485 7.9407C168.979 9.46986 169.981 11.3323 170.492 13.528C170.925 11.3715 171.888 9.50907 173.382 7.9407C174.915 6.37232 176.92 5.58813 179.397 5.58813C182.345 5.58813 184.861 6.50955 186.945 8.35239C189.068 10.156 190.679 12.685 191.78 15.9394C192.92 19.1938 193.49 22.9579 193.49 27.2317C193.49 30.0155 193.097 32.8974 192.311 35.8773C191.525 38.818 190.424 41.2686 189.009 43.2291C187.593 45.1895 185.982 46.1698 184.173 46.1698C182.522 46.1698 181.264 45.7581 180.399 44.9347C179.534 44.1113 179.102 42.7586 179.102 40.8765C179.102 40.0139 179.259 38.4063 179.574 36.0538C179.888 33.5444 180.045 31.7408 180.045 30.6429C180.045 28.0943 179.357 26.82 177.981 26.82C177.274 26.82 176.822 27.3885 176.625 28.5256C176.468 29.6627 176.37 31.5055 176.33 34.0541C176.33 35.9754 176.291 37.5829 176.212 38.8768C176.134 40.1315 175.957 41.2882 175.682 42.3469C175.367 43.4839 174.738 44.4054 173.795 45.1111C172.89 45.8169 171.75 46.1698 170.374 46.1698Z" fill="white"/>
<path d="M170.374 46.1698C169.038 46.1698 167.917 45.8365 167.013 45.1699C166.148 44.4642 165.539 43.5232 165.185 42.3469C164.871 41.249 164.674 40.0531 164.595 38.7592C164.556 37.4653 164.536 35.6421 164.536 33.2895C164.536 31.0938 164.438 29.4666 164.242 28.408C164.084 27.3493 163.672 26.82 163.003 26.82C162.217 26.82 161.667 27.1729 161.352 27.8786C161.038 28.5452 160.88 29.5058 160.88 30.7605C160.88 31.8976 161.038 33.6816 161.352 36.1126C161.391 36.5831 161.47 37.3281 161.588 38.3475C161.706 39.367 161.765 40.21 161.765 40.8765C161.765 42.7586 161.332 44.0917 160.468 44.8759C159.642 45.6601 158.423 46.0522 156.811 46.0522C154.885 46.0522 153.214 45.0131 151.799 42.935C150.384 40.8569 149.322 38.2691 148.615 35.1716C147.907 32.0348 147.553 28.9569 147.553 25.9378C147.553 22.3305 148.064 18.9781 149.086 15.8806C150.148 12.783 151.72 10.2933 153.804 8.41121C155.927 6.52916 158.482 5.58813 161.47 5.58813C163.986 5.58813 165.991 6.37232 167.485 7.9407C168.979 9.46986 169.981 11.3323 170.492 13.528C170.925 11.3715 171.888 9.50907 173.382 7.9407C174.915 6.37232 176.92 5.58813 179.397 5.58813C182.345 5.58813 184.861 6.50955 186.945 8.35239C189.068 10.156 190.679 12.685 191.78 15.9394C192.92 19.1938 193.49 22.9579 193.49 27.2317C193.49 30.0155 193.097 32.8974 192.311 35.8773C191.525 38.818 190.424 41.2686 189.009 43.2291C187.593 45.1895 185.982 46.1698 184.173 46.1698C182.522 46.1698 181.264 45.7581 180.399 44.9347C179.534 44.1113 179.102 42.7586 179.102 40.8765C179.102 40.0139 179.259 38.4063 179.574 36.0538C179.888 33.5444 180.045 31.7408 180.045 30.6429C180.045 28.0943 179.357 26.82 177.981 26.82C177.274 26.82 176.822 27.3885 176.625 28.5256C176.468 29.6627 176.37 31.5055 176.33 34.0541C176.33 35.9754 176.291 37.5829 176.212 38.8768C176.134 40.1315 175.957 41.2882 175.682 42.3469C175.367 43.4839 174.738 44.4054 173.795 45.1111C172.89 45.8169 171.75 46.1698 170.374 46.1698Z" fill="white"/>
<path d="M170.374 46.1698C169.038 46.1698 167.917 45.8365 167.013 45.1699C166.148 44.4642 165.539 43.5232 165.185 42.3469C164.871 41.249 164.674 40.0531 164.595 38.7592C164.556 37.4653 164.536 35.6421 164.536 33.2895C164.536 31.0938 164.438 29.4666 164.242 28.408C164.084 27.3493 163.672 26.82 163.003 26.82C162.217 26.82 161.667 27.1729 161.352 27.8786C161.038 28.5452 160.88 29.5058 160.88 30.7605C160.88 31.8976 161.038 33.6816 161.352 36.1126C161.391 36.5831 161.47 37.3281 161.588 38.3475C161.706 39.367 161.765 40.21 161.765 40.8765C161.765 42.7586 161.332 44.0917 160.468 44.8759C159.642 45.6601 158.423 46.0522 156.811 46.0522C154.885 46.0522 153.214 45.0131 151.799 42.935C150.384 40.8569 149.322 38.2691 148.615 35.1716C147.907 32.0348 147.553 28.9569 147.553 25.9378C147.553 22.3305 148.064 18.9781 149.086 15.8806C150.148 12.783 151.72 10.2933 153.804 8.41121C155.927 6.52916 158.482 5.58813 161.47 5.58813C163.986 5.58813 165.991 6.37232 167.485 7.9407C168.979 9.46986 169.981 11.3323 170.492 13.528C170.925 11.3715 171.888 9.50907 173.382 7.9407C174.915 6.37232 176.92 5.58813 179.397 5.58813C182.345 5.58813 184.861 6.50955 186.945 8.35239C189.068 10.156 190.679 12.685 191.78 15.9394C192.92 19.1938 193.49 22.9579 193.49 27.2317C193.49 30.0155 193.097 32.8974 192.311 35.8773C191.525 38.818 190.424 41.2686 189.009 43.2291C187.593 45.1895 185.982 46.1698 184.173 46.1698C182.522 46.1698 181.264 45.7581 180.399 44.9347C179.534 44.1113 179.102 42.7586 179.102 40.8765C179.102 40.0139 179.259 38.4063 179.574 36.0538C179.888 33.5444 180.045 31.7408 180.045 30.6429C180.045 28.0943 179.357 26.82 177.981 26.82C177.274 26.82 176.822 27.3885 176.625 28.5256C176.468 29.6627 176.37 31.5055 176.33 34.0541C176.33 35.9754 176.291 37.5829 176.212 38.8768C176.134 40.1315 175.957 41.2882 175.682 42.3469C175.367 43.4839 174.738 44.4054 173.795 45.1111C172.89 45.8169 171.75 46.1698 170.374 46.1698Z" fill="white"/>
<path d="M170.374 46.1698C169.038 46.1698 167.917 45.8365 167.013 45.1699C166.148 44.4642 165.539 43.5232 165.185 42.3469C164.871 41.249 164.674 40.0531 164.595 38.7592C164.556 37.4653 164.536 35.6421 164.536 33.2895C164.536 31.0938 164.438 29.4666 164.242 28.408C164.084 27.3493 163.672 26.82 163.003 26.82C162.217 26.82 161.667 27.1729 161.352 27.8786C161.038 28.5452 160.88 29.5058 160.88 30.7605C160.88 31.8976 161.038 33.6816 161.352 36.1126C161.391 36.5831 161.47 37.3281 161.588 38.3475C161.706 39.367 161.765 40.21 161.765 40.8765C161.765 42.7586 161.332 44.0917 160.468 44.8759C159.642 45.6601 158.423 46.0522 156.811 46.0522C154.885 46.0522 153.214 45.0131 151.799 42.935C150.384 40.8569 149.322 38.2691 148.615 35.1716C147.907 32.0348 147.553 28.9569 147.553 25.9378C147.553 22.3305 148.064 18.9781 149.086 15.8806C150.148 12.783 151.72 10.2933 153.804 8.41121C155.927 6.52916 158.482 5.58813 161.47 5.58813C163.986 5.58813 165.991 6.37232 167.485 7.9407C168.979 9.46986 169.981 11.3323 170.492 13.528C170.925 11.3715 171.888 9.50907 173.382 7.9407C174.915 6.37232 176.92 5.58813 179.397 5.58813C182.345 5.58813 184.861 6.50955 186.945 8.35239C189.068 10.156 190.679 12.685 191.78 15.9394C192.92 19.1938 193.49 22.9579 193.49 27.2317C193.49 30.0155 193.097 32.8974 192.311 35.8773C191.525 38.818 190.424 41.2686 189.009 43.2291C187.593 45.1895 185.982 46.1698 184.173 46.1698C182.522 46.1698 181.264 45.7581 180.399 44.9347C179.534 44.1113 179.102 42.7586 179.102 40.8765C179.102 40.0139 179.259 38.4063 179.574 36.0538C179.888 33.5444 180.045 31.7408 180.045 30.6429C180.045 28.0943 179.357 26.82 177.981 26.82C177.274 26.82 176.822 27.3885 176.625 28.5256C176.468 29.6627 176.37 31.5055 176.33 34.0541C176.33 35.9754 176.291 37.5829 176.212 38.8768C176.134 40.1315 175.957 41.2882 175.682 42.3469C175.367 43.4839 174.738 44.4054 173.795 45.1111C172.89 45.8169 171.75 46.1698 170.374 46.1698Z" fill="white"/>
<path d="M140.701 36.7595C142.588 37.3477 143.532 38.5828 143.532 40.4648C143.532 42.2292 142.628 43.6212 140.819 44.6406C139.011 45.6601 135.885 46.1698 131.443 46.1698C125.9 46.1698 121.143 44.8367 117.173 42.1704C113.241 39.5042 111.276 34.2109 111.276 26.2906C111.276 22.2913 111.964 18.684 113.34 15.4689C114.716 12.2537 116.76 9.70511 119.472 7.82307C122.224 5.94102 125.586 4.99999 129.556 4.99999C134.863 4.99999 138.598 5.82339 140.76 7.47018C142.922 9.07776 144.004 11.0578 144.004 13.4104C144.004 14.5083 143.728 15.5277 143.178 16.4687C142.628 17.3705 141.802 18.0763 140.701 18.586C139.758 19.0565 138.539 19.2918 137.045 19.2918L135.453 19.233C135.139 19.1938 134.686 19.1742 134.097 19.1742C132.052 19.1742 130.441 19.5466 129.261 20.2916C128.082 20.9974 127.276 22.0953 126.844 23.5852C128.495 23.5068 129.989 23.4676 131.325 23.4676C135.296 23.4676 137.871 23.5852 139.05 23.8205C140.387 24.0949 141.409 24.6243 142.117 25.4084C142.864 26.1926 143.237 27.114 143.237 28.1727C143.237 29.2314 142.883 30.1528 142.176 30.937C141.468 31.6819 140.406 32.1917 138.991 32.4661C137.89 32.7014 135.217 32.819 130.971 32.819C129.242 32.819 128.023 32.7994 127.315 32.7602C128.534 35.348 130.814 36.6419 134.156 36.6419C134.352 36.6419 134.804 36.6027 135.512 36.5243C136.456 36.4459 137.261 36.4067 137.93 36.4067C139.07 36.4067 139.994 36.5243 140.701 36.7595Z" fill="white"/>
<path d="M140.701 36.7595C142.588 37.3477 143.532 38.5828 143.532 40.4648C143.532 42.2292 142.628 43.6212 140.819 44.6406C139.011 45.6601 135.885 46.1698 131.443 46.1698C125.9 46.1698 121.143 44.8367 117.173 42.1704C113.241 39.5042 111.276 34.2109 111.276 26.2906C111.276 22.2913 111.964 18.684 113.34 15.4689C114.716 12.2537 116.76 9.70511 119.472 7.82307C122.224 5.94102 125.586 4.99999 129.556 4.99999C134.863 4.99999 138.598 5.82339 140.76 7.47018C142.922 9.07776 144.004 11.0578 144.004 13.4104C144.004 14.5083 143.728 15.5277 143.178 16.4687C142.628 17.3705 141.802 18.0763 140.701 18.586C139.758 19.0565 138.539 19.2918 137.045 19.2918L135.453 19.233C135.139 19.1938 134.686 19.1742 134.097 19.1742C132.052 19.1742 130.441 19.5466 129.261 20.2916C128.082 20.9974 127.276 22.0953 126.844 23.5852C128.495 23.5068 129.989 23.4676 131.325 23.4676C135.296 23.4676 137.871 23.5852 139.05 23.8205C140.387 24.0949 141.409 24.6243 142.117 25.4084C142.864 26.1926 143.237 27.114 143.237 28.1727C143.237 29.2314 142.883 30.1528 142.176 30.937C141.468 31.6819 140.406 32.1917 138.991 32.4661C137.89 32.7014 135.217 32.819 130.971 32.819C129.242 32.819 128.023 32.7994 127.315 32.7602C128.534 35.348 130.814 36.6419 134.156 36.6419C134.352 36.6419 134.804 36.6027 135.512 36.5243C136.456 36.4459 137.261 36.4067 137.93 36.4067C139.07 36.4067 139.994 36.5243 140.701 36.7595Z" fill="white"/>
<path d="M140.701 36.7595C142.588 37.3477 143.532 38.5828 143.532 40.4648C143.532 42.2292 142.628 43.6212 140.819 44.6406C139.011 45.6601 135.885 46.1698 131.443 46.1698C125.9 46.1698 121.143 44.8367 117.173 42.1704C113.241 39.5042 111.276 34.2109 111.276 26.2906C111.276 22.2913 111.964 18.684 113.34 15.4689C114.716 12.2537 116.76 9.70511 119.472 7.82307C122.224 5.94102 125.586 4.99999 129.556 4.99999C134.863 4.99999 138.598 5.82339 140.76 7.47018C142.922 9.07776 144.004 11.0578 144.004 13.4104C144.004 14.5083 143.728 15.5277 143.178 16.4687C142.628 17.3705 141.802 18.0763 140.701 18.586C139.758 19.0565 138.539 19.2918 137.045 19.2918L135.453 19.233C135.139 19.1938 134.686 19.1742 134.097 19.1742C132.052 19.1742 130.441 19.5466 129.261 20.2916C128.082 20.9974 127.276 22.0953 126.844 23.5852C128.495 23.5068 129.989 23.4676 131.325 23.4676C135.296 23.4676 137.871 23.5852 139.05 23.8205C140.387 24.0949 141.409 24.6243 142.117 25.4084C142.864 26.1926 143.237 27.114 143.237 28.1727C143.237 29.2314 142.883 30.1528 142.176 30.937C141.468 31.6819 140.406 32.1917 138.991 32.4661C137.89 32.7014 135.217 32.819 130.971 32.819C129.242 32.819 128.023 32.7994 127.315 32.7602C128.534 35.348 130.814 36.6419 134.156 36.6419C134.352 36.6419 134.804 36.6027 135.512 36.5243C136.456 36.4459 137.261 36.4067 137.93 36.4067C139.07 36.4067 139.994 36.5243 140.701 36.7595Z" fill="white"/>
<path d="M140.701 36.7595C142.588 37.3477 143.532 38.5828 143.532 40.4648C143.532 42.2292 142.628 43.6212 140.819 44.6406C139.011 45.6601 135.885 46.1698 131.443 46.1698C125.9 46.1698 121.143 44.8367 117.173 42.1704C113.241 39.5042 111.276 34.2109 111.276 26.2906C111.276 22.2913 111.964 18.684 113.34 15.4689C114.716 12.2537 116.76 9.70511 119.472 7.82307C122.224 5.94102 125.586 4.99999 129.556 4.99999C134.863 4.99999 138.598 5.82339 140.76 7.47018C142.922 9.07776 144.004 11.0578 144.004 13.4104C144.004 14.5083 143.728 15.5277 143.178 16.4687C142.628 17.3705 141.802 18.0763 140.701 18.586C139.758 19.0565 138.539 19.2918 137.045 19.2918L135.453 19.233C135.139 19.1938 134.686 19.1742 134.097 19.1742C132.052 19.1742 130.441 19.5466 129.261 20.2916C128.082 20.9974 127.276 22.0953 126.844 23.5852C128.495 23.5068 129.989 23.4676 131.325 23.4676C135.296 23.4676 137.871 23.5852 139.05 23.8205C140.387 24.0949 141.409 24.6243 142.117 25.4084C142.864 26.1926 143.237 27.114 143.237 28.1727C143.237 29.2314 142.883 30.1528 142.176 30.937C141.468 31.6819 140.406 32.1917 138.991 32.4661C137.89 32.7014 135.217 32.819 130.971 32.819C129.242 32.819 128.023 32.7994 127.315 32.7602C128.534 35.348 130.814 36.6419 134.156 36.6419C134.352 36.6419 134.804 36.6027 135.512 36.5243C136.456 36.4459 137.261 36.4067 137.93 36.4067C139.07 36.4067 139.994 36.5243 140.701 36.7595Z" fill="white"/>
<path d="M89.9673 46.111C83.4414 46.0718 78.5469 44.4642 75.284 41.2882C72.0603 38.1123 70.4485 32.9563 70.4485 25.8202C70.4485 19.3506 72.021 14.273 75.166 10.5873C78.3111 6.86246 82.7534 5.00002 88.4931 5.00002C92.0312 5.00002 95.1173 5.52934 97.7513 6.58799C100.385 7.64665 102.41 9.1562 103.825 11.1167C105.24 13.0771 105.948 15.3905 105.948 18.0567C105.948 20.174 105.476 22.0561 104.533 23.7029C103.629 25.3497 102.272 26.82 100.464 28.1139C101.918 28.3492 103.176 29.1334 104.238 30.4665C105.339 31.7996 105.889 33.3484 105.889 35.1128C105.889 36.9948 105.378 38.7788 104.356 40.4648C103.373 42.1116 101.683 43.4644 99.2845 44.523C96.9257 45.5817 93.82 46.111 89.9673 46.111ZM85.8984 24.1734C86.6061 24.5263 87.4906 24.7027 88.5521 24.7027C89.8101 24.7027 90.8912 24.4086 91.7954 23.8205C92.7389 23.1931 93.2106 22.2717 93.2106 21.0562C93.2106 19.88 92.7389 18.9977 91.7954 18.4096C90.8912 17.7823 89.7904 17.4686 88.4931 17.4686C87.471 17.4686 86.6061 17.645 85.8984 17.9979C85.3481 18.2332 84.9353 18.6449 84.6601 19.233C84.3849 19.8211 84.2473 20.4485 84.2473 21.115C84.2473 21.7816 84.3849 22.409 84.6601 22.9971C84.9353 23.546 85.3481 23.9381 85.8984 24.1734ZM85.8984 37.9358C86.6454 38.2495 87.5299 38.4064 88.5521 38.4064C89.8101 38.4064 90.8912 38.1515 91.7954 37.6418C92.7389 37.0928 93.2106 36.2891 93.2106 35.2304C93.2106 34.211 92.7389 33.4268 91.7954 32.8778C90.8519 32.3289 89.7511 32.0544 88.4931 32.0544C87.5103 32.0544 86.6454 32.2113 85.8984 32.525C85.3481 32.7602 84.9353 33.1327 84.6601 33.6424C84.3849 34.1129 84.2473 34.6423 84.2473 35.2304C84.2473 35.8185 84.3849 36.3675 84.6601 36.8772C84.9353 37.3477 85.3481 37.7006 85.8984 37.9358Z" fill="white"/>
<path d="M89.9673 46.111C83.4414 46.0718 78.5469 44.4642 75.284 41.2882C72.0603 38.1123 70.4485 32.9563 70.4485 25.8202C70.4485 19.3506 72.021 14.273 75.166 10.5873C78.3111 6.86246 82.7534 5.00002 88.4931 5.00002C92.0312 5.00002 95.1173 5.52934 97.7513 6.58799C100.385 7.64665 102.41 9.1562 103.825 11.1167C105.24 13.0771 105.948 15.3905 105.948 18.0567C105.948 20.174 105.476 22.0561 104.533 23.7029C103.629 25.3497 102.272 26.82 100.464 28.1139C101.918 28.3492 103.176 29.1334 104.238 30.4665C105.339 31.7996 105.889 33.3484 105.889 35.1128C105.889 36.9948 105.378 38.7788 104.356 40.4648C103.373 42.1116 101.683 43.4644 99.2845 44.523C96.9257 45.5817 93.82 46.111 89.9673 46.111ZM85.8984 24.1734C86.6061 24.5263 87.4906 24.7027 88.5521 24.7027C89.8101 24.7027 90.8912 24.4086 91.7954 23.8205C92.7389 23.1931 93.2106 22.2717 93.2106 21.0562C93.2106 19.88 92.7389 18.9977 91.7954 18.4096C90.8912 17.7823 89.7904 17.4686 88.4931 17.4686C87.471 17.4686 86.6061 17.645 85.8984 17.9979C85.3481 18.2332 84.9353 18.6449 84.6601 19.233C84.3849 19.8211 84.2473 20.4485 84.2473 21.115C84.2473 21.7816 84.3849 22.409 84.6601 22.9971C84.9353 23.546 85.3481 23.9381 85.8984 24.1734ZM85.8984 37.9358C86.6454 38.2495 87.5299 38.4064 88.5521 38.4064C89.8101 38.4064 90.8912 38.1515 91.7954 37.6418C92.7389 37.0928 93.2106 36.2891 93.2106 35.2304C93.2106 34.211 92.7389 33.4268 91.7954 32.8778C90.8519 32.3289 89.7511 32.0544 88.4931 32.0544C87.5103 32.0544 86.6454 32.2113 85.8984 32.525C85.3481 32.7602 84.9353 33.1327 84.6601 33.6424C84.3849 34.1129 84.2473 34.6423 84.2473 35.2304C84.2473 35.8185 84.3849 36.3675 84.6601 36.8772C84.9353 37.3477 85.3481 37.7006 85.8984 37.9358Z" fill="white"/>
<path d="M89.9673 46.111C83.4414 46.0718 78.5469 44.4642 75.284 41.2882C72.0603 38.1123 70.4485 32.9563 70.4485 25.8202C70.4485 19.3506 72.021 14.273 75.166 10.5873C78.3111 6.86246 82.7534 5.00002 88.4931 5.00002C92.0312 5.00002 95.1173 5.52934 97.7513 6.58799C100.385 7.64665 102.41 9.1562 103.825 11.1167C105.24 13.0771 105.948 15.3905 105.948 18.0567C105.948 20.174 105.476 22.0561 104.533 23.7029C103.629 25.3497 102.272 26.82 100.464 28.1139C101.918 28.3492 103.176 29.1334 104.238 30.4665C105.339 31.7996 105.889 33.3484 105.889 35.1128C105.889 36.9948 105.378 38.7788 104.356 40.4648C103.373 42.1116 101.683 43.4644 99.2845 44.523C96.9257 45.5817 93.82 46.111 89.9673 46.111ZM85.8984 24.1734C86.6061 24.5263 87.4906 24.7027 88.5521 24.7027C89.8101 24.7027 90.8912 24.4086 91.7954 23.8205C92.7389 23.1931 93.2106 22.2717 93.2106 21.0562C93.2106 19.88 92.7389 18.9977 91.7954 18.4096C90.8912 17.7823 89.7904 17.4686 88.4931 17.4686C87.471 17.4686 86.6061 17.645 85.8984 17.9979C85.3481 18.2332 84.9353 18.6449 84.6601 19.233C84.3849 19.8211 84.2473 20.4485 84.2473 21.115C84.2473 21.7816 84.3849 22.409 84.6601 22.9971C84.9353 23.546 85.3481 23.9381 85.8984 24.1734ZM85.8984 37.9358C86.6454 38.2495 87.5299 38.4064 88.5521 38.4064C89.8101 38.4064 90.8912 38.1515 91.7954 37.6418C92.7389 37.0928 93.2106 36.2891 93.2106 35.2304C93.2106 34.211 92.7389 33.4268 91.7954 32.8778C90.8519 32.3289 89.7511 32.0544 88.4931 32.0544C87.5103 32.0544 86.6454 32.2113 85.8984 32.525C85.3481 32.7602 84.9353 33.1327 84.6601 33.6424C84.3849 34.1129 84.2473 34.6423 84.2473 35.2304C84.2473 35.8185 84.3849 36.3675 84.6601 36.8772C84.9353 37.3477 85.3481 37.7006 85.8984 37.9358Z" fill="white"/>
<path d="M89.9673 46.111C83.4414 46.0718 78.5469 44.4642 75.284 41.2882C72.0603 38.1123 70.4485 32.9563 70.4485 25.8202C70.4485 19.3506 72.021 14.273 75.166 10.5873C78.3111 6.86246 82.7534 5.00002 88.4931 5.00002C92.0312 5.00002 95.1173 5.52934 97.7513 6.58799C100.385 7.64665 102.41 9.1562 103.825 11.1167C105.24 13.0771 105.948 15.3905 105.948 18.0567C105.948 20.174 105.476 22.0561 104.533 23.7029C103.629 25.3497 102.272 26.82 100.464 28.1139C101.918 28.3492 103.176 29.1334 104.238 30.4665C105.339 31.7996 105.889 33.3484 105.889 35.1128C105.889 36.9948 105.378 38.7788 104.356 40.4648C103.373 42.1116 101.683 43.4644 99.2845 44.523C96.9257 45.5817 93.82 46.111 89.9673 46.111ZM85.8984 24.1734C86.6061 24.5263 87.4906 24.7027 88.5521 24.7027C89.8101 24.7027 90.8912 24.4086 91.7954 23.8205C92.7389 23.1931 93.2106 22.2717 93.2106 21.0562C93.2106 19.88 92.7389 18.9977 91.7954 18.4096C90.8912 17.7823 89.7904 17.4686 88.4931 17.4686C87.471 17.4686 86.6061 17.645 85.8984 17.9979C85.3481 18.2332 84.9353 18.6449 84.6601 19.233C84.3849 19.8211 84.2473 20.4485 84.2473 21.115C84.2473 21.7816 84.3849 22.409 84.6601 22.9971C84.9353 23.546 85.3481 23.9381 85.8984 24.1734ZM85.8984 37.9358C86.6454 38.2495 87.5299 38.4064 88.5521 38.4064C89.8101 38.4064 90.8912 38.1515 91.7954 37.6418C92.7389 37.0928 93.2106 36.2891 93.2106 35.2304C93.2106 34.211 92.7389 33.4268 91.7954 32.8778C90.8519 32.3289 89.7511 32.0544 88.4931 32.0544C87.5103 32.0544 86.6454 32.2113 85.8984 32.525C85.3481 32.7602 84.9353 33.1327 84.6601 33.6424C84.3849 34.1129 84.2473 34.6423 84.2473 35.2304C84.2473 35.8185 84.3849 36.3675 84.6601 36.8772C84.9353 37.3477 85.3481 37.7006 85.8984 37.9358Z" fill="white"/>
<path d="M70.8972 61.1698H67.4492V55.1698H70.5612C71.1372 55.1698 71.5479 55.2818 71.7932 55.5058C72.0386 55.7298 72.1612 56.0551 72.1612 56.4818C72.1612 56.9138 72.0839 57.2471 71.9292 57.4818C71.7746 57.7111 71.5639 57.8631 71.2972 57.9378V57.9938C72.0706 58.1271 72.4572 58.6551 72.4572 59.5778C72.4572 60.0578 72.3292 60.4445 72.0732 60.7378C71.8226 61.0258 71.4306 61.1698 70.8972 61.1698ZM70.1212 58.7778H69.3692V59.7618H70.1052C70.3772 59.7618 70.5132 59.5965 70.5132 59.2658C70.5132 58.9405 70.3826 58.7778 70.1212 58.7778ZM69.9772 56.4818H69.3692V57.3778H69.9612C70.2066 57.3778 70.3292 57.2285 70.3292 56.9298C70.3292 56.6311 70.2119 56.4818 69.9772 56.4818ZM73.1289 61.1698V56.3698H74.0889L74.6169 56.9058C75.0009 56.5538 75.4756 56.3271 76.0409 56.2258L76.1529 58.0418C76.0783 58.0418 75.9876 58.0525 75.8809 58.0738C75.7743 58.0951 75.6649 58.1218 75.5529 58.1538C75.4463 58.1858 75.3476 58.2258 75.2569 58.2738C75.1663 58.3165 75.0969 58.3671 75.0489 58.4258V61.1698H73.1289ZM79.0025 56.2258C80.5385 56.2258 81.3065 56.7538 81.3065 57.8098V61.1698H80.3465L79.8025 60.6258C79.7065 60.7325 79.5918 60.8285 79.4585 60.9138C79.3305 60.9991 79.1918 61.0711 79.0425 61.1298C78.8932 61.1885 78.7412 61.2338 78.5865 61.2658C78.4318 61.2978 78.2825 61.3138 78.1385 61.3138C77.8665 61.3138 77.6212 61.2845 77.4025 61.2258C77.1892 61.1725 77.0078 61.0845 76.8585 60.9618C76.7092 60.8391 76.5945 60.6765 76.5145 60.4738C76.4345 60.2711 76.3945 60.0231 76.3945 59.7298C76.3945 58.5778 77.2638 58.0018 79.0025 58.0018H79.3865V57.6578C79.2852 57.6525 79.1918 57.6471 79.1065 57.6418C79.0265 57.6365 78.9518 57.6338 78.8825 57.6338C78.1625 57.6338 77.5412 57.7218 77.0185 57.8978L76.7865 56.5218C77.4265 56.3245 78.1652 56.2258 79.0025 56.2258ZM78.3305 59.5218V59.9138H78.7305C79.0078 59.9138 79.1892 59.8818 79.2745 59.8178C79.3492 59.7485 79.3865 59.6658 79.3865 59.5698V59.1138H78.9945C78.7652 59.1138 78.5972 59.1378 78.4905 59.1858C78.3838 59.2338 78.3305 59.3458 78.3305 59.5218ZM81.928 61.1698V60.2098L83.808 57.8658L83.784 57.8098H82.264L82.12 56.3698H86.48V57.3298L84.624 59.6738L84.656 59.7298H86.536V61.1698H81.928ZM89.1739 61.1698H87.2539V56.6098L89.1739 56.3698V61.1698ZM87.1499 55.4658C87.1499 55.3218 87.1659 55.2018 87.1979 55.1058C87.2299 55.0045 87.2859 54.9245 87.3659 54.8658C87.4459 54.8018 87.5553 54.7565 87.6939 54.7298C87.8326 54.7031 88.0086 54.6898 88.2219 54.6898C88.4353 54.6898 88.6086 54.7031 88.7419 54.7298C88.8806 54.7565 88.9899 54.8018 89.0699 54.8658C89.1499 54.9245 89.2059 55.0045 89.2379 55.1058C89.2699 55.2018 89.2859 55.3218 89.2859 55.4658C89.2859 55.6098 89.2699 55.7298 89.2379 55.8258C89.2059 55.9218 89.1499 56.0018 89.0699 56.0658C88.9899 56.1245 88.8806 56.1671 88.7419 56.1938C88.6086 56.2151 88.4353 56.2258 88.2219 56.2258C88.0673 56.2258 87.9233 56.2205 87.7899 56.2098C87.6619 56.1991 87.5499 56.1698 87.4539 56.1218C87.3579 56.0685 87.2833 55.9911 87.2299 55.8898C87.1766 55.7885 87.1499 55.6471 87.1499 55.4658ZM90.1367 54.9298L92.0567 54.7858V59.7938C92.1581 59.8151 92.2487 59.8311 92.3287 59.8418C92.4087 59.8525 92.4754 59.8605 92.5287 59.8658L92.4407 61.2738C91.6247 61.2738 91.0834 61.2258 90.8167 61.1298C90.5927 61.0498 90.4221 60.9458 90.3047 60.8178C90.1927 60.6898 90.1367 60.5058 90.1367 60.2658V54.9298ZM95.0255 61.1698H93.1055V56.6098L95.0255 56.3698V61.1698ZM93.0015 55.4658C93.0015 55.3218 93.0175 55.2018 93.0495 55.1058C93.0815 55.0045 93.1375 54.9245 93.2175 54.8658C93.2975 54.8018 93.4068 54.7565 93.5455 54.7298C93.6842 54.7031 93.8602 54.6898 94.0735 54.6898C94.2868 54.6898 94.4602 54.7031 94.5935 54.7298C94.7322 54.7565 94.8415 54.8018 94.9215 54.8658C95.0015 54.9245 95.0575 55.0045 95.0895 55.1058C95.1215 55.2018 95.1375 55.3218 95.1375 55.4658C95.1375 55.6098 95.1215 55.7298 95.0895 55.8258C95.0575 55.9218 95.0015 56.0018 94.9215 56.0658C94.8415 56.1245 94.7322 56.1671 94.5935 56.1938C94.4602 56.2151 94.2868 56.2258 94.0735 56.2258C93.9188 56.2258 93.7748 56.2205 93.6415 56.2098C93.5135 56.1991 93.4015 56.1698 93.3055 56.1218C93.2095 56.0685 93.1348 55.9911 93.0815 55.8898C93.0282 55.7885 93.0015 55.6471 93.0015 55.4658ZM98.2603 56.2258C99.7963 56.2258 100.564 56.7538 100.564 57.8098V61.1698H99.6043L99.0603 60.6258C98.9643 60.7325 98.8496 60.8285 98.7163 60.9138C98.5883 60.9991 98.4496 61.0711 98.3003 61.1298C98.151 61.1885 97.999 61.2338 97.8443 61.2658C97.6896 61.2978 97.5403 61.3138 97.3963 61.3138C97.1243 61.3138 96.879 61.2845 96.6603 61.2258C96.447 61.1725 96.2656 61.0845 96.1163 60.9618C95.967 60.8391 95.8523 60.6765 95.7723 60.4738C95.6923 60.2711 95.6523 60.0231 95.6523 59.7298C95.6523 58.5778 96.5216 58.0018 98.2603 58.0018H98.6443V57.6578C98.543 57.6525 98.4496 57.6471 98.3643 57.6418C98.2843 57.6365 98.2096 57.6338 98.1403 57.6338C97.4203 57.6338 96.799 57.7218 96.2763 57.8978L96.0443 56.5218C96.6843 56.3245 97.423 56.2258 98.2603 56.2258ZM97.5883 59.5218V59.9138H97.9883C98.2656 59.9138 98.447 59.8818 98.5323 59.8178C98.607 59.7485 98.6443 59.6658 98.6443 59.5698V59.1138H98.2523C98.023 59.1138 97.855 59.1378 97.7483 59.1858C97.6416 59.2338 97.5883 59.3458 97.5883 59.5218ZM104.114 61.1698V57.8098H103.978C103.892 57.8098 103.81 57.8125 103.73 57.8178C103.655 57.8231 103.588 57.8418 103.53 57.8738C103.471 57.9005 103.426 57.9431 103.394 58.0018C103.362 58.0605 103.346 58.1431 103.346 58.2498V61.1698H101.426V56.3698H102.386L102.818 56.8098C103.207 56.4205 103.719 56.2258 104.354 56.2258C104.983 56.2258 105.442 56.3565 105.73 56.6178C106.13 56.3565 106.583 56.2258 107.09 56.2258C107.607 56.2258 108.007 56.3245 108.29 56.5218C108.578 56.7138 108.722 56.9831 108.722 57.3298V61.1698H106.802V57.8098H106.666C106.591 57.8098 106.516 57.8125 106.442 57.8178C106.367 57.8231 106.3 57.8391 106.242 57.8658C106.188 57.8871 106.14 57.9245 106.098 57.9778C106.06 58.0311 106.039 58.1031 106.034 58.1938V61.1698H104.114ZM115.867 57.5138V58.9058H113.947V59.6338H116.299V61.1698H112.027V55.1698H116.251L116.011 56.7058H113.947V57.5138H115.867ZM121.865 54.7858V61.1698H120.905L120.489 60.7698C120.217 61.1325 119.716 61.3138 118.985 61.3138C118.601 61.3138 118.279 61.2445 118.017 61.1058C117.756 60.9671 117.543 60.7831 117.377 60.5538C117.217 60.3191 117.1 60.0471 117.025 59.7378C116.956 59.4285 116.921 59.1058 116.921 58.7698C116.921 58.4498 116.953 58.1458 117.017 57.8578C117.081 57.5645 117.188 57.3085 117.337 57.0898C117.487 56.8711 117.684 56.6978 117.929 56.5698C118.175 56.4365 118.479 56.3698 118.841 56.3698H119.945V54.9298L121.865 54.7858ZM118.985 58.0338V59.9138H119.281C119.5 59.9138 119.66 59.8951 119.761 59.8578C119.868 59.8151 119.929 59.7191 119.945 59.5698V57.6258H119.649C119.415 57.6258 119.244 57.6498 119.137 57.6978C119.036 57.7458 118.985 57.8578 118.985 58.0338ZM124.744 61.1698H122.824V56.6098L124.744 56.3698V61.1698ZM122.72 55.4658C122.72 55.3218 122.736 55.2018 122.768 55.1058C122.8 55.0045 122.856 54.9245 122.936 54.8658C123.016 54.8018 123.126 54.7565 123.264 54.7298C123.403 54.7031 123.579 54.6898 123.792 54.6898C124.006 54.6898 124.179 54.7031 124.312 54.7298C124.451 54.7565 124.56 54.8018 124.64 54.8658C124.72 54.9245 124.776 55.0045 124.808 55.1058C124.84 55.2018 124.856 55.3218 124.856 55.4658C124.856 55.6098 124.84 55.7298 124.808 55.8258C124.776 55.9218 124.72 56.0018 124.64 56.0658C124.56 56.1245 124.451 56.1671 124.312 56.1938C124.179 56.2151 124.006 56.2258 123.792 56.2258C123.638 56.2258 123.494 56.2205 123.36 56.2098C123.232 56.1991 123.12 56.1698 123.024 56.1218C122.928 56.0685 122.854 55.9911 122.8 55.8898C122.747 55.7885 122.72 55.6471 122.72 55.4658ZM125.707 60.9298V54.9298L127.627 54.7858V56.3778C127.862 56.2765 128.182 56.2258 128.587 56.2258C128.971 56.2258 129.294 56.2951 129.555 56.4338C129.816 56.5725 130.027 56.7591 130.187 56.9938C130.352 57.2231 130.47 57.4925 130.539 57.8018C130.614 58.1111 130.651 58.4338 130.651 58.7698C130.651 59.6711 130.443 60.3218 130.027 60.7218C129.611 61.1165 128.982 61.3138 128.139 61.3138C127.296 61.3138 126.486 61.1858 125.707 60.9298ZM127.627 57.9858V59.9138H127.923C128.158 59.9138 128.326 59.8898 128.427 59.8418C128.534 59.7938 128.587 59.6818 128.587 59.5058V57.6258H128.291C128.152 57.6258 128.04 57.6311 127.955 57.6418C127.87 57.6525 127.795 57.6871 127.731 57.7458C127.667 57.7991 127.632 57.8791 127.627 57.9858ZM131.418 54.9298L133.338 54.7858V59.7938C133.439 59.8151 133.53 59.8311 133.61 59.8418C133.69 59.8525 133.757 59.8605 133.81 59.8658L133.722 61.2738C132.906 61.2738 132.365 61.2258 132.098 61.1298C131.874 61.0498 131.703 60.9458 131.586 60.8178C131.474 60.6898 131.418 60.5058 131.418 60.2658V54.9298ZM136.259 59.5378V59.8738C136.355 59.8845 136.451 59.8925 136.547 59.8978C136.643 59.9031 136.739 59.9058 136.835 59.9058C137.432 59.9058 138.035 59.8098 138.643 59.6178L138.867 61.0258C138.147 61.2178 137.437 61.3138 136.739 61.3138C135.843 61.3138 135.195 61.1058 134.795 60.6898C134.395 60.2685 134.195 59.6285 134.195 58.7698C134.195 57.9111 134.395 57.2738 134.795 56.8578C135.2 56.4365 135.848 56.2258 136.739 56.2258C137.187 56.2258 137.56 56.2551 137.859 56.3138C138.157 56.3671 138.397 56.4605 138.579 56.5938C138.765 56.7218 138.896 56.8978 138.971 57.1218C139.051 57.3405 139.091 57.6178 139.091 57.9538C139.091 58.2311 139.043 58.4711 138.947 58.6738C138.856 58.8711 138.701 59.0338 138.483 59.1618C138.264 59.2898 137.973 59.3858 137.611 59.4498C137.248 59.5085 136.797 59.5378 136.259 59.5378ZM136.259 58.0338V58.4258H136.651C136.885 58.4258 137.053 58.4018 137.155 58.3538C137.261 58.3058 137.315 58.1938 137.315 58.0178V57.6258H136.923C136.688 57.6258 136.517 57.6498 136.411 57.6978C136.309 57.7458 136.259 57.8578 136.259 58.0338ZM144.895 61.1698V57.8098H144.759C144.674 57.8098 144.591 57.8125 144.511 57.8178C144.436 57.8231 144.37 57.8418 144.311 57.8738C144.252 57.9005 144.207 57.9431 144.175 58.0018C144.143 58.0605 144.127 58.1431 144.127 58.2498V61.1698H142.207V56.3698H143.167L143.599 56.8098C143.988 56.4205 144.5 56.2258 145.135 56.2258C145.764 56.2258 146.223 56.3565 146.511 56.6178C146.911 56.3565 147.364 56.2258 147.871 56.2258C148.388 56.2258 148.788 56.3245 149.071 56.5218C149.359 56.7138 149.503 56.9831 149.503 57.3298V61.1698H147.583V57.8098H147.447C147.372 57.8098 147.298 57.8125 147.223 57.8178C147.148 57.8231 147.082 57.8391 147.023 57.8658C146.97 57.8871 146.922 57.9245 146.879 57.9778C146.842 58.0311 146.82 58.1031 146.815 58.1938V61.1698H144.895ZM150.314 56.3698H152.234V59.9138H152.53C152.765 59.9138 152.933 59.8898 153.034 59.8418C153.141 59.7938 153.194 59.6818 153.194 59.5058V56.3698H155.114V61.1698H154.154L153.594 60.6258C153.21 61.0845 152.664 61.3138 151.954 61.3138C151.384 61.3138 150.968 61.1938 150.706 60.9538C150.445 60.7085 150.314 60.3005 150.314 59.7298V56.3698ZM156.538 56.5618C156.949 56.3378 157.512 56.2258 158.226 56.2258C158.946 56.2258 159.605 56.3245 160.202 56.5218L159.978 57.8258C159.728 57.7511 159.48 57.6978 159.234 57.6658C158.989 57.6338 158.738 57.6178 158.482 57.6178C158.408 57.6178 158.314 57.6205 158.202 57.6258C158.096 57.6311 157.973 57.6418 157.834 57.6578V57.9618C158.128 57.9618 158.429 57.9778 158.738 58.0098C159.048 58.0365 159.328 58.1058 159.578 58.2178C159.834 58.3245 160.042 58.4871 160.202 58.7058C160.368 58.9191 160.45 59.2125 160.45 59.5858C160.45 59.8471 160.421 60.0818 160.362 60.2898C160.304 60.4925 160.213 60.6551 160.09 60.7778C159.962 60.9005 159.829 60.9991 159.69 61.0738C159.557 61.1485 159.381 61.2018 159.162 61.2338C158.992 61.2605 158.808 61.2791 158.61 61.2898C158.418 61.3058 158.21 61.3138 157.986 61.3138C157.202 61.3138 156.485 61.2205 155.834 61.0338L156.074 59.6738C156.346 59.7538 156.626 59.8151 156.914 59.8578C157.202 59.9005 157.504 59.9218 157.818 59.9218C157.962 59.9218 158.098 59.9191 158.226 59.9138C158.36 59.9085 158.488 59.8978 158.61 59.8818V59.5778C158.098 59.5778 157.669 59.5458 157.322 59.4818C156.981 59.4125 156.704 59.3085 156.49 59.1698C156.282 59.0311 156.133 58.8498 156.042 58.6258C155.957 58.4018 155.914 58.1351 155.914 57.8258C155.914 57.2071 156.122 56.7858 156.538 56.5618ZM163.041 58.2098V61.1698H161.121V54.9298L163.041 54.7858V56.5458C163.452 56.3325 163.905 56.2258 164.401 56.2258C164.902 56.2258 165.281 56.3245 165.537 56.5218C165.793 56.7138 165.921 56.9831 165.921 57.3298V61.1698H164.001V57.8098H163.705C163.47 57.8098 163.3 57.8338 163.193 57.8818C163.092 57.9298 163.041 58.0391 163.041 58.2098ZM166.832 61.1698V56.3698H167.792L168.32 56.9058C168.704 56.5538 169.179 56.3271 169.744 56.2258L169.856 58.0418C169.781 58.0418 169.691 58.0525 169.584 58.0738C169.477 58.0951 169.368 58.1218 169.256 58.1538C169.149 58.1858 169.051 58.2258 168.96 58.2738C168.869 58.3165 168.8 58.3671 168.752 58.4258V61.1698H166.832ZM170.242 58.7698C170.242 57.9111 170.442 57.2738 170.842 56.8578C171.242 56.4365 171.89 56.2258 172.786 56.2258C173.682 56.2258 174.33 56.4365 174.73 56.8578C175.13 57.2738 175.33 57.9111 175.33 58.7698C175.33 59.6285 175.13 60.2685 174.73 60.6898C174.33 61.1058 173.682 61.3138 172.786 61.3138C171.911 61.3138 171.268 61.1085 170.858 60.6978C170.447 60.2871 170.242 59.6445 170.242 58.7698ZM172.306 58.0338V59.9138H172.602C172.836 59.9138 173.004 59.8898 173.106 59.8418C173.212 59.7938 173.266 59.6818 173.266 59.5058V57.6258H172.97C172.735 57.6258 172.564 57.6498 172.458 57.6978C172.356 57.7458 172.306 57.8578 172.306 58.0338ZM175.906 58.7698C175.906 57.9111 176.106 57.2738 176.506 56.8578C176.906 56.4365 177.554 56.2258 178.45 56.2258C179.346 56.2258 179.994 56.4365 180.394 56.8578C180.794 57.2738 180.994 57.9111 180.994 58.7698C180.994 59.6285 180.794 60.2685 180.394 60.6898C179.994 61.1058 179.346 61.3138 178.45 61.3138C177.575 61.3138 176.932 61.1085 176.522 60.6978C176.111 60.2871 175.906 59.6445 175.906 58.7698ZM177.97 58.0338V59.9138H178.266C178.5 59.9138 178.668 59.8898 178.77 59.8418C178.876 59.7938 178.93 59.6818 178.93 59.5058V57.6258H178.634C178.399 57.6258 178.228 57.6498 178.122 57.6978C178.02 57.7458 177.97 57.8578 177.97 58.0338ZM184.45 61.1698V57.8098H184.314C184.228 57.8098 184.146 57.8125 184.066 57.8178C183.991 57.8231 183.924 57.8418 183.866 57.8738C183.807 57.9005 183.762 57.9431 183.73 58.0018C183.698 58.0605 183.682 58.1431 183.682 58.2498V61.1698H181.762V56.3698H182.722L183.154 56.8098C183.543 56.4205 184.055 56.2258 184.69 56.2258C185.319 56.2258 185.778 56.3565 186.066 56.6178C186.466 56.3565 186.919 56.2258 187.426 56.2258C187.943 56.2258 188.343 56.3245 188.626 56.5218C188.914 56.7138 189.058 56.9831 189.058 57.3298V61.1698H187.138V57.8098H187.002C186.927 57.8098 186.852 57.8125 186.778 57.8178C186.703 57.8231 186.636 57.8391 186.578 57.8658C186.524 57.8871 186.476 57.9245 186.434 57.9778C186.396 58.0311 186.375 58.1031 186.37 58.1938V61.1698H184.45ZM190.429 56.5618C190.84 56.3378 191.402 56.2258 192.117 56.2258C192.837 56.2258 193.496 56.3245 194.093 56.5218L193.869 57.8258C193.618 57.7511 193.37 57.6978 193.125 57.6658C192.88 57.6338 192.629 57.6178 192.373 57.6178C192.298 57.6178 192.205 57.6205 192.093 57.6258C191.986 57.6311 191.864 57.6418 191.725 57.6578V57.9618C192.018 57.9618 192.32 57.9778 192.629 58.0098C192.938 58.0365 193.218 58.1058 193.469 58.2178C193.725 58.3245 193.933 58.4871 194.093 58.7058C194.258 58.9191 194.341 59.2125 194.341 59.5858C194.341 59.8471 194.312 60.0818 194.253 60.2898C194.194 60.4925 194.104 60.6551 193.981 60.7778C193.853 60.9005 193.72 60.9991 193.581 61.0738C193.448 61.1485 193.272 61.2018 193.053 61.2338C192.882 61.2605 192.698 61.2791 192.501 61.2898C192.309 61.3058 192.101 61.3138 191.877 61.3138C191.093 61.3138 190.376 61.2205 189.725 61.0338L189.965 59.6738C190.237 59.7538 190.517 59.8151 190.805 59.8578C191.093 59.9005 191.394 59.9218 191.709 59.9218C191.853 59.9218 191.989 59.9191 192.117 59.9138C192.25 59.9085 192.378 59.8978 192.501 59.8818V59.5778C191.989 59.5778 191.56 59.5458 191.213 59.4818C190.872 59.4125 190.594 59.3085 190.381 59.1698C190.173 59.0311 190.024 58.8498 189.933 58.6258C189.848 58.4018 189.805 58.1351 189.805 57.8258C189.805 57.2071 190.013 56.7858 190.429 56.5618Z" fill="white"/>
</svg>
