<svg width="34" height="34" viewBox="0 0 34 34" fill="none" xmlns="http://www.w3.org/2000/svg">
<path d="M17 0.333328C19.1887 0.333328 21.356 0.764424 23.3781 1.602C25.4002 2.43958 27.2375 3.66724 28.7852 5.21488C30.3328 6.76252 31.5605 8.59984 32.398 10.6219C33.2356 12.644 33.6667 14.8113 33.6667 17C33.6667 17.884 33.3155 18.7319 32.6904 19.357C32.0653 19.9821 31.2174 20.3333 30.3334 20.3333H3.66671C2.78265 20.3333 1.93481 19.9821 1.30968 19.357C0.684563 18.7319 0.333374 17.884 0.333374 17C0.333374 12.5797 2.08932 8.34049 5.21493 5.21488C8.34053 2.08928 12.5798 0.333328 17 0.333328ZM17 10.3333C17.8841 10.3333 18.7319 9.98214 19.3571 9.35702C19.9822 8.7319 20.3334 7.88405 20.3334 6.99999C20.3334 6.11594 19.9822 5.26809 19.3571 4.64297C18.7319 4.01785 17.8841 3.66666 17 3.66666C16.116 3.66666 15.2681 4.01785 14.643 4.64297C14.0179 5.26809 13.6667 6.11594 13.6667 6.99999C13.6667 7.88405 14.0179 8.7319 14.643 9.35702C15.2681 9.98214 16.116 10.3333 17 10.3333ZM25.3334 17C26.2174 17 27.0653 16.6488 27.6904 16.0237C28.3155 15.3986 28.6667 14.5507 28.6667 13.6667C28.6667 12.7826 28.3155 11.9348 27.6904 11.3096C27.0653 10.6845 26.2174 10.3333 25.3334 10.3333C24.4493 10.3333 23.6015 10.6845 22.9764 11.3096C22.3512 11.9348 22 12.7826 22 13.6667C22 14.5507 22.3512 15.3986 22.9764 16.0237C23.6015 16.6488 24.4493 17 25.3334 17ZM8.66671 17C9.55076 17 10.3986 16.6488 11.0237 16.0237C11.6489 15.3986 12 14.5507 12 13.6667C12 12.7826 11.6489 11.9348 11.0237 11.3096C10.3986 10.6845 9.55076 10.3333 8.66671 10.3333C7.78265 10.3333 6.93481 10.6845 6.30968 11.3096C5.68456 11.9348 5.33337 12.7826 5.33337 13.6667C5.33337 14.5507 5.68456 15.3986 6.30968 16.0237C6.93481 16.6488 7.78265 17 8.66671 17ZM22 22L24.1167 29.4167L24.25 30.3333C24.25 32.1667 22.75 33.6667 20.9167 33.6667H13.0834C12.1993 33.6667 11.3515 33.3155 10.7264 32.6903C10.1012 32.0652 9.75004 31.2174 9.75004 30.3333L9.88337 29.4167L12 22H22Z" fill="white"/>
</svg>
