<svg width="228" height="67" viewBox="0 0 228 67" fill="none" xmlns="http://www.w3.org/2000/svg">
<path d="M26.9774 39.7148C26.9774 39.7148 27.2563 43.452 27.1447 45.3485C27.0332 47.2449 26.8101 48.8625 26.8101 48.8625L28.595 63.2534L28.7065 64.7595C28.7065 64.7595 31.8302 66.6002 38.3563 66.6002C48.1176 66.6002 52.4683 65.0384 53.9186 61.9148C55.0899 59.4047 53.0261 53.7153 52.6356 51.763C51.2412 45.2927 52.0779 40.6073 52.0779 40.6073L26.9774 39.7148Z" fill="#C4A878"/>
<path d="M26.9774 39.7148C26.9774 39.7148 27.2563 43.452 27.1447 45.3485C27.0332 47.2449 26.8101 48.8625 26.8101 48.8625L28.595 63.2534L28.7065 64.7595C28.7065 64.7595 31.8302 66.6002 38.3563 66.6002C48.1176 66.6002 52.4683 65.0384 53.9186 61.9148C55.0899 59.4047 53.0261 53.7153 52.6356 51.763C51.2412 45.2927 52.0779 40.6073 52.0779 40.6073L26.9774 39.7148Z" fill="#C4A878"/>
<path d="M26.9774 39.7148C26.9774 39.7148 27.2563 43.452 27.1447 45.3485C27.0332 47.2449 26.8101 48.8625 26.8101 48.8625L28.595 63.2534L28.7065 64.7595C28.7065 64.7595 31.8302 66.6002 38.3563 66.6002C48.1176 66.6002 52.4683 65.0384 53.9186 61.9148C55.0899 59.4047 53.0261 53.7153 52.6356 51.763C51.2412 45.2927 52.0779 40.6073 52.0779 40.6073L26.9774 39.7148Z" fill="#C4A878"/>
<path d="M26.9774 39.7148C26.9774 39.7148 27.2563 43.452 27.1447 45.3485C27.0332 47.2449 26.8101 48.8625 26.8101 48.8625L28.595 63.2534L28.7065 64.7595C28.7065 64.7595 31.8302 66.6002 38.3563 66.6002C48.1176 66.6002 52.4683 65.0384 53.9186 61.9148C55.0899 59.4047 53.0261 53.7153 52.6356 51.763C51.2412 45.2927 52.0779 40.6073 52.0779 40.6073L26.9774 39.7148Z" fill="#C4A878"/>
<path d="M24.1883 60.7434C24.8577 63.8112 29.0411 64.9825 29.0411 64.9825C29.0411 64.9825 35.0652 65.3172 38.9139 64.8152C42.8185 64.2574 46.0536 63.365 46.3883 61.078C46.723 58.7911 46.6114 57.2293 46.4998 54.8308C46.4441 53.771 46.3325 50.8147 46.3325 50.8147C46.3325 50.8147 41.8702 51.0378 35.9019 50.5916C30.0451 50.1454 26.8657 48.7509 26.8657 48.7509C26.8657 48.7509 26.029 52.5997 25.4155 54.1615C24.8019 55.6117 23.519 57.6755 24.1883 60.7434Z" fill="#E8D4AF"/>
<path d="M24.1883 60.7434C24.8577 63.8112 29.0411 64.9825 29.0411 64.9825C29.0411 64.9825 35.0652 65.3172 38.9139 64.8152C42.8185 64.2574 46.0536 63.365 46.3883 61.078C46.723 58.7911 46.6114 57.2293 46.4998 54.8308C46.4441 53.771 46.3325 50.8147 46.3325 50.8147C46.3325 50.8147 41.8702 51.0378 35.9019 50.5916C30.0451 50.1454 26.8657 48.7509 26.8657 48.7509C26.8657 48.7509 26.029 52.5997 25.4155 54.1615C24.8019 55.6117 23.519 57.6755 24.1883 60.7434Z" fill="#E8D4AF"/>
<path d="M24.1883 60.7434C24.8577 63.8112 29.0411 64.9825 29.0411 64.9825C29.0411 64.9825 35.0652 65.3172 38.9139 64.8152C42.8185 64.2574 46.0536 63.365 46.3883 61.078C46.723 58.7911 46.6114 57.2293 46.4998 54.8308C46.4441 53.771 46.3325 50.8147 46.3325 50.8147C46.3325 50.8147 41.8702 51.0378 35.9019 50.5916C30.0451 50.1454 26.8657 48.7509 26.8657 48.7509C26.8657 48.7509 26.029 52.5997 25.4155 54.1615C24.8019 55.6117 23.519 57.6755 24.1883 60.7434Z" fill="#E8D4AF"/>
<path d="M24.1883 60.7434C24.8577 63.8112 29.0411 64.9825 29.0411 64.9825C29.0411 64.9825 35.0652 65.3172 38.9139 64.8152C42.8185 64.2574 46.0536 63.365 46.3883 61.078C46.723 58.7911 46.6114 57.2293 46.4998 54.8308C46.4441 53.771 46.3325 50.8147 46.3325 50.8147C46.3325 50.8147 41.8702 51.0378 35.9019 50.5916C30.0451 50.1454 26.8657 48.7509 26.8657 48.7509C26.8657 48.7509 26.029 52.5997 25.4155 54.1615C24.8019 55.6117 23.519 57.6755 24.1883 60.7434Z" fill="#E8D4AF"/>
<path d="M39.6998 44.4668C61.5093 44.5226 71.3264 29.7412 70.9917 15.0156C70.6013 1.79604 50.4094 0.178457 40.3692 0.0111225C25.3089 -0.21199 7.34811 2.85584 7.01344 15.4061C6.56721 30.0201 17.221 44.4668 39.6998 44.4668Z" fill="#E6441F"/>
<path d="M39.6998 44.4668C61.5093 44.5226 71.3264 29.7412 70.9917 15.0156C70.6013 1.79604 50.4094 0.178457 40.3692 0.0111225C25.3089 -0.21199 7.34811 2.85584 7.01344 15.4061C6.56721 30.0201 17.221 44.4668 39.6998 44.4668Z" fill="#E6441F"/>
<path d="M39.6998 44.4668C61.5093 44.5226 71.3264 29.7412 70.9917 15.0156C70.6013 1.79604 50.4094 0.178457 40.3692 0.0111225C25.3089 -0.21199 7.34811 2.85584 7.01344 15.4061C6.56721 30.0201 17.221 44.4668 39.6998 44.4668Z" fill="#E6441F"/>
<path d="M39.6998 44.4668C61.5093 44.5226 71.3264 29.7412 70.9917 15.0156C70.6013 1.79604 50.4094 0.178457 40.3692 0.0111225C25.3089 -0.21199 7.34811 2.85584 7.01344 15.4061C6.56721 30.0201 17.221 44.4668 39.6998 44.4668Z" fill="#E6441F"/>
<path d="M61.2259 32.3114C63.7706 29.893 65.175 25.2829 63.2538 23.08C61.4419 21.046 58.0733 22.56 55.7533 24.87C53.4333 27.1799 51.1587 30.2157 52.4034 32.9111C53.9748 36.1689 58.3418 35.0596 61.2259 32.3114Z" fill="#FE8468"/>
<path d="M61.2259 32.3114C63.7706 29.893 65.175 25.2829 63.2538 23.08C61.4419 21.046 58.0733 22.56 55.7533 24.87C53.4333 27.1799 51.1587 30.2157 52.4034 32.9111C53.9748 36.1689 58.3418 35.0596 61.2259 32.3114Z" fill="#FE8468"/>
<path d="M61.2259 32.3114C63.7706 29.893 65.175 25.2829 63.2538 23.08C61.4419 21.046 58.0733 22.56 55.7533 24.87C53.4333 27.1799 51.1587 30.2157 52.4034 32.9111C53.9748 36.1689 58.3418 35.0596 61.2259 32.3114Z" fill="#FE8468"/>
<path d="M61.2259 32.3114C63.7706 29.893 65.175 25.2829 63.2538 23.08C61.4419 21.046 58.0733 22.56 55.7533 24.87C53.4333 27.1799 51.1587 30.2157 52.4034 32.9111C53.9748 36.1689 58.3418 35.0596 61.2259 32.3114Z" fill="#FE8468"/>
<path d="M61 9.5C61 12.5376 51.3741 15 39.5 15C27.6259 15 18 12.5376 18 9.5C18 6.46243 27.6259 4 39.5 4C51.3741 4 61 6.46243 61 9.5Z" fill="#FE8468"/>
<path d="M61 9.5C61 12.5376 51.3741 15 39.5 15C27.6259 15 18 12.5376 18 9.5C18 6.46243 27.6259 4 39.5 4C51.3741 4 61 6.46243 61 9.5Z" fill="#FE8468"/>
<path d="M61 9.5C61 12.5376 51.3741 15 39.5 15C27.6259 15 18 12.5376 18 9.5C18 6.46243 27.6259 4 39.5 4C51.3741 4 61 6.46243 61 9.5Z" fill="#FE8468"/>
<path d="M61 9.5C61 12.5376 51.3741 15 39.5 15C27.6259 15 18 12.5376 18 9.5C18 6.46243 27.6259 4 39.5 4C51.3741 4 61 6.46243 61 9.5Z" fill="#FE8468"/>
<path d="M195.451 55.7001C194 55.7001 192.784 55.3374 191.803 54.6121C190.864 53.8441 190.203 52.8201 189.819 51.5401C189.477 50.3454 189.264 49.0441 189.179 47.6361C189.136 46.2281 189.115 44.2441 189.115 41.6841C189.115 39.2948 189.008 37.5241 188.795 36.3721C188.624 35.2201 188.176 34.6441 187.451 34.6441C186.597 34.6441 186 35.0281 185.659 35.7961C185.317 36.5214 185.147 37.5668 185.147 38.9321C185.147 40.1694 185.317 42.1108 185.659 44.7561C185.701 45.2681 185.787 46.0788 185.915 47.1881C186.043 48.2974 186.107 49.2148 186.107 49.9401C186.107 51.9881 185.637 53.4388 184.699 54.2921C183.803 55.1454 182.48 55.5721 180.731 55.5721C178.64 55.5721 176.827 54.4414 175.291 52.1801C173.755 49.9188 172.603 47.1028 171.835 43.7321C171.067 40.3188 170.683 36.9694 170.683 33.6841C170.683 29.7588 171.237 26.1108 172.347 22.7401C173.499 19.3694 175.205 16.6601 177.467 14.6121C179.771 12.5641 182.544 11.5401 185.787 11.5401C188.517 11.5401 190.693 12.3934 192.315 14.1001C193.936 15.7641 195.024 17.7908 195.579 20.1801C196.048 17.8334 197.093 15.8068 198.715 14.1001C200.379 12.3934 202.555 11.5401 205.243 11.5401C208.443 11.5401 211.173 12.5428 213.435 14.5481C215.739 16.5108 217.488 19.2628 218.683 22.8041C219.92 26.3454 220.539 30.4414 220.539 35.0921C220.539 38.1214 220.112 41.2574 219.259 44.5001C218.405 47.7001 217.211 50.3668 215.675 52.5001C214.139 54.6334 212.389 55.7001 210.427 55.7001C208.635 55.7001 207.269 55.2521 206.331 54.3561C205.392 53.4601 204.923 51.9881 204.923 49.9401C204.923 49.0014 205.093 47.2521 205.435 44.6921C205.776 41.9614 205.947 39.9988 205.947 38.8041C205.947 36.0308 205.2 34.6441 203.707 34.6441C202.939 34.6441 202.448 35.2628 202.235 36.5001C202.064 37.7374 201.957 39.7428 201.915 42.5161C201.915 44.6068 201.872 46.3561 201.787 47.7641C201.701 49.1294 201.509 50.3881 201.211 51.5401C200.869 52.7774 200.187 53.7801 199.163 54.5481C198.181 55.3161 196.944 55.7001 195.451 55.7001Z" fill="white"/>
<path d="M195.451 55.7001C194 55.7001 192.784 55.3374 191.803 54.6121C190.864 53.8441 190.203 52.8201 189.819 51.5401C189.477 50.3454 189.264 49.0441 189.179 47.6361C189.136 46.2281 189.115 44.2441 189.115 41.6841C189.115 39.2948 189.008 37.5241 188.795 36.3721C188.624 35.2201 188.176 34.6441 187.451 34.6441C186.597 34.6441 186 35.0281 185.659 35.7961C185.317 36.5214 185.147 37.5668 185.147 38.9321C185.147 40.1694 185.317 42.1108 185.659 44.7561C185.701 45.2681 185.787 46.0788 185.915 47.1881C186.043 48.2974 186.107 49.2148 186.107 49.9401C186.107 51.9881 185.637 53.4388 184.699 54.2921C183.803 55.1454 182.48 55.5721 180.731 55.5721C178.64 55.5721 176.827 54.4414 175.291 52.1801C173.755 49.9188 172.603 47.1028 171.835 43.7321C171.067 40.3188 170.683 36.9694 170.683 33.6841C170.683 29.7588 171.237 26.1108 172.347 22.7401C173.499 19.3694 175.205 16.6601 177.467 14.6121C179.771 12.5641 182.544 11.5401 185.787 11.5401C188.517 11.5401 190.693 12.3934 192.315 14.1001C193.936 15.7641 195.024 17.7908 195.579 20.1801C196.048 17.8334 197.093 15.8068 198.715 14.1001C200.379 12.3934 202.555 11.5401 205.243 11.5401C208.443 11.5401 211.173 12.5428 213.435 14.5481C215.739 16.5108 217.488 19.2628 218.683 22.8041C219.92 26.3454 220.539 30.4414 220.539 35.0921C220.539 38.1214 220.112 41.2574 219.259 44.5001C218.405 47.7001 217.211 50.3668 215.675 52.5001C214.139 54.6334 212.389 55.7001 210.427 55.7001C208.635 55.7001 207.269 55.2521 206.331 54.3561C205.392 53.4601 204.923 51.9881 204.923 49.9401C204.923 49.0014 205.093 47.2521 205.435 44.6921C205.776 41.9614 205.947 39.9988 205.947 38.8041C205.947 36.0308 205.2 34.6441 203.707 34.6441C202.939 34.6441 202.448 35.2628 202.235 36.5001C202.064 37.7374 201.957 39.7428 201.915 42.5161C201.915 44.6068 201.872 46.3561 201.787 47.7641C201.701 49.1294 201.509 50.3881 201.211 51.5401C200.869 52.7774 200.187 53.7801 199.163 54.5481C198.181 55.3161 196.944 55.7001 195.451 55.7001Z" fill="white"/>
<path d="M195.451 55.7001C194 55.7001 192.784 55.3374 191.803 54.6121C190.864 53.8441 190.203 52.8201 189.819 51.5401C189.477 50.3454 189.264 49.0441 189.179 47.6361C189.136 46.2281 189.115 44.2441 189.115 41.6841C189.115 39.2948 189.008 37.5241 188.795 36.3721C188.624 35.2201 188.176 34.6441 187.451 34.6441C186.597 34.6441 186 35.0281 185.659 35.7961C185.317 36.5214 185.147 37.5668 185.147 38.9321C185.147 40.1694 185.317 42.1108 185.659 44.7561C185.701 45.2681 185.787 46.0788 185.915 47.1881C186.043 48.2974 186.107 49.2148 186.107 49.9401C186.107 51.9881 185.637 53.4388 184.699 54.2921C183.803 55.1454 182.48 55.5721 180.731 55.5721C178.64 55.5721 176.827 54.4414 175.291 52.1801C173.755 49.9188 172.603 47.1028 171.835 43.7321C171.067 40.3188 170.683 36.9694 170.683 33.6841C170.683 29.7588 171.237 26.1108 172.347 22.7401C173.499 19.3694 175.205 16.6601 177.467 14.6121C179.771 12.5641 182.544 11.5401 185.787 11.5401C188.517 11.5401 190.693 12.3934 192.315 14.1001C193.936 15.7641 195.024 17.7908 195.579 20.1801C196.048 17.8334 197.093 15.8068 198.715 14.1001C200.379 12.3934 202.555 11.5401 205.243 11.5401C208.443 11.5401 211.173 12.5428 213.435 14.5481C215.739 16.5108 217.488 19.2628 218.683 22.8041C219.92 26.3454 220.539 30.4414 220.539 35.0921C220.539 38.1214 220.112 41.2574 219.259 44.5001C218.405 47.7001 217.211 50.3668 215.675 52.5001C214.139 54.6334 212.389 55.7001 210.427 55.7001C208.635 55.7001 207.269 55.2521 206.331 54.3561C205.392 53.4601 204.923 51.9881 204.923 49.9401C204.923 49.0014 205.093 47.2521 205.435 44.6921C205.776 41.9614 205.947 39.9988 205.947 38.8041C205.947 36.0308 205.2 34.6441 203.707 34.6441C202.939 34.6441 202.448 35.2628 202.235 36.5001C202.064 37.7374 201.957 39.7428 201.915 42.5161C201.915 44.6068 201.872 46.3561 201.787 47.7641C201.701 49.1294 201.509 50.3881 201.211 51.5401C200.869 52.7774 200.187 53.7801 199.163 54.5481C198.181 55.3161 196.944 55.7001 195.451 55.7001Z" fill="white"/>
<path d="M195.451 55.7001C194 55.7001 192.784 55.3374 191.803 54.6121C190.864 53.8441 190.203 52.8201 189.819 51.5401C189.477 50.3454 189.264 49.0441 189.179 47.6361C189.136 46.2281 189.115 44.2441 189.115 41.6841C189.115 39.2948 189.008 37.5241 188.795 36.3721C188.624 35.2201 188.176 34.6441 187.451 34.6441C186.597 34.6441 186 35.0281 185.659 35.7961C185.317 36.5214 185.147 37.5668 185.147 38.9321C185.147 40.1694 185.317 42.1108 185.659 44.7561C185.701 45.2681 185.787 46.0788 185.915 47.1881C186.043 48.2974 186.107 49.2148 186.107 49.9401C186.107 51.9881 185.637 53.4388 184.699 54.2921C183.803 55.1454 182.48 55.5721 180.731 55.5721C178.64 55.5721 176.827 54.4414 175.291 52.1801C173.755 49.9188 172.603 47.1028 171.835 43.7321C171.067 40.3188 170.683 36.9694 170.683 33.6841C170.683 29.7588 171.237 26.1108 172.347 22.7401C173.499 19.3694 175.205 16.6601 177.467 14.6121C179.771 12.5641 182.544 11.5401 185.787 11.5401C188.517 11.5401 190.693 12.3934 192.315 14.1001C193.936 15.7641 195.024 17.7908 195.579 20.1801C196.048 17.8334 197.093 15.8068 198.715 14.1001C200.379 12.3934 202.555 11.5401 205.243 11.5401C208.443 11.5401 211.173 12.5428 213.435 14.5481C215.739 16.5108 217.488 19.2628 218.683 22.8041C219.92 26.3454 220.539 30.4414 220.539 35.0921C220.539 38.1214 220.112 41.2574 219.259 44.5001C218.405 47.7001 217.211 50.3668 215.675 52.5001C214.139 54.6334 212.389 55.7001 210.427 55.7001C208.635 55.7001 207.269 55.2521 206.331 54.3561C205.392 53.4601 204.923 51.9881 204.923 49.9401C204.923 49.0014 205.093 47.2521 205.435 44.6921C205.776 41.9614 205.947 39.9988 205.947 38.8041C205.947 36.0308 205.2 34.6441 203.707 34.6441C202.939 34.6441 202.448 35.2628 202.235 36.5001C202.064 37.7374 201.957 39.7428 201.915 42.5161C201.915 44.6068 201.872 46.3561 201.787 47.7641C201.701 49.1294 201.509 50.3881 201.211 51.5401C200.869 52.7774 200.187 53.7801 199.163 54.5481C198.181 55.3161 196.944 55.7001 195.451 55.7001Z" fill="white"/>
<path d="M163.246 45.4601C165.294 46.1001 166.318 47.4441 166.318 49.4921C166.318 51.4121 165.337 52.9268 163.374 54.0361C161.411 55.1454 158.019 55.7001 153.198 55.7001C147.182 55.7001 142.019 54.2494 137.71 51.3481C133.443 48.4468 131.31 42.6868 131.31 34.0681C131.31 29.7161 132.057 25.7908 133.55 22.2921C135.043 18.7934 137.262 16.0201 140.206 13.9721C143.193 11.9241 146.841 10.9001 151.15 10.9001C156.91 10.9001 160.963 11.7961 163.31 13.5881C165.657 15.3374 166.83 17.4921 166.83 20.0521C166.83 21.2468 166.531 22.3561 165.934 23.3801C165.337 24.3614 164.441 25.1294 163.246 25.6841C162.222 26.1961 160.899 26.4521 159.278 26.4521L157.55 26.3881C157.209 26.3454 156.718 26.3241 156.078 26.3241C153.859 26.3241 152.11 26.7294 150.83 27.5401C149.55 28.3081 148.675 29.5028 148.206 31.1241C149.998 31.0388 151.619 30.9961 153.07 30.9961C157.379 30.9961 160.174 31.1241 161.454 31.3801C162.905 31.6788 164.014 32.2548 164.782 33.1081C165.593 33.9614 165.998 34.9641 165.998 36.1161C165.998 37.2681 165.614 38.2708 164.846 39.1241C164.078 39.9348 162.926 40.4894 161.39 40.7881C160.195 41.0441 157.294 41.1721 152.686 41.1721C150.809 41.1721 149.486 41.1508 148.718 41.1081C150.041 43.9241 152.515 45.3321 156.142 45.3321C156.355 45.3321 156.846 45.2894 157.614 45.2041C158.638 45.1188 159.513 45.0761 160.238 45.0761C161.475 45.0761 162.478 45.2041 163.246 45.4601Z" fill="white"/>
<path d="M163.246 45.4601C165.294 46.1001 166.318 47.4441 166.318 49.4921C166.318 51.4121 165.337 52.9268 163.374 54.0361C161.411 55.1454 158.019 55.7001 153.198 55.7001C147.182 55.7001 142.019 54.2494 137.71 51.3481C133.443 48.4468 131.31 42.6868 131.31 34.0681C131.31 29.7161 132.057 25.7908 133.55 22.2921C135.043 18.7934 137.262 16.0201 140.206 13.9721C143.193 11.9241 146.841 10.9001 151.15 10.9001C156.91 10.9001 160.963 11.7961 163.31 13.5881C165.657 15.3374 166.83 17.4921 166.83 20.0521C166.83 21.2468 166.531 22.3561 165.934 23.3801C165.337 24.3614 164.441 25.1294 163.246 25.6841C162.222 26.1961 160.899 26.4521 159.278 26.4521L157.55 26.3881C157.209 26.3454 156.718 26.3241 156.078 26.3241C153.859 26.3241 152.11 26.7294 150.83 27.5401C149.55 28.3081 148.675 29.5028 148.206 31.1241C149.998 31.0388 151.619 30.9961 153.07 30.9961C157.379 30.9961 160.174 31.1241 161.454 31.3801C162.905 31.6788 164.014 32.2548 164.782 33.1081C165.593 33.9614 165.998 34.9641 165.998 36.1161C165.998 37.2681 165.614 38.2708 164.846 39.1241C164.078 39.9348 162.926 40.4894 161.39 40.7881C160.195 41.0441 157.294 41.1721 152.686 41.1721C150.809 41.1721 149.486 41.1508 148.718 41.1081C150.041 43.9241 152.515 45.3321 156.142 45.3321C156.355 45.3321 156.846 45.2894 157.614 45.2041C158.638 45.1188 159.513 45.0761 160.238 45.0761C161.475 45.0761 162.478 45.2041 163.246 45.4601Z" fill="white"/>
<path d="M163.246 45.4601C165.294 46.1001 166.318 47.4441 166.318 49.4921C166.318 51.4121 165.337 52.9268 163.374 54.0361C161.411 55.1454 158.019 55.7001 153.198 55.7001C147.182 55.7001 142.019 54.2494 137.71 51.3481C133.443 48.4468 131.31 42.6868 131.31 34.0681C131.31 29.7161 132.057 25.7908 133.55 22.2921C135.043 18.7934 137.262 16.0201 140.206 13.9721C143.193 11.9241 146.841 10.9001 151.15 10.9001C156.91 10.9001 160.963 11.7961 163.31 13.5881C165.657 15.3374 166.83 17.4921 166.83 20.0521C166.83 21.2468 166.531 22.3561 165.934 23.3801C165.337 24.3614 164.441 25.1294 163.246 25.6841C162.222 26.1961 160.899 26.4521 159.278 26.4521L157.55 26.3881C157.209 26.3454 156.718 26.3241 156.078 26.3241C153.859 26.3241 152.11 26.7294 150.83 27.5401C149.55 28.3081 148.675 29.5028 148.206 31.1241C149.998 31.0388 151.619 30.9961 153.07 30.9961C157.379 30.9961 160.174 31.1241 161.454 31.3801C162.905 31.6788 164.014 32.2548 164.782 33.1081C165.593 33.9614 165.998 34.9641 165.998 36.1161C165.998 37.2681 165.614 38.2708 164.846 39.1241C164.078 39.9348 162.926 40.4894 161.39 40.7881C160.195 41.0441 157.294 41.1721 152.686 41.1721C150.809 41.1721 149.486 41.1508 148.718 41.1081C150.041 43.9241 152.515 45.3321 156.142 45.3321C156.355 45.3321 156.846 45.2894 157.614 45.2041C158.638 45.1188 159.513 45.0761 160.238 45.0761C161.475 45.0761 162.478 45.2041 163.246 45.4601Z" fill="white"/>
<path d="M163.246 45.4601C165.294 46.1001 166.318 47.4441 166.318 49.4921C166.318 51.4121 165.337 52.9268 163.374 54.0361C161.411 55.1454 158.019 55.7001 153.198 55.7001C147.182 55.7001 142.019 54.2494 137.71 51.3481C133.443 48.4468 131.31 42.6868 131.31 34.0681C131.31 29.7161 132.057 25.7908 133.55 22.2921C135.043 18.7934 137.262 16.0201 140.206 13.9721C143.193 11.9241 146.841 10.9001 151.15 10.9001C156.91 10.9001 160.963 11.7961 163.31 13.5881C165.657 15.3374 166.83 17.4921 166.83 20.0521C166.83 21.2468 166.531 22.3561 165.934 23.3801C165.337 24.3614 164.441 25.1294 163.246 25.6841C162.222 26.1961 160.899 26.4521 159.278 26.4521L157.55 26.3881C157.209 26.3454 156.718 26.3241 156.078 26.3241C153.859 26.3241 152.11 26.7294 150.83 27.5401C149.55 28.3081 148.675 29.5028 148.206 31.1241C149.998 31.0388 151.619 30.9961 153.07 30.9961C157.379 30.9961 160.174 31.1241 161.454 31.3801C162.905 31.6788 164.014 32.2548 164.782 33.1081C165.593 33.9614 165.998 34.9641 165.998 36.1161C165.998 37.2681 165.614 38.2708 164.846 39.1241C164.078 39.9348 162.926 40.4894 161.39 40.7881C160.195 41.0441 157.294 41.1721 152.686 41.1721C150.809 41.1721 149.486 41.1508 148.718 41.1081C150.041 43.9241 152.515 45.3321 156.142 45.3321C156.355 45.3321 156.846 45.2894 157.614 45.2041C158.638 45.1188 159.513 45.0761 160.238 45.0761C161.475 45.0761 162.478 45.2041 163.246 45.4601Z" fill="white"/>
<path d="M108.184 55.6361C101.101 55.5934 95.7893 53.8441 92.248 50.3881C88.7493 46.9321 87 41.3214 87 33.5561C87 26.5161 88.7067 20.9908 92.12 16.9801C95.5333 12.9268 100.355 10.9001 106.584 10.9001C110.424 10.9001 113.773 11.4761 116.632 12.6281C119.491 13.7801 121.688 15.4228 123.224 17.5561C124.76 19.6894 125.528 22.2068 125.528 25.1081C125.528 27.4121 125.016 29.4601 123.992 31.2521C123.011 33.0441 121.539 34.6441 119.576 36.0521C121.155 36.3081 122.52 37.1614 123.672 38.6121C124.867 40.0628 125.464 41.7481 125.464 43.6681C125.464 45.7161 124.909 47.6574 123.8 49.4921C122.733 51.2841 120.899 52.7561 118.296 53.9081C115.736 55.0601 112.365 55.6361 108.184 55.6361ZM103.768 31.7641C104.536 32.1481 105.496 32.3401 106.648 32.3401C108.013 32.3401 109.187 32.0201 110.168 31.3801C111.192 30.6974 111.704 29.6948 111.704 28.3721C111.704 27.0921 111.192 26.1321 110.168 25.4921C109.187 24.8094 107.992 24.4681 106.584 24.4681C105.475 24.4681 104.536 24.6601 103.768 25.0441C103.171 25.3001 102.723 25.7481 102.424 26.3881C102.125 27.0281 101.976 27.7108 101.976 28.4361C101.976 29.1614 102.125 29.8441 102.424 30.4841C102.723 31.0814 103.171 31.5081 103.768 31.7641ZM103.768 46.7401C104.579 47.0814 105.539 47.2521 106.648 47.2521C108.013 47.2521 109.187 46.9748 110.168 46.4201C111.192 45.8228 111.704 44.9481 111.704 43.7961C111.704 42.6868 111.192 41.8334 110.168 41.2361C109.144 40.6388 107.949 40.3401 106.584 40.3401C105.517 40.3401 104.579 40.5108 103.768 40.8521C103.171 41.1081 102.723 41.5134 102.424 42.0681C102.125 42.5801 101.976 43.1561 101.976 43.7961C101.976 44.4361 102.125 45.0334 102.424 45.5881C102.723 46.1001 103.171 46.4841 103.768 46.7401Z" fill="white"/>
<path d="M108.184 55.6361C101.101 55.5934 95.7893 53.8441 92.248 50.3881C88.7493 46.9321 87 41.3214 87 33.5561C87 26.5161 88.7067 20.9908 92.12 16.9801C95.5333 12.9268 100.355 10.9001 106.584 10.9001C110.424 10.9001 113.773 11.4761 116.632 12.6281C119.491 13.7801 121.688 15.4228 123.224 17.5561C124.76 19.6894 125.528 22.2068 125.528 25.1081C125.528 27.4121 125.016 29.4601 123.992 31.2521C123.011 33.0441 121.539 34.6441 119.576 36.0521C121.155 36.3081 122.52 37.1614 123.672 38.6121C124.867 40.0628 125.464 41.7481 125.464 43.6681C125.464 45.7161 124.909 47.6574 123.8 49.4921C122.733 51.2841 120.899 52.7561 118.296 53.9081C115.736 55.0601 112.365 55.6361 108.184 55.6361ZM103.768 31.7641C104.536 32.1481 105.496 32.3401 106.648 32.3401C108.013 32.3401 109.187 32.0201 110.168 31.3801C111.192 30.6974 111.704 29.6948 111.704 28.3721C111.704 27.0921 111.192 26.1321 110.168 25.4921C109.187 24.8094 107.992 24.4681 106.584 24.4681C105.475 24.4681 104.536 24.6601 103.768 25.0441C103.171 25.3001 102.723 25.7481 102.424 26.3881C102.125 27.0281 101.976 27.7108 101.976 28.4361C101.976 29.1614 102.125 29.8441 102.424 30.4841C102.723 31.0814 103.171 31.5081 103.768 31.7641ZM103.768 46.7401C104.579 47.0814 105.539 47.2521 106.648 47.2521C108.013 47.2521 109.187 46.9748 110.168 46.4201C111.192 45.8228 111.704 44.9481 111.704 43.7961C111.704 42.6868 111.192 41.8334 110.168 41.2361C109.144 40.6388 107.949 40.3401 106.584 40.3401C105.517 40.3401 104.579 40.5108 103.768 40.8521C103.171 41.1081 102.723 41.5134 102.424 42.0681C102.125 42.5801 101.976 43.1561 101.976 43.7961C101.976 44.4361 102.125 45.0334 102.424 45.5881C102.723 46.1001 103.171 46.4841 103.768 46.7401Z" fill="white"/>
<path d="M108.184 55.6361C101.101 55.5934 95.7893 53.8441 92.248 50.3881C88.7493 46.9321 87 41.3214 87 33.5561C87 26.5161 88.7067 20.9908 92.12 16.9801C95.5333 12.9268 100.355 10.9001 106.584 10.9001C110.424 10.9001 113.773 11.4761 116.632 12.6281C119.491 13.7801 121.688 15.4228 123.224 17.5561C124.76 19.6894 125.528 22.2068 125.528 25.1081C125.528 27.4121 125.016 29.4601 123.992 31.2521C123.011 33.0441 121.539 34.6441 119.576 36.0521C121.155 36.3081 122.52 37.1614 123.672 38.6121C124.867 40.0628 125.464 41.7481 125.464 43.6681C125.464 45.7161 124.909 47.6574 123.8 49.4921C122.733 51.2841 120.899 52.7561 118.296 53.9081C115.736 55.0601 112.365 55.6361 108.184 55.6361ZM103.768 31.7641C104.536 32.1481 105.496 32.3401 106.648 32.3401C108.013 32.3401 109.187 32.0201 110.168 31.3801C111.192 30.6974 111.704 29.6948 111.704 28.3721C111.704 27.0921 111.192 26.1321 110.168 25.4921C109.187 24.8094 107.992 24.4681 106.584 24.4681C105.475 24.4681 104.536 24.6601 103.768 25.0441C103.171 25.3001 102.723 25.7481 102.424 26.3881C102.125 27.0281 101.976 27.7108 101.976 28.4361C101.976 29.1614 102.125 29.8441 102.424 30.4841C102.723 31.0814 103.171 31.5081 103.768 31.7641ZM103.768 46.7401C104.579 47.0814 105.539 47.2521 106.648 47.2521C108.013 47.2521 109.187 46.9748 110.168 46.4201C111.192 45.8228 111.704 44.9481 111.704 43.7961C111.704 42.6868 111.192 41.8334 110.168 41.2361C109.144 40.6388 107.949 40.3401 106.584 40.3401C105.517 40.3401 104.579 40.5108 103.768 40.8521C103.171 41.1081 102.723 41.5134 102.424 42.0681C102.125 42.5801 101.976 43.1561 101.976 43.7961C101.976 44.4361 102.125 45.0334 102.424 45.5881C102.723 46.1001 103.171 46.4841 103.768 46.7401Z" fill="white"/>
<path d="M108.184 55.6361C101.101 55.5934 95.7893 53.8441 92.248 50.3881C88.7493 46.9321 87 41.3214 87 33.5561C87 26.5161 88.7067 20.9908 92.12 16.9801C95.5333 12.9268 100.355 10.9001 106.584 10.9001C110.424 10.9001 113.773 11.4761 116.632 12.6281C119.491 13.7801 121.688 15.4228 123.224 17.5561C124.76 19.6894 125.528 22.2068 125.528 25.1081C125.528 27.4121 125.016 29.4601 123.992 31.2521C123.011 33.0441 121.539 34.6441 119.576 36.0521C121.155 36.3081 122.52 37.1614 123.672 38.6121C124.867 40.0628 125.464 41.7481 125.464 43.6681C125.464 45.7161 124.909 47.6574 123.8 49.4921C122.733 51.2841 120.899 52.7561 118.296 53.9081C115.736 55.0601 112.365 55.6361 108.184 55.6361ZM103.768 31.7641C104.536 32.1481 105.496 32.3401 106.648 32.3401C108.013 32.3401 109.187 32.0201 110.168 31.3801C111.192 30.6974 111.704 29.6948 111.704 28.3721C111.704 27.0921 111.192 26.1321 110.168 25.4921C109.187 24.8094 107.992 24.4681 106.584 24.4681C105.475 24.4681 104.536 24.6601 103.768 25.0441C103.171 25.3001 102.723 25.7481 102.424 26.3881C102.125 27.0281 101.976 27.7108 101.976 28.4361C101.976 29.1614 102.125 29.8441 102.424 30.4841C102.723 31.0814 103.171 31.5081 103.768 31.7641ZM103.768 46.7401C104.579 47.0814 105.539 47.2521 106.648 47.2521C108.013 47.2521 109.187 46.9748 110.168 46.4201C111.192 45.8228 111.704 44.9481 111.704 43.7961C111.704 42.6868 111.192 41.8334 110.168 41.2361C109.144 40.6388 107.949 40.3401 106.584 40.3401C105.517 40.3401 104.579 40.5108 103.768 40.8521C103.171 41.1081 102.723 41.5134 102.424 42.0681C102.125 42.5801 101.976 43.1561 101.976 43.7961C101.976 44.4361 102.125 45.0334 102.424 45.5881C102.723 46.1001 103.171 46.4841 103.768 46.7401Z" fill="white"/>
</svg>
