<svg width="23" height="18" viewBox="0 0 23 18" fill="none" xmlns="http://www.w3.org/2000/svg">
<path fill-rule="evenodd" clip-rule="evenodd" d="M4.73977 0.882703C5.30998 0.316781 6.07157 0 7.09167 0C7.97506 0 8.71767 0.339328 9.22928 0.919078C9.72981 1.48627 9.96667 2.23303 9.96667 3V4.63167C10.3716 4.55747 10.8841 4.5 11.5 4.5C12.1159 4.5 12.6284 4.55747 13.0333 4.63167V3C13.0333 2.23303 13.2702 1.48627 13.7707 0.919078C14.2823 0.339328 15.0249 0 15.9083 0C16.9284 0 17.69 0.316781 18.2602 0.882703C18.7908 1.40925 19.101 2.10314 19.3523 2.72372L19.3828 2.80209L22.6511 11.3294C22.6511 11.3294 22.7752 11.6719 22.7907 11.7227C22.9299 12.1777 23.0004 12.6501 23 13.125C23 15.8174 20.7689 18 18.0167 18C15.2644 18 13.0333 15.8174 13.0333 13.125V10.2909L13.0314 10.2904C12.7022 10.2105 12.1891 10.125 11.5 10.125C10.8109 10.125 10.2978 10.2105 9.96858 10.2904L9.96667 10.2909V13.125C9.96667 15.8174 7.73557 18 4.98333 18C2.2311 18 0 15.8174 0 13.125C0 12.6375 0.0731208 12.1668 0.209252 11.7227C0.216535 11.6903 0.226119 11.6579 0.238098 11.6257C0.272861 11.5262 0.30983 11.4273 0.348977 11.3293L3.64766 2.72372C3.89903 2.10314 4.20929 1.40925 4.73977 0.882703ZM14.5667 13.1205C14.5691 11.2586 16.1128 9.75 18.0167 9.75C19.472 9.75 20.7169 10.6315 21.2237 11.8785L21.2888 12.0524C21.407 12.3982 21.4671 12.7604 21.4667 13.125C21.4667 14.9889 19.922 16.5 18.0167 16.5C16.1119 16.5 14.5677 14.99 14.5667 13.1269V13.125M4.98333 9.75C3.52806 9.75 2.28323 10.6315 1.77627 11.8784L1.7112 12.0525C1.59303 12.3982 1.53296 12.7604 1.53333 13.125C1.53333 14.9889 3.07797 16.5 4.98333 16.5C6.88869 16.5 8.43333 14.9889 8.43333 13.125C8.43333 11.2611 6.88869 9.75 4.98333 9.75Z" fill="#A3A3A5"/>
</svg>
