<svg width="40" height="40" viewBox="0 0 40 40" fill="none" xmlns="http://www.w3.org/2000/svg">
<path d="M39.3414 36.1989L30.5572 27.4114C33.191 23.9795 34.4206 19.6742 33.9967 15.3689C33.5727 11.0637 31.527 7.08092 28.2744 4.2285C25.0218 1.37608 20.8059 -0.13238 16.482 0.00912626C12.158 0.150632 8.04984 1.9315 4.99071 4.99048C1.93159 8.04946 0.150639 12.1575 0.00912668 16.4812C-0.132386 20.805 1.37614 25.0206 4.22869 28.2731C7.08125 31.5255 11.0642 33.5712 15.3697 33.9951C19.6751 34.419 23.9806 33.1894 27.4127 30.5558L36.2043 39.3488C36.4108 39.5552 36.6559 39.719 36.9256 39.8308C37.1954 39.9425 37.4845 40 37.7765 40C38.0685 40 38.3576 39.9425 38.6274 39.8308C38.8972 39.719 39.1423 39.5552 39.3488 39.3488C39.5552 39.1423 39.719 38.8972 39.8307 38.6275C39.9425 38.3577 40 38.0686 40 37.7766C40 37.4846 39.9425 37.1955 39.8307 36.9258C39.719 36.656 39.5552 36.4109 39.3488 36.2045L39.3414 36.1989ZM4.47657 17.0537C4.47657 14.5661 5.21425 12.1344 6.59633 10.0661C7.9784 7.99777 9.9428 6.3857 12.2411 5.43376C14.5394 4.48181 17.0684 4.23274 19.5083 4.71803C21.9482 5.20333 24.1893 6.40121 25.9484 8.16017C27.7074 9.91914 28.9053 12.1602 29.3907 14.6C29.876 17.0397 29.6269 19.5686 28.6749 21.8668C27.7229 24.165 26.1108 26.1293 24.0424 27.5113C21.9739 28.8933 19.5421 29.631 17.0545 29.631C13.7196 29.6275 10.5224 28.3013 8.16434 25.9434C5.80627 23.5854 4.48 20.3883 4.47657 17.0537Z" fill="white"/>
</svg>
