<svg width="41" height="42" viewBox="0 0 41 42" fill="none" xmlns="http://www.w3.org/2000/svg">
<path d="M40.5 38.619L2.97619 0.904755L0.5 3.38094L6.21429 9.09523C3.7381 12.1428 2.21429 16.1428 2.21429 20.5238C2.21429 22.619 3.92857 24.3333 6.02381 24.3333H21.4524L23.3571 26.2381H15.5476L13.0714 34.8095V35.7619C13.0714 37.8571 14.7857 39.5714 16.881 39.5714H25.8333C27.9286 39.5714 29.6429 37.8571 29.6429 35.7619L29.4524 34.8095L28.5 31.3809L38.2143 41.0952L40.5 38.619ZM11.7381 20.5238C9.64286 20.5238 7.92857 18.8095 7.92857 16.7143C7.92857 15.1905 8.88095 13.6667 10.4048 13.0952L15.3571 18.0476C14.7857 19.5714 13.2619 20.5238 11.7381 20.5238ZM17.4524 9.09523C17.4524 6.99999 19.1667 5.28571 21.2619 5.28571C23.3571 5.28571 25.0714 6.99999 25.0714 9.09523C25.0714 11.1905 23.3571 12.9048 21.2619 12.9048C20.3095 12.9048 19.5476 12.5238 18.7857 11.9524L31.1667 24.3333H36.5C38.5952 24.3333 40.3095 22.619 40.3095 20.5238C40.3095 10.0476 31.7381 1.47618 21.2619 1.47618C17.6429 1.47618 14.2143 2.61904 11.1667 4.33333L18.2143 11.3809C17.8333 10.8095 17.4524 10.0476 17.4524 9.09523ZM30.7857 12.9048C32.881 12.9048 34.5952 14.619 34.5952 16.7143C34.5952 18.8095 32.881 20.5238 30.7857 20.5238C28.6905 20.5238 26.9762 18.8095 26.9762 16.7143C26.9762 14.619 28.6905 12.9048 30.7857 12.9048Z" fill="white"/>
</svg>
