<svg width="45" height="30" viewBox="0 0 45 30" fill="none" xmlns="http://www.w3.org/2000/svg">
<path d="M22.5 0.317795L0 15L22.5 29.6822L45 15L22.5 0.317795ZM22.5 5.4661C25.0285 5.4661 27.4535 6.47056 29.2415 8.25851C31.0294 10.0465 32.0339 12.4715 32.0339 15C32.0339 15.3188 32.0178 15.6375 31.9858 15.9547C27.3979 12.506 21.4503 10.4687 15.8818 10.5767C15.2495 10.5891 14.6226 10.6307 14.0027 10.6994C14.7974 9.12718 16.012 7.80591 17.512 6.88214C19.0119 5.95837 20.7384 5.46823 22.5 5.4661ZM16.2488 12.3048C21.5487 12.3174 27.3466 14.4078 31.6027 17.8324C30.9985 19.7742 29.7893 21.472 28.1516 22.6776C26.5139 23.8833 24.5336 24.5337 22.5 24.5339C19.9715 24.5339 17.5465 23.5294 15.7585 21.7415C13.9706 19.9535 12.9661 17.5285 12.9661 15C12.9699 14.1643 13.0835 13.3327 13.3041 12.5266C14.2586 12.3747 15.2446 12.3024 16.2488 12.3048Z" fill="white"/>
</svg>
