<svg width="26" height="17" viewBox="0 0 26 17" fill="none" xmlns="http://www.w3.org/2000/svg">
<path d="M22.1916 12.1816C22.1916 11.9074 22.1494 11.6613 22.065 11.4434C21.9877 11.2184 21.84 11.0145 21.6221 10.8316C21.4041 10.6418 21.0982 10.4555 20.7045 10.2727C20.3107 10.0898 19.801 9.9 19.1752 9.70312C18.4791 9.47812 17.8182 9.225 17.1924 8.94375C16.5736 8.6625 16.0252 8.33555 15.5471 7.96289C15.076 7.5832 14.7033 7.14375 14.4291 6.64453C14.1619 6.14531 14.0283 5.56523 14.0283 4.9043C14.0283 4.26445 14.1689 3.68437 14.4502 3.16406C14.7314 2.63672 15.1252 2.18672 15.6314 1.81406C16.1377 1.43437 16.7354 1.14258 17.4244 0.938672C18.1205 0.734766 18.8834 0.632812 19.7131 0.632812C20.8451 0.632812 21.833 0.836719 22.6768 1.24453C23.5205 1.65234 24.1744 2.21133 24.6385 2.92148C25.1096 3.63164 25.3451 4.44375 25.3451 5.35781H22.2021C22.2021 4.90781 22.1072 4.51406 21.9174 4.17656C21.7346 3.83203 21.4533 3.56133 21.0736 3.36445C20.701 3.16758 20.2299 3.06914 19.6604 3.06914C19.1119 3.06914 18.6549 3.15352 18.2893 3.32227C17.9236 3.48398 17.6494 3.70547 17.4666 3.98672C17.2838 4.26094 17.1924 4.57031 17.1924 4.91484C17.1924 5.175 17.2557 5.41055 17.3822 5.62148C17.5158 5.83242 17.7127 6.0293 17.9729 6.21211C18.233 6.39492 18.5529 6.56719 18.9326 6.72891C19.3123 6.89062 19.7518 7.04883 20.251 7.20352C21.0877 7.45664 21.8225 7.74141 22.4553 8.05781C23.0951 8.37422 23.6295 8.7293 24.0584 9.12305C24.4873 9.5168 24.8107 9.96328 25.0287 10.4625C25.2467 10.9617 25.3557 11.5277 25.3557 12.1605C25.3557 12.8285 25.2256 13.4262 24.9654 13.9535C24.7053 14.4809 24.3291 14.9273 23.8369 15.293C23.3447 15.6586 22.7576 15.9363 22.0756 16.1262C21.3936 16.316 20.6307 16.4109 19.7869 16.4109C19.0275 16.4109 18.2787 16.3125 17.5404 16.1156C16.8021 15.9117 16.1307 15.6059 15.526 15.198C14.9283 14.7902 14.4502 14.2699 14.0916 13.6371C13.733 13.0043 13.5537 12.2555 13.5537 11.3906H16.7283C16.7283 11.8687 16.8021 12.273 16.9498 12.6035C17.0975 12.934 17.3049 13.2012 17.5721 13.4051C17.8463 13.609 18.1697 13.7566 18.5424 13.848C18.9221 13.9395 19.3369 13.9852 19.7869 13.9852C20.3354 13.9852 20.7854 13.9078 21.1369 13.7531C21.4955 13.5984 21.7592 13.384 21.9279 13.1098C22.1037 12.8355 22.1916 12.5262 22.1916 12.1816Z" fill="white"/>
<path d="M7.83716 0.84375V16.2H4.68364V0.84375H7.83716ZM12.5622 0.84375V3.32227H0.0324707V0.84375H12.5622Z" fill="white"/>
</svg>
