<svg width="24" height="8" viewBox="0 0 24 8" fill="none" xmlns="http://www.w3.org/2000/svg">
<path d="M1.5874 3.96072L4.69287 5.08377V6.40701L0.474121 4.6199V3.6824L1.5874 3.96072ZM4.69287 3.04276L1.58252 4.18533L0.474121 4.44901V3.51151L4.69287 1.7244V3.04276ZM8.50635 5.62088L10.1812 -0.00411987H11.812L9.33643 7.10526H8.26221L8.50635 5.62088ZM6.96338 -0.00411987L8.6333 5.62088L8.88721 7.10526H7.80322L5.34229 -0.00411987H6.96338ZM16.4019 -0.00411987H17.8618V4.69315C17.8618 5.24002 17.7446 5.70063 17.5103 6.07498C17.2791 6.44933 16.9585 6.73091 16.5483 6.91971C16.1414 7.10851 15.6727 7.20291 15.1421 7.20291C14.6115 7.20291 14.1395 7.10851 13.7261 6.91971C13.3159 6.73091 12.9937 6.44933 12.7593 6.07498C12.5282 5.70063 12.4126 5.24002 12.4126 4.69315V-0.00411987H13.8774V4.69315C13.8774 5.01216 13.9279 5.27257 14.0288 5.4744C14.1297 5.67622 14.2746 5.82433 14.4634 5.91873C14.6554 6.01313 14.8817 6.06033 15.1421 6.06033C15.409 6.06033 15.6353 6.01313 15.8208 5.91873C16.0096 5.82433 16.1528 5.67622 16.2505 5.4744C16.3514 5.27257 16.4019 5.01216 16.4019 4.69315V-0.00411987ZM22.144 4.15604L19.0142 3.03787V1.7244L23.2671 3.51151V4.45389L22.144 4.15604ZM19.0142 5.09354L22.1489 3.95096L23.2671 3.6824V4.6199L19.0142 6.40701V5.09354Z" fill="white"/>
</svg>
