<?xml version="1.0" encoding="UTF-8"?>
<svg xmlns="http://www.w3.org/2000/svg" xmlns:xlink="http://www.w3.org/1999/xlink" width="32px" height="32px" viewBox="0 0 32 32" version="1.1">
<g id="surface1">
<path style=" stroke:none;fill-rule:nonzero;fill:rgb(38.431373%,38.431373%,38.431373%);fill-opacity:1;" d="M 14.714844 29.183594 C 14.691406 29.15625 14.332031 29.140625 13.914062 29.144531 C 13.257812 29.148438 13.148438 29.128906 13.113281 29.003906 C 13.078125 28.867188 13.074219 28.867188 13.066406 29.007812 C 13.058594 29.128906 13.007812 29.144531 12.78125 29.101562 C 12.632812 29.074219 12.34375 29.054688 12.144531 29.058594 C 11.914062 29.066406 11.800781 29.039062 11.835938 28.984375 C 11.863281 28.9375 11.921875 28.917969 11.960938 28.941406 C 12 28.964844 12.054688 28.953125 12.082031 28.910156 C 12.109375 28.867188 12.242188 28.839844 12.382812 28.851562 C 12.523438 28.859375 12.636719 28.835938 12.636719 28.800781 C 12.636719 28.761719 12.753906 28.730469 12.898438 28.730469 L 13.160156 28.730469 L 12.886719 28.421875 C 12.582031 28.074219 12.382812 27.660156 12.382812 27.367188 C 12.382812 27.257812 12.378906 27.078125 12.375 26.960938 C 12.371094 26.84375 12.394531 26.425781 12.433594 26.035156 C 12.585938 24.410156 12.394531 23.625 11.453125 22.015625 C 11.277344 21.710938 11.144531 21.390625 11.164062 21.300781 C 11.179688 21.210938 11.160156 21.160156 11.121094 21.183594 C 11.042969 21.234375 11.003906 21.136719 10.902344 20.636719 C 10.835938 20.332031 10.839844 18.46875 10.90625 18.363281 C 10.972656 18.257812 10.785156 17.234375 10.632812 16.886719 C 10.367188 16.273438 9.792969 15.902344 8.820312 15.710938 C 8.191406 15.585938 7.046875 15.492188 6.230469 15.496094 C 5.292969 15.503906 4.167969 15.050781 3.4375 14.371094 C 3 13.964844 2.667969 13.519531 2.746094 13.441406 C 2.777344 13.414062 2.761719 13.386719 2.714844 13.386719 C 2.550781 13.386719 2.363281 12.429688 2.351562 11.535156 C 2.34375 10.578125 2.566406 9.574219 2.835938 9.363281 C 2.914062 9.304688 2.945312 9.257812 2.914062 9.257812 C 2.878906 9.257812 2.933594 9.097656 3.035156 8.902344 C 3.269531 8.445312 4.398438 7.320312 4.832031 7.117188 C 5.015625 7.03125 5.203125 6.925781 5.253906 6.882812 C 5.304688 6.839844 5.609375 6.632812 5.933594 6.417969 C 6.257812 6.203125 6.578125 5.949219 6.644531 5.851562 C 6.882812 5.507812 7.320312 5.113281 7.410156 5.167969 C 7.457031 5.199219 7.488281 5.179688 7.472656 5.125 C 7.445312 5.003906 8.421875 4.4375 8.566406 4.492188 C 8.625 4.515625 8.671875 4.5 8.671875 4.464844 C 8.671875 4.328125 12.230469 3.390625 12.382812 3.484375 C 12.421875 3.507812 12.464844 3.492188 12.480469 3.453125 C 12.53125 3.324219 14.101562 2.914062 14.644531 2.886719 C 14.941406 2.875 15.199219 2.84375 15.21875 2.824219 C 15.3125 2.730469 16.550781 2.875 17.90625 3.140625 C 17.996094 3.15625 18.625 3.3125 19.296875 3.484375 C 19.96875 3.65625 20.59375 3.804688 20.6875 3.816406 C 20.933594 3.851562 21.347656 3.960938 21.445312 4.019531 C 21.492188 4.046875 21.597656 4.078125 21.679688 4.089844 C 21.917969 4.128906 22.667969 4.53125 22.667969 4.621094 C 22.667969 4.667969 22.707031 4.707031 22.753906 4.707031 C 22.851562 4.707031 23.875 5.53125 23.917969 5.644531 C 23.933594 5.683594 24 5.71875 24.066406 5.71875 C 24.203125 5.71875 25.261719 6.269531 25.746094 6.597656 C 26.183594 6.890625 26.898438 7.644531 26.835938 7.746094 C 26.808594 7.789062 26.828125 7.824219 26.875 7.824219 C 26.921875 7.824219 27.042969 7.984375 27.144531 8.183594 C 27.242188 8.378906 27.410156 8.660156 27.519531 8.804688 C 27.628906 8.949219 27.691406 9.097656 27.660156 9.132812 C 27.625 9.171875 27.640625 9.175781 27.691406 9.148438 C 27.789062 9.09375 28.808594 10.101562 29.148438 10.589844 C 29.253906 10.742188 29.320312 10.921875 29.292969 10.992188 C 29.265625 11.0625 29.28125 11.097656 29.320312 11.074219 C 29.492188 10.96875 29.699219 12.304688 29.632812 13.082031 C 29.605469 13.414062 29.582031 13.753906 29.582031 13.835938 C 29.582031 13.929688 29.542969 13.964844 29.484375 13.929688 C 29.421875 13.890625 29.410156 13.90625 29.445312 13.96875 C 29.527344 14.097656 29.417969 14.582031 29.320312 14.523438 C 29.277344 14.496094 29.265625 14.53125 29.292969 14.601562 C 29.351562 14.757812 29 15.542969 28.742188 15.832031 C 28.636719 15.949219 28.503906 16.140625 28.441406 16.253906 C 28.300781 16.523438 26.933594 17.828125 26.496094 18.117188 C 26.316406 18.234375 26.007812 18.4375 25.8125 18.566406 C 25.609375 18.699219 25.414062 18.773438 25.355469 18.738281 C 25.296875 18.699219 25.277344 18.707031 25.308594 18.761719 C 25.359375 18.839844 24.9375 19.070312 24.734375 19.078125 C 24.6875 19.078125 24.574219 19.121094 24.480469 19.175781 C 24.386719 19.230469 24.273438 19.28125 24.226562 19.292969 C 24.179688 19.300781 24.046875 19.347656 23.933594 19.394531 C 23.816406 19.441406 23.527344 19.484375 23.289062 19.488281 C 23.046875 19.496094 22.871094 19.527344 22.890625 19.5625 C 23.007812 19.757812 20.425781 19.492188 20.175781 19.285156 C 20.125 19.242188 20.054688 19.230469 20.023438 19.261719 C 19.996094 19.292969 19.96875 19.269531 19.96875 19.214844 C 19.96875 19.15625 19.933594 19.132812 19.886719 19.164062 C 19.839844 19.191406 19.753906 19.183594 19.695312 19.148438 C 19.636719 19.113281 19.515625 19.070312 19.429688 19.058594 C 19.339844 19.042969 19.214844 18.992188 19.15625 18.941406 C 19.09375 18.890625 19.042969 18.871094 19.042969 18.902344 C 19.042969 18.929688 18.917969 18.902344 18.769531 18.839844 C 18.617188 18.777344 18.445312 18.742188 18.390625 18.761719 C 18.332031 18.78125 18.285156 18.765625 18.285156 18.726562 C 18.285156 18.6875 17.980469 18.667969 17.609375 18.683594 C 17.21875 18.699219 16.933594 18.75 16.933594 18.800781 C 16.933594 18.847656 16.871094 18.859375 16.789062 18.832031 C 16.710938 18.800781 16.667969 18.796875 16.695312 18.824219 C 16.722656 18.851562 16.628906 18.996094 16.488281 19.144531 C 16.199219 19.457031 15.929688 20 15.925781 20.285156 C 15.925781 20.390625 15.894531 20.460938 15.859375 20.441406 C 15.769531 20.382812 15.808594 21.359375 15.925781 21.996094 C 15.976562 22.292969 16.167969 22.960938 16.347656 23.484375 C 16.550781 24.085938 16.632812 24.433594 16.570312 24.433594 C 16.511719 24.433594 16.523438 24.46875 16.597656 24.515625 C 16.667969 24.5625 16.691406 24.597656 16.652344 24.597656 C 16.609375 24.601562 16.625 24.65625 16.683594 24.726562 C 16.738281 24.796875 16.757812 24.851562 16.722656 24.851562 C 16.691406 24.851562 16.703125 24.902344 16.753906 24.964844 C 16.902344 25.144531 17.042969 26.285156 16.992188 26.9375 C 16.949219 27.515625 16.765625 28.019531 16.449219 28.40625 C 16.300781 28.589844 16.464844 28.652344 17.1875 28.6875 C 18.054688 28.734375 18.128906 28.742188 18.621094 28.839844 C 18.875 28.890625 19.128906 28.921875 19.183594 28.914062 C 19.238281 28.902344 19.308594 28.933594 19.335938 28.980469 C 19.367188 29.027344 19.320312 29.070312 19.238281 29.070312 C 17.421875 29.101562 14.929688 29.171875 14.855469 29.195312 C 14.804688 29.210938 14.738281 29.207031 14.714844 29.183594 Z M 14.410156 27.867188 C 14.804688 27.601562 14.972656 27.265625 15.105469 26.492188 C 15.210938 25.898438 15.230469 25.851562 15.285156 26.09375 C 15.316406 26.242188 15.316406 26.410156 15.285156 26.464844 C 15.246094 26.527344 15.257812 26.542969 15.320312 26.503906 C 15.386719 26.464844 15.417969 26.554688 15.421875 26.808594 C 15.421875 27.125 15.433594 27.148438 15.519531 27.003906 C 15.6875 26.71875 15.628906 25.554688 15.421875 24.9375 C 15.152344 24.132812 14.835938 23 14.882812 23 C 14.90625 23 15.09375 23.367188 15.300781 23.820312 C 15.507812 24.273438 15.714844 24.710938 15.761719 24.792969 C 15.804688 24.875 15.820312 24.992188 15.785156 25.046875 C 15.753906 25.101562 15.761719 25.117188 15.800781 25.082031 C 15.84375 25.042969 15.921875 25.136719 15.980469 25.289062 C 16.078125 25.5625 16.082031 25.554688 16.066406 25.085938 C 16.058594 24.820312 16.027344 24.601562 16.003906 24.601562 C 15.929688 24.601562 15.746094 23.835938 15.800781 23.75 C 15.828125 23.707031 15.8125 23.671875 15.769531 23.671875 C 15.671875 23.671875 15.289062 22.644531 15.132812 21.96875 C 15.070312 21.703125 15.050781 21.503906 15.09375 21.53125 C 15.132812 21.554688 15.164062 21.539062 15.164062 21.492188 C 15.164062 21.449219 15.128906 21.398438 15.082031 21.382812 C 15.035156 21.367188 14.992188 21.0625 14.988281 20.703125 C 14.976562 20.035156 14.878906 19.90625 14.78125 20.429688 C 14.75 20.589844 14.695312 20.703125 14.65625 20.679688 C 14.621094 20.65625 14.609375 20.714844 14.632812 20.808594 C 14.660156 20.898438 14.644531 20.976562 14.601562 20.976562 C 14.558594 20.976562 14.539062 21.117188 14.554688 21.292969 C 14.578125 21.554688 14.566406 21.582031 14.488281 21.457031 C 14.308594 21.167969 14.289062 20.433594 14.453125 19.921875 C 14.535156 19.660156 14.652344 19.421875 14.714844 19.398438 C 14.777344 19.375 14.808594 19.328125 14.785156 19.292969 C 14.765625 19.253906 14.835938 19.128906 14.945312 19.011719 C 15.058594 18.890625 15.128906 18.777344 15.109375 18.753906 C 15.085938 18.734375 15.269531 18.5625 15.511719 18.378906 C 15.914062 18.070312 15.96875 18.050781 16.058594 18.179688 C 16.15625 18.308594 16.164062 18.304688 16.148438 18.152344 C 16.128906 17.933594 16.5625 17.78125 17.246094 17.777344 C 17.820312 17.769531 18.390625 17.898438 19.730469 18.324219 C 20.226562 18.480469 20.902344 18.652344 21.234375 18.707031 C 21.804688 18.792969 23.308594 18.777344 23.476562 18.679688 C 23.519531 18.65625 23.8125 18.550781 24.132812 18.445312 C 24.695312 18.261719 25.765625 17.710938 26.054688 17.457031 C 26.132812 17.390625 26.242188 17.363281 26.300781 17.398438 C 26.363281 17.4375 26.382812 17.425781 26.34375 17.367188 C 26.3125 17.316406 26.355469 17.238281 26.441406 17.191406 C 26.523438 17.148438 26.894531 16.796875 27.265625 16.417969 C 28.238281 15.410156 28.238281 15.410156 28.167969 15.410156 C 28.132812 15.40625 28.164062 15.359375 28.230469 15.304688 C 28.300781 15.246094 28.476562 14.945312 28.621094 14.632812 C 28.765625 14.320312 28.902344 14.089844 28.933594 14.117188 C 28.960938 14.148438 28.96875 14.09375 28.953125 14 C 28.933594 13.90625 28.957031 13.664062 29 13.460938 C 29.105469 13.003906 29.148438 11.699219 29.054688 11.753906 C 29.019531 11.777344 28.988281 11.738281 28.988281 11.664062 C 28.988281 11.390625 28.636719 10.800781 28.1875 10.328125 C 27.933594 10.058594 27.726562 9.796875 27.726562 9.753906 C 27.726562 9.707031 27.6875 9.691406 27.640625 9.722656 C 27.59375 9.75 27.503906 9.652344 27.441406 9.503906 C 27.375 9.351562 27.308594 9.28125 27.289062 9.34375 C 27.269531 9.40625 27.113281 9.234375 26.9375 8.957031 C 26.765625 8.683594 26.644531 8.410156 26.667969 8.347656 C 26.691406 8.285156 26.679688 8.257812 26.640625 8.28125 C 26.601562 8.304688 26.527344 8.230469 26.472656 8.113281 C 26.324219 7.789062 25.625 7.078125 25.21875 6.839844 C 25.023438 6.722656 24.859375 6.59375 24.859375 6.546875 C 24.859375 6.503906 24.820312 6.492188 24.769531 6.519531 C 24.71875 6.550781 24.617188 6.523438 24.539062 6.457031 C 24.460938 6.390625 24.226562 6.265625 24.023438 6.175781 C 23.578125 5.984375 22.804688 5.390625 22.765625 5.210938 C 22.75 5.140625 22.703125 5.046875 22.65625 5 C 22.601562 4.945312 22.59375 4.972656 22.636719 5.085938 C 22.695312 5.234375 22.671875 5.230469 22.441406 5.042969 C 22.300781 4.925781 22.199219 4.804688 22.21875 4.769531 C 22.238281 4.734375 22.191406 4.734375 22.109375 4.761719 C 22.003906 4.804688 21.984375 4.789062 22.035156 4.707031 C 22.078125 4.632812 22.070312 4.617188 22.007812 4.652344 C 21.957031 4.6875 21.824219 4.667969 21.722656 4.609375 C 21.617188 4.550781 21.472656 4.496094 21.402344 4.480469 C 20.917969 4.390625 20.390625 4.242188 20.390625 4.191406 C 20.390625 4.15625 20.324219 4.148438 20.242188 4.171875 C 20.160156 4.191406 19.921875 4.167969 19.714844 4.117188 C 19.507812 4.066406 19.257812 4.007812 19.160156 3.988281 C 19.0625 3.964844 18.683594 3.847656 18.316406 3.726562 C 17.953125 3.605469 17.59375 3.5 17.523438 3.488281 C 17.457031 3.480469 17.265625 3.445312 17.105469 3.417969 C 16.445312 3.289062 16.097656 3.261719 15.292969 3.273438 C 14.332031 3.289062 13.996094 3.3125 13.816406 3.382812 C 13.097656 3.667969 11.308594 4.207031 11.164062 4.1875 C 11.113281 4.179688 11.019531 4.191406 10.949219 4.21875 C 10.878906 4.242188 10.460938 4.34375 10.023438 4.445312 C 8.800781 4.726562 8 5.152344 7.238281 5.921875 C 6.507812 6.667969 6.03125 7.023438 5.882812 6.933594 C 5.824219 6.898438 5.804688 6.90625 5.835938 6.957031 C 5.863281 7.007812 5.765625 7.097656 5.617188 7.15625 C 5.074219 7.375 3.707031 8.535156 3.703125 8.777344 C 3.699219 8.816406 3.65625 8.820312 3.601562 8.785156 C 3.550781 8.753906 3.527344 8.761719 3.554688 8.808594 C 3.582031 8.851562 3.511719 9.050781 3.398438 9.253906 C 3.121094 9.742188 2.855469 10.5625 2.855469 10.945312 C 2.855469 11.113281 2.832031 11.277344 2.796875 11.3125 C 2.714844 11.394531 2.691406 11.617188 2.765625 11.617188 C 2.800781 11.617188 2.832031 11.761719 2.835938 11.933594 C 2.84375 12.285156 2.882812 12.476562 3.015625 12.820312 C 3.066406 12.945312 3.078125 13.050781 3.042969 13.050781 C 3.011719 13.054688 3.023438 13.082031 3.070312 13.117188 C 3.121094 13.148438 3.269531 13.324219 3.40625 13.503906 C 3.539062 13.683594 3.8125 13.953125 4.007812 14.101562 C 4.207031 14.253906 4.339844 14.40625 4.308594 14.445312 C 4.273438 14.480469 4.289062 14.488281 4.339844 14.457031 C 4.390625 14.429688 4.632812 14.476562 4.875 14.566406 C 5.117188 14.65625 5.679688 14.773438 6.128906 14.832031 C 6.578125 14.890625 6.972656 14.976562 7.007812 15.027344 C 7.050781 15.089844 7.070312 15.089844 7.070312 15.027344 C 7.074219 14.851562 8.921875 14.992188 9.546875 15.210938 C 10.035156 15.382812 10.546875 15.734375 10.476562 15.847656 C 10.441406 15.902344 10.457031 15.921875 10.503906 15.890625 C 10.554688 15.859375 10.640625 15.890625 10.699219 15.960938 C 10.753906 16.03125 10.769531 16.085938 10.734375 16.085938 C 10.695312 16.085938 10.726562 16.132812 10.800781 16.191406 C 10.878906 16.25 11.027344 16.503906 11.128906 16.761719 C 11.304688 17.1875 11.320312 17.359375 11.324219 18.953125 C 11.328125 20.226562 11.359375 20.730469 11.441406 20.875 C 11.503906 20.984375 11.527344 21.136719 11.5 21.210938 C 11.46875 21.289062 11.472656 21.320312 11.507812 21.289062 C 11.589844 21.207031 12.472656 22.839844 12.421875 22.980469 C 12.402344 23.042969 12.414062 23.074219 12.453125 23.050781 C 12.546875 22.992188 12.828125 23.902344 12.753906 24.023438 C 12.71875 24.078125 12.730469 24.097656 12.78125 24.066406 C 12.917969 23.984375 12.988281 24.933594 12.925781 25.914062 C 12.882812 26.519531 12.835938 26.773438 12.773438 26.734375 C 12.71875 26.707031 12.726562 26.734375 12.78125 26.796875 C 12.839844 26.859375 12.886719 26.992188 12.886719 27.089844 C 12.886719 27.910156 13.71875 28.332031 14.410156 27.867188 Z M 13.769531 19.871094 C 13.804688 18.980469 14.09375 17.808594 14.253906 17.910156 C 14.308594 17.941406 14.324219 17.929688 14.292969 17.875 C 14.21875 17.757812 14.316406 17.507812 14.414062 17.566406 C 14.453125 17.589844 14.46875 17.558594 14.441406 17.492188 C 14.34375 17.230469 15.425781 16.273438 16.0625 16.058594 C 16.289062 15.980469 16.429688 15.859375 16.535156 15.660156 C 16.617188 15.5 16.683594 15.421875 16.683594 15.488281 C 16.683594 15.554688 16.703125 15.585938 16.734375 15.558594 C 16.761719 15.53125 16.753906 15.457031 16.714844 15.394531 C 16.675781 15.335938 16.632812 15.214844 16.621094 15.132812 C 16.558594 14.730469 15.972656 14.035156 15.359375 13.628906 C 14.851562 13.292969 14.066406 13.097656 13.226562 13.09375 C 12.527344 13.09375 12.378906 13.121094 12.050781 13.304688 C 11.84375 13.421875 11.601562 13.644531 11.507812 13.800781 C 11.34375 14.082031 11.34375 14.085938 11.503906 14.207031 C 11.59375 14.273438 11.65625 14.367188 11.644531 14.414062 C 11.628906 14.457031 11.65625 14.476562 11.699219 14.449219 C 11.785156 14.394531 12.238281 14.878906 12.414062 15.222656 C 12.605469 15.59375 12.726562 16.097656 12.609375 16.03125 C 12.542969 15.996094 12.546875 16.015625 12.613281 16.089844 C 12.671875 16.152344 12.71875 16.320312 12.722656 16.460938 C 12.722656 16.808594 12.367188 18.617188 12.304688 18.578125 C 12.277344 18.5625 12.246094 18.722656 12.238281 18.9375 C 12.226562 19.152344 12.191406 19.339844 12.152344 19.351562 C 12.117188 19.363281 12.097656 19.589844 12.109375 19.859375 L 12.128906 20.34375 L 12 20.007812 C 11.894531 19.734375 11.878906 19.40625 11.910156 18.363281 C 11.953125 16.929688 11.875 16.425781 11.496094 15.78125 C 11.386719 15.589844 11.320312 15.402344 11.351562 15.367188 C 11.386719 15.332031 11.371094 15.324219 11.320312 15.351562 C 11.203125 15.417969 10.671875 14.878906 10.757812 14.78125 C 10.792969 14.742188 10.777344 14.738281 10.71875 14.769531 C 10.664062 14.800781 10.53125 14.773438 10.421875 14.703125 C 10.234375 14.578125 9.644531 14.34375 9.304688 14.261719 C 9.214844 14.238281 8.871094 14.199219 8.546875 14.171875 C 8.222656 14.148438 7.902344 14.082031 7.835938 14.03125 C 7.769531 13.980469 7.738281 13.972656 7.765625 14.019531 C 7.832031 14.136719 6.101562 14.03125 5.671875 13.894531 C 5.132812 13.722656 4.460938 13.230469 4.195312 12.8125 C 4.058594 12.597656 3.96875 12.371094 3.992188 12.3125 C 4.015625 12.25 3.996094 12.222656 3.953125 12.25 C 3.90625 12.28125 3.867188 12.222656 3.867188 12.128906 C 3.867188 12.035156 3.867188 11.929688 3.863281 11.894531 C 3.859375 11.859375 3.894531 11.820312 3.941406 11.804688 C 3.988281 11.789062 4.074219 11.941406 4.132812 12.140625 C 4.496094 13.382812 5.390625 13.894531 7.210938 13.894531 C 7.742188 13.894531 8.160156 13.921875 8.140625 13.957031 C 8.117188 13.992188 8.339844 14.023438 8.628906 14.03125 C 9.449219 14.046875 10.949219 14.613281 10.949219 14.910156 C 10.949219 14.960938 10.980469 14.980469 11.019531 14.957031 C 11.144531 14.878906 11.605469 15.433594 11.914062 16.027344 C 12.195312 16.566406 12.214844 16.585938 12.214844 16.324219 C 12.214844 16.167969 12.113281 15.796875 11.992188 15.496094 C 11.730469 14.863281 11.230469 14.382812 10.535156 14.097656 C 10.300781 14 10.121094 13.90625 10.140625 13.886719 C 10.160156 13.867188 10.042969 13.84375 9.878906 13.835938 C 9.714844 13.828125 9.519531 13.792969 9.445312 13.761719 C 9.265625 13.6875 8.953125 13.644531 8.621094 13.644531 C 7.988281 13.648438 6.816406 13.390625 6.320312 13.140625 C 5.738281 12.84375 5.265625 12.292969 5.324219 11.980469 C 5.34375 11.875 5.328125 11.8125 5.289062 11.835938 C 5.25 11.859375 5.21875 11.671875 5.21875 11.414062 C 5.21875 11.15625 5.25 10.945312 5.292969 10.945312 C 5.335938 10.945312 5.351562 10.875 5.328125 10.789062 C 5.261719 10.53125 5.765625 9.550781 6.199219 9.082031 C 6.425781 8.84375 6.988281 8.402344 7.449219 8.097656 C 7.914062 7.792969 8.445312 7.425781 8.632812 7.277344 C 9.117188 6.886719 9.824219 6.503906 10.492188 6.273438 C 11.1875 6.03125 12.425781 5.765625 12.585938 5.828125 C 12.648438 5.851562 12.734375 5.839844 12.773438 5.804688 C 12.929688 5.65625 14.210938 5.464844 15.03125 5.464844 C 16.015625 5.464844 16.542969 5.546875 17.734375 5.882812 C 18.199219 6.015625 18.726562 6.148438 18.902344 6.175781 C 19.601562 6.296875 20.328125 6.582031 20.847656 6.9375 C 21.144531 7.140625 21.546875 7.386719 21.738281 7.484375 C 21.925781 7.582031 22.0625 7.699219 22.035156 7.742188 C 22.007812 7.785156 22.039062 7.800781 22.101562 7.777344 C 22.238281 7.726562 23.09375 8.210938 23.472656 8.558594 C 23.84375 8.902344 24.121094 9.324219 24.050781 9.445312 C 24.015625 9.503906 24.019531 9.523438 24.058594 9.488281 C 24.097656 9.453125 24.234375 9.613281 24.363281 9.839844 C 24.5 10.074219 24.8125 10.421875 25.09375 10.640625 C 25.9375 11.304688 26.207031 11.824219 26.207031 12.792969 C 26.207031 13.441406 25.996094 14.265625 25.855469 14.179688 C 25.796875 14.144531 25.785156 14.160156 25.820312 14.214844 C 26.015625 14.535156 24.574219 15.960938 23.503906 16.503906 C 23.222656 16.644531 22.929688 16.773438 22.851562 16.785156 C 22.773438 16.796875 22.660156 16.835938 22.605469 16.875 C 22.546875 16.910156 22.460938 16.914062 22.414062 16.886719 C 22.367188 16.859375 22.332031 16.871094 22.332031 16.917969 C 22.332031 17.21875 19.816406 17.3125 18.621094 17.054688 C 17.875 16.890625 16.734375 16.832031 16.511719 16.945312 C 16.445312 16.980469 16.253906 17.066406 16.09375 17.132812 C 15.472656 17.394531 15.109375 17.699219 14.59375 18.390625 C 14.382812 18.679688 13.925781 19.8125 13.8125 20.335938 C 13.753906 20.597656 13.742188 20.484375 13.769531 19.871094 Z M 15.046875 17.5625 C 15.433594 17.230469 16.175781 16.871094 16.699219 16.765625 C 17.226562 16.65625 17.953125 16.699219 18.789062 16.890625 C 19.558594 17.0625 21.242188 17.058594 21.921875 16.882812 C 22.214844 16.804688 22.496094 16.734375 22.539062 16.722656 C 22.699219 16.691406 23.667969 16.191406 23.914062 16.015625 C 24.050781 15.917969 24.195312 15.867188 24.238281 15.898438 C 24.277344 15.933594 24.285156 15.925781 24.25 15.886719 C 24.21875 15.84375 24.316406 15.710938 24.472656 15.585938 C 24.625 15.464844 24.90625 15.175781 25.097656 14.945312 C 25.289062 14.714844 25.503906 14.460938 25.574219 14.378906 C 25.644531 14.296875 25.703125 14.175781 25.703125 14.109375 C 25.703125 14.042969 25.742188 13.964844 25.789062 13.933594 C 25.835938 13.90625 25.851562 13.851562 25.828125 13.808594 C 25.804688 13.769531 25.824219 13.714844 25.871094 13.683594 C 25.917969 13.652344 25.9375 13.597656 25.917969 13.5625 C 25.894531 13.523438 25.90625 13.242188 25.941406 12.9375 C 25.980469 12.628906 25.980469 12.375 25.949219 12.375 C 25.917969 12.375 25.863281 12.238281 25.832031 12.070312 C 25.757812 11.679688 25.234375 10.859375 25.058594 10.859375 C 24.949219 10.859375 24.390625 10.253906 24.417969 10.164062 C 24.429688 10.121094 24.40625 10.109375 24.363281 10.136719 C 24.261719 10.199219 24.09375 9.988281 24.078125 9.773438 C 24.070312 9.679688 24.046875 9.617188 24.027344 9.636719 C 24.007812 9.660156 23.886719 9.507812 23.757812 9.304688 C 23.488281 8.878906 23.078125 8.464844 22.761719 8.300781 C 22.640625 8.238281 22.265625 8.03125 21.933594 7.835938 C 21.597656 7.644531 21.289062 7.488281 21.242188 7.488281 C 21.199219 7.488281 21.152344 7.457031 21.136719 7.425781 C 21.089844 7.320312 20.492188 6.898438 20.390625 6.898438 C 20.339844 6.898438 20.316406 6.867188 20.339844 6.832031 C 20.359375 6.792969 20.300781 6.757812 20.203125 6.75 C 20.105469 6.742188 20.003906 6.707031 19.976562 6.667969 C 19.949219 6.632812 19.890625 6.601562 19.84375 6.597656 C 19.695312 6.59375 18.753906 6.386719 18.535156 6.308594 C 18.421875 6.269531 18.183594 6.210938 18.007812 6.183594 C 17.832031 6.152344 17.710938 6.097656 17.734375 6.058594 C 17.757812 6.019531 17.703125 6.003906 17.609375 6.03125 C 17.515625 6.054688 17.390625 6.03125 17.328125 5.980469 C 17.265625 5.929688 17.191406 5.914062 17.160156 5.941406 C 17.128906 5.972656 17.105469 5.957031 17.105469 5.90625 C 17.105469 5.851562 17.03125 5.824219 16.945312 5.839844 C 16.859375 5.859375 16.621094 5.835938 16.417969 5.789062 C 15.847656 5.660156 14.109375 5.683594 13.308594 5.832031 C 12.914062 5.902344 12.445312 5.984375 12.265625 6.011719 C 11.296875 6.148438 10.144531 6.546875 9.460938 6.980469 C 8.214844 7.765625 6.683594 8.832031 6.414062 9.101562 C 6.058594 9.457031 5.722656 9.980469 5.722656 10.175781 C 5.722656 10.257812 5.695312 10.351562 5.664062 10.382812 C 5.476562 10.570312 5.484375 11.832031 5.675781 12.207031 C 5.796875 12.445312 6.261719 12.972656 6.335938 12.957031 C 6.347656 12.957031 6.46875 13 6.609375 13.054688 C 6.828125 13.140625 7.738281 13.292969 8.074219 13.300781 C 8.140625 13.304688 8.097656 13.230469 7.980469 13.136719 C 7.625 12.859375 7.464844 12.417969 7.527344 11.886719 C 7.628906 11.035156 8.21875 10.242188 9.140625 9.722656 C 9.371094 9.59375 9.824219 9.328125 10.148438 9.132812 C 10.851562 8.714844 12.09375 8.21875 12.308594 8.273438 C 12.390625 8.292969 12.46875 8.28125 12.484375 8.242188 C 12.527344 8.121094 14.074219 7.972656 14.785156 8.023438 C 15.527344 8.074219 17.601562 8.492188 18.433594 8.753906 C 19.066406 8.957031 19.824219 9.40625 19.746094 9.53125 C 19.714844 9.582031 19.726562 9.597656 19.773438 9.570312 C 19.863281 9.515625 20.621094 9.996094 21.074219 10.394531 C 21.472656 10.75 22.167969 11.667969 22.09375 11.746094 C 22.0625 11.785156 22.078125 11.789062 22.132812 11.757812 C 22.246094 11.695312 22.726562 12.246094 22.96875 12.714844 C 23.210938 13.1875 23.183594 14.082031 22.902344 14.617188 C 22.582031 15.230469 21.785156 15.921875 21.558594 15.78125 C 21.5 15.746094 21.484375 15.761719 21.515625 15.8125 C 21.589844 15.929688 20.671875 16.28125 20.417969 16.230469 C 20.3125 16.210938 20.246094 16.226562 20.273438 16.265625 C 20.3125 16.332031 20.023438 16.363281 19.378906 16.363281 C 19.265625 16.363281 18.695312 16.335938 18.113281 16.296875 C 16.652344 16.207031 16.109375 16.363281 15.273438 17.113281 C 15.074219 17.289062 14.941406 17.433594 14.96875 17.433594 C 15 17.433594 14.953125 17.511719 14.871094 17.601562 C 14.660156 17.835938 14.75 17.816406 15.046875 17.5625 Z M 20.476562 16.058594 C 20.589844 16.050781 20.710938 16.011719 20.742188 15.96875 C 20.769531 15.929688 20.910156 15.890625 21.046875 15.882812 C 21.1875 15.878906 21.289062 15.855469 21.277344 15.832031 C 21.261719 15.808594 21.472656 15.65625 21.742188 15.496094 C 22.101562 15.28125 22.308594 15.082031 22.5 14.761719 C 23.0625 13.835938 23.011719 13.125 22.324219 12.300781 C 22.097656 12.03125 21.941406 11.78125 21.972656 11.75 C 22.007812 11.714844 21.980469 11.699219 21.917969 11.714844 C 21.773438 11.75 21.386719 11.210938 21.460938 11.082031 C 21.488281 11.027344 21.488281 11.007812 21.460938 11.035156 C 21.429688 11.0625 21.222656 10.910156 21 10.695312 C 20.78125 10.484375 20.285156 10.105469 19.90625 9.851562 C 19.523438 9.601562 19.210938 9.363281 19.210938 9.324219 C 19.210938 9.289062 19.183594 9.265625 19.148438 9.273438 C 19.113281 9.285156 18.855469 9.207031 18.578125 9.101562 C 18.300781 8.992188 17.695312 8.835938 17.230469 8.746094 C 16.765625 8.65625 16.140625 8.527344 15.839844 8.460938 C 15.539062 8.390625 15.132812 8.335938 14.9375 8.332031 C 14.742188 8.332031 14.5625 8.292969 14.53125 8.246094 C 14.503906 8.199219 14.441406 8.179688 14.398438 8.207031 C 14.332031 8.25 13.414062 8.367188 12.507812 8.453125 C 12.371094 8.46875 12.160156 8.519531 12.046875 8.566406 C 11.617188 8.75 10.992188 8.957031 10.960938 8.933594 C 10.941406 8.917969 10.902344 8.941406 10.875 8.980469 C 10.699219 9.234375 9.074219 10.132812 8.972656 10.035156 C 8.9375 10 8.925781 10.015625 8.941406 10.066406 C 8.984375 10.207031 8.414062 10.648438 8.214844 10.632812 C 8.078125 10.621094 8.074219 10.628906 8.191406 10.660156 C 8.335938 10.703125 8.332031 10.71875 8.179688 10.972656 C 7.949219 11.359375 7.796875 12.042969 7.863281 12.40625 C 7.898438 12.59375 8.042969 12.84375 8.234375 13.039062 C 8.523438 13.339844 8.585938 13.367188 9.042969 13.378906 C 9.316406 13.386719 9.578125 13.414062 9.621094 13.441406 C 9.664062 13.46875 9.640625 13.375 9.566406 13.234375 C 9.40625 12.921875 9.398438 12.851562 9.539062 12.933594 C 9.59375 12.96875 9.570312 12.914062 9.484375 12.8125 C 9.363281 12.675781 9.351562 12.628906 9.441406 12.628906 C 9.535156 12.628906 9.535156 12.613281 9.433594 12.546875 C 9.363281 12.5 9.34375 12.464844 9.390625 12.460938 C 9.4375 12.460938 9.476562 12.328125 9.480469 12.164062 C 9.484375 12 9.5625 11.765625 9.65625 11.640625 C 9.917969 11.289062 10.40625 10.929688 10.640625 10.914062 C 10.757812 10.90625 10.835938 10.886719 10.816406 10.867188 C 10.796875 10.847656 11.003906 10.703125 11.277344 10.550781 C 11.808594 10.25 12.726562 9.976562 12.976562 10.042969 C 13.0625 10.066406 13.144531 10.046875 13.160156 10 C 13.207031 9.855469 14.925781 9.898438 15.582031 10.058594 C 15.90625 10.136719 16.175781 10.226562 16.175781 10.257812 C 16.175781 10.289062 16.28125 10.316406 16.410156 10.320312 C 16.769531 10.335938 17.367188 10.523438 17.316406 10.601562 C 17.292969 10.640625 17.34375 10.65625 17.433594 10.632812 C 17.699219 10.5625 18.574219 11.09375 19.085938 11.628906 C 19.347656 11.898438 19.535156 12.160156 19.503906 12.210938 C 19.476562 12.257812 19.484375 12.285156 19.519531 12.273438 C 19.636719 12.238281 20.410156 13.121094 20.351562 13.21875 C 20.320312 13.265625 20.324219 13.296875 20.363281 13.285156 C 20.402344 13.273438 20.449219 13.300781 20.46875 13.347656 C 20.488281 13.394531 20.554688 13.480469 20.617188 13.542969 C 20.722656 13.648438 20.75 13.84375 20.746094 14.441406 C 20.746094 14.863281 20.730469 14.917969 20.644531 14.863281 C 20.597656 14.835938 20.582031 14.867188 20.609375 14.933594 C 20.722656 15.234375 19.757812 15.976562 19.210938 16.011719 C 19.046875 16.019531 19.066406 16.035156 19.296875 16.078125 C 19.457031 16.109375 19.742188 16.121094 19.925781 16.105469 C 20.113281 16.089844 20.359375 16.066406 20.476562 16.058594 Z M 18.914062 15.785156 C 19.007812 15.785156 19.238281 15.75 19.421875 15.707031 C 19.605469 15.667969 19.796875 15.644531 19.84375 15.65625 C 19.890625 15.667969 19.902344 15.65625 19.875 15.625 C 19.84375 15.597656 19.925781 15.46875 20.054688 15.339844 C 20.285156 15.109375 20.472656 14.625 20.476562 14.265625 C 20.476562 13.914062 20.277344 13.507812 19.929688 13.136719 C 19.730469 12.925781 19.414062 12.539062 19.222656 12.273438 C 18.578125 11.386719 17.496094 10.742188 16.445312 10.621094 C 16.382812 10.613281 16.355469 10.570312 16.382812 10.527344 C 16.410156 10.480469 16.351562 10.460938 16.25 10.484375 C 16.011719 10.527344 15.660156 10.441406 15.714844 10.351562 C 15.734375 10.316406 15.671875 10.304688 15.574219 10.332031 C 15.472656 10.359375 15.414062 10.347656 15.4375 10.304688 C 15.464844 10.261719 15.347656 10.226562 15.175781 10.222656 C 15.007812 10.21875 14.566406 10.207031 14.195312 10.199219 C 13.523438 10.179688 12.640625 10.320312 12.003906 10.546875 C 11.816406 10.613281 11.613281 10.648438 11.550781 10.625 C 11.484375 10.601562 11.453125 10.621094 11.480469 10.664062 C 11.507812 10.703125 11.242188 10.890625 10.894531 11.074219 C 10.300781 11.382812 9.769531 11.847656 9.769531 12.046875 C 9.769531 12.09375 9.738281 12.113281 9.703125 12.09375 C 9.664062 12.070312 9.640625 12.289062 9.652344 12.582031 C 9.667969 13.203125 9.835938 13.515625 10.1875 13.585938 C 10.320312 13.613281 10.621094 13.726562 10.851562 13.835938 L 11.269531 14.039062 L 11.320312 13.789062 C 11.382812 13.472656 11.800781 13.082031 12.199219 12.96875 C 12.785156 12.800781 13.464844 12.765625 13.621094 12.890625 C 13.722656 12.976562 13.746094 12.980469 13.699219 12.898438 C 13.652344 12.820312 13.683594 12.800781 13.828125 12.832031 C 13.9375 12.851562 14.140625 12.890625 14.28125 12.914062 C 14.703125 12.980469 15.507812 13.3125 15.457031 13.394531 C 15.429688 13.4375 15.46875 13.449219 15.539062 13.421875 C 15.617188 13.390625 15.691406 13.425781 15.722656 13.503906 C 15.75 13.578125 15.800781 13.621094 15.839844 13.597656 C 15.875 13.578125 16.117188 13.785156 16.375 14.066406 C 16.96875 14.703125 17.113281 15.152344 16.902344 15.664062 C 16.855469 15.773438 16.976562 15.789062 17.742188 15.769531 C 18.402344 15.753906 18.617188 15.773438 18.570312 15.84375 C 18.527344 15.914062 18.546875 15.921875 18.628906 15.867188 C 18.695312 15.824219 18.824219 15.789062 18.914062 15.785156 Z M 21.296875 17.882812 C 21.402344 17.859375 21.574219 17.859375 21.675781 17.882812 C 21.78125 17.902344 21.695312 17.917969 21.488281 17.917969 C 21.277344 17.917969 21.191406 17.902344 21.296875 17.882812 Z M 22.160156 17.859375 C 22.226562 17.816406 22.429688 17.753906 22.609375 17.726562 C 22.785156 17.695312 23.152344 17.582031 23.425781 17.476562 C 23.699219 17.371094 23.941406 17.304688 23.96875 17.332031 C 23.996094 17.355469 24.015625 17.335938 24.015625 17.28125 C 24.015625 17.226562 24.054688 17.183594 24.105469 17.183594 C 24.296875 17.183594 25.695312 16.15625 26.203125 15.636719 C 26.503906 15.332031 26.789062 15.109375 26.835938 15.136719 C 26.882812 15.164062 26.898438 15.160156 26.871094 15.125 C 26.839844 15.09375 26.941406 14.855469 27.097656 14.597656 C 27.253906 14.339844 27.421875 13.914062 27.472656 13.652344 C 27.523438 13.390625 27.597656 13.074219 27.636719 12.945312 C 27.679688 12.816406 27.683594 12.730469 27.648438 12.753906 C 27.59375 12.785156 27.566406 12.585938 27.523438 11.816406 C 27.519531 11.714844 27.5 11.648438 27.480469 11.667969 C 27.460938 11.6875 27.339844 11.515625 27.210938 11.289062 C 27.078125 11.0625 26.6875 10.621094 26.339844 10.308594 C 25.820312 9.839844 25.648438 9.617188 25.367188 9.042969 C 24.917969 8.121094 24.464844 7.71875 23.128906 7.058594 C 22.558594 6.777344 21.890625 6.371094 21.640625 6.160156 C 21.210938 5.789062 20.449219 5.386719 20.097656 5.339844 C 19.347656 5.242188 18.285156 4.96875 18.285156 4.878906 C 18.285156 4.851562 18.21875 4.820312 18.136719 4.8125 C 18.054688 4.804688 17.703125 4.714844 17.355469 4.613281 C 16.101562 4.25 13.886719 4.316406 12.84375 4.753906 C 12.507812 4.894531 12.214844 4.910156 12.214844 4.789062 C 12.214844 4.742188 12.265625 4.707031 12.328125 4.707031 C 12.390625 4.707031 12.753906 4.605469 13.132812 4.488281 C 13.515625 4.367188 13.847656 4.289062 13.875 4.316406 C 13.902344 4.339844 13.984375 4.332031 14.058594 4.292969 C 14.324219 4.152344 15.257812 4.101562 15.398438 4.21875 C 15.503906 4.300781 15.519531 4.304688 15.46875 4.21875 C 15.421875 4.136719 15.53125 4.125 15.980469 4.164062 C 16.296875 4.191406 16.578125 4.230469 16.609375 4.25 C 16.636719 4.265625 16.808594 4.304688 16.988281 4.332031 C 17.167969 4.363281 17.332031 4.410156 17.355469 4.441406 C 17.378906 4.46875 17.496094 4.5 17.617188 4.507812 C 17.734375 4.515625 17.980469 4.585938 18.164062 4.667969 C 18.347656 4.746094 18.550781 4.824219 18.621094 4.835938 C 20.027344 5.097656 21 5.363281 20.933594 5.472656 C 20.910156 5.511719 20.941406 5.527344 21.007812 5.5 C 21.070312 5.476562 21.433594 5.6875 21.816406 5.96875 C 22.199219 6.253906 22.878906 6.675781 23.328125 6.914062 C 24.265625 7.40625 24.839844 7.804688 25.15625 8.179688 C 25.382812 8.449219 25.824219 9.257812 25.742188 9.257812 C 25.714844 9.257812 25.773438 9.339844 25.871094 9.445312 C 25.964844 9.546875 26.027344 9.679688 26.003906 9.734375 C 25.976562 9.800781 26.011719 9.820312 26.101562 9.785156 C 26.203125 9.746094 26.222656 9.769531 26.179688 9.882812 C 26.140625 9.980469 26.160156 10.019531 26.230469 9.992188 C 26.390625 9.9375 27.402344 11.015625 27.636719 11.492188 C 27.800781 11.828125 27.847656 12.0625 27.859375 12.652344 C 27.871094 13.054688 27.84375 13.386719 27.804688 13.386719 C 27.761719 13.386719 27.75 13.441406 27.773438 13.503906 C 27.800781 13.570312 27.753906 13.769531 27.675781 13.949219 C 27.59375 14.125 27.527344 14.300781 27.523438 14.332031 C 27.519531 14.363281 27.46875 14.4375 27.410156 14.496094 C 27.351562 14.554688 27.304688 14.632812 27.304688 14.667969 C 27.304688 14.765625 27.078125 15.039062 26.460938 15.6875 C 25.644531 16.542969 24.222656 17.445312 23.226562 17.730469 C 22.644531 17.898438 21.96875 17.980469 22.160156 17.859375 Z M 13.289062 16.394531 C 13.253906 16.308594 13.226562 16.128906 13.226562 15.996094 C 13.226562 15.859375 13.152344 15.554688 13.058594 15.3125 C 12.835938 14.726562 12.902344 14.703125 13.179688 15.269531 C 13.351562 15.617188 13.398438 15.828125 13.378906 16.140625 C 13.359375 16.421875 13.332031 16.5 13.289062 16.394531 Z M 3.785156 11.539062 C 3.785156 11.40625 3.832031 11.277344 3.890625 11.253906 C 3.964844 11.222656 3.964844 11.207031 3.894531 11.203125 C 3.78125 11.195312 3.832031 10.578125 3.949219 10.539062 C 3.992188 10.523438 4.007812 10.457031 3.984375 10.394531 C 3.9375 10.273438 4.269531 9.46875 4.472656 9.203125 C 4.808594 8.769531 5.585938 8.066406 6.121094 7.71875 C 6.457031 7.5 6.75 7.320312 6.773438 7.320312 C 6.820312 7.320312 7.097656 7.097656 7.3125 6.890625 C 7.390625 6.816406 7.601562 6.648438 7.789062 6.511719 C 7.972656 6.375 8.152344 6.226562 8.1875 6.179688 C 8.222656 6.132812 8.25 6.125 8.25 6.15625 C 8.25 6.1875 8.351562 6.121094 8.472656 6.007812 C 8.59375 5.898438 8.722656 5.824219 8.757812 5.84375 C 8.792969 5.867188 8.871094 5.828125 8.925781 5.757812 C 8.984375 5.691406 9.0625 5.65625 9.105469 5.679688 C 9.144531 5.707031 9.179688 5.695312 9.179688 5.652344 C 9.179688 5.496094 10.785156 4.945312 11.015625 5.023438 C 11.074219 5.042969 11.175781 5.015625 11.234375 4.964844 C 11.390625 4.835938 12.128906 4.742188 12.128906 4.851562 C 12.128906 4.902344 11.949219 4.964844 11.730469 4.996094 C 10.160156 5.214844 8.980469 5.800781 7.03125 7.328125 C 6.796875 7.507812 6.558594 7.636719 6.5 7.613281 C 6.4375 7.59375 6.410156 7.605469 6.433594 7.644531 C 6.457031 7.6875 6.28125 7.851562 6.039062 8.015625 C 5.460938 8.398438 4.796875 9.058594 4.585938 9.453125 C 4.496094 9.625 4.390625 9.761719 4.359375 9.761719 C 4.324219 9.761719 4.316406 9.816406 4.339844 9.878906 C 4.363281 9.941406 4.335938 10.046875 4.273438 10.109375 C 4.214844 10.175781 4.160156 10.304688 4.152344 10.394531 C 4.148438 10.488281 4.121094 10.679688 4.097656 10.816406 C 4.070312 10.957031 4.046875 11.207031 4.042969 11.378906 C 4.035156 11.761719 3.785156 11.917969 3.785156 11.539062 Z M 3.785156 11.539062 "/>
</g>
</svg>
