<?xml version="1.0" encoding="UTF-8"?>
<svg xmlns="http://www.w3.org/2000/svg" xmlns:xlink="http://www.w3.org/1999/xlink" width="128px" height="128px" viewBox="0 0 128 128" version="1.1">
<g id="surface1">
<path style=" stroke:none;fill-rule:nonzero;fill:rgb(38.431373%,38.431373%,38.431373%);fill-opacity:1;" d="M 58.867188 116.726562 C 58.769531 116.632812 57.324219 116.566406 55.652344 116.578125 C 53.039062 116.597656 52.59375 116.519531 52.460938 116.015625 C 52.316406 115.46875 52.304688 115.46875 52.269531 116.023438 C 52.234375 116.511719 52.027344 116.582031 51.132812 116.410156 C 50.53125 116.296875 49.382812 116.21875 48.582031 116.242188 C 47.664062 116.265625 47.207031 116.152344 47.339844 115.933594 C 47.457031 115.742188 47.683594 115.667969 47.84375 115.765625 C 48.003906 115.867188 48.222656 115.808594 48.328125 115.636719 C 48.433594 115.46875 48.972656 115.359375 49.53125 115.398438 C 50.085938 115.4375 50.542969 115.347656 50.542969 115.195312 C 50.542969 115.046875 51.011719 114.925781 51.589844 114.925781 L 52.636719 114.925781 L 51.546875 113.683594 C 50.332031 112.300781 49.539062 110.632812 49.53125 109.460938 C 49.53125 109.035156 49.515625 108.304688 49.496094 107.84375 C 49.476562 107.378906 49.582031 105.710938 49.730469 104.132812 C 50.339844 97.632812 49.578125 94.5 45.8125 88.058594 C 45.105469 86.847656 44.582031 85.5625 44.648438 85.207031 C 44.71875 84.851562 44.640625 84.640625 44.480469 84.742188 C 44.171875 84.929688 44.019531 84.546875 43.601562 82.554688 C 43.34375 81.320312 43.363281 73.878906 43.625 73.453125 C 43.890625 73.023438 43.132812 68.941406 42.527344 67.546875 C 41.460938 65.085938 39.179688 63.601562 35.28125 62.835938 C 32.773438 62.34375 28.195312 61.96875 24.914062 61.988281 C 21.167969 62.015625 16.675781 60.203125 13.75 57.484375 C 12.003906 55.859375 10.679688 54.078125 10.988281 53.769531 C 11.105469 53.648438 11.046875 53.554688 10.855469 53.554688 C 10.199219 53.554688 9.453125 49.71875 9.414062 46.136719 C 9.371094 42.3125 10.269531 38.292969 11.351562 37.453125 C 11.648438 37.21875 11.785156 37.03125 11.652344 37.03125 C 11.523438 37.03125 11.742188 36.390625 12.140625 35.605469 C 13.070312 33.78125 17.601562 29.28125 19.332031 28.464844 C 20.0625 28.117188 20.820312 27.699219 21.015625 27.53125 C 21.214844 27.367188 22.4375 26.53125 23.734375 25.675781 C 25.035156 24.820312 26.316406 23.800781 26.582031 23.410156 C 27.53125 22.03125 29.285156 20.460938 29.636719 20.675781 C 29.832031 20.796875 29.949219 20.714844 29.898438 20.5 C 29.785156 20.011719 33.6875 17.753906 34.273438 17.972656 C 34.503906 18.054688 34.695312 18.003906 34.695312 17.851562 C 34.695312 17.308594 48.921875 13.554688 49.535156 13.933594 C 49.6875 14.027344 49.863281 13.976562 49.921875 13.816406 C 50.128906 13.292969 56.398438 11.652344 58.585938 11.546875 C 59.765625 11.492188 60.796875 11.378906 60.878906 11.296875 C 61.253906 10.921875 66.203125 11.503906 71.617188 12.558594 C 71.988281 12.632812 74.492188 13.25 77.179688 13.933594 C 79.871094 14.617188 82.375 15.21875 82.746094 15.273438 C 83.730469 15.410156 85.390625 15.851562 85.78125 16.078125 C 85.964844 16.183594 86.386719 16.316406 86.71875 16.367188 C 87.671875 16.515625 90.667969 18.125 90.667969 18.492188 C 90.667969 18.671875 90.828125 18.820312 91.019531 18.820312 C 91.410156 18.820312 95.492188 22.121094 95.671875 22.578125 C 95.734375 22.738281 96 22.867188 96.261719 22.867188 C 96.816406 22.867188 101.046875 25.082031 102.988281 26.386719 C 104.730469 27.558594 107.59375 30.582031 107.347656 30.984375 C 107.238281 31.15625 107.308594 31.296875 107.503906 31.296875 C 107.695312 31.296875 108.175781 31.945312 108.574219 32.730469 C 108.96875 33.519531 109.648438 34.640625 110.082031 35.21875 C 110.515625 35.796875 110.765625 36.390625 110.632812 36.539062 C 110.503906 36.683594 110.5625 36.707031 110.769531 36.589844 C 111.15625 36.367188 115.238281 40.40625 116.597656 42.355469 C 117.023438 42.964844 117.28125 43.691406 117.175781 43.972656 C 117.066406 44.253906 117.117188 44.398438 117.289062 44.292969 C 117.96875 43.875 118.796875 49.210938 118.539062 52.328125 C 118.429688 53.652344 118.335938 55.007812 118.328125 55.34375 C 118.324219 55.71875 118.167969 55.859375 117.929688 55.714844 C 117.6875 55.5625 117.632812 55.621094 117.785156 55.871094 C 118.113281 56.398438 117.675781 58.332031 117.285156 58.089844 C 117.117188 57.988281 117.066406 58.132812 117.175781 58.410156 C 117.410156 59.03125 116 62.167969 114.960938 63.332031 C 114.546875 63.796875 114.007812 64.554688 113.765625 65.019531 C 113.199219 66.085938 107.742188 71.3125 105.988281 72.460938 C 105.257812 72.941406 104.027344 73.75 103.25 74.265625 C 102.441406 74.800781 101.660156 75.089844 101.425781 74.945312 C 101.183594 74.796875 101.105469 74.835938 101.234375 75.042969 C 101.429688 75.359375 99.746094 76.289062 98.929688 76.308594 C 98.746094 76.3125 98.289062 76.492188 97.917969 76.703125 C 97.546875 76.917969 97.09375 77.125 96.90625 77.164062 C 96.722656 77.207031 96.191406 77.390625 95.726562 77.578125 C 95.265625 77.765625 94.105469 77.9375 93.148438 77.960938 C 92.195312 77.980469 91.484375 78.113281 91.566406 78.253906 C 92.035156 79.027344 81.707031 77.972656 80.710938 77.148438 C 80.496094 76.972656 80.222656 76.925781 80.101562 77.046875 C 79.980469 77.171875 79.878906 77.085938 79.878906 76.855469 C 79.878906 76.628906 79.726562 76.539062 79.542969 76.652344 C 79.355469 76.765625 79.015625 76.742188 78.78125 76.597656 C 78.550781 76.453125 78.070312 76.289062 77.714844 76.234375 C 77.355469 76.179688 76.863281 75.964844 76.617188 75.761719 C 76.371094 75.554688 76.167969 75.484375 76.167969 75.601562 C 76.167969 75.722656 75.675781 75.613281 75.074219 75.363281 C 74.472656 75.109375 73.789062 74.96875 73.554688 75.046875 C 73.324219 75.125 73.136719 75.0625 73.136719 74.910156 C 73.136719 74.753906 71.921875 74.679688 70.4375 74.738281 C 68.882812 74.800781 67.738281 74.996094 67.738281 75.195312 C 67.738281 75.386719 67.480469 75.445312 67.160156 75.320312 C 66.839844 75.199219 66.667969 75.1875 66.777344 75.296875 C 66.886719 75.40625 66.519531 75.984375 65.957031 76.578125 C 64.789062 77.824219 63.710938 80.003906 63.699219 81.140625 C 63.695312 81.566406 63.578125 81.847656 63.441406 81.761719 C 63.078125 81.539062 63.238281 85.4375 63.695312 87.980469 C 63.910156 89.167969 64.667969 91.847656 65.382812 93.933594 C 66.210938 96.351562 66.535156 97.730469 66.285156 97.730469 C 66.050781 97.734375 66.09375 97.871094 66.390625 98.0625 C 66.667969 98.242188 66.765625 98.394531 66.601562 98.394531 C 66.441406 98.398438 66.496094 98.628906 66.726562 98.90625 C 66.960938 99.183594 67.035156 99.414062 66.898438 99.414062 C 66.757812 99.414062 66.808594 99.609375 67.011719 99.851562 C 67.613281 100.578125 68.171875 105.144531 67.976562 107.75 C 67.800781 110.0625 67.058594 112.070312 65.796875 113.617188 C 65.199219 114.351562 65.867188 114.609375 68.75 114.757812 C 72.214844 114.933594 72.523438 114.964844 74.484375 115.355469 C 75.503906 115.554688 76.515625 115.691406 76.734375 115.652344 C 76.953125 115.613281 77.226562 115.734375 77.34375 115.925781 C 77.460938 116.117188 77.285156 116.277344 76.949219 116.28125 C 69.6875 116.402344 59.722656 116.683594 59.425781 116.777344 C 59.214844 116.84375 58.960938 116.824219 58.867188 116.726562 Z M 57.640625 111.464844 C 59.21875 110.402344 59.894531 109.070312 60.429688 105.972656 C 60.835938 103.589844 60.917969 103.410156 61.136719 104.378906 C 61.273438 104.976562 61.273438 105.644531 61.136719 105.863281 C 60.984375 106.113281 61.035156 106.171875 61.28125 106.019531 C 61.550781 105.851562 61.671875 106.222656 61.679688 107.234375 C 61.691406 108.503906 61.742188 108.601562 62.082031 108.011719 C 62.742188 106.878906 62.523438 102.214844 61.695312 99.75 C 60.613281 96.53125 59.347656 91.996094 59.535156 91.996094 C 59.621094 91.996094 60.371094 93.472656 61.195312 95.28125 C 62.023438 97.089844 62.851562 98.839844 63.039062 99.171875 C 63.226562 99.503906 63.273438 99.960938 63.144531 100.183594 C 63.015625 100.414062 63.042969 100.472656 63.210938 100.320312 C 63.375 100.171875 63.691406 100.550781 63.917969 101.164062 C 64.316406 102.246094 64.328125 102.222656 64.265625 100.34375 C 64.230469 99.277344 64.117188 98.40625 64.015625 98.402344 C 63.722656 98.398438 62.992188 95.347656 63.203125 95.003906 C 63.308594 94.832031 63.25 94.691406 63.074219 94.691406 C 62.6875 94.691406 61.152344 90.582031 60.523438 87.871094 C 60.277344 86.8125 60.207031 86.023438 60.367188 86.121094 C 60.527344 86.222656 60.660156 86.152344 60.660156 85.972656 C 60.660156 85.792969 60.507812 85.59375 60.324219 85.53125 C 60.140625 85.46875 59.972656 84.246094 59.949219 82.808594 C 59.910156 80.144531 59.511719 79.621094 59.117188 81.71875 C 58.996094 82.359375 58.777344 82.808594 58.628906 82.71875 C 58.480469 82.625 58.441406 82.855469 58.539062 83.226562 C 58.632812 83.597656 58.574219 83.902344 58.40625 83.902344 C 58.234375 83.902344 58.148438 84.46875 58.214844 85.167969 C 58.308594 86.210938 58.265625 86.324219 57.949219 85.824219 C 57.230469 84.671875 57.160156 81.738281 57.804688 79.691406 C 58.136719 78.632812 58.613281 77.691406 58.859375 77.597656 C 59.105469 77.5 59.234375 77.308594 59.144531 77.164062 C 59.058594 77.023438 59.347656 76.515625 59.785156 76.039062 C 60.226562 75.566406 60.515625 75.105469 60.429688 75.019531 C 60.34375 74.933594 61.074219 74.253906 62.050781 73.507812 C 63.65625 72.285156 63.867188 72.207031 64.242188 72.71875 C 64.617188 73.226562 64.648438 73.21875 64.597656 72.613281 C 64.515625 71.726562 66.246094 71.132812 68.976562 71.105469 C 71.28125 71.085938 73.558594 71.585938 78.921875 73.296875 C 80.898438 73.929688 83.605469 74.613281 84.941406 74.820312 C 87.214844 75.171875 93.238281 75.109375 93.90625 74.722656 C 94.074219 74.628906 95.253906 74.207031 96.53125 73.789062 C 98.777344 73.050781 103.0625 70.847656 104.21875 69.832031 C 104.535156 69.558594 104.972656 69.449219 105.199219 69.589844 C 105.457031 69.746094 105.523438 69.703125 105.378906 69.472656 C 105.253906 69.265625 105.425781 68.949219 105.761719 68.769531 C 106.101562 68.589844 107.582031 67.195312 109.058594 65.667969 C 112.949219 61.644531 112.949219 61.648438 112.671875 61.636719 C 112.53125 61.628906 112.648438 61.441406 112.929688 61.214844 C 113.210938 60.988281 113.910156 59.78125 114.480469 58.535156 C 115.054688 57.285156 115.617188 56.359375 115.730469 56.472656 C 115.84375 56.585938 115.878906 56.375 115.808594 56 C 115.734375 55.625 115.824219 54.65625 116.007812 53.847656 C 116.421875 52.007812 116.585938 46.796875 116.226562 47.023438 C 116.078125 47.113281 115.960938 46.949219 115.960938 46.65625 C 115.960938 45.566406 114.542969 43.207031 112.753906 41.308594 C 111.734375 40.226562 110.902344 39.195312 110.902344 39.011719 C 110.902344 38.828125 110.746094 38.773438 110.558594 38.890625 C 110.367188 39.007812 110.007812 38.613281 109.757812 38.019531 C 109.5 37.40625 109.238281 37.128906 109.15625 37.382812 C 109.070312 37.628906 108.453125 36.941406 107.757812 35.828125 C 107.070312 34.730469 106.585938 33.632812 106.675781 33.390625 C 106.769531 33.148438 106.71875 33.027344 106.5625 33.125 C 106.40625 33.222656 106.105469 32.921875 105.894531 32.453125 C 105.304688 31.160156 102.496094 28.308594 100.882812 27.359375 C 100.085938 26.894531 99.4375 26.367188 99.4375 26.1875 C 99.4375 26.011719 99.273438 25.964844 99.078125 26.085938 C 98.882812 26.207031 98.464844 26.09375 98.152344 25.832031 C 97.839844 25.570312 96.910156 25.0625 96.089844 24.707031 C 94.3125 23.9375 91.21875 21.558594 91.066406 20.84375 C 91.007812 20.566406 90.808594 20.1875 90.625 20.003906 C 90.40625 19.78125 90.378906 19.894531 90.546875 20.335938 C 90.777344 20.933594 90.691406 20.914062 89.769531 20.167969 C 89.199219 19.707031 88.796875 19.214844 88.875 19.078125 C 88.953125 18.941406 88.757812 18.929688 88.441406 19.050781 C 88.015625 19.214844 87.933594 19.15625 88.136719 18.828125 C 88.320312 18.53125 88.28125 18.460938 88.03125 18.617188 C 87.820312 18.746094 87.304688 18.664062 86.882812 18.4375 C 86.460938 18.207031 85.890625 17.976562 85.613281 17.925781 C 83.664062 17.566406 81.566406 16.964844 81.566406 16.765625 C 81.566406 16.632812 81.296875 16.59375 80.96875 16.679688 C 80.640625 16.765625 79.691406 16.671875 78.859375 16.46875 C 78.03125 16.269531 77.03125 16.035156 76.644531 15.949219 C 76.253906 15.863281 74.734375 15.394531 73.269531 14.910156 C 71.804688 14.421875 70.378906 13.996094 70.101562 13.957031 C 69.820312 13.921875 69.0625 13.789062 68.414062 13.664062 C 65.78125 13.164062 64.382812 13.054688 61.164062 13.097656 C 57.328125 13.152344 55.984375 13.25 55.261719 13.535156 C 52.386719 14.667969 45.238281 16.828125 44.652344 16.742188 C 44.460938 16.714844 44.078125 16.773438 43.796875 16.871094 C 43.519531 16.964844 41.851562 17.375 40.089844 17.78125 C 35.207031 18.898438 31.992188 20.605469 28.960938 23.691406 C 26.027344 26.675781 24.117188 28.097656 23.535156 27.738281 C 23.289062 27.585938 23.210938 27.625 23.339844 27.835938 C 23.460938 28.027344 23.066406 28.382812 22.464844 28.628906 C 20.296875 29.503906 14.824219 34.136719 14.804688 35.113281 C 14.800781 35.261719 14.625 35.277344 14.410156 35.144531 C 14.195312 35.011719 14.109375 35.050781 14.222656 35.226562 C 14.332031 35.40625 14.046875 36.210938 13.589844 37.011719 C 12.476562 38.976562 11.425781 42.253906 11.425781 43.773438 C 11.425781 44.453125 11.320312 45.117188 11.191406 45.246094 C 10.855469 45.582031 10.765625 46.472656 11.066406 46.472656 C 11.207031 46.472656 11.335938 47.042969 11.351562 47.738281 C 11.382812 49.144531 11.535156 49.910156 12.0625 51.277344 C 12.261719 51.789062 12.3125 52.207031 12.179688 52.210938 C 12.042969 52.210938 12.09375 52.328125 12.289062 52.460938 C 12.484375 52.597656 13.082031 53.296875 13.621094 54.011719 C 14.15625 54.726562 15.246094 55.804688 16.035156 56.410156 C 16.828125 57.015625 17.367188 57.628906 17.234375 57.777344 C 17.101562 57.925781 17.160156 57.949219 17.363281 57.832031 C 17.566406 57.71875 18.527344 57.910156 19.492188 58.265625 C 20.460938 58.617188 22.722656 59.097656 24.515625 59.328125 C 26.3125 59.558594 27.894531 59.90625 28.03125 60.105469 C 28.203125 60.359375 28.277344 60.359375 28.28125 60.101562 C 28.292969 59.410156 35.683594 59.964844 38.191406 60.847656 C 40.132812 61.527344 42.1875 62.941406 41.902344 63.398438 C 41.773438 63.613281 41.824219 63.679688 42.023438 63.558594 C 42.214844 63.4375 42.5625 63.566406 42.789062 63.84375 C 43.019531 64.117188 43.082031 64.34375 42.933594 64.34375 C 42.78125 64.34375 42.90625 64.535156 43.210938 64.765625 C 43.511719 64.996094 44.105469 66.023438 44.523438 67.042969 C 45.222656 68.753906 45.28125 69.433594 45.296875 75.808594 C 45.3125 80.90625 45.433594 82.925781 45.761719 83.507812 C 46.007812 83.9375 46.117188 84.539062 46 84.84375 C 45.882812 85.148438 45.894531 85.289062 46.03125 85.152344 C 46.359375 84.828125 49.894531 91.367188 49.695312 91.925781 C 49.609375 92.167969 49.664062 92.289062 49.816406 92.195312 C 50.191406 91.960938 51.3125 95.613281 51.015625 96.097656 C 50.878906 96.316406 50.921875 96.390625 51.121094 96.269531 C 51.664062 95.933594 51.960938 99.730469 51.699219 103.652344 C 51.535156 106.070312 51.347656 107.085938 51.085938 106.941406 C 50.878906 106.828125 50.902344 106.9375 51.132812 107.1875 C 51.363281 107.4375 51.554688 107.964844 51.554688 108.367188 C 51.554688 111.644531 54.867188 113.335938 57.640625 111.464844 Z M 55.074219 79.488281 C 55.214844 75.929688 56.378906 71.238281 57.019531 71.636719 C 57.230469 71.769531 57.296875 71.714844 57.167969 71.507812 C 56.878906 71.035156 57.273438 70.027344 57.65625 70.265625 C 57.820312 70.367188 57.871094 70.230469 57.765625 69.960938 C 57.367188 68.925781 61.707031 65.089844 64.253906 64.226562 C 65.160156 63.917969 65.722656 63.441406 66.136719 62.632812 C 66.460938 61.996094 66.726562 61.691406 66.726562 61.957031 C 66.726562 62.21875 66.820312 62.34375 66.929688 62.230469 C 67.042969 62.121094 67.007812 61.828125 66.855469 61.585938 C 66.703125 61.339844 66.535156 60.867188 66.484375 60.53125 C 66.234375 58.929688 63.894531 56.140625 61.4375 54.519531 C 59.402344 53.175781 56.257812 52.390625 52.902344 52.382812 C 50.101562 52.375 49.511719 52.480469 48.199219 53.214844 C 47.375 53.679688 46.398438 54.574219 46.035156 55.203125 C 45.378906 56.328125 45.378906 56.351562 46.015625 56.828125 C 46.371094 57.09375 46.621094 57.460938 46.570312 57.648438 C 46.519531 57.835938 46.621094 57.902344 46.789062 57.792969 C 47.148438 57.574219 48.953125 59.523438 49.65625 60.890625 C 50.417969 62.375 50.902344 64.394531 50.433594 64.128906 C 50.171875 63.984375 50.179688 64.0625 50.457031 64.363281 C 50.691406 64.613281 50.882812 65.277344 50.886719 65.84375 C 50.894531 67.234375 49.472656 74.464844 49.222656 74.3125 C 49.113281 74.246094 48.992188 74.898438 48.949219 75.757812 C 48.910156 76.617188 48.757812 77.359375 48.613281 77.40625 C 48.46875 77.453125 48.386719 78.367188 48.429688 79.433594 L 48.507812 81.371094 L 47.992188 80.023438 C 47.578125 78.945312 47.507812 77.628906 47.636719 73.449219 C 47.816406 67.71875 47.492188 65.699219 45.988281 63.132812 C 45.539062 62.363281 45.277344 61.613281 45.410156 61.46875 C 45.542969 61.320312 45.488281 61.296875 45.285156 61.410156 C 44.820312 61.675781 42.683594 59.507812 43.035156 59.125 C 43.175781 58.96875 43.105469 58.945312 42.878906 59.078125 C 42.652344 59.207031 42.121094 59.085938 41.695312 58.808594 C 40.941406 58.3125 38.574219 57.378906 37.222656 57.042969 C 36.851562 56.953125 35.488281 56.792969 34.1875 56.691406 C 32.890625 56.585938 31.609375 56.332031 31.339844 56.125 C 31.074219 55.914062 30.945312 55.898438 31.054688 56.082031 C 31.332031 56.546875 24.410156 56.128906 22.691406 55.582031 C 20.523438 54.886719 17.847656 52.921875 16.785156 51.246094 C 16.242188 50.390625 15.875 49.492188 15.96875 49.246094 C 16.0625 49 15.992188 48.890625 15.808594 49.003906 C 15.625 49.117188 15.472656 48.898438 15.472656 48.515625 C 15.472656 48.132812 15.460938 47.710938 15.449219 47.578125 C 15.433594 47.441406 15.578125 47.28125 15.765625 47.21875 C 15.953125 47.15625 16.296875 47.757812 16.53125 48.558594 C 17.976562 53.535156 21.558594 55.578125 28.84375 55.578125 C 30.96875 55.578125 32.640625 55.691406 32.558594 55.828125 C 32.472656 55.96875 33.351562 56.101562 34.507812 56.121094 C 37.796875 56.179688 43.796875 58.460938 43.796875 59.648438 C 43.796875 59.839844 43.925781 59.921875 44.082031 59.824219 C 44.574219 59.519531 46.414062 61.726562 47.660156 64.117188 C 48.78125 66.269531 48.855469 66.34375 48.859375 65.296875 C 48.859375 64.679688 48.457031 63.1875 47.960938 61.984375 C 46.917969 59.445312 44.925781 57.527344 42.144531 56.390625 C 41.199219 56.003906 40.488281 55.625 40.566406 55.546875 C 40.640625 55.472656 40.167969 55.378906 39.515625 55.34375 C 38.859375 55.308594 38.078125 55.175781 37.773438 55.050781 C 37.066406 54.75 35.816406 54.570312 34.480469 54.578125 C 31.953125 54.585938 27.265625 53.558594 25.285156 52.558594 C 22.953125 51.382812 21.0625 49.175781 21.300781 47.917969 C 21.382812 47.503906 21.316406 47.246094 21.15625 47.34375 C 21 47.445312 20.867188 46.679688 20.867188 45.648438 C 20.867188 44.617188 21.007812 43.773438 21.175781 43.773438 C 21.34375 43.773438 21.40625 43.492188 21.316406 43.152344 C 21.050781 42.125 23.054688 38.199219 24.800781 36.335938 C 25.695312 35.378906 27.945312 33.601562 29.800781 32.390625 C 31.660156 31.175781 33.785156 29.699219 34.527344 29.105469 C 36.472656 27.546875 39.296875 26.019531 41.972656 25.085938 C 44.746094 24.117188 49.699219 23.070312 50.34375 23.316406 C 50.59375 23.410156 50.929688 23.367188 51.089844 23.210938 C 51.714844 22.625 56.835938 21.855469 60.125 21.855469 C 64.058594 21.855469 66.179688 22.183594 70.941406 23.53125 C 72.796875 24.058594 74.898438 24.585938 75.613281 24.710938 C 78.410156 25.195312 81.316406 26.332031 83.390625 27.75 C 84.582031 28.566406 86.183594 29.554688 86.945312 29.941406 C 87.707031 30.332031 88.242188 30.792969 88.136719 30.96875 C 88.027344 31.148438 88.152344 31.207031 88.410156 31.109375 C 88.957031 30.898438 92.371094 32.847656 93.886719 34.238281 C 95.378906 35.605469 96.484375 37.296875 96.199219 37.789062 C 96.066406 38.019531 96.082031 38.097656 96.234375 37.957031 C 96.386719 37.820312 96.9375 38.449219 97.457031 39.359375 C 97.996094 40.300781 99.253906 41.683594 100.375 42.5625 C 103.753906 45.21875 104.832031 47.300781 104.832031 51.175781 C 104.832031 53.765625 103.988281 57.070312 103.414062 56.714844 C 103.191406 56.578125 103.136719 56.636719 103.277344 56.867188 C 104.066406 58.140625 98.292969 63.84375 94.015625 66.015625 C 92.894531 66.585938 91.722656 67.09375 91.40625 67.140625 C 91.09375 67.191406 90.648438 67.347656 90.417969 67.492188 C 90.183594 67.636719 89.84375 67.660156 89.65625 67.546875 C 89.472656 67.433594 89.320312 67.488281 89.320312 67.667969 C 89.320312 68.882812 79.265625 69.25 74.484375 68.214844 C 71.503906 67.570312 66.929688 67.332031 66.054688 67.777344 C 65.777344 67.921875 65.015625 68.257812 64.367188 68.53125 C 61.890625 69.574219 60.433594 70.800781 58.382812 73.570312 C 57.53125 74.71875 55.703125 79.25 55.246094 81.351562 C 55.019531 82.386719 54.976562 81.933594 55.074219 79.488281 Z M 60.183594 70.25 C 61.730469 68.917969 64.707031 67.480469 66.789062 67.058594 C 68.90625 66.625 71.816406 66.800781 75.160156 67.554688 C 78.238281 68.253906 84.96875 68.238281 87.6875 67.527344 C 88.863281 67.21875 89.976562 66.933594 90.164062 66.894531 C 90.804688 66.757812 94.667969 64.761719 95.65625 64.058594 C 96.199219 63.671875 96.78125 63.460938 96.945312 63.59375 C 97.109375 63.730469 97.136719 63.703125 97.003906 63.539062 C 96.871094 63.375 97.265625 62.839844 97.882812 62.347656 C 98.503906 61.855469 99.632812 60.703125 100.394531 59.78125 C 101.15625 58.859375 102.007812 57.839844 102.292969 57.515625 C 102.578125 57.191406 102.808594 56.707031 102.808594 56.441406 C 102.808594 56.171875 102.960938 55.859375 103.152344 55.742188 C 103.339844 55.625 103.414062 55.398438 103.3125 55.238281 C 103.214844 55.078125 103.292969 54.851562 103.484375 54.734375 C 103.675781 54.617188 103.757812 54.398438 103.664062 54.25 C 103.574219 54.101562 103.621094 52.972656 103.769531 51.742188 C 103.914062 50.511719 103.929688 49.507812 103.796875 49.507812 C 103.664062 49.507812 103.453125 48.957031 103.328125 48.28125 C 103.035156 46.71875 100.9375 43.4375 100.230469 43.4375 C 99.792969 43.4375 97.5625 41.007812 97.675781 40.648438 C 97.726562 40.488281 97.628906 40.4375 97.460938 40.542969 C 97.046875 40.796875 96.375 39.949219 96.3125 39.09375 C 96.285156 38.71875 96.195312 38.472656 96.113281 38.554688 C 96.035156 38.632812 95.546875 38.03125 95.027344 37.214844 C 93.949219 35.511719 92.308594 33.859375 91.039062 33.203125 C 90.558594 32.953125 89.066406 32.117188 87.730469 31.347656 C 86.390625 30.578125 85.152344 29.949219 84.976562 29.949219 C 84.800781 29.949219 84.605469 29.835938 84.542969 29.695312 C 84.355469 29.277344 81.972656 27.589844 81.566406 27.589844 C 81.359375 27.589844 81.261719 27.46875 81.351562 27.320312 C 81.445312 27.175781 81.199219 27.03125 80.8125 27 C 80.425781 26.972656 80.019531 26.828125 79.910156 26.679688 C 79.800781 26.53125 79.558594 26.402344 79.375 26.398438 C 78.785156 26.375 75.023438 25.539062 74.148438 25.234375 C 73.683594 25.074219 72.730469 24.847656 72.03125 24.730469 C 71.328125 24.617188 70.835938 24.390625 70.933594 24.230469 C 71.03125 24.074219 70.808594 24.023438 70.4375 24.121094 C 70.0625 24.21875 69.554688 24.128906 69.308594 23.921875 C 69.0625 23.71875 68.757812 23.648438 68.636719 23.769531 C 68.515625 23.894531 68.414062 23.824219 68.414062 23.617188 C 68.414062 23.414062 68.128906 23.300781 67.78125 23.367188 C 67.429688 23.433594 66.480469 23.339844 65.671875 23.160156 C 63.398438 22.648438 56.441406 22.742188 53.242188 23.328125 C 51.664062 23.613281 49.78125 23.9375 49.058594 24.039062 C 45.1875 24.597656 40.574219 26.191406 37.839844 27.917969 C 32.859375 31.058594 26.730469 35.328125 25.648438 36.414062 C 24.230469 37.835938 22.890625 39.914062 22.890625 40.699219 C 22.890625 41.03125 22.785156 41.40625 22.65625 41.535156 C 21.910156 42.285156 21.945312 47.328125 22.707031 48.832031 C 23.195312 49.789062 25.039062 51.886719 25.347656 51.832031 C 25.386719 51.828125 25.875 51.996094 26.433594 52.214844 C 27.316406 52.558594 30.949219 53.171875 32.296875 53.207031 C 32.558594 53.210938 32.390625 52.925781 31.917969 52.550781 C 30.496094 51.433594 29.859375 49.675781 30.109375 47.542969 C 30.511719 44.136719 32.871094 40.976562 36.570312 38.894531 C 37.484375 38.378906 39.296875 37.320312 40.597656 36.539062 C 43.402344 34.855469 48.378906 32.867188 49.230469 33.09375 C 49.5625 33.179688 49.882812 33.121094 49.9375 32.964844 C 50.109375 32.476562 56.300781 31.886719 59.140625 32.085938 C 62.109375 32.296875 70.410156 33.964844 73.730469 35.023438 C 76.261719 35.828125 79.296875 37.621094 78.984375 38.125 C 78.863281 38.320312 78.910156 38.394531 79.089844 38.28125 C 79.453125 38.058594 82.492188 39.984375 84.296875 41.582031 C 85.894531 42.996094 88.667969 46.667969 88.378906 46.988281 C 88.25 47.136719 88.320312 47.152344 88.535156 47.027344 C 88.976562 46.777344 90.902344 48.988281 91.871094 50.855469 C 92.851562 52.75 92.730469 56.332031 91.613281 58.464844 C 90.328125 60.925781 87.136719 63.6875 86.226562 63.128906 C 86.003906 62.988281 85.9375 63.039062 86.070312 63.253906 C 86.359375 63.726562 82.683594 65.117188 81.664062 64.921875 C 81.25 64.84375 80.992188 64.910156 81.089844 65.066406 C 81.246094 65.324219 80.09375 65.449219 77.519531 65.457031 C 77.054688 65.457031 74.773438 65.339844 72.449219 65.195312 C 66.609375 64.828125 64.433594 65.453125 61.085938 68.457031 C 60.304688 69.164062 59.757812 69.738281 59.875 69.738281 C 59.992188 69.738281 59.8125 70.042969 59.476562 70.414062 C 58.636719 71.34375 59.007812 71.257812 60.183594 70.25 Z M 81.902344 64.238281 C 82.367188 64.203125 82.84375 64.039062 82.960938 63.875 C 83.082031 63.710938 83.636719 63.558594 84.195312 63.539062 C 84.75 63.519531 85.160156 63.421875 85.101562 63.328125 C 85.042969 63.234375 85.882812 62.628906 86.96875 61.980469 C 88.402344 61.125 89.234375 60.320312 90.007812 59.046875 C 92.257812 55.335938 92.050781 52.503906 89.292969 49.203125 C 88.390625 48.121094 87.761719 47.128906 87.898438 46.996094 C 88.03125 46.863281 87.929688 46.804688 87.667969 46.867188 C 87.085938 47.003906 85.539062 44.851562 85.839844 44.324219 C 85.960938 44.113281 85.957031 44.03125 85.835938 44.136719 C 85.714844 44.242188 84.890625 43.636719 84.003906 42.789062 C 83.117188 41.941406 81.144531 40.417969 79.617188 39.410156 C 78.09375 38.398438 76.84375 37.449219 76.84375 37.300781 C 76.84375 37.152344 76.730469 37.0625 76.589844 37.101562 C 76.453125 37.140625 75.429688 36.824219 74.316406 36.398438 C 73.203125 35.976562 70.773438 35.335938 68.921875 34.980469 C 67.066406 34.628906 64.5625 34.113281 63.355469 33.839844 C 62.152344 33.570312 60.527344 33.339844 59.75 33.332031 C 58.972656 33.328125 58.242188 33.167969 58.125 32.980469 C 58.011719 32.789062 57.773438 32.722656 57.597656 32.832031 C 57.332031 32.996094 53.65625 33.476562 50.035156 33.816406 C 49.480469 33.871094 48.644531 34.074219 48.183594 34.269531 C 46.464844 34.992188 43.964844 35.835938 43.835938 35.730469 C 43.765625 35.671875 43.613281 35.757812 43.5 35.921875 C 42.800781 36.9375 36.289062 40.539062 35.886719 40.132812 C 35.757812 40.003906 35.699219 40.0625 35.761719 40.265625 C 35.933594 40.820312 33.65625 42.597656 32.863281 42.53125 C 32.320312 42.484375 32.296875 42.507812 32.765625 42.644531 C 33.335938 42.808594 33.335938 42.871094 32.722656 43.886719 C 31.789062 45.433594 31.1875 48.167969 31.457031 49.621094 C 31.601562 50.375 32.179688 51.367188 32.941406 52.160156 C 34.089844 53.355469 34.34375 53.460938 36.175781 53.515625 C 37.269531 53.546875 38.304688 53.660156 38.480469 53.769531 C 38.652344 53.878906 38.554688 53.5 38.261719 52.933594 C 37.617188 51.6875 37.59375 51.410156 38.152344 51.738281 C 38.382812 51.871094 38.28125 51.652344 37.929688 51.25 C 37.445312 50.699219 37.40625 50.519531 37.761719 50.515625 C 38.148438 50.507812 38.140625 50.449219 37.730469 50.183594 C 37.449219 50 37.375 49.851562 37.558594 49.847656 C 37.746094 49.84375 37.910156 49.308594 37.921875 48.652344 C 37.9375 48 38.25 47.0625 38.621094 46.566406 C 39.667969 45.160156 41.628906 43.710938 42.558594 43.65625 C 43.023438 43.628906 43.339844 43.542969 43.261719 43.464844 C 43.183594 43.386719 44.011719 42.816406 45.105469 42.203125 C 47.238281 41 50.902344 39.90625 51.914062 40.167969 C 52.253906 40.257812 52.582031 40.183594 52.644531 40 C 52.835938 39.425781 59.707031 39.585938 62.320312 40.230469 C 63.632812 40.550781 64.707031 40.910156 64.707031 41.03125 C 64.707031 41.148438 65.125 41.265625 65.632812 41.285156 C 67.074219 41.347656 69.464844 42.089844 69.265625 42.410156 C 69.167969 42.570312 69.378906 42.625 69.738281 42.53125 C 70.792969 42.253906 74.304688 44.367188 76.347656 46.511719 C 77.386719 47.597656 78.140625 48.648438 78.019531 48.839844 C 77.902344 49.03125 77.929688 49.144531 78.082031 49.097656 C 78.542969 48.949219 81.644531 52.476562 81.402344 52.871094 C 81.277344 53.070312 81.300781 53.191406 81.457031 53.140625 C 81.609375 53.089844 81.796875 53.199219 81.878906 53.386719 C 81.957031 53.570312 82.222656 53.921875 82.46875 54.167969 C 82.886719 54.585938 83.003906 55.382812 82.992188 57.769531 C 82.980469 59.449219 82.929688 59.671875 82.582031 59.457031 C 82.394531 59.34375 82.328125 59.464844 82.433594 59.738281 C 82.894531 60.933594 79.035156 63.910156 76.84375 64.042969 C 76.1875 64.085938 76.261719 64.144531 77.179688 64.316406 C 77.832031 64.441406 78.96875 64.484375 79.710938 64.417969 C 80.453125 64.351562 81.4375 64.273438 81.902344 64.238281 Z M 75.664062 63.144531 C 76.035156 63.132812 76.945312 62.992188 77.6875 62.832031 C 78.429688 62.675781 79.1875 62.582031 79.375 62.628906 C 79.558594 62.675781 79.613281 62.617188 79.5 62.503906 C 79.382812 62.386719 79.710938 61.867188 80.226562 61.351562 C 81.136719 60.4375 81.898438 58.496094 81.898438 57.058594 C 81.902344 55.660156 81.117188 54.035156 79.710938 52.542969 C 78.925781 51.707031 77.65625 50.15625 76.882812 49.09375 C 74.3125 45.542969 69.988281 42.96875 65.78125 42.476562 C 65.539062 42.449219 65.429688 42.28125 65.539062 42.105469 C 65.648438 41.929688 65.40625 41.851562 64.992188 41.929688 C 64.054688 42.109375 62.632812 41.765625 62.851562 41.410156 C 62.945312 41.261719 62.691406 41.226562 62.292969 41.332031 C 61.890625 41.433594 61.648438 41.382812 61.753906 41.214844 C 61.859375 41.046875 61.386719 40.898438 60.710938 40.886719 C 60.03125 40.875 58.265625 40.832031 56.78125 40.792969 C 54.089844 40.714844 50.566406 41.277344 48.011719 42.183594 C 47.273438 42.445312 46.453125 42.589844 46.195312 42.5 C 45.9375 42.410156 45.8125 42.476562 45.917969 42.648438 C 46.023438 42.820312 44.96875 43.558594 43.570312 44.292969 C 41.210938 45.535156 39.078125 47.382812 39.078125 48.191406 C 39.078125 48.378906 38.957031 48.460938 38.808594 48.371094 C 38.664062 48.277344 38.570312 49.160156 38.605469 50.328125 C 38.675781 52.816406 39.34375 54.0625 40.75 54.34375 C 41.285156 54.449219 42.476562 54.902344 43.402344 55.347656 L 45.082031 56.160156 L 45.28125 55.160156 C 45.535156 53.886719 47.210938 52.320312 48.800781 51.871094 C 51.144531 51.207031 53.851562 51.0625 54.476562 51.566406 C 54.894531 51.90625 54.984375 51.914062 54.792969 51.601562 C 54.601562 51.28125 54.742188 51.207031 55.320312 51.324219 C 55.753906 51.414062 56.566406 51.5625 57.125 51.652344 C 58.8125 51.929688 62.027344 53.246094 61.824219 53.574219 C 61.722656 53.746094 61.871094 53.792969 62.15625 53.683594 C 62.460938 53.566406 62.761719 53.707031 62.882812 54.023438 C 62.996094 54.320312 63.210938 54.488281 63.355469 54.394531 C 63.503906 54.304688 64.46875 55.144531 65.503906 56.261719 C 67.871094 58.820312 68.460938 60.609375 67.605469 62.65625 C 67.425781 63.09375 67.898438 63.152344 70.960938 63.074219 C 73.605469 63.011719 74.464844 63.089844 74.285156 63.382812 C 74.117188 63.652344 74.1875 63.679688 74.515625 63.472656 C 74.777344 63.304688 75.292969 63.15625 75.664062 63.144531 Z M 85.191406 71.523438 C 85.605469 71.445312 86.289062 71.445312 86.707031 71.523438 C 87.125 71.605469 86.78125 71.671875 85.949219 71.671875 C 85.113281 71.671875 84.773438 71.605469 85.191406 71.523438 Z M 88.640625 71.4375 C 88.914062 71.261719 89.71875 71.023438 90.429688 70.902344 C 91.140625 70.78125 92.613281 70.335938 93.703125 69.910156 C 94.792969 69.480469 95.769531 69.21875 95.875 69.324219 C 95.980469 69.429688 96.066406 69.335938 96.066406 69.121094 C 96.066406 68.90625 96.222656 68.726562 96.414062 68.726562 C 97.1875 68.726562 102.773438 64.617188 104.816406 62.546875 C 106.011719 61.335938 107.148438 60.429688 107.34375 60.542969 C 107.539062 60.652344 107.601562 60.632812 107.480469 60.5 C 107.363281 60.367188 107.773438 59.414062 108.394531 58.382812 C 109.015625 57.355469 109.6875 55.65625 109.890625 54.609375 C 110.09375 53.566406 110.394531 52.292969 110.554688 51.78125 C 110.714844 51.269531 110.730469 50.921875 110.589844 51.007812 C 110.367188 51.144531 110.261719 50.347656 110.097656 47.257812 C 110.074219 46.859375 109.996094 46.589844 109.917969 46.667969 C 109.839844 46.746094 109.355469 46.066406 108.835938 45.160156 C 108.316406 44.253906 106.757812 42.488281 105.363281 41.238281 C 103.277344 39.363281 102.597656 38.476562 101.472656 36.171875 C 99.667969 32.476562 97.863281 30.878906 92.515625 28.234375 C 90.234375 27.101562 87.554688 25.484375 86.566406 24.640625 C 84.835938 23.160156 81.792969 21.542969 80.386719 21.359375 C 77.390625 20.964844 73.136719 19.882812 73.136719 19.515625 C 73.136719 19.398438 72.871094 19.28125 72.546875 19.25 C 72.21875 19.222656 70.816406 18.867188 69.425781 18.460938 C 64.402344 17 55.550781 17.273438 51.375 19.019531 C 50.039062 19.574219 48.855469 19.640625 48.855469 19.160156 C 48.855469 18.972656 49.058594 18.820312 49.308594 18.820312 C 49.554688 18.820312 51.007812 18.429688 52.535156 17.949219 C 54.0625 17.46875 55.398438 17.160156 55.5 17.261719 C 55.605469 17.363281 55.933594 17.320312 56.234375 17.164062 C 57.296875 16.609375 61.027344 16.40625 61.601562 16.871094 C 62.019531 17.210938 62.082031 17.210938 61.878906 16.878906 C 61.679688 16.542969 62.117188 16.496094 63.917969 16.65625 C 65.179688 16.765625 66.3125 16.917969 66.429688 16.992188 C 66.550781 17.066406 67.234375 17.21875 67.953125 17.335938 C 68.671875 17.449219 69.332031 17.640625 69.425781 17.761719 C 69.519531 17.878906 69.984375 18.003906 70.464844 18.035156 C 70.941406 18.066406 71.929688 18.351562 72.65625 18.671875 C 73.382812 18.988281 74.207031 19.292969 74.484375 19.34375 C 80.105469 20.382812 84.003906 21.453125 83.738281 21.882812 C 83.636719 22.050781 83.765625 22.105469 84.023438 22.003906 C 84.285156 21.90625 85.738281 22.746094 87.269531 23.878906 C 88.792969 25.011719 91.511719 26.707031 93.304688 27.652344 C 97.054688 29.625 99.367188 31.222656 100.621094 32.714844 C 101.539062 33.804688 103.292969 37.03125 102.96875 37.03125 C 102.867188 37.03125 103.09375 37.367188 103.476562 37.777344 C 103.859375 38.1875 104.101562 38.710938 104.015625 38.941406 C 103.910156 39.210938 104.046875 39.28125 104.402344 39.148438 C 104.820312 38.988281 104.894531 39.078125 104.722656 39.53125 C 104.570312 39.925781 104.632812 40.074219 104.914062 39.972656 C 105.558594 39.75 109.613281 44.0625 110.546875 45.964844 C 111.207031 47.3125 111.386719 48.246094 111.441406 50.601562 C 111.480469 52.226562 111.378906 53.554688 111.214844 53.554688 C 111.054688 53.554688 111.003906 53.761719 111.101562 54.019531 C 111.199219 54.277344 111.019531 55.074219 110.699219 55.789062 C 110.378906 56.507812 110.105469 57.199219 110.089844 57.332031 C 110.070312 57.460938 109.867188 57.757812 109.636719 57.988281 C 109.40625 58.21875 109.214844 58.527344 109.214844 58.675781 C 109.214844 59.066406 108.308594 60.160156 105.84375 62.75 C 102.578125 66.179688 96.886719 69.777344 92.902344 70.925781 C 90.578125 71.597656 87.875 71.921875 88.640625 71.4375 Z M 53.15625 65.582031 C 53.015625 65.242188 52.902344 64.523438 52.902344 63.984375 C 52.902344 63.445312 52.601562 62.214844 52.238281 61.25 C 51.34375 58.898438 51.609375 58.808594 52.71875 61.078125 C 53.398438 62.46875 53.59375 63.316406 53.511719 64.558594 C 53.441406 65.683594 53.328125 66.003906 53.15625 65.582031 Z M 15.136719 46.152344 C 15.136719 45.617188 15.328125 45.101562 15.558594 45.011719 C 15.851562 44.890625 15.859375 44.832031 15.582031 44.8125 C 15.117188 44.78125 15.324219 42.320312 15.804688 42.152344 C 15.972656 42.09375 16.027344 41.832031 15.929688 41.574219 C 15.746094 41.097656 17.078125 37.871094 17.894531 36.8125 C 19.234375 35.082031 22.347656 32.273438 24.484375 30.871094 C 25.820312 29.992188 26.996094 29.273438 27.09375 29.273438 C 27.285156 29.273438 28.398438 28.394531 29.257812 27.5625 C 29.558594 27.269531 30.410156 26.589844 31.152344 26.046875 C 31.894531 25.507812 32.613281 24.910156 32.75 24.726562 C 32.886719 24.539062 33 24.492188 33.003906 24.621094 C 33.003906 24.753906 33.40625 24.492188 33.894531 24.039062 C 34.378906 23.585938 34.894531 23.289062 35.035156 23.375 C 35.175781 23.464844 35.476562 23.3125 35.707031 23.039062 C 35.933594 22.761719 36.253906 22.621094 36.417969 22.722656 C 36.582031 22.824219 36.71875 22.777344 36.71875 22.613281 C 36.71875 21.980469 43.132812 19.773438 44.0625 20.089844 C 44.300781 20.167969 44.695312 20.070312 44.941406 19.867188 C 45.558594 19.351562 48.519531 18.976562 48.519531 19.414062 C 48.519531 19.601562 47.796875 19.859375 46.917969 19.980469 C 40.648438 20.863281 35.917969 23.210938 28.117188 29.308594 C 27.191406 30.03125 26.234375 30.550781 25.992188 30.460938 C 25.753906 30.367188 25.636719 30.425781 25.734375 30.585938 C 25.832031 30.746094 25.121094 31.40625 24.148438 32.054688 C 21.851562 33.597656 19.1875 36.234375 18.347656 37.804688 C 17.980469 38.492188 17.566406 39.054688 17.429688 39.054688 C 17.292969 39.054688 17.261719 39.261719 17.359375 39.515625 C 17.457031 39.769531 17.335938 40.1875 17.09375 40.445312 C 16.851562 40.699219 16.636719 41.210938 16.613281 41.582031 C 16.59375 41.953125 16.492188 42.710938 16.390625 43.269531 C 16.289062 43.824219 16.191406 44.832031 16.175781 45.507812 C 16.140625 47.050781 15.136719 47.671875 15.136719 46.152344 Z M 15.136719 46.152344 "/>
</g>
</svg>
