<?xml version="1.0" encoding="UTF-8"?>
<svg xmlns="http://www.w3.org/2000/svg" xmlns:xlink="http://www.w3.org/1999/xlink" width="64px" height="64px" viewBox="0 0 64 64" version="1.1">
<g id="surface1">
<path style=" stroke:none;fill-rule:nonzero;fill:rgb(38.431373%,38.431373%,38.431373%);fill-opacity:1;" d="M 29.433594 58.363281 C 29.386719 58.316406 28.664062 58.28125 27.828125 58.289062 C 26.519531 58.300781 26.296875 58.261719 26.230469 58.007812 C 26.160156 57.734375 26.152344 57.734375 26.132812 58.011719 C 26.117188 58.253906 26.011719 58.289062 25.566406 58.207031 C 25.265625 58.148438 24.691406 58.109375 24.289062 58.121094 C 23.832031 58.132812 23.601562 58.074219 23.671875 57.96875 C 23.730469 57.871094 23.84375 57.835938 23.921875 57.882812 C 24.003906 57.933594 24.109375 57.902344 24.164062 57.820312 C 24.214844 57.734375 24.488281 57.679688 24.765625 57.699219 C 25.042969 57.71875 25.269531 57.671875 25.269531 57.597656 C 25.269531 57.523438 25.507812 57.460938 25.792969 57.460938 L 26.316406 57.460938 L 25.773438 56.84375 C 25.167969 56.152344 24.769531 55.316406 24.765625 54.730469 C 24.765625 54.515625 24.757812 54.152344 24.746094 53.921875 C 24.738281 53.691406 24.792969 52.855469 24.867188 52.066406 C 25.171875 48.816406 24.789062 47.25 22.90625 44.027344 C 22.550781 43.421875 22.289062 42.78125 22.324219 42.601562 C 22.359375 42.425781 22.320312 42.320312 22.238281 42.371094 C 22.085938 42.464844 22.007812 42.273438 21.800781 41.277344 C 21.671875 40.660156 21.683594 36.9375 21.8125 36.726562 C 21.945312 36.511719 21.566406 34.472656 21.265625 33.773438 C 20.730469 32.542969 19.589844 31.800781 17.640625 31.417969 C 16.386719 31.171875 14.097656 30.984375 12.457031 30.996094 C 10.582031 31.007812 8.335938 30.101562 6.875 28.742188 C 6 27.929688 5.339844 27.039062 5.492188 26.882812 C 5.554688 26.824219 5.523438 26.777344 5.425781 26.777344 C 5.097656 26.777344 4.726562 24.859375 4.707031 23.066406 C 4.6875 21.15625 5.132812 19.144531 5.675781 18.726562 C 5.824219 18.609375 5.894531 18.515625 5.828125 18.515625 C 5.761719 18.515625 5.871094 18.195312 6.070312 17.800781 C 6.535156 16.890625 8.800781 14.640625 9.664062 14.230469 C 10.03125 14.058594 10.410156 13.847656 10.507812 13.765625 C 10.605469 13.683594 11.21875 13.265625 11.867188 12.835938 C 12.515625 12.410156 13.15625 11.898438 13.292969 11.703125 C 13.765625 11.015625 14.644531 10.230469 14.816406 10.339844 C 14.914062 10.398438 14.972656 10.359375 14.949219 10.25 C 14.890625 10.003906 16.84375 8.878906 17.136719 8.984375 C 17.253906 9.027344 17.347656 9 17.347656 8.925781 C 17.347656 8.65625 24.460938 6.777344 24.769531 6.96875 C 24.84375 7.015625 24.929688 6.988281 24.960938 6.910156 C 25.0625 6.648438 28.199219 5.824219 29.292969 5.773438 C 29.882812 5.746094 30.398438 5.691406 30.4375 5.648438 C 30.625 5.460938 33.101562 5.753906 35.808594 6.28125 C 35.996094 6.316406 37.246094 6.625 38.589844 6.96875 C 39.933594 7.308594 41.1875 7.609375 41.371094 7.636719 C 41.863281 7.703125 42.695312 7.925781 42.890625 8.039062 C 42.984375 8.09375 43.195312 8.15625 43.359375 8.183594 C 43.835938 8.257812 45.335938 9.0625 45.335938 9.246094 C 45.335938 9.335938 45.414062 9.410156 45.511719 9.410156 C 45.707031 9.410156 47.746094 11.058594 47.835938 11.289062 C 47.867188 11.367188 48 11.433594 48.128906 11.433594 C 48.40625 11.433594 50.523438 12.539062 51.492188 13.195312 C 52.367188 13.78125 53.796875 15.289062 53.671875 15.492188 C 53.621094 15.578125 53.65625 15.648438 53.75 15.648438 C 53.847656 15.648438 54.089844 15.972656 54.285156 16.367188 C 54.484375 16.761719 54.824219 17.320312 55.042969 17.609375 C 55.257812 17.898438 55.382812 18.195312 55.316406 18.269531 C 55.25 18.339844 55.28125 18.351562 55.382812 18.292969 C 55.578125 18.183594 57.621094 20.203125 58.300781 21.175781 C 58.511719 21.480469 58.640625 21.847656 58.585938 21.988281 C 58.535156 22.128906 58.558594 22.199219 58.644531 22.148438 C 58.984375 21.9375 59.398438 24.605469 59.269531 26.164062 C 59.214844 26.824219 59.167969 27.503906 59.164062 27.671875 C 59.160156 27.859375 59.085938 27.929688 58.964844 27.855469 C 58.84375 27.78125 58.816406 27.808594 58.894531 27.933594 C 59.054688 28.199219 58.835938 29.167969 58.640625 29.046875 C 58.558594 28.992188 58.535156 29.066406 58.585938 29.207031 C 58.707031 29.515625 58 31.082031 57.480469 31.667969 C 57.273438 31.898438 57.003906 32.277344 56.882812 32.507812 C 56.601562 33.042969 53.871094 35.65625 52.992188 36.230469 C 52.628906 36.46875 52.011719 36.875 51.625 37.132812 C 51.21875 37.398438 50.832031 37.546875 50.714844 37.472656 C 50.589844 37.398438 50.554688 37.417969 50.617188 37.523438 C 50.714844 37.679688 49.871094 38.144531 49.464844 38.15625 C 49.371094 38.15625 49.144531 38.246094 48.960938 38.351562 C 48.773438 38.457031 48.546875 38.5625 48.453125 38.582031 C 48.359375 38.601562 48.09375 38.695312 47.863281 38.789062 C 47.632812 38.882812 47.050781 38.96875 46.574219 38.980469 C 46.097656 38.992188 45.742188 39.058594 45.785156 39.125 C 46.019531 39.511719 40.851562 38.988281 40.355469 38.574219 C 40.25 38.484375 40.113281 38.464844 40.050781 38.523438 C 39.988281 38.585938 39.941406 38.542969 39.941406 38.429688 C 39.941406 38.316406 39.863281 38.269531 39.769531 38.324219 C 39.679688 38.382812 39.507812 38.371094 39.390625 38.296875 C 39.277344 38.226562 39.035156 38.144531 38.855469 38.117188 C 38.679688 38.089844 38.433594 37.984375 38.308594 37.878906 C 38.1875 37.777344 38.085938 37.742188 38.085938 37.800781 C 38.085938 37.859375 37.839844 37.804688 37.535156 37.679688 C 37.234375 37.554688 36.894531 37.484375 36.777344 37.523438 C 36.664062 37.5625 36.566406 37.53125 36.566406 37.453125 C 36.566406 37.378906 35.960938 37.339844 35.21875 37.371094 C 34.441406 37.402344 33.871094 37.496094 33.871094 37.597656 C 33.871094 37.695312 33.738281 37.722656 33.578125 37.660156 C 33.421875 37.597656 33.335938 37.59375 33.390625 37.648438 C 33.445312 37.703125 33.257812 37.992188 32.980469 38.289062 C 32.394531 38.910156 31.855469 40 31.851562 40.570312 C 31.847656 40.785156 31.789062 40.925781 31.71875 40.882812 C 31.539062 40.769531 31.621094 42.71875 31.847656 43.988281 C 31.953125 44.585938 32.335938 45.921875 32.691406 46.964844 C 33.105469 48.175781 33.269531 48.863281 33.140625 48.867188 C 33.023438 48.867188 33.046875 48.9375 33.195312 49.03125 C 33.335938 49.121094 33.382812 49.195312 33.300781 49.199219 C 33.21875 49.199219 33.25 49.3125 33.363281 49.453125 C 33.480469 49.59375 33.515625 49.707031 33.449219 49.707031 C 33.378906 49.707031 33.40625 49.804688 33.503906 49.925781 C 33.804688 50.289062 34.085938 52.574219 33.988281 53.875 C 33.902344 55.03125 33.527344 56.035156 32.898438 56.808594 C 32.597656 57.175781 32.933594 57.304688 34.375 57.378906 C 36.105469 57.464844 36.261719 57.484375 37.242188 57.675781 C 37.753906 57.777344 38.257812 57.84375 38.367188 57.824219 C 38.476562 57.804688 38.613281 57.867188 38.671875 57.964844 C 38.730469 58.058594 38.640625 58.140625 38.472656 58.140625 C 34.84375 58.203125 29.859375 58.34375 29.714844 58.390625 C 29.605469 58.421875 29.480469 58.410156 29.433594 58.363281 Z M 28.820312 55.734375 C 29.609375 55.199219 29.949219 54.535156 30.214844 52.984375 C 30.417969 51.792969 30.457031 51.707031 30.566406 52.1875 C 30.636719 52.488281 30.636719 52.824219 30.570312 52.933594 C 30.492188 53.054688 30.519531 53.085938 30.640625 53.011719 C 30.777344 52.925781 30.835938 53.109375 30.839844 53.617188 C 30.84375 54.25 30.871094 54.300781 31.042969 54.003906 C 31.371094 53.441406 31.261719 51.105469 30.847656 49.875 C 30.308594 48.265625 29.675781 45.996094 29.765625 45.996094 C 29.8125 45.996094 30.183594 46.738281 30.597656 47.640625 C 31.011719 48.546875 31.425781 49.421875 31.519531 49.585938 C 31.613281 49.753906 31.636719 49.980469 31.574219 50.09375 C 31.507812 50.207031 31.519531 50.238281 31.605469 50.160156 C 31.6875 50.085938 31.847656 50.273438 31.960938 50.582031 C 32.160156 51.121094 32.164062 51.109375 32.132812 50.171875 C 32.113281 49.636719 32.058594 49.203125 32.007812 49.203125 C 31.859375 49.199219 31.496094 47.675781 31.601562 47.503906 C 31.65625 47.417969 31.625 47.347656 31.535156 47.347656 C 31.34375 47.347656 30.574219 45.292969 30.261719 43.9375 C 30.140625 43.40625 30.105469 43.011719 30.183594 43.0625 C 30.265625 43.109375 30.328125 43.078125 30.328125 42.988281 C 30.328125 42.894531 30.253906 42.796875 30.160156 42.765625 C 30.070312 42.734375 29.984375 42.121094 29.976562 41.40625 C 29.953125 40.074219 29.753906 39.8125 29.558594 40.859375 C 29.5 41.179688 29.390625 41.40625 29.316406 41.359375 C 29.242188 41.3125 29.21875 41.429688 29.269531 41.613281 C 29.316406 41.800781 29.289062 41.949219 29.203125 41.949219 C 29.117188 41.949219 29.074219 42.234375 29.105469 42.582031 C 29.15625 43.105469 29.132812 43.164062 28.976562 42.910156 C 28.617188 42.335938 28.582031 40.871094 28.902344 39.847656 C 29.070312 39.316406 29.304688 38.84375 29.429688 38.796875 C 29.550781 38.75 29.617188 38.652344 29.574219 38.582031 C 29.527344 38.511719 29.671875 38.257812 29.894531 38.019531 C 30.113281 37.78125 30.257812 37.554688 30.214844 37.511719 C 30.171875 37.46875 30.539062 37.125 31.027344 36.753906 C 31.828125 36.140625 31.933594 36.105469 32.121094 36.359375 C 32.308594 36.613281 32.324219 36.609375 32.296875 36.308594 C 32.257812 35.863281 33.125 35.566406 34.488281 35.554688 C 35.640625 35.542969 36.78125 35.792969 39.460938 36.648438 C 40.449219 36.964844 41.804688 37.308594 42.46875 37.410156 C 43.605469 37.585938 46.621094 37.554688 46.953125 37.363281 C 47.035156 37.3125 47.628906 37.105469 48.265625 36.894531 C 49.390625 36.523438 51.53125 35.425781 52.109375 34.917969 C 52.265625 34.78125 52.488281 34.726562 52.601562 34.792969 C 52.726562 34.875 52.761719 34.851562 52.691406 34.734375 C 52.625 34.632812 52.714844 34.476562 52.882812 34.386719 C 53.050781 34.296875 53.792969 33.597656 54.53125 32.832031 C 56.476562 30.824219 56.472656 30.824219 56.335938 30.816406 C 56.265625 30.816406 56.324219 30.71875 56.464844 30.605469 C 56.605469 30.492188 56.953125 29.890625 57.242188 29.265625 C 57.527344 28.644531 57.808594 28.179688 57.867188 28.234375 C 57.921875 28.292969 57.941406 28.1875 57.902344 28 C 57.867188 27.8125 57.914062 27.328125 58.003906 26.921875 C 58.210938 26.003906 58.292969 23.398438 58.113281 23.511719 C 58.039062 23.554688 57.980469 23.472656 57.980469 23.328125 C 57.980469 22.785156 57.273438 21.601562 56.375 20.652344 C 55.867188 20.113281 55.449219 19.597656 55.449219 19.503906 C 55.449219 19.414062 55.375 19.386719 55.277344 19.445312 C 55.183594 19.503906 55.003906 19.308594 54.878906 19.007812 C 54.75 18.703125 54.621094 18.5625 54.578125 18.691406 C 54.535156 18.816406 54.226562 18.472656 53.878906 17.914062 C 53.535156 17.367188 53.292969 16.816406 53.339844 16.695312 C 53.386719 16.574219 53.359375 16.515625 53.28125 16.5625 C 53.203125 16.609375 53.054688 16.460938 52.945312 16.226562 C 52.652344 15.582031 51.25 14.152344 50.441406 13.679688 C 50.042969 13.449219 49.71875 13.183594 49.71875 13.09375 C 49.71875 13.003906 49.636719 12.980469 49.539062 13.042969 C 49.441406 13.101562 49.230469 13.046875 49.074219 12.914062 C 48.917969 12.785156 48.453125 12.53125 48.042969 12.355469 C 47.15625 11.96875 45.609375 10.78125 45.535156 10.421875 C 45.503906 10.285156 45.402344 10.09375 45.3125 10 C 45.203125 9.890625 45.191406 9.945312 45.273438 10.167969 C 45.386719 10.46875 45.34375 10.457031 44.882812 10.085938 C 44.601562 9.851562 44.398438 9.609375 44.4375 9.539062 C 44.476562 9.472656 44.378906 9.464844 44.21875 9.527344 C 44.007812 9.605469 43.96875 9.578125 44.070312 9.414062 C 44.160156 9.265625 44.140625 9.230469 44.015625 9.308594 C 43.910156 9.375 43.652344 9.332031 43.441406 9.21875 C 43.230469 9.105469 42.945312 8.988281 42.804688 8.964844 C 41.832031 8.785156 40.78125 8.480469 40.78125 8.382812 C 40.78125 8.316406 40.648438 8.296875 40.484375 8.339844 C 40.320312 8.382812 39.84375 8.335938 39.429688 8.234375 C 39.015625 8.132812 38.515625 8.015625 38.320312 7.972656 C 38.125 7.929688 37.367188 7.699219 36.636719 7.453125 C 35.902344 7.210938 35.1875 6.996094 35.050781 6.980469 C 34.910156 6.960938 34.53125 6.894531 34.207031 6.832031 C 32.890625 6.582031 32.191406 6.527344 30.582031 6.550781 C 28.664062 6.574219 27.992188 6.625 27.632812 6.769531 C 26.195312 7.335938 22.621094 8.414062 22.324219 8.371094 C 22.230469 8.359375 22.039062 8.386719 21.898438 8.433594 C 21.761719 8.484375 20.925781 8.6875 20.042969 8.890625 C 17.605469 9.449219 15.996094 10.304688 14.480469 11.847656 C 13.011719 13.339844 12.058594 14.050781 11.765625 13.867188 C 11.644531 13.792969 11.605469 13.8125 11.671875 13.917969 C 11.730469 14.015625 11.535156 14.191406 11.234375 14.3125 C 10.148438 14.753906 7.414062 17.070312 7.402344 17.554688 C 7.402344 17.632812 7.3125 17.636719 7.207031 17.570312 C 7.097656 17.503906 7.054688 17.523438 7.109375 17.613281 C 7.164062 17.703125 7.023438 18.105469 6.796875 18.507812 C 6.238281 19.488281 5.714844 21.128906 5.714844 21.886719 C 5.714844 22.226562 5.660156 22.558594 5.597656 22.621094 C 5.429688 22.792969 5.382812 23.234375 5.535156 23.234375 C 5.605469 23.234375 5.667969 23.519531 5.675781 23.867188 C 5.691406 24.574219 5.765625 24.957031 6.03125 25.640625 C 6.128906 25.894531 6.15625 26.105469 6.089844 26.105469 C 6.023438 26.105469 6.046875 26.164062 6.144531 26.230469 C 6.242188 26.300781 6.542969 26.648438 6.808594 27.003906 C 7.078125 27.363281 7.621094 27.902344 8.019531 28.207031 C 8.414062 28.507812 8.683594 28.816406 8.617188 28.886719 C 8.550781 28.960938 8.578125 28.976562 8.679688 28.917969 C 8.785156 28.859375 9.261719 28.957031 9.746094 29.132812 C 10.230469 29.308594 11.359375 29.546875 12.257812 29.664062 C 13.15625 29.777344 13.945312 29.953125 14.015625 30.054688 C 14.101562 30.179688 14.140625 30.179688 14.140625 30.050781 C 14.144531 29.707031 17.84375 29.980469 19.09375 30.421875 C 20.066406 30.765625 21.09375 31.46875 20.953125 31.699219 C 20.886719 31.804688 20.910156 31.839844 21.011719 31.777344 C 21.109375 31.71875 21.28125 31.78125 21.394531 31.921875 C 21.507812 32.058594 21.542969 32.171875 21.464844 32.171875 C 21.390625 32.171875 21.453125 32.265625 21.605469 32.382812 C 21.757812 32.5 22.050781 33.011719 22.261719 33.519531 C 22.609375 34.375 22.640625 34.714844 22.648438 37.90625 C 22.65625 40.453125 22.714844 41.464844 22.882812 41.753906 C 23.003906 41.96875 23.058594 42.269531 23 42.421875 C 22.941406 42.574219 22.949219 42.644531 23.015625 42.578125 C 23.179688 42.414062 24.945312 45.683594 24.847656 45.964844 C 24.804688 46.085938 24.832031 46.144531 24.90625 46.097656 C 25.097656 45.980469 25.65625 47.804688 25.507812 48.046875 C 25.4375 48.160156 25.460938 48.195312 25.5625 48.132812 C 25.832031 47.964844 25.980469 49.863281 25.847656 51.824219 C 25.769531 53.035156 25.671875 53.542969 25.542969 53.472656 C 25.441406 53.414062 25.449219 53.46875 25.566406 53.59375 C 25.683594 53.71875 25.777344 53.984375 25.777344 54.183594 C 25.777344 55.824219 27.433594 56.667969 28.820312 55.734375 Z M 27.535156 39.742188 C 27.609375 37.964844 28.1875 35.621094 28.507812 35.816406 C 28.617188 35.882812 28.648438 35.855469 28.585938 35.753906 C 28.4375 35.519531 28.636719 35.015625 28.828125 35.132812 C 28.910156 35.183594 28.933594 35.113281 28.882812 34.980469 C 28.683594 34.464844 30.855469 32.546875 32.128906 32.113281 C 32.582031 31.960938 32.863281 31.722656 33.070312 31.316406 C 33.230469 31 33.363281 30.847656 33.363281 30.976562 C 33.363281 31.109375 33.410156 31.171875 33.464844 31.117188 C 33.519531 31.058594 33.503906 30.914062 33.429688 30.792969 C 33.351562 30.671875 33.269531 30.433594 33.242188 30.265625 C 33.117188 29.464844 31.949219 28.070312 30.71875 27.261719 C 29.699219 26.589844 28.128906 26.195312 26.453125 26.191406 C 25.050781 26.1875 24.753906 26.238281 24.101562 26.609375 C 23.6875 26.839844 23.199219 27.285156 23.015625 27.601562 C 22.6875 28.164062 22.6875 28.175781 23.007812 28.414062 C 23.1875 28.546875 23.3125 28.730469 23.285156 28.824219 C 23.261719 28.917969 23.308594 28.949219 23.394531 28.898438 C 23.574219 28.785156 24.476562 29.761719 24.828125 30.445312 C 25.210938 31.1875 25.453125 32.195312 25.214844 32.066406 C 25.085938 31.992188 25.089844 32.03125 25.230469 32.179688 C 25.34375 32.304688 25.441406 32.640625 25.441406 32.921875 C 25.445312 33.617188 24.738281 37.230469 24.613281 37.15625 C 24.558594 37.125 24.496094 37.449219 24.476562 37.878906 C 24.457031 38.308594 24.378906 38.679688 24.308594 38.703125 C 24.234375 38.726562 24.191406 39.183594 24.214844 39.714844 L 24.253906 40.6875 L 23.996094 40.011719 C 23.789062 39.472656 23.753906 38.816406 23.820312 36.722656 C 23.910156 33.859375 23.746094 32.847656 22.996094 31.566406 C 22.769531 31.183594 22.640625 30.808594 22.707031 30.734375 C 22.773438 30.660156 22.742188 30.648438 22.640625 30.707031 C 22.410156 30.839844 21.34375 29.753906 21.515625 29.5625 C 21.589844 29.484375 21.554688 29.472656 21.441406 29.539062 C 21.328125 29.605469 21.058594 29.542969 20.847656 29.402344 C 20.46875 29.15625 19.285156 28.691406 18.613281 28.523438 C 18.425781 28.476562 17.742188 28.394531 17.09375 28.34375 C 16.445312 28.292969 15.804688 28.167969 15.671875 28.0625 C 15.535156 27.957031 15.472656 27.949219 15.527344 28.042969 C 15.667969 28.273438 12.203125 28.066406 11.347656 27.789062 C 10.261719 27.441406 8.921875 26.460938 8.390625 25.621094 C 8.121094 25.195312 7.9375 24.746094 7.984375 24.621094 C 8.03125 24.5 7.996094 24.445312 7.902344 24.5 C 7.8125 24.558594 7.738281 24.449219 7.738281 24.257812 C 7.738281 24.066406 7.730469 23.855469 7.722656 23.789062 C 7.71875 23.722656 7.789062 23.640625 7.882812 23.609375 C 7.976562 23.578125 8.148438 23.878906 8.265625 24.277344 C 8.988281 26.765625 10.78125 27.789062 14.421875 27.789062 C 15.484375 27.789062 16.320312 27.84375 16.277344 27.914062 C 16.238281 27.984375 16.675781 28.050781 17.253906 28.058594 C 18.898438 28.089844 21.898438 29.230469 21.898438 29.824219 C 21.898438 29.921875 21.964844 29.960938 22.042969 29.914062 C 22.289062 29.761719 23.207031 30.863281 23.828125 32.058594 C 24.390625 33.136719 24.429688 33.171875 24.429688 32.648438 C 24.429688 32.339844 24.226562 31.59375 23.980469 30.992188 C 23.460938 29.722656 22.460938 28.765625 21.070312 28.195312 C 20.601562 28.003906 20.246094 27.8125 20.28125 27.773438 C 20.320312 27.734375 20.082031 27.691406 19.757812 27.671875 C 19.429688 27.65625 19.039062 27.589844 18.886719 27.523438 C 18.535156 27.375 17.910156 27.285156 17.242188 27.289062 C 15.976562 27.292969 13.632812 26.777344 12.640625 26.277344 C 11.476562 25.691406 10.53125 24.589844 10.652344 23.957031 C 10.691406 23.753906 10.65625 23.625 10.578125 23.671875 C 10.5 23.722656 10.433594 23.339844 10.433594 22.824219 C 10.433594 22.308594 10.503906 21.886719 10.585938 21.886719 C 10.671875 21.886719 10.703125 21.746094 10.660156 21.574219 C 10.523438 21.0625 11.527344 19.097656 12.398438 18.167969 C 12.847656 17.6875 13.972656 16.800781 14.902344 16.195312 C 15.828125 15.589844 16.890625 14.847656 17.261719 14.550781 C 18.234375 13.773438 19.648438 13.011719 20.988281 12.542969 C 22.375 12.058594 24.851562 11.535156 25.171875 11.65625 C 25.296875 11.707031 25.464844 11.683594 25.546875 11.605469 C 25.855469 11.3125 28.417969 10.929688 30.0625 10.929688 C 32.027344 10.929688 33.089844 11.09375 35.472656 11.765625 C 36.398438 12.027344 37.449219 12.292969 37.808594 12.355469 C 39.203125 12.597656 40.660156 13.164062 41.695312 13.875 C 42.292969 14.285156 43.089844 14.777344 43.472656 14.972656 C 43.855469 15.164062 44.121094 15.398438 44.066406 15.484375 C 44.011719 15.574219 44.074219 15.605469 44.207031 15.554688 C 44.480469 15.449219 46.1875 16.425781 46.945312 17.117188 C 47.6875 17.800781 48.242188 18.648438 48.101562 18.894531 C 48.03125 19.011719 48.039062 19.046875 48.117188 18.980469 C 48.195312 18.910156 48.46875 19.226562 48.730469 19.679688 C 48.996094 20.152344 49.628906 20.84375 50.1875 21.28125 C 51.875 22.609375 52.414062 23.652344 52.414062 25.585938 C 52.414062 26.882812 51.992188 28.535156 51.707031 28.359375 C 51.597656 28.289062 51.566406 28.320312 51.640625 28.433594 C 52.03125 29.070312 49.144531 31.921875 47.007812 33.007812 C 46.449219 33.292969 45.859375 33.546875 45.703125 33.570312 C 45.546875 33.59375 45.324219 33.675781 45.207031 33.746094 C 45.09375 33.820312 44.921875 33.832031 44.828125 33.773438 C 44.734375 33.714844 44.660156 33.742188 44.660156 33.835938 C 44.660156 34.441406 39.632812 34.625 37.242188 34.109375 C 35.75 33.785156 33.464844 33.667969 33.027344 33.890625 C 32.886719 33.960938 32.507812 34.128906 32.183594 34.265625 C 30.945312 34.785156 30.214844 35.398438 29.191406 36.785156 C 28.765625 37.359375 27.851562 39.625 27.621094 40.675781 C 27.507812 41.195312 27.488281 40.964844 27.535156 39.742188 Z M 30.089844 35.125 C 30.863281 34.460938 32.351562 33.742188 33.394531 33.527344 C 34.453125 33.3125 35.910156 33.398438 37.578125 33.777344 C 39.117188 34.128906 42.484375 34.121094 43.84375 33.765625 C 44.433594 33.609375 44.988281 33.46875 45.082031 33.449219 C 45.402344 33.378906 47.332031 32.382812 47.828125 32.027344 C 48.101562 31.835938 48.390625 31.730469 48.472656 31.796875 C 48.554688 31.863281 48.566406 31.851562 48.5 31.769531 C 48.433594 31.6875 48.632812 31.417969 48.941406 31.175781 C 49.25 30.929688 49.816406 30.351562 50.195312 29.890625 C 50.578125 29.429688 51.003906 28.921875 51.144531 28.757812 C 51.289062 28.59375 51.40625 28.351562 51.40625 28.21875 C 51.40625 28.085938 51.480469 27.929688 51.574219 27.871094 C 51.667969 27.8125 51.707031 27.699219 51.65625 27.621094 C 51.609375 27.539062 51.644531 27.425781 51.742188 27.367188 C 51.835938 27.308594 51.878906 27.199219 51.832031 27.125 C 51.785156 27.050781 51.808594 26.488281 51.882812 25.871094 C 51.957031 25.257812 51.964844 24.753906 51.898438 24.753906 C 51.832031 24.753906 51.726562 24.476562 51.664062 24.140625 C 51.519531 23.359375 50.46875 21.71875 50.117188 21.71875 C 49.894531 21.71875 48.78125 20.503906 48.835938 20.324219 C 48.863281 20.242188 48.816406 20.21875 48.730469 20.269531 C 48.523438 20.398438 48.1875 19.976562 48.15625 19.546875 C 48.140625 19.359375 48.097656 19.238281 48.058594 19.277344 C 48.019531 19.316406 47.773438 19.015625 47.515625 18.609375 C 46.972656 17.753906 46.152344 16.929688 45.519531 16.601562 C 45.277344 16.476562 44.535156 16.058594 43.863281 15.675781 C 43.195312 15.289062 42.574219 14.976562 42.488281 14.976562 C 42.398438 14.976562 42.300781 14.917969 42.273438 14.847656 C 42.179688 14.636719 40.988281 13.792969 40.785156 13.792969 C 40.679688 13.792969 40.632812 13.734375 40.675781 13.660156 C 40.722656 13.585938 40.601562 13.515625 40.40625 13.5 C 40.210938 13.488281 40.007812 13.414062 39.953125 13.339844 C 39.898438 13.265625 39.78125 13.203125 39.6875 13.199219 C 39.390625 13.1875 37.511719 12.769531 37.074219 12.617188 C 36.839844 12.539062 36.363281 12.425781 36.015625 12.367188 C 35.664062 12.308594 35.417969 12.195312 35.46875 12.117188 C 35.515625 12.035156 35.402344 12.011719 35.21875 12.058594 C 35.03125 12.109375 34.777344 12.0625 34.65625 11.960938 C 34.53125 11.859375 34.378906 11.824219 34.316406 11.886719 C 34.257812 11.945312 34.207031 11.910156 34.207031 11.808594 C 34.207031 11.707031 34.0625 11.648438 33.890625 11.683594 C 33.714844 11.71875 33.242188 11.671875 32.835938 11.578125 C 31.699219 11.324219 28.21875 11.371094 26.621094 11.664062 C 25.832031 11.808594 24.890625 11.96875 24.53125 12.019531 C 22.59375 12.300781 20.289062 13.097656 18.917969 13.960938 C 16.429688 15.53125 13.367188 17.664062 12.824219 18.207031 C 12.113281 18.917969 11.445312 19.957031 11.445312 20.347656 C 11.445312 20.515625 11.394531 20.703125 11.328125 20.769531 C 10.953125 21.140625 10.972656 23.664062 11.355469 24.417969 C 11.597656 24.894531 12.519531 25.945312 12.671875 25.917969 C 12.695312 25.914062 12.9375 26 13.214844 26.109375 C 13.65625 26.28125 15.476562 26.585938 16.148438 26.601562 C 16.277344 26.605469 16.195312 26.460938 15.957031 26.277344 C 15.246094 25.714844 14.929688 24.835938 15.054688 23.773438 C 15.257812 22.066406 16.4375 20.488281 18.285156 19.445312 C 18.742188 19.1875 19.648438 18.660156 20.300781 18.269531 C 21.699219 17.429688 24.1875 16.433594 24.617188 16.546875 C 24.78125 16.589844 24.941406 16.5625 24.96875 16.480469 C 25.054688 16.238281 28.152344 15.941406 29.570312 16.042969 C 31.054688 16.148438 35.207031 16.984375 36.863281 17.511719 C 38.128906 17.914062 39.648438 18.808594 39.492188 19.0625 C 39.429688 19.160156 39.457031 19.195312 39.546875 19.140625 C 39.726562 19.03125 41.246094 19.992188 42.148438 20.792969 C 42.949219 21.496094 44.335938 23.335938 44.191406 23.496094 C 44.125 23.566406 44.160156 23.578125 44.269531 23.515625 C 44.488281 23.386719 45.453125 24.492188 45.933594 25.429688 C 46.425781 26.375 46.363281 28.164062 45.808594 29.230469 C 45.164062 30.464844 43.566406 31.84375 43.113281 31.5625 C 43 31.496094 42.96875 31.519531 43.035156 31.628906 C 43.179688 31.863281 41.34375 32.558594 40.832031 32.460938 C 40.625 32.421875 40.496094 32.453125 40.542969 32.535156 C 40.625 32.660156 40.046875 32.726562 38.757812 32.726562 C 38.527344 32.730469 37.386719 32.667969 36.226562 32.597656 C 33.304688 32.414062 32.21875 32.726562 30.542969 34.230469 C 30.152344 34.582031 29.878906 34.871094 29.9375 34.871094 C 29.996094 34.871094 29.90625 35.019531 29.738281 35.207031 C 29.316406 35.671875 29.503906 35.628906 30.089844 35.125 Z M 40.949219 32.117188 C 41.183594 32.101562 41.421875 32.019531 41.480469 31.9375 C 41.542969 31.855469 41.816406 31.78125 42.097656 31.769531 C 42.375 31.757812 42.582031 31.710938 42.550781 31.664062 C 42.523438 31.617188 42.941406 31.3125 43.484375 30.988281 C 44.199219 30.5625 44.617188 30.160156 45.003906 29.523438 C 46.128906 27.667969 46.027344 26.25 44.648438 24.601562 C 44.195312 24.0625 43.882812 23.566406 43.949219 23.5 C 44.015625 23.429688 43.964844 23.402344 43.832031 23.433594 C 43.542969 23.5 42.769531 22.425781 42.917969 22.160156 C 42.980469 22.058594 42.980469 22.015625 42.917969 22.070312 C 42.859375 22.121094 42.445312 21.820312 42.003906 21.394531 C 41.558594 20.96875 40.570312 20.210938 39.808594 19.703125 C 39.046875 19.199219 38.421875 18.726562 38.421875 18.652344 C 38.421875 18.578125 38.363281 18.53125 38.296875 18.550781 C 38.226562 18.570312 37.714844 18.410156 37.15625 18.199219 C 36.601562 17.988281 35.386719 17.667969 34.460938 17.492188 C 33.53125 17.3125 32.28125 17.058594 31.679688 16.921875 C 31.074219 16.785156 30.265625 16.671875 29.875 16.667969 C 29.488281 16.664062 29.121094 16.582031 29.0625 16.488281 C 29.003906 16.394531 28.886719 16.363281 28.800781 16.414062 C 28.664062 16.5 26.828125 16.738281 25.019531 16.910156 C 24.742188 16.933594 24.324219 17.035156 24.089844 17.132812 C 23.234375 17.496094 21.980469 17.917969 21.917969 17.867188 C 21.882812 17.835938 21.804688 17.878906 21.75 17.960938 C 21.398438 18.46875 18.144531 20.269531 17.945312 20.066406 C 17.878906 20 17.851562 20.03125 17.882812 20.132812 C 17.964844 20.410156 16.828125 21.300781 16.429688 21.265625 C 16.160156 21.242188 16.148438 21.253906 16.382812 21.320312 C 16.667969 21.402344 16.667969 21.433594 16.359375 21.941406 C 15.894531 22.714844 15.59375 24.085938 15.730469 24.808594 C 15.800781 25.1875 16.089844 25.683594 16.46875 26.078125 C 17.046875 26.679688 17.171875 26.730469 18.089844 26.757812 C 18.632812 26.773438 19.152344 26.832031 19.238281 26.886719 C 19.328125 26.9375 19.277344 26.75 19.132812 26.464844 C 18.808594 25.84375 18.796875 25.707031 19.074219 25.867188 C 19.191406 25.9375 19.140625 25.828125 18.964844 25.625 C 18.722656 25.351562 18.703125 25.257812 18.878906 25.257812 C 19.074219 25.253906 19.070312 25.222656 18.863281 25.089844 C 18.726562 25 18.6875 24.925781 18.78125 24.925781 C 18.871094 24.921875 18.953125 24.652344 18.960938 24.328125 C 18.96875 24 19.125 23.53125 19.308594 23.285156 C 19.835938 22.582031 20.816406 21.855469 21.28125 21.828125 C 21.511719 21.816406 21.671875 21.769531 21.632812 21.730469 C 21.59375 21.691406 22.007812 21.410156 22.550781 21.101562 C 23.621094 20.5 25.453125 19.953125 25.957031 20.085938 C 26.128906 20.128906 26.292969 20.089844 26.320312 20 C 26.417969 19.710938 29.851562 19.792969 31.160156 20.113281 C 31.816406 20.273438 32.351562 20.457031 32.351562 20.515625 C 32.351562 20.574219 32.5625 20.632812 32.816406 20.644531 C 33.539062 20.675781 34.734375 21.042969 34.632812 21.207031 C 34.585938 21.285156 34.691406 21.3125 34.867188 21.265625 C 35.398438 21.128906 37.152344 22.183594 38.171875 23.253906 C 38.691406 23.800781 39.070312 24.324219 39.011719 24.417969 C 38.953125 24.515625 38.964844 24.574219 39.042969 24.546875 C 39.269531 24.476562 40.820312 26.238281 40.699219 26.433594 C 40.640625 26.535156 40.652344 26.597656 40.726562 26.570312 C 40.804688 26.542969 40.898438 26.601562 40.9375 26.691406 C 40.980469 26.785156 41.113281 26.960938 41.234375 27.082031 C 41.445312 27.292969 41.5 27.691406 41.496094 28.882812 C 41.492188 29.726562 41.464844 29.835938 41.289062 29.730469 C 41.199219 29.671875 41.164062 29.734375 41.21875 29.867188 C 41.445312 30.46875 39.515625 31.953125 38.421875 32.023438 C 38.09375 32.042969 38.128906 32.070312 38.589844 32.160156 C 38.914062 32.21875 39.484375 32.242188 39.855469 32.210938 C 40.226562 32.175781 40.71875 32.136719 40.949219 32.117188 Z M 37.832031 31.574219 C 38.015625 31.566406 38.472656 31.496094 38.84375 31.417969 C 39.214844 31.335938 39.59375 31.292969 39.6875 31.316406 C 39.78125 31.339844 39.808594 31.308594 39.75 31.25 C 39.691406 31.191406 39.855469 30.933594 40.113281 30.675781 C 40.570312 30.21875 40.949219 29.25 40.949219 28.53125 C 40.953125 27.832031 40.558594 27.015625 39.855469 26.269531 C 39.464844 25.855469 38.828125 25.078125 38.441406 24.546875 C 37.15625 22.769531 34.996094 21.484375 32.890625 21.238281 C 32.769531 21.222656 32.714844 21.140625 32.769531 21.054688 C 32.824219 20.964844 32.703125 20.925781 32.496094 20.964844 C 32.027344 21.054688 31.316406 20.882812 31.425781 20.703125 C 31.472656 20.628906 31.347656 20.613281 31.144531 20.664062 C 30.945312 20.71875 30.824219 20.691406 30.878906 20.605469 C 30.929688 20.523438 30.695312 20.449219 30.355469 20.445312 C 30.015625 20.4375 29.132812 20.417969 28.390625 20.394531 C 27.042969 20.359375 25.28125 20.636719 24.007812 21.089844 C 23.636719 21.222656 23.226562 21.292969 23.097656 21.25 C 22.96875 21.207031 22.90625 21.238281 22.960938 21.324219 C 23.011719 21.410156 22.484375 21.78125 21.785156 22.148438 C 20.605469 22.769531 19.539062 23.691406 19.539062 24.09375 C 19.539062 24.191406 19.480469 24.230469 19.40625 24.183594 C 19.332031 24.140625 19.285156 24.578125 19.300781 25.164062 C 19.339844 26.40625 19.671875 27.03125 20.375 27.171875 C 20.640625 27.226562 21.238281 27.449219 21.699219 27.675781 L 22.539062 28.078125 L 22.640625 27.582031 C 22.769531 26.945312 23.605469 26.160156 24.398438 25.933594 C 25.574219 25.601562 26.925781 25.53125 27.238281 25.785156 C 27.449219 25.953125 27.492188 25.957031 27.398438 25.800781 C 27.300781 25.640625 27.371094 25.605469 27.660156 25.664062 C 27.875 25.707031 28.28125 25.78125 28.5625 25.828125 C 29.40625 25.964844 31.015625 26.621094 30.914062 26.789062 C 30.859375 26.871094 30.933594 26.898438 31.078125 26.839844 C 31.230469 26.78125 31.378906 26.851562 31.441406 27.011719 C 31.5 27.160156 31.605469 27.242188 31.679688 27.199219 C 31.75 27.152344 32.234375 27.570312 32.75 28.128906 C 33.9375 29.410156 34.230469 30.304688 33.800781 31.328125 C 33.710938 31.546875 33.949219 31.574219 35.480469 31.539062 C 36.804688 31.503906 37.234375 31.542969 37.140625 31.691406 C 37.058594 31.828125 37.09375 31.839844 37.257812 31.734375 C 37.386719 31.652344 37.648438 31.578125 37.832031 31.574219 Z M 42.59375 35.761719 C 42.804688 35.722656 43.144531 35.722656 43.355469 35.761719 C 43.5625 35.800781 43.390625 35.835938 42.972656 35.835938 C 42.558594 35.835938 42.386719 35.800781 42.59375 35.761719 Z M 44.320312 35.71875 C 44.457031 35.632812 44.859375 35.511719 45.214844 35.453125 C 45.570312 35.390625 46.304688 35.167969 46.851562 34.953125 C 47.394531 34.742188 47.882812 34.609375 47.9375 34.660156 C 47.988281 34.714844 48.03125 34.667969 48.03125 34.558594 C 48.03125 34.453125 48.109375 34.363281 48.207031 34.363281 C 48.59375 34.363281 51.386719 32.308594 52.40625 31.273438 C 53.003906 30.667969 53.574219 30.214844 53.671875 30.269531 C 53.769531 30.328125 53.800781 30.316406 53.742188 30.25 C 53.679688 30.183594 53.886719 29.707031 54.195312 29.191406 C 54.507812 28.675781 54.84375 27.828125 54.945312 27.304688 C 55.046875 26.78125 55.195312 26.144531 55.277344 25.890625 C 55.355469 25.636719 55.363281 25.460938 55.296875 25.503906 C 55.183594 25.574219 55.132812 25.175781 55.050781 23.628906 C 55.039062 23.429688 54.996094 23.296875 54.960938 23.335938 C 54.921875 23.371094 54.675781 23.035156 54.417969 22.578125 C 54.160156 22.125 53.378906 21.242188 52.683594 20.617188 C 51.640625 19.679688 51.296875 19.238281 50.734375 18.085938 C 49.832031 16.238281 48.933594 15.441406 46.257812 14.117188 C 45.117188 13.550781 43.777344 12.742188 43.285156 12.320312 C 42.417969 11.578125 40.898438 10.773438 40.191406 10.679688 C 38.695312 10.480469 36.566406 9.941406 36.566406 9.757812 C 36.566406 9.699219 36.433594 9.640625 36.273438 9.625 C 36.109375 9.609375 35.410156 9.433594 34.714844 9.230469 C 32.199219 8.5 27.773438 8.636719 25.6875 9.507812 C 25.019531 9.789062 24.429688 9.820312 24.429688 9.578125 C 24.429688 9.488281 24.53125 9.410156 24.652344 9.410156 C 24.777344 9.410156 25.503906 9.214844 26.269531 8.972656 C 27.03125 8.734375 27.699219 8.578125 27.75 8.632812 C 27.800781 8.683594 27.96875 8.660156 28.117188 8.582031 C 28.648438 8.304688 30.515625 8.203125 30.800781 8.433594 C 31.007812 8.605469 31.039062 8.605469 30.941406 8.4375 C 30.839844 8.273438 31.058594 8.246094 31.960938 8.328125 C 32.589844 8.382812 33.15625 8.460938 33.214844 8.496094 C 33.277344 8.535156 33.617188 8.609375 33.976562 8.667969 C 34.335938 8.722656 34.667969 8.820312 34.714844 8.878906 C 34.757812 8.941406 34.992188 9.003906 35.230469 9.015625 C 35.472656 9.03125 35.964844 9.175781 36.328125 9.335938 C 36.691406 9.496094 37.101562 9.644531 37.242188 9.671875 C 40.054688 10.191406 42.003906 10.726562 41.871094 10.941406 C 41.820312 11.023438 41.882812 11.050781 42.011719 11.003906 C 42.144531 10.953125 42.871094 11.371094 43.632812 11.941406 C 44.398438 12.503906 45.753906 13.355469 46.652344 13.824219 C 48.527344 14.8125 49.683594 15.613281 50.308594 16.355469 C 50.769531 16.902344 51.648438 18.515625 51.484375 18.515625 C 51.433594 18.515625 51.546875 18.683594 51.738281 18.890625 C 51.929688 19.09375 52.050781 19.355469 52.007812 19.46875 C 51.957031 19.605469 52.023438 19.640625 52.199219 19.574219 C 52.410156 19.492188 52.449219 19.539062 52.359375 19.765625 C 52.285156 19.964844 52.316406 20.035156 52.457031 19.988281 C 52.78125 19.875 54.808594 22.03125 55.273438 22.984375 C 55.605469 23.65625 55.695312 24.125 55.722656 25.300781 C 55.738281 26.113281 55.6875 26.777344 55.609375 26.777344 C 55.527344 26.777344 55.5 26.882812 55.550781 27.011719 C 55.601562 27.136719 55.507812 27.535156 55.351562 27.894531 C 55.191406 28.253906 55.054688 28.601562 55.042969 28.664062 C 55.035156 28.730469 54.933594 28.878906 54.820312 28.992188 C 54.703125 29.109375 54.609375 29.265625 54.609375 29.335938 C 54.609375 29.53125 54.15625 30.078125 52.921875 31.375 C 51.289062 33.089844 48.441406 34.886719 46.453125 35.460938 C 45.289062 35.796875 43.9375 35.960938 44.320312 35.71875 Z M 26.578125 32.789062 C 26.507812 32.621094 26.453125 32.261719 26.453125 31.992188 C 26.453125 31.722656 26.300781 31.105469 26.117188 30.625 C 25.671875 29.449219 25.804688 29.402344 26.359375 30.539062 C 26.699219 31.234375 26.796875 31.65625 26.757812 32.277344 C 26.722656 32.839844 26.664062 33.003906 26.578125 32.789062 Z M 7.566406 23.078125 C 7.566406 22.808594 7.664062 22.550781 7.777344 22.503906 C 7.925781 22.445312 7.929688 22.414062 7.792969 22.40625 C 7.558594 22.390625 7.660156 21.160156 7.902344 21.074219 C 7.988281 21.046875 8.015625 20.917969 7.964844 20.789062 C 7.875 20.550781 8.539062 18.933594 8.949219 18.40625 C 9.617188 17.542969 11.175781 16.136719 12.242188 15.4375 C 12.910156 14.996094 13.496094 14.636719 13.546875 14.636719 C 13.644531 14.636719 14.199219 14.199219 14.628906 13.78125 C 14.777344 13.636719 15.207031 13.292969 15.578125 13.023438 C 15.949219 12.753906 16.308594 12.457031 16.375 12.363281 C 16.441406 12.269531 16.5 12.246094 16.5 12.3125 C 16.503906 12.375 16.703125 12.246094 16.945312 12.019531 C 17.191406 11.792969 17.445312 11.644531 17.519531 11.6875 C 17.589844 11.730469 17.738281 11.65625 17.851562 11.519531 C 17.964844 11.382812 18.125 11.3125 18.210938 11.363281 C 18.292969 11.414062 18.359375 11.386719 18.359375 11.304688 C 18.359375 10.992188 21.566406 9.886719 22.03125 10.042969 C 22.152344 10.085938 22.347656 10.035156 22.46875 9.933594 C 22.78125 9.675781 24.257812 9.488281 24.257812 9.707031 C 24.257812 9.800781 23.898438 9.929688 23.457031 9.992188 C 20.324219 10.433594 17.957031 11.605469 14.058594 14.652344 C 13.597656 15.015625 13.117188 15.273438 12.996094 15.230469 C 12.875 15.183594 12.816406 15.210938 12.867188 15.292969 C 12.917969 15.371094 12.558594 15.703125 12.074219 16.027344 C 10.925781 16.796875 9.59375 18.117188 9.171875 18.902344 C 8.992188 19.246094 8.785156 19.527344 8.714844 19.527344 C 8.648438 19.527344 8.628906 19.632812 8.679688 19.757812 C 8.726562 19.886719 8.667969 20.09375 8.546875 20.222656 C 8.425781 20.351562 8.316406 20.605469 8.308594 20.792969 C 8.296875 20.976562 8.246094 21.355469 8.195312 21.632812 C 8.144531 21.914062 8.09375 22.417969 8.089844 22.753906 C 8.070312 23.527344 7.566406 23.835938 7.566406 23.078125 Z M 7.566406 23.078125 "/>
</g>
</svg>
