<svg xmlns="http://www.w3.org/2000/svg" xml:space="preserve" width="128" height="128" viewBox="0 0 33.867 33.867"><path d="M15.575 30.884c-.025-.025-.408-.043-.85-.04-.692.006-.81-.015-.845-.148-.038-.145-.041-.145-.05.002-.01.129-.065.147-.301.102-.16-.03-.463-.05-.675-.045-.243.007-.364-.023-.329-.08.032-.051.092-.071.134-.045s.1.01.127-.034c.028-.045.172-.074.319-.063s.268-.014.268-.054.124-.072.277-.072h.277l-.289-.328c-.32-.366-.531-.807-.532-1.117 0-.113-.005-.306-.01-.429-.005-.122.023-.564.062-.981.161-1.72-.041-2.549-1.037-4.253-.187-.32-.326-.66-.307-.755.018-.094-.002-.15-.045-.123-.082.05-.122-.051-.233-.579-.068-.326-.063-2.295.007-2.407.07-.114-.13-1.194-.29-1.563-.283-.65-.887-1.044-1.918-1.247-.664-.13-1.875-.23-2.743-.223-.992.006-2.18-.474-2.954-1.193-.462-.43-.813-.9-.73-.983.03-.031.014-.057-.036-.057-.174 0-.37-1.014-.381-1.963-.011-1.01.226-2.075.512-2.297.08-.061.115-.111.08-.111s.024-.17.13-.377c.246-.483 1.444-1.673 1.902-1.89.193-.092.394-.202.446-.246s.375-.265.719-.492.683-.496.754-.6c.25-.364.715-.78.807-.722.052.032.083.01.07-.048-.03-.129 1.002-.725 1.157-.668.061.022.112.008.112-.032 0-.143 3.764-1.136 3.926-1.036.04.025.087.01.103-.031.054-.139 1.713-.573 2.292-.6.311-.015.584-.045.606-.067.1-.1 1.41.055 2.842.334.098.02.76.183 1.472.364.711.18 1.374.34 1.472.354.26.036.7.153.803.213.049.028.16.063.248.076.253.04 1.046.466 1.046.562 0 .049.042.088.093.088.103 0 1.183.873 1.23.994.016.042.087.077.156.077.147 0 1.266.585 1.78.93.461.31 1.219 1.11 1.153 1.217-.028.046-.01.083.041.083s.179.17.284.38c.104.208.284.504.399.657s.18.31.146.35c-.035.038-.019.044.036.013.102-.059 1.182 1.01 1.542 1.525.112.161.181.354.153.429-.029.074-.016.112.03.084.179-.11.399 1.302.33 2.126-.029.35-.054.71-.055.798-.002.099-.042.137-.106.098q-.097-.059-.038.041c.087.14-.029.652-.132.588-.045-.028-.058.01-.03.085.063.163-.31.993-.585 1.302-.11.122-.252.323-.317.446-.15.282-1.593 1.665-2.058 1.97l-.724.476c-.214.142-.42.219-.482.18-.065-.04-.085-.03-.05.026.051.084-.395.33-.61.335a.8.8 0 0 0-.268.105 1.3 1.3 0 0 1-.268.122c-.049.01-.19.06-.312.109-.123.05-.43.095-.682.1-.253.007-.441.042-.419.079.124.204-2.609-.074-2.873-.293-.056-.047-.128-.059-.16-.026-.033.032-.06.01-.06-.051 0-.06-.04-.085-.089-.054-.049.03-.139.024-.2-.015a.9.9 0 0 0-.283-.096.7.7 0 0 1-.29-.125c-.065-.054-.119-.073-.119-.042 0 .032-.13.003-.29-.063-.16-.067-.34-.104-.401-.083-.062.02-.112.004-.111-.037 0-.041-.322-.061-.714-.045-.412.016-.714.068-.714.12s-.07.066-.154.034c-.084-.033-.13-.036-.1-.007.028.03-.07.182-.217.34-.31.329-.595.905-.598 1.206 0 .114-.032.188-.069.165-.096-.06-.053.972.068 1.645.057.314.257 1.023.446 1.575.22.64.306 1.004.238 1.005-.062.001-.05.037.029.088.074.048.099.087.056.088-.043 0-.028.062.033.135s.081.134.045.134-.023.052.03.116c.16.192.307 1.4.255 2.09-.046.612-.243 1.143-.576 1.552-.158.195.018.263.782.302.916.046.997.055 1.516.158.27.053.538.089.596.078a.17.17 0 0 1 .161.073c.031.05-.016.093-.105.095-1.921.031-4.557.106-4.636.13-.056.018-.123.012-.148-.013m-.324-1.392c.417-.281.596-.634.737-1.454.109-.63.13-.677.188-.421.036.158.036.335 0 .393q-.06.1.038.041c.072-.044.104.054.106.321.002.336.015.362.106.206.175-.3.117-1.534-.103-2.186-.286-.851-.62-2.052-.571-2.052.023 0 .22.392.44.87.218.478.438.942.487 1.03.05.088.062.208.028.267s-.027.076.017.036.128.06.188.223c.105.287.108.28.091-.217-.01-.282-.039-.513-.065-.513-.078-.001-.272-.808-.216-.9.028-.045.013-.082-.034-.082-.102 0-.508-1.087-.674-1.804-.065-.281-.084-.49-.042-.464.043.027.077.009.077-.039s-.04-.1-.088-.117c-.05-.016-.094-.34-.1-.72-.01-.705-.115-.843-.22-.289-.031.17-.09.289-.129.265s-.05.036-.024.134c.026.099.01.179-.035.179s-.068.15-.05.335c.025.276.013.306-.07.174-.19-.305-.209-1.081-.039-1.623.088-.28.214-.53.279-.554s.1-.077.076-.114c-.023-.038.053-.172.17-.298.116-.126.193-.247.17-.27s.17-.203.429-.4c.424-.324.48-.344.58-.21.099.136.107.134.093-.027-.02-.234.437-.392 1.16-.398.609-.006 1.211.127 2.63.58.523.166 1.24.348 1.593.402.601.094 2.196.077 2.372-.025.044-.025.357-.137.694-.248.595-.195 1.728-.778 2.035-1.046.083-.073.2-.102.26-.065q.102.062.047-.031c-.034-.054.012-.138.101-.185.09-.048.482-.418.873-.822 1.029-1.064 1.028-1.063.955-1.066-.037-.002-.006-.052.068-.112s.26-.379.41-.709c.153-.33.301-.576.332-.545.03.03.039-.027.02-.126-.02-.099.004-.355.053-.57.109-.485.153-1.864.058-1.805-.04.024-.071-.02-.071-.096 0-.288-.375-.913-.849-1.416-.269-.285-.49-.559-.49-.607 0-.049-.04-.063-.09-.033-.05.031-.145-.072-.212-.23-.068-.162-.137-.235-.16-.169-.021.066-.185-.116-.37-.41-.181-.29-.31-.58-.285-.645s.011-.096-.03-.07-.121-.055-.177-.178c-.156-.342-.9-1.097-1.326-1.348-.21-.123-.383-.263-.383-.31s-.042-.06-.095-.027c-.052.032-.162.002-.245-.068-.083-.069-.328-.202-.546-.297-.47-.204-1.288-.833-1.328-1.022a.5.5 0 0 0-.117-.223q-.087-.088-.02.089c.06.158.037.153-.207-.045-.15-.122-.257-.252-.236-.288.02-.036-.031-.04-.115-.007-.112.043-.134.027-.08-.06q.072-.116-.029-.055c-.055.034-.192.013-.303-.048a1.5 1.5 0 0 0-.337-.135c-.515-.095-1.07-.255-1.07-.308 0-.034-.071-.044-.158-.021s-.338-.003-.558-.056c-.22-.054-.484-.116-.587-.138a16 16 0 0 1-.892-.275 10 10 0 0 0-.839-.252c-.073-.01-.274-.045-.446-.077-.696-.133-1.066-.162-1.918-.15-1.015.014-1.37.04-1.561.115-.761.3-2.653.872-2.808.85a.6.6 0 0 0-.226.032c-.073.026-.515.135-.981.241C9.315 5 8.465 5.452 7.662 6.27c-.776.79-1.28 1.166-1.435 1.07-.065-.04-.085-.03-.051.026.031.05-.073.145-.232.21-.573.231-2.021 1.457-2.027 1.715 0 .04-.048.044-.104.009-.057-.035-.08-.026-.05.022.029.047-.046.26-.167.472-.295.52-.572 1.387-.572 1.789 0 .18-.028.355-.063.39-.089.088-.113.324-.033.324.038 0 .071.15.075.334.008.373.049.576.189.937.052.135.066.246.03.247-.036 0-.022.03.03.067.05.036.21.22.352.41s.43.474.639.634.352.323.317.362c-.036.039-.02.046.034.015s.308.02.564.114c.256.093.854.22 1.329.28.475.062.893.155.93.207q.066.1.066 0c.003-.184 1.959-.037 2.622.196.514.18 1.057.554.982.675-.035.057-.021.075.031.042s.143.002.204.076c.06.073.077.132.037.132s-.007.05.074.112c.08.061.236.332.347.602.185.453.201.633.205 2.32.004 1.349.036 1.883.123 2.036.065.115.093.274.062.355-.03.08-.027.117.01.081.086-.086 1.021 1.644.968 1.793-.022.063-.008.095.032.07.1-.061.397.904.318 1.032-.037.059-.024.078.028.046.144-.089.222.916.152 1.954-.043.64-.092.908-.161.87-.055-.03-.05-.001.012.065a.53.53 0 0 1 .111.312c0 .868.877 1.314 1.61.82m-.68-8.461c.038-.942.345-2.182.515-2.077.057.035.074.02.04-.034-.077-.125.027-.392.129-.33.043.028.056-.008.03-.08-.106-.273 1.042-1.288 1.716-1.517a.8.8 0 0 0 .498-.421c.086-.168.156-.25.156-.18s.024.103.054.073.02-.106-.02-.17a.9.9 0 0 1-.098-.28c-.066-.424-.685-1.161-1.335-1.59-.54-.355-1.37-.564-2.259-.566-.74-.002-.897.026-1.244.221-.219.123-.476.36-.573.525-.174.298-.174.305-.005.43.095.07.16.169.147.218-.013.05.013.067.058.039.095-.059.572.457.758.82.202.392.33.926.205.856q-.102-.058.007.061c.062.066.113.243.113.392.002.368-.373 2.281-.44 2.241-.028-.017-.06.154-.071.382-.011.227-.051.424-.09.437-.038.012-.06.253-.048.536l.02.513-.136-.357c-.11-.286-.128-.633-.094-1.74.047-1.515-.038-2.05-.436-2.73-.12-.203-.188-.4-.153-.44.035-.038.02-.045-.033-.015-.124.07-.688-.503-.596-.604.038-.042.02-.048-.04-.013-.06.034-.202.002-.314-.072-.2-.13-.826-.377-1.183-.466a8 8 0 0 0-.803-.094c-.344-.027-.683-.094-.754-.15s-.104-.06-.075-.01c.073.122-1.759.012-2.213-.133-.573-.184-1.282-.704-1.563-1.147-.144-.226-.24-.465-.216-.53.025-.065.006-.093-.043-.063s-.088-.029-.088-.13c0-.1-.003-.212-.007-.248-.003-.036.035-.078.084-.095.05-.016.141.143.203.355.383 1.316 1.33 1.857 3.257 1.857.563 0 1.006.03.983.067-.022.036.21.071.517.077.87.016 2.457.618 2.457.933 0 .051.034.072.075.047.13-.081.618.503.947 1.135.296.57.317.59.317.312 0-.163-.106-.557-.237-.876-.276-.671-.804-1.179-1.54-1.48-.25-.102-.437-.202-.417-.223s-.105-.044-.278-.054a1.8 1.8 0 0 1-.46-.078c-.188-.08-.518-.127-.872-.125-.668.003-1.909-.27-2.433-.534-.617-.311-1.117-.895-1.054-1.228.021-.109.004-.177-.038-.151s-.076-.176-.076-.449.036-.496.08-.496.062-.074.038-.165c-.07-.271.46-1.31.922-1.804.237-.253.832-.723 1.323-1.043a22 22 0 0 0 1.25-.87c.515-.412 1.263-.815 1.97-1.063.734-.256 2.045-.533 2.215-.468.066.025.155.013.198-.027.165-.156 1.52-.359 2.39-.359 1.04 0 1.602.087 2.862.443.491.139 1.047.28 1.237.312.739.128 1.508.429 2.057.804.315.216.739.477.94.58.202.103.344.226.315.272s.004.063.073.037c.145-.056 1.048.46 1.449.827.395.362.687.81.612.94-.035.062-.031.082.01.045.04-.037.185.13.323.371.142.249.475.615.771.848.894.702 1.18 1.253 1.18 2.278 0 .686-.224 1.56-.375 1.466-.06-.037-.074-.02-.036.04.208.337-1.32 1.846-2.45 2.42-.297.151-.608.285-.691.298a.8.8 0 0 0-.262.093c-.062.039-.152.045-.201.015s-.09-.016-.09.032c0 .32-2.66.419-3.925.145-.789-.171-1.998-.234-2.23-.116a9 9 0 0 1-.446.2c-.656.275-1.042.6-1.584 1.332-.225.304-.709 1.503-.83 2.059-.06.274-.071.154-.045-.493m1.352-2.444c.41-.352 1.197-.733 1.748-.845.56-.114 1.33-.068 2.215.132.814.185 2.596.181 3.314-.007.312-.082.607-.157.656-.168.17-.036 1.191-.564 1.453-.75.144-.103.298-.158.341-.123q.067.052.015-.014c-.035-.044.07-.186.234-.316.163-.13.462-.435.663-.68.202-.243.428-.512.503-.598s.136-.214.136-.285.041-.154.091-.185c.05-.03.07-.09.043-.133-.026-.042-.006-.102.045-.133s.072-.09.048-.129-.012-.337.027-.663c.04-.325.043-.591.008-.591s-.09-.146-.124-.324c-.078-.414-.633-1.282-.82-1.282-.116 0-.705-.643-.676-.738.014-.043-.012-.056-.057-.028-.109.067-.286-.157-.303-.383-.008-.1-.031-.164-.053-.143-.02.02-.15-.138-.287-.354-.286-.451-.72-.888-1.055-1.062a36 36 0 0 1-.876-.49c-.355-.204-.682-.37-.729-.37s-.098-.03-.114-.068c-.05-.111-.68-.557-.788-.557-.055 0-.08-.032-.056-.071s-.04-.077-.143-.085c-.103-.007-.21-.046-.24-.085a.2.2 0 0 0-.141-.075c-.156-.006-1.151-.227-1.383-.307a4 4 0 0 0-.56-.133c-.185-.031-.316-.09-.29-.133.026-.042-.033-.055-.132-.03-.098.026-.232.003-.298-.051-.066-.055-.146-.073-.178-.04s-.059.013-.059-.04c0-.055-.075-.085-.168-.068-.092.018-.343-.007-.557-.055-.602-.135-2.443-.11-3.29.045-.417.076-.914.161-1.106.189-1.024.147-2.245.57-2.968 1.026-1.318.83-2.94 1.96-3.226 2.247-.375.377-.73.927-.73 1.134 0 .088-.027.188-.061.222-.198.198-.189 1.533.013 1.93.129.253.617.809.698.794.011-.002.14.044.288.101.233.091 1.195.254 1.55.262.07.002.026-.074-.1-.173-.376-.296-.543-.76-.477-1.324.106-.902.73-1.739 1.709-2.29.242-.136.722-.416 1.066-.623.741-.445 2.058-.97 2.284-.911.088.023.172.007.186-.034.046-.13 1.684-.285 2.436-.232.785.055 2.981.497 3.86.776.67.213 1.473.688 1.39.821-.032.052-.02.071.028.042.096-.06.9.45 1.378.873.422.374 1.156 1.346 1.08 1.43-.035.04-.016.044.041.01.117-.066.627.52.882 1.014.26.5.228 1.448-.067 2.013-.34.651-1.185 1.382-1.426 1.233-.06-.036-.076-.022-.042.034.077.125-.895.493-1.165.442-.11-.021-.178-.004-.152.038.042.068-.264.101-.945.103-.123 0-.726-.031-1.341-.07-1.545-.097-2.12.068-3.006.864-.208.186-.352.339-.321.339s-.016.08-.105.178c-.223.247-.125.224.186-.043m5.747-1.59c.123-.01.249-.053.28-.096s.179-.084.326-.09.256-.03.24-.055c-.015-.025.208-.186.495-.357.378-.226.599-.439.803-.776.596-.982.541-1.732-.189-2.605-.238-.286-.404-.548-.369-.583.036-.036.008-.051-.06-.035-.154.036-.564-.533-.484-.673.031-.055.031-.077-.001-.049s-.25-.132-.485-.357-.757-.627-1.16-.894c-.404-.267-.734-.518-.734-.558 0-.039-.03-.063-.067-.053s-.308-.073-.602-.185c-.295-.113-.937-.281-1.428-.375s-1.153-.23-1.472-.302a5.7 5.7 0 0 0-.954-.134c-.205-.002-.399-.044-.43-.094s-.093-.068-.14-.04c-.07.044-1.042.171-2 .262a2 2 0 0 0-.49.119c-.455.191-1.117.414-1.15.387-.02-.016-.06.007-.09.05-.185.269-1.907 1.222-2.014 1.115-.034-.035-.05-.02-.033.034.045.147-.557.618-.767.6-.144-.013-.15-.006-.026.03.151.043.15.06-.011.329-.247.409-.407 1.133-.335 1.516.038.2.191.463.392.672.305.317.372.345.857.36.289.008.563.038.61.067.045.028.02-.072-.058-.222-.17-.33-.178-.402-.03-.316.061.036.035-.022-.058-.129-.128-.145-.14-.194-.045-.195.102-.001.1-.017-.009-.088-.073-.047-.093-.087-.044-.088.049 0 .092-.143.096-.316s.086-.422.184-.552c.278-.372.797-.755 1.042-.77.123-.008.207-.03.186-.051s.2-.171.488-.334c.564-.318 1.534-.608 1.801-.538.09.024.178.004.194-.045.05-.152 1.868-.109 2.56.06.347.086.63.181.631.213 0 .031.11.062.245.068.382.016 1.015.212.962.297-.026.042.03.057.124.032.28-.073 1.209.486 1.749 1.053.275.288.474.565.443.616-.031.05-.024.081.017.068.12-.039.942.895.878.999-.033.052-.027.085.014.071.04-.013.09.016.112.065.02.049.09.142.156.207.11.11.141.321.138.953-.002.444-.017.503-.109.446-.049-.03-.066.003-.038.075.121.317-.9 1.103-1.48 1.139-.173.01-.154.027.09.072.172.033.473.045.669.027s.457-.039.58-.048m-1.65-.29c.098-.003.338-.04.535-.082.196-.042.397-.067.446-.054.049.012.064-.003.033-.034-.03-.03.056-.168.192-.304.242-.242.442-.756.443-1.136.001-.37-.207-.8-.578-1.195a11 11 0 0 1-.749-.913c-.68-.94-1.824-1.62-2.937-1.75-.065-.008-.094-.052-.065-.098.03-.047-.035-.068-.144-.047-.249.048-.624-.043-.566-.138.024-.039-.043-.048-.148-.02-.106.027-.17.013-.143-.031.028-.045-.097-.084-.276-.087s-.647-.014-1.04-.025a7 7 0 0 0-2.32.368c-.196.07-.412.107-.48.084-.068-.024-.101-.006-.073.04.027.044-.252.24-.622.434-.624.329-1.189.818-1.189 1.031 0 .05-.032.072-.07.048-.04-.024-.064.209-.055.518.02.658.195.988.568 1.062.141.029.457.148.701.266l.445.215.053-.264c.067-.337.51-.752.93-.87.621-.177 1.338-.215 1.503-.081.11.09.134.092.084.009-.051-.085-.014-.104.139-.073.114.023.33.062.478.087.446.073 1.297.42 1.243.508-.028.045.012.058.087.029.081-.031.16.006.193.09.03.078.086.122.125.098s.294.198.568.493c.627.678.782 1.15.556 1.693-.048.115.078.13.888.11.7-.016.927.004.88.082q-.068.107.06.023a.7.7 0 0 1 .304-.086m2.52 2.217c.11-.021.29-.021.401 0 .11.021.02.039-.2.039-.221 0-.312-.018-.201-.039m.912-.023c.073-.046.286-.11.474-.141.188-.032.578-.15.866-.263s.547-.183.575-.155.05.004.05-.054.042-.104.093-.104c.204 0 1.683-1.087 2.222-1.635.317-.321.618-.56.67-.53.05.029.067.024.036-.012-.032-.035.077-.287.241-.56.164-.272.343-.721.397-.998.053-.276.132-.613.175-.749.042-.135.046-.227.01-.204-.06.036-.087-.175-.131-.992-.006-.106-.027-.177-.047-.156s-.15-.16-.287-.4-.55-.707-.918-1.037c-.552-.496-.733-.73-1.03-1.34-.478-.978-.955-1.4-2.37-2.101-.604-.299-1.312-.727-1.574-.95-.457-.392-1.263-.82-1.636-.869-.792-.104-1.918-.39-1.918-.488 0-.03-.07-.062-.156-.07s-.457-.101-.825-.209c-1.33-.386-3.671-.314-4.777.148-.353.147-.665.165-.665.037 0-.049.053-.089.12-.089.065 0 .45-.104.853-.231.404-.127.757-.21.785-.182.027.028.114.016.194-.025.28-.147 1.268-.201 1.42-.078.11.09.126.09.074.002-.054-.089.063-.102.539-.06.334.03.633.07.665.09.031.02.213.06.402.09s.365.081.39.113c.024.032.148.065.275.073.126.008.387.083.58.168.192.084.41.164.483.178 1.488.275 2.52.559 2.45.672-.028.044.006.059.075.032s.453.196.858.496c.403.3 1.122.748 1.597.998.992.522 1.604.945 1.935 1.34.243.288.708 1.142.622 1.142-.027 0 .033.089.135.197.1.109.165.248.141.308-.027.071.01.09.103.055.11-.043.13-.019.085.1q-.06.159.051.119c.17-.06 1.243 1.081 1.49 1.585.175.356.223.603.237 1.227.01.43-.017.78-.06.78s-.056.056-.03.124-.022.278-.107.468-.157.373-.161.408a.46.46 0 0 1-.12.174c-.061.061-.111.143-.111.181 0 .103-.24.393-.893 1.079-.863.907-2.37 1.859-3.423 2.163-.616.177-1.33.263-1.129.135m-9.388-1.55a1.4 1.4 0 0 1-.067-.422c0-.143-.08-.468-.176-.724-.236-.621-.166-.646.128-.044.18.367.23.591.21.92-.02.298-.049.383-.095.27m-10.06-5.14c0-.141.051-.277.112-.302q.117-.046.007-.052c-.123-.008-.069-.66.059-.704.044-.016.059-.085.033-.153-.049-.126.304-.98.52-1.26.354-.458 1.178-1.201 1.743-1.572.354-.232.665-.422.69-.422.051 0 .345-.233.573-.453.08-.078.305-.258.502-.401.196-.143.386-.3.422-.35s.066-.062.067-.027c0 .034.107-.035.236-.155s.264-.198.302-.175.117-.017.177-.09c.06-.072.145-.11.189-.083.043.027.079.014.079-.029 0-.167 1.697-.75 1.943-.668.063.021.168-.005.232-.059.165-.136.947-.235.947-.12 0 .05-.19.118-.423.151-1.66.233-2.91.854-4.974 2.467-.246.192-.499.33-.562.305-.064-.024-.095-.009-.07.033.027.042-.162.218-.418.39-.609.407-1.314 1.105-1.536 1.52-.097.182-.206.331-.242.331s-.045.055-.02.122c.027.068-.005.178-.069.246a.56.56 0 0 0-.127.301 5 5 0 0 1-.06.446 5 5 0 0 0-.056.593c-.01.408-.275.573-.275.17" style="fill:#626262;fill-opacity:1"/></svg>